<?xml version="1.0" encoding="utf-8"?>
<svg xmlns="http://www.w3.org/2000/svg" xmlns:xlink="http://www.w3.org/1999/xlink" width="600" height="400" viewBox="0 0 2400 1600">
<defs>
  <clipPath id="clip570">
    <rect x="0" y="0" width="2400" height="1600"/>
  </clipPath>
</defs>
<path clip-path="url(#clip570)" d="
M0 1600 L2400 1600 L2400 0 L0 0  Z
  " fill="#ffffff" fill-rule="evenodd" fill-opacity="1"/>
<defs>
  <clipPath id="clip571">
    <rect x="480" y="0" width="1681" height="1600"/>
  </clipPath>
</defs>
<path clip-path="url(#clip570)" d="
M263.037 1423.18 L2352.76 1423.18 L2352.76 123.472 L263.037 123.472  Z
  " fill="#ffffff" fill-rule="evenodd" fill-opacity="1"/>
<defs>
  <clipPath id="clip572">
    <rect x="263" y="123" width="2091" height="1301"/>
  </clipPath>
</defs>
<polyline clip-path="url(#clip572)" style="stroke:#000000; stroke-linecap:butt; stroke-linejoin:round; stroke-width:2; stroke-opacity:0.1; fill:none" points="
  320.189,1423.18 320.189,123.472 
  "/>
<polyline clip-path="url(#clip572)" style="stroke:#000000; stroke-linecap:butt; stroke-linejoin:round; stroke-width:2; stroke-opacity:0.1; fill:none" points="
  771.195,1423.18 771.195,123.472 
  "/>
<polyline clip-path="url(#clip572)" style="stroke:#000000; stroke-linecap:butt; stroke-linejoin:round; stroke-width:2; stroke-opacity:0.1; fill:none" points="
  1222.2,1423.18 1222.2,123.472 
  "/>
<polyline clip-path="url(#clip572)" style="stroke:#000000; stroke-linecap:butt; stroke-linejoin:round; stroke-width:2; stroke-opacity:0.1; fill:none" points="
  1673.21,1423.18 1673.21,123.472 
  "/>
<polyline clip-path="url(#clip572)" style="stroke:#000000; stroke-linecap:butt; stroke-linejoin:round; stroke-width:2; stroke-opacity:0.1; fill:none" points="
  2124.21,1423.18 2124.21,123.472 
  "/>
<polyline clip-path="url(#clip570)" style="stroke:#000000; stroke-linecap:butt; stroke-linejoin:round; stroke-width:4; stroke-opacity:1; fill:none" points="
  263.037,1423.18 2352.76,1423.18 
  "/>
<polyline clip-path="url(#clip570)" style="stroke:#000000; stroke-linecap:butt; stroke-linejoin:round; stroke-width:4; stroke-opacity:1; fill:none" points="
  320.189,1423.18 320.189,1404.28 
  "/>
<polyline clip-path="url(#clip570)" style="stroke:#000000; stroke-linecap:butt; stroke-linejoin:round; stroke-width:4; stroke-opacity:1; fill:none" points="
  771.195,1423.18 771.195,1404.28 
  "/>
<polyline clip-path="url(#clip570)" style="stroke:#000000; stroke-linecap:butt; stroke-linejoin:round; stroke-width:4; stroke-opacity:1; fill:none" points="
  1222.2,1423.18 1222.2,1404.28 
  "/>
<polyline clip-path="url(#clip570)" style="stroke:#000000; stroke-linecap:butt; stroke-linejoin:round; stroke-width:4; stroke-opacity:1; fill:none" points="
  1673.21,1423.18 1673.21,1404.28 
  "/>
<polyline clip-path="url(#clip570)" style="stroke:#000000; stroke-linecap:butt; stroke-linejoin:round; stroke-width:4; stroke-opacity:1; fill:none" points="
  2124.21,1423.18 2124.21,1404.28 
  "/>
<path clip-path="url(#clip570)" d="M320.189 1454.1 Q316.578 1454.1 314.749 1457.66 Q312.944 1461.2 312.944 1468.33 Q312.944 1475.44 314.749 1479.01 Q316.578 1482.55 320.189 1482.55 Q323.823 1482.55 325.629 1479.01 Q327.457 1475.44 327.457 1468.33 Q327.457 1461.2 325.629 1457.66 Q323.823 1454.1 320.189 1454.1 M320.189 1450.39 Q325.999 1450.39 329.055 1455 Q332.133 1459.58 332.133 1468.33 Q332.133 1477.06 329.055 1481.67 Q325.999 1486.25 320.189 1486.25 Q314.379 1486.25 311.3 1481.67 Q308.245 1477.06 308.245 1468.33 Q308.245 1459.58 311.3 1455 Q314.379 1450.39 320.189 1450.39 Z" fill="#000000" fill-rule="evenodd" fill-opacity="1" /><path clip-path="url(#clip570)" d="M750.466 1481.64 L766.786 1481.64 L766.786 1485.58 L744.841 1485.58 L744.841 1481.64 Q747.503 1478.89 752.087 1474.26 Q756.693 1469.61 757.874 1468.27 Q760.119 1465.74 760.999 1464.01 Q761.901 1462.25 761.901 1460.56 Q761.901 1457.8 759.957 1456.07 Q758.036 1454.33 754.934 1454.33 Q752.735 1454.33 750.281 1455.09 Q747.851 1455.86 745.073 1457.41 L745.073 1452.69 Q747.897 1451.55 750.351 1450.97 Q752.804 1450.39 754.841 1450.39 Q760.212 1450.39 763.406 1453.08 Q766.6 1455.77 766.6 1460.26 Q766.6 1462.39 765.79 1464.31 Q765.003 1466.2 762.897 1468.8 Q762.318 1469.47 759.216 1472.69 Q756.114 1475.88 750.466 1481.64 Z" fill="#000000" fill-rule="evenodd" fill-opacity="1" /><path clip-path="url(#clip570)" d="M776.647 1451.02 L795.003 1451.02 L795.003 1454.96 L780.929 1454.96 L780.929 1463.43 Q781.948 1463.08 782.966 1462.92 Q783.985 1462.73 785.003 1462.73 Q790.79 1462.73 794.17 1465.9 Q797.549 1469.08 797.549 1474.49 Q797.549 1480.07 794.077 1483.17 Q790.605 1486.25 784.286 1486.25 Q782.11 1486.25 779.841 1485.88 Q777.596 1485.51 775.188 1484.77 L775.188 1480.07 Q777.272 1481.2 779.494 1481.76 Q781.716 1482.32 784.193 1482.32 Q788.198 1482.32 790.535 1480.21 Q792.873 1478.1 792.873 1474.49 Q792.873 1470.88 790.535 1468.77 Q788.198 1466.67 784.193 1466.67 Q782.318 1466.67 780.443 1467.08 Q778.591 1467.5 776.647 1468.38 L776.647 1451.02 Z" fill="#000000" fill-rule="evenodd" fill-opacity="1" /><path clip-path="url(#clip570)" d="M1196.9 1451.02 L1215.26 1451.02 L1215.26 1454.96 L1201.18 1454.96 L1201.18 1463.43 Q1202.2 1463.08 1203.22 1462.92 Q1204.24 1462.73 1205.26 1462.73 Q1211.04 1462.73 1214.42 1465.9 Q1217.8 1469.08 1217.8 1474.49 Q1217.8 1480.07 1214.33 1483.17 Q1210.86 1486.25 1204.54 1486.25 Q1202.36 1486.25 1200.1 1485.88 Q1197.85 1485.51 1195.44 1484.77 L1195.44 1480.07 Q1197.53 1481.2 1199.75 1481.76 Q1201.97 1482.32 1204.45 1482.32 Q1208.45 1482.32 1210.79 1480.21 Q1213.13 1478.1 1213.13 1474.49 Q1213.13 1470.88 1210.79 1468.77 Q1208.45 1466.67 1204.45 1466.67 Q1202.57 1466.67 1200.7 1467.08 Q1198.85 1467.5 1196.9 1468.38 L1196.9 1451.02 Z" fill="#000000" fill-rule="evenodd" fill-opacity="1" /><path clip-path="url(#clip570)" d="M1237.02 1454.1 Q1233.41 1454.1 1231.58 1457.66 Q1229.77 1461.2 1229.77 1468.33 Q1229.77 1475.44 1231.58 1479.01 Q1233.41 1482.55 1237.02 1482.55 Q1240.65 1482.55 1242.46 1479.01 Q1244.28 1475.44 1244.28 1468.33 Q1244.28 1461.2 1242.46 1457.66 Q1240.65 1454.1 1237.02 1454.1 M1237.02 1450.39 Q1242.83 1450.39 1245.88 1455 Q1248.96 1459.58 1248.96 1468.33 Q1248.96 1477.06 1245.88 1481.67 Q1242.83 1486.25 1237.02 1486.25 Q1231.21 1486.25 1228.13 1481.67 Q1225.07 1477.06 1225.07 1468.33 Q1225.07 1459.58 1228.13 1455 Q1231.21 1450.39 1237.02 1450.39 Z" fill="#000000" fill-rule="evenodd" fill-opacity="1" /><path clip-path="url(#clip570)" d="M1647.06 1451.02 L1669.28 1451.02 L1669.28 1453.01 L1656.74 1485.58 L1651.85 1485.58 L1663.66 1454.96 L1647.06 1454.96 L1647.06 1451.02 Z" fill="#000000" fill-rule="evenodd" fill-opacity="1" /><path clip-path="url(#clip570)" d="M1678.45 1451.02 L1696.81 1451.02 L1696.81 1454.96 L1682.73 1454.96 L1682.73 1463.43 Q1683.75 1463.08 1684.77 1462.92 Q1685.79 1462.73 1686.81 1462.73 Q1692.59 1462.73 1695.97 1465.9 Q1699.35 1469.08 1699.35 1474.49 Q1699.35 1480.07 1695.88 1483.17 Q1692.41 1486.25 1686.09 1486.25 Q1683.91 1486.25 1681.65 1485.88 Q1679.4 1485.51 1676.99 1484.77 L1676.99 1480.07 Q1679.08 1481.2 1681.3 1481.76 Q1683.52 1482.32 1686 1482.32 Q1690 1482.32 1692.34 1480.21 Q1694.68 1478.1 1694.68 1474.49 Q1694.68 1470.88 1692.34 1468.77 Q1690 1466.67 1686 1466.67 Q1684.12 1466.67 1682.25 1467.08 Q1680.4 1467.5 1678.45 1468.38 L1678.45 1451.02 Z" fill="#000000" fill-rule="evenodd" fill-opacity="1" /><path clip-path="url(#clip570)" d="M2083.82 1481.64 L2091.46 1481.64 L2091.46 1455.28 L2083.15 1456.95 L2083.15 1452.69 L2091.41 1451.02 L2096.09 1451.02 L2096.09 1481.64 L2103.73 1481.64 L2103.73 1485.58 L2083.82 1485.58 L2083.82 1481.64 Z" fill="#000000" fill-rule="evenodd" fill-opacity="1" /><path clip-path="url(#clip570)" d="M2123.17 1454.1 Q2119.56 1454.1 2117.73 1457.66 Q2115.93 1461.2 2115.93 1468.33 Q2115.93 1475.44 2117.73 1479.01 Q2119.56 1482.55 2123.17 1482.55 Q2126.81 1482.55 2128.61 1479.01 Q2130.44 1475.44 2130.44 1468.33 Q2130.44 1461.2 2128.61 1457.66 Q2126.81 1454.1 2123.17 1454.1 M2123.17 1450.39 Q2128.98 1450.39 2132.04 1455 Q2135.12 1459.58 2135.12 1468.33 Q2135.12 1477.06 2132.04 1481.67 Q2128.98 1486.25 2123.17 1486.25 Q2117.36 1486.25 2114.28 1481.67 Q2111.23 1477.06 2111.23 1468.33 Q2111.23 1459.58 2114.28 1455 Q2117.36 1450.39 2123.17 1450.39 Z" fill="#000000" fill-rule="evenodd" fill-opacity="1" /><path clip-path="url(#clip570)" d="M2153.33 1454.1 Q2149.72 1454.1 2147.89 1457.66 Q2146.09 1461.2 2146.09 1468.33 Q2146.09 1475.44 2147.89 1479.01 Q2149.72 1482.55 2153.33 1482.55 Q2156.97 1482.55 2158.77 1479.01 Q2160.6 1475.44 2160.6 1468.33 Q2160.6 1461.2 2158.77 1457.66 Q2156.97 1454.1 2153.33 1454.1 M2153.33 1450.39 Q2159.14 1450.39 2162.2 1455 Q2165.28 1459.58 2165.28 1468.33 Q2165.28 1477.06 2162.2 1481.67 Q2159.14 1486.25 2153.33 1486.25 Q2147.52 1486.25 2144.45 1481.67 Q2141.39 1477.06 2141.39 1468.33 Q2141.39 1459.58 2144.45 1455 Q2147.52 1450.39 2153.33 1450.39 Z" fill="#000000" fill-rule="evenodd" fill-opacity="1" /><path clip-path="url(#clip570)" d="M1216.13 1522.27 L1216.13 1532.4 L1228.2 1532.4 L1228.2 1536.95 L1216.13 1536.95 L1216.13 1556.3 Q1216.13 1560.66 1217.31 1561.9 Q1218.52 1563.14 1222.18 1563.14 L1228.2 1563.14 L1228.2 1568.04 L1222.18 1568.04 Q1215.4 1568.04 1212.82 1565.53 Q1210.25 1562.98 1210.25 1556.3 L1210.25 1536.95 L1205.95 1536.95 L1205.95 1532.4 L1210.25 1532.4 L1210.25 1522.27 L1216.13 1522.27 Z" fill="#000000" fill-rule="evenodd" fill-opacity="1" /><path clip-path="url(#clip570)" d="M1256.62 1532.4 L1262.48 1532.4 L1262.48 1568.04 L1256.62 1568.04 L1256.62 1532.4 M1256.62 1518.52 L1262.48 1518.52 L1262.48 1525.93 L1256.62 1525.93 L1256.62 1518.52 Z" fill="#000000" fill-rule="evenodd" fill-opacity="1" /><path clip-path="url(#clip570)" d="M1304.36 1546.53 L1304.36 1568.04 L1298.51 1568.04 L1298.51 1546.72 Q1298.51 1541.66 1296.53 1539.14 Q1294.56 1536.63 1290.61 1536.63 Q1285.87 1536.63 1283.13 1539.65 Q1280.4 1542.68 1280.4 1547.9 L1280.4 1568.04 L1274.51 1568.04 L1274.51 1532.4 L1280.4 1532.4 L1280.4 1537.93 Q1282.5 1534.72 1285.33 1533.13 Q1288.19 1531.54 1291.92 1531.54 Q1298.06 1531.54 1301.21 1535.36 Q1304.36 1539.14 1304.36 1546.53 Z" fill="#000000" fill-rule="evenodd" fill-opacity="1" /><path clip-path="url(#clip570)" d="M1336.22 1518.52 L1349.72 1518.52 L1349.72 1523.07 L1342.08 1523.07 L1342.08 1572.09 L1349.72 1572.09 L1349.72 1576.64 L1336.22 1576.64 L1336.22 1518.52 Z" fill="#000000" fill-rule="evenodd" fill-opacity="1" /><path clip-path="url(#clip570)" d="M1384.92 1533.45 L1384.92 1538.98 Q1382.44 1537.71 1379.77 1537.07 Q1377.09 1536.44 1374.23 1536.44 Q1369.87 1536.44 1367.67 1537.77 Q1365.51 1539.11 1365.51 1541.79 Q1365.51 1543.82 1367.07 1545 Q1368.63 1546.15 1373.34 1547.2 L1375.34 1547.64 Q1381.58 1548.98 1384.19 1551.43 Q1386.83 1553.85 1386.83 1558.21 Q1386.83 1563.17 1382.88 1566.07 Q1378.97 1568.97 1372.09 1568.97 Q1369.23 1568.97 1366.11 1568.39 Q1363.02 1567.85 1359.59 1566.74 L1359.59 1560.69 Q1362.83 1562.38 1365.98 1563.24 Q1369.13 1564.07 1372.22 1564.07 Q1376.36 1564.07 1378.59 1562.66 Q1380.82 1561.23 1380.82 1558.65 Q1380.82 1556.27 1379.19 1554.99 Q1377.6 1553.72 1372.16 1552.54 L1370.12 1552.07 Q1364.68 1550.92 1362.26 1548.56 Q1359.84 1546.18 1359.84 1542.04 Q1359.84 1537.01 1363.41 1534.27 Q1366.97 1531.54 1373.53 1531.54 Q1376.77 1531.54 1379.64 1532.01 Q1382.5 1532.49 1384.92 1533.45 Z" fill="#000000" fill-rule="evenodd" fill-opacity="1" /><path clip-path="url(#clip570)" d="M1409.84 1518.52 L1409.84 1576.64 L1396.35 1576.64 L1396.35 1572.09 L1403.96 1572.09 L1403.96 1523.07 L1396.35 1523.07 L1396.35 1518.52 L1409.84 1518.52 Z" fill="#000000" fill-rule="evenodd" fill-opacity="1" /><polyline clip-path="url(#clip572)" style="stroke:#000000; stroke-linecap:butt; stroke-linejoin:round; stroke-width:2; stroke-opacity:0.1; fill:none" points="
  263.037,1342.33 2352.76,1342.33 
  "/>
<polyline clip-path="url(#clip572)" style="stroke:#000000; stroke-linecap:butt; stroke-linejoin:round; stroke-width:2; stroke-opacity:0.1; fill:none" points="
  263.037,1090.56 2352.76,1090.56 
  "/>
<polyline clip-path="url(#clip572)" style="stroke:#000000; stroke-linecap:butt; stroke-linejoin:round; stroke-width:2; stroke-opacity:0.1; fill:none" points="
  263.037,838.785 2352.76,838.785 
  "/>
<polyline clip-path="url(#clip572)" style="stroke:#000000; stroke-linecap:butt; stroke-linejoin:round; stroke-width:2; stroke-opacity:0.1; fill:none" points="
  263.037,587.013 2352.76,587.013 
  "/>
<polyline clip-path="url(#clip572)" style="stroke:#000000; stroke-linecap:butt; stroke-linejoin:round; stroke-width:2; stroke-opacity:0.1; fill:none" points="
  263.037,335.24 2352.76,335.24 
  "/>
<polyline clip-path="url(#clip570)" style="stroke:#000000; stroke-linecap:butt; stroke-linejoin:round; stroke-width:4; stroke-opacity:1; fill:none" points="
  263.037,1423.18 263.037,123.472 
  "/>
<polyline clip-path="url(#clip570)" style="stroke:#000000; stroke-linecap:butt; stroke-linejoin:round; stroke-width:4; stroke-opacity:1; fill:none" points="
  263.037,1342.33 281.935,1342.33 
  "/>
<polyline clip-path="url(#clip570)" style="stroke:#000000; stroke-linecap:butt; stroke-linejoin:round; stroke-width:4; stroke-opacity:1; fill:none" points="
  263.037,1090.56 281.935,1090.56 
  "/>
<polyline clip-path="url(#clip570)" style="stroke:#000000; stroke-linecap:butt; stroke-linejoin:round; stroke-width:4; stroke-opacity:1; fill:none" points="
  263.037,838.785 281.935,838.785 
  "/>
<polyline clip-path="url(#clip570)" style="stroke:#000000; stroke-linecap:butt; stroke-linejoin:round; stroke-width:4; stroke-opacity:1; fill:none" points="
  263.037,587.013 281.935,587.013 
  "/>
<polyline clip-path="url(#clip570)" style="stroke:#000000; stroke-linecap:butt; stroke-linejoin:round; stroke-width:4; stroke-opacity:1; fill:none" points="
  263.037,335.24 281.935,335.24 
  "/>
<path clip-path="url(#clip570)" d="M115.51 1355.68 L123.149 1355.68 L123.149 1329.31 L114.839 1330.98 L114.839 1326.72 L123.103 1325.05 L127.779 1325.05 L127.779 1355.68 L135.417 1355.68 L135.417 1359.61 L115.51 1359.61 L115.51 1355.68 Z" fill="#000000" fill-rule="evenodd" fill-opacity="1" /><path clip-path="url(#clip570)" d="M154.862 1328.13 Q151.251 1328.13 149.422 1331.69 Q147.616 1335.24 147.616 1342.37 Q147.616 1349.47 149.422 1353.04 Q151.251 1356.58 154.862 1356.58 Q158.496 1356.58 160.302 1353.04 Q162.13 1349.47 162.13 1342.37 Q162.13 1335.24 160.302 1331.69 Q158.496 1328.13 154.862 1328.13 M154.862 1324.43 Q160.672 1324.43 163.727 1329.03 Q166.806 1333.62 166.806 1342.37 Q166.806 1351.09 163.727 1355.7 Q160.672 1360.28 154.862 1360.28 Q149.052 1360.28 145.973 1355.7 Q142.917 1351.09 142.917 1342.37 Q142.917 1333.62 145.973 1329.03 Q149.052 1324.43 154.862 1324.43 Z" fill="#000000" fill-rule="evenodd" fill-opacity="1" /><path clip-path="url(#clip570)" d="M175.834 1355.68 L183.473 1355.68 L183.473 1329.31 L175.163 1330.98 L175.163 1326.72 L183.426 1325.05 L188.102 1325.05 L188.102 1355.68 L195.741 1355.68 L195.741 1359.61 L175.834 1359.61 L175.834 1355.68 Z" fill="#000000" fill-rule="evenodd" fill-opacity="1" /><path clip-path="url(#clip570)" d="M215.186 1343.2 Q211.852 1343.2 209.931 1344.98 Q208.033 1346.76 208.033 1349.89 Q208.033 1353.01 209.931 1354.8 Q211.852 1356.58 215.186 1356.58 Q218.519 1356.58 220.44 1354.8 Q222.361 1352.99 222.361 1349.89 Q222.361 1346.76 220.44 1344.98 Q218.542 1343.2 215.186 1343.2 M210.51 1341.21 Q207.5 1340.47 205.811 1338.41 Q204.144 1336.35 204.144 1333.38 Q204.144 1329.24 207.084 1326.83 Q210.047 1324.43 215.186 1324.43 Q220.348 1324.43 223.287 1326.83 Q226.227 1329.24 226.227 1333.38 Q226.227 1336.35 224.537 1338.41 Q222.871 1340.47 219.885 1341.21 Q223.264 1342 225.139 1344.29 Q227.037 1346.58 227.037 1349.89 Q227.037 1354.91 223.959 1357.6 Q220.903 1360.28 215.186 1360.28 Q209.468 1360.28 206.389 1357.6 Q203.334 1354.91 203.334 1349.89 Q203.334 1346.58 205.232 1344.29 Q207.13 1342 210.51 1341.21 M208.797 1333.82 Q208.797 1336.51 210.463 1338.01 Q212.153 1339.52 215.186 1339.52 Q218.195 1339.52 219.885 1338.01 Q221.598 1336.51 221.598 1333.82 Q221.598 1331.14 219.885 1329.63 Q218.195 1328.13 215.186 1328.13 Q212.153 1328.13 210.463 1329.63 Q208.797 1331.14 208.797 1333.82 Z" fill="#000000" fill-rule="evenodd" fill-opacity="1" /><path clip-path="url(#clip570)" d="M115.418 1103.9 L123.056 1103.9 L123.056 1077.54 L114.746 1079.2 L114.746 1074.94 L123.01 1073.28 L127.686 1073.28 L127.686 1103.9 L135.325 1103.9 L135.325 1107.84 L115.418 1107.84 L115.418 1103.9 Z" fill="#000000" fill-rule="evenodd" fill-opacity="1" /><path clip-path="url(#clip570)" d="M154.769 1076.36 Q151.158 1076.36 149.329 1079.92 Q147.524 1083.46 147.524 1090.59 Q147.524 1097.7 149.329 1101.26 Q151.158 1104.81 154.769 1104.81 Q158.403 1104.81 160.209 1101.26 Q162.038 1097.7 162.038 1090.59 Q162.038 1083.46 160.209 1079.92 Q158.403 1076.36 154.769 1076.36 M154.769 1072.65 Q160.579 1072.65 163.635 1077.26 Q166.714 1081.84 166.714 1090.59 Q166.714 1099.32 163.635 1103.93 Q160.579 1108.51 154.769 1108.51 Q148.959 1108.51 145.88 1103.93 Q142.825 1099.32 142.825 1090.59 Q142.825 1081.84 145.88 1077.26 Q148.959 1072.65 154.769 1072.65 Z" fill="#000000" fill-rule="evenodd" fill-opacity="1" /><path clip-path="url(#clip570)" d="M178.959 1103.9 L195.278 1103.9 L195.278 1107.84 L173.334 1107.84 L173.334 1103.9 Q175.996 1101.15 180.579 1096.52 Q185.186 1091.87 186.366 1090.52 Q188.612 1088 189.491 1086.26 Q190.394 1084.5 190.394 1082.82 Q190.394 1080.06 188.45 1078.32 Q186.528 1076.59 183.426 1076.59 Q181.227 1076.59 178.774 1077.35 Q176.343 1078.12 173.565 1079.67 L173.565 1074.94 Q176.389 1073.81 178.843 1073.23 Q181.297 1072.65 183.334 1072.65 Q188.704 1072.65 191.899 1075.34 Q195.093 1078.02 195.093 1082.51 Q195.093 1084.64 194.283 1086.57 Q193.496 1088.46 191.389 1091.06 Q190.811 1091.73 187.709 1094.94 Q184.607 1098.14 178.959 1103.9 Z" fill="#000000" fill-rule="evenodd" fill-opacity="1" /><path clip-path="url(#clip570)" d="M215.093 1076.36 Q211.482 1076.36 209.653 1079.92 Q207.848 1083.46 207.848 1090.59 Q207.848 1097.7 209.653 1101.26 Q211.482 1104.81 215.093 1104.81 Q218.727 1104.81 220.533 1101.26 Q222.361 1097.7 222.361 1090.59 Q222.361 1083.46 220.533 1079.92 Q218.727 1076.36 215.093 1076.36 M215.093 1072.65 Q220.903 1072.65 223.959 1077.26 Q227.037 1081.84 227.037 1090.59 Q227.037 1099.32 223.959 1103.93 Q220.903 1108.51 215.093 1108.51 Q209.283 1108.51 206.204 1103.93 Q203.149 1099.32 203.149 1090.59 Q203.149 1081.84 206.204 1077.26 Q209.283 1072.65 215.093 1072.65 Z" fill="#000000" fill-rule="evenodd" fill-opacity="1" /><path clip-path="url(#clip570)" d="M117.015 852.13 L124.654 852.13 L124.654 825.765 L116.343 827.431 L116.343 823.172 L124.607 821.505 L129.283 821.505 L129.283 852.13 L136.922 852.13 L136.922 856.065 L117.015 856.065 L117.015 852.13 Z" fill="#000000" fill-rule="evenodd" fill-opacity="1" /><path clip-path="url(#clip570)" d="M156.366 824.584 Q152.755 824.584 150.927 828.149 Q149.121 831.691 149.121 838.82 Q149.121 845.927 150.927 849.491 Q152.755 853.033 156.366 853.033 Q160.001 853.033 161.806 849.491 Q163.635 845.927 163.635 838.82 Q163.635 831.691 161.806 828.149 Q160.001 824.584 156.366 824.584 M156.366 820.88 Q162.177 820.88 165.232 825.487 Q168.311 830.07 168.311 838.82 Q168.311 847.547 165.232 852.153 Q162.177 856.737 156.366 856.737 Q150.556 856.737 147.478 852.153 Q144.422 847.547 144.422 838.82 Q144.422 830.07 147.478 825.487 Q150.556 820.88 156.366 820.88 Z" fill="#000000" fill-rule="evenodd" fill-opacity="1" /><path clip-path="url(#clip570)" d="M180.556 852.13 L196.875 852.13 L196.875 856.065 L174.931 856.065 L174.931 852.13 Q177.593 849.376 182.176 844.746 Q186.783 840.093 187.963 838.751 Q190.209 836.228 191.088 834.492 Q191.991 832.732 191.991 831.042 Q191.991 828.288 190.047 826.552 Q188.126 824.816 185.024 824.816 Q182.825 824.816 180.371 825.58 Q177.94 826.343 175.163 827.894 L175.163 823.172 Q177.987 822.038 180.44 821.459 Q182.894 820.88 184.931 820.88 Q190.301 820.88 193.496 823.566 Q196.69 826.251 196.69 830.742 Q196.69 832.871 195.88 834.792 Q195.093 836.691 192.987 839.283 Q192.408 839.954 189.306 843.172 Q186.204 846.366 180.556 852.13 Z" fill="#000000" fill-rule="evenodd" fill-opacity="1" /><path clip-path="url(#clip570)" d="M210.718 852.13 L227.037 852.13 L227.037 856.065 L205.093 856.065 L205.093 852.13 Q207.755 849.376 212.338 844.746 Q216.945 840.093 218.125 838.751 Q220.371 836.228 221.25 834.492 Q222.153 832.732 222.153 831.042 Q222.153 828.288 220.209 826.552 Q218.287 824.816 215.186 824.816 Q212.986 824.816 210.533 825.58 Q208.102 826.343 205.324 827.894 L205.324 823.172 Q208.149 822.038 210.602 821.459 Q213.056 820.88 215.093 820.88 Q220.463 820.88 223.658 823.566 Q226.852 826.251 226.852 830.742 Q226.852 832.871 226.042 834.792 Q225.255 836.691 223.148 839.283 Q222.57 839.954 219.468 843.172 Q216.366 846.366 210.718 852.13 Z" fill="#000000" fill-rule="evenodd" fill-opacity="1" /><path clip-path="url(#clip570)" d="M114.931 600.358 L122.57 600.358 L122.57 573.992 L114.26 575.659 L114.26 571.399 L122.524 569.733 L127.2 569.733 L127.2 600.358 L134.839 600.358 L134.839 604.293 L114.931 604.293 L114.931 600.358 Z" fill="#000000" fill-rule="evenodd" fill-opacity="1" /><path clip-path="url(#clip570)" d="M154.283 572.812 Q150.672 572.812 148.843 576.376 Q147.038 579.918 147.038 587.048 Q147.038 594.154 148.843 597.719 Q150.672 601.26 154.283 601.26 Q157.917 601.26 159.723 597.719 Q161.552 594.154 161.552 587.048 Q161.552 579.918 159.723 576.376 Q157.917 572.812 154.283 572.812 M154.283 569.108 Q160.093 569.108 163.149 573.714 Q166.227 578.298 166.227 587.048 Q166.227 595.774 163.149 600.381 Q160.093 604.964 154.283 604.964 Q148.473 604.964 145.394 600.381 Q142.339 595.774 142.339 587.048 Q142.339 578.298 145.394 573.714 Q148.473 569.108 154.283 569.108 Z" fill="#000000" fill-rule="evenodd" fill-opacity="1" /><path clip-path="url(#clip570)" d="M178.473 600.358 L194.792 600.358 L194.792 604.293 L172.848 604.293 L172.848 600.358 Q175.51 597.603 180.093 592.973 Q184.7 588.321 185.88 586.978 Q188.126 584.455 189.005 582.719 Q189.908 580.96 189.908 579.27 Q189.908 576.515 187.963 574.779 Q186.042 573.043 182.94 573.043 Q180.741 573.043 178.288 573.807 Q175.857 574.571 173.079 576.122 L173.079 571.399 Q175.903 570.265 178.357 569.687 Q180.811 569.108 182.848 569.108 Q188.218 569.108 191.413 571.793 Q194.607 574.478 194.607 578.969 Q194.607 581.099 193.797 583.02 Q193.01 584.918 190.903 587.511 Q190.325 588.182 187.223 591.399 Q184.121 594.594 178.473 600.358 Z" fill="#000000" fill-rule="evenodd" fill-opacity="1" /><path clip-path="url(#clip570)" d="M217.454 573.807 L205.649 592.256 L217.454 592.256 L217.454 573.807 M216.227 569.733 L222.107 569.733 L222.107 592.256 L227.037 592.256 L227.037 596.145 L222.107 596.145 L222.107 604.293 L217.454 604.293 L217.454 596.145 L201.852 596.145 L201.852 591.631 L216.227 569.733 Z" fill="#000000" fill-rule="evenodd" fill-opacity="1" /><path clip-path="url(#clip570)" d="M115.256 348.585 L122.894 348.585 L122.894 322.219 L114.584 323.886 L114.584 319.627 L122.848 317.96 L127.524 317.96 L127.524 348.585 L135.163 348.585 L135.163 352.52 L115.256 352.52 L115.256 348.585 Z" fill="#000000" fill-rule="evenodd" fill-opacity="1" /><path clip-path="url(#clip570)" d="M154.607 321.039 Q150.996 321.039 149.167 324.604 Q147.362 328.145 147.362 335.275 Q147.362 342.381 149.167 345.946 Q150.996 349.488 154.607 349.488 Q158.241 349.488 160.047 345.946 Q161.876 342.381 161.876 335.275 Q161.876 328.145 160.047 324.604 Q158.241 321.039 154.607 321.039 M154.607 317.335 Q160.417 317.335 163.473 321.942 Q166.552 326.525 166.552 335.275 Q166.552 344.002 163.473 348.608 Q160.417 353.191 154.607 353.191 Q148.797 353.191 145.718 348.608 Q142.663 344.002 142.663 335.275 Q142.663 326.525 145.718 321.942 Q148.797 317.335 154.607 317.335 Z" fill="#000000" fill-rule="evenodd" fill-opacity="1" /><path clip-path="url(#clip570)" d="M178.797 348.585 L195.116 348.585 L195.116 352.52 L173.172 352.52 L173.172 348.585 Q175.834 345.83 180.417 341.201 Q185.024 336.548 186.204 335.205 Q188.45 332.682 189.329 330.946 Q190.232 329.187 190.232 327.497 Q190.232 324.743 188.288 323.006 Q186.366 321.27 183.264 321.27 Q181.065 321.27 178.612 322.034 Q176.181 322.798 173.403 324.349 L173.403 319.627 Q176.227 318.493 178.681 317.914 Q181.135 317.335 183.172 317.335 Q188.542 317.335 191.737 320.02 Q194.931 322.706 194.931 327.196 Q194.931 329.326 194.121 331.247 Q193.334 333.145 191.227 335.738 Q190.649 336.409 187.547 339.627 Q184.445 342.821 178.797 348.585 Z" fill="#000000" fill-rule="evenodd" fill-opacity="1" /><path clip-path="url(#clip570)" d="M215.51 333.377 Q212.361 333.377 210.51 335.53 Q208.681 337.682 208.681 341.432 Q208.681 345.159 210.51 347.335 Q212.361 349.488 215.51 349.488 Q218.658 349.488 220.486 347.335 Q222.338 345.159 222.338 341.432 Q222.338 337.682 220.486 335.53 Q218.658 333.377 215.51 333.377 M224.792 318.724 L224.792 322.983 Q223.033 322.15 221.227 321.71 Q219.445 321.27 217.686 321.27 Q213.056 321.27 210.602 324.395 Q208.172 327.52 207.824 333.84 Q209.19 331.826 211.25 330.761 Q213.311 329.673 215.787 329.673 Q220.996 329.673 224.005 332.844 Q227.037 335.992 227.037 341.432 Q227.037 346.756 223.889 349.974 Q220.741 353.191 215.51 353.191 Q209.514 353.191 206.343 348.608 Q203.172 344.002 203.172 335.275 Q203.172 327.081 207.061 322.219 Q210.949 317.335 217.5 317.335 Q219.26 317.335 221.042 317.682 Q222.848 318.03 224.792 318.724 Z" fill="#000000" fill-rule="evenodd" fill-opacity="1" /><path clip-path="url(#clip570)" d="M21.7677 894.672 L39.6235 894.672 L39.6235 886.588 Q39.6235 882.1 37.3 879.649 Q34.9765 877.198 30.6797 877.198 Q26.4147 877.198 24.0912 879.649 Q21.7677 882.1 21.7677 886.588 L21.7677 894.672 M16.4842 901.102 L16.4842 886.588 Q16.4842 878.599 20.1126 874.525 Q23.7092 870.419 30.6797 870.419 Q37.7138 870.419 41.3104 874.525 Q44.907 878.599 44.907 886.588 L44.907 894.672 L64.0042 894.672 L64.0042 901.102 L16.4842 901.102 Z" fill="#000000" fill-rule="evenodd" fill-opacity="1" /><path clip-path="url(#clip570)" d="M33.8307 842.537 Q33.2578 843.524 33.0032 844.701 Q32.7167 845.847 32.7167 847.248 Q32.7167 852.213 35.9632 854.887 Q39.1779 857.528 45.2253 857.528 L64.0042 857.528 L64.0042 863.417 L28.3562 863.417 L28.3562 857.528 L33.8944 857.528 Q30.6479 855.682 29.0883 852.722 Q27.4968 849.762 27.4968 845.529 Q27.4968 844.924 27.5923 844.192 Q27.656 843.46 27.8151 842.569 L33.8307 842.537 Z" fill="#000000" fill-rule="evenodd" fill-opacity="1" /><path clip-path="url(#clip570)" d="M29.4065 813.669 L34.9447 813.669 Q33.6716 816.151 33.035 818.825 Q32.3984 821.498 32.3984 824.363 Q32.3984 828.724 33.7352 830.92 Q35.072 833.084 37.7456 833.084 Q39.7826 833.084 40.9603 831.524 Q42.1061 829.965 43.1565 825.254 L43.6021 823.249 Q44.9389 817.011 47.3897 814.401 Q49.8086 811.759 54.1691 811.759 Q59.1344 811.759 62.0308 815.706 Q64.9272 819.621 64.9272 826.496 Q64.9272 829.36 64.3543 832.479 Q63.8132 835.567 62.6992 839.004 L56.6518 839.004 Q58.3387 835.758 59.198 832.607 Q60.0256 829.456 60.0256 826.368 Q60.0256 822.231 58.6251 820.003 Q57.1929 817.775 54.6147 817.775 Q52.2276 817.775 50.9545 819.398 Q49.6813 820.989 48.5037 826.432 L48.0262 828.469 Q46.8804 833.912 44.5251 836.331 Q42.138 838.75 38.0002 838.75 Q32.9713 838.75 30.2341 835.185 Q27.4968 831.62 27.4968 825.063 Q27.4968 821.817 27.9743 818.952 Q28.4517 816.088 29.4065 813.669 Z" fill="#000000" fill-rule="evenodd" fill-opacity="1" /><path clip-path="url(#clip570)" d="M55.9197 801.606 L55.9197 794.89 L64.0042 794.89 L64.0042 801.606 L55.9197 801.606 Z" fill="#000000" fill-rule="evenodd" fill-opacity="1" /><path clip-path="url(#clip570)" d="M14.479 761.534 L14.479 748.038 L19.0304 748.038 L19.0304 755.677 L68.0464 755.677 L68.0464 748.038 L72.5979 748.038 L72.5979 761.534 L14.479 761.534 Z" fill="#000000" fill-rule="evenodd" fill-opacity="1" /><path clip-path="url(#clip570)" d="M21.7677 728.877 L39.6235 728.877 L39.6235 720.793 Q39.6235 716.305 37.3 713.854 Q34.9765 711.404 30.6797 711.404 Q26.4147 711.404 24.0912 713.854 Q21.7677 716.305 21.7677 720.793 L21.7677 728.877 M16.4842 735.307 L16.4842 720.793 Q16.4842 712.804 20.1126 708.73 Q23.7092 704.624 30.6797 704.624 Q37.7138 704.624 41.3104 708.73 Q44.907 712.804 44.907 720.793 L44.907 728.877 L64.0042 728.877 L64.0042 735.307 L16.4842 735.307 Z" fill="#000000" fill-rule="evenodd" fill-opacity="1" /><path clip-path="url(#clip570)" d="M46.0847 682.981 Q46.0847 690.078 47.7079 692.816 Q49.3312 695.553 53.2461 695.553 Q56.3653 695.553 58.2114 693.516 Q60.0256 691.447 60.0256 687.914 Q60.0256 683.044 56.5881 680.116 Q53.1188 677.156 47.3897 677.156 L46.0847 677.156 L46.0847 682.981 M43.6657 671.3 L64.0042 671.3 L64.0042 677.156 L58.5933 677.156 Q61.8398 679.161 63.3994 682.153 Q64.9272 685.145 64.9272 689.474 Q64.9272 694.948 61.8716 698.195 Q58.7843 701.409 53.6281 701.409 Q47.6125 701.409 44.5569 697.399 Q41.5014 693.357 41.5014 685.368 L41.5014 677.156 L40.9285 677.156 Q36.8862 677.156 34.6901 679.83 Q32.4621 682.471 32.4621 687.278 Q32.4621 690.333 33.1941 693.229 Q33.9262 696.126 35.3903 698.799 L29.9795 698.799 Q28.7381 695.585 28.1334 692.561 Q27.4968 689.537 27.4968 686.673 Q27.4968 678.938 31.5072 675.119 Q35.5176 671.3 43.6657 671.3 Z" fill="#000000" fill-rule="evenodd" fill-opacity="1" /><path clip-path="url(#clip570)" d="M14.479 645.55 L72.5979 645.55 L72.5979 659.046 L68.0464 659.046 L68.0464 651.439 L19.0304 651.439 L19.0304 659.046 L14.479 659.046 L14.479 645.55 Z" fill="#000000" fill-rule="evenodd" fill-opacity="1" /><path clip-path="url(#clip570)" d="M1145.23 18.8205 L1145.23 41.5461 L1155.52 41.5461 Q1161.23 41.5461 1164.35 38.5889 Q1167.47 35.6318 1167.47 30.163 Q1167.47 24.7348 1164.35 21.7777 Q1161.23 18.8205 1155.52 18.8205 L1145.23 18.8205 M1137.05 12.096 L1155.52 12.096 Q1165.69 12.096 1170.87 16.714 Q1176.1 21.2916 1176.1 30.163 Q1176.1 39.1155 1170.87 43.6931 Q1165.69 48.2706 1155.52 48.2706 L1145.23 48.2706 L1145.23 72.576 L1137.05 72.576 L1137.05 12.096 Z" fill="#000000" fill-rule="evenodd" fill-opacity="1" /><path clip-path="url(#clip570)" d="M1211.59 34.1734 Q1210.33 33.4443 1208.83 33.1202 Q1207.37 32.7556 1205.59 32.7556 Q1199.27 32.7556 1195.87 36.8875 Q1192.51 40.9789 1192.51 48.6757 L1192.51 72.576 L1185.01 72.576 L1185.01 27.2059 L1192.51 27.2059 L1192.51 34.2544 Q1194.86 30.1225 1198.62 28.1376 Q1202.39 26.1121 1207.78 26.1121 Q1208.55 26.1121 1209.48 26.2337 Q1210.41 26.3147 1211.55 26.5172 L1211.59 34.1734 Z" fill="#000000" fill-rule="evenodd" fill-opacity="1" /><path clip-path="url(#clip570)" d="M1256.39 48.0275 L1256.39 51.6733 L1222.12 51.6733 Q1222.6 59.3701 1226.74 63.421 Q1230.91 67.4314 1238.32 67.4314 Q1242.62 67.4314 1246.63 66.3781 Q1250.68 65.3249 1254.65 63.2184 L1254.65 70.267 Q1250.64 71.9684 1246.42 72.8596 Q1242.21 73.7508 1237.88 73.7508 Q1227.02 73.7508 1220.66 67.4314 Q1214.34 61.1119 1214.34 50.3365 Q1214.34 39.1965 1220.34 32.6746 Q1226.37 26.1121 1236.58 26.1121 Q1245.74 26.1121 1251.04 32.0264 Q1256.39 37.9003 1256.39 48.0275 M1248.94 45.84 Q1248.85 39.7232 1245.49 36.0774 Q1242.17 32.4315 1236.66 32.4315 Q1230.42 32.4315 1226.66 35.9558 Q1222.93 39.4801 1222.36 45.8805 L1248.94 45.84 Z" fill="#000000" fill-rule="evenodd" fill-opacity="1" /><path clip-path="url(#clip570)" d="M1297.55 28.5427 L1297.55 35.5912 Q1294.39 33.9709 1290.98 33.1607 Q1287.58 32.3505 1283.94 32.3505 Q1278.39 32.3505 1275.59 34.0519 Q1272.84 35.7533 1272.84 39.156 Q1272.84 41.7486 1274.82 43.2475 Q1276.81 44.7058 1282.8 46.0426 L1285.35 46.6097 Q1293.29 48.3111 1296.61 51.4303 Q1299.98 54.509 1299.98 60.0587 Q1299.98 66.3781 1294.95 70.0644 Q1289.97 73.7508 1281.22 73.7508 Q1277.58 73.7508 1273.61 73.0216 Q1269.68 72.3329 1265.3 70.9151 L1265.3 63.2184 Q1269.43 65.3654 1273.44 66.4591 Q1277.45 67.5124 1281.38 67.5124 Q1286.65 67.5124 1289.49 65.73 Q1292.32 63.9071 1292.32 60.6258 Q1292.32 57.5877 1290.25 55.9673 Q1288.23 54.3469 1281.3 52.8481 L1278.71 52.2405 Q1271.78 50.7821 1268.7 47.7845 Q1265.63 44.7463 1265.63 39.4801 Q1265.63 33.0797 1270.16 29.5959 Q1274.7 26.1121 1283.04 26.1121 Q1287.18 26.1121 1290.82 26.7198 Q1294.47 27.3274 1297.55 28.5427 Z" fill="#000000" fill-rule="evenodd" fill-opacity="1" /><path clip-path="url(#clip570)" d="M1340.77 28.5427 L1340.77 35.5912 Q1337.61 33.9709 1334.21 33.1607 Q1330.8 32.3505 1327.16 32.3505 Q1321.61 32.3505 1318.81 34.0519 Q1316.06 35.7533 1316.06 39.156 Q1316.06 41.7486 1318.04 43.2475 Q1320.03 44.7058 1326.02 46.0426 L1328.58 46.6097 Q1336.52 48.3111 1339.84 51.4303 Q1343.2 54.509 1343.2 60.0587 Q1343.2 66.3781 1338.18 70.0644 Q1333.19 73.7508 1324.44 73.7508 Q1320.8 73.7508 1316.83 73.0216 Q1312.9 72.3329 1308.52 70.9151 L1308.52 63.2184 Q1312.66 65.3654 1316.67 66.4591 Q1320.68 67.5124 1324.61 67.5124 Q1329.87 67.5124 1332.71 65.73 Q1335.54 63.9071 1335.54 60.6258 Q1335.54 57.5877 1333.48 55.9673 Q1331.45 54.3469 1324.53 52.8481 L1321.93 52.2405 Q1315.01 50.7821 1311.93 47.7845 Q1308.85 44.7463 1308.85 39.4801 Q1308.85 33.0797 1313.39 29.5959 Q1317.92 26.1121 1326.27 26.1121 Q1330.4 26.1121 1334.05 26.7198 Q1337.69 27.3274 1340.77 28.5427 Z" fill="#000000" fill-rule="evenodd" fill-opacity="1" /><path clip-path="url(#clip570)" d="M1354.3 54.671 L1354.3 27.2059 L1361.75 27.2059 L1361.75 54.3874 Q1361.75 60.8284 1364.26 64.0691 Q1366.78 67.2693 1371.8 67.2693 Q1377.84 67.2693 1381.32 63.421 Q1384.84 59.5726 1384.84 52.9291 L1384.84 27.2059 L1392.3 27.2059 L1392.3 72.576 L1384.84 72.576 L1384.84 65.6084 Q1382.13 69.7404 1378.52 71.7658 Q1374.96 73.7508 1370.22 73.7508 Q1362.4 73.7508 1358.35 68.8897 Q1354.3 64.0286 1354.3 54.671 M1373.06 26.1121 L1373.06 26.1121 Z" fill="#000000" fill-rule="evenodd" fill-opacity="1" /><path clip-path="url(#clip570)" d="M1433.94 34.1734 Q1432.68 33.4443 1431.19 33.1202 Q1429.73 32.7556 1427.95 32.7556 Q1421.63 32.7556 1418.22 36.8875 Q1414.86 40.9789 1414.86 48.6757 L1414.86 72.576 L1407.37 72.576 L1407.37 27.2059 L1414.86 27.2059 L1414.86 34.2544 Q1417.21 30.1225 1420.98 28.1376 Q1424.74 26.1121 1430.13 26.1121 Q1430.9 26.1121 1431.83 26.2337 Q1432.77 26.3147 1433.9 26.5172 L1433.94 34.1734 Z" fill="#000000" fill-rule="evenodd" fill-opacity="1" /><path clip-path="url(#clip570)" d="M1478.74 48.0275 L1478.74 51.6733 L1444.47 51.6733 Q1444.96 59.3701 1449.09 63.421 Q1453.26 67.4314 1460.68 67.4314 Q1464.97 67.4314 1468.98 66.3781 Q1473.03 65.3249 1477 63.2184 L1477 70.267 Q1472.99 71.9684 1468.78 72.8596 Q1464.57 73.7508 1460.23 73.7508 Q1449.37 73.7508 1443.01 67.4314 Q1436.7 61.1119 1436.7 50.3365 Q1436.7 39.1965 1442.69 32.6746 Q1448.73 26.1121 1458.93 26.1121 Q1468.09 26.1121 1473.4 32.0264 Q1478.74 37.9003 1478.74 48.0275 M1471.29 45.84 Q1471.21 39.7232 1467.85 36.0774 Q1464.52 32.4315 1459.02 32.4315 Q1452.78 32.4315 1449.01 35.9558 Q1445.28 39.4801 1444.72 45.8805 L1471.29 45.84 Z" fill="#000000" fill-rule="evenodd" fill-opacity="1" /><polyline clip-path="url(#clip572)" style="stroke:#009af9; stroke-linecap:butt; stroke-linejoin:round; stroke-width:4; stroke-opacity:1; fill:none" points="
  322.18,260.019 340.221,160.256 358.261,304.399 376.301,284.099 394.341,278.905 412.382,260.495 430.422,279.858 448.462,274.971 466.502,279.381 484.543,281.901 
  502.583,289.616 520.623,272.62 538.663,290.876 556.704,286.143 574.744,293.857 592.784,249.477 610.824,299.681 628.865,289.139 646.905,295.271 664.945,286.143 
  682.985,286.143 701.026,278.121 719.066,249.477 737.106,268.993 755.146,286.143 773.187,299.205 791.227,326.112 809.267,356.646 827.307,346.888 845.348,418.007 
  863.388,431.391 881.428,489.617 899.468,518.246 917.509,564.362 935.549,585.922 953.589,641.934 971.63,673.406 989.67,734.62 1007.71,738.554 1025.75,761.997 
  1043.79,818.332 1061.83,878.916 1079.87,884.74 1097.91,909.282 1115.95,975.06 1133.99,988.122 1152.03,1034.23 1170.07,1068.38 1188.11,1116.37 1206.15,1147.37 
  1224.19,1185.76 1242.23,1204.33 1260.27,1251.38 1278.31,1281.44 1296.35,1328.17 1314.39,1350.36 1332.43,1336.83 1350.47,1341.39 1368.51,1338.08 1386.56,1368.77 
  1404.6,1354.29 1422.64,1386.4 1440.68,1335.57 1458.72,1363.26 1476.76,1362 1494.8,1369.87 1514.27,1313.23 1516.08,1323.29 1517.88,1333.83 1535.92,1346.28 
  1553.96,1316.87 1572,1312.12 1590.04,1281.75 1608.08,1236.43 1626.12,1157.91 1644.16,1188.75 1662.2,1115.9 1680.24,1099.37 1698.28,1085.84 1716.32,1009.52 
  1734.37,984.503 1752.41,958.225 1770.45,918.886 1788.49,870.103 1806.53,803.226 1824.57,795.988 1842.61,747.521 1860.65,725.807 1878.69,679.699 1896.73,645.238 
  1914.77,615.811 1932.81,574.274 1950.85,534.304 1968.89,481.749 1986.93,471.991 2004.97,434.219 2023.01,393.942 2041.05,327.849 2059.09,326.112 2077.13,262.862 
  2095.17,265.213 2113.21,257.345 2131.25,280.319 2149.29,268.993 2167.33,272.297 2185.37,257.038 2203.41,244.606 2221.45,266.166 2239.49,289.293 2257.53,274.51 
  2275.57,278.751 2293.61,289.769 
  "/>
<path clip-path="url(#clip570)" d="
M1497.14 270.476 L2283.1 270.476 L2283.1 166.796 L1497.14 166.796  Z
  " fill="#ffffff" fill-rule="evenodd" fill-opacity="1"/>
<polyline clip-path="url(#clip570)" style="stroke:#000000; stroke-linecap:butt; stroke-linejoin:round; stroke-width:4; stroke-opacity:1; fill:none" points="
  1497.14,270.476 2283.1,270.476 2283.1,166.796 1497.14,166.796 1497.14,270.476 
  "/>
<polyline clip-path="url(#clip570)" style="stroke:#009af9; stroke-linecap:butt; stroke-linejoin:round; stroke-width:4; stroke-opacity:1; fill:none" points="
  1520.36,218.636 1659.67,218.636 
  "/>
<path clip-path="url(#clip570)" d="M1687.17 232.027 L1687.17 245.777 L1682.89 245.777 L1682.89 209.99 L1687.17 209.99 L1687.17 213.925 Q1688.52 211.61 1690.55 210.499 Q1692.61 209.365 1695.46 209.365 Q1700.18 209.365 1703.12 213.115 Q1706.08 216.865 1706.08 222.976 Q1706.08 229.087 1703.12 232.837 Q1700.18 236.587 1695.46 236.587 Q1692.61 236.587 1690.55 235.476 Q1688.52 234.342 1687.17 232.027 M1701.66 222.976 Q1701.66 218.277 1699.72 215.615 Q1697.8 212.93 1694.42 212.93 Q1691.04 212.93 1689.09 215.615 Q1687.17 218.277 1687.17 222.976 Q1687.17 227.675 1689.09 230.36 Q1691.04 233.022 1694.42 233.022 Q1697.8 233.022 1699.72 230.36 Q1701.66 227.675 1701.66 222.976 Z" fill="#000000" fill-rule="evenodd" fill-opacity="1" /><path clip-path="url(#clip570)" d="M1728.17 213.971 Q1727.45 213.555 1726.59 213.37 Q1725.76 213.161 1724.74 213.161 Q1721.13 213.161 1719.19 215.522 Q1717.27 217.86 1717.27 222.258 L1717.27 235.916 L1712.98 235.916 L1712.98 209.99 L1717.27 209.99 L1717.27 214.018 Q1718.61 211.657 1720.76 210.522 Q1722.91 209.365 1725.99 209.365 Q1726.43 209.365 1726.96 209.434 Q1727.5 209.481 1728.14 209.596 L1728.17 213.971 Z" fill="#000000" fill-rule="evenodd" fill-opacity="1" /><path clip-path="url(#clip570)" d="M1753.77 221.888 L1753.77 223.971 L1734.19 223.971 Q1734.46 228.369 1736.83 230.684 Q1739.21 232.976 1743.45 232.976 Q1745.9 232.976 1748.19 232.374 Q1750.51 231.772 1752.77 230.569 L1752.77 234.596 Q1750.48 235.568 1748.08 236.078 Q1745.67 236.587 1743.19 236.587 Q1736.99 236.587 1733.35 232.976 Q1729.74 229.365 1729.74 223.207 Q1729.74 216.842 1733.17 213.115 Q1736.62 209.365 1742.45 209.365 Q1747.68 209.365 1750.71 212.745 Q1753.77 216.101 1753.77 221.888 M1749.51 220.638 Q1749.46 217.143 1747.54 215.059 Q1745.64 212.976 1742.5 212.976 Q1738.93 212.976 1736.78 214.99 Q1734.65 217.004 1734.33 220.661 L1749.51 220.638 Z" fill="#000000" fill-rule="evenodd" fill-opacity="1" /><path clip-path="url(#clip570)" d="M1777.29 210.754 L1777.29 214.782 Q1775.48 213.856 1773.54 213.393 Q1771.59 212.93 1769.51 212.93 Q1766.34 212.93 1764.74 213.902 Q1763.17 214.874 1763.17 216.819 Q1763.17 218.3 1764.3 219.157 Q1765.44 219.99 1768.86 220.754 L1770.32 221.078 Q1774.86 222.05 1776.76 223.832 Q1778.68 225.592 1778.68 228.763 Q1778.68 232.374 1775.81 234.481 Q1772.96 236.587 1767.96 236.587 Q1765.88 236.587 1763.61 236.17 Q1761.36 235.777 1758.86 234.967 L1758.86 230.569 Q1761.22 231.795 1763.51 232.42 Q1765.81 233.022 1768.05 233.022 Q1771.06 233.022 1772.68 232.004 Q1774.3 230.962 1774.3 229.087 Q1774.3 227.351 1773.12 226.425 Q1771.96 225.499 1768.01 224.643 L1766.52 224.295 Q1762.57 223.462 1760.81 221.749 Q1759.05 220.013 1759.05 217.004 Q1759.05 213.346 1761.64 211.356 Q1764.23 209.365 1769 209.365 Q1771.36 209.365 1773.45 209.712 Q1775.53 210.059 1777.29 210.754 Z" fill="#000000" fill-rule="evenodd" fill-opacity="1" /><path clip-path="url(#clip570)" d="M1801.99 210.754 L1801.99 214.782 Q1800.18 213.856 1798.24 213.393 Q1796.29 212.93 1794.21 212.93 Q1791.04 212.93 1789.44 213.902 Q1787.87 214.874 1787.87 216.819 Q1787.87 218.3 1789 219.157 Q1790.14 219.99 1793.56 220.754 L1795.02 221.078 Q1799.56 222.05 1801.45 223.832 Q1803.38 225.592 1803.38 228.763 Q1803.38 232.374 1800.51 234.481 Q1797.66 236.587 1792.66 236.587 Q1790.57 236.587 1788.31 236.17 Q1786.06 235.777 1783.56 234.967 L1783.56 230.569 Q1785.92 231.795 1788.21 232.42 Q1790.51 233.022 1792.75 233.022 Q1795.76 233.022 1797.38 232.004 Q1799 230.962 1799 229.087 Q1799 227.351 1797.82 226.425 Q1796.66 225.499 1792.7 224.643 L1791.22 224.295 Q1787.26 223.462 1785.51 221.749 Q1783.75 220.013 1783.75 217.004 Q1783.75 213.346 1786.34 211.356 Q1788.93 209.365 1793.7 209.365 Q1796.06 209.365 1798.14 209.712 Q1800.23 210.059 1801.99 210.754 Z" fill="#000000" fill-rule="evenodd" fill-opacity="1" /><path clip-path="url(#clip570)" d="M1809.72 225.684 L1809.72 209.99 L1813.98 209.99 L1813.98 225.522 Q1813.98 229.203 1815.41 231.055 Q1816.85 232.883 1819.72 232.883 Q1823.17 232.883 1825.16 230.684 Q1827.17 228.485 1827.17 224.689 L1827.17 209.99 L1831.43 209.99 L1831.43 235.916 L1827.17 235.916 L1827.17 231.934 Q1825.62 234.295 1823.56 235.453 Q1821.52 236.587 1818.82 236.587 Q1814.35 236.587 1812.03 233.809 Q1809.72 231.031 1809.72 225.684 M1820.44 209.365 L1820.44 209.365 Z" fill="#000000" fill-rule="evenodd" fill-opacity="1" /><path clip-path="url(#clip570)" d="M1855.23 213.971 Q1854.51 213.555 1853.65 213.37 Q1852.82 213.161 1851.8 213.161 Q1848.19 213.161 1846.25 215.522 Q1844.32 217.86 1844.32 222.258 L1844.32 235.916 L1840.04 235.916 L1840.04 209.99 L1844.32 209.99 L1844.32 214.018 Q1845.67 211.657 1847.82 210.522 Q1849.97 209.365 1853.05 209.365 Q1853.49 209.365 1854.02 209.434 Q1854.56 209.481 1855.2 209.596 L1855.23 213.971 Z" fill="#000000" fill-rule="evenodd" fill-opacity="1" /><path clip-path="url(#clip570)" d="M1880.83 221.888 L1880.83 223.971 L1861.25 223.971 Q1861.52 228.369 1863.88 230.684 Q1866.27 232.976 1870.5 232.976 Q1872.96 232.976 1875.25 232.374 Q1877.57 231.772 1879.83 230.569 L1879.83 234.596 Q1877.54 235.568 1875.13 236.078 Q1872.73 236.587 1870.25 236.587 Q1864.05 236.587 1860.41 232.976 Q1856.8 229.365 1856.8 223.207 Q1856.8 216.842 1860.23 213.115 Q1863.68 209.365 1869.51 209.365 Q1874.74 209.365 1877.77 212.745 Q1880.83 216.101 1880.83 221.888 M1876.57 220.638 Q1876.52 217.143 1874.6 215.059 Q1872.7 212.976 1869.56 212.976 Q1865.99 212.976 1863.84 214.99 Q1861.71 217.004 1861.38 220.661 L1876.57 220.638 Z" fill="#000000" fill-rule="evenodd" fill-opacity="1" /><path clip-path="url(#clip570)" d="M1907.52 243.786 L1907.52 247.096 L1882.89 247.096 L1882.89 243.786 L1907.52 243.786 Z" fill="#000000" fill-rule="evenodd" fill-opacity="1" /><path clip-path="url(#clip570)" d="M1931.71 214.967 Q1933.31 212.096 1935.53 210.731 Q1937.75 209.365 1940.76 209.365 Q1944.81 209.365 1947.01 212.212 Q1949.21 215.036 1949.21 220.268 L1949.21 235.916 L1944.93 235.916 L1944.93 220.407 Q1944.93 216.68 1943.61 214.874 Q1942.29 213.069 1939.58 213.069 Q1936.27 213.069 1934.35 215.268 Q1932.43 217.467 1932.43 221.263 L1932.43 235.916 L1928.14 235.916 L1928.14 220.407 Q1928.14 216.657 1926.82 214.874 Q1925.5 213.069 1922.75 213.069 Q1919.49 213.069 1917.56 215.291 Q1915.64 217.49 1915.64 221.263 L1915.64 235.916 L1911.36 235.916 L1911.36 209.99 L1915.64 209.99 L1915.64 214.018 Q1917.1 211.633 1919.14 210.499 Q1921.18 209.365 1923.98 209.365 Q1926.8 209.365 1928.77 210.8 Q1930.76 212.235 1931.71 214.967 Z" fill="#000000" fill-rule="evenodd" fill-opacity="1" /><path clip-path="url(#clip570)" d="M1979.88 221.888 L1979.88 223.971 L1960.3 223.971 Q1960.57 228.369 1962.94 230.684 Q1965.32 232.976 1969.56 232.976 Q1972.01 232.976 1974.3 232.374 Q1976.62 231.772 1978.88 230.569 L1978.88 234.596 Q1976.59 235.568 1974.18 236.078 Q1971.78 236.587 1969.3 236.587 Q1963.1 236.587 1959.46 232.976 Q1955.85 229.365 1955.85 223.207 Q1955.85 216.842 1959.28 213.115 Q1962.73 209.365 1968.56 209.365 Q1973.79 209.365 1976.82 212.745 Q1979.88 216.101 1979.88 221.888 M1975.62 220.638 Q1975.57 217.143 1973.65 215.059 Q1971.75 212.976 1968.61 212.976 Q1965.04 212.976 1962.89 214.99 Q1960.76 217.004 1960.44 220.661 L1975.62 220.638 Z" fill="#000000" fill-rule="evenodd" fill-opacity="1" /><path clip-path="url(#clip570)" d="M1998.65 222.883 Q1993.49 222.883 1991.5 224.064 Q1989.51 225.244 1989.51 228.092 Q1989.51 230.36 1990.99 231.703 Q1992.5 233.022 1995.06 233.022 Q1998.61 233.022 2000.74 230.522 Q2002.89 227.999 2002.89 223.832 L2002.89 222.883 L1998.65 222.883 M2007.15 221.124 L2007.15 235.916 L2002.89 235.916 L2002.89 231.981 Q2001.43 234.342 1999.25 235.476 Q1997.08 236.587 1993.93 236.587 Q1989.95 236.587 1987.59 234.365 Q1985.25 232.119 1985.25 228.369 Q1985.25 223.994 1988.17 221.772 Q1991.11 219.55 1996.92 219.55 L2002.89 219.55 L2002.89 219.133 Q2002.89 216.194 2000.94 214.596 Q1999.02 212.976 1995.53 212.976 Q1993.31 212.976 1991.2 213.508 Q1989.09 214.041 1987.15 215.106 L1987.15 211.17 Q1989.49 210.268 1991.68 209.828 Q1993.88 209.365 1995.97 209.365 Q2001.59 209.365 2004.37 212.282 Q2007.15 215.198 2007.15 221.124 Z" fill="#000000" fill-rule="evenodd" fill-opacity="1" /><path clip-path="url(#clip570)" d="M2032.45 210.754 L2032.45 214.782 Q2030.64 213.856 2028.7 213.393 Q2026.75 212.93 2024.67 212.93 Q2021.5 212.93 2019.9 213.902 Q2018.33 214.874 2018.33 216.819 Q2018.33 218.3 2019.46 219.157 Q2020.6 219.99 2024.02 220.754 L2025.48 221.078 Q2030.02 222.05 2031.92 223.832 Q2033.84 225.592 2033.84 228.763 Q2033.84 232.374 2030.97 234.481 Q2028.12 236.587 2023.12 236.587 Q2021.04 236.587 2018.77 236.17 Q2016.52 235.777 2014.02 234.967 L2014.02 230.569 Q2016.38 231.795 2018.68 232.42 Q2020.97 233.022 2023.21 233.022 Q2026.22 233.022 2027.84 232.004 Q2029.46 230.962 2029.46 229.087 Q2029.46 227.351 2028.28 226.425 Q2027.12 225.499 2023.17 224.643 L2021.68 224.295 Q2017.73 223.462 2015.97 221.749 Q2014.21 220.013 2014.21 217.004 Q2014.21 213.346 2016.8 211.356 Q2019.39 209.365 2024.16 209.365 Q2026.52 209.365 2028.61 209.712 Q2030.69 210.059 2032.45 210.754 Z" fill="#000000" fill-rule="evenodd" fill-opacity="1" /><path clip-path="url(#clip570)" d="M2040.18 225.684 L2040.18 209.99 L2044.44 209.99 L2044.44 225.522 Q2044.44 229.203 2045.87 231.055 Q2047.31 232.883 2050.18 232.883 Q2053.63 232.883 2055.62 230.684 Q2057.63 228.485 2057.63 224.689 L2057.63 209.99 L2061.89 209.99 L2061.89 235.916 L2057.63 235.916 L2057.63 231.934 Q2056.08 234.295 2054.02 235.453 Q2051.99 236.587 2049.28 236.587 Q2044.81 236.587 2042.49 233.809 Q2040.18 231.031 2040.18 225.684 M2050.9 209.365 L2050.9 209.365 Z" fill="#000000" fill-rule="evenodd" fill-opacity="1" /><path clip-path="url(#clip570)" d="M2085.69 213.971 Q2084.97 213.555 2084.11 213.37 Q2083.28 213.161 2082.26 213.161 Q2078.65 213.161 2076.71 215.522 Q2074.79 217.86 2074.79 222.258 L2074.79 235.916 L2070.5 235.916 L2070.5 209.99 L2074.79 209.99 L2074.79 214.018 Q2076.13 211.657 2078.28 210.522 Q2080.43 209.365 2083.51 209.365 Q2083.95 209.365 2084.49 209.434 Q2085.02 209.481 2085.67 209.596 L2085.69 213.971 Z" fill="#000000" fill-rule="evenodd" fill-opacity="1" /><path clip-path="url(#clip570)" d="M2111.29 221.888 L2111.29 223.971 L2091.71 223.971 Q2091.99 228.369 2094.35 230.684 Q2096.73 232.976 2100.97 232.976 Q2103.42 232.976 2105.71 232.374 Q2108.03 231.772 2110.3 230.569 L2110.3 234.596 Q2108 235.568 2105.6 236.078 Q2103.19 236.587 2100.71 236.587 Q2094.51 236.587 2090.87 232.976 Q2087.26 229.365 2087.26 223.207 Q2087.26 216.842 2090.69 213.115 Q2094.14 209.365 2099.97 209.365 Q2105.2 209.365 2108.24 212.745 Q2111.29 216.101 2111.29 221.888 M2107.03 220.638 Q2106.99 217.143 2105.06 215.059 Q2103.17 212.976 2100.02 212.976 Q2096.45 212.976 2094.3 214.99 Q2092.17 217.004 2091.85 220.661 L2107.03 220.638 Z" fill="#000000" fill-rule="evenodd" fill-opacity="1" /><path clip-path="url(#clip570)" d="M2138.47 214.967 Q2140.06 212.096 2142.29 210.731 Q2144.51 209.365 2147.52 209.365 Q2151.57 209.365 2153.77 212.212 Q2155.97 215.036 2155.97 220.268 L2155.97 235.916 L2151.68 235.916 L2151.68 220.407 Q2151.68 216.68 2150.36 214.874 Q2149.05 213.069 2146.34 213.069 Q2143.03 213.069 2141.11 215.268 Q2139.18 217.467 2139.18 221.263 L2139.18 235.916 L2134.9 235.916 L2134.9 220.407 Q2134.9 216.657 2133.58 214.874 Q2132.26 213.069 2129.51 213.069 Q2126.24 213.069 2124.32 215.291 Q2122.4 217.49 2122.4 221.263 L2122.4 235.916 L2118.12 235.916 L2118.12 209.99 L2122.4 209.99 L2122.4 214.018 Q2123.86 211.633 2125.9 210.499 Q2127.93 209.365 2130.74 209.365 Q2133.56 209.365 2135.53 210.8 Q2137.52 212.235 2138.47 214.967 Z" fill="#000000" fill-rule="evenodd" fill-opacity="1" /><path clip-path="url(#clip570)" d="M2186.64 221.888 L2186.64 223.971 L2167.05 223.971 Q2167.33 228.369 2169.69 230.684 Q2172.08 232.976 2176.31 232.976 Q2178.77 232.976 2181.06 232.374 Q2183.37 231.772 2185.64 230.569 L2185.64 234.596 Q2183.35 235.568 2180.94 236.078 Q2178.54 236.587 2176.06 236.587 Q2169.86 236.587 2166.22 232.976 Q2162.61 229.365 2162.61 223.207 Q2162.61 216.842 2166.04 213.115 Q2169.48 209.365 2175.32 209.365 Q2180.55 209.365 2183.58 212.745 Q2186.64 216.101 2186.64 221.888 M2182.38 220.638 Q2182.33 217.143 2180.41 215.059 Q2178.51 212.976 2175.36 212.976 Q2171.8 212.976 2169.65 214.99 Q2167.52 217.004 2167.19 220.661 L2182.38 220.638 Z" fill="#000000" fill-rule="evenodd" fill-opacity="1" /><path clip-path="url(#clip570)" d="M2215.18 220.268 L2215.18 235.916 L2210.92 235.916 L2210.92 220.407 Q2210.92 216.726 2209.48 214.897 Q2208.05 213.069 2205.18 213.069 Q2201.73 213.069 2199.74 215.268 Q2197.75 217.467 2197.75 221.263 L2197.75 235.916 L2193.47 235.916 L2193.47 209.99 L2197.75 209.99 L2197.75 214.018 Q2199.28 211.68 2201.34 210.522 Q2203.42 209.365 2206.13 209.365 Q2210.6 209.365 2212.89 212.143 Q2215.18 214.897 2215.18 220.268 Z" fill="#000000" fill-rule="evenodd" fill-opacity="1" /><path clip-path="url(#clip570)" d="M2227.89 202.629 L2227.89 209.99 L2236.66 209.99 L2236.66 213.3 L2227.89 213.3 L2227.89 227.374 Q2227.89 230.545 2228.74 231.448 Q2229.62 232.351 2232.29 232.351 L2236.66 232.351 L2236.66 235.916 L2232.29 235.916 Q2227.35 235.916 2225.48 234.087 Q2223.6 232.235 2223.6 227.374 L2223.6 213.3 L2220.48 213.3 L2220.48 209.99 L2223.6 209.99 L2223.6 202.629 L2227.89 202.629 Z" fill="#000000" fill-rule="evenodd" fill-opacity="1" /></svg>
