<?xml version="1.0" encoding="utf-8"?>
<svg xmlns="http://www.w3.org/2000/svg" xmlns:xlink="http://www.w3.org/1999/xlink" width="600" height="400" viewBox="0 0 2400 1600">
<defs>
  <clipPath id="clip130">
    <rect x="0" y="0" width="2400" height="1600"/>
  </clipPath>
</defs>
<path clip-path="url(#clip130)" d="
M0 1600 L2400 1600 L2400 0 L0 0  Z
  " fill="#ffffff" fill-rule="evenodd" fill-opacity="1"/>
<defs>
  <clipPath id="clip131">
    <rect x="480" y="0" width="1681" height="1600"/>
  </clipPath>
</defs>
<path clip-path="url(#clip130)" d="
M205.121 1423.18 L2352.76 1423.18 L2352.76 123.472 L205.121 123.472  Z
  " fill="#ffffff" fill-rule="evenodd" fill-opacity="1"/>
<defs>
  <clipPath id="clip132">
    <rect x="205" y="123" width="2149" height="1301"/>
  </clipPath>
</defs>
<polyline clip-path="url(#clip132)" style="stroke:#000000; stroke-linecap:butt; stroke-linejoin:round; stroke-width:2; stroke-opacity:0.1; fill:none" points="
  265.185,1423.18 265.185,123.472 
  "/>
<polyline clip-path="url(#clip132)" style="stroke:#000000; stroke-linecap:butt; stroke-linejoin:round; stroke-width:2; stroke-opacity:0.1; fill:none" points="
  732.18,1423.18 732.18,123.472 
  "/>
<polyline clip-path="url(#clip132)" style="stroke:#000000; stroke-linecap:butt; stroke-linejoin:round; stroke-width:2; stroke-opacity:0.1; fill:none" points="
  1199.18,1423.18 1199.18,123.472 
  "/>
<polyline clip-path="url(#clip132)" style="stroke:#000000; stroke-linecap:butt; stroke-linejoin:round; stroke-width:2; stroke-opacity:0.1; fill:none" points="
  1666.17,1423.18 1666.17,123.472 
  "/>
<polyline clip-path="url(#clip132)" style="stroke:#000000; stroke-linecap:butt; stroke-linejoin:round; stroke-width:2; stroke-opacity:0.1; fill:none" points="
  2133.17,1423.18 2133.17,123.472 
  "/>
<polyline clip-path="url(#clip130)" style="stroke:#000000; stroke-linecap:butt; stroke-linejoin:round; stroke-width:4; stroke-opacity:1; fill:none" points="
  205.121,1423.18 2352.76,1423.18 
  "/>
<polyline clip-path="url(#clip130)" style="stroke:#000000; stroke-linecap:butt; stroke-linejoin:round; stroke-width:4; stroke-opacity:1; fill:none" points="
  265.185,1423.18 265.185,1404.28 
  "/>
<polyline clip-path="url(#clip130)" style="stroke:#000000; stroke-linecap:butt; stroke-linejoin:round; stroke-width:4; stroke-opacity:1; fill:none" points="
  732.18,1423.18 732.18,1404.28 
  "/>
<polyline clip-path="url(#clip130)" style="stroke:#000000; stroke-linecap:butt; stroke-linejoin:round; stroke-width:4; stroke-opacity:1; fill:none" points="
  1199.18,1423.18 1199.18,1404.28 
  "/>
<polyline clip-path="url(#clip130)" style="stroke:#000000; stroke-linecap:butt; stroke-linejoin:round; stroke-width:4; stroke-opacity:1; fill:none" points="
  1666.17,1423.18 1666.17,1404.28 
  "/>
<polyline clip-path="url(#clip130)" style="stroke:#000000; stroke-linecap:butt; stroke-linejoin:round; stroke-width:4; stroke-opacity:1; fill:none" points="
  2133.17,1423.18 2133.17,1404.28 
  "/>
<path clip-path="url(#clip130)" d="M265.185 1454.1 Q261.574 1454.1 259.746 1457.66 Q257.94 1461.2 257.94 1468.33 Q257.94 1475.44 259.746 1479.01 Q261.574 1482.55 265.185 1482.55 Q268.82 1482.55 270.625 1479.01 Q272.454 1475.44 272.454 1468.33 Q272.454 1461.2 270.625 1457.66 Q268.82 1454.1 265.185 1454.1 M265.185 1450.39 Q270.996 1450.39 274.051 1455 Q277.13 1459.58 277.13 1468.33 Q277.13 1477.06 274.051 1481.67 Q270.996 1486.25 265.185 1486.25 Q259.375 1486.25 256.297 1481.67 Q253.241 1477.06 253.241 1468.33 Q253.241 1459.58 256.297 1455 Q259.375 1450.39 265.185 1450.39 Z" fill="#000000" fill-rule="evenodd" fill-opacity="1" /><path clip-path="url(#clip130)" d="M711.451 1481.64 L727.771 1481.64 L727.771 1485.58 L705.826 1485.58 L705.826 1481.64 Q708.488 1478.89 713.072 1474.26 Q717.678 1469.61 718.859 1468.27 Q721.104 1465.74 721.984 1464.01 Q722.886 1462.25 722.886 1460.56 Q722.886 1457.8 720.942 1456.07 Q719.021 1454.33 715.919 1454.33 Q713.72 1454.33 711.266 1455.09 Q708.836 1455.86 706.058 1457.41 L706.058 1452.69 Q708.882 1451.55 711.336 1450.97 Q713.789 1450.39 715.826 1450.39 Q721.197 1450.39 724.391 1453.08 Q727.585 1455.77 727.585 1460.26 Q727.585 1462.39 726.775 1464.31 Q725.988 1466.2 723.882 1468.8 Q723.303 1469.47 720.201 1472.69 Q717.099 1475.88 711.451 1481.64 Z" fill="#000000" fill-rule="evenodd" fill-opacity="1" /><path clip-path="url(#clip130)" d="M737.632 1451.02 L755.988 1451.02 L755.988 1454.96 L741.914 1454.96 L741.914 1463.43 Q742.933 1463.08 743.951 1462.92 Q744.97 1462.73 745.988 1462.73 Q751.775 1462.73 755.155 1465.9 Q758.534 1469.08 758.534 1474.49 Q758.534 1480.07 755.062 1483.17 Q751.59 1486.25 745.271 1486.25 Q743.095 1486.25 740.826 1485.88 Q738.581 1485.51 736.173 1484.77 L736.173 1480.07 Q738.257 1481.2 740.479 1481.76 Q742.701 1482.32 745.178 1482.32 Q749.183 1482.32 751.521 1480.21 Q753.858 1478.1 753.858 1474.49 Q753.858 1470.88 751.521 1468.77 Q749.183 1466.67 745.178 1466.67 Q743.303 1466.67 741.428 1467.08 Q739.576 1467.5 737.632 1468.38 L737.632 1451.02 Z" fill="#000000" fill-rule="evenodd" fill-opacity="1" /><path clip-path="url(#clip130)" d="M1173.87 1451.02 L1192.23 1451.02 L1192.23 1454.96 L1178.16 1454.96 L1178.16 1463.43 Q1179.18 1463.08 1180.19 1462.92 Q1181.21 1462.73 1182.23 1462.73 Q1188.02 1462.73 1191.4 1465.9 Q1194.78 1469.08 1194.78 1474.49 Q1194.78 1480.07 1191.3 1483.17 Q1187.83 1486.25 1181.51 1486.25 Q1179.34 1486.25 1177.07 1485.88 Q1174.82 1485.51 1172.42 1484.77 L1172.42 1480.07 Q1174.5 1481.2 1176.72 1481.76 Q1178.94 1482.32 1181.42 1482.32 Q1185.43 1482.32 1187.76 1480.21 Q1190.1 1478.1 1190.1 1474.49 Q1190.1 1470.88 1187.76 1468.77 Q1185.43 1466.67 1181.42 1466.67 Q1179.55 1466.67 1177.67 1467.08 Q1175.82 1467.5 1173.87 1468.38 L1173.87 1451.02 Z" fill="#000000" fill-rule="evenodd" fill-opacity="1" /><path clip-path="url(#clip130)" d="M1213.99 1454.1 Q1210.38 1454.1 1208.55 1457.66 Q1206.74 1461.2 1206.74 1468.33 Q1206.74 1475.44 1208.55 1479.01 Q1210.38 1482.55 1213.99 1482.55 Q1217.62 1482.55 1219.43 1479.01 Q1221.26 1475.44 1221.26 1468.33 Q1221.26 1461.2 1219.43 1457.66 Q1217.62 1454.1 1213.99 1454.1 M1213.99 1450.39 Q1219.8 1450.39 1222.86 1455 Q1225.93 1459.58 1225.93 1468.33 Q1225.93 1477.06 1222.86 1481.67 Q1219.8 1486.25 1213.99 1486.25 Q1208.18 1486.25 1205.1 1481.67 Q1202.05 1477.06 1202.05 1468.33 Q1202.05 1459.58 1205.1 1455 Q1208.18 1450.39 1213.99 1450.39 Z" fill="#000000" fill-rule="evenodd" fill-opacity="1" /><path clip-path="url(#clip130)" d="M1640.02 1451.02 L1662.25 1451.02 L1662.25 1453.01 L1649.7 1485.58 L1644.82 1485.58 L1656.62 1454.96 L1640.02 1454.96 L1640.02 1451.02 Z" fill="#000000" fill-rule="evenodd" fill-opacity="1" /><path clip-path="url(#clip130)" d="M1671.41 1451.02 L1689.77 1451.02 L1689.77 1454.96 L1675.7 1454.96 L1675.7 1463.43 Q1676.71 1463.08 1677.73 1462.92 Q1678.75 1462.73 1679.77 1462.73 Q1685.56 1462.73 1688.94 1465.9 Q1692.32 1469.08 1692.32 1474.49 Q1692.32 1480.07 1688.84 1483.17 Q1685.37 1486.25 1679.05 1486.25 Q1676.88 1486.25 1674.61 1485.88 Q1672.36 1485.51 1669.95 1484.77 L1669.95 1480.07 Q1672.04 1481.2 1674.26 1481.76 Q1676.48 1482.32 1678.96 1482.32 Q1682.96 1482.32 1685.3 1480.21 Q1687.64 1478.1 1687.64 1474.49 Q1687.64 1470.88 1685.3 1468.77 Q1682.96 1466.67 1678.96 1466.67 Q1677.08 1466.67 1675.21 1467.08 Q1673.36 1467.5 1671.41 1468.38 L1671.41 1451.02 Z" fill="#000000" fill-rule="evenodd" fill-opacity="1" /><path clip-path="url(#clip130)" d="M2092.77 1481.64 L2100.41 1481.64 L2100.41 1455.28 L2092.1 1456.95 L2092.1 1452.69 L2100.36 1451.02 L2105.04 1451.02 L2105.04 1481.64 L2112.68 1481.64 L2112.68 1485.58 L2092.77 1485.58 L2092.77 1481.64 Z" fill="#000000" fill-rule="evenodd" fill-opacity="1" /><path clip-path="url(#clip130)" d="M2132.12 1454.1 Q2128.51 1454.1 2126.68 1457.66 Q2124.88 1461.2 2124.88 1468.33 Q2124.88 1475.44 2126.68 1479.01 Q2128.51 1482.55 2132.12 1482.55 Q2135.76 1482.55 2137.56 1479.01 Q2139.39 1475.44 2139.39 1468.33 Q2139.39 1461.2 2137.56 1457.66 Q2135.76 1454.1 2132.12 1454.1 M2132.12 1450.39 Q2137.93 1450.39 2140.99 1455 Q2144.07 1459.58 2144.07 1468.33 Q2144.07 1477.06 2140.99 1481.67 Q2137.93 1486.25 2132.12 1486.25 Q2126.31 1486.25 2123.23 1481.67 Q2120.18 1477.06 2120.18 1468.33 Q2120.18 1459.58 2123.23 1455 Q2126.31 1450.39 2132.12 1450.39 Z" fill="#000000" fill-rule="evenodd" fill-opacity="1" /><path clip-path="url(#clip130)" d="M2162.29 1454.1 Q2158.67 1454.1 2156.85 1457.66 Q2155.04 1461.2 2155.04 1468.33 Q2155.04 1475.44 2156.85 1479.01 Q2158.67 1482.55 2162.29 1482.55 Q2165.92 1482.55 2167.73 1479.01 Q2169.55 1475.44 2169.55 1468.33 Q2169.55 1461.2 2167.73 1457.66 Q2165.92 1454.1 2162.29 1454.1 M2162.29 1450.39 Q2168.1 1450.39 2171.15 1455 Q2174.23 1459.58 2174.23 1468.33 Q2174.23 1477.06 2171.15 1481.67 Q2168.1 1486.25 2162.29 1486.25 Q2156.48 1486.25 2153.4 1481.67 Q2150.34 1477.06 2150.34 1468.33 Q2150.34 1459.58 2153.4 1455 Q2156.48 1450.39 2162.29 1450.39 Z" fill="#000000" fill-rule="evenodd" fill-opacity="1" /><path clip-path="url(#clip130)" d="M1187.18 1522.27 L1187.18 1532.4 L1199.24 1532.4 L1199.24 1536.95 L1187.18 1536.95 L1187.18 1556.3 Q1187.18 1560.66 1188.35 1561.9 Q1189.56 1563.14 1193.22 1563.14 L1199.24 1563.14 L1199.24 1568.04 L1193.22 1568.04 Q1186.44 1568.04 1183.87 1565.53 Q1181.29 1562.98 1181.29 1556.3 L1181.29 1536.95 L1176.99 1536.95 L1176.99 1532.4 L1181.29 1532.4 L1181.29 1522.27 L1187.18 1522.27 Z" fill="#000000" fill-rule="evenodd" fill-opacity="1" /><path clip-path="url(#clip130)" d="M1227.66 1532.4 L1233.52 1532.4 L1233.52 1568.04 L1227.66 1568.04 L1227.66 1532.4 M1227.66 1518.52 L1233.52 1518.52 L1233.52 1525.93 L1227.66 1525.93 L1227.66 1518.52 Z" fill="#000000" fill-rule="evenodd" fill-opacity="1" /><path clip-path="url(#clip130)" d="M1275.41 1546.53 L1275.41 1568.04 L1269.55 1568.04 L1269.55 1546.72 Q1269.55 1541.66 1267.58 1539.14 Q1265.6 1536.63 1261.66 1536.63 Q1256.91 1536.63 1254.18 1539.65 Q1251.44 1542.68 1251.44 1547.9 L1251.44 1568.04 L1245.55 1568.04 L1245.55 1532.4 L1251.44 1532.4 L1251.44 1537.93 Q1253.54 1534.72 1256.37 1533.13 Q1259.24 1531.54 1262.96 1531.54 Q1269.1 1531.54 1272.25 1535.36 Q1275.41 1539.14 1275.41 1546.53 Z" fill="#000000" fill-rule="evenodd" fill-opacity="1" /><path clip-path="url(#clip130)" d="M1307.27 1518.52 L1320.76 1518.52 L1320.76 1523.07 L1313.12 1523.07 L1313.12 1572.09 L1320.76 1572.09 L1320.76 1576.64 L1307.27 1576.64 L1307.27 1518.52 Z" fill="#000000" fill-rule="evenodd" fill-opacity="1" /><path clip-path="url(#clip130)" d="M1355.96 1533.45 L1355.96 1538.98 Q1353.48 1537.71 1350.81 1537.07 Q1348.13 1536.44 1345.27 1536.44 Q1340.91 1536.44 1338.71 1537.77 Q1336.55 1539.11 1336.55 1541.79 Q1336.55 1543.82 1338.11 1545 Q1339.67 1546.15 1344.38 1547.2 L1346.38 1547.64 Q1352.62 1548.98 1355.23 1551.43 Q1357.87 1553.85 1357.87 1558.21 Q1357.87 1563.17 1353.93 1566.07 Q1350.01 1568.97 1343.14 1568.97 Q1340.27 1568.97 1337.15 1568.39 Q1334.07 1567.85 1330.63 1566.74 L1330.63 1560.69 Q1333.87 1562.38 1337.03 1563.24 Q1340.18 1564.07 1343.26 1564.07 Q1347.4 1564.07 1349.63 1562.66 Q1351.86 1561.23 1351.86 1558.65 Q1351.86 1556.27 1350.23 1554.99 Q1348.64 1553.72 1343.2 1552.54 L1341.16 1552.07 Q1335.72 1550.92 1333.3 1548.56 Q1330.88 1546.18 1330.88 1542.04 Q1330.88 1537.01 1334.45 1534.27 Q1338.01 1531.54 1344.57 1531.54 Q1347.82 1531.54 1350.68 1532.01 Q1353.54 1532.49 1355.96 1533.45 Z" fill="#000000" fill-rule="evenodd" fill-opacity="1" /><path clip-path="url(#clip130)" d="M1380.89 1518.52 L1380.89 1576.64 L1367.39 1576.64 L1367.39 1572.09 L1375 1572.09 L1375 1523.07 L1367.39 1523.07 L1367.39 1518.52 L1380.89 1518.52 Z" fill="#000000" fill-rule="evenodd" fill-opacity="1" /><polyline clip-path="url(#clip132)" style="stroke:#000000; stroke-linecap:butt; stroke-linejoin:round; stroke-width:2; stroke-opacity:0.1; fill:none" points="
  205.121,1372.39 2352.76,1372.39 
  "/>
<polyline clip-path="url(#clip132)" style="stroke:#000000; stroke-linecap:butt; stroke-linejoin:round; stroke-width:2; stroke-opacity:0.1; fill:none" points="
  205.121,1031.3 2352.76,1031.3 
  "/>
<polyline clip-path="url(#clip132)" style="stroke:#000000; stroke-linecap:butt; stroke-linejoin:round; stroke-width:2; stroke-opacity:0.1; fill:none" points="
  205.121,690.213 2352.76,690.213 
  "/>
<polyline clip-path="url(#clip132)" style="stroke:#000000; stroke-linecap:butt; stroke-linejoin:round; stroke-width:2; stroke-opacity:0.1; fill:none" points="
  205.121,349.126 2352.76,349.126 
  "/>
<polyline clip-path="url(#clip130)" style="stroke:#000000; stroke-linecap:butt; stroke-linejoin:round; stroke-width:4; stroke-opacity:1; fill:none" points="
  205.121,1423.18 205.121,123.472 
  "/>
<polyline clip-path="url(#clip130)" style="stroke:#000000; stroke-linecap:butt; stroke-linejoin:round; stroke-width:4; stroke-opacity:1; fill:none" points="
  205.121,1372.39 224.019,1372.39 
  "/>
<polyline clip-path="url(#clip130)" style="stroke:#000000; stroke-linecap:butt; stroke-linejoin:round; stroke-width:4; stroke-opacity:1; fill:none" points="
  205.121,1031.3 224.019,1031.3 
  "/>
<polyline clip-path="url(#clip130)" style="stroke:#000000; stroke-linecap:butt; stroke-linejoin:round; stroke-width:4; stroke-opacity:1; fill:none" points="
  205.121,690.213 224.019,690.213 
  "/>
<polyline clip-path="url(#clip130)" style="stroke:#000000; stroke-linecap:butt; stroke-linejoin:round; stroke-width:4; stroke-opacity:1; fill:none" points="
  205.121,349.126 224.019,349.126 
  "/>
<path clip-path="url(#clip130)" d="M157.177 1358.18 Q153.566 1358.18 151.737 1361.75 Q149.931 1365.29 149.931 1372.42 Q149.931 1379.53 151.737 1383.09 Q153.566 1386.63 157.177 1386.63 Q160.811 1386.63 162.616 1383.09 Q164.445 1379.53 164.445 1372.42 Q164.445 1365.29 162.616 1361.75 Q160.811 1358.18 157.177 1358.18 M157.177 1354.48 Q162.987 1354.48 166.042 1359.09 Q169.121 1363.67 169.121 1372.42 Q169.121 1381.15 166.042 1385.75 Q162.987 1390.34 157.177 1390.34 Q151.366 1390.34 148.288 1385.75 Q145.232 1381.15 145.232 1372.42 Q145.232 1363.67 148.288 1359.09 Q151.366 1354.48 157.177 1354.48 Z" fill="#000000" fill-rule="evenodd" fill-opacity="1" /><path clip-path="url(#clip130)" d="M121.043 1044.64 L137.362 1044.64 L137.362 1048.58 L115.418 1048.58 L115.418 1044.64 Q118.08 1041.89 122.663 1037.26 Q127.269 1032.61 128.45 1031.26 Q130.695 1028.74 131.575 1027 Q132.478 1025.25 132.478 1023.56 Q132.478 1020.8 130.533 1019.07 Q128.612 1017.33 125.51 1017.33 Q123.311 1017.33 120.857 1018.09 Q118.427 1018.86 115.649 1020.41 L115.649 1015.69 Q118.473 1014.55 120.927 1013.97 Q123.38 1013.39 125.418 1013.39 Q130.788 1013.39 133.982 1016.08 Q137.177 1018.76 137.177 1023.25 Q137.177 1025.38 136.367 1027.31 Q135.579 1029.2 133.473 1031.8 Q132.894 1032.47 129.792 1035.69 Q126.691 1038.88 121.043 1044.64 Z" fill="#000000" fill-rule="evenodd" fill-opacity="1" /><path clip-path="url(#clip130)" d="M157.177 1017.1 Q153.566 1017.1 151.737 1020.66 Q149.931 1024.2 149.931 1031.33 Q149.931 1038.44 151.737 1042 Q153.566 1045.55 157.177 1045.55 Q160.811 1045.55 162.616 1042 Q164.445 1038.44 164.445 1031.33 Q164.445 1024.2 162.616 1020.66 Q160.811 1017.1 157.177 1017.1 M157.177 1013.39 Q162.987 1013.39 166.042 1018 Q169.121 1022.58 169.121 1031.33 Q169.121 1040.06 166.042 1044.67 Q162.987 1049.25 157.177 1049.25 Q151.366 1049.25 148.288 1044.67 Q145.232 1040.06 145.232 1031.33 Q145.232 1022.58 148.288 1018 Q151.366 1013.39 157.177 1013.39 Z" fill="#000000" fill-rule="evenodd" fill-opacity="1" /><path clip-path="url(#clip130)" d="M129.862 677.007 L118.056 695.456 L129.862 695.456 L129.862 677.007 M128.635 672.933 L134.515 672.933 L134.515 695.456 L139.445 695.456 L139.445 699.345 L134.515 699.345 L134.515 707.493 L129.862 707.493 L129.862 699.345 L114.26 699.345 L114.26 694.831 L128.635 672.933 Z" fill="#000000" fill-rule="evenodd" fill-opacity="1" /><path clip-path="url(#clip130)" d="M157.177 676.011 Q153.566 676.011 151.737 679.576 Q149.931 683.118 149.931 690.247 Q149.931 697.354 151.737 700.919 Q153.566 704.46 157.177 704.46 Q160.811 704.46 162.616 700.919 Q164.445 697.354 164.445 690.247 Q164.445 683.118 162.616 679.576 Q160.811 676.011 157.177 676.011 M157.177 672.308 Q162.987 672.308 166.042 676.914 Q169.121 681.497 169.121 690.247 Q169.121 698.974 166.042 703.581 Q162.987 708.164 157.177 708.164 Q151.366 708.164 148.288 703.581 Q145.232 698.974 145.232 690.247 Q145.232 681.497 148.288 676.914 Q151.366 672.308 157.177 672.308 Z" fill="#000000" fill-rule="evenodd" fill-opacity="1" /><path clip-path="url(#clip130)" d="M127.593 347.263 Q124.445 347.263 122.593 349.416 Q120.765 351.568 120.765 355.318 Q120.765 359.045 122.593 361.221 Q124.445 363.374 127.593 363.374 Q130.742 363.374 132.57 361.221 Q134.422 359.045 134.422 355.318 Q134.422 351.568 132.57 349.416 Q130.742 347.263 127.593 347.263 M136.876 332.61 L136.876 336.869 Q135.117 336.036 133.311 335.596 Q131.529 335.157 129.769 335.157 Q125.14 335.157 122.686 338.282 Q120.255 341.406 119.908 347.726 Q121.274 345.712 123.334 344.647 Q125.394 343.559 127.871 343.559 Q133.08 343.559 136.089 346.731 Q139.121 349.879 139.121 355.318 Q139.121 360.642 135.973 363.86 Q132.825 367.078 127.593 367.078 Q121.598 367.078 118.427 362.494 Q115.256 357.888 115.256 349.161 Q115.256 340.967 119.144 336.106 Q123.033 331.221 129.584 331.221 Q131.343 331.221 133.126 331.569 Q134.931 331.916 136.876 332.61 Z" fill="#000000" fill-rule="evenodd" fill-opacity="1" /><path clip-path="url(#clip130)" d="M157.177 334.925 Q153.566 334.925 151.737 338.49 Q149.931 342.031 149.931 349.161 Q149.931 356.268 151.737 359.832 Q153.566 363.374 157.177 363.374 Q160.811 363.374 162.616 359.832 Q164.445 356.268 164.445 349.161 Q164.445 342.031 162.616 338.49 Q160.811 334.925 157.177 334.925 M157.177 331.221 Q162.987 331.221 166.042 335.828 Q169.121 340.411 169.121 349.161 Q169.121 357.888 166.042 362.494 Q162.987 367.078 157.177 367.078 Q151.366 367.078 148.288 362.494 Q145.232 357.888 145.232 349.161 Q145.232 340.411 148.288 335.828 Q151.366 331.221 157.177 331.221 Z" fill="#000000" fill-rule="evenodd" fill-opacity="1" /><path clip-path="url(#clip130)" d="M21.7677 894.211 L39.6235 894.211 L39.6235 886.126 Q39.6235 881.638 37.3 879.188 Q34.9765 876.737 30.6797 876.737 Q26.4147 876.737 24.0912 879.188 Q21.7677 881.638 21.7677 886.126 L21.7677 894.211 M16.4842 900.64 L16.4842 886.126 Q16.4842 878.137 20.1126 874.063 Q23.7092 869.957 30.6797 869.957 Q37.7138 869.957 41.3104 874.063 Q44.907 878.137 44.907 886.126 L44.907 894.211 L64.0042 894.211 L64.0042 900.64 L16.4842 900.64 Z" fill="#000000" fill-rule="evenodd" fill-opacity="1" /><path clip-path="url(#clip130)" d="M32.4621 850.096 Q32.4621 854.807 36.1542 857.544 Q39.8145 860.282 46.212 860.282 Q52.6095 860.282 56.3017 857.576 Q59.9619 854.839 59.9619 850.096 Q59.9619 845.418 56.2698 842.68 Q52.5777 839.943 46.212 839.943 Q39.8781 839.943 36.186 842.68 Q32.4621 845.418 32.4621 850.096 M27.4968 850.096 Q27.4968 842.458 32.4621 838.097 Q37.4273 833.737 46.212 833.737 Q54.9649 833.737 59.9619 838.097 Q64.9272 842.458 64.9272 850.096 Q64.9272 857.767 59.9619 862.128 Q54.9649 866.456 46.212 866.456 Q37.4273 866.456 32.4621 862.128 Q27.4968 857.767 27.4968 850.096 Z" fill="#000000" fill-rule="evenodd" fill-opacity="1" /><path clip-path="url(#clip130)" d="M29.4065 801.303 L34.9447 801.303 Q33.6716 803.786 33.035 806.459 Q32.3984 809.133 32.3984 811.998 Q32.3984 816.358 33.7352 818.554 Q35.072 820.719 37.7456 820.719 Q39.7826 820.719 40.9603 819.159 Q42.1061 817.599 43.1565 812.889 L43.6021 810.884 Q44.9389 804.645 47.3897 802.035 Q49.8086 799.394 54.1691 799.394 Q59.1344 799.394 62.0308 803.34 Q64.9272 807.255 64.9272 814.13 Q64.9272 816.995 64.3543 820.114 Q63.8132 823.201 62.6992 826.639 L56.6518 826.639 Q58.3387 823.392 59.198 820.241 Q60.0256 817.09 60.0256 814.003 Q60.0256 809.865 58.6251 807.637 Q57.1929 805.409 54.6147 805.409 Q52.2276 805.409 50.9545 807.032 Q49.6813 808.624 48.5037 814.067 L48.0262 816.104 Q46.8804 821.546 44.5251 823.965 Q42.138 826.384 38.0002 826.384 Q32.9713 826.384 30.2341 822.819 Q27.4968 819.255 27.4968 812.698 Q27.4968 809.451 27.9743 806.587 Q28.4517 803.722 29.4065 801.303 Z" fill="#000000" fill-rule="evenodd" fill-opacity="1" /><path clip-path="url(#clip130)" d="M55.9197 789.24 L55.9197 782.524 L64.0042 782.524 L64.0042 789.24 L55.9197 789.24 Z" fill="#000000" fill-rule="evenodd" fill-opacity="1" /><path clip-path="url(#clip130)" d="M14.479 749.168 L14.479 735.673 L19.0304 735.673 L19.0304 743.312 L68.0464 743.312 L68.0464 735.673 L72.5979 735.673 L72.5979 749.168 L14.479 749.168 Z" fill="#000000" fill-rule="evenodd" fill-opacity="1" /><path clip-path="url(#clip130)" d="M35.1993 695.442 Q31.2526 693.245 29.3747 690.19 Q27.4968 687.134 27.4968 682.997 Q27.4968 677.427 31.4117 674.403 Q35.2948 671.379 42.4881 671.379 L64.0042 671.379 L64.0042 677.267 L42.679 677.267 Q37.5546 677.267 35.072 679.082 Q32.5894 680.896 32.5894 684.62 Q32.5894 689.171 35.6131 691.813 Q38.6368 694.455 43.8567 694.455 L64.0042 694.455 L64.0042 700.343 L42.679 700.343 Q37.5228 700.343 35.072 702.157 Q32.5894 703.972 32.5894 707.759 Q32.5894 712.247 35.6449 714.889 Q38.6686 717.531 43.8567 717.531 L64.0042 717.531 L64.0042 723.419 L28.3562 723.419 L28.3562 717.531 L33.8944 717.531 Q30.616 715.525 29.0564 712.724 Q27.4968 709.924 27.4968 706.072 Q27.4968 702.189 29.4702 699.484 Q31.4436 696.747 35.1993 695.442 Z" fill="#000000" fill-rule="evenodd" fill-opacity="1" /><path clip-path="url(#clip130)" d="M14.479 646.012 L72.5979 646.012 L72.5979 659.507 L68.0464 659.507 L68.0464 651.9 L19.0304 651.9 L19.0304 659.507 L14.479 659.507 L14.479 646.012 Z" fill="#000000" fill-rule="evenodd" fill-opacity="1" /><path clip-path="url(#clip130)" d="M1133.21 18.8205 L1133.21 41.5461 L1143.5 41.5461 Q1149.21 41.5461 1152.33 38.5889 Q1155.45 35.6318 1155.45 30.163 Q1155.45 24.7348 1152.33 21.7777 Q1149.21 18.8205 1143.5 18.8205 L1133.21 18.8205 M1125.02 12.096 L1143.5 12.096 Q1153.66 12.096 1158.85 16.714 Q1164.08 21.2916 1164.08 30.163 Q1164.08 39.1155 1158.85 43.6931 Q1153.66 48.2706 1143.5 48.2706 L1133.21 48.2706 L1133.21 72.576 L1125.02 72.576 L1125.02 12.096 Z" fill="#000000" fill-rule="evenodd" fill-opacity="1" /><path clip-path="url(#clip130)" d="M1189.35 32.4315 Q1183.36 32.4315 1179.87 37.1306 Q1176.39 41.7891 1176.39 49.9314 Q1176.39 58.0738 1179.83 62.7728 Q1183.32 67.4314 1189.35 67.4314 Q1195.31 67.4314 1198.79 62.7323 Q1202.28 58.0333 1202.28 49.9314 Q1202.28 41.8701 1198.79 37.1711 Q1195.31 32.4315 1189.35 32.4315 M1189.35 26.1121 Q1199.07 26.1121 1204.62 32.4315 Q1210.17 38.7509 1210.17 49.9314 Q1210.17 61.0714 1204.62 67.4314 Q1199.07 73.7508 1189.35 73.7508 Q1179.59 73.7508 1174.04 67.4314 Q1168.53 61.0714 1168.53 49.9314 Q1168.53 38.7509 1174.04 32.4315 Q1179.59 26.1121 1189.35 26.1121 Z" fill="#000000" fill-rule="evenodd" fill-opacity="1" /><path clip-path="url(#clip130)" d="M1251.45 28.5427 L1251.45 35.5912 Q1248.29 33.9709 1244.89 33.1607 Q1241.49 32.3505 1237.84 32.3505 Q1232.29 32.3505 1229.5 34.0519 Q1226.74 35.7533 1226.74 39.156 Q1226.74 41.7486 1228.73 43.2475 Q1230.71 44.7058 1236.71 46.0426 L1239.26 46.6097 Q1247.2 48.3111 1250.52 51.4303 Q1253.88 54.509 1253.88 60.0587 Q1253.88 66.3781 1248.86 70.0644 Q1243.88 73.7508 1235.13 73.7508 Q1231.48 73.7508 1227.51 73.0216 Q1223.58 72.3329 1219.21 70.9151 L1219.21 63.2184 Q1223.34 65.3654 1227.35 66.4591 Q1231.36 67.5124 1235.29 67.5124 Q1240.56 67.5124 1243.39 65.73 Q1246.23 63.9071 1246.23 60.6258 Q1246.23 57.5877 1244.16 55.9673 Q1242.14 54.3469 1235.21 52.8481 L1232.62 52.2405 Q1225.69 50.7821 1222.61 47.7845 Q1219.53 44.7463 1219.53 39.4801 Q1219.53 33.0797 1224.07 29.5959 Q1228.61 26.1121 1236.95 26.1121 Q1241.08 26.1121 1244.73 26.7198 Q1248.37 27.3274 1251.45 28.5427 Z" fill="#000000" fill-rule="evenodd" fill-opacity="1" /><path clip-path="url(#clip130)" d="M1265.75 27.2059 L1273.21 27.2059 L1273.21 72.576 L1265.75 72.576 L1265.75 27.2059 M1265.75 9.54393 L1273.21 9.54393 L1273.21 18.9825 L1265.75 18.9825 L1265.75 9.54393 Z" fill="#000000" fill-rule="evenodd" fill-opacity="1" /><path clip-path="url(#clip130)" d="M1296.18 14.324 L1296.18 27.2059 L1311.53 27.2059 L1311.53 32.9987 L1296.18 32.9987 L1296.18 57.6282 Q1296.18 63.1779 1297.67 64.7578 Q1299.21 66.3376 1303.87 66.3376 L1311.53 66.3376 L1311.53 72.576 L1303.87 72.576 Q1295.24 72.576 1291.96 69.3758 Q1288.68 66.1351 1288.68 57.6282 L1288.68 32.9987 L1283.21 32.9987 L1283.21 27.2059 L1288.68 27.2059 L1288.68 14.324 L1296.18 14.324 Z" fill="#000000" fill-rule="evenodd" fill-opacity="1" /><path clip-path="url(#clip130)" d="M1321.33 27.2059 L1328.78 27.2059 L1328.78 72.576 L1321.33 72.576 L1321.33 27.2059 M1321.33 9.54393 L1328.78 9.54393 L1328.78 18.9825 L1321.33 18.9825 L1321.33 9.54393 Z" fill="#000000" fill-rule="evenodd" fill-opacity="1" /><path clip-path="url(#clip130)" d="M1361.96 32.4315 Q1355.97 32.4315 1352.48 37.1306 Q1349 41.7891 1349 49.9314 Q1349 58.0738 1352.44 62.7728 Q1355.93 67.4314 1361.96 67.4314 Q1367.92 67.4314 1371.4 62.7323 Q1374.88 58.0333 1374.88 49.9314 Q1374.88 41.8701 1371.4 37.1711 Q1367.92 32.4315 1361.96 32.4315 M1361.96 26.1121 Q1371.68 26.1121 1377.23 32.4315 Q1382.78 38.7509 1382.78 49.9314 Q1382.78 61.0714 1377.23 67.4314 Q1371.68 73.7508 1361.96 73.7508 Q1352.2 73.7508 1346.65 67.4314 Q1341.14 61.0714 1341.14 49.9314 Q1341.14 38.7509 1346.65 32.4315 Q1352.2 26.1121 1361.96 26.1121 Z" fill="#000000" fill-rule="evenodd" fill-opacity="1" /><path clip-path="url(#clip130)" d="M1432.85 45.1919 L1432.85 72.576 L1425.4 72.576 L1425.4 45.4349 Q1425.4 38.994 1422.89 35.7938 Q1420.38 32.5936 1415.35 32.5936 Q1409.32 32.5936 1405.83 36.4419 Q1402.35 40.2903 1402.35 46.9338 L1402.35 72.576 L1394.86 72.576 L1394.86 27.2059 L1402.35 27.2059 L1402.35 34.2544 Q1405.02 30.163 1408.63 28.1376 Q1412.27 26.1121 1417.01 26.1121 Q1424.83 26.1121 1428.84 30.9732 Q1432.85 35.7938 1432.85 45.1919 Z" fill="#000000" fill-rule="evenodd" fill-opacity="1" /><polyline clip-path="url(#clip132)" style="stroke:#009af9; stroke-linecap:butt; stroke-linejoin:round; stroke-width:4; stroke-opacity:1; fill:none" points="
  265.903,1372.39 266.621,1372.39 267.338,1372.39 268.056,1372.39 268.774,1372.39 269.491,1372.38 270.209,1372.38 270.927,1372.38 271.645,1372.38 272.362,1372.38 
  273.08,1372.38 273.798,1372.38 274.515,1372.38 275.233,1372.38 275.951,1372.38 276.668,1372.38 277.386,1372.38 278.104,1372.38 278.821,1372.38 279.539,1372.38 
  280.257,1372.38 280.974,1372.38 281.692,1372.38 282.41,1372.39 283.127,1372.39 283.845,1372.39 284.563,1372.39 285.28,1372.39 285.998,1372.39 286.716,1372.39 
  287.433,1372.39 288.151,1372.4 288.869,1372.4 289.587,1372.4 290.304,1372.4 291.022,1372.4 291.74,1372.41 292.457,1372.41 293.175,1372.41 293.893,1372.42 
  294.61,1372.42 295.328,1372.42 296.046,1372.43 296.763,1372.43 297.481,1372.44 298.199,1372.44 298.916,1372.45 299.634,1372.45 300.352,1372.46 301.069,1372.46 
  301.787,1372.47 302.505,1372.47 303.222,1372.48 303.94,1372.49 304.658,1372.49 305.376,1372.5 306.093,1372.51 306.811,1372.51 307.529,1372.52 308.246,1372.53 
  308.964,1372.54 309.682,1372.54 310.399,1372.55 311.117,1372.56 311.835,1372.57 312.552,1372.58 313.27,1372.59 313.988,1372.6 314.705,1372.61 315.423,1372.62 
  316.141,1372.63 316.858,1372.64 317.576,1372.65 318.294,1372.66 319.012,1372.67 319.729,1372.68 320.447,1372.69 321.165,1372.71 321.882,1372.72 322.6,1372.73 
  323.318,1372.74 324.035,1372.75 324.753,1372.77 325.471,1372.78 326.188,1372.79 326.906,1372.81 327.624,1372.82 328.341,1372.83 329.059,1372.84 329.777,1372.86 
  330.495,1372.87 331.212,1372.89 331.93,1372.9 332.648,1372.91 333.365,1372.93 334.083,1372.94 334.801,1372.96 335.518,1372.97 336.236,1372.99 336.954,1373 
  337.671,1373.01 338.389,1373.03 339.107,1373.05 339.824,1373.06 340.542,1373.08 341.26,1373.09 341.978,1373.11 342.695,1373.12 343.413,1373.14 344.131,1373.15 
  344.848,1373.17 345.566,1373.19 346.284,1373.2 347.001,1373.22 347.719,1373.24 348.437,1373.25 349.154,1373.27 349.872,1373.29 350.59,1373.3 351.307,1373.32 
  352.025,1373.34 352.743,1373.36 353.461,1373.37 354.178,1373.39 354.896,1373.41 355.614,1373.43 356.331,1373.45 357.049,1373.46 357.767,1373.48 358.484,1373.5 
  359.202,1373.52 359.92,1373.54 360.637,1373.56 361.355,1373.58 362.073,1373.6 362.791,1373.62 363.508,1373.64 364.226,1373.66 364.944,1373.68 365.661,1373.7 
  366.379,1373.72 367.097,1373.74 367.814,1373.76 368.532,1373.78 369.25,1373.8 369.967,1373.82 370.685,1373.84 371.403,1373.86 372.121,1373.88 372.838,1373.9 
  373.556,1373.92 374.274,1373.95 374.991,1373.97 375.709,1373.99 376.427,1374.01 377.144,1374.03 377.862,1374.06 378.58,1374.08 379.297,1374.1 380.015,1374.12 
  380.733,1374.14 381.45,1374.17 382.168,1374.19 382.886,1374.21 383.604,1374.23 384.321,1374.26 385.039,1374.28 385.757,1374.3 386.474,1374.32 387.192,1374.35 
  387.91,1374.37 388.627,1374.39 389.345,1374.41 390.063,1374.44 390.78,1374.46 391.498,1374.48 392.216,1374.5 392.934,1374.53 393.651,1374.55 394.369,1374.57 
  395.087,1374.59 395.804,1374.62 396.522,1374.64 397.24,1374.66 397.957,1374.69 398.675,1374.71 399.393,1374.73 400.11,1374.75 400.828,1374.78 401.546,1374.8 
  402.264,1374.82 402.981,1374.84 403.699,1374.86 404.417,1374.89 405.134,1374.91 405.852,1374.93 406.57,1374.95 407.287,1374.98 408.005,1375 408.723,1375.02 
  409.44,1375.04 410.158,1375.06 410.876,1375.09 411.594,1375.11 412.311,1375.13 413.029,1375.15 413.747,1375.17 414.464,1375.2 415.182,1375.22 415.9,1375.24 
  416.617,1375.26 417.335,1375.28 418.053,1375.3 418.77,1375.33 419.488,1375.35 420.206,1375.37 420.924,1375.39 421.641,1375.41 422.359,1375.43 423.077,1375.45 
  423.794,1375.48 424.512,1375.5 425.23,1375.52 425.947,1375.54 426.665,1375.56 427.383,1375.58 428.101,1375.61 428.818,1375.63 429.536,1375.65 430.254,1375.67 
  430.971,1375.69 431.689,1375.71 432.407,1375.74 433.124,1375.76 433.842,1375.78 434.56,1375.8 435.277,1375.82 435.995,1375.85 436.713,1375.87 437.431,1375.89 
  438.148,1375.91 438.866,1375.93 439.584,1375.96 440.301,1375.98 441.019,1376 441.737,1376.02 442.454,1376.04 443.172,1376.07 443.89,1376.09 444.607,1376.11 
  445.325,1376.14 446.043,1376.16 446.761,1376.18 447.478,1376.2 448.196,1376.23 448.914,1376.25 449.631,1376.27 450.349,1376.29 451.067,1376.32 451.784,1376.34 
  452.502,1376.36 453.22,1376.39 453.937,1376.41 454.655,1376.43 455.373,1376.46 456.091,1376.48 456.808,1376.5 457.526,1376.53 458.244,1376.55 458.961,1376.57 
  459.679,1376.6 460.397,1376.62 461.114,1376.64 461.832,1376.67 462.55,1376.69 463.268,1376.71 463.985,1376.74 464.703,1376.76 465.421,1376.78 466.138,1376.81 
  466.856,1376.83 467.574,1376.85 468.291,1376.88 469.009,1376.9 469.727,1376.92 470.444,1376.95 471.162,1376.97 471.88,1377 472.598,1377.02 473.315,1377.04 
  474.033,1377.07 474.751,1377.09 475.468,1377.12 476.186,1377.14 476.904,1377.17 477.621,1377.19 478.339,1377.21 479.057,1377.24 479.775,1377.26 480.492,1377.29 
  481.21,1377.31 481.928,1377.34 482.645,1377.37 483.363,1377.39 484.081,1377.42 484.798,1377.44 485.516,1377.47 486.234,1377.49 486.951,1377.52 487.669,1377.55 
  488.387,1377.57 489.105,1377.6 489.822,1377.62 490.54,1377.65 491.258,1377.68 491.975,1377.7 492.693,1377.73 493.411,1377.76 494.128,1377.79 494.846,1377.81 
  495.564,1377.84 496.282,1377.87 496.999,1377.89 497.717,1377.92 498.435,1377.95 499.152,1377.98 499.87,1378 500.588,1378.03 501.305,1378.06 502.023,1378.09 
  502.741,1378.11 503.459,1378.14 504.176,1378.17 504.894,1378.2 505.612,1378.23 506.329,1378.25 507.047,1378.28 507.765,1378.31 508.482,1378.34 509.2,1378.37 
  509.918,1378.39 510.635,1378.42 511.353,1378.45 512.071,1378.48 512.789,1378.51 513.506,1378.54 514.224,1378.56 514.942,1378.59 515.659,1378.62 516.377,1378.65 
  517.095,1378.68 517.812,1378.71 518.53,1378.73 519.248,1378.76 519.966,1378.79 520.683,1378.82 521.401,1378.85 522.119,1378.88 522.836,1378.9 523.554,1378.93 
  524.272,1378.96 524.989,1378.99 525.707,1379.02 526.425,1379.05 527.143,1379.08 527.86,1379.1 528.578,1379.13 529.296,1379.16 530.013,1379.19 530.731,1379.22 
  531.449,1379.25 532.166,1379.27 532.884,1379.3 533.602,1379.33 534.32,1379.36 535.037,1379.39 535.755,1379.41 536.473,1379.44 537.19,1379.47 537.908,1379.5 
  538.626,1379.53 539.343,1379.56 540.061,1379.58 540.779,1379.61 541.496,1379.64 542.214,1379.67 542.932,1379.7 543.65,1379.72 544.367,1379.75 545.085,1379.78 
  545.803,1379.81 546.52,1379.84 547.238,1379.86 547.956,1379.89 548.673,1379.92 549.391,1379.95 550.109,1379.98 550.827,1380.01 551.544,1380.03 552.262,1380.06 
  552.98,1380.09 553.697,1380.12 554.415,1380.15 555.133,1380.18 555.85,1380.2 556.568,1380.23 557.286,1380.26 558.004,1380.29 558.721,1380.32 559.439,1380.35 
  560.157,1380.38 560.874,1380.4 561.592,1380.43 562.31,1380.46 563.027,1380.49 563.745,1380.52 564.463,1380.55 565.181,1380.58 565.898,1380.61 566.616,1380.64 
  567.334,1380.67 568.051,1380.7 568.769,1380.73 569.487,1380.76 570.204,1380.79 570.922,1380.82 571.64,1380.85 572.358,1380.88 573.075,1380.91 573.793,1380.94 
  574.511,1380.97 575.228,1381 575.946,1381.03 576.664,1381.06 577.381,1381.1 578.099,1381.13 578.817,1381.16 579.535,1381.19 580.252,1381.23 580.97,1381.26 
  581.688,1381.29 582.405,1381.33 583.123,1381.36 583.841,1381.39 584.558,1381.43 585.276,1381.46 585.994,1381.5 586.712,1381.53 587.429,1381.57 588.147,1381.61 
  588.865,1381.64 589.582,1381.68 590.3,1381.72 591.018,1381.75 591.736,1381.79 592.453,1381.83 593.171,1381.87 593.889,1381.91 594.606,1381.95 595.324,1381.99 
  596.042,1382.03 596.759,1382.07 597.477,1382.11 598.195,1382.15 598.913,1382.19 599.63,1382.23 600.348,1382.27 601.066,1382.32 601.783,1382.36 602.501,1382.4 
  603.219,1382.44 603.936,1382.49 604.654,1382.53 605.372,1382.58 606.09,1382.62 606.807,1382.66 607.525,1382.71 608.243,1382.75 608.96,1382.8 609.678,1382.84 
  610.396,1382.89 611.114,1382.93 611.831,1382.98 612.549,1383.02 613.267,1383.07 613.984,1383.11 614.702,1383.16 615.42,1383.21 616.137,1383.25 616.855,1383.3 
  617.573,1383.35 618.291,1383.39 619.008,1383.44 619.726,1383.49 620.444,1383.53 621.161,1383.58 621.879,1383.63 622.597,1383.68 623.315,1383.73 624.032,1383.77 
  624.75,1383.82 625.468,1383.87 626.185,1383.92 626.903,1383.98 627.621,1384.03 628.338,1384.08 629.056,1384.13 629.774,1384.19 630.492,1384.24 631.209,1384.29 
  631.927,1384.35 632.645,1384.41 633.362,1384.46 634.08,1384.52 634.798,1384.58 635.516,1384.64 636.233,1384.7 636.951,1384.76 637.669,1384.82 638.386,1384.89 
  639.104,1384.95 639.822,1385.02 640.54,1385.08 641.257,1385.15 641.975,1385.22 642.693,1385.29 643.41,1385.36 644.128,1385.43 644.846,1385.5 645.564,1385.56 
  646.281,1385.63 646.999,1385.7 647.717,1385.77 648.434,1385.84 649.152,1385.9 649.87,1385.96 650.588,1386.02 651.305,1386.08 652.023,1386.13 652.741,1386.18 
  653.458,1386.23 654.176,1386.27 654.894,1386.3 655.612,1386.33 656.329,1386.36 657.047,1386.38 657.765,1386.39 658.482,1386.4 659.2,1386.39 659.918,1386.38 
  660.636,1386.37 661.353,1386.34 662.071,1386.31 662.789,1386.27 663.506,1386.21 664.224,1386.15 664.942,1386.08 665.66,1386 666.377,1385.91 667.095,1385.81 
  667.813,1385.7 668.53,1385.58 669.248,1385.45 669.966,1385.31 670.684,1385.16 671.401,1385 672.119,1384.83 672.837,1384.64 673.554,1384.45 674.272,1384.24 
  674.99,1384.03 675.708,1383.8 676.425,1383.56 677.143,1383.31 677.861,1383.05 678.578,1382.78 679.296,1382.5 680.014,1382.2 680.732,1381.9 681.449,1381.58 
  682.167,1381.25 682.885,1380.91 683.603,1380.56 684.32,1380.19 685.038,1379.82 685.756,1379.43 686.473,1379.03 687.191,1378.62 687.909,1378.2 688.627,1377.77 
  689.344,1377.33 690.062,1376.87 690.78,1376.41 691.497,1375.93 692.215,1375.44 692.933,1374.94 693.651,1374.43 694.368,1373.91 695.086,1373.38 695.804,1372.84 
  696.521,1372.29 697.239,1371.73 697.957,1371.16 698.675,1370.58 699.392,1369.99 700.11,1369.39 700.828,1368.78 701.546,1368.17 702.263,1367.54 702.981,1366.91 
  703.699,1366.27 704.416,1365.63 705.134,1364.98 705.852,1364.32 706.57,1363.65 707.287,1362.98 708.005,1362.3 708.723,1361.62 709.44,1360.93 710.158,1360.23 
  710.876,1359.53 711.594,1358.83 712.311,1358.12 713.029,1357.41 713.747,1356.69 714.464,1355.98 715.182,1355.25 715.9,1354.53 716.618,1353.8 717.335,1353.07 
  718.053,1352.34 718.771,1351.6 719.489,1350.87 720.206,1350.13 720.924,1349.39 721.642,1348.64 722.359,1347.9 723.077,1347.16 723.795,1346.41 724.513,1345.66 
  725.23,1344.91 725.948,1344.16 726.666,1343.41 727.384,1342.66 728.101,1341.91 728.819,1341.16 729.537,1340.4 730.254,1339.65 730.972,1338.89 731.69,1338.13 
  732.408,1337.38 733.125,1336.62 733.843,1335.86 734.561,1335.1 735.278,1334.34 735.996,1333.58 736.714,1332.82 737.432,1332.06 738.149,1331.3 738.867,1330.54 
  739.585,1329.77 740.303,1329.01 741.02,1328.25 741.738,1327.48 742.456,1326.72 743.173,1325.95 743.891,1325.19 744.609,1324.42 745.327,1323.65 746.044,1322.89 
  746.762,1322.12 747.48,1321.35 748.197,1320.58 748.915,1319.81 749.633,1319.05 750.351,1318.28 751.068,1317.51 751.786,1316.74 752.504,1315.97 753.221,1315.2 
  753.939,1314.43 754.657,1313.65 755.375,1312.88 756.092,1312.11 756.81,1311.34 757.528,1310.56 758.246,1309.79 758.963,1309.02 759.681,1308.24 760.399,1307.47 
  761.116,1306.69 761.834,1305.92 762.552,1305.14 763.27,1304.36 763.987,1303.59 764.705,1302.81 765.423,1302.03 766.14,1301.25 766.858,1300.47 767.576,1299.69 
  768.294,1298.91 769.011,1298.13 769.729,1297.35 770.447,1296.57 771.164,1295.78 771.882,1295 772.6,1294.22 773.318,1293.43 774.035,1292.65 774.753,1291.86 
  775.471,1291.07 776.188,1290.29 776.906,1289.5 777.624,1288.71 778.342,1287.92 779.059,1287.13 779.777,1286.34 780.495,1285.55 781.213,1284.75 781.93,1283.96 
  782.648,1283.17 783.366,1282.37 784.083,1281.58 784.801,1280.78 785.519,1279.99 786.237,1279.19 786.954,1278.39 787.672,1277.59 788.39,1276.79 789.107,1275.99 
  789.825,1275.19 790.543,1274.39 791.26,1273.59 791.978,1272.79 792.696,1271.98 793.414,1271.18 794.131,1270.37 794.849,1269.57 795.567,1268.76 796.284,1267.95 
  797.002,1267.15 797.72,1266.34 798.438,1265.53 799.155,1264.72 799.873,1263.91 800.591,1263.1 801.308,1262.28 802.026,1261.47 802.744,1260.66 803.462,1259.84 
  804.179,1259.03 804.897,1258.21 805.615,1257.4 806.332,1256.58 807.05,1255.76 807.768,1254.94 808.486,1254.13 809.203,1253.31 809.921,1252.49 810.639,1251.66 
  811.356,1250.84 812.074,1250.02 812.792,1249.2 813.51,1248.37 814.227,1247.55 814.945,1246.72 815.663,1245.9 816.38,1245.07 817.098,1244.24 817.816,1243.42 
  818.533,1242.59 819.251,1241.76 819.969,1240.93 820.687,1240.1 821.404,1239.27 822.122,1238.44 822.84,1237.61 823.557,1236.77 824.275,1235.94 824.993,1235.11 
  825.711,1234.27 826.428,1233.44 827.146,1232.6 827.864,1231.76 828.581,1230.93 829.299,1230.09 830.017,1229.25 830.735,1228.41 831.452,1227.57 832.17,1226.73 
  832.888,1225.89 833.605,1225.05 834.323,1224.21 835.041,1223.36 835.758,1222.52 836.476,1221.68 837.194,1220.83 837.912,1219.99 838.629,1219.14 839.347,1218.3 
  840.065,1217.45 840.782,1216.6 841.5,1215.75 842.218,1214.9 842.936,1214.05 843.653,1213.2 844.371,1212.35 845.089,1211.5 845.806,1210.65 846.524,1209.8 
  847.242,1208.94 847.959,1208.09 848.677,1207.24 849.395,1206.38 850.113,1205.53 850.83,1204.67 851.548,1203.81 852.266,1202.96 852.983,1202.1 853.701,1201.24 
  854.419,1200.38 855.136,1199.52 855.854,1198.66 856.572,1197.8 857.29,1196.94 858.007,1196.08 858.725,1195.21 859.443,1194.35 860.16,1193.49 860.878,1192.62 
  861.596,1191.76 862.313,1190.89 863.031,1190.03 863.749,1189.16 864.467,1188.29 865.184,1187.43 865.902,1186.56 866.62,1185.69 867.337,1184.82 868.055,1183.95 
  868.773,1183.08 869.491,1182.21 870.208,1181.34 870.926,1180.46 871.644,1179.59 872.361,1178.72 873.079,1177.84 873.797,1176.97 874.514,1176.09 875.232,1175.22 
  875.95,1174.34 876.668,1173.46 877.385,1172.59 878.103,1171.71 878.821,1170.83 879.538,1169.95 880.256,1169.07 880.974,1168.19 881.691,1167.31 882.409,1166.43 
  883.127,1165.55 883.844,1164.67 884.562,1163.78 885.28,1162.9 885.998,1162.02 886.715,1161.13 887.433,1160.25 888.151,1159.36 888.868,1158.48 889.586,1157.59 
  890.304,1156.71 891.021,1155.83 891.739,1154.94 892.457,1154.06 893.175,1153.17 893.892,1152.29 894.61,1151.41 895.328,1150.53 896.045,1149.65 896.763,1148.77 
  897.481,1147.89 898.199,1147.01 898.916,1146.13 899.634,1145.26 900.352,1144.38 901.069,1143.51 901.787,1142.64 902.505,1141.77 903.222,1140.9 903.94,1140.03 
  904.658,1139.17 905.376,1138.3 906.093,1137.44 906.811,1136.58 907.529,1135.72 908.246,1134.86 908.964,1134.01 909.682,1133.15 910.4,1132.3 911.117,1131.45 
  911.835,1130.6 912.553,1129.75 913.27,1128.9 913.988,1128.05 914.706,1127.21 915.424,1126.37 916.141,1125.53 916.859,1124.69 917.577,1123.85 918.295,1123.01 
  919.012,1122.17 919.73,1121.34 920.448,1120.51 921.165,1119.67 921.883,1118.84 922.601,1118.01 923.319,1117.18 924.036,1116.35 924.754,1115.53 925.472,1114.7 
  926.189,1113.87 926.907,1113.05 927.625,1112.22 928.343,1111.4 929.06,1110.57 929.778,1109.75 930.496,1108.93 931.213,1108.11 931.931,1107.29 932.649,1106.47 
  933.367,1105.65 934.084,1104.83 934.802,1104.01 935.52,1103.19 936.238,1102.37 936.955,1101.55 937.673,1100.73 938.391,1099.91 939.108,1099.09 939.826,1098.28 
  940.544,1097.46 941.262,1096.64 941.979,1095.82 942.697,1095.01 943.415,1094.19 944.132,1093.37 944.85,1092.55 945.568,1091.74 946.286,1090.92 947.003,1090.1 
  947.721,1089.28 948.439,1088.47 949.156,1087.65 949.874,1086.83 950.592,1086.01 951.31,1085.2 952.027,1084.38 952.745,1083.56 953.463,1082.74 954.181,1081.92 
  954.898,1081.1 955.616,1080.28 956.334,1079.46 957.051,1078.65 957.769,1077.83 958.487,1077.01 959.205,1076.19 959.922,1075.37 960.64,1074.55 961.358,1073.73 
  962.075,1072.91 962.793,1072.09 963.511,1071.27 964.229,1070.46 964.946,1069.64 965.664,1068.82 966.382,1068 967.099,1067.18 967.817,1066.36 968.535,1065.54 
  969.253,1064.72 969.97,1063.9 970.688,1063.08 971.406,1062.26 972.124,1061.44 972.841,1060.62 973.559,1059.8 974.277,1058.98 974.994,1058.16 975.712,1057.34 
  976.43,1056.51 977.148,1055.69 977.865,1054.87 978.583,1054.05 979.301,1053.23 980.018,1052.4 980.736,1051.58 981.454,1050.76 982.172,1049.94 982.889,1049.11 
  983.607,1048.29 984.325,1047.47 985.042,1046.64 985.76,1045.82 986.478,1044.99 987.196,1044.17 987.913,1043.34 988.631,1042.52 989.349,1041.69 990.066,1040.87 
  990.784,1040.04 991.502,1039.22 992.22,1038.39 992.937,1037.56 993.655,1036.74 994.373,1035.91 995.091,1035.08 995.808,1034.25 996.526,1033.42 997.244,1032.59 
  997.961,1031.76 998.679,1030.93 999.397,1030.1 1000.11,1029.27 1000.83,1028.44 1001.55,1027.6 1002.27,1026.77 1002.99,1025.94 1003.7,1025.1 1004.42,1024.27 
  1005.14,1023.43 1005.86,1022.59 1006.57,1021.75 1007.29,1020.92 1008.01,1020.08 1008.73,1019.24 1009.44,1018.4 1010.16,1017.56 1010.88,1016.71 1011.6,1015.87 
  1012.32,1015.03 1013.03,1014.19 1013.75,1013.34 1014.47,1012.5 1015.19,1011.65 1015.9,1010.8 1016.62,1009.95 1017.34,1009.11 1018.06,1008.26 1018.78,1007.41 
  1019.49,1006.56 1020.21,1005.71 1020.93,1004.85 1021.65,1004 1022.36,1003.15 1023.08,1002.29 1023.8,1001.44 1024.52,1000.58 1025.23,999.724 1025.95,998.867 
  1026.67,998.008 1027.39,997.149 1028.11,996.289 1028.82,995.428 1029.54,994.567 1030.26,993.704 1030.98,992.841 1031.69,991.977 1032.41,991.113 1033.13,990.247 
  1033.85,989.38 1034.56,988.513 1035.28,987.645 1036,986.776 1036.72,985.907 1037.44,985.036 1038.15,984.165 1038.87,983.293 1039.59,982.42 1040.31,981.546 
  1041.02,980.672 1041.74,979.796 1042.46,978.92 1043.18,978.043 1043.89,977.165 1044.61,976.286 1045.33,975.407 1046.05,974.527 1046.77,973.646 1047.48,972.764 
  1048.2,971.881 1048.92,970.997 1049.64,970.113 1050.35,969.228 1051.07,968.342 1051.79,967.455 1052.51,966.567 1053.23,965.678 1053.94,964.789 1054.66,963.899 
  1055.38,963.008 1056.1,962.116 1056.81,961.224 1057.53,960.331 1058.25,959.436 1058.97,958.542 1059.68,957.646 1060.4,956.75 1061.12,955.852 1061.84,954.954 
  1062.56,954.056 1063.27,953.156 1063.99,952.256 1064.71,951.355 1065.43,950.453 1066.14,949.55 1066.86,948.646 1067.58,947.742 1068.3,946.837 1069.01,945.931 
  1069.73,945.025 1070.45,944.117 1071.17,943.209 1071.89,942.3 1072.6,941.391 1073.32,940.48 1074.04,939.569 1074.76,938.657 1075.47,937.745 1076.19,936.831 
  1076.91,935.917 1077.63,935.003 1078.34,934.087 1079.06,933.171 1079.78,932.254 1080.5,931.336 1081.22,930.418 1081.93,929.499 1082.65,928.579 1083.37,927.658 
  1084.09,926.737 1084.8,925.815 1085.52,924.892 1086.24,923.969 1086.96,923.045 1087.67,922.12 1088.39,921.195 1089.11,920.269 1089.83,919.342 1090.55,918.414 
  1091.26,917.486 1091.98,916.558 1092.7,915.628 1093.42,914.698 1094.13,913.767 1094.85,912.836 1095.57,911.904 1096.29,910.972 1097,910.038 1097.72,909.104 
  1098.44,908.17 1099.16,907.235 1099.88,906.299 1100.59,905.362 1101.31,904.425 1102.03,903.487 1102.75,902.548 1103.46,901.609 1104.18,900.669 1104.9,899.728 
  1105.62,898.786 1106.34,897.844 1107.05,896.901 1107.77,895.958 1108.49,895.013 1109.21,894.068 1109.92,893.122 1110.64,892.176 1111.36,891.229 1112.08,890.281 
  1112.79,889.332 1113.51,888.383 1114.23,887.433 1114.95,886.482 1115.67,885.53 1116.38,884.578 1117.1,883.625 1117.82,882.672 1118.54,881.718 1119.25,880.763 
  1119.97,879.807 1120.69,878.851 1121.41,877.894 1122.12,876.936 1122.84,875.977 1123.56,875.018 1124.28,874.058 1125,873.097 1125.71,872.136 1126.43,871.174 
  1127.15,870.211 1127.87,869.248 1128.58,868.284 1129.3,867.319 1130.02,866.353 1130.74,865.387 1131.45,864.42 1132.17,863.452 1132.89,862.484 1133.61,861.515 
  1134.33,860.545 1135.04,859.575 1135.76,858.604 1136.48,857.632 1137.2,856.659 1137.91,855.686 1138.63,854.712 1139.35,853.738 1140.07,852.762 1140.78,851.786 
  1141.5,850.809 1142.22,849.832 1142.94,848.854 1143.66,847.875 1144.37,846.895 1145.09,845.915 1145.81,844.934 1146.53,843.953 1147.24,842.97 1147.96,841.987 
  1148.68,841.003 1149.4,840.019 1150.11,839.034 1150.83,838.048 1151.55,837.061 1152.27,836.074 1152.99,835.086 1153.7,834.098 1154.42,833.109 1155.14,832.119 
  1155.86,831.129 1156.57,830.138 1157.29,829.146 1158.01,828.153 1158.73,827.16 1159.44,826.167 1160.16,825.172 1160.88,824.178 1161.6,823.182 1162.32,822.186 
  1163.03,821.189 1163.75,820.191 1164.47,819.193 1165.19,818.194 1165.9,817.194 1166.62,816.194 1167.34,815.193 1168.06,814.192 1168.77,813.19 1169.49,812.187 
  1170.21,811.183 1170.93,810.179 1171.65,809.174 1172.36,808.169 1173.08,807.163 1173.8,806.156 1174.52,805.149 1175.23,804.141 1175.95,803.133 1176.67,802.124 
  1177.39,801.115 1178.1,800.105 1178.82,799.096 1179.54,798.086 1180.26,797.077 1180.98,796.068 1181.69,795.06 1182.41,794.052 1183.13,793.046 1183.85,792.04 
  1184.56,791.037 1185.28,790.035 1186,789.035 1186.72,788.038 1187.43,787.044 1188.15,786.052 1188.87,785.064 1189.59,784.08 1190.31,783.1 1191.02,782.124 
  1191.74,781.153 1192.46,780.187 1193.18,779.226 1193.89,778.271 1194.61,777.321 1195.33,776.378 1196.05,775.441 1196.76,774.51 1197.48,773.585 1198.2,772.668 
  1198.92,771.757 1199.64,770.854 1200.35,769.957 1201.07,769.068 1201.79,768.186 1202.51,767.311 1203.22,766.444 1203.94,765.585 1204.66,764.733 1205.38,763.889 
  1206.09,763.052 1206.81,762.224 1207.53,761.404 1208.25,760.591 1208.96,759.787 1209.68,758.991 1210.4,758.203 1211.12,757.423 1211.84,756.651 1212.55,755.888 
  1213.27,755.133 1213.99,754.386 1214.71,753.648 1215.42,752.918 1216.14,752.197 1216.86,751.484 1217.58,750.779 1218.29,750.083 1219.01,749.396 1219.73,748.717 
  1220.45,748.046 1221.17,747.385 1221.88,746.732 1222.6,746.087 1223.32,745.451 1224.04,744.824 1224.75,744.206 1225.47,743.596 1226.19,742.995 1226.91,742.403 
  1227.62,741.819 1228.34,741.244 1229.06,740.678 1229.78,740.12 1230.5,739.572 1231.21,739.032 1231.93,738.501 1232.65,737.978 1233.37,737.465 1234.08,736.96 
  1234.8,736.464 1235.52,735.977 1236.24,735.499 1236.95,735.029 1237.67,734.569 1238.39,734.117 1239.11,733.674 1239.83,733.239 1240.54,732.814 1241.26,732.397 
  1241.98,731.989 1242.7,731.589 1243.41,731.198 1244.13,730.815 1244.85,730.44 1245.57,730.073 1246.28,729.714 1247,729.362 1247.72,729.018 1248.44,728.681 
  1249.16,728.351 1249.87,728.027 1250.59,727.709 1251.31,727.398 1252.03,727.092 1252.74,726.792 1253.46,726.497 1254.18,726.206 1254.9,725.92 1255.61,725.638 
  1256.33,725.361 1257.05,725.086 1257.77,724.816 1258.49,724.548 1259.2,724.283 1259.92,724.021 1260.64,723.761 1261.36,723.503 1262.07,723.247 1262.79,722.993 
  1263.51,722.74 1264.23,722.489 1264.94,722.24 1265.66,721.991 1266.38,721.744 1267.1,721.498 1267.82,721.253 1268.53,721.009 1269.25,720.767 1269.97,720.525 
  1270.69,720.285 1271.4,720.045 1272.12,719.807 1272.84,719.569 1273.56,719.332 1274.27,719.097 1274.99,718.862 1275.71,718.628 1276.43,718.395 1277.14,718.162 
  1277.86,717.93 1278.58,717.698 1279.3,717.467 1280.02,717.236 1280.73,717.006 1281.45,716.775 1282.17,716.545 1282.89,716.315 1283.6,716.084 1284.32,715.854 
  1285.04,715.624 1285.76,715.394 1286.47,715.164 1287.19,714.933 1287.91,714.703 1288.63,714.472 1289.35,714.241 1290.06,714.01 1290.78,713.778 1291.5,713.546 
  1292.22,713.314 1292.93,713.082 1293.65,712.849 1294.37,712.616 1295.09,712.382 1295.8,712.148 1296.52,711.914 1297.24,711.679 1297.96,711.443 1298.68,711.207 
  1299.39,710.971 1300.11,710.734 1300.83,710.497 1301.55,710.259 1302.26,710.021 1302.98,709.782 1303.7,709.542 1304.42,709.302 1305.13,709.062 1305.85,708.821 
  1306.57,708.579 1307.29,708.337 1308.01,708.094 1308.72,707.851 1309.44,707.607 1310.16,707.362 1310.88,707.117 1311.59,706.871 1312.31,706.625 1313.03,706.378 
  1313.75,706.13 1314.46,705.882 1315.18,705.633 1315.9,705.384 1316.62,705.134 1317.33,704.883 1318.05,704.632 1318.77,704.381 1319.49,704.128 1320.21,703.875 
  1320.92,703.622 1321.64,703.367 1322.36,703.113 1323.08,702.857 1323.79,702.601 1324.51,702.345 1325.23,702.088 1325.95,701.83 1326.66,701.572 1327.38,701.314 
  1328.1,701.055 1328.82,700.796 1329.54,700.536 1330.25,700.277 1330.97,700.016 1331.69,699.756 1332.41,699.495 1333.12,699.235 1333.84,698.973 1334.56,698.712 
  1335.28,698.451 1335.99,698.189 1336.71,697.928 1337.43,697.666 1338.15,697.404 1338.87,697.142 1339.58,696.88 1340.3,696.617 1341.02,696.355 1341.74,696.093 
  1342.45,695.83 1343.17,695.568 1343.89,695.305 1344.61,695.043 1345.32,694.78 1346.04,694.518 1346.76,694.255 1347.48,693.992 1348.2,693.73 1348.91,693.467 
  1349.63,693.204 1350.35,692.942 1351.07,692.679 1351.78,692.416 1352.5,692.153 1353.22,691.89 1353.94,691.627 1354.65,691.364 1355.37,691.101 1356.09,690.837 
  1356.81,690.574 1357.53,690.311 1358.24,690.048 1358.96,689.784 1359.68,689.521 1360.4,689.257 1361.11,688.994 1361.83,688.731 1362.55,688.467 1363.27,688.204 
  1363.98,687.94 1364.7,687.677 1365.42,687.414 1366.14,687.151 1366.85,686.888 1367.57,686.625 1368.29,686.362 1369.01,686.099 1369.73,685.837 1370.44,685.574 
  1371.16,685.312 1371.88,685.05 1372.6,684.788 1373.31,684.527 1374.03,684.266 1374.75,684.005 1375.47,683.744 1376.18,683.483 1376.9,683.223 1377.62,682.963 
  1378.34,682.703 1379.06,682.444 1379.77,682.185 1380.49,681.926 1381.21,681.667 1381.93,681.409 1382.64,681.151 1383.36,680.893 1384.08,680.635 1384.8,680.378 
  1385.51,680.121 1386.23,679.864 1386.95,679.607 1387.67,679.351 1388.39,679.095 1389.1,678.839 1389.82,678.584 1390.54,678.329 1391.26,678.074 1391.97,677.819 
  1392.69,677.565 1393.41,677.31 1394.13,677.056 1394.84,676.803 1395.56,676.549 1396.28,676.296 1397,676.044 1397.72,675.791 1398.43,675.539 1399.15,675.288 
  1399.87,675.036 1400.59,674.785 1401.3,674.535 1402.02,674.285 1402.74,674.035 1403.46,673.786 1404.17,673.537 1404.89,673.289 1405.61,673.041 1406.33,672.794 
  1407.05,672.548 1407.76,672.302 1408.48,672.056 1409.2,671.811 1409.92,671.567 1410.63,671.323 1411.35,671.08 1412.07,670.838 1412.79,670.596 1413.5,670.355 
  1414.22,670.115 1414.94,669.875 1415.66,669.636 1416.38,669.398 1417.09,669.161 1417.81,668.924 1418.53,668.688 1419.25,668.453 1419.96,668.219 1420.68,667.985 
  1421.4,667.752 1422.12,667.521 1422.83,667.29 1423.55,667.06 1424.27,666.832 1424.99,666.604 1425.71,666.378 1426.42,666.154 1427.14,665.932 1427.86,665.711 
  1428.58,665.493 1429.29,665.276 1430.01,665.063 1430.73,664.852 1431.45,664.644 1432.17,664.44 1432.88,664.239 1433.6,664.042 1434.32,663.85 1435.04,663.661 
  1435.75,663.478 1436.47,663.3 1437.19,663.127 1437.91,662.96 1438.62,662.799 1439.34,662.645 1440.06,662.497 1440.78,662.357 1441.5,662.224 1442.21,662.099 
  1442.93,661.982 1443.65,661.873 1444.37,661.773 1445.08,661.682 1445.8,661.6 1446.52,661.528 1447.24,661.465 1447.95,661.412 1448.67,661.37 1449.39,661.338 
  1450.11,661.316 1450.83,661.305 1451.54,661.304 1452.26,661.315 1452.98,661.336 1453.7,661.369 1454.41,661.413 1455.13,661.468 1455.85,661.535 1456.57,661.614 
  1457.28,661.704 1458,661.806 1458.72,661.919 1459.44,662.045 1460.16,662.182 1460.87,662.332 1461.59,662.493 1462.31,662.667 1463.03,662.852 1463.74,663.05 
  1464.46,663.26 1465.18,663.483 1465.9,663.717 1466.61,663.964 1467.33,664.223 1468.05,664.494 1468.77,664.778 1469.49,665.074 1470.2,665.382 1470.92,665.702 
  1471.64,666.034 1472.36,666.379 1473.07,666.735 1473.79,667.103 1474.51,667.483 1475.23,667.875 1475.95,668.278 1476.66,668.693 1477.38,669.118 1478.1,669.555 
  1478.82,670.003 1479.53,670.462 1480.25,670.931 1480.97,671.411 1481.69,671.9 1482.4,672.399 1483.12,672.908 1483.84,673.427 1484.56,673.954 1485.28,674.491 
  1485.99,675.036 1486.71,675.589 1487.43,676.15 1488.15,676.718 1488.86,677.294 1489.58,677.878 1490.3,678.467 1491.02,679.064 1491.73,679.666 1492.45,680.274 
  1493.17,680.887 1493.89,681.506 1494.61,682.129 1495.32,682.756 1496.04,683.388 1496.76,684.023 1497.48,684.662 1498.19,685.304 1498.91,685.949 1499.63,686.597 
  1500.35,687.247 1501.06,687.899 1501.78,688.554 1502.5,689.21 1503.22,689.868 1503.94,690.527 1504.65,691.188 1505.37,691.85 1506.09,692.513 1506.81,693.177 
  1507.52,693.842 1508.24,694.508 1508.96,695.174 1509.68,695.841 1510.4,696.508 1511.11,697.176 1511.83,697.844 1512.55,698.512 1513.27,699.181 1513.98,699.849 
  1514.7,700.518 1515.42,701.187 1516.14,701.855 1516.85,702.524 1517.57,703.192 1518.29,703.86 1519.01,704.528 1519.73,705.196 1520.44,705.863 1521.16,706.531 
  1521.88,707.197 1522.6,707.863 1523.31,708.529 1524.03,709.195 1524.75,709.859 1525.47,710.524 1526.18,711.187 1526.9,711.851 1527.62,712.513 1528.34,713.176 
  1529.06,713.837 1529.77,714.498 1530.49,715.158 1531.21,715.817 1531.93,716.476 1532.64,717.134 1533.36,717.791 1534.08,718.448 1534.8,719.104 1535.51,719.759 
  1536.23,720.414 1536.95,721.068 1537.67,721.72 1538.39,722.373 1539.1,723.024 1539.82,723.675 1540.54,724.325 1541.26,724.974 1541.97,725.622 1542.69,726.269 
  1543.41,726.916 1544.13,727.562 1544.85,728.207 1545.56,728.851 1546.28,729.494 1547,730.137 1547.72,730.778 1548.43,731.419 1549.15,732.059 1549.87,732.698 
  1550.59,733.336 1551.3,733.974 1552.02,734.61 1552.74,735.246 1553.46,735.881 1554.18,736.515 1554.89,737.148 1555.61,737.78 1556.33,738.412 1557.05,739.042 
  1557.76,739.672 1558.48,740.301 1559.2,740.929 1559.92,741.556 1560.63,742.183 1561.35,742.809 1562.07,743.434 1562.79,744.059 1563.51,744.683 1564.22,745.307 
  1564.94,745.93 1565.66,746.552 1566.38,747.175 1567.09,747.797 1567.81,748.419 1568.53,749.041 1569.25,749.664 1569.96,750.286 1570.68,750.908 1571.4,751.531 
  1572.12,752.154 1572.84,752.778 1573.55,753.402 1574.27,754.026 1574.99,754.651 1575.71,755.276 1576.42,755.902 1577.14,756.529 1577.86,757.156 1578.58,757.784 
  1579.29,758.412 1580.01,759.041 1580.73,759.671 1581.45,760.301 1582.17,760.932 1582.88,761.563 1583.6,762.195 1584.32,762.828 1585.04,763.461 1585.75,764.094 
  1586.47,764.728 1587.19,765.363 1587.91,765.998 1588.62,766.633 1589.34,767.269 1590.06,767.905 1590.78,768.542 1591.5,769.179 1592.21,769.816 1592.93,770.454 
  1593.65,771.091 1594.37,771.73 1595.08,772.368 1595.8,773.006 1596.52,773.645 1597.24,774.283 1597.96,774.922 1598.67,775.561 1599.39,776.2 1600.11,776.838 
  1600.83,777.477 1601.54,778.116 1602.26,778.755 1602.98,779.393 1603.7,780.032 1604.41,780.67 1605.13,781.308 1605.85,781.946 1606.57,782.584 1607.29,783.221 
  1608,783.859 1608.72,784.496 1609.44,785.132 1610.16,785.768 1610.87,786.404 1611.59,787.04 1612.31,787.675 1613.03,788.309 1613.74,788.943 1614.46,789.576 
  1615.18,790.209 1615.9,790.841 1616.62,791.473 1617.33,792.104 1618.05,792.735 1618.77,793.364 1619.49,793.994 1620.2,794.622 1620.92,795.25 1621.64,795.877 
  1622.36,796.504 1623.07,797.129 1623.79,797.755 1624.51,798.379 1625.23,799.002 1625.95,799.625 1626.66,800.247 1627.38,800.869 1628.1,801.489 1628.82,802.108 
  1629.53,802.727 1630.25,803.345 1630.97,803.962 1631.69,804.579 1632.41,805.194 1633.12,805.809 1633.84,806.423 1634.56,807.036 1635.28,807.648 1635.99,808.259 
  1636.71,808.87 1637.43,809.48 1638.15,810.089 1638.86,810.697 1639.58,811.304 1640.3,811.911 1641.02,812.517 1641.74,813.123 1642.45,813.727 1643.17,814.331 
  1643.89,814.934 1644.61,815.536 1645.32,816.137 1646.04,816.738 1646.76,817.338 1647.48,817.938 1648.19,818.536 1648.91,819.135 1649.63,819.732 1650.35,820.329 
  1651.07,820.925 1651.78,821.52 1652.5,822.115 1653.22,822.71 1653.94,823.303 1654.65,823.896 1655.37,824.489 1656.09,825.081 1656.81,825.672 1657.52,826.263 
  1658.24,826.853 1658.96,827.443 1659.68,828.032 1660.4,828.621 1661.11,829.208 1661.83,829.796 1662.55,830.383 1663.27,830.969 1663.98,831.554 1664.7,832.139 
  1665.42,832.723 1666.14,833.307 1666.85,833.89 1667.57,834.473 1668.29,835.054 1669.01,835.636 1669.73,836.216 1670.44,836.796 1671.16,837.375 1671.88,837.953 
  1672.6,838.531 1673.31,839.108 1674.03,839.684 1674.75,840.259 1675.47,840.834 1676.18,841.408 1676.9,841.981 1677.62,842.554 1678.34,843.126 1679.06,843.697 
  1679.77,844.267 1680.49,844.837 1681.21,845.406 1681.93,845.974 1682.64,846.541 1683.36,847.108 1684.08,847.673 1684.8,848.238 1685.51,848.803 1686.23,849.366 
  1686.95,849.929 1687.67,850.491 1688.39,851.052 1689.1,851.612 1689.82,852.171 1690.54,852.73 1691.26,853.288 1691.97,853.845 1692.69,854.401 1693.41,854.957 
  1694.13,855.512 1694.85,856.066 1695.56,856.619 1696.28,857.172 1697,857.723 1697.72,858.275 1698.43,858.825 1699.15,859.375 1699.87,859.924 1700.59,860.472 
  1701.3,861.019 1702.02,861.566 1702.74,862.112 1703.46,862.657 1704.18,863.202 1704.89,863.745 1705.61,864.288 1706.33,864.831 1707.05,865.372 1707.76,865.913 
  1708.48,866.453 1709.2,866.992 1709.92,867.53 1710.63,868.068 1711.35,868.605 1712.07,869.141 1712.79,869.676 1713.51,870.211 1714.22,870.745 1714.94,871.278 
  1715.66,871.81 1716.38,872.341 1717.09,872.872 1717.81,873.402 1718.53,873.931 1719.25,874.459 1719.96,874.986 1720.68,875.513 1721.4,876.038 1722.12,876.564 
  1722.84,877.088 1723.55,877.611 1724.27,878.134 1724.99,878.656 1725.71,879.177 1726.42,879.697 1727.14,880.216 1727.86,880.735 1728.58,881.253 1729.29,881.77 
  1730.01,882.286 1730.73,882.801 1731.45,883.316 1732.17,883.829 1732.88,884.342 1733.6,884.854 1734.32,885.365 1735.04,885.876 1735.75,886.385 1736.47,886.894 
  1737.19,887.402 1737.91,887.91 1738.62,888.416 1739.34,888.921 1740.06,889.426 1740.78,889.93 1741.5,890.433 1742.21,890.935 1742.93,891.437 1743.65,891.937 
  1744.37,892.437 1745.08,892.936 1745.8,893.434 1746.52,893.931 1747.24,894.428 1747.95,894.923 1748.67,895.418 1749.39,895.912 1750.11,896.405 1750.83,896.897 
  1751.54,897.388 1752.26,897.879 1752.98,898.369 1753.7,898.857 1754.41,899.345 1755.13,899.833 1755.85,900.319 1756.57,900.805 1757.28,901.29 1758,901.774 
  1758.72,902.257 1759.44,902.739 1760.15,903.221 1760.87,903.701 1761.59,904.181 1762.31,904.66 1763.03,905.138 1763.74,905.615 1764.46,906.092 1765.18,906.568 
  1765.9,907.042 1766.61,907.516 1767.33,907.99 1768.05,908.462 1768.77,908.934 1769.48,909.404 1770.2,909.874 1770.92,910.343 1771.64,910.812 1772.36,911.279 
  1773.07,911.746 1773.79,912.212 1774.51,912.677 1775.23,913.141 1775.94,913.605 1776.66,914.067 1777.38,914.529 1778.1,914.99 1778.81,915.451 1779.53,915.91 
  1780.25,916.369 1780.97,916.827 1781.69,917.284 1782.4,917.74 1783.12,918.195 1783.84,918.65 1784.56,919.104 1785.27,919.557 1785.99,920.009 1786.71,920.46 
  1787.43,920.911 1788.14,921.361 1788.86,921.81 1789.58,922.258 1790.3,922.706 1791.02,923.152 1791.73,923.598 1792.45,924.043 1793.17,924.488 1793.89,924.931 
  1794.6,925.374 1795.32,925.816 1796.04,926.257 1796.76,926.698 1797.47,927.137 1798.19,927.576 1798.91,928.014 1799.63,928.452 1800.35,928.888 1801.06,929.324 
  1801.78,929.76 1802.5,930.194 1803.22,930.627 1803.93,931.06 1804.65,931.492 1805.37,931.924 1806.09,932.354 1806.8,932.784 1807.52,933.213 1808.24,933.641 
  1808.96,934.069 1809.68,934.496 1810.39,934.922 1811.11,935.347 1811.83,935.771 1812.55,936.195 1813.26,936.617 1813.98,937.039 1814.7,937.461 1815.42,937.881 
  1816.13,938.301 1816.85,938.72 1817.57,939.138 1818.29,939.556 1819.01,939.973 1819.72,940.389 1820.44,940.804 1821.16,941.218 1821.88,941.632 1822.59,942.045 
  1823.31,942.457 1824.03,942.869 1824.75,943.279 1825.46,943.689 1826.18,944.098 1826.9,944.507 1827.62,944.914 1828.33,945.321 1829.05,945.727 1829.77,946.132 
  1830.49,946.537 1831.21,946.94 1831.92,947.343 1832.64,947.746 1833.36,948.147 1834.08,948.548 1834.79,948.947 1835.51,949.347 1836.23,949.745 1836.95,950.143 
  1837.66,950.54 1838.38,950.936 1839.1,951.331 1839.82,951.726 1840.54,952.119 1841.25,952.512 1841.97,952.905 1842.69,953.296 1843.41,953.687 1844.12,954.077 
  1844.84,954.466 1845.56,954.855 1846.28,955.242 1846.99,955.629 1847.71,956.015 1848.43,956.401 1849.15,956.785 1849.87,957.169 1850.58,957.553 1851.3,957.935 
  1852.02,958.317 1852.74,958.698 1853.45,959.078 1854.17,959.458 1854.89,959.836 1855.61,960.214 1856.32,960.591 1857.04,960.968 1857.76,961.344 1858.48,961.719 
  1859.2,962.093 1859.91,962.466 1860.63,962.839 1861.35,963.211 1862.07,963.582 1862.78,963.953 1863.5,964.323 1864.22,964.692 1864.94,965.06 1865.65,965.428 
  1866.37,965.795 1867.09,966.161 1867.81,966.527 1868.53,966.891 1869.24,967.255 1869.96,967.618 1870.68,967.981 1871.4,968.343 1872.11,968.704 1872.83,969.064 
  1873.55,969.423 1874.27,969.782 1874.98,970.14 1875.7,970.497 1876.42,970.853 1877.14,971.209 1877.85,971.563 1878.57,971.917 1879.29,972.27 1880.01,972.623 
  1880.73,972.975 1881.44,973.326 1882.16,973.676 1882.88,974.025 1883.6,974.374 1884.31,974.722 1885.03,975.069 1885.75,975.416 1886.47,975.762 1887.18,976.107 
  1887.9,976.451 1888.62,976.794 1889.34,977.137 1890.06,977.479 1890.77,977.82 1891.49,978.161 1892.21,978.5 1892.93,978.839 1893.64,979.177 1894.36,979.515 
  1895.08,979.851 1895.8,980.187 1896.51,980.522 1897.23,980.857 1897.95,981.19 1898.67,981.523 1899.39,981.855 1900.1,982.187 1900.82,982.517 1901.54,982.847 
  1902.26,983.176 1902.97,983.505 1903.69,983.832 1904.41,984.159 1905.13,984.486 1905.84,984.811 1906.56,985.136 1907.28,985.46 1908,985.783 1908.71,986.105 
  1909.43,986.427 1910.15,986.748 1910.87,987.068 1911.59,987.387 1912.3,987.706 1913.02,988.024 1913.74,988.341 1914.46,988.658 1915.17,988.973 1915.89,989.288 
  1916.61,989.603 1917.33,989.916 1918.04,990.229 1918.76,990.541 1919.48,990.852 1920.2,991.163 1920.92,991.473 1921.63,991.783 1922.35,992.092 1923.07,992.4 
  1923.79,992.707 1924.5,993.014 1925.22,993.32 1925.94,993.626 1926.66,993.931 1927.37,994.236 1928.09,994.539 1928.81,994.843 1929.53,995.145 1930.25,995.447 
  1930.96,995.749 1931.68,996.049 1932.4,996.349 1933.12,996.649 1933.83,996.947 1934.55,997.246 1935.27,997.543 1935.99,997.84 1936.7,998.136 1937.42,998.432 
  1938.14,998.727 1938.86,999.022 1939.58,999.316 1940.29,999.61 1941.01,999.902 1941.73,1000.19 1942.45,1000.49 1943.16,1000.78 1943.88,1001.07 1944.6,1001.36 
  1945.32,1001.65 1946.03,1001.94 1946.75,1002.23 1947.47,1002.51 1948.19,1002.8 1948.9,1003.09 1949.62,1003.38 1950.34,1003.66 1951.06,1003.95 1951.78,1004.23 
  1952.49,1004.52 1953.21,1004.81 1953.93,1005.09 1954.65,1005.38 1955.36,1005.66 1956.08,1005.95 1956.8,1006.23 1957.52,1006.52 1958.23,1006.81 1958.95,1007.09 
  1959.67,1007.38 1960.39,1007.67 1961.11,1007.95 1961.82,1008.24 1962.54,1008.52 1963.26,1008.81 1963.98,1009.1 1964.69,1009.38 1965.41,1009.66 1966.13,1009.95 
  1966.85,1010.23 1967.56,1010.51 1968.28,1010.79 1969,1011.06 1969.72,1011.34 1970.44,1011.61 1971.15,1011.88 1971.87,1012.14 1972.59,1012.4 1973.31,1012.66 
  1974.02,1012.92 1974.74,1013.17 1975.46,1013.41 1976.18,1013.66 1976.89,1013.89 1977.61,1014.12 1978.33,1014.35 1979.05,1014.57 1979.77,1014.79 1980.48,1015 
  1981.2,1015.2 1981.92,1015.4 1982.64,1015.59 1983.35,1015.78 1984.07,1015.96 1984.79,1016.13 1985.51,1016.3 1986.22,1016.46 1986.94,1016.61 1987.66,1016.75 
  1988.38,1016.89 1989.1,1017.02 1989.81,1017.15 1990.53,1017.26 1991.25,1017.37 1991.97,1017.47 1992.68,1017.56 1993.4,1017.65 1994.12,1017.73 1994.84,1017.8 
  1995.55,1017.86 1996.27,1017.91 1996.99,1017.96 1997.71,1018 1998.43,1018.03 1999.14,1018.05 1999.86,1018.07 2000.58,1018.08 2001.3,1018.08 2002.01,1018.07 
  2002.73,1018.05 2003.45,1018.03 2004.17,1018 2004.88,1017.96 2005.6,1017.92 2006.32,1017.87 2007.04,1017.81 2007.76,1017.74 2008.47,1017.67 2009.19,1017.59 
  2009.91,1017.5 2010.63,1017.4 2011.34,1017.3 2012.06,1017.19 2012.78,1017.07 2013.5,1016.95 2014.22,1016.82 2014.93,1016.68 2015.65,1016.54 2016.37,1016.39 
  2017.09,1016.23 2017.8,1016.07 2018.52,1015.9 2019.24,1015.72 2019.96,1015.53 2020.67,1015.34 2021.39,1015.14 2022.11,1014.94 2022.83,1014.72 2023.55,1014.51 
  2024.26,1014.28 2024.98,1014.05 2025.7,1013.81 2026.42,1013.56 2027.13,1013.31 2027.85,1013.05 2028.57,1012.78 2029.29,1012.51 2030.01,1012.24 2030.72,1011.95 
  2031.44,1011.66 2032.16,1011.37 2032.88,1011.07 2033.59,1010.76 2034.31,1010.45 2035.03,1010.13 2035.75,1009.81 2036.46,1009.49 2037.18,1009.16 2037.9,1008.83 
  2038.62,1008.49 2039.34,1008.15 2040.05,1007.8 2040.77,1007.46 2041.49,1007.11 2042.21,1006.76 2042.92,1006.4 2043.64,1006.05 2044.36,1005.69 2045.08,1005.33 
  2045.8,1004.97 2046.51,1004.6 2047.23,1004.24 2047.95,1003.88 2048.67,1003.51 2049.38,1003.15 2050.1,1002.78 2050.82,1002.41 2051.54,1002.05 2052.25,1001.68 
  2052.97,1001.31 2053.69,1000.95 2054.41,1000.58 2055.13,1000.21 2055.84,999.841 2056.56,999.472 2057.28,999.104 2058,998.736 2058.71,998.368 2059.43,998.001 
  2060.15,997.633 2060.87,997.266 2061.59,996.9 2062.3,996.534 2063.02,996.169 2063.74,995.804 2064.46,995.44 2065.17,995.076 2065.89,994.714 2066.61,994.351 
  2067.33,993.99 2068.05,993.63 2068.76,993.27 2069.48,992.91 2070.2,992.552 2070.92,992.194 2071.63,991.836 2072.35,991.48 2073.07,991.124 2073.79,990.768 
  2074.51,990.412 2075.22,990.057 2075.94,989.702 2076.66,989.348 2077.38,988.993 2078.09,988.639 2078.81,988.284 2079.53,987.93 2080.25,987.575 2080.96,987.22 
  2081.68,986.865 2082.4,986.51 2083.12,986.154 2083.84,985.797 2084.55,985.441 2085.27,985.083 2085.99,984.725 2086.71,984.366 2087.42,984.006 2088.14,983.646 
  2088.86,983.284 2089.58,982.922 2090.3,982.558 2091.01,982.193 2091.73,981.828 2092.45,981.46 2093.17,981.092 2093.88,980.723 2094.6,980.352 2095.32,979.979 
  2096.04,979.606 2096.76,979.231 2097.47,978.854 2098.19,978.476 2098.91,978.097 2099.63,977.716 2100.34,977.333 2101.06,976.949 2101.78,976.563 2102.5,976.176 
  2103.21,975.787 2103.93,975.396 2104.65,975.004 2105.37,974.61 2106.09,974.215 2106.8,973.817 2107.52,973.419 2108.24,973.018 2108.96,972.616 2109.67,972.212 
  2110.39,971.806 2111.11,971.399 2111.83,970.99 2112.55,970.58 2113.26,970.168 2113.98,969.754 2114.7,969.338 2115.42,968.921 2116.13,968.502 2116.85,968.082 
  2117.57,967.66 2118.29,967.236 2119.01,966.81 2119.72,966.383 2120.44,965.955 2121.16,965.524 2121.88,965.092 2122.59,964.659 2123.31,964.224 2124.03,963.787 
  2124.75,963.349 2125.46,962.909 2126.18,962.467 2126.9,962.024 2127.62,961.58 2128.34,961.134 2129.05,960.686 2129.77,960.237 2130.49,959.786 2131.21,959.334 
  2131.92,958.881 2132.64,958.426 2133.36,957.969 2134.08,957.511 2134.8,957.052 2135.51,956.591 2136.23,956.129 2136.95,955.666 2137.67,955.201 2138.38,954.735 
  2139.1,954.267 2139.82,953.798 2140.54,953.328 2141.25,952.856 2141.97,952.383 2142.69,951.908 2143.41,951.433 2144.13,950.955 2144.84,950.477 2145.56,949.997 
  2146.28,949.516 2147,949.034 2147.71,948.55 2148.43,948.065 2149.15,947.579 2149.87,947.092 2150.58,946.603 2151.3,946.113 2152.02,945.622 2152.74,945.13 
  2153.46,944.637 2154.17,944.142 2154.89,943.647 2155.61,943.15 2156.33,942.653 2157.04,942.154 2157.76,941.655 2158.48,941.155 2159.2,940.654 2159.92,940.152 
  2160.63,939.649 2161.35,939.145 2162.07,938.64 2162.79,938.135 2163.5,937.629 2164.22,937.122 2164.94,936.615 2165.66,936.107 2166.37,935.598 2167.09,935.088 
  2167.81,934.578 2168.53,934.067 2169.25,933.555 2169.96,933.042 2170.68,932.529 2171.4,932.016 2172.12,931.501 2172.83,930.986 2173.55,930.47 2174.27,929.953 
  2174.99,929.436 2175.71,928.918 2176.42,928.4 2177.14,927.88 2177.86,927.36 2178.58,926.839 2179.29,926.318 2180.01,925.795 2180.73,925.272 2181.45,924.749 
  2182.16,924.224 2182.88,923.699 2183.6,923.173 2184.32,922.646 2185.04,922.119 2185.75,921.59 2186.47,921.061 2187.19,920.532 2187.91,920.001 2188.62,919.47 
  2189.34,918.938 2190.06,918.405 2190.78,917.871 2191.49,917.337 2192.21,916.802 2192.93,916.266 2193.65,915.729 2194.37,915.192 2195.08,914.654 2195.8,914.115 
  2196.52,913.575 2197.24,913.035 2197.95,912.493 2198.67,911.951 2199.39,911.409 2200.11,910.866 2200.82,910.322 2201.54,909.777 2202.26,909.231 2202.98,908.685 
  2203.7,908.138 2204.41,907.591 2205.13,907.043 2205.85,906.494 2206.57,905.944 2207.28,905.394 2208,904.843 2208.72,904.292 2209.44,903.74 2210.16,903.187 
  2210.87,902.633 2211.59,902.079 2212.31,901.524 2213.03,900.969 2213.74,900.413 2214.46,899.856 2215.18,899.298 2215.9,898.74 2216.61,898.182 2217.33,897.622 
  2218.05,897.062 2218.77,896.501 2219.49,895.94 2220.2,895.378 2220.92,894.816 2221.64,894.252 2222.36,893.689 2223.07,893.124 2223.79,892.559 2224.51,891.994 
  2225.23,891.427 2225.94,890.861 2226.66,890.293 2227.38,889.725 2228.1,889.157 2228.82,888.588 2229.53,888.018 2230.25,887.447 2230.97,886.877 2231.69,886.305 
  2232.4,885.733 2233.12,885.16 2233.84,884.587 2234.56,884.014 2235.28,883.439 2235.99,882.864 2236.71,882.289 2237.43,881.713 2238.15,881.137 2238.86,880.559 
  2239.58,879.982 2240.3,879.404 2241.02,878.825 2241.73,878.246 2242.45,877.666 2243.17,877.086 2243.89,876.505 2244.61,875.923 2245.32,875.341 2246.04,874.759 
  2246.76,874.176 2247.48,873.593 2248.19,873.009 2248.91,872.425 2249.63,871.84 2250.35,871.254 2251.06,870.669 2251.78,870.082 2252.5,869.496 2253.22,868.909 
  2253.94,868.321 2254.65,867.733 2255.37,867.145 2256.09,866.556 2256.81,865.966 2257.52,865.377 2258.24,864.786 2258.96,864.196 2259.68,863.605 2260.39,863.013 
  2261.11,862.421 2261.83,861.829 2262.55,861.236 2263.27,860.643 2263.98,860.049 2264.7,859.455 2265.42,858.861 2266.14,858.266 2266.85,857.671 2267.57,857.075 
  2268.29,856.479 2269.01,855.883 2269.72,855.286 2270.44,854.688 2271.16,854.091 2271.88,853.492 2272.6,852.894 2273.31,852.295 2274.03,851.695 2274.75,851.096 
  2275.47,850.495 2276.18,849.895 2276.9,849.294 2277.62,848.692 2278.34,848.09 2279.06,847.488 2279.77,846.885 2280.49,846.282 2281.21,845.678 2281.93,845.074 
  2282.64,844.47 2283.36,843.865 2284.08,843.26 2284.8,842.654 2285.51,842.048 2286.23,841.442 2286.95,840.835 2287.67,840.228 2288.39,839.62 2289.1,839.012 
  2289.82,838.404 2290.54,837.795 2291.26,837.186 2291.97,836.577 
  "/>
<polyline clip-path="url(#clip132)" style="stroke:#e26f46; stroke-linecap:butt; stroke-linejoin:round; stroke-width:4; stroke-opacity:1; fill:none" points="
  284.057,1372.39 302.737,1372.04 321.417,1370.1 340.096,1365 358.776,1368.69 377.456,1365.53 396.136,1369.4 414.816,1364.65 433.496,1367.47 452.175,1362.19 
  470.855,1363.77 489.535,1367.28 508.215,1365.36 526.895,1366.23 545.574,1365.18 564.254,1369.93 582.934,1369.05 601.614,1367.99 620.293,1370.29 638.973,1367.81 
  657.653,1366.06 676.333,1365.36 695.013,1347.58 713.692,1311.15 732.372,1274.18 751.052,1237.38 769.732,1194.22 788.412,1159.7 807.091,1110.18 825.771,1071.41 
  844.451,1029.8 863.131,985.549 881.81,948.51 900.49,901.935 919.17,858.002 937.85,819.703 956.53,775.388 975.209,731.777 993.889,696.453 1012.57,652.642 
  1031.25,612.885 1049.93,576.122 1068.61,535.457 1087.29,492.496 1105.97,447.037 1124.66,407.769 1143.33,366.893 1162.01,326.536 1180.69,286.005 1199.37,245.275 
  1218.05,207.908 1236.73,182.574 1255.41,166.459 1261.52,166.277 1263.39,171.061 1282.07,166.064 1300.75,165.99 1319.43,165.923 1338.11,169.469 1356.79,164.859 
  1375.47,160.256 1394.15,162.73 1412.83,164.686 1431.51,162.203 1450.19,163.794 1468.87,165.04 1487.55,185.411 1506.23,214.636 1524.91,254.838 1543.59,295.739 
  1562.27,340.874 1580.95,374.506 1599.63,422.454 1618.31,465.079 1636.99,506.821 1655.66,545.359 1674.34,583.716 1693.02,624.188 1711.7,660.588 1730.38,703.164 
  1749.06,757.731 1767.74,796.931 1786.42,839.819 1805.1,875.821 1823.78,923.462 1842.46,960.679 1861.14,1008.82 1879.82,1046.37 1898.5,1084.45 1917.18,1130.09 
  1935.86,1175.2 1954.54,1216.07 1973.22,1258.68 1991.9,1301.64 2010.58,1338.78 2029.26,1357.97 2047.94,1371.17 2066.62,1376.27 2085.3,1376.27 2103.98,1370.1 
  2122.66,1374.33 2141.34,1365.36 2160.02,1368.88 2178.7,1372.39 2197.38,1368.69 2216.06,1372.21 2234.74,1367.64 2253.42,1367.64 2272.1,1376.08 
  "/>
<path clip-path="url(#clip130)" d="
M1510.21 322.316 L2281.17 322.316 L2281.17 166.796 L1510.21 166.796  Z
  " fill="#ffffff" fill-rule="evenodd" fill-opacity="1"/>
<polyline clip-path="url(#clip130)" style="stroke:#000000; stroke-linecap:butt; stroke-linejoin:round; stroke-width:4; stroke-opacity:1; fill:none" points="
  1510.21,322.316 2281.17,322.316 2281.17,166.796 1510.21,166.796 1510.21,322.316 
  "/>
<polyline clip-path="url(#clip130)" style="stroke:#009af9; stroke-linecap:butt; stroke-linejoin:round; stroke-width:4; stroke-opacity:1; fill:none" points="
  1534.07,218.636 1677.25,218.636 
  "/>
<path clip-path="url(#clip130)" d="M1721.62 210.985 L1721.62 214.967 Q1719.81 213.971 1717.98 213.485 Q1716.18 212.976 1714.33 212.976 Q1710.18 212.976 1707.89 215.615 Q1705.6 218.231 1705.6 222.976 Q1705.6 227.721 1707.89 230.36 Q1710.18 232.976 1714.33 232.976 Q1716.18 232.976 1717.98 232.49 Q1719.81 231.981 1721.62 230.985 L1721.62 234.92 Q1719.83 235.754 1717.91 236.17 Q1716.02 236.587 1713.86 236.587 Q1708.01 236.587 1704.56 232.906 Q1701.11 229.226 1701.11 222.976 Q1701.11 216.633 1704.58 212.999 Q1708.08 209.365 1714.14 209.365 Q1716.11 209.365 1717.98 209.782 Q1719.86 210.175 1721.62 210.985 Z" fill="#000000" fill-rule="evenodd" fill-opacity="1" /><path clip-path="url(#clip130)" d="M1740.81 222.883 Q1735.64 222.883 1733.65 224.064 Q1731.66 225.244 1731.66 228.092 Q1731.66 230.36 1733.14 231.703 Q1734.65 233.022 1737.22 233.022 Q1740.76 233.022 1742.89 230.522 Q1745.04 227.999 1745.04 223.832 L1745.04 222.883 L1740.81 222.883 M1749.3 221.124 L1749.3 235.916 L1745.04 235.916 L1745.04 231.981 Q1743.58 234.342 1741.41 235.476 Q1739.23 236.587 1736.08 236.587 Q1732.1 236.587 1729.74 234.365 Q1727.4 232.119 1727.4 228.369 Q1727.4 223.994 1730.32 221.772 Q1733.26 219.55 1739.07 219.55 L1745.04 219.55 L1745.04 219.133 Q1745.04 216.194 1743.1 214.596 Q1741.18 212.976 1737.68 212.976 Q1735.46 212.976 1733.35 213.508 Q1731.25 214.041 1729.3 215.106 L1729.3 211.17 Q1731.64 210.268 1733.84 209.828 Q1736.04 209.365 1738.12 209.365 Q1743.75 209.365 1746.52 212.282 Q1749.3 215.198 1749.3 221.124 Z" fill="#000000" fill-rule="evenodd" fill-opacity="1" /><path clip-path="url(#clip130)" d="M1758.08 199.897 L1762.33 199.897 L1762.33 235.916 L1758.08 235.916 L1758.08 199.897 Z" fill="#000000" fill-rule="evenodd" fill-opacity="1" /><path clip-path="url(#clip130)" d="M1789.9 210.985 L1789.9 214.967 Q1788.1 213.971 1786.27 213.485 Q1784.46 212.976 1782.61 212.976 Q1778.47 212.976 1776.18 215.615 Q1773.89 218.231 1773.89 222.976 Q1773.89 227.721 1776.18 230.36 Q1778.47 232.976 1782.61 232.976 Q1784.46 232.976 1786.27 232.49 Q1788.1 231.981 1789.9 230.985 L1789.9 234.92 Q1788.12 235.754 1786.2 236.17 Q1784.3 236.587 1782.15 236.587 Q1776.29 236.587 1772.84 232.906 Q1769.39 229.226 1769.39 222.976 Q1769.39 216.633 1772.87 212.999 Q1776.36 209.365 1782.43 209.365 Q1784.39 209.365 1786.27 209.782 Q1788.14 210.175 1789.9 210.985 Z" fill="#000000" fill-rule="evenodd" fill-opacity="1" /><path clip-path="url(#clip130)" d="M1796.87 225.684 L1796.87 209.99 L1801.13 209.99 L1801.13 225.522 Q1801.13 229.203 1802.57 231.055 Q1804 232.883 1806.87 232.883 Q1810.32 232.883 1812.31 230.684 Q1814.32 228.485 1814.32 224.689 L1814.32 209.99 L1818.58 209.99 L1818.58 235.916 L1814.32 235.916 L1814.32 231.934 Q1812.77 234.295 1810.71 235.453 Q1808.68 236.587 1805.97 236.587 Q1801.5 236.587 1799.19 233.809 Q1796.87 231.031 1796.87 225.684 M1807.59 209.365 L1807.59 209.365 Z" fill="#000000" fill-rule="evenodd" fill-opacity="1" /><path clip-path="url(#clip130)" d="M1827.36 199.897 L1831.62 199.897 L1831.62 235.916 L1827.36 235.916 L1827.36 199.897 Z" fill="#000000" fill-rule="evenodd" fill-opacity="1" /><path clip-path="url(#clip130)" d="M1852.31 222.883 Q1847.15 222.883 1845.16 224.064 Q1843.17 225.244 1843.17 228.092 Q1843.17 230.36 1844.65 231.703 Q1846.15 233.022 1848.72 233.022 Q1852.26 233.022 1854.39 230.522 Q1856.55 227.999 1856.55 223.832 L1856.55 222.883 L1852.31 222.883 M1860.81 221.124 L1860.81 235.916 L1856.55 235.916 L1856.55 231.981 Q1855.09 234.342 1852.91 235.476 Q1850.74 236.587 1847.59 236.587 Q1843.61 236.587 1841.25 234.365 Q1838.91 232.119 1838.91 228.369 Q1838.91 223.994 1841.82 221.772 Q1844.76 219.55 1850.57 219.55 L1856.55 219.55 L1856.55 219.133 Q1856.55 216.194 1854.6 214.596 Q1852.68 212.976 1849.19 212.976 Q1846.96 212.976 1844.86 213.508 Q1842.75 214.041 1840.81 215.106 L1840.81 211.17 Q1843.14 210.268 1845.34 209.828 Q1847.54 209.365 1849.63 209.365 Q1855.25 209.365 1858.03 212.282 Q1860.81 215.198 1860.81 221.124 Z" fill="#000000" fill-rule="evenodd" fill-opacity="1" /><path clip-path="url(#clip130)" d="M1873.79 202.629 L1873.79 209.99 L1882.57 209.99 L1882.57 213.3 L1873.79 213.3 L1873.79 227.374 Q1873.79 230.545 1874.65 231.448 Q1875.53 232.351 1878.19 232.351 L1882.57 232.351 L1882.57 235.916 L1878.19 235.916 Q1873.26 235.916 1871.38 234.087 Q1869.51 232.235 1869.51 227.374 L1869.51 213.3 L1866.38 213.3 L1866.38 209.99 L1869.51 209.99 L1869.51 202.629 L1873.79 202.629 Z" fill="#000000" fill-rule="evenodd" fill-opacity="1" /><path clip-path="url(#clip130)" d="M1910.34 221.888 L1910.34 223.971 L1890.76 223.971 Q1891.04 228.369 1893.4 230.684 Q1895.78 232.976 1900.02 232.976 Q1902.47 232.976 1904.76 232.374 Q1907.08 231.772 1909.35 230.569 L1909.35 234.596 Q1907.06 235.568 1904.65 236.078 Q1902.24 236.587 1899.76 236.587 Q1893.56 236.587 1889.93 232.976 Q1886.32 229.365 1886.32 223.207 Q1886.32 216.842 1889.74 213.115 Q1893.19 209.365 1899.02 209.365 Q1904.25 209.365 1907.29 212.745 Q1910.34 216.101 1910.34 221.888 M1906.08 220.638 Q1906.04 217.143 1904.12 215.059 Q1902.22 212.976 1899.07 212.976 Q1895.5 212.976 1893.35 214.99 Q1891.22 217.004 1890.9 220.661 L1906.08 220.638 Z" fill="#000000" fill-rule="evenodd" fill-opacity="1" /><path clip-path="url(#clip130)" d="M1934.39 213.925 L1934.39 199.897 L1938.65 199.897 L1938.65 235.916 L1934.39 235.916 L1934.39 232.027 Q1933.05 234.342 1930.99 235.476 Q1928.95 236.587 1926.08 236.587 Q1921.38 236.587 1918.42 232.837 Q1915.48 229.087 1915.48 222.976 Q1915.48 216.865 1918.42 213.115 Q1921.38 209.365 1926.08 209.365 Q1928.95 209.365 1930.99 210.499 Q1933.05 211.61 1934.39 213.925 M1919.88 222.976 Q1919.88 227.675 1921.8 230.36 Q1923.75 233.022 1927.13 233.022 Q1930.5 233.022 1932.45 230.36 Q1934.39 227.675 1934.39 222.976 Q1934.39 218.277 1932.45 215.615 Q1930.5 212.93 1927.13 212.93 Q1923.75 212.93 1921.8 215.615 Q1919.88 218.277 1919.88 222.976 Z" fill="#000000" fill-rule="evenodd" fill-opacity="1" /><path clip-path="url(#clip130)" d="M1966.62 232.027 L1966.62 245.777 L1962.33 245.777 L1962.33 209.99 L1966.62 209.99 L1966.62 213.925 Q1967.96 211.61 1970 210.499 Q1972.06 209.365 1974.9 209.365 Q1979.62 209.365 1982.56 213.115 Q1985.53 216.865 1985.53 222.976 Q1985.53 229.087 1982.56 232.837 Q1979.62 236.587 1974.9 236.587 Q1972.06 236.587 1970 235.476 Q1967.96 234.342 1966.62 232.027 M1981.11 222.976 Q1981.11 218.277 1979.16 215.615 Q1977.24 212.93 1973.86 212.93 Q1970.48 212.93 1968.54 215.615 Q1966.62 218.277 1966.62 222.976 Q1966.62 227.675 1968.54 230.36 Q1970.48 233.022 1973.86 233.022 Q1977.24 233.022 1979.16 230.36 Q1981.11 227.675 1981.11 222.976 Z" fill="#000000" fill-rule="evenodd" fill-opacity="1" /><path clip-path="url(#clip130)" d="M2002.63 212.976 Q1999.21 212.976 1997.22 215.661 Q1995.23 218.323 1995.23 222.976 Q1995.23 227.629 1997.19 230.314 Q1999.18 232.976 2002.63 232.976 Q2006.04 232.976 2008.03 230.291 Q2010.02 227.606 2010.02 222.976 Q2010.02 218.37 2008.03 215.684 Q2006.04 212.976 2002.63 212.976 M2002.63 209.365 Q2008.19 209.365 2011.36 212.976 Q2014.53 216.587 2014.53 222.976 Q2014.53 229.342 2011.36 232.976 Q2008.19 236.587 2002.63 236.587 Q1997.06 236.587 1993.88 232.976 Q1990.74 229.342 1990.74 222.976 Q1990.74 216.587 1993.88 212.976 Q1997.06 209.365 2002.63 209.365 Z" fill="#000000" fill-rule="evenodd" fill-opacity="1" /><path clip-path="url(#clip130)" d="M2038.12 210.754 L2038.12 214.782 Q2036.31 213.856 2034.37 213.393 Q2032.43 212.93 2030.34 212.93 Q2027.17 212.93 2025.57 213.902 Q2024 214.874 2024 216.819 Q2024 218.3 2025.13 219.157 Q2026.27 219.99 2029.69 220.754 L2031.15 221.078 Q2035.69 222.05 2037.59 223.832 Q2039.51 225.592 2039.51 228.763 Q2039.51 232.374 2036.64 234.481 Q2033.79 236.587 2028.79 236.587 Q2026.71 236.587 2024.44 236.17 Q2022.19 235.777 2019.69 234.967 L2019.69 230.569 Q2022.06 231.795 2024.35 232.42 Q2026.64 233.022 2028.88 233.022 Q2031.89 233.022 2033.51 232.004 Q2035.13 230.962 2035.13 229.087 Q2035.13 227.351 2033.95 226.425 Q2032.8 225.499 2028.84 224.643 L2027.36 224.295 Q2023.4 223.462 2021.64 221.749 Q2019.88 220.013 2019.88 217.004 Q2019.88 213.346 2022.47 211.356 Q2025.06 209.365 2029.83 209.365 Q2032.19 209.365 2034.28 209.712 Q2036.36 210.059 2038.12 210.754 Z" fill="#000000" fill-rule="evenodd" fill-opacity="1" /><path clip-path="url(#clip130)" d="M2046.29 209.99 L2050.55 209.99 L2050.55 235.916 L2046.29 235.916 L2046.29 209.99 M2046.29 199.897 L2050.55 199.897 L2050.55 205.291 L2046.29 205.291 L2046.29 199.897 Z" fill="#000000" fill-rule="evenodd" fill-opacity="1" /><path clip-path="url(#clip130)" d="M2063.68 202.629 L2063.68 209.99 L2072.45 209.99 L2072.45 213.3 L2063.68 213.3 L2063.68 227.374 Q2063.68 230.545 2064.53 231.448 Q2065.41 232.351 2068.07 232.351 L2072.45 232.351 L2072.45 235.916 L2068.07 235.916 Q2063.14 235.916 2061.27 234.087 Q2059.39 232.235 2059.39 227.374 L2059.39 213.3 L2056.27 213.3 L2056.27 209.99 L2059.39 209.99 L2059.39 202.629 L2063.68 202.629 Z" fill="#000000" fill-rule="evenodd" fill-opacity="1" /><path clip-path="url(#clip130)" d="M2078.05 209.99 L2082.31 209.99 L2082.31 235.916 L2078.05 235.916 L2078.05 209.99 M2078.05 199.897 L2082.31 199.897 L2082.31 205.291 L2078.05 205.291 L2078.05 199.897 Z" fill="#000000" fill-rule="evenodd" fill-opacity="1" /><path clip-path="url(#clip130)" d="M2101.27 212.976 Q2097.84 212.976 2095.85 215.661 Q2093.86 218.323 2093.86 222.976 Q2093.86 227.629 2095.83 230.314 Q2097.82 232.976 2101.27 232.976 Q2104.67 232.976 2106.66 230.291 Q2108.65 227.606 2108.65 222.976 Q2108.65 218.37 2106.66 215.684 Q2104.67 212.976 2101.27 212.976 M2101.27 209.365 Q2106.82 209.365 2109.99 212.976 Q2113.17 216.587 2113.17 222.976 Q2113.17 229.342 2109.99 232.976 Q2106.82 236.587 2101.27 236.587 Q2095.69 236.587 2092.52 232.976 Q2089.37 229.342 2089.37 222.976 Q2089.37 216.587 2092.52 212.976 Q2095.69 209.365 2101.27 209.365 Z" fill="#000000" fill-rule="evenodd" fill-opacity="1" /><path clip-path="url(#clip130)" d="M2141.78 220.268 L2141.78 235.916 L2137.52 235.916 L2137.52 220.407 Q2137.52 216.726 2136.08 214.897 Q2134.65 213.069 2131.78 213.069 Q2128.33 213.069 2126.34 215.268 Q2124.35 217.467 2124.35 221.263 L2124.35 235.916 L2120.06 235.916 L2120.06 209.99 L2124.35 209.99 L2124.35 214.018 Q2125.87 211.68 2127.93 210.522 Q2130.02 209.365 2132.73 209.365 Q2137.19 209.365 2139.49 212.143 Q2141.78 214.897 2141.78 220.268 Z" fill="#000000" fill-rule="evenodd" fill-opacity="1" /><polyline clip-path="url(#clip130)" style="stroke:#e26f46; stroke-linecap:butt; stroke-linejoin:round; stroke-width:4; stroke-opacity:1; fill:none" points="
  1534.07,270.476 1677.25,270.476 
  "/>
<path clip-path="url(#clip130)" d="M1714.51 274.723 Q1709.35 274.723 1707.36 275.904 Q1705.37 277.084 1705.37 279.932 Q1705.37 282.2 1706.85 283.543 Q1708.35 284.862 1710.92 284.862 Q1714.46 284.862 1716.59 282.362 Q1718.75 279.839 1718.75 275.672 L1718.75 274.723 L1714.51 274.723 M1723.01 272.964 L1723.01 287.756 L1718.75 287.756 L1718.75 283.821 Q1717.29 286.182 1715.11 287.316 Q1712.94 288.427 1709.79 288.427 Q1705.81 288.427 1703.45 286.205 Q1701.11 283.959 1701.11 280.209 Q1701.11 275.834 1704.02 273.612 Q1706.96 271.39 1712.77 271.39 L1718.75 271.39 L1718.75 270.973 Q1718.75 268.034 1716.8 266.436 Q1714.88 264.816 1711.39 264.816 Q1709.16 264.816 1707.06 265.348 Q1704.95 265.881 1703.01 266.946 L1703.01 263.01 Q1705.34 262.108 1707.54 261.668 Q1709.74 261.205 1711.83 261.205 Q1717.45 261.205 1720.23 264.122 Q1723.01 267.038 1723.01 272.964 Z" fill="#000000" fill-rule="evenodd" fill-opacity="1" /><path clip-path="url(#clip130)" d="M1731.78 251.737 L1736.04 251.737 L1736.04 287.756 L1731.78 287.756 L1731.78 251.737 Z" fill="#000000" fill-rule="evenodd" fill-opacity="1" /><path clip-path="url(#clip130)" d="M1749.16 254.469 L1749.16 261.83 L1757.94 261.83 L1757.94 265.14 L1749.16 265.14 L1749.16 279.214 Q1749.16 282.385 1750.02 283.288 Q1750.9 284.191 1753.56 284.191 L1757.94 284.191 L1757.94 287.756 L1753.56 287.756 Q1748.63 287.756 1746.76 285.927 Q1744.88 284.075 1744.88 279.214 L1744.88 265.14 L1741.76 265.14 L1741.76 261.83 L1744.88 261.83 L1744.88 254.469 L1749.16 254.469 Z" fill="#000000" fill-rule="evenodd" fill-opacity="1" /><path clip-path="url(#clip130)" d="M1763.54 261.83 L1767.8 261.83 L1767.8 287.756 L1763.54 287.756 L1763.54 261.83 M1763.54 251.737 L1767.8 251.737 L1767.8 257.131 L1763.54 257.131 L1763.54 251.737 Z" fill="#000000" fill-rule="evenodd" fill-opacity="1" /><path clip-path="url(#clip130)" d="M1780.92 254.469 L1780.92 261.83 L1789.7 261.83 L1789.7 265.14 L1780.92 265.14 L1780.92 279.214 Q1780.92 282.385 1781.78 283.288 Q1782.66 284.191 1785.32 284.191 L1789.7 284.191 L1789.7 287.756 L1785.32 287.756 Q1780.39 287.756 1778.51 285.927 Q1776.64 284.075 1776.64 279.214 L1776.64 265.14 L1773.51 265.14 L1773.51 261.83 L1776.64 261.83 L1776.64 254.469 L1780.92 254.469 Z" fill="#000000" fill-rule="evenodd" fill-opacity="1" /><path clip-path="url(#clip130)" d="M1794.86 277.524 L1794.86 261.83 L1799.12 261.83 L1799.12 277.362 Q1799.12 281.043 1800.55 282.895 Q1801.99 284.723 1804.86 284.723 Q1808.31 284.723 1810.3 282.524 Q1812.31 280.325 1812.31 276.529 L1812.31 261.83 L1816.57 261.83 L1816.57 287.756 L1812.31 287.756 L1812.31 283.774 Q1810.76 286.135 1808.7 287.293 Q1806.66 288.427 1803.95 288.427 Q1799.49 288.427 1797.17 285.649 Q1794.86 282.871 1794.86 277.524 M1805.57 261.205 L1805.57 261.205 Z" fill="#000000" fill-rule="evenodd" fill-opacity="1" /><path clip-path="url(#clip130)" d="M1842.4 265.765 L1842.4 251.737 L1846.66 251.737 L1846.66 287.756 L1842.4 287.756 L1842.4 283.867 Q1841.06 286.182 1839 287.316 Q1836.96 288.427 1834.09 288.427 Q1829.39 288.427 1826.43 284.677 Q1823.49 280.927 1823.49 274.816 Q1823.49 268.705 1826.43 264.955 Q1829.39 261.205 1834.09 261.205 Q1836.96 261.205 1839 262.339 Q1841.06 263.45 1842.4 265.765 M1827.89 274.816 Q1827.89 279.515 1829.81 282.2 Q1831.76 284.862 1835.13 284.862 Q1838.51 284.862 1840.46 282.2 Q1842.4 279.515 1842.4 274.816 Q1842.4 270.117 1840.46 267.455 Q1838.51 264.77 1835.13 264.77 Q1831.76 264.77 1829.81 267.455 Q1827.89 270.117 1827.89 274.816 Z" fill="#000000" fill-rule="evenodd" fill-opacity="1" /><path clip-path="url(#clip130)" d="M1877.61 273.728 L1877.61 275.811 L1858.03 275.811 Q1858.31 280.209 1860.67 282.524 Q1863.05 284.816 1867.29 284.816 Q1869.74 284.816 1872.03 284.214 Q1874.35 283.612 1876.62 282.409 L1876.62 286.436 Q1874.32 287.408 1871.92 287.918 Q1869.51 288.427 1867.03 288.427 Q1860.83 288.427 1857.19 284.816 Q1853.58 281.205 1853.58 275.047 Q1853.58 268.682 1857.01 264.955 Q1860.46 261.205 1866.29 261.205 Q1871.52 261.205 1874.56 264.585 Q1877.61 267.941 1877.61 273.728 M1873.35 272.478 Q1873.31 268.983 1871.38 266.899 Q1869.49 264.816 1866.34 264.816 Q1862.77 264.816 1860.62 266.83 Q1858.49 268.844 1858.17 272.501 L1873.35 272.478 Z" fill="#000000" fill-rule="evenodd" fill-opacity="1" /><path clip-path="url(#clip130)" d="M1904.3 295.626 L1904.3 298.936 L1879.67 298.936 L1879.67 295.626 L1904.3 295.626 Z" fill="#000000" fill-rule="evenodd" fill-opacity="1" /><path clip-path="url(#clip130)" d="M1928.49 266.807 Q1930.09 263.936 1932.31 262.571 Q1934.53 261.205 1937.54 261.205 Q1941.59 261.205 1943.79 264.052 Q1945.99 266.876 1945.99 272.108 L1945.99 287.756 L1941.71 287.756 L1941.71 272.247 Q1941.71 268.52 1940.39 266.714 Q1939.07 264.909 1936.36 264.909 Q1933.05 264.909 1931.13 267.108 Q1929.21 269.307 1929.21 273.103 L1929.21 287.756 L1924.93 287.756 L1924.93 272.247 Q1924.93 268.497 1923.61 266.714 Q1922.29 264.909 1919.53 264.909 Q1916.27 264.909 1914.35 267.131 Q1912.43 269.33 1912.43 273.103 L1912.43 287.756 L1908.14 287.756 L1908.14 261.83 L1912.43 261.83 L1912.43 265.858 Q1913.88 263.473 1915.92 262.339 Q1917.96 261.205 1920.76 261.205 Q1923.58 261.205 1925.55 262.64 Q1927.54 264.075 1928.49 266.807 Z" fill="#000000" fill-rule="evenodd" fill-opacity="1" /><path clip-path="url(#clip130)" d="M1976.66 273.728 L1976.66 275.811 L1957.08 275.811 Q1957.36 280.209 1959.72 282.524 Q1962.1 284.816 1966.34 284.816 Q1968.79 284.816 1971.08 284.214 Q1973.4 283.612 1975.67 282.409 L1975.67 286.436 Q1973.37 287.408 1970.97 287.918 Q1968.56 288.427 1966.08 288.427 Q1959.88 288.427 1956.25 284.816 Q1952.63 281.205 1952.63 275.047 Q1952.63 268.682 1956.06 264.955 Q1959.51 261.205 1965.34 261.205 Q1970.57 261.205 1973.61 264.585 Q1976.66 267.941 1976.66 273.728 M1972.4 272.478 Q1972.36 268.983 1970.44 266.899 Q1968.54 264.816 1965.39 264.816 Q1961.82 264.816 1959.67 266.83 Q1957.54 268.844 1957.22 272.501 L1972.4 272.478 Z" fill="#000000" fill-rule="evenodd" fill-opacity="1" /><path clip-path="url(#clip130)" d="M1995.43 274.723 Q1990.27 274.723 1988.28 275.904 Q1986.29 277.084 1986.29 279.932 Q1986.29 282.2 1987.77 283.543 Q1989.28 284.862 1991.85 284.862 Q1995.39 284.862 1997.52 282.362 Q1999.67 279.839 1999.67 275.672 L1999.67 274.723 L1995.43 274.723 M2003.93 272.964 L2003.93 287.756 L1999.67 287.756 L1999.67 283.821 Q1998.21 286.182 1996.04 287.316 Q1993.86 288.427 1990.71 288.427 Q1986.73 288.427 1984.37 286.205 Q1982.03 283.959 1982.03 280.209 Q1982.03 275.834 1984.95 273.612 Q1987.89 271.39 1993.7 271.39 L1999.67 271.39 L1999.67 270.973 Q1999.67 268.034 1997.73 266.436 Q1995.81 264.816 1992.31 264.816 Q1990.09 264.816 1987.98 265.348 Q1985.87 265.881 1983.93 266.946 L1983.93 263.01 Q1986.27 262.108 1988.47 261.668 Q1990.67 261.205 1992.75 261.205 Q1998.37 261.205 2001.15 264.122 Q2003.93 267.038 2003.93 272.964 Z" fill="#000000" fill-rule="evenodd" fill-opacity="1" /><path clip-path="url(#clip130)" d="M2029.23 262.594 L2029.23 266.622 Q2027.43 265.696 2025.48 265.233 Q2023.54 264.77 2021.45 264.77 Q2018.28 264.77 2016.68 265.742 Q2015.11 266.714 2015.11 268.659 Q2015.11 270.14 2016.24 270.997 Q2017.38 271.83 2020.81 272.594 L2022.26 272.918 Q2026.8 273.89 2028.7 275.672 Q2030.62 277.432 2030.62 280.603 Q2030.62 284.214 2027.75 286.321 Q2024.9 288.427 2019.9 288.427 Q2017.82 288.427 2015.55 288.01 Q2013.31 287.617 2010.81 286.807 L2010.81 282.409 Q2013.17 283.635 2015.46 284.26 Q2017.75 284.862 2019.99 284.862 Q2023 284.862 2024.62 283.844 Q2026.24 282.802 2026.24 280.927 Q2026.24 279.191 2025.06 278.265 Q2023.91 277.339 2019.95 276.483 L2018.47 276.135 Q2014.51 275.302 2012.75 273.589 Q2010.99 271.853 2010.99 268.844 Q2010.99 265.186 2013.58 263.196 Q2016.18 261.205 2020.94 261.205 Q2023.31 261.205 2025.39 261.552 Q2027.47 261.899 2029.23 262.594 Z" fill="#000000" fill-rule="evenodd" fill-opacity="1" /><path clip-path="url(#clip130)" d="M2036.96 277.524 L2036.96 261.83 L2041.22 261.83 L2041.22 277.362 Q2041.22 281.043 2042.66 282.895 Q2044.09 284.723 2046.96 284.723 Q2050.41 284.723 2052.4 282.524 Q2054.42 280.325 2054.42 276.529 L2054.42 261.83 L2058.68 261.83 L2058.68 287.756 L2054.42 287.756 L2054.42 283.774 Q2052.87 286.135 2050.8 287.293 Q2048.77 288.427 2046.06 288.427 Q2041.59 288.427 2039.28 285.649 Q2036.96 282.871 2036.96 277.524 M2047.68 261.205 L2047.68 261.205 Z" fill="#000000" fill-rule="evenodd" fill-opacity="1" /><path clip-path="url(#clip130)" d="M2082.47 265.811 Q2081.75 265.395 2080.9 265.21 Q2080.06 265.001 2079.05 265.001 Q2075.43 265.001 2073.49 267.362 Q2071.57 269.7 2071.57 274.098 L2071.57 287.756 L2067.29 287.756 L2067.29 261.83 L2071.57 261.83 L2071.57 265.858 Q2072.91 263.497 2075.06 262.362 Q2077.22 261.205 2080.3 261.205 Q2080.74 261.205 2081.27 261.274 Q2081.8 261.321 2082.45 261.436 L2082.47 265.811 Z" fill="#000000" fill-rule="evenodd" fill-opacity="1" /><path clip-path="url(#clip130)" d="M2108.07 273.728 L2108.07 275.811 L2088.49 275.811 Q2088.77 280.209 2091.13 282.524 Q2093.51 284.816 2097.75 284.816 Q2100.2 284.816 2102.49 284.214 Q2104.81 283.612 2107.08 282.409 L2107.08 286.436 Q2104.79 287.408 2102.38 287.918 Q2099.97 288.427 2097.49 288.427 Q2091.29 288.427 2087.66 284.816 Q2084.05 281.205 2084.05 275.047 Q2084.05 268.682 2087.47 264.955 Q2090.92 261.205 2096.75 261.205 Q2101.99 261.205 2105.02 264.585 Q2108.07 267.941 2108.07 273.728 M2103.81 272.478 Q2103.77 268.983 2101.85 266.899 Q2099.95 264.816 2096.8 264.816 Q2093.24 264.816 2091.08 266.83 Q2088.95 268.844 2088.63 272.501 L2103.81 272.478 Z" fill="#000000" fill-rule="evenodd" fill-opacity="1" /><path clip-path="url(#clip130)" d="M2135.25 266.807 Q2136.85 263.936 2139.07 262.571 Q2141.29 261.205 2144.3 261.205 Q2148.35 261.205 2150.55 264.052 Q2152.75 266.876 2152.75 272.108 L2152.75 287.756 L2148.47 287.756 L2148.47 272.247 Q2148.47 268.52 2147.15 266.714 Q2145.83 264.909 2143.12 264.909 Q2139.81 264.909 2137.89 267.108 Q2135.97 269.307 2135.97 273.103 L2135.97 287.756 L2131.68 287.756 L2131.68 272.247 Q2131.68 268.497 2130.36 266.714 Q2129.05 264.909 2126.29 264.909 Q2123.03 264.909 2121.11 267.131 Q2119.18 269.33 2119.18 273.103 L2119.18 287.756 L2114.9 287.756 L2114.9 261.83 L2119.18 261.83 L2119.18 265.858 Q2120.64 263.473 2122.68 262.339 Q2124.72 261.205 2127.52 261.205 Q2130.34 261.205 2132.31 262.64 Q2134.3 264.075 2135.25 266.807 Z" fill="#000000" fill-rule="evenodd" fill-opacity="1" /><path clip-path="url(#clip130)" d="M2183.42 273.728 L2183.42 275.811 L2163.84 275.811 Q2164.11 280.209 2166.48 282.524 Q2168.86 284.816 2173.1 284.816 Q2175.55 284.816 2177.84 284.214 Q2180.16 283.612 2182.42 282.409 L2182.42 286.436 Q2180.13 287.408 2177.73 287.918 Q2175.32 288.427 2172.84 288.427 Q2166.64 288.427 2163 284.816 Q2159.39 281.205 2159.39 275.047 Q2159.39 268.682 2162.82 264.955 Q2166.27 261.205 2172.1 261.205 Q2177.33 261.205 2180.36 264.585 Q2183.42 267.941 2183.42 273.728 M2179.16 272.478 Q2179.11 268.983 2177.19 266.899 Q2175.3 264.816 2172.15 264.816 Q2168.58 264.816 2166.43 266.83 Q2164.3 268.844 2163.98 272.501 L2179.16 272.478 Z" fill="#000000" fill-rule="evenodd" fill-opacity="1" /><path clip-path="url(#clip130)" d="M2211.96 272.108 L2211.96 287.756 L2207.7 287.756 L2207.7 272.247 Q2207.7 268.566 2206.27 266.737 Q2204.83 264.909 2201.96 264.909 Q2198.51 264.909 2196.52 267.108 Q2194.53 269.307 2194.53 273.103 L2194.53 287.756 L2190.25 287.756 L2190.25 261.83 L2194.53 261.83 L2194.53 265.858 Q2196.06 263.52 2198.12 262.362 Q2200.2 261.205 2202.91 261.205 Q2207.38 261.205 2209.67 263.983 Q2211.96 266.737 2211.96 272.108 Z" fill="#000000" fill-rule="evenodd" fill-opacity="1" /><path clip-path="url(#clip130)" d="M2224.67 254.469 L2224.67 261.83 L2233.44 261.83 L2233.44 265.14 L2224.67 265.14 L2224.67 279.214 Q2224.67 282.385 2225.53 283.288 Q2226.41 284.191 2229.07 284.191 L2233.44 284.191 L2233.44 287.756 L2229.07 287.756 Q2224.14 287.756 2222.26 285.927 Q2220.39 284.075 2220.39 279.214 L2220.39 265.14 L2217.26 265.14 L2217.26 261.83 L2220.39 261.83 L2220.39 254.469 L2224.67 254.469 Z" fill="#000000" fill-rule="evenodd" fill-opacity="1" /></svg>
