<?xml version="1.0" encoding="utf-8"?>
<svg xmlns="http://www.w3.org/2000/svg" xmlns:xlink="http://www.w3.org/1999/xlink" width="600" height="400" viewBox="0 0 2400 1600">
<defs>
  <clipPath id="clip470">
    <rect x="0" y="0" width="2400" height="1600"/>
  </clipPath>
</defs>
<path clip-path="url(#clip470)" d="
M0 1600 L2400 1600 L2400 0 L0 0  Z
  " fill="#ffffff" fill-rule="evenodd" fill-opacity="1"/>
<defs>
  <clipPath id="clip471">
    <rect x="480" y="0" width="1681" height="1600"/>
  </clipPath>
</defs>
<path clip-path="url(#clip470)" d="
M257.204 1423.18 L2352.76 1423.18 L2352.76 123.472 L257.204 123.472  Z
  " fill="#ffffff" fill-rule="evenodd" fill-opacity="1"/>
<defs>
  <clipPath id="clip472">
    <rect x="257" y="123" width="2097" height="1301"/>
  </clipPath>
</defs>
<polyline clip-path="url(#clip472)" style="stroke:#000000; stroke-linecap:butt; stroke-linejoin:round; stroke-width:2; stroke-opacity:0.1; fill:none" points="
  315.812,1423.18 315.812,123.472 
  "/>
<polyline clip-path="url(#clip472)" style="stroke:#000000; stroke-linecap:butt; stroke-linejoin:round; stroke-width:2; stroke-opacity:0.1; fill:none" points="
  771.482,1423.18 771.482,123.472 
  "/>
<polyline clip-path="url(#clip472)" style="stroke:#000000; stroke-linecap:butt; stroke-linejoin:round; stroke-width:2; stroke-opacity:0.1; fill:none" points="
  1227.15,1423.18 1227.15,123.472 
  "/>
<polyline clip-path="url(#clip472)" style="stroke:#000000; stroke-linecap:butt; stroke-linejoin:round; stroke-width:2; stroke-opacity:0.1; fill:none" points="
  1682.82,1423.18 1682.82,123.472 
  "/>
<polyline clip-path="url(#clip472)" style="stroke:#000000; stroke-linecap:butt; stroke-linejoin:round; stroke-width:2; stroke-opacity:0.1; fill:none" points="
  2138.49,1423.18 2138.49,123.472 
  "/>
<polyline clip-path="url(#clip470)" style="stroke:#000000; stroke-linecap:butt; stroke-linejoin:round; stroke-width:4; stroke-opacity:1; fill:none" points="
  257.204,1423.18 2352.76,1423.18 
  "/>
<polyline clip-path="url(#clip470)" style="stroke:#000000; stroke-linecap:butt; stroke-linejoin:round; stroke-width:4; stroke-opacity:1; fill:none" points="
  315.812,1423.18 315.812,1404.28 
  "/>
<polyline clip-path="url(#clip470)" style="stroke:#000000; stroke-linecap:butt; stroke-linejoin:round; stroke-width:4; stroke-opacity:1; fill:none" points="
  771.482,1423.18 771.482,1404.28 
  "/>
<polyline clip-path="url(#clip470)" style="stroke:#000000; stroke-linecap:butt; stroke-linejoin:round; stroke-width:4; stroke-opacity:1; fill:none" points="
  1227.15,1423.18 1227.15,1404.28 
  "/>
<polyline clip-path="url(#clip470)" style="stroke:#000000; stroke-linecap:butt; stroke-linejoin:round; stroke-width:4; stroke-opacity:1; fill:none" points="
  1682.82,1423.18 1682.82,1404.28 
  "/>
<polyline clip-path="url(#clip470)" style="stroke:#000000; stroke-linecap:butt; stroke-linejoin:round; stroke-width:4; stroke-opacity:1; fill:none" points="
  2138.49,1423.18 2138.49,1404.28 
  "/>
<path clip-path="url(#clip470)" d="M315.812 1454.1 Q312.201 1454.1 310.372 1457.66 Q308.566 1461.2 308.566 1468.33 Q308.566 1475.44 310.372 1479.01 Q312.201 1482.55 315.812 1482.55 Q319.446 1482.55 321.252 1479.01 Q323.08 1475.44 323.08 1468.33 Q323.08 1461.2 321.252 1457.66 Q319.446 1454.1 315.812 1454.1 M315.812 1450.39 Q321.622 1450.39 324.678 1455 Q327.756 1459.58 327.756 1468.33 Q327.756 1477.06 324.678 1481.67 Q321.622 1486.25 315.812 1486.25 Q310.002 1486.25 306.923 1481.67 Q303.867 1477.06 303.867 1468.33 Q303.867 1459.58 306.923 1455 Q310.002 1450.39 315.812 1450.39 Z" fill="#000000" fill-rule="evenodd" fill-opacity="1" /><path clip-path="url(#clip470)" d="M750.752 1481.64 L767.072 1481.64 L767.072 1485.58 L745.127 1485.58 L745.127 1481.64 Q747.789 1478.89 752.373 1474.26 Q756.979 1469.61 758.16 1468.27 Q760.405 1465.74 761.285 1464.01 Q762.188 1462.25 762.188 1460.56 Q762.188 1457.8 760.243 1456.07 Q758.322 1454.33 755.22 1454.33 Q753.021 1454.33 750.567 1455.09 Q748.137 1455.86 745.359 1457.41 L745.359 1452.69 Q748.183 1451.55 750.637 1450.97 Q753.09 1450.39 755.127 1450.39 Q760.498 1450.39 763.692 1453.08 Q766.887 1455.77 766.887 1460.26 Q766.887 1462.39 766.076 1464.31 Q765.289 1466.2 763.183 1468.8 Q762.604 1469.47 759.502 1472.69 Q756.401 1475.88 750.752 1481.64 Z" fill="#000000" fill-rule="evenodd" fill-opacity="1" /><path clip-path="url(#clip470)" d="M776.933 1451.02 L795.289 1451.02 L795.289 1454.96 L781.215 1454.96 L781.215 1463.43 Q782.234 1463.08 783.252 1462.92 Q784.271 1462.73 785.289 1462.73 Q791.076 1462.73 794.456 1465.9 Q797.836 1469.08 797.836 1474.49 Q797.836 1480.07 794.363 1483.17 Q790.891 1486.25 784.572 1486.25 Q782.396 1486.25 780.127 1485.88 Q777.882 1485.51 775.475 1484.77 L775.475 1480.07 Q777.558 1481.2 779.78 1481.76 Q782.002 1482.32 784.479 1482.32 Q788.484 1482.32 790.822 1480.21 Q793.16 1478.1 793.16 1474.49 Q793.16 1470.88 790.822 1468.77 Q788.484 1466.67 784.479 1466.67 Q782.604 1466.67 780.729 1467.08 Q778.877 1467.5 776.933 1468.38 L776.933 1451.02 Z" fill="#000000" fill-rule="evenodd" fill-opacity="1" /><path clip-path="url(#clip470)" d="M1201.85 1451.02 L1220.21 1451.02 L1220.21 1454.96 L1206.13 1454.96 L1206.13 1463.43 Q1207.15 1463.08 1208.17 1462.92 Q1209.19 1462.73 1210.21 1462.73 Q1215.99 1462.73 1219.37 1465.9 Q1222.75 1469.08 1222.75 1474.49 Q1222.75 1480.07 1219.28 1483.17 Q1215.81 1486.25 1209.49 1486.25 Q1207.31 1486.25 1205.04 1485.88 Q1202.8 1485.51 1200.39 1484.77 L1200.39 1480.07 Q1202.48 1481.2 1204.7 1481.76 Q1206.92 1482.32 1209.4 1482.32 Q1213.4 1482.32 1215.74 1480.21 Q1218.08 1478.1 1218.08 1474.49 Q1218.08 1470.88 1215.74 1468.77 Q1213.4 1466.67 1209.4 1466.67 Q1207.52 1466.67 1205.65 1467.08 Q1203.79 1467.5 1201.85 1468.38 L1201.85 1451.02 Z" fill="#000000" fill-rule="evenodd" fill-opacity="1" /><path clip-path="url(#clip470)" d="M1241.97 1454.1 Q1238.35 1454.1 1236.53 1457.66 Q1234.72 1461.2 1234.72 1468.33 Q1234.72 1475.44 1236.53 1479.01 Q1238.35 1482.55 1241.97 1482.55 Q1245.6 1482.55 1247.41 1479.01 Q1249.23 1475.44 1249.23 1468.33 Q1249.23 1461.2 1247.41 1457.66 Q1245.6 1454.1 1241.97 1454.1 M1241.97 1450.39 Q1247.78 1450.39 1250.83 1455 Q1253.91 1459.58 1253.91 1468.33 Q1253.91 1477.06 1250.83 1481.67 Q1247.78 1486.25 1241.97 1486.25 Q1236.16 1486.25 1233.08 1481.67 Q1230.02 1477.06 1230.02 1468.33 Q1230.02 1459.58 1233.08 1455 Q1236.16 1450.39 1241.97 1450.39 Z" fill="#000000" fill-rule="evenodd" fill-opacity="1" /><path clip-path="url(#clip470)" d="M1656.68 1451.02 L1678.9 1451.02 L1678.9 1453.01 L1666.35 1485.58 L1661.47 1485.58 L1673.27 1454.96 L1656.68 1454.96 L1656.68 1451.02 Z" fill="#000000" fill-rule="evenodd" fill-opacity="1" /><path clip-path="url(#clip470)" d="M1688.06 1451.02 L1706.42 1451.02 L1706.42 1454.96 L1692.35 1454.96 L1692.35 1463.43 Q1693.36 1463.08 1694.38 1462.92 Q1695.4 1462.73 1696.42 1462.73 Q1702.21 1462.73 1705.59 1465.9 Q1708.97 1469.08 1708.97 1474.49 Q1708.97 1480.07 1705.49 1483.17 Q1702.02 1486.25 1695.7 1486.25 Q1693.53 1486.25 1691.26 1485.88 Q1689.01 1485.51 1686.61 1484.77 L1686.61 1480.07 Q1688.69 1481.2 1690.91 1481.76 Q1693.13 1482.32 1695.61 1482.32 Q1699.61 1482.32 1701.95 1480.21 Q1704.29 1478.1 1704.29 1474.49 Q1704.29 1470.88 1701.95 1468.77 Q1699.61 1466.67 1695.61 1466.67 Q1693.74 1466.67 1691.86 1467.08 Q1690.01 1467.5 1688.06 1468.38 L1688.06 1451.02 Z" fill="#000000" fill-rule="evenodd" fill-opacity="1" /><path clip-path="url(#clip470)" d="M2098.1 1481.64 L2105.74 1481.64 L2105.74 1455.28 L2097.43 1456.95 L2097.43 1452.69 L2105.69 1451.02 L2110.37 1451.02 L2110.37 1481.64 L2118 1481.64 L2118 1485.58 L2098.1 1485.58 L2098.1 1481.64 Z" fill="#000000" fill-rule="evenodd" fill-opacity="1" /><path clip-path="url(#clip470)" d="M2137.45 1454.1 Q2133.84 1454.1 2132.01 1457.66 Q2130.2 1461.2 2130.2 1468.33 Q2130.2 1475.44 2132.01 1479.01 Q2133.84 1482.55 2137.45 1482.55 Q2141.08 1482.55 2142.89 1479.01 Q2144.72 1475.44 2144.72 1468.33 Q2144.72 1461.2 2142.89 1457.66 Q2141.08 1454.1 2137.45 1454.1 M2137.45 1450.39 Q2143.26 1450.39 2146.31 1455 Q2149.39 1459.58 2149.39 1468.33 Q2149.39 1477.06 2146.31 1481.67 Q2143.26 1486.25 2137.45 1486.25 Q2131.64 1486.25 2128.56 1481.67 Q2125.5 1477.06 2125.5 1468.33 Q2125.5 1459.58 2128.56 1455 Q2131.64 1450.39 2137.45 1450.39 Z" fill="#000000" fill-rule="evenodd" fill-opacity="1" /><path clip-path="url(#clip470)" d="M2167.61 1454.1 Q2164 1454.1 2162.17 1457.66 Q2160.37 1461.2 2160.37 1468.33 Q2160.37 1475.44 2162.17 1479.01 Q2164 1482.55 2167.61 1482.55 Q2171.24 1482.55 2173.05 1479.01 Q2174.88 1475.44 2174.88 1468.33 Q2174.88 1461.2 2173.05 1457.66 Q2171.24 1454.1 2167.61 1454.1 M2167.61 1450.39 Q2173.42 1450.39 2176.48 1455 Q2179.56 1459.58 2179.56 1468.33 Q2179.56 1477.06 2176.48 1481.67 Q2173.42 1486.25 2167.61 1486.25 Q2161.8 1486.25 2158.72 1481.67 Q2155.67 1477.06 2155.67 1468.33 Q2155.67 1459.58 2158.72 1455 Q2161.8 1450.39 2167.61 1450.39 Z" fill="#000000" fill-rule="evenodd" fill-opacity="1" /><path clip-path="url(#clip470)" d="M1213.22 1522.27 L1213.22 1532.4 L1225.28 1532.4 L1225.28 1536.95 L1213.22 1536.95 L1213.22 1556.3 Q1213.22 1560.66 1214.4 1561.9 Q1215.61 1563.14 1219.27 1563.14 L1225.28 1563.14 L1225.28 1568.04 L1219.27 1568.04 Q1212.49 1568.04 1209.91 1565.53 Q1207.33 1562.98 1207.33 1556.3 L1207.33 1536.95 L1203.03 1536.95 L1203.03 1532.4 L1207.33 1532.4 L1207.33 1522.27 L1213.22 1522.27 Z" fill="#000000" fill-rule="evenodd" fill-opacity="1" /><path clip-path="url(#clip470)" d="M1253.7 1532.4 L1259.56 1532.4 L1259.56 1568.04 L1253.7 1568.04 L1253.7 1532.4 M1253.7 1518.52 L1259.56 1518.52 L1259.56 1525.93 L1253.7 1525.93 L1253.7 1518.52 Z" fill="#000000" fill-rule="evenodd" fill-opacity="1" /><path clip-path="url(#clip470)" d="M1301.45 1546.53 L1301.45 1568.04 L1295.59 1568.04 L1295.59 1546.72 Q1295.59 1541.66 1293.62 1539.14 Q1291.64 1536.63 1287.7 1536.63 Q1282.95 1536.63 1280.22 1539.65 Q1277.48 1542.68 1277.48 1547.9 L1277.48 1568.04 L1271.59 1568.04 L1271.59 1532.4 L1277.48 1532.4 L1277.48 1537.93 Q1279.58 1534.72 1282.41 1533.13 Q1285.28 1531.54 1289 1531.54 Q1295.14 1531.54 1298.3 1535.36 Q1301.45 1539.14 1301.45 1546.53 Z" fill="#000000" fill-rule="evenodd" fill-opacity="1" /><path clip-path="url(#clip470)" d="M1333.31 1518.52 L1346.8 1518.52 L1346.8 1523.07 L1339.16 1523.07 L1339.16 1572.09 L1346.8 1572.09 L1346.8 1576.64 L1333.31 1576.64 L1333.31 1518.52 Z" fill="#000000" fill-rule="evenodd" fill-opacity="1" /><path clip-path="url(#clip470)" d="M1382.01 1533.45 L1382.01 1538.98 Q1379.52 1537.71 1376.85 1537.07 Q1374.18 1536.44 1371.31 1536.44 Q1366.95 1536.44 1364.75 1537.77 Q1362.59 1539.11 1362.59 1541.79 Q1362.59 1543.82 1364.15 1545 Q1365.71 1546.15 1370.42 1547.2 L1372.42 1547.64 Q1378.66 1548.98 1381.27 1551.43 Q1383.91 1553.85 1383.91 1558.21 Q1383.91 1563.17 1379.97 1566.07 Q1376.05 1568.97 1369.18 1568.97 Q1366.31 1568.97 1363.19 1568.39 Q1360.11 1567.85 1356.67 1566.74 L1356.67 1560.69 Q1359.92 1562.38 1363.07 1563.24 Q1366.22 1564.07 1369.31 1564.07 Q1373.44 1564.07 1375.67 1562.66 Q1377.9 1561.23 1377.9 1558.65 Q1377.9 1556.27 1376.28 1554.99 Q1374.68 1553.72 1369.24 1552.54 L1367.2 1552.07 Q1361.76 1550.92 1359.34 1548.56 Q1356.92 1546.18 1356.92 1542.04 Q1356.92 1537.01 1360.49 1534.27 Q1364.05 1531.54 1370.61 1531.54 Q1373.86 1531.54 1376.72 1532.01 Q1379.59 1532.49 1382.01 1533.45 Z" fill="#000000" fill-rule="evenodd" fill-opacity="1" /><path clip-path="url(#clip470)" d="M1406.93 1518.52 L1406.93 1576.64 L1393.43 1576.64 L1393.43 1572.09 L1401.04 1572.09 L1401.04 1523.07 L1393.43 1523.07 L1393.43 1518.52 L1406.93 1518.52 Z" fill="#000000" fill-rule="evenodd" fill-opacity="1" /><polyline clip-path="url(#clip472)" style="stroke:#000000; stroke-linecap:butt; stroke-linejoin:round; stroke-width:2; stroke-opacity:0.1; fill:none" points="
  257.204,1376.58 2352.76,1376.58 
  "/>
<polyline clip-path="url(#clip472)" style="stroke:#000000; stroke-linecap:butt; stroke-linejoin:round; stroke-width:2; stroke-opacity:0.1; fill:none" points="
  257.204,1137.21 2352.76,1137.21 
  "/>
<polyline clip-path="url(#clip472)" style="stroke:#000000; stroke-linecap:butt; stroke-linejoin:round; stroke-width:2; stroke-opacity:0.1; fill:none" points="
  257.204,897.833 2352.76,897.833 
  "/>
<polyline clip-path="url(#clip472)" style="stroke:#000000; stroke-linecap:butt; stroke-linejoin:round; stroke-width:2; stroke-opacity:0.1; fill:none" points="
  257.204,658.46 2352.76,658.46 
  "/>
<polyline clip-path="url(#clip472)" style="stroke:#000000; stroke-linecap:butt; stroke-linejoin:round; stroke-width:2; stroke-opacity:0.1; fill:none" points="
  257.204,419.087 2352.76,419.087 
  "/>
<polyline clip-path="url(#clip472)" style="stroke:#000000; stroke-linecap:butt; stroke-linejoin:round; stroke-width:2; stroke-opacity:0.1; fill:none" points="
  257.204,179.715 2352.76,179.715 
  "/>
<polyline clip-path="url(#clip470)" style="stroke:#000000; stroke-linecap:butt; stroke-linejoin:round; stroke-width:4; stroke-opacity:1; fill:none" points="
  257.204,1423.18 257.204,123.472 
  "/>
<polyline clip-path="url(#clip470)" style="stroke:#000000; stroke-linecap:butt; stroke-linejoin:round; stroke-width:4; stroke-opacity:1; fill:none" points="
  257.204,1376.58 276.102,1376.58 
  "/>
<polyline clip-path="url(#clip470)" style="stroke:#000000; stroke-linecap:butt; stroke-linejoin:round; stroke-width:4; stroke-opacity:1; fill:none" points="
  257.204,1137.21 276.102,1137.21 
  "/>
<polyline clip-path="url(#clip470)" style="stroke:#000000; stroke-linecap:butt; stroke-linejoin:round; stroke-width:4; stroke-opacity:1; fill:none" points="
  257.204,897.833 276.102,897.833 
  "/>
<polyline clip-path="url(#clip470)" style="stroke:#000000; stroke-linecap:butt; stroke-linejoin:round; stroke-width:4; stroke-opacity:1; fill:none" points="
  257.204,658.46 276.102,658.46 
  "/>
<polyline clip-path="url(#clip470)" style="stroke:#000000; stroke-linecap:butt; stroke-linejoin:round; stroke-width:4; stroke-opacity:1; fill:none" points="
  257.204,419.087 276.102,419.087 
  "/>
<polyline clip-path="url(#clip470)" style="stroke:#000000; stroke-linecap:butt; stroke-linejoin:round; stroke-width:4; stroke-opacity:1; fill:none" points="
  257.204,179.715 276.102,179.715 
  "/>
<path clip-path="url(#clip470)" d="M114.26 1377.03 L143.936 1377.03 L143.936 1380.97 L114.26 1380.97 L114.26 1377.03 Z" fill="#000000" fill-rule="evenodd" fill-opacity="1" /><path clip-path="url(#clip470)" d="M154.839 1389.92 L162.477 1389.92 L162.477 1363.56 L154.167 1365.22 L154.167 1360.97 L162.431 1359.3 L167.107 1359.3 L167.107 1389.92 L174.746 1389.92 L174.746 1393.86 L154.839 1393.86 L154.839 1389.92 Z" fill="#000000" fill-rule="evenodd" fill-opacity="1" /><path clip-path="url(#clip470)" d="M184.19 1387.98 L189.075 1387.98 L189.075 1393.86 L184.19 1393.86 L184.19 1387.98 Z" fill="#000000" fill-rule="evenodd" fill-opacity="1" /><path clip-path="url(#clip470)" d="M209.26 1362.38 Q205.649 1362.38 203.82 1365.94 Q202.014 1369.48 202.014 1376.61 Q202.014 1383.72 203.82 1387.28 Q205.649 1390.83 209.26 1390.83 Q212.894 1390.83 214.699 1387.28 Q216.528 1383.72 216.528 1376.61 Q216.528 1369.48 214.699 1365.94 Q212.894 1362.38 209.26 1362.38 M209.26 1358.67 Q215.07 1358.67 218.125 1363.28 Q221.204 1367.86 221.204 1376.61 Q221.204 1385.34 218.125 1389.95 Q215.07 1394.53 209.26 1394.53 Q203.449 1394.53 200.371 1389.95 Q197.315 1385.34 197.315 1376.61 Q197.315 1367.86 200.371 1363.28 Q203.449 1358.67 209.26 1358.67 Z" fill="#000000" fill-rule="evenodd" fill-opacity="1" /><path clip-path="url(#clip470)" d="M115.256 1137.66 L144.931 1137.66 L144.931 1141.59 L115.256 1141.59 L115.256 1137.66 Z" fill="#000000" fill-rule="evenodd" fill-opacity="1" /><path clip-path="url(#clip470)" d="M165.024 1123 Q161.413 1123 159.584 1126.57 Q157.778 1130.11 157.778 1137.24 Q157.778 1144.35 159.584 1147.91 Q161.413 1151.45 165.024 1151.45 Q168.658 1151.45 170.464 1147.91 Q172.292 1144.35 172.292 1137.24 Q172.292 1130.11 170.464 1126.57 Q168.658 1123 165.024 1123 M165.024 1119.3 Q170.834 1119.3 173.889 1123.91 Q176.968 1128.49 176.968 1137.24 Q176.968 1145.97 173.889 1150.57 Q170.834 1155.16 165.024 1155.16 Q159.214 1155.16 156.135 1150.57 Q153.079 1145.97 153.079 1137.24 Q153.079 1128.49 156.135 1123.91 Q159.214 1119.3 165.024 1119.3 Z" fill="#000000" fill-rule="evenodd" fill-opacity="1" /><path clip-path="url(#clip470)" d="M185.186 1148.61 L190.07 1148.61 L190.07 1154.49 L185.186 1154.49 L185.186 1148.61 Z" fill="#000000" fill-rule="evenodd" fill-opacity="1" /><path clip-path="url(#clip470)" d="M200.301 1119.93 L218.658 1119.93 L218.658 1123.86 L204.584 1123.86 L204.584 1132.33 Q205.602 1131.99 206.621 1131.82 Q207.639 1131.64 208.658 1131.64 Q214.445 1131.64 217.824 1134.81 Q221.204 1137.98 221.204 1143.4 Q221.204 1148.98 217.732 1152.08 Q214.26 1155.16 207.94 1155.16 Q205.764 1155.16 203.496 1154.79 Q201.25 1154.42 198.843 1153.68 L198.843 1148.98 Q200.926 1150.11 203.149 1150.67 Q205.371 1151.22 207.848 1151.22 Q211.852 1151.22 214.19 1149.12 Q216.528 1147.01 216.528 1143.4 Q216.528 1139.79 214.19 1137.68 Q211.852 1135.57 207.848 1135.57 Q205.973 1135.57 204.098 1135.99 Q202.246 1136.41 200.301 1137.29 L200.301 1119.93 Z" fill="#000000" fill-rule="evenodd" fill-opacity="1" /><path clip-path="url(#clip470)" d="M164.028 883.632 Q160.417 883.632 158.589 887.197 Q156.783 890.738 156.783 897.868 Q156.783 904.974 158.589 908.539 Q160.417 912.081 164.028 912.081 Q167.663 912.081 169.468 908.539 Q171.297 904.974 171.297 897.868 Q171.297 890.738 169.468 887.197 Q167.663 883.632 164.028 883.632 M164.028 879.928 Q169.839 879.928 172.894 884.534 Q175.973 889.118 175.973 897.868 Q175.973 906.595 172.894 911.201 Q169.839 915.784 164.028 915.784 Q158.218 915.784 155.14 911.201 Q152.084 906.595 152.084 897.868 Q152.084 889.118 155.14 884.534 Q158.218 879.928 164.028 879.928 Z" fill="#000000" fill-rule="evenodd" fill-opacity="1" /><path clip-path="url(#clip470)" d="M184.19 909.233 L189.075 909.233 L189.075 915.113 L184.19 915.113 L184.19 909.233 Z" fill="#000000" fill-rule="evenodd" fill-opacity="1" /><path clip-path="url(#clip470)" d="M209.26 883.632 Q205.649 883.632 203.82 887.197 Q202.014 890.738 202.014 897.868 Q202.014 904.974 203.82 908.539 Q205.649 912.081 209.26 912.081 Q212.894 912.081 214.699 908.539 Q216.528 904.974 216.528 897.868 Q216.528 890.738 214.699 887.197 Q212.894 883.632 209.26 883.632 M209.26 879.928 Q215.07 879.928 218.125 884.534 Q221.204 889.118 221.204 897.868 Q221.204 906.595 218.125 911.201 Q215.07 915.784 209.26 915.784 Q203.449 915.784 200.371 911.201 Q197.315 906.595 197.315 897.868 Q197.315 889.118 200.371 884.534 Q203.449 879.928 209.26 879.928 Z" fill="#000000" fill-rule="evenodd" fill-opacity="1" /><path clip-path="url(#clip470)" d="M165.024 644.259 Q161.413 644.259 159.584 647.824 Q157.778 651.365 157.778 658.495 Q157.778 665.601 159.584 669.166 Q161.413 672.708 165.024 672.708 Q168.658 672.708 170.464 669.166 Q172.292 665.601 172.292 658.495 Q172.292 651.365 170.464 647.824 Q168.658 644.259 165.024 644.259 M165.024 640.555 Q170.834 640.555 173.889 645.162 Q176.968 649.745 176.968 658.495 Q176.968 667.222 173.889 671.828 Q170.834 676.412 165.024 676.412 Q159.214 676.412 156.135 671.828 Q153.079 667.222 153.079 658.495 Q153.079 649.745 156.135 645.162 Q159.214 640.555 165.024 640.555 Z" fill="#000000" fill-rule="evenodd" fill-opacity="1" /><path clip-path="url(#clip470)" d="M185.186 669.861 L190.07 669.861 L190.07 675.74 L185.186 675.74 L185.186 669.861 Z" fill="#000000" fill-rule="evenodd" fill-opacity="1" /><path clip-path="url(#clip470)" d="M200.301 641.18 L218.658 641.18 L218.658 645.115 L204.584 645.115 L204.584 653.588 Q205.602 653.24 206.621 653.078 Q207.639 652.893 208.658 652.893 Q214.445 652.893 217.824 656.064 Q221.204 659.236 221.204 664.652 Q221.204 670.231 217.732 673.333 Q214.26 676.412 207.94 676.412 Q205.764 676.412 203.496 676.041 Q201.25 675.671 198.843 674.93 L198.843 670.231 Q200.926 671.365 203.149 671.921 Q205.371 672.476 207.848 672.476 Q211.852 672.476 214.19 670.37 Q216.528 668.263 216.528 664.652 Q216.528 661.041 214.19 658.935 Q211.852 656.828 207.848 656.828 Q205.973 656.828 204.098 657.245 Q202.246 657.662 200.301 658.541 L200.301 641.18 Z" fill="#000000" fill-rule="evenodd" fill-opacity="1" /><path clip-path="url(#clip470)" d="M154.839 432.432 L162.477 432.432 L162.477 406.067 L154.167 407.733 L154.167 403.474 L162.431 401.807 L167.107 401.807 L167.107 432.432 L174.746 432.432 L174.746 436.367 L154.839 436.367 L154.839 432.432 Z" fill="#000000" fill-rule="evenodd" fill-opacity="1" /><path clip-path="url(#clip470)" d="M184.19 430.488 L189.075 430.488 L189.075 436.367 L184.19 436.367 L184.19 430.488 Z" fill="#000000" fill-rule="evenodd" fill-opacity="1" /><path clip-path="url(#clip470)" d="M209.26 404.886 Q205.649 404.886 203.82 408.451 Q202.014 411.993 202.014 419.122 Q202.014 426.229 203.82 429.793 Q205.649 433.335 209.26 433.335 Q212.894 433.335 214.699 429.793 Q216.528 426.229 216.528 419.122 Q216.528 411.993 214.699 408.451 Q212.894 404.886 209.26 404.886 M209.26 401.182 Q215.07 401.182 218.125 405.789 Q221.204 410.372 221.204 419.122 Q221.204 427.849 218.125 432.455 Q215.07 437.039 209.26 437.039 Q203.449 437.039 200.371 432.455 Q197.315 427.849 197.315 419.122 Q197.315 410.372 200.371 405.789 Q203.449 401.182 209.26 401.182 Z" fill="#000000" fill-rule="evenodd" fill-opacity="1" /><path clip-path="url(#clip470)" d="M155.834 193.059 L163.473 193.059 L163.473 166.694 L155.163 168.36 L155.163 164.101 L163.427 162.435 L168.102 162.435 L168.102 193.059 L175.741 193.059 L175.741 196.995 L155.834 196.995 L155.834 193.059 Z" fill="#000000" fill-rule="evenodd" fill-opacity="1" /><path clip-path="url(#clip470)" d="M185.186 191.115 L190.07 191.115 L190.07 196.995 L185.186 196.995 L185.186 191.115 Z" fill="#000000" fill-rule="evenodd" fill-opacity="1" /><path clip-path="url(#clip470)" d="M200.301 162.435 L218.658 162.435 L218.658 166.37 L204.584 166.37 L204.584 174.842 Q205.602 174.495 206.621 174.333 Q207.639 174.147 208.658 174.147 Q214.445 174.147 217.824 177.319 Q221.204 180.49 221.204 185.907 Q221.204 191.485 217.732 194.587 Q214.26 197.666 207.94 197.666 Q205.764 197.666 203.496 197.296 Q201.25 196.925 198.843 196.184 L198.843 191.485 Q200.926 192.62 203.149 193.175 Q205.371 193.731 207.848 193.731 Q211.852 193.731 214.19 191.624 Q216.528 189.518 216.528 185.907 Q216.528 182.296 214.19 180.189 Q211.852 178.083 207.848 178.083 Q205.973 178.083 204.098 178.499 Q202.246 178.916 200.301 179.796 L200.301 162.435 Z" fill="#000000" fill-rule="evenodd" fill-opacity="1" /><path clip-path="url(#clip470)" d="M64.0042 906.863 L16.4842 925.005 L16.4842 918.289 L56.4926 903.234 L16.4842 888.147 L16.4842 881.463 L64.0042 899.574 L64.0042 906.863 Z" fill="#000000" fill-rule="evenodd" fill-opacity="1" /><path clip-path="url(#clip470)" d="M44.7161 849.348 L47.5806 849.348 L47.5806 876.275 Q53.6281 875.893 56.8109 872.647 Q59.9619 869.369 59.9619 863.544 Q59.9619 860.17 59.1344 857.019 Q58.3069 853.836 56.6518 850.717 L62.1899 850.717 Q63.5267 853.868 64.227 857.178 Q64.9272 860.488 64.9272 863.894 Q64.9272 872.424 59.9619 877.421 Q54.9967 882.386 46.5303 882.386 Q37.7774 882.386 32.6531 877.676 Q27.4968 872.933 27.4968 864.913 Q27.4968 857.719 32.1438 853.55 Q36.7589 849.348 44.7161 849.348 M42.9973 855.205 Q38.1912 855.269 35.3266 857.91 Q32.4621 860.52 32.4621 864.849 Q32.4621 869.751 35.2312 872.711 Q38.0002 875.639 43.0292 876.084 L42.9973 855.205 Z" fill="#000000" fill-rule="evenodd" fill-opacity="1" /><path clip-path="url(#clip470)" d="M14.479 839.736 L14.479 833.88 L64.0042 833.88 L64.0042 839.736 L14.479 839.736 Z" fill="#000000" fill-rule="evenodd" fill-opacity="1" /><path clip-path="url(#clip470)" d="M55.9197 820.798 L55.9197 814.082 L64.0042 814.082 L64.0042 820.798 L55.9197 820.798 Z" fill="#000000" fill-rule="evenodd" fill-opacity="1" /><path clip-path="url(#clip470)" d="M14.479 780.726 L14.479 767.231 L19.0304 767.231 L19.0304 774.87 L68.0464 774.87 L68.0464 767.231 L72.5979 767.231 L72.5979 780.726 L14.479 780.726 Z" fill="#000000" fill-rule="evenodd" fill-opacity="1" /><path clip-path="url(#clip470)" d="M35.1993 727 Q31.2526 724.803 29.3747 721.748 Q27.4968 718.692 27.4968 714.555 Q27.4968 708.985 31.4117 705.961 Q35.2948 702.937 42.4881 702.937 L64.0042 702.937 L64.0042 708.825 L42.679 708.825 Q37.5546 708.825 35.072 710.64 Q32.5894 712.454 32.5894 716.178 Q32.5894 720.729 35.6131 723.371 Q38.6368 726.013 43.8567 726.013 L64.0042 726.013 L64.0042 731.901 L42.679 731.901 Q37.5228 731.901 35.072 733.715 Q32.5894 735.53 32.5894 739.317 Q32.5894 743.805 35.6449 746.447 Q38.6686 749.089 43.8567 749.089 L64.0042 749.089 L64.0042 754.977 L28.3562 754.977 L28.3562 749.089 L33.8944 749.089 Q30.616 747.083 29.0564 744.282 Q27.4968 741.482 27.4968 737.63 Q27.4968 733.747 29.4702 731.042 Q31.4436 728.305 35.1993 727 Z" fill="#000000" fill-rule="evenodd" fill-opacity="1" /><path clip-path="url(#clip470)" d="M16.4842 680.848 L16.4842 675.437 L70.0516 691.988 L70.0516 697.399 L16.4842 680.848 Z" fill="#000000" fill-rule="evenodd" fill-opacity="1" /><path clip-path="url(#clip470)" d="M29.4065 646.569 L34.9447 646.569 Q33.6716 649.051 33.035 651.725 Q32.3984 654.399 32.3984 657.263 Q32.3984 661.624 33.7352 663.82 Q35.072 665.984 37.7456 665.984 Q39.7826 665.984 40.9603 664.425 Q42.1061 662.865 43.1565 658.154 L43.6021 656.149 Q44.9389 649.911 47.3897 647.301 Q49.8086 644.659 54.1691 644.659 Q59.1344 644.659 62.0308 648.606 Q64.9272 652.521 64.9272 659.396 Q64.9272 662.26 64.3543 665.38 Q63.8132 668.467 62.6992 671.904 L56.6518 671.904 Q58.3387 668.658 59.198 665.507 Q60.0256 662.356 60.0256 659.268 Q60.0256 655.131 58.6251 652.903 Q57.1929 650.675 54.6147 650.675 Q52.2276 650.675 50.9545 652.298 Q49.6813 653.889 48.5037 659.332 L48.0262 661.369 Q46.8804 666.812 44.5251 669.231 Q42.138 671.65 38.0002 671.65 Q32.9713 671.65 30.2341 668.085 Q27.4968 664.52 27.4968 657.963 Q27.4968 654.717 27.9743 651.852 Q28.4517 648.988 29.4065 646.569 Z" fill="#000000" fill-rule="evenodd" fill-opacity="1" /><path clip-path="url(#clip470)" d="M14.479 621.647 L72.5979 621.647 L72.5979 635.142 L68.0464 635.142 L68.0464 627.535 L19.0304 627.535 L19.0304 635.142 L14.479 635.142 L14.479 621.647 Z" fill="#000000" fill-rule="evenodd" fill-opacity="1" /><path clip-path="url(#clip470)" d="M1166.9 72.576 L1143.81 12.096 L1152.36 12.096 L1171.52 63.0159 L1190.72 12.096 L1199.23 12.096 L1176.18 72.576 L1166.9 72.576 Z" fill="#000000" fill-rule="evenodd" fill-opacity="1" /><path clip-path="url(#clip470)" d="M1240.1 48.0275 L1240.1 51.6733 L1205.83 51.6733 Q1206.32 59.3701 1210.45 63.421 Q1214.62 67.4314 1222.04 67.4314 Q1226.33 67.4314 1230.34 66.3781 Q1234.39 65.3249 1238.36 63.2184 L1238.36 70.267 Q1234.35 71.9684 1230.14 72.8596 Q1225.93 73.7508 1221.59 73.7508 Q1210.74 73.7508 1204.38 67.4314 Q1198.06 61.1119 1198.06 50.3365 Q1198.06 39.1965 1204.05 32.6746 Q1210.09 26.1121 1220.3 26.1121 Q1229.45 26.1121 1234.76 32.0264 Q1240.1 37.9003 1240.1 48.0275 M1232.65 45.84 Q1232.57 39.7232 1229.21 36.0774 Q1225.89 32.4315 1220.38 32.4315 Q1214.14 32.4315 1210.37 35.9558 Q1206.64 39.4801 1206.08 45.8805 L1232.65 45.84 Z" fill="#000000" fill-rule="evenodd" fill-opacity="1" /><path clip-path="url(#clip470)" d="M1252.34 9.54393 L1259.79 9.54393 L1259.79 72.576 L1252.34 72.576 L1252.34 9.54393 Z" fill="#000000" fill-rule="evenodd" fill-opacity="1" /><path clip-path="url(#clip470)" d="M1292.97 32.4315 Q1286.97 32.4315 1283.49 37.1306 Q1280.01 41.7891 1280.01 49.9314 Q1280.01 58.0738 1283.45 62.7728 Q1286.93 67.4314 1292.97 67.4314 Q1298.92 67.4314 1302.41 62.7323 Q1305.89 58.0333 1305.89 49.9314 Q1305.89 41.8701 1302.41 37.1711 Q1298.92 32.4315 1292.97 32.4315 M1292.97 26.1121 Q1302.69 26.1121 1308.24 32.4315 Q1313.79 38.7509 1313.79 49.9314 Q1313.79 61.0714 1308.24 67.4314 Q1302.69 73.7508 1292.97 73.7508 Q1283.21 73.7508 1277.66 67.4314 Q1272.15 61.0714 1272.15 49.9314 Q1272.15 38.7509 1277.66 32.4315 Q1283.21 26.1121 1292.97 26.1121 Z" fill="#000000" fill-rule="evenodd" fill-opacity="1" /><path clip-path="url(#clip470)" d="M1358.8 28.9478 L1358.8 35.9153 Q1355.64 34.1734 1352.44 33.3227 Q1349.28 32.4315 1346.04 32.4315 Q1338.78 32.4315 1334.77 37.0496 Q1330.76 41.6271 1330.76 49.9314 Q1330.76 58.2358 1334.77 62.8538 Q1338.78 67.4314 1346.04 67.4314 Q1349.28 67.4314 1352.44 66.5807 Q1355.64 65.6895 1358.8 63.9476 L1358.8 70.8341 Q1355.68 72.2924 1352.31 73.0216 Q1348.99 73.7508 1345.23 73.7508 Q1334.98 73.7508 1328.94 67.3098 Q1322.91 60.8689 1322.91 49.9314 Q1322.91 38.832 1328.98 32.472 Q1335.1 26.1121 1345.71 26.1121 Q1349.16 26.1121 1352.44 26.8413 Q1355.72 27.5299 1358.8 28.9478 Z" fill="#000000" fill-rule="evenodd" fill-opacity="1" /><path clip-path="url(#clip470)" d="M1371.76 27.2059 L1379.21 27.2059 L1379.21 72.576 L1371.76 72.576 L1371.76 27.2059 M1371.76 9.54393 L1379.21 9.54393 L1379.21 18.9825 L1371.76 18.9825 L1371.76 9.54393 Z" fill="#000000" fill-rule="evenodd" fill-opacity="1" /><path clip-path="url(#clip470)" d="M1402.18 14.324 L1402.18 27.2059 L1417.53 27.2059 L1417.53 32.9987 L1402.18 32.9987 L1402.18 57.6282 Q1402.18 63.1779 1403.68 64.7578 Q1405.22 66.3376 1409.88 66.3376 L1417.53 66.3376 L1417.53 72.576 L1409.88 72.576 Q1401.25 72.576 1397.97 69.3758 Q1394.69 66.1351 1394.69 57.6282 L1394.69 32.9987 L1389.22 32.9987 L1389.22 27.2059 L1394.69 27.2059 L1394.69 14.324 L1402.18 14.324 Z" fill="#000000" fill-rule="evenodd" fill-opacity="1" /><path clip-path="url(#clip470)" d="M1446.21 76.7889 Q1443.06 84.8907 1440.06 87.3618 Q1437.06 89.8329 1432.04 89.8329 L1426.08 89.8329 L1426.08 83.5945 L1430.46 83.5945 Q1433.54 83.5945 1435.24 82.1361 Q1436.94 80.6778 1439 75.2496 L1440.34 71.8468 L1421.99 27.2059 L1429.89 27.2059 L1444.07 62.6918 L1458.25 27.2059 L1466.15 27.2059 L1446.21 76.7889 Z" fill="#000000" fill-rule="evenodd" fill-opacity="1" /><polyline clip-path="url(#clip472)" style="stroke:#009af9; stroke-linecap:butt; stroke-linejoin:round; stroke-width:4; stroke-opacity:1; fill:none" points="
  316.512,897.829 317.212,897.823 317.913,897.814 318.613,897.8 319.313,897.786 320.013,897.771 320.714,897.756 321.414,897.74 322.114,897.722 322.815,897.704 
  323.515,897.694 324.215,897.691 324.915,897.695 325.616,897.707 326.316,897.729 327.016,897.761 327.716,897.8 328.417,897.845 329.117,897.895 329.817,897.951 
  330.518,898.014 331.218,898.09 331.918,898.175 332.618,898.271 333.319,898.376 334.019,898.481 334.719,898.59 335.42,898.702 336.12,898.816 336.82,898.936 
  337.52,899.064 338.221,899.197 338.921,899.336 339.621,899.47 340.321,899.604 341.022,899.742 341.722,899.88 342.422,900.018 343.123,900.155 343.823,900.295 
  344.523,900.438 345.223,900.578 345.924,900.716 346.624,900.857 347.324,900.999 348.024,901.148 348.725,901.306 349.425,901.463 350.125,901.621 350.826,901.783 
  351.526,901.946 352.226,902.116 352.926,902.289 353.627,902.463 354.327,902.631 355.027,902.799 355.728,902.972 356.428,903.144 357.128,903.321 357.828,903.502 
  358.529,903.681 359.229,903.858 359.929,904.028 360.63,904.194 361.33,904.358 362.03,904.525 362.73,904.693 363.431,904.855 364.131,905.012 364.831,905.165 
  365.531,905.315 366.232,905.465 366.932,905.614 367.632,905.761 368.333,905.903 369.033,906.038 369.733,906.17 370.433,906.298 371.134,906.426 371.834,906.554 
  372.534,906.677 373.235,906.798 373.935,906.915 374.635,907.03 375.335,907.145 376.036,907.252 376.736,907.357 377.436,907.464 378.137,907.569 378.837,907.671 
  379.537,907.772 380.237,907.871 380.938,907.969 381.638,908.061 382.338,908.154 383.039,908.246 383.739,908.333 384.439,908.424 385.139,908.512 385.84,908.601 
  386.54,908.691 387.24,908.783 387.941,908.873 388.641,908.962 389.341,909.05 390.041,909.14 390.742,909.234 391.442,909.329 392.142,909.426 392.842,909.523 
  393.543,909.616 394.243,909.706 394.943,909.795 395.644,909.884 396.344,909.973 397.044,910.068 397.744,910.163 398.445,910.26 399.145,910.359 399.845,910.457 
  400.546,910.554 401.246,910.648 401.946,910.741 402.646,910.836 403.347,910.933 404.047,911.033 404.747,911.137 405.448,911.244 406.148,911.354 406.848,911.46 
  407.548,911.564 408.249,911.669 408.949,911.773 409.649,911.876 410.35,911.98 411.05,912.085 411.75,912.19 412.45,912.293 413.151,912.394 413.851,912.495 
  414.551,912.595 415.252,912.693 415.952,912.789 416.652,912.886 417.352,912.981 418.053,913.074 418.753,913.161 419.453,913.241 420.154,913.319 420.854,913.4 
  421.554,913.482 422.254,913.565 422.955,913.643 423.655,913.717 424.355,913.786 425.056,913.846 425.756,913.904 426.456,913.953 427.156,913.997 427.857,914.039 
  428.557,914.08 429.257,914.124 429.958,914.164 430.658,914.196 431.358,914.224 432.058,914.248 432.759,914.269 433.459,914.286 434.159,914.304 434.86,914.323 
  435.56,914.337 436.26,914.348 436.96,914.356 437.661,914.363 438.361,914.366 439.061,914.363 439.762,914.359 440.462,914.355 441.162,914.349 441.862,914.346 
  442.563,914.339 443.263,914.332 443.963,914.321 444.664,914.307 445.364,914.293 446.064,914.277 446.764,914.264 447.465,914.252 448.165,914.241 448.865,914.228 
  449.566,914.213 450.266,914.193 450.966,914.17 451.667,914.143 452.367,914.117 453.067,914.093 453.767,914.072 454.468,914.051 455.168,914.029 455.868,914.002 
  456.569,913.975 457.269,913.944 457.969,913.911 458.669,913.876 459.37,913.842 460.07,913.81 460.77,913.779 461.471,913.751 462.171,913.722 462.871,913.692 
  463.571,913.664 464.272,913.641 464.972,913.616 465.672,913.593 466.373,913.576 467.073,913.563 467.773,913.554 468.473,913.547 469.174,913.543 469.874,913.54 
  470.574,913.54 471.275,913.545 471.975,913.555 472.675,913.564 473.375,913.578 474.076,913.593 474.776,913.609 475.476,913.625 476.177,913.643 476.877,913.663 
  477.577,913.688 478.277,913.717 478.978,913.748 479.678,913.779 480.378,913.81 481.079,913.838 481.779,913.864 482.479,913.89 483.179,913.919 483.88,913.954 
  484.58,913.993 485.28,914.028 485.981,914.059 486.681,914.088 487.381,914.116 488.081,914.142 488.782,914.176 489.482,914.216 490.182,914.259 490.883,914.301 
  491.583,914.34 492.283,914.378 492.984,914.413 493.684,914.445 494.384,914.476 495.084,914.509 495.785,914.538 496.485,914.568 497.185,914.595 497.886,914.627 
  498.586,914.665 499.286,914.701 499.986,914.73 500.687,914.751 501.387,914.762 502.087,914.768 502.788,914.774 503.488,914.786 504.188,914.803 504.888,914.827 
  505.589,914.851 506.289,914.872 506.989,914.888 507.69,914.901 508.39,914.914 509.09,914.928 509.79,914.947 510.491,914.969 511.191,914.995 511.891,915.022 
  512.592,915.049 513.292,915.077 513.992,915.108 514.692,915.143 515.393,915.183 516.093,915.23 516.793,915.277 517.494,915.324 518.194,915.373 518.894,915.425 
  519.595,915.481 520.295,915.544 520.995,915.614 521.695,915.685 522.396,915.753 523.096,915.825 523.796,915.892 524.497,915.955 525.197,916.024 525.897,916.098 
  526.597,916.179 527.298,916.264 527.998,916.351 528.698,916.436 529.399,916.519 530.099,916.6 530.799,916.678 531.499,916.753 532.2,916.827 532.9,916.903 
  533.6,916.978 534.301,917.061 535.001,917.146 535.701,917.229 536.402,917.304 537.102,917.375 537.802,917.44 538.502,917.501 539.203,917.562 539.903,917.621 
  540.603,917.678 541.304,917.736 542.004,917.791 542.704,917.838 543.404,917.88 544.105,917.919 544.805,917.953 545.505,917.984 546.206,918.015 546.906,918.055 
  547.606,918.096 548.306,918.135 549.007,918.171 549.707,918.204 550.407,918.234 551.108,918.261 551.808,918.286 552.508,918.314 553.209,918.343 553.909,918.37 
  554.609,918.4 555.309,918.433 556.01,918.461 556.71,918.478 557.41,918.492 558.111,918.505 558.811,918.517 559.511,918.531 560.211,918.545 560.912,918.557 
  561.612,918.567 562.312,918.575 563.013,918.579 563.713,918.582 564.413,918.586 565.113,918.59 565.814,918.59 566.514,918.588 567.214,918.587 567.915,918.588 
  568.615,918.589 569.315,918.588 570.016,918.581 570.716,918.574 571.416,918.564 572.116,918.556 572.817,918.548 573.517,918.54 574.217,918.532 574.918,918.523 
  575.618,918.511 576.318,918.495 577.018,918.478 577.719,918.466 578.419,918.456 579.119,918.446 579.82,918.433 580.52,918.418 581.22,918.406 581.921,918.391 
  582.621,918.381 583.321,918.371 584.021,918.36 584.722,918.353 585.422,918.35 586.122,918.352 586.823,918.356 587.523,918.356 588.223,918.355 588.923,918.356 
  589.624,918.357 590.324,918.362 591.024,918.371 591.725,918.387 592.425,918.408 593.125,918.432 593.826,918.453 594.526,918.468 595.226,918.483 595.926,918.501 
  596.627,918.521 597.327,918.542 598.027,918.568 598.728,918.595 599.428,918.623 600.128,918.653 600.828,918.685 601.529,918.72 602.229,918.756 602.929,918.795 
  603.63,918.836 604.33,918.883 605.03,918.929 605.731,918.973 606.431,919.02 607.131,919.069 607.831,919.117 608.532,919.17 609.232,919.228 609.932,919.294 
  610.633,919.368 611.333,919.449 612.033,919.538 612.733,919.635 613.434,919.739 614.134,919.847 614.834,919.963 615.535,920.084 616.235,920.184 616.935,920.313 
  617.636,920.478 618.336,920.663 619.036,920.857 619.736,921.03 620.437,921.18 621.137,921.323 621.837,921.489 622.538,921.663 623.238,921.858 623.938,922.056 
  624.638,922.243 625.339,922.432 626.039,922.633 626.739,922.832 627.44,923.038 628.14,923.282 628.84,923.532 629.541,923.778 630.241,924.008 630.941,924.249 
  631.641,924.465 632.342,924.69 633.042,924.942 633.742,925.224 634.443,925.513 635.143,925.808 635.843,926.09 636.544,926.345 637.244,926.597 637.944,926.841 
  638.644,927.088 639.345,927.339 640.045,927.591 640.745,927.841 641.446,928.077 642.146,928.292 642.846,928.484 643.547,928.687 644.247,928.907 644.947,929.121 
  645.647,929.339 646.348,929.536 647.048,929.696 647.748,929.837 648.449,929.984 649.149,930.128 649.849,930.28 650.55,930.433 651.25,930.559 651.95,930.662 
  652.65,930.768 653.351,930.877 654.051,930.994 654.751,931.087 655.452,931.157 656.152,931.235 656.852,931.346 657.553,931.47 658.253,931.592 658.953,931.697 
  659.653,931.782 660.354,931.879 661.054,932.027 661.754,932.21 662.455,932.39 663.155,932.579 663.855,932.791 664.556,933.031 665.256,933.305 665.956,933.619 
  666.656,933.954 667.357,934.306 668.057,934.683 668.757,935.086 669.458,935.512 670.158,935.949 670.858,936.386 671.559,936.831 672.259,937.309 672.959,937.832 
  673.659,938.385 674.36,938.949 675.06,939.522 675.76,940.118 676.461,940.736 677.161,941.378 677.861,942.036 678.562,942.711 679.262,943.399 679.962,944.101 
  680.662,944.816 681.363,945.537 682.063,946.244 682.763,946.918 683.464,947.538 684.164,948.072 684.864,948.485 685.565,948.744 686.265,948.823 686.965,948.691 
  687.666,948.346 688.366,947.776 689.066,946.964 689.767,945.906 690.467,944.589 691.167,943.015 691.867,941.187 692.568,939.096 693.268,936.723 693.968,934.053 
  694.669,931.08 695.369,927.81 696.069,924.242 696.77,920.372 697.47,916.206 698.17,911.744 698.871,906.985 699.571,901.947 700.271,896.645 700.971,891.081 
  701.672,885.273 702.372,879.248 703.072,873.03 703.773,866.631 704.473,860.059 705.173,853.326 705.874,846.451 706.574,839.436 707.274,832.289 707.975,825.033 
  708.675,817.676 709.375,810.228 710.076,802.7 710.776,795.092 711.476,787.398 712.176,779.632 712.877,771.797 713.577,763.905 714.277,755.951 714.978,747.946 
  715.678,739.884 716.378,731.775 717.079,723.64 717.779,715.469 718.479,707.253 719.18,698.991 719.88,690.706 720.58,682.403 721.281,674.087 721.981,665.754 
  722.681,657.382 723.381,648.994 724.082,640.643 724.782,632.282 725.482,623.909 726.183,615.514 726.883,607.087 727.583,598.661 728.284,590.277 728.984,581.947 
  729.684,573.651 730.385,565.378 731.085,557.165 731.785,549.04 732.486,540.996 733.186,533.06 733.886,525.216 734.586,517.487 735.287,509.901 735.987,502.448 
  736.687,495.153 737.388,488.003 738.088,480.99 738.788,474.132 739.489,467.474 740.189,461.015 740.889,454.719 741.59,448.608 742.29,442.662 742.99,436.899 
  743.691,431.338 744.391,425.979 745.091,420.842 745.791,415.902 746.492,411.172 747.192,406.648 747.892,402.325 748.593,398.223 749.293,394.325 749.993,390.625 
  750.694,387.119 751.394,383.808 752.094,380.701 752.795,377.81 753.495,375.119 754.195,372.603 754.896,370.241 755.596,368.058 756.296,366.045 756.997,364.177 
  757.697,362.464 758.397,360.881 759.097,359.416 759.798,358.062 760.498,356.804 761.198,355.645 761.899,354.561 762.599,353.546 763.299,352.607 764,351.729 
  764.7,350.931 765.4,350.165 766.101,349.424 766.801,348.702 767.501,348.038 768.202,347.394 768.902,346.794 769.602,346.251 770.303,345.721 771.003,345.202 
  771.703,344.69 772.404,344.201 773.104,343.711 773.804,343.263 774.504,342.831 775.205,342.398 775.905,341.938 776.605,341.534 777.306,341.157 778.006,340.825 
  778.706,340.495 779.407,340.141 780.107,339.743 780.807,339.375 781.508,339.064 782.208,338.781 782.908,338.476 783.609,338.135 784.309,337.815 785.009,337.52 
  785.71,337.244 786.41,336.965 787.11,336.699 787.81,336.414 788.511,336.125 789.211,335.843 789.911,335.572 790.612,335.312 791.312,335.047 792.012,334.79 
  792.713,334.516 793.413,334.24 794.113,333.937 794.814,333.626 795.514,333.303 796.214,333.002 796.915,332.71 797.615,332.422 798.315,332.106 799.016,331.786 
  799.716,331.448 800.416,331.08 801.116,330.724 801.817,330.357 802.517,329.968 803.217,329.568 803.918,329.207 804.618,328.853 805.318,328.471 806.019,328.026 
  806.719,327.573 807.419,327.151 808.12,326.727 808.82,326.265 809.52,325.791 810.221,325.342 810.921,324.87 811.621,324.395 812.321,323.911 813.022,323.449 
  813.722,322.96 814.422,322.461 815.123,321.966 815.823,321.496 816.523,321.025 817.224,320.545 817.924,320.048 818.624,319.547 819.325,319.058 820.025,318.565 
  820.725,318.068 821.425,317.555 822.126,317.03 822.826,316.49 823.526,315.957 824.227,315.454 824.927,314.959 825.627,314.421 826.328,313.879 827.028,313.338 
  827.728,312.811 828.429,312.283 829.129,311.755 829.829,311.211 830.529,310.655 831.23,310.128 831.93,309.622 832.63,309.125 833.331,308.63 834.031,308.127 
  834.731,307.605 835.432,307.077 836.132,306.557 836.832,306.058 837.533,305.57 838.233,305.052 838.933,304.535 839.633,304.025 840.334,303.538 841.034,303.046 
  841.734,302.537 842.435,302 843.135,301.48 843.835,300.972 844.536,300.456 845.236,299.951 845.936,299.454 846.637,298.945 847.337,298.421 848.037,297.912 
  848.737,297.415 849.438,296.93 850.138,296.434 850.838,295.953 851.539,295.453 852.239,294.943 852.939,294.465 853.64,294.024 854.34,293.553 855.04,293.08 
  855.74,292.624 856.441,292.194 857.141,291.725 857.841,291.219 858.542,290.734 859.242,290.307 859.942,289.911 860.643,289.467 861.343,288.979 862.043,288.492 
  862.743,288.039 863.444,287.605 864.144,287.169 864.844,286.715 865.545,286.251 866.245,285.802 866.945,285.349 867.646,284.909 868.346,284.48 869.046,284.024 
  869.746,283.545 870.447,283.06 871.147,282.601 871.847,282.147 872.548,281.698 873.248,281.231 873.948,280.756 874.649,280.288 875.349,279.869 876.049,279.443 
  876.749,278.943 877.45,278.46 878.15,278.028 878.85,277.586 879.551,277.144 880.251,276.751 880.951,276.3 881.652,275.838 882.352,275.38 883.052,274.958 
  883.752,274.528 884.453,274.095 885.153,273.652 885.853,273.227 886.554,272.79 887.254,272.351 887.954,271.929 888.655,271.51 889.355,271.08 890.055,270.613 
  890.755,270.186 891.456,269.797 892.156,269.397 892.856,268.95 893.557,268.507 894.257,268.067 894.957,267.657 895.658,267.238 896.358,266.824 897.058,266.414 
  897.758,265.977 898.459,265.529 899.159,265.087 899.859,264.681 900.56,264.282 901.26,263.874 901.96,263.426 902.661,262.995 903.361,262.57 904.061,262.134 
  904.761,261.677 905.462,261.245 906.162,260.827 906.862,260.394 907.563,259.97 908.263,259.547 908.963,259.126 909.663,258.712 910.364,258.343 911.064,257.931 
  911.764,257.517 912.465,257.123 913.165,256.732 913.865,256.34 914.566,255.977 915.266,255.62 915.966,255.26 916.666,254.882 917.367,254.47 918.067,254.082 
  918.767,253.704 919.468,253.361 920.168,252.998 920.868,252.65 921.568,252.314 922.269,252.057 922.969,251.861 923.669,251.689 924.37,251.545 925.07,251.438 
  925.77,251.433 926.471,251.512 927.171,251.702 927.871,251.941 928.571,252.262 929.272,252.652 929.972,253.118 930.672,253.641 931.373,254.259 932.073,254.947 
  932.773,255.656 933.474,256.422 934.174,257.273 934.874,258.195 935.574,259.139 936.275,260.126 936.975,261.134 937.675,262.155 938.376,263.192 939.076,264.277 
  939.776,265.373 940.477,266.489 941.177,267.624 941.877,268.753 942.577,269.895 943.278,271.061 943.978,272.214 944.678,273.322 945.379,274.443 946.079,275.596 
  946.779,276.759 947.48,277.907 948.18,279.039 948.88,280.083 949.581,281.094 950.281,282.14 950.981,283.217 951.682,284.23 952.382,285.147 953.082,286.062 
  953.782,286.969 954.483,287.85 955.183,288.723 955.883,289.557 956.584,290.3 957.284,291.012 957.984,291.711 958.685,292.388 959.385,293.027 960.085,293.634 
  960.786,294.201 961.486,294.724 962.186,295.27 962.887,295.792 963.587,296.264 964.287,296.681 964.987,297.089 965.688,297.469 966.388,297.855 967.088,298.222 
  967.789,298.543 968.489,298.809 969.189,299.065 969.89,299.326 970.59,299.539 971.29,299.736 971.991,299.921 972.691,300.082 973.391,300.18 974.092,300.29 
  974.792,300.387 975.492,300.48 976.193,300.534 976.893,300.592 977.593,300.644 978.293,300.679 978.994,300.664 979.694,300.623 980.394,300.578 981.095,300.531 
  981.795,300.485 982.495,300.423 983.196,300.357 983.896,300.292 984.596,300.231 985.297,300.111 985.997,299.979 986.697,299.872 987.398,299.809 988.098,299.744 
  988.798,299.667 989.498,299.612 990.199,299.589 990.899,299.581 991.599,299.561 992.3,299.554 993,299.536 993.7,299.505 994.401,299.443 995.101,299.389 
  995.801,299.324 996.502,299.275 997.202,299.265 997.902,299.269 998.603,299.255 999.303,299.213 1000,299.17 1000.7,299.094 1001.4,299.031 1002.1,298.96 
  1002.8,298.907 1003.5,298.862 1004.21,298.834 1004.91,298.763 1005.61,298.654 1006.31,298.528 1007.01,298.399 1007.71,298.259 1008.41,298.091 1009.11,297.931 
  1009.81,297.777 1010.51,297.615 1011.21,297.433 1011.91,297.274 1012.61,297.116 1013.31,296.941 1014.01,296.776 1014.71,296.641 1015.41,296.505 1016.11,296.323 
  1016.81,296.168 1017.51,296.031 1018.21,295.906 1018.91,295.772 1019.61,295.631 1020.31,295.479 1021.01,295.287 1021.71,295.073 1022.41,294.879 1023.11,294.702 
  1023.81,294.493 1024.51,294.249 1025.21,293.925 1025.91,293.643 1026.62,293.359 1027.32,293.077 1028.02,292.736 1028.72,292.398 1029.42,292.028 1030.12,291.655 
  1030.82,291.263 1031.52,290.885 1032.22,290.51 1032.92,290.131 1033.62,289.737 1034.32,289.3 1035.02,288.859 1035.72,288.393 1036.42,287.934 1037.12,287.437 
  1037.82,286.963 1038.52,286.453 1039.22,285.94 1039.92,285.41 1040.62,284.924 1041.32,284.417 1042.02,283.863 1042.72,283.324 1043.42,282.814 1044.12,282.334 
  1044.82,281.847 1045.52,281.291 1046.22,280.743 1046.92,280.182 1047.62,279.63 1048.32,279.111 1049.03,278.617 1049.73,278.008 1050.43,277.391 1051.13,276.832 
  1051.83,276.326 1052.53,275.819 1053.23,275.264 1053.93,274.65 1054.63,274.074 1055.33,273.528 1056.03,272.995 1056.73,272.452 1057.43,271.91 1058.13,271.345 
  1058.83,270.728 1059.53,270.115 1060.23,269.504 1060.93,268.922 1061.63,268.336 1062.33,267.763 1063.03,267.172 1063.73,266.592 1064.43,265.979 1065.13,265.374 
  1065.83,264.802 1066.53,264.259 1067.23,263.658 1067.93,263.011 1068.63,262.392 1069.33,261.806 1070.03,261.231 1070.73,260.651 1071.43,260.067 1072.14,259.46 
  1072.84,258.855 1073.54,258.249 1074.24,257.647 1074.94,257.056 1075.64,256.483 1076.34,255.884 1077.04,255.265 1077.74,254.669 1078.44,254.073 1079.14,253.488 
  1079.84,252.899 1080.54,252.295 1081.24,251.638 1081.94,251 1082.64,250.406 1083.34,249.829 1084.04,249.239 1084.74,248.642 1085.44,248.057 1086.14,247.462 
  1086.84,246.897 1087.54,246.319 1088.24,245.763 1088.94,245.188 1089.64,244.62 1090.34,244.021 1091.04,243.453 1091.74,242.867 1092.44,242.293 1093.14,241.736 
  1093.84,241.194 1094.54,240.617 1095.25,239.984 1095.95,239.397 1096.65,238.847 1097.35,238.294 1098.05,237.697 1098.75,237.135 1099.45,236.58 1100.15,236.022 
  1100.85,235.431 1101.55,234.866 1102.25,234.327 1102.95,233.78 1103.65,233.229 1104.35,232.678 1105.05,232.145 1105.75,231.604 1106.45,231.082 1107.15,230.557 
  1107.85,230.015 1108.55,229.457 1109.25,228.927 1109.95,228.409 1110.65,227.882 1111.35,227.331 1112.05,226.781 1112.75,226.269 1113.45,225.769 1114.15,225.265 
  1114.85,224.728 1115.55,224.211 1116.25,223.701 1116.95,223.189 1117.65,222.664 1118.35,222.172 1119.06,221.689 1119.76,221.204 1120.46,220.713 1121.16,220.217 
  1121.86,219.737 1122.56,219.26 1123.26,218.789 1123.96,218.319 1124.66,217.863 1125.36,217.387 1126.06,216.917 1126.76,216.44 1127.46,215.975 1128.16,215.481 
  1128.86,215.004 1129.56,214.507 1130.26,214.014 1130.96,213.514 1131.66,212.987 1132.36,212.462 1133.06,211.986 1133.76,211.522 1134.46,211 1135.16,210.445 
  1135.86,209.918 1136.56,209.439 1137.26,208.942 1137.96,208.385 1138.66,207.837 1139.36,207.327 1140.06,206.81 1140.76,206.254 1141.46,205.709 1142.16,205.21 
  1142.87,204.719 1143.57,204.196 1144.27,203.678 1144.97,203.18 1145.67,202.676 1146.37,202.144 1147.07,201.632 1147.77,201.152 1148.47,200.652 1149.17,200.134 
  1149.87,199.602 1150.57,199.086 1151.27,198.552 1151.97,198.018 1152.67,197.489 1153.37,196.983 1154.07,196.462 1154.77,195.943 1155.47,195.441 1156.17,194.932 
  1156.87,194.411 1157.57,193.899 1158.27,193.392 1158.97,192.878 1159.67,192.351 1160.37,191.819 1161.07,191.316 1161.77,190.821 1162.47,190.323 1163.17,189.8 
  1163.87,189.279 1164.57,188.784 1165.27,188.295 1165.97,187.792 1166.67,187.281 1167.38,186.787 1168.08,186.273 1168.78,185.747 1169.48,185.216 1170.18,184.706 
  1170.88,184.196 1171.58,183.77 1172.28,183.17 1172.98,182.572 1173.68,182.08 1174.38,181.657 1175.08,181.183 1175.78,180.6 1176.48,180.021 1177.18,179.489 
  1177.88,178.994 1178.58,178.517 1179.28,178.072 1179.98,177.59 1180.68,177.082 1181.38,176.55 1182.08,176.061 1182.78,175.607 1183.48,175.155 1184.18,174.661 
  1184.88,174.183 1185.58,173.719 1186.28,173.225 1186.98,172.748 1187.68,172.303 1188.38,171.846 1189.08,171.337 1189.78,170.854 1190.48,170.389 1191.18,169.94 
  1191.89,169.45 1192.59,168.946 1193.29,168.465 1193.99,168.006 1194.69,167.516 1195.39,167.022 1196.09,166.557 1196.79,166.103 1197.49,165.636 1198.19,165.125 
  1198.89,164.623 1199.59,164.151 1200.29,163.689 1200.99,163.227 1201.69,162.737 1202.39,162.264 1203.09,161.824 1203.79,161.473 1204.49,161.109 1205.19,160.738 
  1205.89,160.435 1206.59,160.282 1207.29,160.256 1207.99,160.314 1208.69,160.424 1209.39,160.642 1210.09,161.037 1210.79,161.63 1211.49,162.458 1212.19,163.427 
  1212.89,164.518 1213.59,165.817 1214.29,167.385 1214.99,169.199 1215.69,171.268 1216.4,173.549 1217.1,176.026 1217.8,178.725 1218.5,181.683 1219.2,184.888 
  1219.9,188.316 1220.6,191.964 1221.3,195.812 1222,199.853 1222.7,204.072 1223.4,208.472 1224.1,213.018 1224.8,217.698 1225.5,222.49 1226.2,227.439 
  1226.9,232.454 1227.6,237.549 1228.3,242.77 1229,248.077 1229.7,253.429 1230.4,258.829 1231.1,264.293 1231.8,269.842 1232.5,275.458 1233.2,281.134 
  1233.9,286.854 1234.6,292.607 1235.3,298.409 1236,304.255 1236.7,310.143 1237.4,316.08 1238.1,322.043 1238.8,328.027 1239.5,334.067 1240.2,340.129 
  1240.91,346.188 1241.61,352.281 1242.31,358.412 1243.01,364.549 1243.71,370.704 1244.41,376.898 1245.11,383.1 1245.81,389.3 1246.51,395.525 1247.21,401.781 
  1247.91,408.052 1248.61,414.34 1249.31,420.644 1250.01,426.956 1250.71,433.276 1251.41,439.603 1252.11,445.943 1252.81,452.305 1253.51,458.685 1254.21,465.047 
  1254.91,471.397 1255.61,477.77 1256.31,484.149 1257.01,490.546 1257.71,496.963 1258.41,503.36 1259.11,509.765 1259.81,516.184 1260.51,522.609 1261.21,529.025 
  1261.91,535.469 1262.61,541.916 1263.31,548.356 1264.01,554.792 1264.71,561.233 1265.41,567.683 1266.12,574.132 1266.82,580.554 1267.52,586.935 1268.22,593.271 
  1268.92,599.549 1269.62,605.79 1270.32,611.944 1271.02,617.993 1271.72,623.921 1272.42,629.742 1273.12,635.42 1273.82,640.942 1274.52,646.302 1275.22,651.503 
  1275.92,656.504 1276.62,661.301 1277.32,665.885 1278.02,670.275 1278.72,674.429 1279.42,678.367 1280.12,682.093 1280.82,685.615 1281.52,688.906 1282.22,691.977 
  1282.92,694.844 1283.62,697.502 1284.32,699.949 1285.02,702.222 1285.72,704.303 1286.42,706.16 1287.12,707.86 1287.82,709.416 1288.52,710.816 1289.22,712.111 
  1289.92,713.338 1290.62,714.462 1291.33,715.458 1292.03,716.387 1292.73,717.266 1293.43,718.11 1294.13,718.924 1294.83,719.72 1295.53,720.503 1296.23,721.274 
  1296.93,722.068 1297.63,722.824 1298.33,723.56 1299.03,724.285 1299.73,724.993 1300.43,725.638 1301.13,726.272 1301.83,726.855 1302.53,727.351 1303.23,727.82 
  1303.93,728.243 1304.63,728.592 1305.33,728.908 1306.03,729.157 1306.73,729.33 1307.43,729.453 1308.13,729.567 1308.83,729.644 1309.53,729.686 1310.23,729.689 
  1310.93,729.659 1311.63,729.6 1312.33,729.512 1313.03,729.464 1313.73,729.388 1314.43,729.272 1315.13,729.101 1315.83,728.893 1316.54,728.677 1317.24,728.453 
  1317.94,728.217 1318.64,727.965 1319.34,727.704 1320.04,727.426 1320.74,727.138 1321.44,726.841 1322.14,726.521 1322.84,726.186 1323.54,725.865 1324.24,725.532 
  1324.94,725.175 1325.64,724.81 1326.34,724.435 1327.04,724.046 1327.74,723.652 1328.44,723.264 1329.14,722.877 1329.84,722.476 1330.54,722.076 1331.24,721.675 
  1331.94,721.258 1332.64,720.837 1333.34,720.42 1334.04,719.999 1334.74,719.567 1335.44,719.135 1336.14,718.698 1336.84,718.258 1337.54,717.829 1338.24,717.401 
  1338.94,716.965 1339.64,716.523 1340.34,716.078 1341.04,715.629 1341.75,715.184 1342.45,714.744 1343.15,714.305 1343.85,713.861 1344.55,713.419 1345.25,712.978 
  1345.95,712.535 1346.65,712.097 1347.35,711.664 1348.05,711.238 1348.75,710.827 1349.45,710.43 1350.15,710.051 1350.85,709.696 1351.55,709.363 1352.25,709.048 
  1352.95,708.751 1353.65,708.477 1354.35,708.222 1355.05,707.988 1355.75,707.771 1356.45,707.573 1357.15,707.391 1357.85,707.227 1358.55,707.078 1359.25,706.943 
  1359.95,706.821 1360.65,706.711 1361.35,706.617 1362.05,706.53 1362.75,706.452 1363.45,706.383 1364.15,706.311 1364.85,706.246 1365.55,706.195 1366.25,706.147 
  1366.95,706.107 1367.66,706.082 1368.36,706.058 1369.06,706.028 1369.76,706.001 1370.46,705.973 1371.16,705.934 1371.86,705.906 1372.56,705.896 1373.26,705.893 
  1373.96,705.878 1374.66,705.851 1375.36,705.81 1376.06,705.752 1376.76,705.696 1377.46,705.652 1378.16,705.615 1378.86,705.589 1379.56,705.573 1380.26,705.546 
  1380.96,705.502 1381.66,705.461 1382.36,705.421 1383.06,705.384 1383.76,705.378 1384.46,705.38 1385.16,705.359 1385.86,705.352 1386.56,705.354 1387.26,705.362 
  1387.96,705.397 1388.66,705.44 1389.36,705.498 1390.06,705.561 1390.76,705.635 1391.46,705.722 1392.16,705.818 1392.87,705.919 1393.57,706.024 1394.27,706.15 
  1394.97,706.29 1395.67,706.443 1396.37,706.602 1397.07,706.778 1397.77,706.946 1398.47,707.109 1399.17,707.287 1399.87,707.463 1400.57,707.642 1401.27,707.85 
  1401.97,708.07 1402.67,708.285 1403.37,708.493 1404.07,708.686 1404.77,708.861 1405.47,709.046 1406.17,709.249 1406.87,709.44 1407.57,709.623 1408.27,709.81 
  1408.97,709.989 1409.67,710.149 1410.37,710.323 1411.07,710.522 1411.77,710.74 1412.47,710.966 1413.17,711.201 1413.87,711.413 1414.57,711.601 1415.27,711.769 
  1415.97,711.933 1416.67,712.109 1417.38,712.303 1418.08,712.514 1418.78,712.731 1419.48,712.944 1420.18,713.164 1420.88,713.412 1421.58,713.672 1422.28,713.948 
  1422.98,714.231 1423.68,714.511 1424.38,714.795 1425.08,715.099 1425.78,715.435 1426.48,715.798 1427.18,716.159 1427.88,716.515 1428.58,716.877 1429.28,717.257 
  1429.98,717.65 1430.68,718.053 1431.38,718.471 1432.08,718.897 1432.78,719.336 1433.48,719.794 1434.18,720.269 1434.88,720.756 1435.58,721.249 1436.28,721.747 
  1436.98,722.26 1437.68,722.773 1438.38,723.281 1439.08,723.801 1439.78,724.338 1440.48,724.895 1441.18,725.463 1441.89,726.045 1442.59,726.624 1443.29,727.208 
  1443.99,727.82 1444.69,728.478 1445.39,729.194 1446.09,729.978 1446.79,730.842 1447.49,731.789 1448.19,732.828 1448.89,733.991 1449.59,735.264 1450.29,736.649 
  1450.99,738.176 1451.69,739.886 1452.39,741.767 1453.09,743.849 1453.79,746.092 1454.49,748.529 1455.19,751.151 1455.89,753.988 1456.59,757.047 1457.29,760.339 
  1457.99,763.853 1458.69,767.583 1459.39,771.557 1460.09,775.793 1460.79,780.299 1461.49,785.039 1462.19,790.018 1462.89,795.234 1463.59,800.683 1464.29,806.372 
  1465,812.301 1465.7,818.44 1466.4,824.779 1467.1,831.325 1467.8,838.062 1468.5,844.982 1469.2,852.086 1469.9,859.353 1470.6,866.752 1471.3,874.268 
  1472,881.902 1472.7,889.67 1473.4,897.543 1474.1,905.516 1474.8,913.589 1475.5,921.733 1476.2,929.957 1476.9,938.272 1477.6,946.673 1478.3,955.142 
  1479,963.66 1479.7,972.224 1480.4,980.835 1481.1,989.515 1481.8,998.259 1482.5,1007.03 1483.2,1015.82 1483.9,1024.65 1484.6,1033.52 1485.3,1042.4 
  1486,1051.31 1486.7,1060.23 1487.4,1069.17 1488.1,1078.13 1488.81,1087.11 1489.51,1096.08 1490.21,1105.05 1490.91,1113.98 1491.61,1122.89 1492.31,1131.78 
  1493.01,1140.62 1493.71,1149.42 1494.41,1158.16 1495.11,1166.86 1495.81,1175.46 1496.51,1183.98 1497.21,1192.44 1497.91,1200.79 1498.61,1209.02 1499.31,1217.1 
  1500.01,1225.07 1500.71,1232.9 1501.41,1240.6 1502.11,1248.14 1502.81,1255.5 1503.51,1262.69 1504.21,1269.71 1504.91,1276.57 1505.61,1283.25 1506.31,1289.69 
  1507.01,1295.9 1507.71,1301.94 1508.41,1307.75 1509.11,1313.34 1509.81,1318.69 1510.51,1323.85 1511.22,1328.77 1511.92,1333.43 1512.62,1337.83 1513.32,1342.04 
  1514.02,1346.01 1514.72,1349.73 1515.42,1353.15 1516.12,1356.33 1516.82,1359.3 1517.52,1362.05 1518.22,1364.6 1518.92,1366.95 1519.62,1369.1 1520.32,1371.04 
  1521.02,1372.83 1521.72,1374.43 1522.42,1375.92 1523.12,1377.28 1523.82,1378.51 1524.52,1379.55 1525.22,1380.56 1525.92,1381.46 1526.62,1382.29 1527.32,1383 
  1528.02,1383.65 1528.72,1384.19 1529.42,1384.67 1530.12,1385.07 1530.82,1385.45 1531.52,1385.74 1532.22,1385.95 1532.92,1386.09 1533.62,1386.22 1534.33,1386.33 
  1535.03,1386.39 1535.73,1386.4 1536.43,1386.35 1537.13,1386.26 1537.83,1386.14 1538.53,1386.01 1539.23,1385.85 1539.93,1385.67 1540.63,1385.44 1541.33,1385.18 
  1542.03,1384.9 1542.73,1384.63 1543.43,1384.32 1544.13,1383.97 1544.83,1383.58 1545.53,1383.18 1546.23,1382.79 1546.93,1382.42 1547.63,1382.01 1548.33,1381.59 
  1549.03,1381.09 1549.73,1380.59 1550.43,1380.1 1551.13,1379.67 1551.83,1379.16 1552.53,1378.64 1553.23,1378.12 1553.93,1377.61 1554.63,1377.08 1555.33,1376.59 
  1556.03,1376.05 1556.73,1375.44 1557.44,1374.87 1558.14,1374.32 1558.84,1373.78 1559.54,1373.25 1560.24,1372.65 1560.94,1372.02 1561.64,1371.43 1562.34,1370.87 
  1563.04,1370.34 1563.74,1369.73 1564.44,1369.05 1565.14,1368.39 1565.84,1367.81 1566.54,1367.23 1567.24,1366.67 1567.94,1366.02 1568.64,1365.33 1569.34,1364.71 
  1570.04,1364.13 1570.74,1363.57 1571.44,1362.97 1572.14,1362.29 1572.84,1361.65 1573.54,1361.02 1574.24,1360.45 1574.94,1359.87 1575.64,1359.22 1576.34,1358.55 
  1577.04,1357.92 1577.74,1357.31 1578.44,1356.74 1579.14,1356.22 1579.84,1355.7 1580.54,1355.19 1581.25,1354.69 1581.95,1354.23 1582.65,1353.8 1583.35,1353.45 
  1584.05,1353.12 1584.75,1352.86 1585.45,1352.63 1586.15,1352.48 1586.85,1352.39 1587.55,1352.38 1588.25,1352.4 1588.95,1352.49 1589.65,1352.62 1590.35,1352.81 
  1591.05,1353.05 1591.75,1353.38 1592.45,1353.69 1593.15,1354 1593.85,1354.39 1594.55,1354.84 1595.25,1355.27 1595.95,1355.67 1596.65,1356.09 1597.35,1356.55 
  1598.05,1357 1598.75,1357.41 1599.45,1357.83 1600.15,1358.27 1600.85,1358.72 1601.55,1359.13 1602.25,1359.53 1602.95,1359.95 1603.65,1360.37 1604.35,1360.71 
  1605.06,1361.05 1605.76,1361.42 1606.46,1361.78 1607.16,1362.09 1607.86,1362.36 1608.56,1362.64 1609.26,1362.94 1609.96,1363.21 1610.66,1363.43 1611.36,1363.62 
  1612.06,1363.82 1612.76,1363.99 1613.46,1364.14 1614.16,1364.27 1614.86,1364.39 1615.56,1364.44 1616.26,1364.47 1616.96,1364.5 1617.66,1364.56 1618.36,1364.58 
  1619.06,1364.55 1619.76,1364.5 1620.46,1364.45 1621.16,1364.39 1621.86,1364.3 1622.56,1364.21 1623.26,1364.11 1623.96,1363.98 1624.66,1363.8 1625.36,1363.61 
  1626.06,1363.42 1626.76,1363.23 1627.46,1362.97 1628.17,1362.69 1628.87,1362.38 1629.57,1362.06 1630.27,1361.73 1630.97,1361.39 1631.67,1361.01 1632.37,1360.59 
  1633.07,1360.17 1633.77,1359.77 1634.47,1359.35 1635.17,1358.91 1635.87,1358.45 1636.57,1357.99 1637.27,1357.53 1637.97,1357.06 1638.67,1356.57 1639.37,1356.06 
  1640.07,1355.57 1640.77,1355.07 1641.47,1354.52 1642.17,1353.96 1642.87,1353.42 1643.57,1352.9 1644.27,1352.33 1644.97,1351.72 1645.67,1351.11 1646.37,1350.52 
  1647.07,1349.96 1647.77,1349.34 1648.47,1348.7 1649.17,1348.06 1649.87,1347.49 1650.57,1346.91 1651.28,1346.34 1651.98,1345.72 1652.68,1345.12 1653.38,1344.53 
  1654.08,1343.99 1654.78,1343.47 1655.48,1342.85 1656.18,1342.23 1656.88,1341.65 1657.58,1341.13 1658.28,1340.61 1658.98,1340.08 1659.68,1339.47 1660.38,1338.9 
  1661.08,1338.33 1661.78,1337.8 1662.48,1337.29 1663.18,1336.83 1663.88,1336.34 1664.58,1335.85 1665.28,1335.32 1665.98,1334.78 1666.68,1334.3 1667.38,1333.89 
  1668.08,1333.43 1668.78,1332.9 1669.48,1332.45 1670.18,1332.04 1670.88,1331.63 1671.58,1331.21 1672.28,1330.73 1672.98,1330.29 1673.68,1329.89 1674.38,1329.54 
  1675.09,1329.15 1675.79,1328.68 1676.49,1328.21 1677.19,1327.8 1677.89,1327.4 1678.59,1326.97 1679.29,1326.54 1679.99,1326.11 1680.69,1325.66 1681.39,1325.18 
  1682.09,1324.71 1682.79,1324.27 1683.49,1323.84 1684.19,1323.37 1684.89,1322.89 1685.59,1322.41 1686.29,1321.94 1686.99,1321.42 1687.69,1320.9 1688.39,1320.39 
  1689.09,1319.87 1689.79,1319.35 1690.49,1318.82 1691.19,1318.28 1691.89,1317.77 1692.59,1317.24 1693.29,1316.69 1693.99,1316.15 1694.69,1315.64 1695.39,1315.11 
  1696.09,1314.53 1696.79,1313.97 1697.49,1313.46 1698.19,1312.93 1698.9,1312.35 1699.6,1311.77 1700.3,1311.22 1701,1310.69 1701.7,1310.1 1702.4,1309.48 
  1703.1,1308.9 1703.8,1308.33 1704.5,1307.75 1705.2,1307.18 1705.9,1306.62 1706.6,1306.07 1707.3,1305.46 1708,1304.86 1708.7,1304.28 1709.4,1303.73 
  1710.1,1303.18 1710.8,1302.64 1711.5,1302.08 1712.2,1301.54 1712.9,1301.02 1713.6,1300.5 1714.3,1299.98 1715,1299.49 1715.7,1298.96 1716.4,1298.36 
  1717.1,1297.79 1717.8,1297.28 1718.5,1296.81 1719.2,1296.23 1719.9,1295.63 1720.6,1295.07 1721.3,1294.55 1722,1294 1722.71,1293.45 1723.41,1292.93 
  1724.11,1292.36 1724.81,1291.78 1725.51,1291.23 1726.21,1290.71 1726.91,1290.14 1727.61,1289.5 1728.31,1288.89 1729.01,1288.35 1729.71,1287.85 1730.41,1287.3 
  1731.11,1286.71 1731.81,1286.1 1732.51,1285.5 1733.21,1284.88 1733.91,1284.3 1734.61,1283.73 1735.31,1283.17 1736.01,1282.57 1736.71,1281.98 1737.41,1281.43 
  1738.11,1280.87 1738.81,1280.26 1739.51,1279.66 1740.21,1279.09 1740.91,1278.52 1741.61,1277.94 1742.31,1277.36 1743.01,1276.79 1743.71,1276.15 1744.41,1275.52 
  1745.11,1274.92 1745.81,1274.33 1746.51,1273.76 1747.22,1273.18 1747.92,1272.55 1748.62,1271.92 1749.32,1271.34 1750.02,1270.8 1750.72,1270.23 1751.42,1269.61 
  1752.12,1269.02 1752.82,1268.42 1753.52,1267.8 1754.22,1267.18 1754.92,1266.59 1755.62,1266.02 1756.32,1265.41 1757.02,1264.78 1757.72,1264.17 1758.42,1263.59 
  1759.12,1262.97 1759.82,1262.33 1760.52,1261.71 1761.22,1261.13 1761.92,1260.51 1762.62,1259.87 1763.32,1259.24 1764.02,1258.65 1764.72,1258.06 1765.42,1257.46 
  1766.12,1256.87 1766.82,1256.28 1767.52,1255.67 1768.22,1255.03 1768.92,1254.42 1769.62,1253.85 1770.32,1253.29 1771.02,1252.67 1771.73,1252.06 1772.43,1251.47 
  1773.13,1250.88 1773.83,1250.24 1774.53,1249.59 1775.23,1248.99 1775.93,1248.41 1776.63,1247.78 1777.33,1247.15 1778.03,1246.57 1778.73,1245.98 1779.43,1245.37 
  1780.13,1244.71 1780.83,1244.15 1781.53,1243.62 1782.23,1243.08 1782.93,1242.42 1783.63,1241.75 1784.33,1241.14 1785.03,1240.57 1785.73,1240 1786.43,1239.42 
  1787.13,1238.85 1787.83,1238.25 1788.53,1237.64 1789.23,1237.07 1789.93,1236.51 1790.63,1235.92 1791.33,1235.33 1792.03,1234.73 1792.73,1234.17 1793.43,1233.58 
  1794.13,1232.95 1794.83,1232.32 1795.53,1231.74 1796.24,1231.17 1796.94,1230.58 1797.64,1229.97 1798.34,1229.4 1799.04,1228.83 1799.74,1228.25 1800.44,1227.61 
  1801.14,1227.02 1801.84,1226.54 1802.54,1226.05 1803.24,1225.44 1803.94,1224.74 1804.64,1224.11 1805.34,1223.58 1806.04,1223.08 1806.74,1222.52 1807.44,1221.9 
  1808.14,1221.29 1808.84,1220.72 1809.54,1220.21 1810.24,1219.74 1810.94,1219.18 1811.64,1218.53 1812.34,1217.93 1813.04,1217.38 1813.74,1216.82 1814.44,1216.32 
  1815.14,1215.83 1815.84,1215.21 1816.54,1214.6 1817.24,1214.06 1817.94,1213.55 1818.64,1213.02 1819.34,1212.48 1820.04,1211.89 1820.74,1211.29 1821.45,1210.73 
  1822.15,1210.18 1822.85,1209.62 1823.55,1209.04 1824.25,1208.45 1824.95,1207.86 1825.65,1207.27 1826.35,1206.69 1827.05,1206.17 1827.75,1205.68 1828.45,1205.13 
  1829.15,1204.55 1829.85,1204.01 1830.55,1203.46 1831.25,1202.9 1831.95,1202.32 1832.65,1201.75 1833.35,1201.2 1834.05,1200.67 1834.75,1200.13 1835.45,1199.61 
  1836.15,1199.02 1836.85,1198.4 1837.55,1197.83 1838.25,1197.29 1838.95,1196.77 1839.65,1196.24 1840.35,1195.65 1841.05,1195.05 1841.75,1194.49 1842.45,1193.94 
  1843.15,1193.38 1843.85,1192.81 1844.55,1192.26 1845.25,1191.71 1845.95,1191.11 1846.66,1190.56 1847.36,1190.03 1848.06,1189.5 1848.76,1188.93 1849.46,1188.34 
  1850.16,1187.78 1850.86,1187.25 1851.56,1186.68 1852.26,1186.11 1852.96,1185.57 1853.66,1185.05 1854.36,1184.47 1855.06,1183.86 1855.76,1183.31 1856.46,1182.8 
  1857.16,1182.25 1857.86,1181.61 1858.56,1181.04 1859.26,1180.52 1859.96,1180.06 1860.66,1179.5 1861.36,1178.87 1862.06,1178.31 1862.76,1177.8 1863.46,1177.31 
  1864.16,1176.79 1864.86,1176.24 1865.56,1175.65 1866.26,1175.06 1866.96,1174.51 1867.66,1174 1868.36,1173.48 1869.06,1172.95 1869.76,1172.38 1870.46,1171.82 
  1871.16,1171.26 1871.87,1170.7 1872.57,1170.16 1873.27,1169.65 1873.97,1169.16 1874.67,1168.6 1875.37,1168.06 1876.07,1167.52 1876.77,1167.02 1877.47,1166.46 
  1878.17,1165.91 1878.87,1165.38 1879.57,1164.86 1880.27,1164.29 1880.97,1163.76 1881.67,1163.22 1882.37,1162.66 1883.07,1162.1 1883.77,1161.56 1884.47,1161.02 
  1885.17,1160.43 1885.87,1159.87 1886.57,1159.3 1887.27,1158.74 1887.97,1158.17 1888.67,1157.61 1889.37,1157.03 1890.07,1156.46 1890.77,1155.9 1891.47,1155.34 
  1892.17,1154.79 1892.87,1154.27 1893.57,1153.75 1894.27,1153.21 1894.97,1152.64 1895.67,1152.08 1896.37,1151.55 1897.07,1151.02 1897.78,1150.49 1898.48,1149.93 
  1899.18,1149.37 1899.88,1148.82 1900.58,1148.25 1901.28,1147.67 1901.98,1147.12 1902.68,1146.6 1903.38,1146.01 1904.08,1145.43 1904.78,1144.87 1905.48,1144.33 
  1906.18,1143.77 1906.88,1143.21 1907.58,1142.68 1908.28,1142.15 1908.98,1141.6 1909.68,1141.02 1910.38,1140.49 1911.08,1139.98 1911.78,1139.45 1912.48,1138.87 
  1913.18,1138.33 1913.88,1137.82 1914.58,1137.3 1915.28,1136.75 1915.98,1136.22 1916.68,1135.67 1917.38,1135.09 1918.08,1134.49 1918.78,1133.92 1919.48,1133.39 
  1920.18,1132.86 1920.88,1132.29 1921.58,1131.72 1922.28,1131.2 1922.98,1130.68 1923.69,1130.12 1924.39,1129.55 1925.09,1129.01 1925.79,1128.52 1926.49,1128 
  1927.19,1127.44 1927.89,1126.9 1928.59,1126.41 1929.29,1125.89 1929.99,1125.39 1930.69,1124.94 1931.39,1124.48 1932.09,1123.95 1932.79,1123.45 1933.49,1122.97 
  1934.19,1122.51 1934.89,1122.05 1935.59,1121.6 1936.29,1121.16 1936.99,1120.73 1937.69,1120.29 1938.39,1119.81 1939.09,1119.38 1939.79,1118.93 1940.49,1118.47 
  1941.19,1117.98 1941.89,1117.51 1942.59,1117.07 1943.29,1116.63 1943.99,1116.17 1944.69,1115.7 1945.39,1115.25 1946.09,1114.79 1946.79,1114.34 1947.49,1113.9 
  1948.19,1113.53 1948.89,1113.12 1949.6,1112.68 1950.3,1112.22 1951,1111.83 1951.7,1111.44 1952.4,1111.01 1953.1,1110.55 1953.8,1110.14 1954.5,1109.76 
  1955.2,1109.37 1955.9,1108.99 1956.6,1108.65 1957.3,1108.33 1958,1108.01 1958.7,1107.72 1959.4,1107.47 1960.1,1107.25 1960.8,1107.06 1961.5,1106.9 
  1962.2,1106.76 1962.9,1106.63 1963.6,1106.56 1964.3,1106.51 1965,1106.52 1965.7,1106.6 1966.4,1106.68 1967.1,1106.74 1967.8,1106.79 1968.5,1106.91 
  1969.2,1107.02 1969.9,1107.11 1970.6,1107.11 1971.3,1107.05 1972,1106.91 1972.7,1106.68 1973.4,1106.32 1974.1,1105.87 1974.81,1105.26 1975.51,1104.47 
  1976.21,1103.51 1976.91,1102.44 1977.61,1101.17 1978.31,1099.67 1979.01,1097.96 1979.71,1096.06 1980.41,1093.97 1981.11,1091.67 1981.81,1089.21 1982.51,1086.58 
  1983.21,1083.81 1983.91,1080.87 1984.61,1077.75 1985.31,1074.47 1986.01,1071.02 1986.71,1067.39 1987.41,1063.6 1988.11,1059.66 1988.81,1055.61 1989.51,1051.46 
  1990.21,1047.21 1990.91,1042.81 1991.61,1038.27 1992.31,1033.62 1993.01,1028.87 1993.71,1024.04 1994.41,1019.12 1995.11,1014.12 1995.81,1009 1996.51,1003.82 
  1997.21,998.576 1997.91,993.263 1998.61,987.864 1999.32,982.405 2000.02,976.892 2000.72,971.336 2001.42,965.76 2002.12,960.139 2002.82,954.496 2003.52,948.849 
  2004.22,943.165 2004.92,937.475 2005.62,931.792 2006.32,926.13 2007.02,920.457 2007.72,914.789 2008.42,909.156 2009.12,903.561 2009.82,897.989 2010.52,892.429 
  2011.22,886.901 2011.92,881.401 2012.62,875.922 2013.32,870.487 2014.02,865.107 2014.72,859.764 2015.42,854.442 2016.12,849.142 2016.82,843.88 2017.52,838.663 
  2018.22,833.478 2018.92,828.311 2019.62,823.172 2020.32,818.055 2021.02,812.951 2021.72,807.866 2022.43,802.823 2023.13,797.785 2023.83,792.753 2024.53,787.726 
  2025.23,782.705 2025.93,777.685 2026.63,772.667 2027.33,767.658 2028.03,762.65 2028.73,757.636 2029.43,752.62 2030.13,747.608 2030.83,742.605 2031.53,737.617 
  2032.23,732.663 2032.93,727.761 2033.63,722.911 2034.33,718.118 2035.03,713.387 2035.73,708.71 2036.43,704.085 2037.13,699.521 2037.83,695.027 2038.53,690.641 
  2039.23,686.368 2039.93,682.207 2040.63,678.171 2041.33,674.283 2042.03,670.559 2042.73,666.986 2043.43,663.577 2044.14,660.327 2044.84,657.222 2045.54,654.289 
  2046.24,651.567 2046.94,649.038 2047.64,646.697 2048.34,644.549 2049.04,642.595 2049.74,640.796 2050.44,639.125 2051.14,637.626 2051.84,636.307 2052.54,635.119 
  2053.24,634.065 2053.94,633.154 2054.64,632.389 2055.34,631.756 2056.04,631.239 2056.74,630.8 2057.44,630.424 2058.14,630.109 2058.84,629.828 2059.54,629.579 
  2060.24,629.368 2060.94,629.151 2061.64,628.962 2062.34,628.832 2063.04,628.771 2063.74,628.765 2064.44,628.833 2065.15,628.917 2065.85,629.031 2066.55,629.231 
  2067.25,629.502 2067.95,629.779 2068.65,630.103 2069.35,630.485 2070.05,630.893 2070.75,631.329 2071.45,631.814 2072.15,632.318 2072.85,632.825 2073.55,633.338 
  2074.25,633.854 2074.95,634.352 2075.65,634.847 2076.35,635.334 2077.05,635.87 2077.75,636.34 2078.45,636.815 2079.15,637.276 2079.85,637.633 2080.55,637.91 
  2081.25,638.149 2081.95,638.355 2082.65,638.533 2083.35,638.696 2084.05,638.808 2084.75,638.862 2085.46,638.873 2086.16,638.819 2086.86,638.718 2087.56,638.578 
  2088.26,638.387 2088.96,638.149 2089.66,637.863 2090.36,637.514 2091.06,637.104 2091.76,636.647 2092.46,636.155 2093.16,635.622 2093.86,635.038 2094.56,634.414 
  2095.26,633.729 2095.96,632.986 2096.66,632.206 2097.36,631.39 2098.06,630.542 2098.76,629.666 2099.46,628.756 2100.16,627.82 2100.86,626.857 2101.56,625.876 
  2102.26,624.869 2102.96,623.834 2103.66,622.78 2104.36,621.696 2105.06,620.585 2105.76,619.458 2106.47,618.322 2107.17,617.174 2107.87,616.011 2108.57,614.834 
  2109.27,613.649 2109.97,612.452 2110.67,611.248 2111.37,610.041 2112.07,608.833 2112.77,607.628 2113.47,606.42 2114.17,605.209 2114.87,603.994 2115.57,602.773 
  2116.27,601.552 2116.97,600.335 2117.67,599.123 2118.37,597.911 2119.07,596.696 2119.77,595.476 2120.47,594.249 2121.17,593.019 2121.87,591.797 2122.57,590.587 
  2123.27,589.383 2123.97,588.189 2124.67,587.003 2125.37,585.816 2126.07,584.629 2126.77,583.445 2127.48,582.263 2128.18,581.085 2128.88,579.915 2129.58,578.752 
  2130.28,577.596 2130.98,576.448 2131.68,575.308 2132.38,574.17 2133.08,573.039 2133.78,571.916 2134.48,570.806 2135.18,569.708 2135.88,568.621 2136.58,567.542 
  2137.28,566.47 2137.98,565.412 2138.68,564.365 2139.38,563.324 2140.08,562.287 2140.78,561.252 2141.48,560.224 2142.18,559.203 2142.88,558.19 2143.58,557.18 
  2144.28,556.173 2144.98,555.167 2145.68,554.162 2146.38,553.163 2147.08,552.173 2147.78,551.188 2148.48,550.21 2149.19,549.237 2149.89,548.267 2150.59,547.304 
  2151.29,546.35 2151.99,545.402 2152.69,544.467 2153.39,543.543 2154.09,542.626 2154.79,541.718 2155.49,540.824 2156.19,539.948 2156.89,539.092 2157.59,538.257 
  2158.29,537.442 2158.99,536.647 2159.69,535.871 2160.39,535.116 2161.09,534.383 2161.79,533.673 2162.49,532.983 2163.19,532.313 2163.89,531.662 2164.59,531.029 
  2165.29,530.416 2165.99,529.815 2166.69,529.23 2167.39,528.66 2168.09,528.106 2168.79,527.566 2169.49,527.036 2170.19,526.514 2170.89,525.998 2171.6,525.484 
  2172.3,524.97 2173,524.458 2173.7,523.947 2174.4,523.441 2175.1,522.935 2175.8,522.434 2176.5,521.934 2177.2,521.432 2177.9,520.929 2178.6,520.419 
  2179.3,519.91 2180,519.398 2180.7,518.882 2181.4,518.359 2182.1,517.833 2182.8,517.308 2183.5,516.781 2184.2,516.255 2184.9,515.72 2185.6,515.178 
  2186.3,514.633 2187,514.086 2187.7,513.539 2188.4,512.987 2189.1,512.436 2189.8,511.884 2190.5,511.33 2191.2,510.771 2191.9,510.208 2192.6,509.644 
  2193.3,509.083 2194,508.525 2194.71,507.968 2195.41,507.408 2196.11,506.847 2196.81,506.288 2197.51,505.729 2198.21,505.174 2198.91,504.622 2199.61,504.075 
  2200.31,503.527 2201.01,502.984 2201.71,502.448 2202.41,501.917 2203.11,501.389 2203.81,500.867 2204.51,500.349 2205.21,499.833 2205.91,499.319 2206.61,498.812 
  2207.31,498.31 2208.01,497.815 2208.71,497.32 2209.41,496.832 2210.11,496.341 2210.81,495.849 2211.51,495.358 2212.21,494.872 2212.91,494.389 2213.61,493.907 
  2214.31,493.425 2215.01,492.944 2215.71,492.466 2216.41,491.987 2217.12,491.51 2217.82,491.031 2218.52,490.554 2219.22,490.075 2219.92,489.599 2220.62,489.127 
  2221.32,488.658 2222.02,488.193 2222.72,487.733 2223.42,487.272 2224.12,486.813 2224.82,486.357 2225.52,485.908 2226.22,485.462 2226.92,485.021 2227.62,484.584 
  2228.32,484.148 2229.02,483.713 2229.72,483.281 2230.42,482.854 2231.12,482.427 2231.82,481.999 2232.52,481.572 2233.22,481.146 2233.92,480.723 2234.62,480.303 
  2235.32,479.887 2236.02,479.476 2236.72,479.061 2237.42,478.648 2238.12,478.236 2238.82,477.826 2239.52,477.418 2240.23,477.018 2240.93,476.615 2241.63,476.211 
  2242.33,475.808 2243.03,475.405 2243.73,475.003 2244.43,474.607 2245.13,474.22 2245.83,473.835 2246.53,473.452 2247.23,473.079 2247.93,472.71 2248.63,472.339 
  2249.33,471.967 2250.03,471.595 2250.73,471.228 2251.43,470.875 2252.13,470.533 2252.83,470.196 2253.53,469.86 2254.23,469.526 2254.93,469.191 2255.63,468.858 
  2256.33,468.529 2257.03,468.205 2257.73,467.88 2258.43,467.557 2259.13,467.24 2259.83,466.923 2260.53,466.608 2261.23,466.296 2261.93,465.987 2262.63,465.681 
  2263.33,465.378 2264.04,465.071 2264.74,464.76 2265.44,464.446 2266.14,464.127 2266.84,463.811 2267.54,463.505 2268.24,463.212 2268.94,462.92 2269.64,462.624 
  2270.34,462.322 2271.04,462.016 2271.74,461.707 2272.44,461.4 2273.14,461.098 2273.84,460.798 2274.54,460.495 2275.24,460.194 2275.94,459.888 2276.64,459.575 
  2277.34,459.267 2278.04,458.959 2278.74,458.65 2279.44,458.339 2280.14,458.03 2280.84,457.724 2281.54,457.418 2282.24,457.114 2282.94,456.816 2283.64,456.522 
  2284.34,456.229 2285.04,455.932 2285.74,455.639 2286.44,455.348 2287.15,455.063 2287.85,454.782 2288.55,454.503 2289.25,454.229 2289.95,453.964 2290.65,453.702 
  2291.35,453.441 2292.05,453.183 2292.75,452.923 2293.45,452.665 
  "/>
<path clip-path="url(#clip470)" d="
M1609.28 270.476 L2282.9 270.476 L2282.9 166.796 L1609.28 166.796  Z
  " fill="#ffffff" fill-rule="evenodd" fill-opacity="1"/>
<polyline clip-path="url(#clip470)" style="stroke:#000000; stroke-linecap:butt; stroke-linejoin:round; stroke-width:4; stroke-opacity:1; fill:none" points="
  1609.28,270.476 2282.9,270.476 2282.9,166.796 1609.28,166.796 1609.28,270.476 
  "/>
<polyline clip-path="url(#clip470)" style="stroke:#009af9; stroke-linecap:butt; stroke-linejoin:round; stroke-width:4; stroke-opacity:1; fill:none" points="
  1632.56,218.636 1772.27,218.636 
  "/>
<path clip-path="url(#clip470)" d="M1816.06 210.985 L1816.06 214.967 Q1814.26 213.971 1812.43 213.485 Q1810.62 212.976 1808.77 212.976 Q1804.63 212.976 1802.33 215.615 Q1800.04 218.231 1800.04 222.976 Q1800.04 227.721 1802.33 230.36 Q1804.63 232.976 1808.77 232.976 Q1810.62 232.976 1812.43 232.49 Q1814.26 231.981 1816.06 230.985 L1816.06 234.92 Q1814.28 235.754 1812.36 236.17 Q1810.46 236.587 1808.31 236.587 Q1802.45 236.587 1799 232.906 Q1795.55 229.226 1795.55 222.976 Q1795.55 216.633 1799.02 212.999 Q1802.52 209.365 1808.58 209.365 Q1810.55 209.365 1812.43 209.782 Q1814.3 210.175 1816.06 210.985 Z" fill="#000000" fill-rule="evenodd" fill-opacity="1" /><path clip-path="url(#clip470)" d="M1835.25 222.883 Q1830.09 222.883 1828.1 224.064 Q1826.11 225.244 1826.11 228.092 Q1826.11 230.36 1827.59 231.703 Q1829.09 233.022 1831.66 233.022 Q1835.2 233.022 1837.33 230.522 Q1839.49 227.999 1839.49 223.832 L1839.49 222.883 L1835.25 222.883 M1843.75 221.124 L1843.75 235.916 L1839.49 235.916 L1839.49 231.981 Q1838.03 234.342 1835.85 235.476 Q1833.68 236.587 1830.53 236.587 Q1826.55 236.587 1824.19 234.365 Q1821.85 232.119 1821.85 228.369 Q1821.85 223.994 1824.76 221.772 Q1827.7 219.55 1833.51 219.55 L1839.49 219.55 L1839.49 219.133 Q1839.49 216.194 1837.54 214.596 Q1835.62 212.976 1832.13 212.976 Q1829.9 212.976 1827.8 213.508 Q1825.69 214.041 1823.75 215.106 L1823.75 211.17 Q1826.08 210.268 1828.28 209.828 Q1830.48 209.365 1832.57 209.365 Q1838.19 209.365 1840.97 212.282 Q1843.75 215.198 1843.75 221.124 Z" fill="#000000" fill-rule="evenodd" fill-opacity="1" /><path clip-path="url(#clip470)" d="M1852.52 199.897 L1856.78 199.897 L1856.78 235.916 L1852.52 235.916 L1852.52 199.897 Z" fill="#000000" fill-rule="evenodd" fill-opacity="1" /><path clip-path="url(#clip470)" d="M1884.35 210.985 L1884.35 214.967 Q1882.54 213.971 1880.71 213.485 Q1878.91 212.976 1877.06 212.976 Q1872.91 212.976 1870.62 215.615 Q1868.33 218.231 1868.33 222.976 Q1868.33 227.721 1870.62 230.36 Q1872.91 232.976 1877.06 232.976 Q1878.91 232.976 1880.71 232.49 Q1882.54 231.981 1884.35 230.985 L1884.35 234.92 Q1882.57 235.754 1880.64 236.17 Q1878.75 236.587 1876.59 236.587 Q1870.74 236.587 1867.29 232.906 Q1863.84 229.226 1863.84 222.976 Q1863.84 216.633 1867.31 212.999 Q1870.81 209.365 1876.87 209.365 Q1878.84 209.365 1880.71 209.782 Q1882.59 210.175 1884.35 210.985 Z" fill="#000000" fill-rule="evenodd" fill-opacity="1" /><path clip-path="url(#clip470)" d="M1891.32 225.684 L1891.32 209.99 L1895.57 209.99 L1895.57 225.522 Q1895.57 229.203 1897.01 231.055 Q1898.44 232.883 1901.32 232.883 Q1904.76 232.883 1906.75 230.684 Q1908.77 228.485 1908.77 224.689 L1908.77 209.99 L1913.03 209.99 L1913.03 235.916 L1908.77 235.916 L1908.77 231.934 Q1907.22 234.295 1905.16 235.453 Q1903.12 236.587 1900.41 236.587 Q1895.94 236.587 1893.63 233.809 Q1891.32 231.031 1891.32 225.684 M1902.03 209.365 L1902.03 209.365 Z" fill="#000000" fill-rule="evenodd" fill-opacity="1" /><path clip-path="url(#clip470)" d="M1921.8 199.897 L1926.06 199.897 L1926.06 235.916 L1921.8 235.916 L1921.8 199.897 Z" fill="#000000" fill-rule="evenodd" fill-opacity="1" /><path clip-path="url(#clip470)" d="M1946.75 222.883 Q1941.59 222.883 1939.6 224.064 Q1937.61 225.244 1937.61 228.092 Q1937.61 230.36 1939.09 231.703 Q1940.6 233.022 1943.17 233.022 Q1946.71 233.022 1948.84 230.522 Q1950.99 227.999 1950.99 223.832 L1950.99 222.883 L1946.75 222.883 M1955.25 221.124 L1955.25 235.916 L1950.99 235.916 L1950.99 231.981 Q1949.53 234.342 1947.36 235.476 Q1945.18 236.587 1942.03 236.587 Q1938.05 236.587 1935.69 234.365 Q1933.35 232.119 1933.35 228.369 Q1933.35 223.994 1936.27 221.772 Q1939.21 219.55 1945.02 219.55 L1950.99 219.55 L1950.99 219.133 Q1950.99 216.194 1949.05 214.596 Q1947.12 212.976 1943.63 212.976 Q1941.41 212.976 1939.3 213.508 Q1937.19 214.041 1935.25 215.106 L1935.25 211.17 Q1937.59 210.268 1939.79 209.828 Q1941.99 209.365 1944.07 209.365 Q1949.69 209.365 1952.47 212.282 Q1955.25 215.198 1955.25 221.124 Z" fill="#000000" fill-rule="evenodd" fill-opacity="1" /><path clip-path="url(#clip470)" d="M1968.24 202.629 L1968.24 209.99 L1977.01 209.99 L1977.01 213.3 L1968.24 213.3 L1968.24 227.374 Q1968.24 230.545 1969.09 231.448 Q1969.97 232.351 1972.63 232.351 L1977.01 232.351 L1977.01 235.916 L1972.63 235.916 Q1967.7 235.916 1965.83 234.087 Q1963.95 232.235 1963.95 227.374 L1963.95 213.3 L1960.83 213.3 L1960.83 209.99 L1963.95 209.99 L1963.95 202.629 L1968.24 202.629 Z" fill="#000000" fill-rule="evenodd" fill-opacity="1" /><path clip-path="url(#clip470)" d="M2004.79 221.888 L2004.79 223.971 L1985.2 223.971 Q1985.48 228.369 1987.84 230.684 Q1990.23 232.976 1994.46 232.976 Q1996.92 232.976 1999.21 232.374 Q2001.52 231.772 2003.79 230.569 L2003.79 234.596 Q2001.5 235.568 1999.09 236.078 Q1996.68 236.587 1994.21 236.587 Q1988 236.587 1984.37 232.976 Q1980.76 229.365 1980.76 223.207 Q1980.76 216.842 1984.18 213.115 Q1987.63 209.365 1993.47 209.365 Q1998.7 209.365 2001.73 212.745 Q2004.79 216.101 2004.79 221.888 M2000.53 220.638 Q2000.48 217.143 1998.56 215.059 Q1996.66 212.976 1993.51 212.976 Q1989.95 212.976 1987.8 214.99 Q1985.67 217.004 1985.34 220.661 L2000.53 220.638 Z" fill="#000000" fill-rule="evenodd" fill-opacity="1" /><path clip-path="url(#clip470)" d="M2028.84 213.925 L2028.84 199.897 L2033.1 199.897 L2033.1 235.916 L2028.84 235.916 L2028.84 232.027 Q2027.49 234.342 2025.43 235.476 Q2023.4 236.587 2020.53 236.587 Q2015.83 236.587 2012.87 232.837 Q2009.93 229.087 2009.93 222.976 Q2009.93 216.865 2012.87 213.115 Q2015.83 209.365 2020.53 209.365 Q2023.4 209.365 2025.43 210.499 Q2027.49 211.61 2028.84 213.925 M2014.32 222.976 Q2014.32 227.675 2016.24 230.36 Q2018.19 233.022 2021.57 233.022 Q2024.95 233.022 2026.89 230.36 Q2028.84 227.675 2028.84 222.976 Q2028.84 218.277 2026.89 215.615 Q2024.95 212.93 2021.57 212.93 Q2018.19 212.93 2016.24 215.615 Q2014.32 218.277 2014.32 222.976 Z" fill="#000000" fill-rule="evenodd" fill-opacity="1" /><path clip-path="url(#clip470)" d="M2053.88 209.99 L2058.4 209.99 L2066.5 231.749 L2074.6 209.99 L2079.11 209.99 L2069.39 235.916 L2063.61 235.916 L2053.88 209.99 Z" fill="#000000" fill-rule="evenodd" fill-opacity="1" /><path clip-path="url(#clip470)" d="M2107.17 221.888 L2107.17 223.971 L2087.59 223.971 Q2087.86 228.369 2090.23 230.684 Q2092.61 232.976 2096.85 232.976 Q2099.3 232.976 2101.59 232.374 Q2103.91 231.772 2106.18 230.569 L2106.18 234.596 Q2103.88 235.568 2101.48 236.078 Q2099.07 236.587 2096.59 236.587 Q2090.39 236.587 2086.75 232.976 Q2083.14 229.365 2083.14 223.207 Q2083.14 216.842 2086.57 213.115 Q2090.02 209.365 2095.85 209.365 Q2101.08 209.365 2104.11 212.745 Q2107.17 216.101 2107.17 221.888 M2102.91 220.638 Q2102.86 217.143 2100.94 215.059 Q2099.05 212.976 2095.9 212.976 Q2092.33 212.976 2090.18 214.99 Q2088.05 217.004 2087.73 220.661 L2102.91 220.638 Z" fill="#000000" fill-rule="evenodd" fill-opacity="1" /><path clip-path="url(#clip470)" d="M2114.16 199.897 L2118.42 199.897 L2118.42 235.916 L2114.16 235.916 L2114.16 199.897 Z" fill="#000000" fill-rule="evenodd" fill-opacity="1" /><path clip-path="url(#clip470)" d="M2137.38 212.976 Q2133.95 212.976 2131.96 215.661 Q2129.97 218.323 2129.97 222.976 Q2129.97 227.629 2131.94 230.314 Q2133.93 232.976 2137.38 232.976 Q2140.78 232.976 2142.77 230.291 Q2144.76 227.606 2144.76 222.976 Q2144.76 218.37 2142.77 215.684 Q2140.78 212.976 2137.38 212.976 M2137.38 209.365 Q2142.93 209.365 2146.11 212.976 Q2149.28 216.587 2149.28 222.976 Q2149.28 229.342 2146.11 232.976 Q2142.93 236.587 2137.38 236.587 Q2131.8 236.587 2128.63 232.976 Q2125.48 229.342 2125.48 222.976 Q2125.48 216.587 2128.63 212.976 Q2131.8 209.365 2137.38 209.365 Z" fill="#000000" fill-rule="evenodd" fill-opacity="1" /><path clip-path="url(#clip470)" d="M2174.99 210.985 L2174.99 214.967 Q2173.19 213.971 2171.36 213.485 Q2169.55 212.976 2167.7 212.976 Q2163.56 212.976 2161.27 215.615 Q2158.98 218.231 2158.98 222.976 Q2158.98 227.721 2161.27 230.36 Q2163.56 232.976 2167.7 232.976 Q2169.55 232.976 2171.36 232.49 Q2173.19 231.981 2174.99 230.985 L2174.99 234.92 Q2173.21 235.754 2171.29 236.17 Q2169.39 236.587 2167.24 236.587 Q2161.38 236.587 2157.93 232.906 Q2154.48 229.226 2154.48 222.976 Q2154.48 216.633 2157.96 212.999 Q2161.45 209.365 2167.52 209.365 Q2169.48 209.365 2171.36 209.782 Q2173.23 210.175 2174.99 210.985 Z" fill="#000000" fill-rule="evenodd" fill-opacity="1" /><path clip-path="url(#clip470)" d="M2182.4 209.99 L2186.66 209.99 L2186.66 235.916 L2182.4 235.916 L2182.4 209.99 M2182.4 199.897 L2186.66 199.897 L2186.66 205.291 L2182.4 205.291 L2182.4 199.897 Z" fill="#000000" fill-rule="evenodd" fill-opacity="1" /><path clip-path="url(#clip470)" d="M2199.79 202.629 L2199.79 209.99 L2208.56 209.99 L2208.56 213.3 L2199.79 213.3 L2199.79 227.374 Q2199.79 230.545 2200.64 231.448 Q2201.52 232.351 2204.18 232.351 L2208.56 232.351 L2208.56 235.916 L2204.18 235.916 Q2199.25 235.916 2197.38 234.087 Q2195.5 232.235 2195.5 227.374 L2195.5 213.3 L2192.38 213.3 L2192.38 209.99 L2195.5 209.99 L2195.5 202.629 L2199.79 202.629 Z" fill="#000000" fill-rule="evenodd" fill-opacity="1" /><path clip-path="url(#clip470)" d="M2224.95 238.323 Q2223.14 242.953 2221.43 244.365 Q2219.72 245.777 2216.85 245.777 L2213.44 245.777 L2213.44 242.212 L2215.94 242.212 Q2217.7 242.212 2218.67 241.379 Q2219.65 240.545 2220.83 237.443 L2221.59 235.499 L2211.11 209.99 L2215.62 209.99 L2223.72 230.268 L2231.82 209.99 L2236.34 209.99 L2224.95 238.323 Z" fill="#000000" fill-rule="evenodd" fill-opacity="1" /></svg>
