<?xml version="1.0" encoding="utf-8"?>
<svg xmlns="http://www.w3.org/2000/svg" xmlns:xlink="http://www.w3.org/1999/xlink" width="600" height="400" viewBox="0 0 2400 1600">
<defs>
  <clipPath id="clip910">
    <rect x="0" y="0" width="2400" height="1600"/>
  </clipPath>
</defs>
<path clip-path="url(#clip910)" d="
M0 1600 L2400 1600 L2400 0 L0 0  Z
  " fill="#ffffff" fill-rule="evenodd" fill-opacity="1"/>
<defs>
  <clipPath id="clip911">
    <rect x="480" y="0" width="1681" height="1600"/>
  </clipPath>
</defs>
<path clip-path="url(#clip910)" d="
M257.69 1423.18 L2352.76 1423.18 L2352.76 123.472 L257.69 123.472  Z
  " fill="#ffffff" fill-rule="evenodd" fill-opacity="1"/>
<defs>
  <clipPath id="clip912">
    <rect x="257" y="123" width="2096" height="1301"/>
  </clipPath>
</defs>
<polyline clip-path="url(#clip912)" style="stroke:#000000; stroke-linecap:butt; stroke-linejoin:round; stroke-width:2; stroke-opacity:0.1; fill:none" points="
  313.536,1423.18 313.536,123.472 
  "/>
<polyline clip-path="url(#clip912)" style="stroke:#000000; stroke-linecap:butt; stroke-linejoin:round; stroke-width:2; stroke-opacity:0.1; fill:none" points="
  754.726,1423.18 754.726,123.472 
  "/>
<polyline clip-path="url(#clip912)" style="stroke:#000000; stroke-linecap:butt; stroke-linejoin:round; stroke-width:2; stroke-opacity:0.1; fill:none" points="
  1195.92,1423.18 1195.92,123.472 
  "/>
<polyline clip-path="url(#clip912)" style="stroke:#000000; stroke-linecap:butt; stroke-linejoin:round; stroke-width:2; stroke-opacity:0.1; fill:none" points="
  1637.1,1423.18 1637.1,123.472 
  "/>
<polyline clip-path="url(#clip912)" style="stroke:#000000; stroke-linecap:butt; stroke-linejoin:round; stroke-width:2; stroke-opacity:0.1; fill:none" points="
  2078.29,1423.18 2078.29,123.472 
  "/>
<polyline clip-path="url(#clip910)" style="stroke:#000000; stroke-linecap:butt; stroke-linejoin:round; stroke-width:4; stroke-opacity:1; fill:none" points="
  257.69,1423.18 2352.76,1423.18 
  "/>
<polyline clip-path="url(#clip910)" style="stroke:#000000; stroke-linecap:butt; stroke-linejoin:round; stroke-width:4; stroke-opacity:1; fill:none" points="
  313.536,1423.18 313.536,1404.28 
  "/>
<polyline clip-path="url(#clip910)" style="stroke:#000000; stroke-linecap:butt; stroke-linejoin:round; stroke-width:4; stroke-opacity:1; fill:none" points="
  754.726,1423.18 754.726,1404.28 
  "/>
<polyline clip-path="url(#clip910)" style="stroke:#000000; stroke-linecap:butt; stroke-linejoin:round; stroke-width:4; stroke-opacity:1; fill:none" points="
  1195.92,1423.18 1195.92,1404.28 
  "/>
<polyline clip-path="url(#clip910)" style="stroke:#000000; stroke-linecap:butt; stroke-linejoin:round; stroke-width:4; stroke-opacity:1; fill:none" points="
  1637.1,1423.18 1637.1,1404.28 
  "/>
<polyline clip-path="url(#clip910)" style="stroke:#000000; stroke-linecap:butt; stroke-linejoin:round; stroke-width:4; stroke-opacity:1; fill:none" points="
  2078.29,1423.18 2078.29,1404.28 
  "/>
<path clip-path="url(#clip910)" d="M313.536 1454.1 Q309.925 1454.1 308.096 1457.66 Q306.29 1461.2 306.29 1468.33 Q306.29 1475.44 308.096 1479.01 Q309.925 1482.55 313.536 1482.55 Q317.17 1482.55 318.976 1479.01 Q320.804 1475.44 320.804 1468.33 Q320.804 1461.2 318.976 1457.66 Q317.17 1454.1 313.536 1454.1 M313.536 1450.39 Q319.346 1450.39 322.401 1455 Q325.48 1459.58 325.48 1468.33 Q325.48 1477.06 322.401 1481.67 Q319.346 1486.25 313.536 1486.25 Q307.726 1486.25 304.647 1481.67 Q301.591 1477.06 301.591 1468.33 Q301.591 1459.58 304.647 1455 Q307.726 1450.39 313.536 1450.39 Z" fill="#000000" fill-rule="evenodd" fill-opacity="1" /><path clip-path="url(#clip910)" d="M733.996 1481.64 L750.316 1481.64 L750.316 1485.58 L728.372 1485.58 L728.372 1481.64 Q731.034 1478.89 735.617 1474.26 Q740.223 1469.61 741.404 1468.27 Q743.649 1465.74 744.529 1464.01 Q745.432 1462.25 745.432 1460.56 Q745.432 1457.8 743.487 1456.07 Q741.566 1454.33 738.464 1454.33 Q736.265 1454.33 733.811 1455.09 Q731.381 1455.86 728.603 1457.41 L728.603 1452.69 Q731.427 1451.55 733.881 1450.97 Q736.334 1450.39 738.371 1450.39 Q743.742 1450.39 746.936 1453.08 Q750.131 1455.77 750.131 1460.26 Q750.131 1462.39 749.32 1464.31 Q748.533 1466.2 746.427 1468.8 Q745.848 1469.47 742.746 1472.69 Q739.645 1475.88 733.996 1481.64 Z" fill="#000000" fill-rule="evenodd" fill-opacity="1" /><path clip-path="url(#clip910)" d="M760.177 1451.02 L778.533 1451.02 L778.533 1454.96 L764.459 1454.96 L764.459 1463.43 Q765.478 1463.08 766.496 1462.92 Q767.515 1462.73 768.533 1462.73 Q774.32 1462.73 777.7 1465.9 Q781.08 1469.08 781.08 1474.49 Q781.08 1480.07 777.607 1483.17 Q774.135 1486.25 767.816 1486.25 Q765.64 1486.25 763.371 1485.88 Q761.126 1485.51 758.719 1484.77 L758.719 1480.07 Q760.802 1481.2 763.024 1481.76 Q765.246 1482.32 767.723 1482.32 Q771.728 1482.32 774.066 1480.21 Q776.404 1478.1 776.404 1474.49 Q776.404 1470.88 774.066 1468.77 Q771.728 1466.67 767.723 1466.67 Q765.848 1466.67 763.973 1467.08 Q762.121 1467.5 760.177 1468.38 L760.177 1451.02 Z" fill="#000000" fill-rule="evenodd" fill-opacity="1" /><path clip-path="url(#clip910)" d="M1170.61 1451.02 L1188.97 1451.02 L1188.97 1454.96 L1174.9 1454.96 L1174.9 1463.43 Q1175.92 1463.08 1176.93 1462.92 Q1177.95 1462.73 1178.97 1462.73 Q1184.76 1462.73 1188.14 1465.9 Q1191.52 1469.08 1191.52 1474.49 Q1191.52 1480.07 1188.04 1483.17 Q1184.57 1486.25 1178.25 1486.25 Q1176.08 1486.25 1173.81 1485.88 Q1171.56 1485.51 1169.16 1484.77 L1169.16 1480.07 Q1171.24 1481.2 1173.46 1481.76 Q1175.68 1482.32 1178.16 1482.32 Q1182.17 1482.32 1184.5 1480.21 Q1186.84 1478.1 1186.84 1474.49 Q1186.84 1470.88 1184.5 1468.77 Q1182.17 1466.67 1178.16 1466.67 Q1176.29 1466.67 1174.41 1467.08 Q1172.56 1467.5 1170.61 1468.38 L1170.61 1451.02 Z" fill="#000000" fill-rule="evenodd" fill-opacity="1" /><path clip-path="url(#clip910)" d="M1210.73 1454.1 Q1207.12 1454.1 1205.29 1457.66 Q1203.48 1461.2 1203.48 1468.33 Q1203.48 1475.44 1205.29 1479.01 Q1207.12 1482.55 1210.73 1482.55 Q1214.36 1482.55 1216.17 1479.01 Q1218 1475.44 1218 1468.33 Q1218 1461.2 1216.17 1457.66 Q1214.36 1454.1 1210.73 1454.1 M1210.73 1450.39 Q1216.54 1450.39 1219.6 1455 Q1222.67 1459.58 1222.67 1468.33 Q1222.67 1477.06 1219.6 1481.67 Q1216.54 1486.25 1210.73 1486.25 Q1204.92 1486.25 1201.84 1481.67 Q1198.79 1477.06 1198.79 1468.33 Q1198.79 1459.58 1201.84 1455 Q1204.92 1450.39 1210.73 1450.39 Z" fill="#000000" fill-rule="evenodd" fill-opacity="1" /><path clip-path="url(#clip910)" d="M1610.96 1451.02 L1633.18 1451.02 L1633.18 1453.01 L1620.64 1485.58 L1615.75 1485.58 L1627.56 1454.96 L1610.96 1454.96 L1610.96 1451.02 Z" fill="#000000" fill-rule="evenodd" fill-opacity="1" /><path clip-path="url(#clip910)" d="M1642.35 1451.02 L1660.7 1451.02 L1660.7 1454.96 L1646.63 1454.96 L1646.63 1463.43 Q1647.65 1463.08 1648.67 1462.92 Q1649.69 1462.73 1650.7 1462.73 Q1656.49 1462.73 1659.87 1465.9 Q1663.25 1469.08 1663.25 1474.49 Q1663.25 1480.07 1659.78 1483.17 Q1656.31 1486.25 1649.99 1486.25 Q1647.81 1486.25 1645.54 1485.88 Q1643.3 1485.51 1640.89 1484.77 L1640.89 1480.07 Q1642.97 1481.2 1645.2 1481.76 Q1647.42 1482.32 1649.89 1482.32 Q1653.9 1482.32 1656.24 1480.21 Q1658.57 1478.1 1658.57 1474.49 Q1658.57 1470.88 1656.24 1468.77 Q1653.9 1466.67 1649.89 1466.67 Q1648.02 1466.67 1646.14 1467.08 Q1644.29 1467.5 1642.35 1468.38 L1642.35 1451.02 Z" fill="#000000" fill-rule="evenodd" fill-opacity="1" /><path clip-path="url(#clip910)" d="M2037.9 1481.64 L2045.54 1481.64 L2045.54 1455.28 L2037.23 1456.95 L2037.23 1452.69 L2045.49 1451.02 L2050.17 1451.02 L2050.17 1481.64 L2057.81 1481.64 L2057.81 1485.58 L2037.9 1485.58 L2037.9 1481.64 Z" fill="#000000" fill-rule="evenodd" fill-opacity="1" /><path clip-path="url(#clip910)" d="M2077.25 1454.1 Q2073.64 1454.1 2071.81 1457.66 Q2070.01 1461.2 2070.01 1468.33 Q2070.01 1475.44 2071.81 1479.01 Q2073.64 1482.55 2077.25 1482.55 Q2080.89 1482.55 2082.69 1479.01 Q2084.52 1475.44 2084.52 1468.33 Q2084.52 1461.2 2082.69 1457.66 Q2080.89 1454.1 2077.25 1454.1 M2077.25 1450.39 Q2083.06 1450.39 2086.12 1455 Q2089.2 1459.58 2089.2 1468.33 Q2089.2 1477.06 2086.12 1481.67 Q2083.06 1486.25 2077.25 1486.25 Q2071.44 1486.25 2068.36 1481.67 Q2065.31 1477.06 2065.31 1468.33 Q2065.31 1459.58 2068.36 1455 Q2071.44 1450.39 2077.25 1450.39 Z" fill="#000000" fill-rule="evenodd" fill-opacity="1" /><path clip-path="url(#clip910)" d="M2107.41 1454.1 Q2103.8 1454.1 2101.98 1457.66 Q2100.17 1461.2 2100.17 1468.33 Q2100.17 1475.44 2101.98 1479.01 Q2103.8 1482.55 2107.41 1482.55 Q2111.05 1482.55 2112.85 1479.01 Q2114.68 1475.44 2114.68 1468.33 Q2114.68 1461.2 2112.85 1457.66 Q2111.05 1454.1 2107.41 1454.1 M2107.41 1450.39 Q2113.23 1450.39 2116.28 1455 Q2119.36 1459.58 2119.36 1468.33 Q2119.36 1477.06 2116.28 1481.67 Q2113.23 1486.25 2107.41 1486.25 Q2101.6 1486.25 2098.53 1481.67 Q2095.47 1477.06 2095.47 1468.33 Q2095.47 1459.58 2098.53 1455 Q2101.6 1450.39 2107.41 1450.39 Z" fill="#000000" fill-rule="evenodd" fill-opacity="1" /><path clip-path="url(#clip910)" d="M1213.46 1522.27 L1213.46 1532.4 L1225.52 1532.4 L1225.52 1536.95 L1213.46 1536.95 L1213.46 1556.3 Q1213.46 1560.66 1214.64 1561.9 Q1215.85 1563.14 1219.51 1563.14 L1225.52 1563.14 L1225.52 1568.04 L1219.51 1568.04 Q1212.73 1568.04 1210.15 1565.53 Q1207.57 1562.98 1207.57 1556.3 L1207.57 1536.95 L1203.28 1536.95 L1203.28 1532.4 L1207.57 1532.4 L1207.57 1522.27 L1213.46 1522.27 Z" fill="#000000" fill-rule="evenodd" fill-opacity="1" /><path clip-path="url(#clip910)" d="M1253.95 1532.4 L1259.8 1532.4 L1259.8 1568.04 L1253.95 1568.04 L1253.95 1532.4 M1253.95 1518.52 L1259.8 1518.52 L1259.8 1525.93 L1253.95 1525.93 L1253.95 1518.52 Z" fill="#000000" fill-rule="evenodd" fill-opacity="1" /><path clip-path="url(#clip910)" d="M1301.69 1546.53 L1301.69 1568.04 L1295.83 1568.04 L1295.83 1546.72 Q1295.83 1541.66 1293.86 1539.14 Q1291.89 1536.63 1287.94 1536.63 Q1283.2 1536.63 1280.46 1539.65 Q1277.72 1542.68 1277.72 1547.9 L1277.72 1568.04 L1271.83 1568.04 L1271.83 1532.4 L1277.72 1532.4 L1277.72 1537.93 Q1279.82 1534.72 1282.66 1533.13 Q1285.52 1531.54 1289.25 1531.54 Q1295.39 1531.54 1298.54 1535.36 Q1301.69 1539.14 1301.69 1546.53 Z" fill="#000000" fill-rule="evenodd" fill-opacity="1" /><path clip-path="url(#clip910)" d="M1333.55 1518.52 L1347.05 1518.52 L1347.05 1523.07 L1339.41 1523.07 L1339.41 1572.09 L1347.05 1572.09 L1347.05 1576.64 L1333.55 1576.64 L1333.55 1518.52 Z" fill="#000000" fill-rule="evenodd" fill-opacity="1" /><path clip-path="url(#clip910)" d="M1382.25 1533.45 L1382.25 1538.98 Q1379.77 1537.71 1377.09 1537.07 Q1374.42 1536.44 1371.55 1536.44 Q1367.19 1536.44 1365 1537.77 Q1362.83 1539.11 1362.83 1541.79 Q1362.83 1543.82 1364.39 1545 Q1365.95 1546.15 1370.66 1547.2 L1372.67 1547.64 Q1378.91 1548.98 1381.52 1551.43 Q1384.16 1553.85 1384.16 1558.21 Q1384.16 1563.17 1380.21 1566.07 Q1376.3 1568.97 1369.42 1568.97 Q1366.56 1568.97 1363.44 1568.39 Q1360.35 1567.85 1356.91 1566.74 L1356.91 1560.69 Q1360.16 1562.38 1363.31 1563.24 Q1366.46 1564.07 1369.55 1564.07 Q1373.69 1564.07 1375.91 1562.66 Q1378.14 1561.23 1378.14 1558.65 Q1378.14 1556.27 1376.52 1554.99 Q1374.93 1553.72 1369.48 1552.54 L1367.45 1552.07 Q1362.01 1550.92 1359.59 1548.56 Q1357.17 1546.18 1357.17 1542.04 Q1357.17 1537.01 1360.73 1534.27 Q1364.3 1531.54 1370.85 1531.54 Q1374.1 1531.54 1376.96 1532.01 Q1379.83 1532.49 1382.25 1533.45 Z" fill="#000000" fill-rule="evenodd" fill-opacity="1" /><path clip-path="url(#clip910)" d="M1407.17 1518.52 L1407.17 1576.64 L1393.67 1576.64 L1393.67 1572.09 L1401.28 1572.09 L1401.28 1523.07 L1393.67 1523.07 L1393.67 1518.52 L1407.17 1518.52 Z" fill="#000000" fill-rule="evenodd" fill-opacity="1" /><polyline clip-path="url(#clip912)" style="stroke:#000000; stroke-linecap:butt; stroke-linejoin:round; stroke-width:2; stroke-opacity:0.1; fill:none" points="
  257.69,1416.11 2352.76,1416.11 
  "/>
<polyline clip-path="url(#clip912)" style="stroke:#000000; stroke-linecap:butt; stroke-linejoin:round; stroke-width:2; stroke-opacity:0.1; fill:none" points="
  257.69,1096.94 2352.76,1096.94 
  "/>
<polyline clip-path="url(#clip912)" style="stroke:#000000; stroke-linecap:butt; stroke-linejoin:round; stroke-width:2; stroke-opacity:0.1; fill:none" points="
  257.69,777.764 2352.76,777.764 
  "/>
<polyline clip-path="url(#clip912)" style="stroke:#000000; stroke-linecap:butt; stroke-linejoin:round; stroke-width:2; stroke-opacity:0.1; fill:none" points="
  257.69,458.591 2352.76,458.591 
  "/>
<polyline clip-path="url(#clip912)" style="stroke:#000000; stroke-linecap:butt; stroke-linejoin:round; stroke-width:2; stroke-opacity:0.1; fill:none" points="
  257.69,139.419 2352.76,139.419 
  "/>
<polyline clip-path="url(#clip910)" style="stroke:#000000; stroke-linecap:butt; stroke-linejoin:round; stroke-width:4; stroke-opacity:1; fill:none" points="
  257.69,1423.18 257.69,123.472 
  "/>
<polyline clip-path="url(#clip910)" style="stroke:#000000; stroke-linecap:butt; stroke-linejoin:round; stroke-width:4; stroke-opacity:1; fill:none" points="
  257.69,1416.11 276.588,1416.11 
  "/>
<polyline clip-path="url(#clip910)" style="stroke:#000000; stroke-linecap:butt; stroke-linejoin:round; stroke-width:4; stroke-opacity:1; fill:none" points="
  257.69,1096.94 276.588,1096.94 
  "/>
<polyline clip-path="url(#clip910)" style="stroke:#000000; stroke-linecap:butt; stroke-linejoin:round; stroke-width:4; stroke-opacity:1; fill:none" points="
  257.69,777.764 276.588,777.764 
  "/>
<polyline clip-path="url(#clip910)" style="stroke:#000000; stroke-linecap:butt; stroke-linejoin:round; stroke-width:4; stroke-opacity:1; fill:none" points="
  257.69,458.591 276.588,458.591 
  "/>
<polyline clip-path="url(#clip910)" style="stroke:#000000; stroke-linecap:butt; stroke-linejoin:round; stroke-width:4; stroke-opacity:1; fill:none" points="
  257.69,139.419 276.588,139.419 
  "/>
<path clip-path="url(#clip910)" d="M114.26 1416.56 L143.936 1416.56 L143.936 1420.5 L114.26 1420.5 L114.26 1416.56 Z" fill="#000000" fill-rule="evenodd" fill-opacity="1" /><path clip-path="url(#clip910)" d="M164.028 1401.91 Q160.417 1401.91 158.589 1405.47 Q156.783 1409.01 156.783 1416.14 Q156.783 1423.25 158.589 1426.81 Q160.417 1430.36 164.028 1430.36 Q167.663 1430.36 169.468 1426.81 Q171.297 1423.25 171.297 1416.14 Q171.297 1409.01 169.468 1405.47 Q167.663 1401.91 164.028 1401.91 M164.028 1398.2 Q169.839 1398.2 172.894 1402.81 Q175.973 1407.39 175.973 1416.14 Q175.973 1424.87 172.894 1429.48 Q169.839 1434.06 164.028 1434.06 Q158.218 1434.06 155.14 1429.48 Q152.084 1424.87 152.084 1416.14 Q152.084 1407.39 155.14 1402.81 Q158.218 1398.2 164.028 1398.2 Z" fill="#000000" fill-rule="evenodd" fill-opacity="1" /><path clip-path="url(#clip910)" d="M184.19 1427.51 L189.075 1427.51 L189.075 1433.39 L184.19 1433.39 L184.19 1427.51 Z" fill="#000000" fill-rule="evenodd" fill-opacity="1" /><path clip-path="url(#clip910)" d="M212.107 1402.9 L200.301 1421.35 L212.107 1421.35 L212.107 1402.9 M210.88 1398.83 L216.76 1398.83 L216.76 1421.35 L221.69 1421.35 L221.69 1425.24 L216.76 1425.24 L216.76 1433.39 L212.107 1433.39 L212.107 1425.24 L196.505 1425.24 L196.505 1420.73 L210.88 1398.83 Z" fill="#000000" fill-rule="evenodd" fill-opacity="1" /><path clip-path="url(#clip910)" d="M116.343 1097.39 L146.019 1097.39 L146.019 1101.32 L116.343 1101.32 L116.343 1097.39 Z" fill="#000000" fill-rule="evenodd" fill-opacity="1" /><path clip-path="url(#clip910)" d="M166.112 1082.74 Q162.501 1082.74 160.672 1086.3 Q158.866 1089.84 158.866 1096.97 Q158.866 1104.08 160.672 1107.64 Q162.501 1111.18 166.112 1111.18 Q169.746 1111.18 171.552 1107.64 Q173.38 1104.08 173.38 1096.97 Q173.38 1089.84 171.552 1086.3 Q169.746 1082.74 166.112 1082.74 M166.112 1079.03 Q171.922 1079.03 174.977 1083.64 Q178.056 1088.22 178.056 1096.97 Q178.056 1105.7 174.977 1110.3 Q171.922 1114.89 166.112 1114.89 Q160.302 1114.89 157.223 1110.3 Q154.167 1105.7 154.167 1096.97 Q154.167 1088.22 157.223 1083.64 Q160.302 1079.03 166.112 1079.03 Z" fill="#000000" fill-rule="evenodd" fill-opacity="1" /><path clip-path="url(#clip910)" d="M186.274 1108.34 L191.158 1108.34 L191.158 1114.22 L186.274 1114.22 L186.274 1108.34 Z" fill="#000000" fill-rule="evenodd" fill-opacity="1" /><path clip-path="url(#clip910)" d="M205.371 1110.28 L221.69 1110.28 L221.69 1114.22 L199.746 1114.22 L199.746 1110.28 Q202.408 1107.53 206.991 1102.9 Q211.598 1098.24 212.778 1096.9 Q215.024 1094.38 215.903 1092.64 Q216.806 1090.88 216.806 1089.19 Q216.806 1086.44 214.861 1084.7 Q212.94 1082.97 209.838 1082.97 Q207.639 1082.97 205.186 1083.73 Q202.755 1084.49 199.977 1086.05 L199.977 1081.32 Q202.801 1080.19 205.255 1079.61 Q207.709 1079.03 209.746 1079.03 Q215.116 1079.03 218.311 1081.72 Q221.505 1084.4 221.505 1088.89 Q221.505 1091.02 220.695 1092.94 Q219.908 1094.84 217.801 1097.43 Q217.223 1098.11 214.121 1101.32 Q211.019 1104.52 205.371 1110.28 Z" fill="#000000" fill-rule="evenodd" fill-opacity="1" /><path clip-path="url(#clip910)" d="M164.515 763.563 Q160.903 763.563 159.075 767.127 Q157.269 770.669 157.269 777.799 Q157.269 784.905 159.075 788.47 Q160.903 792.012 164.515 792.012 Q168.149 792.012 169.954 788.47 Q171.783 784.905 171.783 777.799 Q171.783 770.669 169.954 767.127 Q168.149 763.563 164.515 763.563 M164.515 759.859 Q170.325 759.859 173.38 764.465 Q176.459 769.049 176.459 777.799 Q176.459 786.525 173.38 791.132 Q170.325 795.715 164.515 795.715 Q158.704 795.715 155.626 791.132 Q152.57 786.525 152.57 777.799 Q152.57 769.049 155.626 764.465 Q158.704 759.859 164.515 759.859 Z" fill="#000000" fill-rule="evenodd" fill-opacity="1" /><path clip-path="url(#clip910)" d="M184.676 789.164 L189.561 789.164 L189.561 795.044 L184.676 795.044 L184.676 789.164 Z" fill="#000000" fill-rule="evenodd" fill-opacity="1" /><path clip-path="url(#clip910)" d="M209.746 763.563 Q206.135 763.563 204.306 767.127 Q202.5 770.669 202.5 777.799 Q202.5 784.905 204.306 788.47 Q206.135 792.012 209.746 792.012 Q213.38 792.012 215.186 788.47 Q217.014 784.905 217.014 777.799 Q217.014 770.669 215.186 767.127 Q213.38 763.563 209.746 763.563 M209.746 759.859 Q215.556 759.859 218.611 764.465 Q221.69 769.049 221.69 777.799 Q221.69 786.525 218.611 791.132 Q215.556 795.715 209.746 795.715 Q203.936 795.715 200.857 791.132 Q197.801 786.525 197.801 777.799 Q197.801 769.049 200.857 764.465 Q203.936 759.859 209.746 759.859 Z" fill="#000000" fill-rule="evenodd" fill-opacity="1" /><path clip-path="url(#clip910)" d="M166.112 444.39 Q162.501 444.39 160.672 447.955 Q158.866 451.497 158.866 458.626 Q158.866 465.733 160.672 469.297 Q162.501 472.839 166.112 472.839 Q169.746 472.839 171.552 469.297 Q173.38 465.733 173.38 458.626 Q173.38 451.497 171.552 447.955 Q169.746 444.39 166.112 444.39 M166.112 440.686 Q171.922 440.686 174.977 445.293 Q178.056 449.876 178.056 458.626 Q178.056 467.353 174.977 471.959 Q171.922 476.543 166.112 476.543 Q160.302 476.543 157.223 471.959 Q154.167 467.353 154.167 458.626 Q154.167 449.876 157.223 445.293 Q160.302 440.686 166.112 440.686 Z" fill="#000000" fill-rule="evenodd" fill-opacity="1" /><path clip-path="url(#clip910)" d="M186.274 469.992 L191.158 469.992 L191.158 475.871 L186.274 475.871 L186.274 469.992 Z" fill="#000000" fill-rule="evenodd" fill-opacity="1" /><path clip-path="url(#clip910)" d="M205.371 471.936 L221.69 471.936 L221.69 475.871 L199.746 475.871 L199.746 471.936 Q202.408 469.182 206.991 464.552 Q211.598 459.899 212.778 458.557 Q215.024 456.034 215.903 454.297 Q216.806 452.538 216.806 450.848 Q216.806 448.094 214.861 446.358 Q212.94 444.622 209.838 444.622 Q207.639 444.622 205.186 445.385 Q202.755 446.149 199.977 447.7 L199.977 442.978 Q202.801 441.844 205.255 441.265 Q207.709 440.686 209.746 440.686 Q215.116 440.686 218.311 443.372 Q221.505 446.057 221.505 450.547 Q221.505 452.677 220.695 454.598 Q219.908 456.497 217.801 459.089 Q217.223 459.76 214.121 462.978 Q211.019 466.172 205.371 471.936 Z" fill="#000000" fill-rule="evenodd" fill-opacity="1" /><path clip-path="url(#clip910)" d="M164.028 125.218 Q160.417 125.218 158.589 128.782 Q156.783 132.324 156.783 139.454 Q156.783 146.56 158.589 150.125 Q160.417 153.667 164.028 153.667 Q167.663 153.667 169.468 150.125 Q171.297 146.56 171.297 139.454 Q171.297 132.324 169.468 128.782 Q167.663 125.218 164.028 125.218 M164.028 121.514 Q169.839 121.514 172.894 126.12 Q175.973 130.704 175.973 139.454 Q175.973 148.18 172.894 152.787 Q169.839 157.37 164.028 157.37 Q158.218 157.37 155.14 152.787 Q152.084 148.18 152.084 139.454 Q152.084 130.704 155.14 126.12 Q158.218 121.514 164.028 121.514 Z" fill="#000000" fill-rule="evenodd" fill-opacity="1" /><path clip-path="url(#clip910)" d="M184.19 150.819 L189.075 150.819 L189.075 156.699 L184.19 156.699 L184.19 150.819 Z" fill="#000000" fill-rule="evenodd" fill-opacity="1" /><path clip-path="url(#clip910)" d="M212.107 126.213 L200.301 144.662 L212.107 144.662 L212.107 126.213 M210.88 122.139 L216.76 122.139 L216.76 144.662 L221.69 144.662 L221.69 148.551 L216.76 148.551 L216.76 156.699 L212.107 156.699 L212.107 148.551 L196.505 148.551 L196.505 144.037 L210.88 122.139 Z" fill="#000000" fill-rule="evenodd" fill-opacity="1" /><path clip-path="url(#clip910)" d="M16.4842 967.926 L16.4842 961.496 L60.694 961.496 Q69.2877 961.496 73.1708 964.775 Q77.0539 968.021 77.0539 975.246 L77.0539 977.697 L71.643 977.697 L71.643 975.692 Q71.643 971.427 69.2559 969.676 Q66.8687 967.926 60.694 967.926 L16.4842 967.926 Z" fill="#000000" fill-rule="evenodd" fill-opacity="1" /><path clip-path="url(#clip910)" d="M44.7161 918.464 L47.5806 918.464 L47.5806 945.391 Q53.6281 945.009 56.8109 941.763 Q59.9619 938.484 59.9619 932.66 Q59.9619 929.286 59.1344 926.135 Q58.3069 922.952 56.6518 919.833 L62.1899 919.833 Q63.5267 922.984 64.227 926.294 Q64.9272 929.604 64.9272 933.01 Q64.9272 941.54 59.9619 946.537 Q54.9967 951.502 46.5303 951.502 Q37.7774 951.502 32.6531 946.791 Q27.4968 942.049 27.4968 934.028 Q27.4968 926.835 32.1438 922.665 Q36.7589 918.464 44.7161 918.464 M42.9973 924.321 Q38.1912 924.384 35.3266 927.026 Q32.4621 929.636 32.4621 933.965 Q32.4621 938.866 35.2312 941.826 Q38.0002 944.754 43.0292 945.2 L42.9973 924.321 Z" fill="#000000" fill-rule="evenodd" fill-opacity="1" /><path clip-path="url(#clip910)" d="M33.8307 888.195 Q33.2578 889.182 33.0032 890.36 Q32.7167 891.505 32.7167 892.906 Q32.7167 897.871 35.9632 900.545 Q39.1779 903.186 45.2253 903.186 L64.0042 903.186 L64.0042 909.075 L28.3562 909.075 L28.3562 903.186 L33.8944 903.186 Q30.6479 901.34 29.0883 898.38 Q27.4968 895.42 27.4968 891.187 Q27.4968 890.582 27.5923 889.85 Q27.656 889.118 27.8151 888.227 L33.8307 888.195 Z" fill="#000000" fill-rule="evenodd" fill-opacity="1" /><path clip-path="url(#clip910)" d="M14.479 882.275 L14.479 876.387 L43.7294 876.387 L28.3562 858.913 L28.3562 851.433 L45.0344 870.339 L64.0042 850.637 L64.0042 858.276 L46.5939 876.387 L64.0042 876.387 L64.0042 882.275 L14.479 882.275 Z" fill="#000000" fill-rule="evenodd" fill-opacity="1" /><path clip-path="url(#clip910)" d="M14.479 824.124 L14.479 810.629 L19.0304 810.629 L19.0304 818.268 L68.0464 818.268 L68.0464 810.629 L72.5979 810.629 L72.5979 824.124 L14.479 824.124 Z" fill="#000000" fill-rule="evenodd" fill-opacity="1" /><path clip-path="url(#clip910)" d="M35.1993 770.398 Q31.2526 768.202 29.3747 765.146 Q27.4968 762.091 27.4968 757.953 Q27.4968 752.383 31.4117 749.359 Q35.2948 746.335 42.4881 746.335 L64.0042 746.335 L64.0042 752.224 L42.679 752.224 Q37.5546 752.224 35.072 754.038 Q32.5894 755.852 32.5894 759.576 Q32.5894 764.128 35.6131 766.769 Q38.6368 769.411 43.8567 769.411 L64.0042 769.411 L64.0042 775.299 L42.679 775.299 Q37.5228 775.299 35.072 777.114 Q32.5894 778.928 32.5894 782.715 Q32.5894 787.203 35.6449 789.845 Q38.6686 792.487 43.8567 792.487 L64.0042 792.487 L64.0042 798.375 L28.3562 798.375 L28.3562 792.487 L33.8944 792.487 Q30.616 790.482 29.0564 787.681 Q27.4968 784.88 27.4968 781.028 Q27.4968 777.145 29.4702 774.44 Q31.4436 771.703 35.1993 770.398 Z" fill="#000000" fill-rule="evenodd" fill-opacity="1" /><path clip-path="url(#clip910)" d="M16.4842 724.246 L16.4842 718.836 L70.0516 735.386 L70.0516 740.797 L16.4842 724.246 Z" fill="#000000" fill-rule="evenodd" fill-opacity="1" /><path clip-path="url(#clip910)" d="M29.4065 689.967 L34.9447 689.967 Q33.6716 692.45 33.035 695.123 Q32.3984 697.797 32.3984 700.661 Q32.3984 705.022 33.7352 707.218 Q35.072 709.382 37.7456 709.382 Q39.7826 709.382 40.9603 707.823 Q42.1061 706.263 43.1565 701.553 L43.6021 699.547 Q44.9389 693.309 47.3897 690.699 Q49.8086 688.057 54.1691 688.057 Q59.1344 688.057 62.0308 692.004 Q64.9272 695.919 64.9272 702.794 Q64.9272 705.659 64.3543 708.778 Q63.8132 711.865 62.6992 715.303 L56.6518 715.303 Q58.3387 712.056 59.198 708.905 Q60.0256 705.754 60.0256 702.667 Q60.0256 698.529 58.6251 696.301 Q57.1929 694.073 54.6147 694.073 Q52.2276 694.073 50.9545 695.696 Q49.6813 697.288 48.5037 702.73 L48.0262 704.767 Q46.8804 710.21 44.5251 712.629 Q42.138 715.048 38.0002 715.048 Q32.9713 715.048 30.2341 711.483 Q27.4968 707.918 27.4968 701.362 Q27.4968 698.115 27.9743 695.251 Q28.4517 692.386 29.4065 689.967 Z" fill="#000000" fill-rule="evenodd" fill-opacity="1" /><path clip-path="url(#clip910)" d="M16.4842 654.446 L34.2127 637.164 L34.2127 643.561 L21.6404 657.566 L34.2127 671.57 L34.2127 677.968 L16.4842 660.685 L16.4842 654.446 Z" fill="#000000" fill-rule="evenodd" fill-opacity="1" /><path clip-path="url(#clip910)" d="M38.3822 603.807 Q39.3689 599.192 42.4881 596.614 Q45.6073 594.004 50.1906 594.004 Q57.2247 594.004 61.0759 598.842 Q64.9272 603.68 64.9272 612.592 Q64.9272 615.584 64.3224 618.767 Q63.7495 621.918 62.5719 625.291 L56.3653 625.291 Q57.9249 622.618 58.7206 619.435 Q59.5163 616.252 59.5163 612.783 Q59.5163 606.735 57.1292 603.584 Q54.7421 600.402 50.1906 600.402 Q45.9892 600.402 43.6339 603.362 Q41.2468 606.29 41.2468 611.542 L41.2468 617.08 L35.9632 617.08 L35.9632 611.287 Q35.9632 606.544 34.0853 604.03 Q32.1756 601.516 28.6108 601.516 Q24.9505 601.516 23.009 604.126 Q21.0356 606.704 21.0356 611.542 Q21.0356 614.183 21.6086 617.207 Q22.1815 620.231 23.3909 623.859 L17.6618 623.859 Q16.6433 620.199 16.134 617.016 Q15.6248 613.801 15.6248 610.969 Q15.6248 603.648 18.9668 599.383 Q22.277 595.118 27.9424 595.118 Q31.8892 595.118 34.6264 597.378 Q37.3318 599.638 38.3822 603.807 Z" fill="#000000" fill-rule="evenodd" fill-opacity="1" /><path clip-path="url(#clip910)" d="M14.479 568.955 L72.5979 568.955 L72.5979 582.45 L68.0464 582.45 L68.0464 574.843 L19.0304 574.843 L19.0304 582.45 L14.479 582.45 L14.479 568.955 Z" fill="#000000" fill-rule="evenodd" fill-opacity="1" /><path clip-path="url(#clip910)" d="M1236.8 12.096 L1244.99 12.096 L1244.99 68.3631 Q1244.99 79.3005 1240.81 84.2426 Q1236.68 89.1847 1227.49 89.1847 L1224.37 89.1847 L1224.37 82.2982 L1226.92 82.2982 Q1232.35 82.2982 1234.58 79.26 Q1236.8 76.2218 1236.8 68.3631 L1236.8 12.096 Z" fill="#000000" fill-rule="evenodd" fill-opacity="1" /><path clip-path="url(#clip910)" d="M1299.75 48.0275 L1299.75 51.6733 L1265.48 51.6733 Q1265.97 59.3701 1270.1 63.421 Q1274.27 67.4314 1281.69 67.4314 Q1285.98 67.4314 1289.99 66.3781 Q1294.04 65.3249 1298.01 63.2184 L1298.01 70.267 Q1294 71.9684 1289.79 72.8596 Q1285.58 73.7508 1281.24 73.7508 Q1270.39 73.7508 1264.03 67.4314 Q1257.71 61.1119 1257.71 50.3365 Q1257.71 39.1965 1263.7 32.6746 Q1269.74 26.1121 1279.95 26.1121 Q1289.1 26.1121 1294.41 32.0264 Q1299.75 37.9003 1299.75 48.0275 M1292.3 45.84 Q1292.22 39.7232 1288.86 36.0774 Q1285.54 32.4315 1280.03 32.4315 Q1273.79 32.4315 1270.02 35.9558 Q1266.29 39.4801 1265.73 45.8805 L1292.3 45.84 Z" fill="#000000" fill-rule="evenodd" fill-opacity="1" /><path clip-path="url(#clip910)" d="M1338.28 34.1734 Q1337.02 33.4443 1335.52 33.1202 Q1334.07 32.7556 1332.28 32.7556 Q1325.96 32.7556 1322.56 36.8875 Q1319.2 40.9789 1319.2 48.6757 L1319.2 72.576 L1311.7 72.576 L1311.7 27.2059 L1319.2 27.2059 L1319.2 34.2544 Q1321.55 30.1225 1325.32 28.1376 Q1329.08 26.1121 1334.47 26.1121 Q1335.24 26.1121 1336.17 26.2337 Q1337.1 26.3147 1338.24 26.5172 L1338.28 34.1734 Z" fill="#000000" fill-rule="evenodd" fill-opacity="1" /><path clip-path="url(#clip910)" d="M1345.81 9.54393 L1353.31 9.54393 L1353.31 46.7717 L1375.55 27.2059 L1385.07 27.2059 L1361 48.4326 L1386.08 72.576 L1376.36 72.576 L1353.31 50.4176 L1353.31 72.576 L1345.81 72.576 L1345.81 9.54393 Z" fill="#000000" fill-rule="evenodd" fill-opacity="1" /><polyline clip-path="url(#clip912)" style="stroke:#009af9; stroke-linecap:butt; stroke-linejoin:round; stroke-width:4; stroke-opacity:1; fill:none" points="
  316.984,771.481 317.65,811.758 318.315,834.317 318.981,800.958 319.646,812.49 320.312,844.155 320.977,803.734 321.643,752.444 322.308,754.334 322.974,763.108 
  323.639,721.398 324.305,753.751 324.97,798.202 325.636,789.844 326.301,760.632 326.967,783.266 327.632,804.341 328.298,781.24 328.963,759.705 329.629,803.759 
  330.294,780.747 330.96,730.744 331.625,741.088 332.291,772.101 332.956,779.712 333.622,793.945 334.287,792.947 334.953,777.784 335.618,763.656 336.284,771.83 
  336.949,772.331 337.615,772.824 338.28,773.233 338.946,766.485 339.611,774.446 340.277,803.259 340.942,780.281 341.608,773.066 342.273,780.563 342.938,780.481 
  343.604,758.98 344.269,760.262 344.935,775.74 345.6,768.801 346.266,783.712 346.931,776.268 347.597,776.432 348.262,783.687 348.928,776.169 349.593,769.202 
  350.259,776.941 350.924,769.921 351.59,763.348 352.255,785.748 352.921,778.154 353.586,785.389 354.252,770.679 354.917,778.389 355.583,771.326 356.248,786.121 
  356.914,778.543 357.579,778.598 358.245,778.625 358.91,785.804 359.576,785.377 360.241,777.823 360.907,770.772 361.572,785.629 362.238,778.084 362.903,785.272 
  363.569,792.005 364.234,769.778 364.9,756.136 365.565,771.915 366.231,779.517 366.896,772.344 367.562,794.163 368.227,786.051 368.893,785.606 369.558,763.782 
  370.224,757.693 370.889,773.369 371.555,766.66 372.22,781.764 372.885,788.731 373.551,788.107 374.216,773.241 374.882,773.623 375.547,781.109 376.213,759.607 
  376.878,768.028 377.544,804.398 378.209,788.472 378.875,773.582 379.54,795.326 380.206,787.134 380.871,772.36 381.537,772.827 382.202,766.136 382.868,774.145 
  383.533,767.34 384.199,775.242 384.864,789.749 385.53,781.904 386.195,767.427 386.861,775.349 387.526,775.616 388.192,768.74 388.857,783.678 389.523,783.365 
  390.188,797.327 390.854,781.849 391.519,781.683 392.185,767.247 392.85,775.181 393.516,768.308 394.181,783.251 394.847,782.966 395.512,782.7 396.178,775.297 
  396.843,782.672 397.509,775.297 398.174,768.418 398.84,790.507 399.505,768.381 400.171,776.216 400.836,783.556 401.501,783.278 402.167,775.863 402.832,790.329 
  403.498,782.471 404.163,782.24 404.829,774.919 405.494,760.962 406.16,790.678 406.825,782.797 407.491,775.44 408.156,782.782 408.822,789.658 409.487,781.82 
  410.153,774.502 410.818,781.931 411.484,767.48 412.149,775.358 412.815,775.601 413.48,775.854 414.146,783.193 414.811,782.913 415.477,789.805 416.142,781.957 
  416.808,781.759 417.473,774.446 418.139,774.749 418.804,767.906 419.47,768.646 420.135,783.591 420.801,790.413 421.466,782.525 422.132,775.186 422.797,782.569 
  423.463,782.331 424.128,774.98 424.794,789.532 425.459,774.598 426.125,782.047 426.79,788.971 427.456,774.075 428.121,767.302 428.786,775.234 429.452,782.64 
  430.117,789.525 430.783,774.566 431.448,782.016 432.114,767.559 432.779,775.449 433.445,782.815 434.11,782.561 434.776,782.324 435.441,782.101 436.107,767.639 
  436.772,768.421 437.438,783.381 438.103,783.089 438.769,797.097 439.434,788.764 440.1,780.986 440.765,773.725 441.431,766.951 442.096,774.88 442.762,775.154 
  443.427,796.794 444.093,774.224 444.758,767.416 445.424,775.315 446.089,775.586 446.755,782.943 447.42,775.577 448.086,790.089 448.751,782.248 449.417,774.901 
  450.082,782.33 450.748,775.005 451.413,775.297 452.079,789.827 452.744,789.105 453.41,795.584 454.075,780.225 454.741,773.014 455.406,780.543 456.072,773.311 
  456.737,773.69 457.402,774.044 458.068,781.503 458.733,781.336 459.399,788.334 460.064,780.584 460.73,787.606 461.395,779.93 462.061,779.867 462.726,772.681 
  463.392,780.231 464.057,773.02 464.723,780.548 465.388,787.573 466.054,787.001 466.719,779.339 467.385,786.445 468.05,785.949 468.716,778.383 469.381,778.424 
  470.047,778.463 470.712,771.369 471.378,771.877 472.043,786.635 472.709,779.024 473.374,779.023 474.04,786.148 474.705,771.44 475.371,757.688 476.036,773.39 
  476.702,773.79 477.367,788.395 478.033,780.64 478.698,787.684 479.364,787.106 480.029,779.437 480.695,779.434 481.36,772.276 482.026,772.749 482.691,766.039 
  483.357,788.312 484.022,773.46 484.687,780.958 485.353,787.956 486.018,787.36 486.684,779.674 487.349,772.5 488.015,772.933 488.68,773.364 489.346,780.869 
  490.011,780.77 490.677,787.78 491.342,772.938 492.008,780.471 492.673,780.374 493.339,766.001 494.004,773.994 494.67,781.458 495.335,781.319 496.001,788.293 
  496.666,780.57 497.332,787.594 497.997,772.764 498.663,766.054 499.328,781.199 499.994,781.053 500.659,780.916 501.325,795.068 501.99,786.871 502.656,779.219 
  503.321,772.075 504.16,765.432 504.826,766.336 505.491,788.589 506.157,770.128 506.822,777.848 507.488,777.937 508.153,792.291 508.819,791.405 509.484,783.45 
  510.15,772.462 510.815,780.024 511.481,772.837 512.146,780.368 512.812,780.293 513.477,801.604 514.142,785.841 514.808,778.283 515.473,778.33 516.139,778.373 
  516.804,778.426 517.47,774.898 518.135,760.915 518.801,776.374 519.466,776.577 520.132,783.867 520.797,783.553 521.463,790.402 522.128,782.488 522.794,778.715 
  523.459,771.631 524.125,779.251 524.79,786.361 525.456,775.177 526.121,782.587 526.787,775.218 527.452,782.596 528.118,778.819 528.783,768.148 529.449,772.449 
  530.114,765.791 530.78,773.796 531.445,791.962 532.111,776.854 532.776,791.289 533.442,783.342 534.107,779.487 534.773,772.338 535.438,779.908 536.104,772.729 
  536.769,794.531 537.435,782.803 538.1,768.316 538.766,776.18 539.431,779.957 540.097,776.352 540.762,772.95 541.427,784.005 542.093,773.019 542.758,776.991 
  543.424,777.123 544.089,773.708 544.755,784.779 545.42,791.518 546.086,790.694 546.751,779.236 547.417,789.897 548.082,785.619 548.748,781.611 549.413,792.139 
  550.079,787.699 550.744,780.015 551.41,769.253 552.075,773.492 552.741,784.55 553.406,773.486 554.072,766.724 554.737,767.527 555.403,775.431 556.068,786.386 
  556.734,771.647 557.399,782.853 558.065,789.723 558.73,764.06 559.396,768.617 560.061,776.451 560.727,783.748 561.392,794.122 562.058,789.559 562.723,785.291 
  563.389,770.602 564.054,767.594 564.72,779.048 565.212,768.349 565.877,769.084 566.542,769.771 567.208,770.411 567.873,781.677 568.539,781.499 569.204,767.077 
  569.87,760.743 570.535,776.216 571.201,776.402 571.866,783.73 572.532,776.285 573.197,769.364 573.863,784.263 574.528,776.782 575.194,784.06 575.859,797.977 
  576.525,775.327 577.19,775.572 577.856,768.699 578.521,755.13 579.187,771.002 579.852,771.561 580.518,793.44 581.183,792.502 581.849,798.754 582.514,783.208 
  583.18,768.672 583.845,769.36 584.511,770.002 585.176,756.346 585.842,779.239 586.507,786.378 587.173,785.885 587.838,799.678 588.504,784.045 589.169,783.734 
  589.834,783.419 590.5,768.893 591.165,783.821 591.831,776.368 592.496,790.827 593.162,775.781 593.827,775.995 594.493,769.069 595.158,776.858 595.824,776.976 
  596.489,791.369 597.155,783.416 597.82,783.097 598.486,768.593 599.151,776.438 599.817,769.457 600.482,777.221 601.148,784.468 601.813,777 602.479,777.158 
  603.144,784.41 603.81,784.075 604.475,783.712 605.141,776.294 605.806,769.348 606.472,777.117 607.137,777.242 607.803,770.232 608.468,777.944 609.134,778.014 
  609.799,792.362 610.465,784.343 611.13,798.242 611.796,789.833 612.461,782.009 613.127,760.449 613.792,775.942 614.458,769.045 615.123,776.86 615.788,791.26 
  616.454,783.34 617.119,775.921 617.785,776.126 618.45,783.447 619.116,775.995 619.781,776.196 620.447,776.384 621.112,762.303 621.778,777.671 622.443,784.89 
  623.109,791.65 623.774,790.807 624.44,775.763 625.105,783.133 625.771,775.729 626.436,768.847 627.102,776.65 627.767,791.064 628.433,776.003 629.098,783.357 
  629.764,775.963 630.429,783.295 631.095,790.136 631.76,782.266 632.426,767.818 633.091,775.69 633.757,775.91 634.422,776.142 635.088,790.614 635.753,768.43 
  636.419,790.518 637.084,782.622 637.75,768.124 638.415,768.848 639.081,776.677 639.746,776.833 640.411,769.826 641.077,784.693 641.742,777.184 642.408,777.306 
  643.073,784.549 643.739,784.179 644.404,776.705 645.07,769.731 645.735,770.375 646.401,785.206 647.066,770.562 647.732,785.431 648.397,785.054 649.063,770.421 
  649.728,785.275 650.394,770.6 651.059,778.312 651.725,771.256 652.39,786.028 653.056,778.431 653.721,785.623 654.387,778.077 655.226,778.193 655.891,778.272 
  656.557,789.026 657.222,788.37 657.888,777.065 658.553,766.528 659.219,792.308 659.884,787.87 660.55,790.856 661.215,782.951 661.881,786.25 662.546,771.547 
  663.212,779.184 663.877,793.414 664.543,771.092 665.208,775.181 665.874,793.268 666.539,788.764 667.205,780.984 667.87,777.298 668.535,773.874 669.201,774.227 
  669.866,770.965 670.532,785.795 671.197,778.224 671.863,785.416 672.528,788.577 673.194,784.372 673.859,773.321 674.525,773.725 675.19,774.073 675.856,774.428 
  676.521,778.294 677.187,785.494 677.852,785.071 678.518,788.23 679.183,787.626 679.849,769.229 680.514,773.457 681.18,773.85 681.845,774.192 682.511,788.781 
  683.176,784.59 683.842,773.534 684.507,781.039 685.173,791.604 685.838,780.073 686.504,772.871 687.169,780.408 687.835,783.876 688.5,779.986 689.166,790.609 
  689.831,761.322 690.497,791.025 691.162,804.492 691.827,774.279 692.493,774.579 693.158,796.269 693.824,777.323 694.489,773.869 695.155,767.092 695.82,782.153 
  696.486,785.543 697.151,763.721 697.817,775.441 698.482,800.649 699.148,763.563 699.813,764.578 700.479,790.499 701.144,779.027 701.81,754.074 702.475,791.382 
  703.141,804.838 703.806,763.923 704.472,750.672 705.137,802.479 705.803,797.353 706.468,778.321 707.134,781.928 707.799,803.106 708.465,769.421 709.13,762.928 
  709.796,771.14 710.461,785.932 711.127,771.236 711.792,753.92 712.458,798.371 713.123,779.258 713.789,768.547 714.454,779.936 715.12,783.461 715.785,779.599 
  716.277,751.025 716.942,752.888 717.608,754.628 718.273,784.763 718.939,784.378 719.604,784.043 720.27,790.808 720.935,775.737 721.601,783.057 722.266,782.785 
  722.932,789.633 723.597,774.641 724.263,774.904 724.928,768.051 725.594,768.756 726.259,776.539 726.925,783.806 727.59,769.23 728.256,777.008 728.921,791.397 
  729.587,783.442 730.252,783.145 730.918,775.74 731.583,768.856 732.249,769.507 732.914,770.141 733.58,792.114 734.245,791.241 734.911,776.167 735.576,783.485 
  736.241,783.211 736.907,761.571 737.572,769.914 738.238,763.391 738.903,792.945 739.569,784.912 740.234,777.39 740.9,784.652 741.565,805.659 742.231,782.499 
  742.896,775.161 743.562,782.547 744.227,775.181 744.893,768.336 745.558,769.071 746.224,783.989 746.889,790.784 747.555,782.87 748.22,782.587 748.886,782.374 
  749.551,775.046 750.217,775.309 750.882,775.556 751.548,775.811 752.213,768.923 752.879,733.954 753.544,729.829 754.21,697.491 754.875,645.926 755.541,597.797 
  756.206,552.853 756.872,475.265 757.537,431.335 758.203,376.104 758.868,338.811 759.533,304.003 760.199,278.647 760.864,276.365 761.53,281.387 762.195,250.411 
  762.861,264.268 763.526,255.843 764.192,240.824 764.857,198.297 765.523,179.988 766.188,177.156 766.854,160.256 767.519,165.897 768.185,164.003 768.85,183.624 
  769.516,201.962 770.181,211.923 770.847,221.249 771.512,244.208 772.178,294.121 772.843,319.321 773.509,342.873 774.174,379.08 774.84,420.003 775.505,465.326 
  776.171,443.477 776.836,487.233 777.502,485.308 778.167,519.177 778.833,536.504 779.498,559.803 780.164,588.679 780.829,594.274 781.494,606.623 782.16,618.121 
  782.825,628.881 783.491,631.785 784.156,648.725 784.822,636.022 785.487,666.935 786.153,695.843 786.818,680.01 787.484,686.635 788.149,699.919 788.815,690.93 
  789.48,703.927 790.146,708.931 790.811,706.499 791.477,704.241 792.142,716.349 792.808,720.523 793.473,738.685 794.139,677.199 794.804,719.625 795.47,780.58 
  796.135,723.429 796.801,769.883 797.466,791.845 798.132,776.74 798.797,812.51 799.463,853.042 800.128,883.754 800.794,883.879 801.459,919.608 802.125,981.513 
  802.79,1003.69 803.455,1017.27 804.121,994.291 804.786,994.201 805.452,1036.87 806.117,1076.75 806.783,1121.08 807.448,1112.53 808.114,1140.2 808.779,1151.83 
  809.445,1155.54 810.11,1194.56 810.776,1159.7 811.441,1191.36 812.107,1235.19 812.772,1254.7 813.438,1223.02 814.103,1236.22 814.769,1234.28 815.434,1253.86 
  816.1,1200.82 816.765,1229.73 817.431,1221.07 818.096,1227.25 818.762,1225.91 819.427,1217.54 820.093,1216.86 820.758,1266.11 821.424,1247.91 822.089,1181.04 
  822.755,1189.95 823.42,1212.51 824.086,1162.24 824.751,1115.34 825.416,1092.95 826.082,1114.83 826.747,1106.75 827.413,1042.16 828.078,1010.36 828.744,1023.45 
  829.409,1078.49 830.075,1008.65 830.74,936.313 831.406,1004.21 832.071,1003.47 832.737,931.505 833.402,928.466 834.068,961.289 834.733,934.917 835.399,853.258 
  836.064,948.074 836.73,922.562 837.395,870.282 838.061,849.951 838.726,887.964 839.392,873.605 840.057,874.461 840.723,861.046 841.388,834.182 842.054,844.766 
  842.719,840.413 843.385,864.898 844.05,844.933 844.716,776.419 845.381,805.104 846.047,810.457 846.712,836.82 847.377,847.217 848.043,842.661 848.708,817.06 
  849.374,785.987 850.039,735.564 850.705,781.118 851.37,866.488 852.036,874.936 852.701,804.396 853.367,767.028 854.032,789.212 854.698,809.941 855.363,765.1 
  856.029,773.18 856.694,794.95 857.36,850.955 858.025,767.74 858.691,768.489 859.356,861.878 860.022,842.148 860.687,745.272 861.353,747.519 862.018,763.873 
  862.684,779.161 863.349,800.576 864.015,784.871 864.68,791.635 865.346,826.44 866.011,808.994 866.677,764.216 867.342,750.952 868.007,767.086 868.673,760.744 
  869.338,733.413 870.004,807.766 870.669,862.934 871.335,814.569 872,683.839 872.666,732.925 873.331,835.815 873.997,846.327 874.662,756.347 875.328,736.472 
  875.993,789.204 876.659,788.548 877.324,795.055 877.99,772.635 878.655,794.469 879.321,800.639 879.986,749.328 880.652,737.077 881.317,718.436 881.983,815.146 
  882.648,834.144 883.314,816.202 883.979,742.441 884.645,787.673 885.31,765.701 885.976,752.246 886.641,732.626 887.307,835.457 887.972,817.453 888.637,772.124 
  889.303,758.326 889.968,788.191 890.634,780.473 891.299,787.504 891.965,758.417 892.63,802.555 893.296,800.984 893.961,785.263 894.627,742.076 895.292,773.06 
  895.958,816.249 896.623,820.92 897.289,768.255 897.954,719.074 898.62,772.993 899.285,773.367 899.951,795.152 900.616,786.949 901.282,779.315 901.947,793.578 
  902.613,778.35 903.278,757.009 903.944,729.969 904.609,833.098 905.275,836.641 905.94,790.063 906.606,760.785 907.271,740.63 907.937,771.726 908.602,807.903 
  909.267,813.129 909.933,746.752 910.598,777.412 911.264,813.173 911.929,789.535 912.595,746.112 913.26,798.251 913.926,782.739 914.591,796.767 915.257,745.735 
  915.922,776.539 916.588,748.216 917.253,700.295 917.919,769.666 918.584,870.15 919.25,807.089 919.915,719.669 920.581,766.392 921.246,817.118 921.912,771.798 
  922.577,750.89 923.243,724.213 923.908,827.709 924.574,838.743 925.239,763.476 925.905,728.844 926.57,789.22 927.236,817.072 927.901,757.484 928.566,701.889 
  929.232,778.286 929.897,828.228 930.563,796.408 931.228,745.332 931.894,790.352 932.559,825.209 933.225,772.181 933.89,736.943 934.556,789.643 935.221,824.6 
  935.887,785.894 936.552,735.512 937.218,781.169 937.883,809.539 938.549,786.093 939.214,749.954 939.88,737.634 940.545,811.674 941.211,788.115 941.876,787.515 
  942.542,758.391 943.207,745.529 943.873,762.076 944.538,848.748 945.204,801.362 945.869,721.443 946.535,739.519 947.2,834.839 947.866,745.537 948.531,740.595 
  949.196,871.462 949.862,879.622 950.527,716.123 951.193,741.702 951.858,815.487 952.524,748.849 953.189,729.497 953.855,825.513 954.52,829.568 955.186,854.784 
  955.851,742.863 956.517,681.06 957.182,765.996 957.848,838.144 958.513,841.393 959.179,716.107 959.844,720.335 960.51,831.17 961.175,806.306 961.841,711.846 
  962.506,737.707 963.172,825.997 963.837,815.736 964.503,749.107 965.168,765.354 965.834,823.315 966.499,813.233 967.165,732.515 967.83,721.347 968.495,796.525 
  969.161,823.885 969.826,778.114 970.492,771.063 971.157,807.274 971.823,784.057 972.488,776.581 973.154,762.5 973.819,756.496 974.485,736.609 975.15,810.758 
  975.816,822.923 976.481,705.952 977.147,832.022 977.812,856.982 978.478,716.346 979.143,720.53 979.809,831.348 980.474,799.389 981.14,741.069 981.805,757.887 
  982.471,745.01 983.136,775.778 983.802,783.118 984.467,854.176 985.133,842.101 985.798,780.939 986.464,688.171 987.129,701.319 987.794,734.934 988.46,851.916 
  989.125,861.373 989.791,784.617 990.456,777.189 991.122,748.797 991.787,736.494 992.453,753.53 993.118,805.154 993.784,839.102 994.449,756.713 995.115,708.309 
  995.78,741.54 996.446,808.187 997.111,834.777 997.777,795.426 998.442,794.353 999.108,793.379 999.773,756.787 1000.44,736.856 1001.1,768.174 1001.77,804.558 
  1002.44,802.911 1003.1,787.061 1003.77,757.985 1004.43,816.441 1005.1,799.738 1005.76,784.124 1006.43,719.602 1007.09,730.665 1007.76,812.318 1008.42,795.864 
  1009.09,780.456 1009.76,709.035 1010.42,749.324 1011.09,865.344 1011.75,866.751 1012.42,696.936 1013.08,759.405 1013.75,760.674 1014.41,826.07 1015.08,844.341 
  1015.74,797.31 1016.41,746.214 1017.08,741.221 1017.74,743.686 1018.41,774.525 1019.07,838.999 1019.74,827.912 1020.4,746.233 1021.07,698.518 1021.73,732.43 
  1022.4,821.071 1023.07,789.702 1023.73,824.624 1024.4,878.647 1025.06,743.664 1025.73,710.327 1026.39,757.647 1027.06,787.573 1027.72,801.279 1028.39,771.291 
  1029.05,793.187 1029.72,792.242 1030.39,805.643 1031.05,782.508 1031.72,746.598 1032.38,741.655 1033.05,801.193 1033.71,821.09 1034.38,761.259 1035.04,748.21 
  1035.71,793.049 1036.37,777.88 1037.04,763.706 1037.71,778.978 1038.37,807.518 1039.04,791.369 1039.7,754.851 1040.37,685.17 1041.03,762.733 1041.7,828.004 
  1042.36,803.3 1043.03,744.63 1043.69,803.969 1044.36,845.099 1045.03,819.308 1045.69,695.443 1046.36,750.926 1047.02,831.258 1047.69,785.016 1048.35,777.507 
  1049.02,713.476 1049.68,760.688 1050.35,854.547 1051.02,756.834 1051.68,722.641 1052.35,769.167 1053.01,812.566 1053.68,767.506 1054.34,739.717 1055.01,820.743 
  1055.67,867.9 1056.34,797.896 1057,746.802 1057.67,791.735 1058.34,769.51 1059,734.459 1059.67,744.504 1060.33,789.554 1061,838.73 1061.66,799.155 
  1062.33,762.222 1062.99,770.523 1063.66,785.395 1064.32,777.839 1064.99,728.02 1065.66,745.647 1066.32,812.021 1066.99,816.946 1067.65,750.288 1068.32,745.099 
  1068.98,804.399 1069.65,809.836 1070.31,779.266 1070.98,779.272 1071.65,765.05 1072.31,780.236 1072.98,780.1 1073.64,772.898 1074.31,780.458 1074.97,766.13 
  1075.64,766.963 1076.3,810.533 1076.97,787.098 1077.63,800.838 1078.3,792.254 1078.97,798.496 1079.63,768.708 1080.3,726.624 1080.96,673.056 1081.63,865.502 
  1082.29,845.487 1082.96,776.924 1083.62,755.653 1084.29,742.925 1084.95,809.516 1085.62,836.02 1086.29,782.374 1086.95,775.07 1087.62,761.135 1088.28,798.025 
  1088.95,768.272 1089.61,761.89 1090.28,748.808 1090.94,765.103 1091.61,808.859 1092.28,799.747 1092.94,769.876 1093.61,684.868 1094.27,798.038 1094.94,853.815 
  1095.6,791.816 1096.27,748.217 1096.93,793.09 1097.6,792.168 1098.26,784.151 1098.93,762.446 1099.6,784.949 1100.26,805.95 1100.93,754.273 1101.59,770.217 
  1102.26,763.663 1102.92,778.928 1103.59,771.769 1104.25,772.287 1104.92,765.619 1105.58,809.32 1106.25,750.222 1106.92,787.827 1107.58,837.135 1108.25,783.433 
  1108.91,740.341 1109.58,771.452 1110.24,821.874 1110.91,740.606 1111.57,728.908 1112.24,789.262 1112.91,788.602 1113.57,780.858 1114.24,759.324 1114.9,703.524 
  1115.57,772.682 1116.23,815.821 1116.9,799.083 1117.56,790.589 1118.23,832.624 1118.89,864.721 1119.56,716.441 1120.23,670.722 1120.89,813.38 1121.56,853.88 
  1122.22,791.936 1122.89,762.543 1123.55,777.927 1124.22,763.752 1124.88,771.904 1125.55,765.254 1126.21,773.273 1126.88,766.54 1127.55,795.864 1128.21,808.992 
  1128.88,785.605 1129.54,763.776 1130.21,793.335 1130.87,749.617 1131.54,808.574 1132.2,820.879 1132.87,732.582 1133.53,735.686 1134.2,781.289 1134.87,766.853 
  1135.53,796.199 1136.2,830.717 1136.86,798.754 1137.53,733.285 1138.19,764.843 1138.86,772.941 1139.52,794.727 1140.19,772.302 1140.86,779.924 1141.52,822.655 
  1142.19,791.232 1142.85,747.646 1143.52,771.119 1144.18,778.794 1144.85,757.425 1145.51,773.066 1146.18,780.586 1146.84,766.223 1147.51,774.178 1148.18,795.848 
  1148.84,794.723 1149.51,772.264 1150.17,815.505 1150.84,834.447 1151.5,738.075 1152.17,769.316 1152.83,791.37 1153.5,790.595 1154.16,825.509 1154.83,744.023 
  1155.5,717.9 1156.16,821.766 1156.83,826.09 1157.49,758.846 1158.16,753.113 1158.82,769.119 1159.49,769.801 1160.15,770.428 1160.82,806.655 1161.49,769.206 
  1162.15,776.985 1162.82,777.141 1163.48,763.009 1164.15,792.612 1164.81,770.31 1165.48,756.621 1166.14,772.334 1166.81,794.176 1167.47,807.434 1168.14,769.888 
  1168.81,770.492 1169.47,806.748 1170.14,783.529 1170.8,754.739 1171.47,756.363 1172.13,793.534 1172.8,764.074 1173.46,779.33 1174.13,715.153 1174.79,769.328 
  1175.46,827.005 1176.13,795.289 1176.79,737.201 1177.46,797.036 1178.12,810.114 1178.79,779.491 1179.45,729.56 1180.12,739.982 1180.78,792.454 1181.45,791.48 
  1182.12,762.083 1182.78,798.849 1183.45,818.909 1184.11,801.966 1184.78,757.641 1185.44,787.6 1186.11,787.019 1186.77,772.229 1187.44,779.79 1188.1,758.388 
  1188.77,802.555 1189.44,865.172 1190.1,731.101 1190.77,705.812 1191.43,831.902 1192.1,849.821 1192.76,752.442 1193.43,725.705 1194.09,707.88 1194.76,776.758 
  1195.42,826.75 1196.09,816.436 1196.76,806.862 1197.42,805.083 1198.09,817.678 1198.75,743.845 1199.42,639.265 1200.08,741.203 1200.75,864.898 1201.41,809.263 
  1202.08,785.876 1202.75,821.15 1203.41,761.342 1204.08,705.458 1204.74,767.349 1205.41,796.66 1206.07,831.137 1206.74,792.063 1207.4,755.568 1208.07,735.786 
  1208.73,767.168 1209.4,796.482 1210.07,795.306 1210.73,765.756 1211.4,816.561 1212.06,735.623 1212.73,788.41 1213.39,759.269 1214.06,824.751 1214.72,793.187 
  1215.39,777.974 1216.05,756.676 1216.72,800.946 1217.39,770.999 1218.05,800.059 1218.72,755.888 1219.38,771.708 1220.05,765.065 1220.71,780.223 1221.38,715.972 
  1222.04,819.991 1222.71,824.378 1223.37,757.184 1224.04,765.797 1224.71,894.998 1225.37,694.803 1226.04,707.525 1226.7,804.92 1227.37,831.745 1228.03,749.873 
  1228.7,808.814 1229.36,821.13 1230.03,689.989 1230.7,681.665 1231.36,873.424 1232.03,795.845 1232.69,787.625 1233.36,779.98 1234.02,808.463 1234.69,720.933 
  1235.35,724.827 1236.02,813.975 1236.68,833.018 1237.35,779.508 1238.02,786.625 1238.68,793.294 1239.35,778.108 1240.01,763.91 1240.68,743.531 1241.34,788.663 
  1242.01,816.553 1242.67,778.408 1243.34,749.934 1244,816.024 1244.67,792.163 1245.34,784.156 1246,748.168 1246.67,778.733 1247.33,764.503 1248,815.365 
  1248.66,727.402 1249.33,766.454 1249.99,788.701 1250.66,823.7 1251.33,756.566 1251.99,736.701 1252.66,760.942 1253.32,854.821 1253.99,792.74 1254.65,806.111 
  1255.32,747.328 1255.98,756.594 1256.65,743.787 1257.31,831.695 1257.98,835.33 1258.65,874.393 1259.31,796.71 1259.98,938.063 1260.64,884.712 1261.31,920.457 
  1261.97,960.958 1262.64,1034.4 1263.3,995.983 1263.97,1059.92 1264.63,1098.24 1265.3,1126.87 1265.97,1110.81 1266.63,1188.49 1267.3,1275.26 1267.96,1220.8 
  1268.63,1148.58 1269.29,1245.14 1269.96,1256.79 1270.62,1274.75 1271.29,1355.76 1271.96,1360.06 1272.62,1278.57 1273.29,1259.48 1273.95,1270.2 1274.62,1223.18 
  1275.28,1236.33 1275.95,1284.24 1276.61,1222.03 1277.28,1163.99 1277.94,1152.57 1278.61,1099.12 1279.28,1070.66 1279.94,1079.72 1280.61,1009.77 1281.27,1008.62 
  1281.94,1007.53 1282.6,978.053 1283.27,950.512 1283.93,939.089 1284.6,942.691 1285.26,881.895 1285.93,924.926 1286.6,922.32 1287.26,862.887 1287.93,907.21 
  1288.59,855.915 1289.26,836.527 1289.92,918.222 1290.59,866.165 1291.25,846.117 1291.92,891.559 1292.58,834.174 1293.25,816.235 1293.92,835.155 1294.58,845.686 
  1295.25,812.723 1295.91,824.726 1296.58,821.705 1297.24,833.132 1297.91,836.669 1298.57,825.691 1299.24,794.084 1299.91,835.865 1300.57,839.221 1301.24,792.432 
  1301.9,784.425 1302.57,819.722 1303.23,795.642 1303.9,794.527 1304.56,814.87 1305.23,798.216 1305.89,782.681 1306.56,832.328 1307.23,821.638 1307.89,761.799 
  1308.56,805.731 1309.22,796.814 1309.89,781.363 1310.55,809.735 1311.22,829.096 1311.88,782.98 1312.55,747.068 1313.21,763.47 1313.88,793.012 1314.55,792.072 
  1315.21,819.715 1315.88,788.504 1316.54,773.632 1317.21,781.134 1317.87,773.857 1318.54,809.833 1319.2,772.131 1319.87,744.068 1320.54,703.621 1321.2,701.538 
  1321.87,671.076 1322.53,642.625 1323.2,601.815 1323.86,577.978 1324.53,505.861 1325.19,531.215 1325.86,490.705 1326.52,467.15 1327.19,438.038 1327.86,396.634 
  1328.52,372.222 1329.19,399.335 1329.85,303.488 1330.52,278.159 1331.18,311.568 1331.85,285.703 1332.51,325.712 1333.18,263.261 1333.84,283.384 1334.51,287.908 
  1335.18,292.13 1335.84,317.457 1336.51,376.753 1337.17,303.788 1337.84,314.083 1338.5,394.946 1339.17,413.421 1339.83,459.149 1340.5,459.111 1341.16,501.869 
  1341.83,506.111 1342.5,531.38 1343.16,533.629 1343.83,599.905 1344.49,676.02 1345.16,668.628 1345.82,704.495 1346.49,752.229 1347.15,689.883 1347.82,759.976 
  1348.49,775.499 1349.15,789.987 1349.82,725.073 1350.48,742.922 1351.15,745.35 1351.81,719.081 1352.48,701.689 1353.14,685.457 1353.81,698.844 1354.47,668.545 
  1355.14,654.522 1355.81,641.435 1356.47,664.888 1357.14,636.854 1357.8,639.2 1358.47,684.159 1359.13,690.48 1359.8,682.148 1360.46,695.756 1361.13,694.204 
  1361.79,714.111 1362.46,697.05 1363.13,723.923 1363.79,720.489 1364.46,724.388 1365.12,706.646 1365.79,754.259 1366.45,770.182 1367.12,699.514 1367.78,690.583 
  1368.45,746.371 1369.12,755.673 1369.78,764.379 1370.45,765.377 1371.11,752.054 1371.78,718.183 1372.44,736.468 1373.11,774.941 1373.77,782.378 1374.44,746.564 
  1375.1,755.854 1375.77,743.14 1376.44,788.32 1377.1,766.339 1377.77,752.926 1378.43,768.893 1379.1,769.59 1379.76,770.24 1380.43,763.721 1381.09,764.738 
  1381.76,765.687 1382.42,773.7 1383.09,766.951 1383.76,774.904 1384.42,760.921 1385.09,769.253 1385.75,798.412 1386.42,782.862 1387.08,768.374 1387.75,776.207 
  1388.41,769.265 1389.08,769.938 1389.74,777.668 1390.41,777.781 1391.08,777.86 1391.74,777.934 1392.41,778.03 1393.07,778.119 1393.74,771.075 1394.4,778.755 
  1395.07,785.899 1395.73,778.307 1396.4,771.226 1397.07,778.895 1397.73,778.901 1398.4,786.036 1399.06,771.335 1399.73,771.845 1400.39,779.447 1401.06,779.441 
  1401.72,765.155 1402.39,787.462 1403.05,765.511 1403.72,773.563 1404.39,773.95 1405.05,781.412 1405.72,774.123 1406.38,774.472 1407.05,781.925 1407.71,781.729 
  1408.38,781.57 1409.04,774.297 1409.71,781.779 1410.37,774.509 1411.04,781.933 1411.71,781.71 1412.37,774.428 1413.04,767.602 1413.7,782.64 1414.37,789.525 
  1415.03,788.848 1415.7,788.215 1416.36,773.343 1417.03,780.844 1417.7,780.694 1418.36,780.58 1419.03,773.346 1419.69,773.696 1420.36,795.458 1421.02,758.746 
  1421.69,781.503 1422.35,774.2 1423.02,781.671 1423.68,781.491 1424.35,788.478 1425.02,780.732 1425.68,787.745 1426.35,780.056 1427.01,772.857 1427.68,787.521 
  1428.34,772.737 1429.01,773.178 1429.67,787.847 1430.34,773 1431,759.167 1431.67,774.769 1432.34,796.458 1433,773.909 1433.67,767.116 1434.33,789.293 
  1435,781.525 1435.66,767.1 1436.33,767.916 1436.99,797.164 1437.66,774.592 1438.32,782.036 1438.99,788.985 1439.66,781.187 1440.32,773.938 1440.99,795.65 
  1441.65,780.306 1442.32,765.961 1442.98,781.085 1443.65,780.945 1444.31,766.582 1444.98,781.656 1445.65,781.503 1446.31,781.359 1446.98,781.225 1447.64,788.23 
  1448.31,780.508 1448.97,766.176 1449.64,781.286 1450.3,788.285 1450.97,766.305 1451.63,788.535 1452.3,780.768 1452.97,773.522 1453.63,795.269 1454.3,794.183 
  1454.96,764.68 1455.63,765.633 1456.29,773.676 1456.96,759.773 1457.62,782.436 1458.29,782.206 1458.95,782.015 1459.62,774.685 1460.29,774.997 1460.95,775.262 
  1461.62,782.634 1462.28,789.519 1462.95,774.56 1463.61,796.239 1464.28,773.728 1464.94,766.949 1465.61,774.88 1466.28,782.305 1466.94,767.827 1467.61,797.082 
  1468.27,774.515 1468.94,781.939 1469.6,781.741 1470.27,767.301 1470.93,789.463 1471.6,781.634 1472.26,774.356 1472.93,788.944 1473.6,781.175 1474.26,773.926 
  1474.93,774.262 1475.59,788.833 1476.26,766.815 1476.92,781.907 1477.59,781.736 1478.25,788.705 1478.92,766.672 1479.58,781.773 1480.25,774.484 1480.92,774.782 
  1481.58,775.063 1482.25,775.324 1482.91,782.695 1483.58,782.447 1484.24,782.216 1484.91,796.281 1485.57,752.267 1486.24,768.211 1486.9,804.501 1487.57,795.581 
  1488.24,794.408 1488.9,764.774 1489.57,758.502 1490.23,766.928 1490.9,824.69 1491.56,850.063 1492.23,873.743 1492.89,895.871 1493.56,916.525 1494.23,950.032 
  1494.89,981.303 1495.56,996.236 1496.22,1060.06 1496.89,1048.38 1497.55,1094.51 1498.22,1130.4 1498.88,1213.8 1499.55,1206.11 1500.21,1277.36 1500.88,1201.3 
  1501.55,1272.84 1502.21,1225.57 1502.88,1267.01 1503.54,1327.07 1504.21,1318.98 1504.87,1339.91 1505.54,1316.65 1506.2,1366.28 1506.87,1384.06 1507.53,1386.4 
  1508.2,1352.94 1508.87,1357.35 1509.53,1325.8 1510.2,1296.38 1510.86,1304.57 1511.53,1297.92 1512.19,1277.46 1512.86,1229.88 1513.52,1221.11 1514.19,1177.29 
  1514.86,1150.64 1515.52,1147.12 1516.19,1101.1 1516.85,1051.02 1517.52,1047.04 1518.18,1029.06 1518.85,1012.29 1519.51,1010.9 1520.18,1002.47 1520.84,966.089 
  1521.51,939.282 1522.18,949.878 1522.84,952.672 1523.51,926.735 1524.17,852.631 1524.84,869.013 1525.5,912.84 1526.17,896.718 1526.83,846.033 1527.5,905.623 
  1528.16,875.702 1528.83,826.394 1529.5,858.796 1530.16,903.272 1530.83,837.87 1531.49,805.329 1532.16,889.04 1532.82,831.738 1533.49,742.583 1534.15,873.238 
  1534.82,859.734 1535.48,768.721 1536.15,797.825 1536.82,775.067 1537.48,703.955 1538.15,765.887 1538.81,716.748 1539.48,692.3 1540.14,669.483 1540.81,626.793 
  1541.47,629.726 1542.14,603.944 1542.81,594.161 1543.47,542.263 1544.14,515.217 1544.8,525.613 1545.47,478.26 1546.13,448.345 1546.8,413.304 1547.46,473.263 
  1548.13,443.663 1548.79,451.703 1549.46,359.415 1550.13,430.069 1550.79,389.119 1551.46,422.154 1552.12,360.348 1552.79,388.164 1553.45,328.599 1554.12,322.925 
  1554.78,374.646 1555.45,344.483 1556.11,287.828 1556.78,313.343 1557.45,358.564 1558.11,293.861 1558.78,283.358 1559.44,259.273 1560.11,265.253 1560.77,320.784 
  1561.44,358.383 1562.1,315.066 1562.77,317.434 1563.43,362.357 1564.1,361.553 1564.77,432.089 1565.43,369.613 1566.1,496.596 1566.76,465.457 1567.43,486.265 
  1568.09,377.372 1568.76,639.323 1569.42,605.825 1570.09,560.243 1570.76,503.442 1571.42,678.554 1572.09,578.26 1572.75,612.951 1573.42,581.183 1574.08,708.352 
  1574.75,648.841 1575.41,671.672 1576.08,600.375 1576.74,719.109 1577.41,673.111 1578.08,737.081 1578.74,632.868 1579.41,763.692 1580.07,686.209 1580.74,742.198 
  1581.4,644.764 1582.07,796.205 1582.73,709.453 1583.4,742.533 1584.06,666.479 1584.73,795.09 1585.4,701.267 1586.06,749.097 1586.73,679.704 1587.39,800.307 
  1588.06,734.638 1588.72,773.131 1589.39,695.038 1590.05,778.94 1590.72,693.286 1591.39,777.288 1592.05,691.718 1592.72,790.026 1593.38,824.854 1594.05,821.774 
  1594.71,726.245 1595.38,736.822 1596.04,739.539 1596.71,713.535 1597.37,732.027 1598.04,834.874 1598.71,802.588 1599.37,758.145 1600.04,738.081 1600.7,769.209 
  1601.37,719.847 1602.03,766.413 1602.7,809.9 1603.36,786.396 1604.03,728.784 1604.69,753.421 1605.36,797.78 1606.03,760.804 1606.69,719.18 1607.36,787.264 
  1608.02,879.309 1608.69,787.017 1609.35,715.132 1610.02,747.835 1610.68,813.971 1611.35,825.827 1612.01,751.304 1612.68,724.569 1613.35,813.621 1614.01,761.347 
  1614.68,776.711 1615.34,726.872 1616.01,830.044 1616.67,790.933 1617.34,797.169 1618,696.097 1618.67,808.46 1619.34,785.043 1620,777.415 1620.67,677.642 
  1621.33,841.134 1622,786.975 1622.66,793.476 1623.33,728.236 1623.99,845.546 1624.66,741.195 1625.32,793.536 1625.99,706.933 1626.66,811.444 1627.32,752.135 
  1627.99,839.332 1628.65,799.592 1629.32,833.838 1629.98,773.107 1630.65,780.552 1631.31,709.091 1631.98,756.445 1632.64,772.101 1633.31,808.123 1633.98,734.861 
  1634.64,808.98 1635.31,842.545 1635.97,774.061 1636.64,695.889 1637.3,793.991 1637.97,792.915 1638.63,799.045 1639.3,790.515 1639.96,732.672 1640.63,764.204 
  1641.3,800.744 1641.96,806.355 1642.63,740.311 1643.29,785.591 1643.96,820.724 1644.62,782.234 1645.29,710.635 1645.95,715.069 1646.62,811.901 1647.29,845.253 
  1647.95,748.076 1648.62,764.27 1649.28,786.542 1649.95,800.199 1650.61,741.667 1651.28,744.006 1651.94,760.473 1652.61,818.637 1653.27,773.131 1653.94,737.769 
  1654.61,740.405 1655.27,828.456 1655.94,810.863 1656.6,751.646 1657.27,753.41 1657.93,826.336 1658.6,801.628 1659.26,735.845 1659.93,702.994 1660.59,843.42 
  1661.26,767.713 1661.93,746.96 1662.59,727.624 1663.26,845.014 1663.92,847.608 1664.59,757.405 1665.25,694.569 1665.92,814.134 1666.58,818.797 1667.25,787.591 
  1667.91,722.769 1668.58,797.732 1669.25,796.388 1669.91,823.7 1670.58,777.93 1671.24,785.072 1671.91,748.967 1672.57,765.103 1673.24,708.936 1673.9,841.845 
  1674.57,837.615 1675.24,740.965 1675.9,729.169 1676.57,803.728 1677.23,780.601 1677.9,794.648 1678.56,729.348 1679.23,753.929 1679.89,784.043 1680.56,812.099 
  1681.22,745.618 1681.89,790.544 1682.56,796.799 1683.22,816.9 1683.89,743.052 1684.55,752.507 1685.22,804.074 1685.88,788.08 1686.55,787.405 1687.21,729.726 
  1687.88,740.017 1688.54,828.084 1689.21,846.146 1689.88,777.467 1690.54,713.287 1691.21,767.468 1691.87,818.057 1692.54,751.224 1693.2,745.872 1693.87,783.643 
  1694.71,783.258 1695.37,782.897 1696.04,750.485 1696.7,770.075 1697.37,841.848 1698.03,766.342 1698.7,809.849 1699.37,729.266 1700.03,800.194 1700.7,745.245 
  1701.36,779.487 1702.03,768.654 1702.69,819.176 1703.36,805.74 1704.02,778.921 1704.69,750.314 1705.36,780.671 1706.02,855.439 1706.69,807.518 1707.35,687.949 
  1708.02,747.415 1708.68,824.385 1709.35,842.697 1710.01,756.471 1710.68,743.657 1711.34,767.365 1712.01,732.454 1712.68,696.223 1713.34,854.894 1714.01,806.949 
  1714.67,712.365 1715.34,755.939 1716,864.319 1716.67,826.437 1717.33,723.42 1718,744.893 1718.66,871.894 1719.33,787.22 1720,701.08 1720.66,706.18 
  1721.33,821.442 1721.99,807.798 1722.66,759.447 1723.32,707.183 1723.99,779.587 1724.65,825.752 1725.32,804.696 1725.99,742.26 1726.65,769.591 1727.32,841.442 
  1727.98,815.831 1728.65,802.61 1729.31,718.955 1729.98,744.249 1730.64,792.811 1731.31,855.941 1731.97,772.341 1732.64,758.473 1733.31,713.366 1733.97,763.892 
  1734.64,789.693 1735.3,867.289 1735.97,754.352 1736.63,770.162 1737.3,752.778 1737.96,829.263 1738.63,768.794 1739.29,812.186 1739.96,742.126 1740.63,744.485 
  1741.29,817.986 1741.96,836.718 1742.62,733.021 1743.29,750.206 1743.95,752.04 1744.62,778.706 1745.28,800.051 1745.95,791.425 1746.61,758.411 1747.28,791.744 
  1747.95,758.746 1748.61,770.69 1749.28,792.56 1749.94,823.632 1750.61,760.014 1751.27,714.824 1751.94,715.363 1752.6,822.883 1753.27,866.179 1753.94,771.198 
  1754.6,721.716 1755.27,786.055 1755.76,842.537 1756.42,838.233 1757.09,834.217 1757.75,801.957 1758.42,814.587 1759.09,690.942 1759.75,703.821 1760.42,801.403 
  1761.08,806.942 1761.75,755.08 1762.41,792.238 1763.08,777.006 1763.74,762.788 1764.41,749.509 1765.07,744.297 1765.74,782.238 1766.41,767.725 1767.07,782.665 
  1767.74,746.685 1768.4,720.204 1769.07,830.978 1769.73,827.444 1770.4,767.177 1771.06,767.952 1771.73,782.905 1772.39,811.116 1773.06,730.471 1773.73,697.908 
  1774.39,803.011 1775.06,801.316 1775.72,749.891 1776.39,744.581 1777.05,825.198 1777.72,793.486 1778.38,778.135 1779.05,692.562 1779.72,819.433 1780.38,866.531 
  1781.05,789.311 1781.71,674.452 1782.38,809.677 1783.04,850.349 1783.71,788.5 1784.37,630.954 1785.04,726.282 1785.7,865.191 1786.37,859.378 1787.04,661.465 
  1787.7,719.13 1788.37,865.598 1789.03,902.497 1789.7,666.098 1790.36,666.403 1791.03,837.786 1791.69,897.953 1792.36,683.221 1793.02,689.477 1793.69,859.315 
  1794.36,910.916 1795.02,723.853 1795.69,656.152 1796.35,799.736 1797.02,876.758 1797.68,763.251 1798.35,614.491 1799.01,775.079 1799.68,924.99 1800.34,822.541 
  1801.01,662.753 1801.68,784.509 1802.34,855.329 1803.01,786.001 1803.67,664.244 1804.34,792.968 1805,849.028 1805.67,780.149 1806.33,673.056 1807,758.381 
  1807.67,895.12 1808.33,865.91 1809,710.333 1809.66,721.933 1810.33,825.518 1810.99,829.505 1811.66,776.174 1812.32,683.629 1812.99,811.088 1813.65,830.231 
  1814.32,719.825 1814.99,695.164 1815.65,821.854 1816.32,761.852 1816.98,812.831 1817.65,789.063 1818.31,752.675 1818.98,754.308 1819.64,784.398 1820.31,776.808 
  1820.97,741.262 1821.64,807.834 1822.31,862.843 1822.97,785.922 1823.64,692.674 1824.3,755.378 1824.97,849.522 1825.63,794.829 1826.3,729.491 1826.96,754.072 
  1827.63,855.424 1828.29,814.593 1828.96,690.948 1829.63,710.971 1830.29,865.102 1830.96,823.679 1831.62,685.173 1832.29,719.819 1832.95,859.13 1833.62,789.539 
  1834.28,724.589 1834.95,770.891 1835.62,828.361 1836.28,867.835 1836.95,762.061 1837.61,656.148 1838.28,664.165 1838.94,885.544 1839.61,906.911 1840.27,727.26 
  1840.94,730.633 1841.6,833.61 1842.27,772.796 1842.94,701.807 1843.6,792.388 1844.27,876.929 1845.11,870.29 1845.77,864.1 1846.44,722.875 1847.1,869.083 
  1847.77,902.266 1848.43,612.41 1849.1,715.995 1849.76,844.852 1850.43,769.144 1851.09,691.289 1851.76,789.714 1852.43,788.906 1853.09,756.034 1853.76,757.512 
  1854.42,794.473 1855.09,786.229 1855.75,789.238 1856.42,770.679 1857.08,749.777 1857.75,790.865 1858.41,800.69 1859.08,767.109 1859.75,689.425 1860.41,780.847 
  1861.08,794.901 1861.74,797.362 1862.41,799.631 1863.07,758.948 1863.74,745.921 1864.4,769.386 1865.07,744.998 1865.74,736.451 1866.4,803.386 1867.07,833.768 
  1867.73,780.071 1868.4,740.647 1869.06,782.272 1869.73,849.757 1870.39,773.688 1871.06,738.318 1871.72,762.377 1872.39,799.08 1873.06,769.106 1873.72,734.013 
  1874.39,729.783 1875.05,893.381 1875.72,885.768 1876.38,743.131 1877.05,709.869 1877.71,824.831 1878.38,746.873 1879.04,677.612 1879.71,726.998 1880.38,876.531 
  1881.04,830.797 1881.71,731.086 1882.37,730.619 1883.04,851.371 1883.7,782.351 1884.37,710.714 1885.03,690.203 1885.7,867.171 1886.36,904.039 1887.03,778.052 
  1887.7,653.27 1888.36,761.359 1889.03,790.967 1889.69,879.243 1890.36,761.989 1891.02,777.38 1891.69,756.005 1892.35,768.229 1893.02,733.218 1893.69,764.733 
  1894.35,811.936 1895.02,823.926 1895.68,749.59 1896.35,744.332 1897.01,789.344 1897.68,799.283 1898.34,694.456 1899.01,746.341 1899.67,826.884 1900.34,823.647 
  1901.01,742.192 1901.67,748.1 1902.34,821.398 1903,822.075 1903.67,740.708 1904.33,707.496 1905,779.876 1905.66,801.135 1906.16,803.15 1906.82,801.471 
  1907.49,799.905 1908.15,734.291 1908.82,779.928 1909.48,751.209 1910.15,731.525 1910.81,791.645 1911.48,833.474 1912.14,751.313 1912.81,738.757 1913.48,805.497 
  1914.14,817.893 1914.81,758.181 1915.47,773.729 1916.14,752.628 1916.8,782.777 1917.47,782.458 1918.13,824.901 1918.8,800.415 1919.47,784.637 1920.13,719.978 
  1920.8,745.202 1921.46,825.849 1922.13,851.162 1922.79,732.206 1923.46,720.949 1924.12,760.385 1924.79,832.829 1925.45,729.353 1926.12,789.592 1926.79,774.527 
  1927.45,824.679 1928.12,785.926 1928.78,771.113 1929.45,735.929 1930.11,774.346 1930.78,817.328 1931.44,807.577 1932.11,727.195 1932.77,759.093 1933.44,788.863 
  1934.11,788.165 1934.77,751.844 1935.44,789.227 1936.1,809.887 1936.77,786.439 1937.43,750.27 1938.1,752.09 1938.76,753.789 1939.43,798.126 1940.09,768.243 
  1940.76,754.609 1941.43,806.063 1942.09,846.959 1942.76,728.312 1943.42,688.818 1944.09,737.44 1944.75,854.163 1945.42,813.42 1946.08,803.918 1946.75,730.901 
  1947.42,826.703 1948.08,773.533 1948.75,695.366 1949.41,772.154 1950.08,865.225 1950.74,830.94 1951.41,684.848 1952.07,733.818 1952.74,843.647 1953.4,860.706 
  1954.07,762.534 1954.74,720.758 1955.4,745.922 1956.07,805.11 1956.73,781.917 1957.4,717.468 1958.06,728.628 1958.73,824.592 1959.39,800.109 1960.06,741.582 
  1960.72,736.853 1961.39,875 1962.06,818.608 1962.72,708.925 1963.39,727.758 1964.05,845.184 1964.72,762.295 1965.38,713.415 1966.05,781.846 1966.71,902.792 
  1967.38,816.071 1968.04,720.848 1968.71,731.759 1969.38,856.045 1970.04,800.978 1970.71,713.917 1971.37,753.827 1972.04,833.873 1972.7,830.182 1973.37,776.831 
  1974.03,727.003 1974.7,751.785 1975.36,831.975 1976.03,799.862 1976.7,691.483 1977.36,782.785 1978.03,832.415 1978.69,750.351 1979.36,616.679 1980.02,784.147 
  1980.69,912.03 1981.35,867.48 1982.02,704.722 1982.69,709.543 1983.35,799.608 1984.02,819.515 1984.68,773.979 1985.35,731.441 1986.01,777.304 1986.68,812.962 
  1987.34,760.708 1988.01,761.823 1988.67,812.803 1989.34,781.995 1990.01,767.454 1990.67,775.224 1991.34,753.987 1992,791.262 1992.67,776.12 1993.33,797.619 
  1994,781.992 1994.66,767.468 1995.33,768.161 1995.99,754.532 1996.66,720.401 1997.33,788.364 1997.99,816.158 1998.66,706.638 1999.32,640.035 1999.99,713.331 
  2000.65,738.999 2001.32,599.019 2001.98,518.255 2002.65,521.251 2003.31,573.998 2003.98,480.649 2004.65,422.035 2005.31,374.447 2005.98,458.374 2006.64,365.632 
  2007.31,279.019 2007.97,290.844 2008.64,358.952 2009.3,287.067 2009.97,212.845 2010.64,221.955 2011.3,337.396 2011.97,373.898 2012.63,301.044 2013.3,311.428 
  2013.96,306.902 2014.63,381.077 2015.29,364.704 2015.96,313.818 2016.62,337.635 2017.29,424.009 2017.96,447.599 2018.62,433.955 2019.29,449.736 2019.95,478.709 
  2020.62,505.763 2021.28,559.551 2021.95,574.143 2022.61,537.857 2023.28,553.895 2023.94,597.375 2024.61,630.829 2025.28,612.156 2025.94,644.627 2026.61,617.876 
  2027.27,635.679 2027.94,652.323 2028.6,703.506 2029.27,694.245 2029.93,699.855 2030.6,662.295 2031.26,677.164 2031.93,726.656 2032.6,680.181 2033.26,665.355 
  2033.93,758.403 2034.59,716.941 2035.26,692.481 2035.92,719.538 2036.59,766.203 2037.25,759.863 2037.92,732.559 2038.59,735.532 2039.25,738.335 2039.92,748.144 
  2040.58,735.879 2041.25,731.531 2041.91,755.993 2042.58,793.073 2043.24,756.399 2043.91,729.298 2044.57,746.782 2045.24,784.476 2045.91,755.474 2046.57,735.619 
  2047.24,781.204 2047.9,788.063 2048.57,737.523 2049.23,740.221 2049.9,799.707 2050.56,805.361 2051.23,753.669 2051.89,740.977 2052.56,757.731 2053.23,773.394 
  2053.89,759.446 2054.56,746.426 2055.22,791.271 2055.89,783.231 2056.55,782.853 2057.22,782.502 2057.88,796.429 2058.55,780.916 2059.21,802.075 2059.88,828.983 
  2060.55,846.939 2061.21,878.012 2061.88,921.214 2062.54,947.277 2063.21,950.248 2063.87,953.022 2064.54,984.092 2065.2,998.866 2065.87,1026.91 2066.54,1074.41 
  2067.2,1104.52 2067.87,1154.06 2068.53,1200.24 2069.2,1214.86 2069.86,1214.25 2070.53,1263.52 2071.19,1259.66 2071.86,1270.32 2072.52,1258.88 2073.19,1290.98 
  2073.86,1278.16 2074.52,1273.33 2075.19,1290.17 2075.85,1298.8 2076.52,1292.62 2077.18,1179.9 2077.85,1138.82 2078.51,1186.02 2079.18,1151.66 2079.84,1069.72 
  2080.51,1085.94 2081.18,1072.57 2081.84,1038.64 2082.51,1021.24 2083.17,1004.99 2083.84,989.886 2084.5,925.863 2085.17,873.209 2085.83,824.037 2086.5,813.838 
  2087.16,782.91 2087.83,768.323 2088.5,783.225 2089.16,768.564 2089.83,797.677 2090.49,839.133 2091.16,877.823 2091.82,842.629 2092.49,873.932 2093.15,896.021 
  2093.82,895.28 2094.48,844.691 2095.15,861.601 2095.82,913.052 2096.48,896.918 2097.15,860.476 2097.81,904.873 2098.48,882.158 2099.14,839.544 2099.81,835.412 
  2100.47,895.734 2101.14,852.243 2101.81,832.981 2102.47,857.799 2103.14,895.247 2103.8,823.305 2104.47,820.256 2105.13,867.307 2105.8,861.324 2106.46,805.873 
  2107.13,789.755 2107.79,824.583 2108.46,807.194 2109.13,798.092 2109.79,825.263 2110.46,857.751 2111.12,788.28 2111.79,773.282 2112.45,802.081 2113.12,821.859 
  2113.78,790.393 2114.45,789.592 2115.11,788.818 2115.78,802.323 2116.45,786.445 2117.11,807.265 2117.78,798.184 2118.44,796.837 2119.11,781.324 2119.77,781.074 
  2120.44,802.226 2121.1,786.354 2121.77,778.639 2122.43,778.595 2123.1,799.939 2123.77,769.963 2124.43,777.597 2125.1,791.878 2125.76,790.924 2126.43,782.934 
  2127.09,782.604 2127.76,782.287 2128.42,774.871 2129.09,775.078 2129.76,782.374 2130.42,782.08 2131.09,774.65 2131.75,781.974 2132.42,781.68 2133.08,781.433 
  2133.75,774.073 2134.41,788.589 2135.08,773.626 2135.74,773.916 2136.41,788.443 2137.08,787.746 2137.74,787.068 2138.41,786.462 2139.07,785.87 2139.74,771.087 
  2140.4,785.775 2141.07,770.999 2141.73,771.465 2142.4,786.154 2143.06,785.61 2143.73,770.818 2144.4,785.552 2145.06,777.921 2145.73,777.898 2146.39,763.621 
  2147.06,764.551 2147.72,772.573 2148.39,787.162 2149.05,786.523 2149.72,785.926 2150.38,785.396 2151.05,777.749 2151.72,770.608 2152.38,756.843 2153.05,779.61 
  2153.71,786.6 2154.38,778.872 2155.04,793.069 2155.71,792.035 2156.37,798.226 2157.04,775.466 2157.71,761.377 2158.37,755.328 2159.04,785.349 2159.7,777.732 
  2160.37,777.721 2161.03,791.967 2161.7,769.649 2162.36,784.433 2163.03,769.721 2163.69,777.4 2164.36,770.282 2165.03,777.898 2165.69,785.03 2166.36,791.662 
  2167.02,783.593 2167.69,783.191 2168.35,775.69 2169.02,775.814 2169.68,768.803 2170.35,769.415 2171.01,784.214 2171.68,790.927 2172.35,775.808 2173.01,783.08 
  2173.68,768.485 2174.34,761.983 2175.01,784.432 2175.67,784.001 2176.34,783.599 2177,768.941 2177.67,769.544 2178.33,770.106 2179,784.887 2179.67,777.272 
  2180.33,777.32 2181,784.463 2181.66,776.904 2182.33,776.976 2182.99,777.043 2183.66,777.078 2184.32,777.137 2184.99,784.319 2185.65,783.868 2186.32,762.093 
  2186.99,784.482 2187.65,776.922 2188.32,784.12 2188.98,776.557 2189.65,783.779 2190.31,776.239 2190.98,769.226 2191.64,784.065 2192.31,776.533 2192.98,783.756 
  2193.64,776.244 2194.31,776.332 2194.97,776.441 2195.64,769.415 2196.3,777.114 2196.97,777.145 2197.63,784.327 2198.3,769.647 2198.96,763.076 2199.63,778.326 
  2200.3,785.403 2200.96,777.781 2201.63,770.664 2202.29,785.407 2202.96,777.785 2203.62,784.925 2204.29,770.179 2204.95,770.669 2205.62,778.256 2206.28,785.36 
  2206.95,791.967 2207.62,783.875 2208.28,769.223 2208.95,776.906 2209.61,776.947 2210.28,769.883 2210.94,777.522 2211.61,791.778 2212.27,769.469 2212.94,784.263 
  2213.6,776.714 2214.27,783.922 2214.94,776.396 2215.6,769.369 2216.27,769.912 2216.93,784.702 2217.6,784.252 2218.26,776.705 2218.93,783.913 2219.59,776.388 
  2220.26,769.361 2220.93,762.806 2221.59,778.071 2222.26,778.062 2222.92,785.18 2223.59,784.67 2224.25,784.194 2224.92,776.65 2225.58,762.479 2226.25,777.765 
  2226.91,784.903 2227.58,770.156 2228.25,770.675 2228.91,778.262 2229.58,799.596 2230.24,783.868 2230.91,776.32 2231.57,776.4 2232.24,776.502 2232.9,783.698 
  2233.57,776.187 2234.23,776.304 2234.9,776.412 2235.57,776.487 2236.23,783.701 2236.9,776.181 2237.56,776.289 2238.23,776.399 2238.89,776.501 2239.56,769.44 
  2240.22,777.135 2240.89,777.161 2241.55,791.469 2242.22,790.539 2242.89,775.416 2243.55,775.557 2244.22,775.715 2244.88,768.734 2245.55,783.604 2246.21,776.099 
  2246.88,769.065 2247.54,762.502 2248.21,777.759 2248.87,777.772 2249.54,777.755 2250.21,784.867 2250.87,770.148 2251.54,784.923 2252.2,784.43 2252.87,776.843 
  2253.53,776.916 2254.2,769.854 2254.86,784.649 2255.53,784.202 2256.2,776.657 2256.86,776.715 2257.53,776.796 2258.19,776.872 2258.86,784.069 2259.52,776.56 
  2260.19,776.651 2260.85,776.709 2261.52,783.917 2262.18,783.509 2262.85,776.011 2263.52,783.238 2264.18,775.731 2264.85,768.748 2265.51,776.49 2266.18,790.815 
  2266.84,775.7 2267.51,775.868 2268.17,783.132 2268.84,782.733 2269.5,768.122 2270.17,768.777 2270.84,762.287 2271.5,770.457 2272.17,770.956 2272.83,807.133 
  2273.5,790.959 2274.16,790.038 2274.83,774.976 2275.49,775.174 2276.16,782.404 2276.82,775.024 2277.49,768.08 2278.16,775.814 2278.82,775.983 2279.49,761.875 
  2280.15,762.945 2280.82,771.043 2281.48,792.924 2282.15,777.598 2282.81,770.465 2283.48,785.211 2284.14,784.742 2284.81,777.161 2285.48,777.186 2286.14,755.798 
  2286.81,750.129 2287.47,766.212 2288.14,795.498 2288.8,801.427 2289.47,792.706 2290.13,798.849 2290.8,768.932 2291.47,769.568 2292.13,755.897 2292.8,771.577 
  2293.46,764.847 
  "/>
<path clip-path="url(#clip910)" d="
M1606.69 270.476 L2282.92 270.476 L2282.92 166.796 L1606.69 166.796  Z
  " fill="#ffffff" fill-rule="evenodd" fill-opacity="1"/>
<polyline clip-path="url(#clip910)" style="stroke:#000000; stroke-linecap:butt; stroke-linejoin:round; stroke-width:4; stroke-opacity:1; fill:none" points="
  1606.69,270.476 2282.92,270.476 2282.92,166.796 1606.69,166.796 1606.69,270.476 
  "/>
<polyline clip-path="url(#clip910)" style="stroke:#009af9; stroke-linecap:butt; stroke-linejoin:round; stroke-width:4; stroke-opacity:1; fill:none" points="
  1629.97,218.636 1769.64,218.636 
  "/>
<path clip-path="url(#clip910)" d="M1798.24 209.99 L1802.5 209.99 L1802.5 236.379 Q1802.5 241.332 1800.6 243.555 Q1798.73 245.777 1794.54 245.777 L1792.92 245.777 L1792.92 242.166 L1794.05 242.166 Q1796.48 242.166 1797.36 241.031 Q1798.24 239.92 1798.24 236.379 L1798.24 209.99 M1798.24 199.897 L1802.5 199.897 L1802.5 205.291 L1798.24 205.291 L1798.24 199.897 Z" fill="#000000" fill-rule="evenodd" fill-opacity="1" /><path clip-path="url(#clip910)" d="M1833.59 221.888 L1833.59 223.971 L1814 223.971 Q1814.28 228.369 1816.64 230.684 Q1819.03 232.976 1823.26 232.976 Q1825.72 232.976 1828.01 232.374 Q1830.32 231.772 1832.59 230.569 L1832.59 234.596 Q1830.3 235.568 1827.89 236.078 Q1825.49 236.587 1823.01 236.587 Q1816.81 236.587 1813.17 232.976 Q1809.56 229.365 1809.56 223.207 Q1809.56 216.842 1812.99 213.115 Q1816.44 209.365 1822.27 209.365 Q1827.5 209.365 1830.53 212.745 Q1833.59 216.101 1833.59 221.888 M1829.33 220.638 Q1829.28 217.143 1827.36 215.059 Q1825.46 212.976 1822.31 212.976 Q1818.75 212.976 1816.6 214.99 Q1814.47 217.004 1814.14 220.661 L1829.33 220.638 Z" fill="#000000" fill-rule="evenodd" fill-opacity="1" /><path clip-path="url(#clip910)" d="M1855.6 213.971 Q1854.88 213.555 1854.03 213.37 Q1853.19 213.161 1852.18 213.161 Q1848.56 213.161 1846.62 215.522 Q1844.7 217.86 1844.7 222.258 L1844.7 235.916 L1840.42 235.916 L1840.42 209.99 L1844.7 209.99 L1844.7 214.018 Q1846.04 211.657 1848.19 210.522 Q1850.35 209.365 1853.43 209.365 Q1853.87 209.365 1854.4 209.434 Q1854.93 209.481 1855.58 209.596 L1855.6 213.971 Z" fill="#000000" fill-rule="evenodd" fill-opacity="1" /><path clip-path="url(#clip910)" d="M1859.91 199.897 L1864.19 199.897 L1864.19 221.17 L1876.9 209.99 L1882.34 209.99 L1868.59 222.119 L1882.92 235.916 L1877.36 235.916 L1864.19 223.254 L1864.19 235.916 L1859.91 235.916 L1859.91 199.897 Z" fill="#000000" fill-rule="evenodd" fill-opacity="1" /><path clip-path="url(#clip910)" d="M1907.22 243.786 L1907.22 247.096 L1882.59 247.096 L1882.59 243.786 L1907.22 243.786 Z" fill="#000000" fill-rule="evenodd" fill-opacity="1" /><path clip-path="url(#clip910)" d="M1931.41 214.967 Q1933.01 212.096 1935.23 210.731 Q1937.45 209.365 1940.46 209.365 Q1944.51 209.365 1946.71 212.212 Q1948.91 215.036 1948.91 220.268 L1948.91 235.916 L1944.63 235.916 L1944.63 220.407 Q1944.63 216.68 1943.31 214.874 Q1941.99 213.069 1939.28 213.069 Q1935.97 213.069 1934.05 215.268 Q1932.13 217.467 1932.13 221.263 L1932.13 235.916 L1927.85 235.916 L1927.85 220.407 Q1927.85 216.657 1926.53 214.874 Q1925.21 213.069 1922.45 213.069 Q1919.19 213.069 1917.27 215.291 Q1915.35 217.49 1915.35 221.263 L1915.35 235.916 L1911.06 235.916 L1911.06 209.99 L1915.35 209.99 L1915.35 214.018 Q1916.8 211.633 1918.84 210.499 Q1920.88 209.365 1923.68 209.365 Q1926.5 209.365 1928.47 210.8 Q1930.46 212.235 1931.41 214.967 Z" fill="#000000" fill-rule="evenodd" fill-opacity="1" /><path clip-path="url(#clip910)" d="M1979.58 221.888 L1979.58 223.971 L1960 223.971 Q1960.28 228.369 1962.64 230.684 Q1965.02 232.976 1969.26 232.976 Q1971.71 232.976 1974 232.374 Q1976.32 231.772 1978.59 230.569 L1978.59 234.596 Q1976.3 235.568 1973.89 236.078 Q1971.48 236.587 1969 236.587 Q1962.8 236.587 1959.17 232.976 Q1955.55 229.365 1955.55 223.207 Q1955.55 216.842 1958.98 213.115 Q1962.43 209.365 1968.26 209.365 Q1973.49 209.365 1976.53 212.745 Q1979.58 216.101 1979.58 221.888 M1975.32 220.638 Q1975.28 217.143 1973.36 215.059 Q1971.46 212.976 1968.31 212.976 Q1964.74 212.976 1962.59 214.99 Q1960.46 217.004 1960.14 220.661 L1975.32 220.638 Z" fill="#000000" fill-rule="evenodd" fill-opacity="1" /><path clip-path="url(#clip910)" d="M1998.36 222.883 Q1993.19 222.883 1991.2 224.064 Q1989.21 225.244 1989.21 228.092 Q1989.21 230.36 1990.69 231.703 Q1992.2 233.022 1994.77 233.022 Q1998.31 233.022 2000.44 230.522 Q2002.59 227.999 2002.59 223.832 L2002.59 222.883 L1998.36 222.883 M2006.85 221.124 L2006.85 235.916 L2002.59 235.916 L2002.59 231.981 Q2001.13 234.342 1998.96 235.476 Q1996.78 236.587 1993.63 236.587 Q1989.65 236.587 1987.29 234.365 Q1984.95 232.119 1984.95 228.369 Q1984.95 223.994 1987.87 221.772 Q1990.81 219.55 1996.62 219.55 L2002.59 219.55 L2002.59 219.133 Q2002.59 216.194 2000.65 214.596 Q1998.73 212.976 1995.23 212.976 Q1993.01 212.976 1990.9 213.508 Q1988.8 214.041 1986.85 215.106 L1986.85 211.17 Q1989.19 210.268 1991.39 209.828 Q1993.59 209.365 1995.67 209.365 Q2001.3 209.365 2004.07 212.282 Q2006.85 215.198 2006.85 221.124 Z" fill="#000000" fill-rule="evenodd" fill-opacity="1" /><path clip-path="url(#clip910)" d="M2032.15 210.754 L2032.15 214.782 Q2030.35 213.856 2028.4 213.393 Q2026.46 212.93 2024.37 212.93 Q2021.2 212.93 2019.61 213.902 Q2018.03 214.874 2018.03 216.819 Q2018.03 218.3 2019.17 219.157 Q2020.3 219.99 2023.73 220.754 L2025.18 221.078 Q2029.72 222.05 2031.62 223.832 Q2033.54 225.592 2033.54 228.763 Q2033.54 232.374 2030.67 234.481 Q2027.82 236.587 2022.82 236.587 Q2020.74 236.587 2018.47 236.17 Q2016.23 235.777 2013.73 234.967 L2013.73 230.569 Q2016.09 231.795 2018.38 232.42 Q2020.67 233.022 2022.92 233.022 Q2025.92 233.022 2027.55 232.004 Q2029.17 230.962 2029.17 229.087 Q2029.17 227.351 2027.98 226.425 Q2026.83 225.499 2022.87 224.643 L2021.39 224.295 Q2017.43 223.462 2015.67 221.749 Q2013.91 220.013 2013.91 217.004 Q2013.91 213.346 2016.5 211.356 Q2019.1 209.365 2023.86 209.365 Q2026.23 209.365 2028.31 209.712 Q2030.39 210.059 2032.15 210.754 Z" fill="#000000" fill-rule="evenodd" fill-opacity="1" /><path clip-path="url(#clip910)" d="M2039.88 225.684 L2039.88 209.99 L2044.14 209.99 L2044.14 225.522 Q2044.14 229.203 2045.58 231.055 Q2047.01 232.883 2049.88 232.883 Q2053.33 232.883 2055.32 230.684 Q2057.34 228.485 2057.34 224.689 L2057.34 209.99 L2061.6 209.99 L2061.6 235.916 L2057.34 235.916 L2057.34 231.934 Q2055.79 234.295 2053.73 235.453 Q2051.69 236.587 2048.98 236.587 Q2044.51 236.587 2042.2 233.809 Q2039.88 231.031 2039.88 225.684 M2050.6 209.365 L2050.6 209.365 Z" fill="#000000" fill-rule="evenodd" fill-opacity="1" /><path clip-path="url(#clip910)" d="M2085.39 213.971 Q2084.67 213.555 2083.82 213.37 Q2082.98 213.161 2081.97 213.161 Q2078.35 213.161 2076.41 215.522 Q2074.49 217.86 2074.49 222.258 L2074.49 235.916 L2070.21 235.916 L2070.21 209.99 L2074.49 209.99 L2074.49 214.018 Q2075.83 211.657 2077.98 210.522 Q2080.14 209.365 2083.22 209.365 Q2083.66 209.365 2084.19 209.434 Q2084.72 209.481 2085.37 209.596 L2085.39 213.971 Z" fill="#000000" fill-rule="evenodd" fill-opacity="1" /><path clip-path="url(#clip910)" d="M2110.99 221.888 L2110.99 223.971 L2091.41 223.971 Q2091.69 228.369 2094.05 230.684 Q2096.43 232.976 2100.67 232.976 Q2103.12 232.976 2105.41 232.374 Q2107.73 231.772 2110 230.569 L2110 234.596 Q2107.71 235.568 2105.3 236.078 Q2102.89 236.587 2100.42 236.587 Q2094.21 236.587 2090.58 232.976 Q2086.97 229.365 2086.97 223.207 Q2086.97 216.842 2090.39 213.115 Q2093.84 209.365 2099.67 209.365 Q2104.91 209.365 2107.94 212.745 Q2110.99 216.101 2110.99 221.888 M2106.73 220.638 Q2106.69 217.143 2104.77 215.059 Q2102.87 212.976 2099.72 212.976 Q2096.16 212.976 2094 214.99 Q2091.87 217.004 2091.55 220.661 L2106.73 220.638 Z" fill="#000000" fill-rule="evenodd" fill-opacity="1" /><path clip-path="url(#clip910)" d="M2138.17 214.967 Q2139.77 212.096 2141.99 210.731 Q2144.21 209.365 2147.22 209.365 Q2151.27 209.365 2153.47 212.212 Q2155.67 215.036 2155.67 220.268 L2155.67 235.916 L2151.39 235.916 L2151.39 220.407 Q2151.39 216.68 2150.07 214.874 Q2148.75 213.069 2146.04 213.069 Q2142.73 213.069 2140.81 215.268 Q2138.89 217.467 2138.89 221.263 L2138.89 235.916 L2134.6 235.916 L2134.6 220.407 Q2134.6 216.657 2133.29 214.874 Q2131.97 213.069 2129.21 213.069 Q2125.95 213.069 2124.03 215.291 Q2122.1 217.49 2122.1 221.263 L2122.1 235.916 L2117.82 235.916 L2117.82 209.99 L2122.1 209.99 L2122.1 214.018 Q2123.56 211.633 2125.6 210.499 Q2127.64 209.365 2130.44 209.365 Q2133.26 209.365 2135.23 210.8 Q2137.22 212.235 2138.17 214.967 Z" fill="#000000" fill-rule="evenodd" fill-opacity="1" /><path clip-path="url(#clip910)" d="M2186.34 221.888 L2186.34 223.971 L2166.76 223.971 Q2167.04 228.369 2169.4 230.684 Q2171.78 232.976 2176.02 232.976 Q2178.47 232.976 2180.76 232.374 Q2183.08 231.772 2185.35 230.569 L2185.35 234.596 Q2183.05 235.568 2180.65 236.078 Q2178.24 236.587 2175.76 236.587 Q2169.56 236.587 2165.92 232.976 Q2162.31 229.365 2162.31 223.207 Q2162.31 216.842 2165.74 213.115 Q2169.19 209.365 2175.02 209.365 Q2180.25 209.365 2183.28 212.745 Q2186.34 216.101 2186.34 221.888 M2182.08 220.638 Q2182.03 217.143 2180.11 215.059 Q2178.22 212.976 2175.07 212.976 Q2171.5 212.976 2169.35 214.99 Q2167.22 217.004 2166.9 220.661 L2182.08 220.638 Z" fill="#000000" fill-rule="evenodd" fill-opacity="1" /><path clip-path="url(#clip910)" d="M2214.88 220.268 L2214.88 235.916 L2210.62 235.916 L2210.62 220.407 Q2210.62 216.726 2209.19 214.897 Q2207.75 213.069 2204.88 213.069 Q2201.43 213.069 2199.44 215.268 Q2197.45 217.467 2197.45 221.263 L2197.45 235.916 L2193.17 235.916 L2193.17 209.99 L2197.45 209.99 L2197.45 214.018 Q2198.98 211.68 2201.04 210.522 Q2203.12 209.365 2205.83 209.365 Q2210.3 209.365 2212.59 212.143 Q2214.88 214.897 2214.88 220.268 Z" fill="#000000" fill-rule="evenodd" fill-opacity="1" /><path clip-path="url(#clip910)" d="M2227.59 202.629 L2227.59 209.99 L2236.36 209.99 L2236.36 213.3 L2227.59 213.3 L2227.59 227.374 Q2227.59 230.545 2228.45 231.448 Q2229.33 232.351 2231.99 232.351 L2236.36 232.351 L2236.36 235.916 L2231.99 235.916 Q2227.06 235.916 2225.18 234.087 Q2223.31 232.235 2223.31 227.374 L2223.31 213.3 L2220.18 213.3 L2220.18 209.99 L2223.31 209.99 L2223.31 202.629 L2227.59 202.629 Z" fill="#000000" fill-rule="evenodd" fill-opacity="1" /></svg>
