<?xml version="1.0" encoding="utf-8"?>
<svg xmlns="http://www.w3.org/2000/svg" xmlns:xlink="http://www.w3.org/1999/xlink" width="600" height="400" viewBox="0 0 2400 1600">
<defs>
  <clipPath id="clip940">
    <rect x="0" y="0" width="2400" height="1600"/>
  </clipPath>
</defs>
<path clip-path="url(#clip940)" d="
M0 1600 L2400 1600 L2400 0 L0 0  Z
  " fill="#ffffff" fill-rule="evenodd" fill-opacity="1"/>
<defs>
  <clipPath id="clip941">
    <rect x="480" y="0" width="1681" height="1600"/>
  </clipPath>
</defs>
<path clip-path="url(#clip940)" d="
M257.69 1423.18 L2352.76 1423.18 L2352.76 123.472 L257.69 123.472  Z
  " fill="#ffffff" fill-rule="evenodd" fill-opacity="1"/>
<defs>
  <clipPath id="clip942">
    <rect x="257" y="123" width="2096" height="1301"/>
  </clipPath>
</defs>
<polyline clip-path="url(#clip942)" style="stroke:#000000; stroke-linecap:butt; stroke-linejoin:round; stroke-width:2; stroke-opacity:0.1; fill:none" points="
  314.383,1423.18 314.383,123.472 
  "/>
<polyline clip-path="url(#clip942)" style="stroke:#000000; stroke-linecap:butt; stroke-linejoin:round; stroke-width:2; stroke-opacity:0.1; fill:none" points="
  769.786,1423.18 769.786,123.472 
  "/>
<polyline clip-path="url(#clip942)" style="stroke:#000000; stroke-linecap:butt; stroke-linejoin:round; stroke-width:2; stroke-opacity:0.1; fill:none" points="
  1225.19,1423.18 1225.19,123.472 
  "/>
<polyline clip-path="url(#clip942)" style="stroke:#000000; stroke-linecap:butt; stroke-linejoin:round; stroke-width:2; stroke-opacity:0.1; fill:none" points="
  1680.59,1423.18 1680.59,123.472 
  "/>
<polyline clip-path="url(#clip942)" style="stroke:#000000; stroke-linecap:butt; stroke-linejoin:round; stroke-width:2; stroke-opacity:0.1; fill:none" points="
  2135.99,1423.18 2135.99,123.472 
  "/>
<polyline clip-path="url(#clip940)" style="stroke:#000000; stroke-linecap:butt; stroke-linejoin:round; stroke-width:4; stroke-opacity:1; fill:none" points="
  257.69,1423.18 2352.76,1423.18 
  "/>
<polyline clip-path="url(#clip940)" style="stroke:#000000; stroke-linecap:butt; stroke-linejoin:round; stroke-width:4; stroke-opacity:1; fill:none" points="
  314.383,1423.18 314.383,1404.28 
  "/>
<polyline clip-path="url(#clip940)" style="stroke:#000000; stroke-linecap:butt; stroke-linejoin:round; stroke-width:4; stroke-opacity:1; fill:none" points="
  769.786,1423.18 769.786,1404.28 
  "/>
<polyline clip-path="url(#clip940)" style="stroke:#000000; stroke-linecap:butt; stroke-linejoin:round; stroke-width:4; stroke-opacity:1; fill:none" points="
  1225.19,1423.18 1225.19,1404.28 
  "/>
<polyline clip-path="url(#clip940)" style="stroke:#000000; stroke-linecap:butt; stroke-linejoin:round; stroke-width:4; stroke-opacity:1; fill:none" points="
  1680.59,1423.18 1680.59,1404.28 
  "/>
<polyline clip-path="url(#clip940)" style="stroke:#000000; stroke-linecap:butt; stroke-linejoin:round; stroke-width:4; stroke-opacity:1; fill:none" points="
  2135.99,1423.18 2135.99,1404.28 
  "/>
<path clip-path="url(#clip940)" d="M314.383 1454.1 Q310.772 1454.1 308.943 1457.66 Q307.138 1461.2 307.138 1468.33 Q307.138 1475.44 308.943 1479.01 Q310.772 1482.55 314.383 1482.55 Q318.017 1482.55 319.823 1479.01 Q321.652 1475.44 321.652 1468.33 Q321.652 1461.2 319.823 1457.66 Q318.017 1454.1 314.383 1454.1 M314.383 1450.39 Q320.193 1450.39 323.249 1455 Q326.327 1459.58 326.327 1468.33 Q326.327 1477.06 323.249 1481.67 Q320.193 1486.25 314.383 1486.25 Q308.573 1486.25 305.494 1481.67 Q302.439 1477.06 302.439 1468.33 Q302.439 1459.58 305.494 1455 Q308.573 1450.39 314.383 1450.39 Z" fill="#000000" fill-rule="evenodd" fill-opacity="1" /><path clip-path="url(#clip940)" d="M749.057 1481.64 L765.376 1481.64 L765.376 1485.58 L743.432 1485.58 L743.432 1481.64 Q746.094 1478.89 750.677 1474.26 Q755.283 1469.61 756.464 1468.27 Q758.709 1465.74 759.589 1464.01 Q760.492 1462.25 760.492 1460.56 Q760.492 1457.8 758.547 1456.07 Q756.626 1454.33 753.524 1454.33 Q751.325 1454.33 748.871 1455.09 Q746.441 1455.86 743.663 1457.41 L743.663 1452.69 Q746.487 1451.55 748.941 1450.97 Q751.395 1450.39 753.432 1450.39 Q758.802 1450.39 761.996 1453.08 Q765.191 1455.77 765.191 1460.26 Q765.191 1462.39 764.381 1464.31 Q763.594 1466.2 761.487 1468.8 Q760.908 1469.47 757.807 1472.69 Q754.705 1475.88 749.057 1481.64 Z" fill="#000000" fill-rule="evenodd" fill-opacity="1" /><path clip-path="url(#clip940)" d="M775.237 1451.02 L793.593 1451.02 L793.593 1454.96 L779.519 1454.96 L779.519 1463.43 Q780.538 1463.08 781.556 1462.92 Q782.575 1462.73 783.594 1462.73 Q789.381 1462.73 792.76 1465.9 Q796.14 1469.08 796.14 1474.49 Q796.14 1480.07 792.668 1483.17 Q789.195 1486.25 782.876 1486.25 Q780.7 1486.25 778.431 1485.88 Q776.186 1485.51 773.779 1484.77 L773.779 1480.07 Q775.862 1481.2 778.084 1481.76 Q780.306 1482.32 782.783 1482.32 Q786.788 1482.32 789.126 1480.21 Q791.464 1478.1 791.464 1474.49 Q791.464 1470.88 789.126 1468.77 Q786.788 1466.67 782.783 1466.67 Q780.908 1466.67 779.033 1467.08 Q777.182 1467.5 775.237 1468.38 L775.237 1451.02 Z" fill="#000000" fill-rule="evenodd" fill-opacity="1" /><path clip-path="url(#clip940)" d="M1199.89 1451.02 L1218.24 1451.02 L1218.24 1454.96 L1204.17 1454.96 L1204.17 1463.43 Q1205.19 1463.08 1206.21 1462.92 Q1207.23 1462.73 1208.24 1462.73 Q1214.03 1462.73 1217.41 1465.9 Q1220.79 1469.08 1220.79 1474.49 Q1220.79 1480.07 1217.32 1483.17 Q1213.85 1486.25 1207.53 1486.25 Q1205.35 1486.25 1203.08 1485.88 Q1200.84 1485.51 1198.43 1484.77 L1198.43 1480.07 Q1200.51 1481.2 1202.73 1481.76 Q1204.96 1482.32 1207.43 1482.32 Q1211.44 1482.32 1213.78 1480.21 Q1216.11 1478.1 1216.11 1474.49 Q1216.11 1470.88 1213.78 1468.77 Q1211.44 1466.67 1207.43 1466.67 Q1205.56 1466.67 1203.68 1467.08 Q1201.83 1467.5 1199.89 1468.38 L1199.89 1451.02 Z" fill="#000000" fill-rule="evenodd" fill-opacity="1" /><path clip-path="url(#clip940)" d="M1240 1454.1 Q1236.39 1454.1 1234.56 1457.66 Q1232.76 1461.2 1232.76 1468.33 Q1232.76 1475.44 1234.56 1479.01 Q1236.39 1482.55 1240 1482.55 Q1243.64 1482.55 1245.44 1479.01 Q1247.27 1475.44 1247.27 1468.33 Q1247.27 1461.2 1245.44 1457.66 Q1243.64 1454.1 1240 1454.1 M1240 1450.39 Q1245.81 1450.39 1248.87 1455 Q1251.95 1459.58 1251.95 1468.33 Q1251.95 1477.06 1248.87 1481.67 Q1245.81 1486.25 1240 1486.25 Q1234.19 1486.25 1231.11 1481.67 Q1228.06 1477.06 1228.06 1468.33 Q1228.06 1459.58 1231.11 1455 Q1234.19 1450.39 1240 1450.39 Z" fill="#000000" fill-rule="evenodd" fill-opacity="1" /><path clip-path="url(#clip940)" d="M1654.45 1451.02 L1676.67 1451.02 L1676.67 1453.01 L1664.12 1485.58 L1659.24 1485.58 L1671.04 1454.96 L1654.45 1454.96 L1654.45 1451.02 Z" fill="#000000" fill-rule="evenodd" fill-opacity="1" /><path clip-path="url(#clip940)" d="M1685.83 1451.02 L1704.19 1451.02 L1704.19 1454.96 L1690.12 1454.96 L1690.12 1463.43 Q1691.13 1463.08 1692.15 1462.92 Q1693.17 1462.73 1694.19 1462.73 Q1699.98 1462.73 1703.36 1465.9 Q1706.74 1469.08 1706.74 1474.49 Q1706.74 1480.07 1703.26 1483.17 Q1699.79 1486.25 1693.47 1486.25 Q1691.3 1486.25 1689.03 1485.88 Q1686.78 1485.51 1684.38 1484.77 L1684.38 1480.07 Q1686.46 1481.2 1688.68 1481.76 Q1690.9 1482.32 1693.38 1482.32 Q1697.38 1482.32 1699.72 1480.21 Q1702.06 1478.1 1702.06 1474.49 Q1702.06 1470.88 1699.72 1468.77 Q1697.38 1466.67 1693.38 1466.67 Q1691.51 1466.67 1689.63 1467.08 Q1687.78 1467.5 1685.83 1468.38 L1685.83 1451.02 Z" fill="#000000" fill-rule="evenodd" fill-opacity="1" /><path clip-path="url(#clip940)" d="M2095.6 1481.64 L2103.24 1481.64 L2103.24 1455.28 L2094.93 1456.95 L2094.93 1452.69 L2103.19 1451.02 L2107.87 1451.02 L2107.87 1481.64 L2115.51 1481.64 L2115.51 1485.58 L2095.6 1485.58 L2095.6 1481.64 Z" fill="#000000" fill-rule="evenodd" fill-opacity="1" /><path clip-path="url(#clip940)" d="M2134.95 1454.1 Q2131.34 1454.1 2129.51 1457.66 Q2127.71 1461.2 2127.71 1468.33 Q2127.71 1475.44 2129.51 1479.01 Q2131.34 1482.55 2134.95 1482.55 Q2138.59 1482.55 2140.39 1479.01 Q2142.22 1475.44 2142.22 1468.33 Q2142.22 1461.2 2140.39 1457.66 Q2138.59 1454.1 2134.95 1454.1 M2134.95 1450.39 Q2140.76 1450.39 2143.82 1455 Q2146.9 1459.58 2146.9 1468.33 Q2146.9 1477.06 2143.82 1481.67 Q2140.76 1486.25 2134.95 1486.25 Q2129.14 1486.25 2126.06 1481.67 Q2123.01 1477.06 2123.01 1468.33 Q2123.01 1459.58 2126.06 1455 Q2129.14 1450.39 2134.95 1450.39 Z" fill="#000000" fill-rule="evenodd" fill-opacity="1" /><path clip-path="url(#clip940)" d="M2165.11 1454.1 Q2161.5 1454.1 2159.67 1457.66 Q2157.87 1461.2 2157.87 1468.33 Q2157.87 1475.44 2159.67 1479.01 Q2161.5 1482.55 2165.11 1482.55 Q2168.75 1482.55 2170.55 1479.01 Q2172.38 1475.44 2172.38 1468.33 Q2172.38 1461.2 2170.55 1457.66 Q2168.75 1454.1 2165.11 1454.1 M2165.11 1450.39 Q2170.92 1450.39 2173.98 1455 Q2177.06 1459.58 2177.06 1468.33 Q2177.06 1477.06 2173.98 1481.67 Q2170.92 1486.25 2165.11 1486.25 Q2159.3 1486.25 2156.23 1481.67 Q2153.17 1477.06 2153.17 1468.33 Q2153.17 1459.58 2156.23 1455 Q2159.3 1450.39 2165.11 1450.39 Z" fill="#000000" fill-rule="evenodd" fill-opacity="1" /><path clip-path="url(#clip940)" d="M1213.46 1522.27 L1213.46 1532.4 L1225.52 1532.4 L1225.52 1536.95 L1213.46 1536.95 L1213.46 1556.3 Q1213.46 1560.66 1214.64 1561.9 Q1215.85 1563.14 1219.51 1563.14 L1225.52 1563.14 L1225.52 1568.04 L1219.51 1568.04 Q1212.73 1568.04 1210.15 1565.53 Q1207.57 1562.98 1207.57 1556.3 L1207.57 1536.95 L1203.28 1536.95 L1203.28 1532.4 L1207.57 1532.4 L1207.57 1522.27 L1213.46 1522.27 Z" fill="#000000" fill-rule="evenodd" fill-opacity="1" /><path clip-path="url(#clip940)" d="M1253.95 1532.4 L1259.8 1532.4 L1259.8 1568.04 L1253.95 1568.04 L1253.95 1532.4 M1253.95 1518.52 L1259.8 1518.52 L1259.8 1525.93 L1253.95 1525.93 L1253.95 1518.52 Z" fill="#000000" fill-rule="evenodd" fill-opacity="1" /><path clip-path="url(#clip940)" d="M1301.69 1546.53 L1301.69 1568.04 L1295.83 1568.04 L1295.83 1546.72 Q1295.83 1541.66 1293.86 1539.14 Q1291.89 1536.63 1287.94 1536.63 Q1283.2 1536.63 1280.46 1539.65 Q1277.72 1542.68 1277.72 1547.9 L1277.72 1568.04 L1271.83 1568.04 L1271.83 1532.4 L1277.72 1532.4 L1277.72 1537.93 Q1279.82 1534.72 1282.66 1533.13 Q1285.52 1531.54 1289.25 1531.54 Q1295.39 1531.54 1298.54 1535.36 Q1301.69 1539.14 1301.69 1546.53 Z" fill="#000000" fill-rule="evenodd" fill-opacity="1" /><path clip-path="url(#clip940)" d="M1333.55 1518.52 L1347.05 1518.52 L1347.05 1523.07 L1339.41 1523.07 L1339.41 1572.09 L1347.05 1572.09 L1347.05 1576.64 L1333.55 1576.64 L1333.55 1518.52 Z" fill="#000000" fill-rule="evenodd" fill-opacity="1" /><path clip-path="url(#clip940)" d="M1382.25 1533.45 L1382.25 1538.98 Q1379.77 1537.71 1377.09 1537.07 Q1374.42 1536.44 1371.55 1536.44 Q1367.19 1536.44 1365 1537.77 Q1362.83 1539.11 1362.83 1541.79 Q1362.83 1543.82 1364.39 1545 Q1365.95 1546.15 1370.66 1547.2 L1372.67 1547.64 Q1378.91 1548.98 1381.52 1551.43 Q1384.16 1553.85 1384.16 1558.21 Q1384.16 1563.17 1380.21 1566.07 Q1376.3 1568.97 1369.42 1568.97 Q1366.56 1568.97 1363.44 1568.39 Q1360.35 1567.85 1356.91 1566.74 L1356.91 1560.69 Q1360.16 1562.38 1363.31 1563.24 Q1366.46 1564.07 1369.55 1564.07 Q1373.69 1564.07 1375.91 1562.66 Q1378.14 1561.23 1378.14 1558.65 Q1378.14 1556.27 1376.52 1554.99 Q1374.93 1553.72 1369.48 1552.54 L1367.45 1552.07 Q1362.01 1550.92 1359.59 1548.56 Q1357.17 1546.18 1357.17 1542.04 Q1357.17 1537.01 1360.73 1534.27 Q1364.3 1531.54 1370.85 1531.54 Q1374.1 1531.54 1376.96 1532.01 Q1379.83 1532.49 1382.25 1533.45 Z" fill="#000000" fill-rule="evenodd" fill-opacity="1" /><path clip-path="url(#clip940)" d="M1407.17 1518.52 L1407.17 1576.64 L1393.67 1576.64 L1393.67 1572.09 L1401.28 1572.09 L1401.28 1523.07 L1393.67 1523.07 L1393.67 1518.52 L1407.17 1518.52 Z" fill="#000000" fill-rule="evenodd" fill-opacity="1" /><polyline clip-path="url(#clip942)" style="stroke:#000000; stroke-linecap:butt; stroke-linejoin:round; stroke-width:2; stroke-opacity:0.1; fill:none" points="
  257.69,1415.65 2352.76,1415.65 
  "/>
<polyline clip-path="url(#clip942)" style="stroke:#000000; stroke-linecap:butt; stroke-linejoin:round; stroke-width:2; stroke-opacity:0.1; fill:none" points="
  257.69,1112.66 2352.76,1112.66 
  "/>
<polyline clip-path="url(#clip942)" style="stroke:#000000; stroke-linecap:butt; stroke-linejoin:round; stroke-width:2; stroke-opacity:0.1; fill:none" points="
  257.69,809.667 2352.76,809.667 
  "/>
<polyline clip-path="url(#clip942)" style="stroke:#000000; stroke-linecap:butt; stroke-linejoin:round; stroke-width:2; stroke-opacity:0.1; fill:none" points="
  257.69,506.673 2352.76,506.673 
  "/>
<polyline clip-path="url(#clip942)" style="stroke:#000000; stroke-linecap:butt; stroke-linejoin:round; stroke-width:2; stroke-opacity:0.1; fill:none" points="
  257.69,203.679 2352.76,203.679 
  "/>
<polyline clip-path="url(#clip940)" style="stroke:#000000; stroke-linecap:butt; stroke-linejoin:round; stroke-width:4; stroke-opacity:1; fill:none" points="
  257.69,1423.18 257.69,123.472 
  "/>
<polyline clip-path="url(#clip940)" style="stroke:#000000; stroke-linecap:butt; stroke-linejoin:round; stroke-width:4; stroke-opacity:1; fill:none" points="
  257.69,1415.65 276.588,1415.65 
  "/>
<polyline clip-path="url(#clip940)" style="stroke:#000000; stroke-linecap:butt; stroke-linejoin:round; stroke-width:4; stroke-opacity:1; fill:none" points="
  257.69,1112.66 276.588,1112.66 
  "/>
<polyline clip-path="url(#clip940)" style="stroke:#000000; stroke-linecap:butt; stroke-linejoin:round; stroke-width:4; stroke-opacity:1; fill:none" points="
  257.69,809.667 276.588,809.667 
  "/>
<polyline clip-path="url(#clip940)" style="stroke:#000000; stroke-linecap:butt; stroke-linejoin:round; stroke-width:4; stroke-opacity:1; fill:none" points="
  257.69,506.673 276.588,506.673 
  "/>
<polyline clip-path="url(#clip940)" style="stroke:#000000; stroke-linecap:butt; stroke-linejoin:round; stroke-width:4; stroke-opacity:1; fill:none" points="
  257.69,203.679 276.588,203.679 
  "/>
<path clip-path="url(#clip940)" d="M114.26 1416.11 L143.936 1416.11 L143.936 1420.04 L114.26 1420.04 L114.26 1416.11 Z" fill="#000000" fill-rule="evenodd" fill-opacity="1" /><path clip-path="url(#clip940)" d="M164.028 1401.45 Q160.417 1401.45 158.589 1405.02 Q156.783 1408.56 156.783 1415.69 Q156.783 1422.8 158.589 1426.36 Q160.417 1429.9 164.028 1429.9 Q167.663 1429.9 169.468 1426.36 Q171.297 1422.8 171.297 1415.69 Q171.297 1408.56 169.468 1405.02 Q167.663 1401.45 164.028 1401.45 M164.028 1397.75 Q169.839 1397.75 172.894 1402.36 Q175.973 1406.94 175.973 1415.69 Q175.973 1424.42 172.894 1429.02 Q169.839 1433.61 164.028 1433.61 Q158.218 1433.61 155.14 1429.02 Q152.084 1424.42 152.084 1415.69 Q152.084 1406.94 155.14 1402.36 Q158.218 1397.75 164.028 1397.75 Z" fill="#000000" fill-rule="evenodd" fill-opacity="1" /><path clip-path="url(#clip940)" d="M184.19 1427.06 L189.075 1427.06 L189.075 1432.93 L184.19 1432.93 L184.19 1427.06 Z" fill="#000000" fill-rule="evenodd" fill-opacity="1" /><path clip-path="url(#clip940)" d="M212.107 1402.45 L200.301 1420.9 L212.107 1420.9 L212.107 1402.45 M210.88 1398.37 L216.76 1398.37 L216.76 1420.9 L221.69 1420.9 L221.69 1424.79 L216.76 1424.79 L216.76 1432.93 L212.107 1432.93 L212.107 1424.79 L196.505 1424.79 L196.505 1420.27 L210.88 1398.37 Z" fill="#000000" fill-rule="evenodd" fill-opacity="1" /><path clip-path="url(#clip940)" d="M116.343 1113.11 L146.019 1113.11 L146.019 1117.05 L116.343 1117.05 L116.343 1113.11 Z" fill="#000000" fill-rule="evenodd" fill-opacity="1" /><path clip-path="url(#clip940)" d="M166.112 1098.46 Q162.501 1098.46 160.672 1102.02 Q158.866 1105.57 158.866 1112.7 Q158.866 1119.8 160.672 1123.37 Q162.501 1126.91 166.112 1126.91 Q169.746 1126.91 171.552 1123.37 Q173.38 1119.8 173.38 1112.7 Q173.38 1105.57 171.552 1102.02 Q169.746 1098.46 166.112 1098.46 M166.112 1094.76 Q171.922 1094.76 174.977 1099.36 Q178.056 1103.95 178.056 1112.7 Q178.056 1121.42 174.977 1126.03 Q171.922 1130.61 166.112 1130.61 Q160.302 1130.61 157.223 1126.03 Q154.167 1121.42 154.167 1112.7 Q154.167 1103.95 157.223 1099.36 Q160.302 1094.76 166.112 1094.76 Z" fill="#000000" fill-rule="evenodd" fill-opacity="1" /><path clip-path="url(#clip940)" d="M186.274 1124.06 L191.158 1124.06 L191.158 1129.94 L186.274 1129.94 L186.274 1124.06 Z" fill="#000000" fill-rule="evenodd" fill-opacity="1" /><path clip-path="url(#clip940)" d="M205.371 1126.01 L221.69 1126.01 L221.69 1129.94 L199.746 1129.94 L199.746 1126.01 Q202.408 1123.25 206.991 1118.62 Q211.598 1113.97 212.778 1112.63 Q215.024 1110.1 215.903 1108.37 Q216.806 1106.61 216.806 1104.92 Q216.806 1102.16 214.861 1100.43 Q212.94 1098.69 209.838 1098.69 Q207.639 1098.69 205.186 1099.45 Q202.755 1100.22 199.977 1101.77 L199.977 1097.05 Q202.801 1095.91 205.255 1095.33 Q207.709 1094.76 209.746 1094.76 Q215.116 1094.76 218.311 1097.44 Q221.505 1100.13 221.505 1104.62 Q221.505 1106.75 220.695 1108.67 Q219.908 1110.57 217.801 1113.16 Q217.223 1113.83 214.121 1117.05 Q211.019 1120.24 205.371 1126.01 Z" fill="#000000" fill-rule="evenodd" fill-opacity="1" /><path clip-path="url(#clip940)" d="M164.515 795.465 Q160.903 795.465 159.075 799.03 Q157.269 802.572 157.269 809.701 Q157.269 816.808 159.075 820.373 Q160.903 823.914 164.515 823.914 Q168.149 823.914 169.954 820.373 Q171.783 816.808 171.783 809.701 Q171.783 802.572 169.954 799.03 Q168.149 795.465 164.515 795.465 M164.515 791.762 Q170.325 791.762 173.38 796.368 Q176.459 800.951 176.459 809.701 Q176.459 818.428 173.38 823.035 Q170.325 827.618 164.515 827.618 Q158.704 827.618 155.626 823.035 Q152.57 818.428 152.57 809.701 Q152.57 800.951 155.626 796.368 Q158.704 791.762 164.515 791.762 Z" fill="#000000" fill-rule="evenodd" fill-opacity="1" /><path clip-path="url(#clip940)" d="M184.676 821.067 L189.561 821.067 L189.561 826.947 L184.676 826.947 L184.676 821.067 Z" fill="#000000" fill-rule="evenodd" fill-opacity="1" /><path clip-path="url(#clip940)" d="M209.746 795.465 Q206.135 795.465 204.306 799.03 Q202.5 802.572 202.5 809.701 Q202.5 816.808 204.306 820.373 Q206.135 823.914 209.746 823.914 Q213.38 823.914 215.186 820.373 Q217.014 816.808 217.014 809.701 Q217.014 802.572 215.186 799.03 Q213.38 795.465 209.746 795.465 M209.746 791.762 Q215.556 791.762 218.611 796.368 Q221.69 800.951 221.69 809.701 Q221.69 818.428 218.611 823.035 Q215.556 827.618 209.746 827.618 Q203.936 827.618 200.857 823.035 Q197.801 818.428 197.801 809.701 Q197.801 800.951 200.857 796.368 Q203.936 791.762 209.746 791.762 Z" fill="#000000" fill-rule="evenodd" fill-opacity="1" /><path clip-path="url(#clip940)" d="M166.112 492.471 Q162.501 492.471 160.672 496.036 Q158.866 499.578 158.866 506.707 Q158.866 513.814 160.672 517.379 Q162.501 520.92 166.112 520.92 Q169.746 520.92 171.552 517.379 Q173.38 513.814 173.38 506.707 Q173.38 499.578 171.552 496.036 Q169.746 492.471 166.112 492.471 M166.112 488.768 Q171.922 488.768 174.977 493.374 Q178.056 497.958 178.056 506.707 Q178.056 515.434 174.977 520.041 Q171.922 524.624 166.112 524.624 Q160.302 524.624 157.223 520.041 Q154.167 515.434 154.167 506.707 Q154.167 497.958 157.223 493.374 Q160.302 488.768 166.112 488.768 Z" fill="#000000" fill-rule="evenodd" fill-opacity="1" /><path clip-path="url(#clip940)" d="M186.274 518.073 L191.158 518.073 L191.158 523.953 L186.274 523.953 L186.274 518.073 Z" fill="#000000" fill-rule="evenodd" fill-opacity="1" /><path clip-path="url(#clip940)" d="M205.371 520.018 L221.69 520.018 L221.69 523.953 L199.746 523.953 L199.746 520.018 Q202.408 517.263 206.991 512.633 Q211.598 507.981 212.778 506.638 Q215.024 504.115 215.903 502.379 Q216.806 500.62 216.806 498.93 Q216.806 496.175 214.861 494.439 Q212.94 492.703 209.838 492.703 Q207.639 492.703 205.186 493.467 Q202.755 494.231 199.977 495.782 L199.977 491.059 Q202.801 489.925 205.255 489.346 Q207.709 488.768 209.746 488.768 Q215.116 488.768 218.311 491.453 Q221.505 494.138 221.505 498.629 Q221.505 500.758 220.695 502.68 Q219.908 504.578 217.801 507.17 Q217.223 507.842 214.121 511.059 Q211.019 514.254 205.371 520.018 Z" fill="#000000" fill-rule="evenodd" fill-opacity="1" /><path clip-path="url(#clip940)" d="M164.028 189.478 Q160.417 189.478 158.589 193.042 Q156.783 196.584 156.783 203.714 Q156.783 210.82 158.589 214.385 Q160.417 217.926 164.028 217.926 Q167.663 217.926 169.468 214.385 Q171.297 210.82 171.297 203.714 Q171.297 196.584 169.468 193.042 Q167.663 189.478 164.028 189.478 M164.028 185.774 Q169.839 185.774 172.894 190.38 Q175.973 194.964 175.973 203.714 Q175.973 212.44 172.894 217.047 Q169.839 221.63 164.028 221.63 Q158.218 221.63 155.14 217.047 Q152.084 212.44 152.084 203.714 Q152.084 194.964 155.14 190.38 Q158.218 185.774 164.028 185.774 Z" fill="#000000" fill-rule="evenodd" fill-opacity="1" /><path clip-path="url(#clip940)" d="M184.19 215.079 L189.075 215.079 L189.075 220.959 L184.19 220.959 L184.19 215.079 Z" fill="#000000" fill-rule="evenodd" fill-opacity="1" /><path clip-path="url(#clip940)" d="M212.107 190.473 L200.301 208.922 L212.107 208.922 L212.107 190.473 M210.88 186.399 L216.76 186.399 L216.76 208.922 L221.69 208.922 L221.69 212.811 L216.76 212.811 L216.76 220.959 L212.107 220.959 L212.107 212.811 L196.505 212.811 L196.505 208.297 L210.88 186.399 Z" fill="#000000" fill-rule="evenodd" fill-opacity="1" /><path clip-path="url(#clip940)" d="M16.4842 967.926 L16.4842 961.496 L60.694 961.496 Q69.2877 961.496 73.1708 964.775 Q77.0539 968.021 77.0539 975.246 L77.0539 977.697 L71.643 977.697 L71.643 975.692 Q71.643 971.427 69.2559 969.676 Q66.8687 967.926 60.694 967.926 L16.4842 967.926 Z" fill="#000000" fill-rule="evenodd" fill-opacity="1" /><path clip-path="url(#clip940)" d="M44.7161 918.464 L47.5806 918.464 L47.5806 945.391 Q53.6281 945.009 56.8109 941.763 Q59.9619 938.484 59.9619 932.66 Q59.9619 929.286 59.1344 926.135 Q58.3069 922.952 56.6518 919.833 L62.1899 919.833 Q63.5267 922.984 64.227 926.294 Q64.9272 929.604 64.9272 933.01 Q64.9272 941.54 59.9619 946.537 Q54.9967 951.502 46.5303 951.502 Q37.7774 951.502 32.6531 946.791 Q27.4968 942.049 27.4968 934.028 Q27.4968 926.835 32.1438 922.665 Q36.7589 918.464 44.7161 918.464 M42.9973 924.321 Q38.1912 924.384 35.3266 927.026 Q32.4621 929.636 32.4621 933.965 Q32.4621 938.866 35.2312 941.826 Q38.0002 944.754 43.0292 945.2 L42.9973 924.321 Z" fill="#000000" fill-rule="evenodd" fill-opacity="1" /><path clip-path="url(#clip940)" d="M33.8307 888.195 Q33.2578 889.182 33.0032 890.36 Q32.7167 891.505 32.7167 892.906 Q32.7167 897.871 35.9632 900.545 Q39.1779 903.186 45.2253 903.186 L64.0042 903.186 L64.0042 909.075 L28.3562 909.075 L28.3562 903.186 L33.8944 903.186 Q30.6479 901.34 29.0883 898.38 Q27.4968 895.42 27.4968 891.187 Q27.4968 890.582 27.5923 889.85 Q27.656 889.118 27.8151 888.227 L33.8307 888.195 Z" fill="#000000" fill-rule="evenodd" fill-opacity="1" /><path clip-path="url(#clip940)" d="M14.479 882.275 L14.479 876.387 L43.7294 876.387 L28.3562 858.913 L28.3562 851.433 L45.0344 870.339 L64.0042 850.637 L64.0042 858.276 L46.5939 876.387 L64.0042 876.387 L64.0042 882.275 L14.479 882.275 Z" fill="#000000" fill-rule="evenodd" fill-opacity="1" /><path clip-path="url(#clip940)" d="M14.479 824.124 L14.479 810.629 L19.0304 810.629 L19.0304 818.268 L68.0464 818.268 L68.0464 810.629 L72.5979 810.629 L72.5979 824.124 L14.479 824.124 Z" fill="#000000" fill-rule="evenodd" fill-opacity="1" /><path clip-path="url(#clip940)" d="M35.1993 770.398 Q31.2526 768.202 29.3747 765.146 Q27.4968 762.091 27.4968 757.953 Q27.4968 752.383 31.4117 749.359 Q35.2948 746.335 42.4881 746.335 L64.0042 746.335 L64.0042 752.224 L42.679 752.224 Q37.5546 752.224 35.072 754.038 Q32.5894 755.852 32.5894 759.576 Q32.5894 764.128 35.6131 766.769 Q38.6368 769.411 43.8567 769.411 L64.0042 769.411 L64.0042 775.299 L42.679 775.299 Q37.5228 775.299 35.072 777.114 Q32.5894 778.928 32.5894 782.715 Q32.5894 787.203 35.6449 789.845 Q38.6686 792.487 43.8567 792.487 L64.0042 792.487 L64.0042 798.375 L28.3562 798.375 L28.3562 792.487 L33.8944 792.487 Q30.616 790.482 29.0564 787.681 Q27.4968 784.88 27.4968 781.028 Q27.4968 777.145 29.4702 774.44 Q31.4436 771.703 35.1993 770.398 Z" fill="#000000" fill-rule="evenodd" fill-opacity="1" /><path clip-path="url(#clip940)" d="M16.4842 724.246 L16.4842 718.836 L70.0516 735.386 L70.0516 740.797 L16.4842 724.246 Z" fill="#000000" fill-rule="evenodd" fill-opacity="1" /><path clip-path="url(#clip940)" d="M29.4065 689.967 L34.9447 689.967 Q33.6716 692.45 33.035 695.123 Q32.3984 697.797 32.3984 700.661 Q32.3984 705.022 33.7352 707.218 Q35.072 709.382 37.7456 709.382 Q39.7826 709.382 40.9603 707.823 Q42.1061 706.263 43.1565 701.553 L43.6021 699.547 Q44.9389 693.309 47.3897 690.699 Q49.8086 688.057 54.1691 688.057 Q59.1344 688.057 62.0308 692.004 Q64.9272 695.919 64.9272 702.794 Q64.9272 705.659 64.3543 708.778 Q63.8132 711.865 62.6992 715.303 L56.6518 715.303 Q58.3387 712.056 59.198 708.905 Q60.0256 705.754 60.0256 702.667 Q60.0256 698.529 58.6251 696.301 Q57.1929 694.073 54.6147 694.073 Q52.2276 694.073 50.9545 695.696 Q49.6813 697.288 48.5037 702.73 L48.0262 704.767 Q46.8804 710.21 44.5251 712.629 Q42.138 715.048 38.0002 715.048 Q32.9713 715.048 30.2341 711.483 Q27.4968 707.918 27.4968 701.362 Q27.4968 698.115 27.9743 695.251 Q28.4517 692.386 29.4065 689.967 Z" fill="#000000" fill-rule="evenodd" fill-opacity="1" /><path clip-path="url(#clip940)" d="M16.4842 654.446 L34.2127 637.164 L34.2127 643.561 L21.6404 657.566 L34.2127 671.57 L34.2127 677.968 L16.4842 660.685 L16.4842 654.446 Z" fill="#000000" fill-rule="evenodd" fill-opacity="1" /><path clip-path="url(#clip940)" d="M38.3822 603.807 Q39.3689 599.192 42.4881 596.614 Q45.6073 594.004 50.1906 594.004 Q57.2247 594.004 61.0759 598.842 Q64.9272 603.68 64.9272 612.592 Q64.9272 615.584 64.3224 618.767 Q63.7495 621.918 62.5719 625.291 L56.3653 625.291 Q57.9249 622.618 58.7206 619.435 Q59.5163 616.252 59.5163 612.783 Q59.5163 606.735 57.1292 603.584 Q54.7421 600.402 50.1906 600.402 Q45.9892 600.402 43.6339 603.362 Q41.2468 606.29 41.2468 611.542 L41.2468 617.08 L35.9632 617.08 L35.9632 611.287 Q35.9632 606.544 34.0853 604.03 Q32.1756 601.516 28.6108 601.516 Q24.9505 601.516 23.009 604.126 Q21.0356 606.704 21.0356 611.542 Q21.0356 614.183 21.6086 617.207 Q22.1815 620.231 23.3909 623.859 L17.6618 623.859 Q16.6433 620.199 16.134 617.016 Q15.6248 613.801 15.6248 610.969 Q15.6248 603.648 18.9668 599.383 Q22.277 595.118 27.9424 595.118 Q31.8892 595.118 34.6264 597.378 Q37.3318 599.638 38.3822 603.807 Z" fill="#000000" fill-rule="evenodd" fill-opacity="1" /><path clip-path="url(#clip940)" d="M14.479 568.955 L72.5979 568.955 L72.5979 582.45 L68.0464 582.45 L68.0464 574.843 L19.0304 574.843 L19.0304 582.45 L14.479 582.45 L14.479 568.955 Z" fill="#000000" fill-rule="evenodd" fill-opacity="1" /><path clip-path="url(#clip940)" d="M1236.8 12.096 L1244.99 12.096 L1244.99 68.3631 Q1244.99 79.3005 1240.81 84.2426 Q1236.68 89.1847 1227.49 89.1847 L1224.37 89.1847 L1224.37 82.2982 L1226.92 82.2982 Q1232.35 82.2982 1234.58 79.26 Q1236.8 76.2218 1236.8 68.3631 L1236.8 12.096 Z" fill="#000000" fill-rule="evenodd" fill-opacity="1" /><path clip-path="url(#clip940)" d="M1299.75 48.0275 L1299.75 51.6733 L1265.48 51.6733 Q1265.97 59.3701 1270.1 63.421 Q1274.27 67.4314 1281.69 67.4314 Q1285.98 67.4314 1289.99 66.3781 Q1294.04 65.3249 1298.01 63.2184 L1298.01 70.267 Q1294 71.9684 1289.79 72.8596 Q1285.58 73.7508 1281.24 73.7508 Q1270.39 73.7508 1264.03 67.4314 Q1257.71 61.1119 1257.71 50.3365 Q1257.71 39.1965 1263.7 32.6746 Q1269.74 26.1121 1279.95 26.1121 Q1289.1 26.1121 1294.41 32.0264 Q1299.75 37.9003 1299.75 48.0275 M1292.3 45.84 Q1292.22 39.7232 1288.86 36.0774 Q1285.54 32.4315 1280.03 32.4315 Q1273.79 32.4315 1270.02 35.9558 Q1266.29 39.4801 1265.73 45.8805 L1292.3 45.84 Z" fill="#000000" fill-rule="evenodd" fill-opacity="1" /><path clip-path="url(#clip940)" d="M1338.28 34.1734 Q1337.02 33.4443 1335.52 33.1202 Q1334.07 32.7556 1332.28 32.7556 Q1325.96 32.7556 1322.56 36.8875 Q1319.2 40.9789 1319.2 48.6757 L1319.2 72.576 L1311.7 72.576 L1311.7 27.2059 L1319.2 27.2059 L1319.2 34.2544 Q1321.55 30.1225 1325.32 28.1376 Q1329.08 26.1121 1334.47 26.1121 Q1335.24 26.1121 1336.17 26.2337 Q1337.1 26.3147 1338.24 26.5172 L1338.28 34.1734 Z" fill="#000000" fill-rule="evenodd" fill-opacity="1" /><path clip-path="url(#clip940)" d="M1345.81 9.54393 L1353.31 9.54393 L1353.31 46.7717 L1375.55 27.2059 L1385.07 27.2059 L1361 48.4326 L1386.08 72.576 L1376.36 72.576 L1353.31 50.4176 L1353.31 72.576 L1345.81 72.576 L1345.81 9.54393 Z" fill="#000000" fill-rule="evenodd" fill-opacity="1" /><polyline clip-path="url(#clip942)" style="stroke:#009af9; stroke-linecap:butt; stroke-linejoin:round; stroke-width:4; stroke-opacity:1; fill:none" points="
  316.984,801.511 317.684,804.59 318.384,803.924 319.084,800.081 319.784,809.207 320.484,807.65 321.184,809.48 321.883,807.843 322.583,804.669 323.283,810.074 
  323.983,826.878 324.683,827.423 325.383,822.855 326.083,825.357 326.783,834.467 327.482,827.738 328.182,828.224 328.882,820.222 329.582,821.215 330.282,823.829 
  330.982,824.575 331.682,835.426 332.381,832.019 333.081,830.532 333.781,830.829 334.481,810.808 335.181,817.499 335.881,815.283 336.581,814.906 337.281,823.017 
  337.98,825.512 338.68,821.07 339.38,823.694 340.08,799.079 340.78,809.938 341.48,816.69 342.18,811.149 342.879,809.36 343.579,807.692 344.279,816.285 
  344.979,815.848 345.679,803.593 346.379,807.385 347.079,814.302 347.779,812.299 348.478,825.661 349.178,826.282 349.878,809.947 350.578,811.62 351.278,819.951 
  351.978,810.808 352.678,824.263 353.377,816.515 354.077,810.98 354.777,797.359 355.477,811.711 356.177,818.341 356.877,809.304 357.577,819.48 358.277,818.827 
  358.976,804.684 359.676,805.015 360.376,796.869 361.076,799.407 361.776,808.548 362.476,813.695 363.176,811.733 363.875,798.061 364.575,798.829 365.275,801.244 
  365.975,801.807 366.675,812.484 367.375,805.533 368.075,807.5 368.775,797.489 369.474,794.917 370.174,804.366 370.874,799.643 371.574,810.464 372.274,810.409 
  372.974,798.517 373.674,807.719 374.374,799.389 375.073,805.15 375.773,808.837 376.473,795.36 377.173,804.77 377.873,811.866 378.573,808.335 379.273,801.654 
  379.973,807.268 380.672,807.432 381.372,805.894 382.072,799.381 382.772,810.22 383.472,806.797 384.172,800.213 384.872,817.759 385.571,805.373 386.271,809.041 
  386.971,814.156 387.671,813.854 388.371,805.117 389.071,807.112 389.771,807.287 390.471,815.902 391.17,817.177 391.87,813.297 392.57,813.058 393.27,809.451 
  393.97,801.005 394.67,803.281 395.37,808.78 396.07,810.535 396.769,808.787 397.469,822.377 398.169,809.686 398.869,814.757 399.569,812.727 400.269,809.131 
  400.969,807.472 401.669,802.54 402.368,808.088 403.068,814.956 403.768,812.915 404.468,817.776 405.168,817.23 405.868,815.028 406.568,818.055 407.268,800.576 
  407.967,806.26 408.667,811.564 409.367,808.059 410.067,806.474 410.767,813.452 411.467,809.82 412.167,811.503 412.867,804.614 413.566,806.649 414.266,810.236 
  414.966,805.126 415.666,807.12 416.366,805.595 417.066,812.637 417.766,803.983 418.466,806.055 419.165,797.843 419.865,795.245 420.565,804.663 421.265,815.142 
  421.965,813.088 422.665,811.172 423.365,799.228 424.065,801.613 424.764,798.76 425.464,792.725 426.164,802.311 426.864,792.651 427.564,797.169 428.264,808.151 
  428.964,806.559 429.664,815.228 430.363,801.323 431.063,793.423 431.763,801.274 432.463,801.839 433.163,802.358 433.863,801.153 434.563,811.871 435.263,811.723 
  435.962,799.745 436.662,803.792 437.362,802.489 438.062,808.04 438.762,803.073 439.462,795.051 440.162,807.874 440.862,807.991 441.561,808.101 442.261,814.968 
  442.961,802.774 443.661,808.309 444.361,801.626 445.061,803.857 445.761,809.32 446.461,804.27 447.161,818.165 447.86,812.529 448.56,810.646 449.26,805.506 
  449.96,805.782 450.66,797.583 451.36,806.852 452.06,798.579 452.76,811.162 453.459,816.136 454.159,815.702 454.859,810.223 455.559,806.803 456.259,800.225 
  456.959,809.314 457.659,800.878 458.359,804.841 459.058,806.858 459.758,810.428 460.458,815.459 461.158,811.692 461.858,816.632 462.558,807.71 463.258,806.152 
  463.958,816.541 464.657,817.773 465.357,807.088 466.057,814.026 466.757,822.192 467.457,819.663 468.157,817.302 468.857,813.404 469.557,816.542 470.256,812.695 
  470.956,815.875 471.656,822.223 472.356,818 473.056,808.989 473.756,819.182 474.456,813.474 475.156,811.528 475.855,809.71 476.555,814.78 477.255,812.751 
  477.955,821.004 478.655,820.244 479.355,812.774 480.055,809.181 480.755,809.215 481.455,805.86 482.154,802.73 482.854,811.649 483.554,814.9 484.254,824.706 
  484.954,816.937 485.654,801.231 486.354,801.796 487.054,805.702 487.753,805.967 488.453,807.911 489.153,824.95 489.853,823.934 490.553,816.215 491.253,807.319 
  491.953,802.399 492.653,807.959 493.352,804.691 494.052,803.333 494.752,807.138 495.452,812.379 496.152,803.739 496.852,810.898 497.552,804.049 498.252,819.655 
  498.951,824.064 499.651,804.499 500.351,794.697 501.051,792.313 501.751,790.084 502.451,796.461 503.151,812.565 503.851,820.831 504.551,821.775 505.25,822.658 
  505.95,811.642 506.65,803.05 507.35,800.108 508.05,802.44 508.75,807.999 509.45,814.877 510.15,817.916 510.849,819.059 511.549,816.738 512.249,812.886 
  512.949,807.593 513.649,814.498 514.349,815.866 515.049,817.141 515.749,821.713 516.448,822.603 517.148,813.282 517.848,807.969 518.548,813.157 519.248,816.306 
  519.948,820.935 520.648,823.568 521.348,824.333 522.047,811.515 522.747,804.627 523.447,816.808 524.147,799.417 524.847,801.793 525.547,822.615 526.247,821.752 
  526.947,822.637 527.647,820.081 528.346,812.621 529.046,807.348 529.746,804.114 530.446,806.175 531.146,803.022 531.846,803.463 532.546,808.953 533.246,812.381 
  533.945,808.82 534.645,825.792 535.345,814.569 536.045,804.093 536.745,796.008 537.445,798.613 538.145,797.659 538.845,801.845 539.545,809.134 540.244,805.787 
  540.944,804.353 541.644,813.165 542.344,804.478 543.044,789.596 543.744,801.089 544.444,805.045 545.144,796.892 545.843,802.816 546.543,811.726 547.243,826.808 
  547.943,813.82 548.643,805.085 549.343,803.697 550.043,802.407 550.743,804.581 551.443,801.534 552.142,807.15 552.842,815.78 553.542,811.991 554.242,806.76 
  554.942,815.41 555.642,815.028 556.342,799.448 557.042,786.596 557.741,803.365 558.441,808.865 559.141,805.535 559.841,815.962 560.541,808.775 561.241,805.449 
  561.941,805.73 562.641,805.994 563.341,801.166 564.04,806.805 564.74,813.76 565.44,808.408 566.14,801.726 566.84,805.643 567.54,810.984 568.24,814.283 
  568.94,810.589 569.639,805.452 570.339,797.275 571.039,808.251 571.739,804.958 572.439,813.728 573.139,808.381 573.839,811.848 574.539,808.319 575.239,808.408 
  575.938,803.415 576.638,800.449 577.338,809.527 578.038,817.992 578.738,815.746 579.438,810.263 580.138,801.767 580.838,807.371 581.537,814.289 582.237,805.53 
  582.937,819.342 583.637,810.243 584.337,806.823 585.037,818.856 585.737,818.237 586.437,821.05 587.137,813.526 587.836,801.431 588.536,807.059 589.236,814.004 
  589.936,812.025 590.636,816.941 591.336,818.149 592.036,824.347 592.736,821.673 593.435,815.798 594.135,803.549 594.835,797.192 595.535,808.17 596.235,818.413 
  596.935,812.757 597.635,812.558 598.335,819.133 599.035,813.423 599.734,813.178 600.434,811.252 601.134,816.222 601.834,814.094 602.534,813.8 603.234,816.907 
  603.934,813.04 604.634,821.27 605.333,810.346 606.033,803.531 606.733,817.47 607.433,811.876 608.133,810.034 608.833,820.156 609.533,819.46 610.233,828.958 
  610.933,824.291 611.632,826.696 612.332,827.254 613.032,826.085 613.732,824.99 614.432,818.896 615.132,826.735 615.832,818.831 616.532,765.78 617.232,873.587 
  617.931,886.242 618.631,850.683 619.331,831.034 620.031,765.332 620.731,759.837 621.431,793.611 622.131,860.658 622.831,826.806 623.53,852.734 624.23,819.415 
  624.93,783.24 625.63,815.456 626.33,837.061 627.03,803.087 627.73,827.205 628.43,890.316 629.13,822.345 629.829,799.506 630.529,778.188 631.229,832.734 
  631.929,755.073 632.629,829.757 633.329,867.32 634.029,875.311 634.729,825.253 635.429,820.833 636.128,782.879 636.828,752.525 637.528,802.011 638.228,794.064 
  638.928,815.405 639.628,816.713 640.328,814.553 641.028,804.077 641.728,780.764 642.427,764.088 643.127,762.052 643.827,831.198 644.527,848.368 645.227,795.032 
  645.927,819.691 646.627,764.89 647.327,728.972 648.027,769.879 648.726,823.282 649.426,802.067 650.126,827.949 650.826,813.199 651.526,748.682 652.226,762.896 
  652.926,816.756 653.626,814.592 654.326,827.8 655.025,757.241 655.725,762.427 656.425,826.47 657.125,879.482 657.825,837.61 658.525,806.994 659.225,771.65 
  659.925,769.109 660.625,834.409 661.324,919.034 662.024,882.98 662.724,807.05 663.424,825.837 664.124,861.975 664.824,868.639 665.524,881.619 666.224,897.123 
  666.924,854.075 667.623,846.041 668.323,862.225 669.023,867.184 669.723,859.97 670.423,832.934 671.123,807.696 671.823,828.13 672.523,882.721 673.223,903.224 
  673.922,876.686 674.622,831.623 675.322,828.465 676.022,861.046 676.722,855.932 677.422,861.305 678.122,844.327 678.822,845.399 679.522,839.632 680.222,839.322 
  680.921,837.34 681.621,821.959 682.321,778.847 683.021,741.999 683.721,692.376 684.421,624.069 685.121,551.857 685.821,481.083 686.521,421.786 687.22,357.984 
  687.92,354.264 688.62,327.102 689.32,291.605 690.02,282.162 690.72,253.048 691.42,261.394 692.12,264.111 692.82,244.656 693.52,206.196 694.219,173.686 
  694.919,160.256 695.619,174.784 696.319,169.746 697.019,161.662 697.719,174.412 698.419,177.851 699.119,172.603 699.819,209.999 700.519,244.901 701.219,248.718 
  701.918,287.804 702.618,342.896 703.318,396.011 704.018,421.897 704.718,440.983 705.418,462.179 706.118,507.338 706.818,507.19 707.518,529.044 708.218,574.812 
  708.917,595.543 709.617,613.203 710.317,638.142 711.017,637.727 711.717,627.193 712.417,654.58 713.117,661.533 713.817,688.318 714.517,676.103 715.217,701.92 
  715.916,685.419 716.616,712.308 717.316,750.936 718.016,734.541 718.716,712.482 719.416,710.499 720.116,762.778 720.816,769.279 721.516,782.109 722.216,775.48 
  722.915,723.631 723.615,776.749 724.315,888.913 725.015,788.883 725.715,783.496 726.415,761.57 727.115,742.789 727.815,811.526 728.515,899.375 729.215,927.225 
  729.914,880.482 730.614,860.551 731.314,938.371 732.014,997.463 732.714,983.254 733.414,1042.74 734.114,1006.91 734.814,1056.36 735.514,1114.38 736.214,1097.45 
  736.913,1147.64 737.613,1120.02 738.313,1102.72 739.013,1144.08 739.713,1238.52 740.413,1233.59 741.113,1163.03 741.813,1203.78 742.513,1163.99 743.213,1201.27 
  743.913,1244.53 744.612,1242.61 745.312,1284.8 746.012,1232.83 746.712,1260.46 747.412,1249.03 748.112,1243.43 748.812,1280.5 749.512,1250.8 750.212,1231.55 
  750.912,1225.43 751.611,1229.86 752.311,1245.83 753.011,1272.57 753.711,1240.04 754.411,1182.6 755.111,1142.51 755.811,1191.37 756.511,1176.08 757.211,1119.51 
  757.911,1141.15 758.611,1090.3 759.31,1061.46 760.01,1048.07 760.71,1015.26 761.41,1023.54 762.11,968.697 762.81,959.789 763.51,970.087 764.21,942.49 
  764.91,981.01 765.61,878.231 766.31,861.85 767.009,853.325 767.709,931.608 768.409,854.127 769.109,905.322 769.809,929.408 770.509,838.534 771.209,834.935 
  771.909,823.121 772.609,859.441 773.309,808.758 774.009,898.484 774.708,843.504 775.408,809.097 776.108,751.627 776.808,929.75 777.508,867.598 778.208,907.714 
  778.908,811.528 779.608,758.965 780.308,716.672 781.008,873.431 781.707,933.446 782.407,867.681 783.107,764.007 783.807,731.533 784.507,855.144 785.207,863.94 
  785.907,851.873 786.607,799.997 787.307,839.536 788.007,769.889 788.707,801.303 789.406,822.15 790.106,836.541 790.806,831.382 791.506,799.488 792.206,827.228 
  792.906,773.621 793.606,804.792 794.306,752.679 795.006,793.697 795.706,781.222 796.405,859.243 797.105,828.882 797.805,817.46 798.505,750.966 799.205,798.865 
  799.905,774.226 800.605,742.764 801.305,836.885 802.005,787.71 802.705,760.424 803.405,787.392 804.104,892.063 804.804,827.373 805.504,748.392 806.204,674.664 
  806.904,791.926 807.604,876 808.304,807.312 809.004,727.976 809.704,784.173 810.404,862.003 811.103,762.099 811.803,802.488 812.503,791.13 813.203,856.653 
  813.903,750.334 814.603,789.828 815.303,819.922 816.003,861.514 816.703,807.31 817.403,792.258 818.102,771.423 818.802,802.722 819.502,835.338 820.202,801.492 
  820.902,798.652 821.602,779.088 822.302,782.821 823.002,776.161 823.702,827.456 824.402,871.947 825.101,827.196 825.801,717.762 826.501,801.716 827.201,812.397 
  827.901,839.283 828.601,808.564 829.301,808.645 830.001,774.882 830.701,785.659 831.4,871.852 832.1,854.181 832.8,829.225 833.5,814.391 834.2,792.092 
  834.9,769.59 835.6,795.944 836.3,829.002 837,853.106 837.7,833.306 838.399,745.449 839.099,814.014 839.799,823.888 840.499,856.768 841.199,801.183 
  841.899,774.687 842.599,748.266 843.299,845.415 843.999,836.275 844.699,793.895 845.398,832.156 846.098,825.596 846.798,785.633 847.498,777.084 848.198,843.537 
  848.898,834.516 849.598,834.549 850.298,788.909 850.998,839.366 851.697,769.733 852.397,789.311 853.097,876.929 853.797,889.351 854.497,747.015 855.197,803.62 
  855.897,847.98 856.597,865.727 857.297,724.97 857.996,730.621 858.696,854.302 859.396,934.2 860.096,878.546 860.796,704.804 861.496,715.183 862.196,812.841 
  862.896,883.676 863.596,849.985 864.296,803.327 864.995,773.309 865.695,789.281 866.395,839.714 867.095,802.186 867.795,838.203 868.495,832.923 869.195,751.874 
  869.895,760.803 870.595,796.204 871.294,864.774 871.994,822.189 872.694,821.351 873.394,769.825 874.094,792.793 874.794,824.367 875.494,916.419 876.194,792.582 
  876.894,653.335 877.593,844.781 878.293,920.262 878.993,786.026 879.693,812.983 880.393,912.591 881.093,685.837 881.793,787.144 882.493,817.409 883.193,887.961 
  883.892,791.403 884.592,804.451 885.292,787.878 885.992,850.241 886.692,781.557 887.392,807.111 888.092,844.508 888.792,818.5 889.492,785.768 890.191,728.155 
  890.891,897.682 891.591,891.814 892.291,784.842 892.991,708.679 893.691,820.29 894.391,814.511 895.091,873.412 895.791,793.039 896.49,819.522 897.19,818.874 
  897.89,750.602 898.59,786.679 899.29,823.739 899.99,885.398 900.69,824.526 901.39,791.392 902.089,724.946 902.789,845.622 903.489,822.926 904.189,786.517 
  904.889,762.675 905.589,865.609 906.289,838.197 906.989,778.771 907.689,829.885 908.388,809.918 909.088,814.972 909.788,826.47 910.488,904.865 911.188,717.501 
  911.888,804.854 912.588,854.251 913.288,815.738 913.988,806.865 914.687,871.365 915.387,824.974 916.087,801.946 916.787,772.014 917.487,735.634 918.187,862.388 
  918.887,831.805 919.587,882.772 920.286,767.948 920.986,843.472 921.686,832.747 922.386,981.771 923.086,939.845 923.786,860.126 924.486,870.315 925.186,889.948 
  925.886,1026.69 926.585,991.919 927.285,1045.76 927.985,916.681 928.685,985.69 929.385,957.06 930.085,972.613 930.785,931.295 931.485,1014.55 932.185,960.323 
  932.884,853.87 933.584,930.432 934.284,995.124 934.984,960.773 935.684,855.968 936.384,903.653 937.084,853.418 937.784,838.672 938.484,843.504 939.183,912.297 
  939.883,834.409 940.583,853.068 941.283,848.493 941.983,798.532 942.683,838.177 943.383,859.974 944.083,782.201 944.783,714.683 945.483,836.051 946.182,878.294 
  946.882,833.147 947.582,775.759 948.282,776.312 948.982,619.549 949.682,740.515 950.382,885.505 951.082,877.06 951.782,669.584 952.482,606.189 953.181,804.136 
  953.881,794.336 954.581,753.079 955.281,794.076 955.981,724.08 956.681,616.449 957.381,740.971 958.081,784.457 958.781,762.464 959.481,726.71 960.18,742.39 
  960.88,723.212 961.58,717.135 962.28,856.93 962.98,759.041 963.68,704.923 964.38,688.225 965.08,792.754 965.78,749.905 966.48,823.249 967.18,766.52 
  967.879,713.578 968.579,691.226 969.279,788.782 969.979,818.936 970.679,708.358 971.379,774.311 972.079,785.13 972.779,759.712 973.479,671.682 974.179,838.207 
  974.878,780.491 975.578,801.044 976.278,727.191 976.978,817.287 977.678,798.169 978.378,771.874 979.078,705.048 979.778,752.634 980.478,800.424 981.178,806.124 
  981.877,813.139 982.577,773.996 983.277,801.751 983.977,812.433 984.677,817.317 985.377,683.176 986.077,786.354 986.777,862.341 987.477,902.812 988.177,805.259 
  988.877,786.942 989.576,854.438 990.276,878.53 990.976,843.491 991.676,783.715 992.376,837.904 993.076,785.292 993.776,781.842 994.476,743.1 995.176,828.751 
  995.876,783.497 996.575,846.145 997.275,894.477 997.975,838.089 998.675,771.922 999.375,749.069 1000.07,807.25 1000.77,739.743 1001.47,837.451 1002.17,793.313 
  1002.87,848.533 1003.57,825.639 1004.27,846.572 1004.97,718.931 1005.67,728.357 1006.37,770.996 1007.07,805.721 1007.77,785.683 1008.47,750.061 1009.17,826.786 
  1009.87,822.268 1010.57,792.669 1011.27,766.744 1011.97,859.275 1012.67,811.99 1013.37,774.632 1014.07,829.42 1014.77,875.465 1015.47,805.114 1016.17,714.077 
  1016.87,867.629 1017.57,846.847 1018.27,835.904 1018.97,790.177 1019.67,796.564 1020.37,785.595 1021.07,722.929 1021.77,762.558 1022.47,853.656 1023.17,845.646 
  1023.87,743.449 1024.57,732.647 1025.27,637.975 1025.97,901.484 1026.67,804.013 1027.37,814.552 1028.07,682.281 1028.77,817.658 1029.47,741.008 1030.17,803.113 
  1030.87,769.723 1031.57,840.067 1032.27,814.359 1032.97,803.893 1033.67,775.532 1034.37,718.609 1035.07,800.807 1035.77,757.407 1036.47,823.486 1037.17,727.833 
  1037.87,860.159 1038.57,731.612 1039.27,806.172 1039.97,770.867 1040.67,903.694 1041.37,765.481 1042.07,709.219 1042.77,842.781 1043.47,871.005 1044.17,875.37 
  1044.87,793.169 1045.57,664.012 1046.27,824.281 1046.97,784.405 1047.67,826.672 1048.37,881.335 1049.07,864.716 1049.77,563.332 1050.47,791.221 1051.17,934.544 
  1051.87,924.516 1052.57,805.199 1053.27,709.075 1053.97,681.96 1054.67,891.781 1055.37,874.448 1056.07,837.99 1056.77,788.738 1057.47,810.434 1058.17,761.334 
  1058.87,698.61 1059.57,819.355 1060.27,811.945 1060.97,872.707 1061.67,802.535 1062.37,835.148 1063.07,772.565 1063.77,834.266 1064.47,737.898 1065.17,827.267 
  1065.87,880.237 1066.57,873.856 1067.27,683.511 1067.97,710.553 1068.67,871.106 1069.37,880.536 1070.06,833.523 1070.76,799.794 1071.46,798.773 1072.16,762.295 
  1072.86,814.524 1073.56,807.443 1074.26,817.75 1074.96,834.133 1075.66,847.735 1076.36,753.853 1077.06,767.72 1077.76,858.486 1078.46,809.563 1079.16,833.259 
  1079.86,801.234 1080.56,779.816 1081.26,693.855 1081.96,852.146 1082.66,903.448 1083.36,844.756 1084.06,783.208 1084.76,795.121 1085.46,836.694 1086.16,785.838 
  1086.86,875.399 1087.56,781.36 1088.26,857.681 1088.96,769.892 1089.66,823.297 1090.36,742.876 1091.06,877.589 1091.76,771.56 1092.46,834.994 1093.16,845.145 
  1093.86,844.476 1094.56,732.204 1095.26,689.999 1095.96,909.437 1096.66,889.254 1097.36,802.759 1098.06,716.934 1098.76,883.829 1099.46,824.75 1100.16,803.447 
  1100.86,737.888 1101.56,866.169 1102.26,865.775 1102.96,792.683 1103.66,802.288 1104.36,809.545 1105.06,846.77 1105.76,793.543 1106.46,850.443 1107.16,805.423 
  1107.86,770.168 1108.56,777.873 1109.26,869.638 1109.96,833.481 1110.66,791.29 1111.36,760.381 1112.06,811.025 1112.76,890.443 1113.46,836.008 1114.16,800.417 
  1114.86,738.443 1115.56,854.85 1116.26,823.093 1116.96,806.978 1117.66,781.79 1118.36,880.078 1119.06,829.71 1119.76,804.7 1120.46,796.578 1121.16,800.828 
  1121.86,842.02 1122.56,817.879 1123.26,822.405 1123.96,811.409 1124.66,838.375 1125.36,770.494 1126.06,820.48 1126.76,794.394 1127.46,836.031 1128.16,748.008 
  1128.86,845.152 1129.56,768.353 1130.26,818.493 1130.96,794.234 1131.66,751.283 1132.35,814.397 1133.05,915.604 1133.75,835.82 1134.45,685.223 1135.15,737.524 
  1135.85,870.911 1136.55,912.517 1137.25,772.031 1137.95,681.508 1138.65,827.085 1139.35,893.597 1140.05,793.273 1140.75,726.706 1141.45,832.045 1142.15,910.056 
  1142.85,827.25 1143.55,739.811 1144.25,822.275 1144.95,850.189 1145.65,798.429 1146.35,750.114 1147.05,852.204 1147.75,879.824 1148.45,765.189 1149.15,771.537 
  1149.85,780.837 1150.55,841.966 1151.25,773.832 1151.95,808.362 1152.65,820.287 1153.35,858.49 1154.05,779.109 1154.75,813.287 1155.45,846.874 1156.15,795.342 
  1156.85,782.768 1157.55,830.23 1158.25,818.705 1158.95,796.107 1159.65,781.777 1160.35,798.855 1161.05,872.32 1161.75,827.539 1162.45,802.664 1163.15,757.464 
  1163.85,811.7 1164.55,867.393 1165.25,822.953 1165.95,778.082 1166.65,793.718 1167.35,847.227 1168.05,765.214 1168.75,785.094 1169.45,798.597 1170.15,855.172 
  1170.85,809.82 1171.55,989.118 1172.25,437.53 1172.95,814.215 1173.65,1035.5 1174.35,959.543 1175.05,699.201 1175.75,576.319 1176.45,820.266 1177.15,909.234 
  1177.85,889.069 1178.55,848.243 1179.25,879.514 1179.95,729.384 1180.65,753.355 1181.35,760.496 1182.05,900.8 1182.75,884.566 1183.45,813.599 1184.15,720.309 
  1184.85,844.696 1185.55,838.986 1186.25,747.373 1186.95,844.563 1187.65,877.765 1188.35,785.256 1189.05,698.915 1189.75,865.321 1190.44,846.387 1191.14,847.331 
  1191.84,719.645 1192.54,779.791 1193.24,859.601 1193.94,857.966 1194.64,741.415 1195.34,803.496 1196.04,869.893 1196.74,835.436 1197.44,779.599 1198.14,717.327 
  1198.84,828.375 1199.54,872.808 1200.24,833.069 1200.94,809.537 1201.64,750.351 1202.34,845.658 1203.04,880.454 1203.74,999.242 1204.44,785.321 1205.14,792.04 
  1205.84,955.619 1206.54,1131.98 1207.24,1083.43 1207.94,987.373 1208.64,923.091 1209.34,1040.72 1210.04,1189.41 1210.74,1233.44 1211.44,1315.15 1212.14,1110.61 
  1212.84,1071.93 1213.54,1257.45 1214.24,1383.23 1214.94,1339.9 1215.64,1355.3 1216.34,1263.1 1217.04,1231.17 1217.74,1287.64 1218.44,1362.34 1219.14,1340.71 
  1219.84,1286.69 1220.54,1281.95 1221.24,1238.62 1221.94,1223.56 1222.64,1190.88 1223.34,1199.29 1224.04,1122.56 1224.74,1094.94 1225.44,1052.23 1226.14,1146.01 
  1226.84,951.032 1227.54,980.513 1228.24,1080.77 1228.94,993.332 1229.64,908.34 1230.34,910.22 1231.04,949.191 1231.74,990.638 1232.44,953.206 1233.14,938.561 
  1233.84,904.591 1234.54,881.351 1235.24,913.794 1235.94,903.47 1236.64,902.295 1237.34,911.348 1238.04,869.045 1238.74,853.244 1239.44,929.853 1240.14,855.87 
  1240.84,805.431 1241.54,881.847 1242.24,892.272 1242.94,820.799 1243.64,848.823 1244.34,895.279 1245.03,825.295 1245.73,805.647 1246.43,863.435 1247.13,875.084 
  1247.83,843.663 1248.53,846.474 1249.23,844.027 1249.93,826.525 1250.63,825.405 1251.33,827.744 1252.03,835.005 1252.73,858.701 1253.43,848.67 1254.13,769.957 
  1254.83,784.454 1255.53,858.876 1256.23,823.456 1256.93,847.922 1257.63,853.834 1258.33,766.312 1259.03,825.039 1259.73,842.628 1260.43,820.134 1261.13,792.383 
  1261.83,869.669 1262.53,814.917 1263.23,795.957 1263.93,800.251 1264.63,822.875 1265.33,827.071 1266.03,807.299 1266.73,753.321 1267.43,721.553 1268.13,712.203 
  1268.83,686.555 1269.53,730.286 1270.23,623.925 1270.93,585.557 1271.63,548.055 1272.33,580.726 1273.03,504.63 1273.73,474.212 1274.43,464.433 1275.13,467.145 
  1275.83,380.022 1276.53,374.833 1277.23,351.379 1277.93,395.461 1278.63,302.957 1279.33,346.887 1280.03,355.746 1280.73,372.47 1281.43,315.341 1282.13,336.451 
  1282.83,373.075 1283.53,363.268 1284.23,355.801 1284.93,436.807 1285.63,399.074 1286.33,328.334 1287.03,473.761 1287.73,501.229 1288.43,476.113 1289.13,584.624 
  1289.83,663.908 1290.53,587.349 1291.23,537.882 1291.93,664.265 1292.63,702.718 1293.33,735.221 1294.03,745.254 1294.73,773.234 1295.43,780.738 1296.13,782.661 
  1296.83,860.584 1297.53,728.623 1298.22,764.469 1298.92,789.467 1299.62,772.202 1300.32,673.191 1301.02,787.168 1301.72,702.391 1302.42,621.581 1303.12,750.847 
  1303.82,712.474 1304.52,652.971 1305.22,736.159 1305.92,668.316 1306.62,645.598 1307.32,702.214 1308.02,790.577 1308.72,730.94 1309.42,736.189 1310.12,724.173 
  1310.82,740.024 1311.52,748.054 1312.22,747.09 1312.92,895.055 1313.62,750.64 1314.32,724.131 1315.02,690.923 1315.72,730.978 1316.42,792.048 1317.12,794.913 
  1317.82,780.671 1318.52,779.219 1319.22,788.011 1319.92,774.23 1320.62,788.438 1321.32,789.854 1322.02,760.725 1322.72,777.522 1323.42,840.569 1324.12,782.69 
  1324.82,760.808 1325.52,791.13 1326.22,788.985 1326.92,778.527 1327.62,799.212 1328.32,823.586 1329.02,810.821 1329.72,781.99 1330.42,810.903 1331.12,807.443 
  1331.82,773.757 1332.52,803.219 1333.22,818.873 1333.92,799.651 1334.62,786.786 1335.32,810.3 1336.02,800.109 1336.72,802.437 1337.42,831.675 1338.12,814.979 
  1338.82,789.248 1339.52,799.068 1340.22,804.847 1340.92,798.405 1341.62,819.458 1342.32,820.5 1343.02,813.01 1343.72,797.561 1344.42,815.281 1345.12,809.833 
  1345.82,808.129 1346.52,818.383 1347.22,821.182 1347.92,825.491 1348.62,843.046 1349.32,837.437 1350.01,849.12 1350.71,861.715 1351.41,856.553 1352.11,848.351 
  1352.81,849.16 1353.51,860.062 1354.21,848.24 1354.91,855.819 1355.61,845.977 1356.31,850.325 1357.01,845.918 1357.71,846.886 1358.41,841.024 1359.11,840.623 
  1359.81,838.56 1360.51,834.939 1361.21,845.096 1361.91,824.125 1362.61,828.232 1363.31,828.686 1364.01,805.425 1364.71,824.318 1365.41,838.567 1366.11,816.343 
  1366.81,829.431 1367.51,839.955 1368.21,812.566 1368.91,795.457 1369.61,816.712 1370.31,809.475 1371.01,784.111 1371.71,834.871 1372.41,848.413 1373.11,823.839 
  1373.81,783.989 1374.51,785.708 1375.21,778.847 1375.91,772.437 1376.61,815.52 1377.31,833.734 1378.01,827.052 1378.71,832.658 1379.41,831.13 1380.11,785.714 
  1380.81,773.778 1381.51,815.079 1382.21,814.716 1382.91,814.374 1383.61,876.65 1384.31,826.507 1385.01,761.102 1385.71,838.776 1386.41,830.067 1387.11,823.629 
  1387.81,864.992 1388.51,829.164 1389.21,841.396 1389.91,820.673 1390.61,833.471 1391.31,836.962 1392.01,830.066 1392.71,818.555 1393.41,821.345 1394.11,852.707 
  1394.81,839.684 1395.51,839.372 1396.21,820.472 1396.91,848.511 1397.61,791.789 1398.31,799.745 1399.01,841.01 1399.71,805.088 1400.41,817.237 1401.11,872.558 
  1401.81,832.84 1402.51,802.537 1403.2,792.87 1403.9,777.075 1404.6,772.481 1405.3,830.778 1406,847.977 1406.7,784.527 1407.4,792.972 1408.1,817.768 
  1408.8,793.546 1409.5,769.246 1410.2,837.911 1410.9,866.473 1411.6,847.461 1412.3,829.717 1413,826.688 1413.7,761.275 1414.4,759.427 1415.1,766.161 
  1415.8,801.21 1416.5,833.912 1417.2,850.9 1417.9,844.764 1418.6,823.821 1419.3,799.199 1420,826.967 1420.7,869.796 1421.4,835.336 1422.1,842.081 
  1422.8,828.085 1423.5,799.792 1424.2,820.753 1424.9,853.85 1425.6,876.274 1426.3,866.758 1427,807.125 1427.7,800.534 1428.4,819.756 1429.1,849.527 
  1429.8,838.405 1430.5,831.417 1431.2,840.123 1431.9,829.634 1432.6,835.066 1433.3,851.976 1434,845.772 1434.7,836.598 1435.4,821.271 1436.1,820.501 
  1436.8,843.47 1437.5,807.38 1438.2,802.456 1438.9,831.695 1439.6,848.838 1440.3,852.989 1441,831.489 1441.7,841.875 1442.4,800.823 1443.1,823.411 
  1443.8,868.168 1444.5,908.245 1445.2,933.814 1445.9,957.679 1446.6,979.955 1447.3,987.209 1448,1007.51 1448.7,1075.52 1449.4,1045.95 1450.1,1050.5 
  1450.8,1113.95 1451.5,1201.93 1452.2,1174.09 1452.9,1242.83 1453.6,1154.75 1454.3,1226.47 1455,1205.46 1455.7,1270.41 1456.4,1287.06 1457.1,1309.37 
  1457.8,1282.82 1458.5,1274.96 1459.2,1333.59 1459.9,1371.41 1460.6,1386.4 1461.29,1312.42 1461.99,1322.88 1462.69,1317.42 1463.39,1310.64 1464.09,1321.22 
  1464.79,1326.02 1465.49,1261.14 1466.19,1237.8 1466.89,1253.24 1467.59,1218.58 1468.29,1203.15 1468.99,1202.29 1469.69,1162.58 1470.39,1089.99 1471.09,1061.14 
  1471.79,1062.98 1472.49,1096.84 1473.19,1037.09 1473.89,1021.92 1474.59,1024.69 1475.29,961.294 1475.99,981.634 1476.69,1005.69 1477.39,994.305 1478.09,954.926 
  1478.79,914.797 1479.49,907.787 1480.19,911.394 1480.89,958.743 1481.59,943.724 1482.29,875.577 1482.99,835.658 1483.69,899.895 1484.39,902.337 1485.09,833.566 
  1485.79,867.5 1486.49,848.416 1487.19,832.304 1487.89,862.93 1488.59,844.162 1489.29,789.425 1489.99,800.927 1490.69,742.306 1491.39,755.26 1492.09,787.652 
  1492.79,685.938 1493.49,714.49 1494.19,703.924 1494.89,692.37 1495.59,622.379 1496.29,636.561 1496.99,665.019 1497.69,586.698 1498.39,554.209 1499.09,490.052 
  1499.79,565.496 1500.49,514.106 1501.19,527.05 1501.89,461.31 1502.59,443.945 1503.29,431.127 1503.99,444.53 1504.69,480.722 1505.39,397.775 1506.09,311.903 
  1506.79,324.79 1507.49,429.858 1508.19,321.548 1508.89,352.391 1509.59,283.057 1510.29,389.218 1510.99,307.298 1511.69,261.273 1512.39,248.777 1513.09,396.131 
  1513.79,308.648 1514.49,252.382 1515.19,177.88 1515.89,304.562 1516.59,331.455 1517.29,370.1 1517.99,370.636 1518.69,371.133 1519.39,390.22 1520.09,365.75 
  1520.79,468.068 1521.49,411.32 1522.19,591.812 1522.89,516.667 1523.59,526.043 1524.29,411.306 1524.99,735.585 1525.69,588.253 1526.39,641.91 1527.08,566.817 
  1527.78,684.508 1528.48,554.129 1529.18,704.803 1529.88,627.194 1530.58,761.136 1531.28,612.118 1531.98,650.669 1532.68,673.113 1533.38,773.56 1534.08,750.581 
  1534.78,735.907 1535.48,668.085 1536.18,702.898 1536.88,730.313 1537.58,738.976 1538.28,775.821 1538.98,751.004 1539.68,771.825 1540.38,704.992 1541.08,730.589 
  1541.78,781.532 1542.48,818.919 1543.18,737.092 1543.88,725.004 1544.58,712.027 1545.28,804.799 1545.98,813.56 1546.68,862.348 1547.38,725.184 1548.08,776.497 
  1548.78,665.357 1549.48,778.154 1550.18,839.437 1550.88,942.321 1551.58,642.508 1552.28,799.139 1552.98,796.454 1553.68,826.081 1554.38,777.614 1555.08,872.785 
  1555.78,733.23 1556.48,635.139 1557.18,905.601 1557.88,851.804 1558.58,840.512 1559.28,824.927 1559.98,654.742 1560.68,753.03 1561.38,893.821 1562.08,878.062 
  1562.78,861.659 1563.48,634.899 1564.18,685.461 1564.88,839.218 1565.58,969.193 1566.28,813.075 1566.98,858.505 1567.68,618.419 1568.38,741.138 1569.08,928.404 
  1569.78,925.542 1570.48,826.465 1571.18,733.999 1571.88,634.155 1572.58,897.917 1573.28,832.812 1573.98,946.296 1574.68,769.717 1575.38,691.183 1576.08,746.441 
  1576.78,896.145 1577.48,844.71 1578.18,910.04 1578.88,894.875 1579.58,821.527 1580.28,846.116 1580.98,820.007 1581.68,890.364 1582.38,878.199 1583.08,976.814 
  1583.78,874.322 1584.48,935.983 1585.18,886.944 1585.88,983.281 1586.58,914.175 1587.28,1005.31 1587.98,865.372 1588.68,958.071 1589.37,905.868 1590.07,938.344 
  1590.77,904.378 1591.47,999.56 1592.17,778.803 1592.87,821.468 1593.57,957.71 1594.27,956.272 1594.97,758.705 1595.67,736.715 1596.37,854.912 1597.07,899.248 
  1597.77,803.603 1598.47,709.283 1599.17,824.246 1599.87,867.246 1600.57,826.178 1601.27,723.57 1601.97,791.897 1602.67,859.051 1603.37,783.012 1604.07,671.444 
  1604.77,790.609 1605.47,881.523 1606.17,785.371 1606.87,695.634 1607.57,721.845 1608.27,839.346 1608.97,849.18 1609.67,753.492 1610.37,701.415 1611.07,750.935 
  1611.77,824.22 1612.47,731.904 1613.17,774.298 1613.87,773.278 1614.57,785.867 1615.27,665.665 1615.97,764.935 1616.67,811.887 1617.37,855.714 1618.07,744.384 
  1618.77,701.357 1619.47,745.788 1620.17,826.175 1620.87,787.866 1621.57,752.101 1622.27,810.057 1622.97,771.126 1623.67,765.248 1624.37,678.546 1625.07,812.46 
  1625.77,798.737 1626.47,802.849 1627.17,671.35 1627.87,773.612 1628.57,728.642 1629.27,788.174 1629.97,811.603 1630.67,757.332 1631.37,742.207 1632.07,731.482 
  1632.77,800.975 1633.47,831.984 1634.17,801.739 1634.87,736.293 1635.57,800.397 1636.27,787.469 1636.97,805.858 1637.67,802.726 1638.37,747.35 1639.07,797.172 
  1639.77,819.99 1640.47,800.677 1641.17,706.526 1641.87,789.522 1642.57,861.913 1643.27,843.2 1643.97,693.788 1644.67,720.119 1645.37,834.348 1646.07,837.761 
  1646.77,871.397 1647.47,682.878 1648.17,772.524 1648.87,803.75 1649.57,968.215 1650.27,791.839 1650.97,815.01 1651.67,711.454 1652.37,848.261 1653.07,823.675 
  1653.76,925.901 1654.46,865.704 1655.16,579.447 1655.86,813.006 1656.56,897.347 1657.26,935.456 1657.96,823.855 1658.66,768.768 1659.36,651.38 1660.06,883.537 
  1660.76,824.463 1661.46,887.746 1662.16,860.541 1662.86,902.811 1663.56,744.336 1664.26,824.807 1664.96,722.295 1665.66,767.024 1666.36,955.941 1667.06,958.025 
  1667.76,706.23 1668.46,670.841 1669.16,955.821 1669.86,902.065 1670.56,818.07 1671.26,780.294 1671.96,699.379 1672.66,867.448 1673.36,914.305 1674.06,915.773 
  1674.76,712.479 1675.46,646.237 1676.16,826.295 1676.86,913.155 1677.56,835.206 1678.26,765.83 1678.96,790.743 1679.66,812.321 1680.36,764.783 1681.06,745.781 
  1681.76,849.859 1682.46,855.646 1683.16,827.205 1683.86,738.066 1684.56,778.371 1685.26,812.598 1685.96,819.171 1686.66,718.722 1687.36,817.821 1688.06,808.816 
  1688.76,805.48 1689.46,797.304 1690.16,796.434 1690.86,798.99 1691.56,843.664 1692.26,794.011 1692.96,756.139 1693.66,835.822 1694.36,872.976 1695.06,762.172 
  1695.76,711.187 1696.46,851.385 1697.16,899.358 1697.86,791.866 1698.56,691.542 1699.26,800.921 1699.96,894.545 1700.66,826.276 1701.36,698.287 1702.06,746.308 
  1702.76,904.461 1703.46,806.79 1704.16,796.827 1704.86,834.9 1705.56,841.669 1706.26,812.454 1706.96,693.85 1707.66,819.987 1708.36,868.338 1709.06,866.104 
  1709.76,806.508 1710.46,843.921 1711.16,758.739 1711.86,846.715 1712.56,842.553 1713.26,823.438 1713.95,817.428 1714.65,877.806 1715.35,710.866 1716.05,649.782 
  1716.75,885.43 1717.45,942.951 1718.15,890.079 1718.85,597.143 1719.55,736.5 1720.25,913.924 1720.95,879.899 1721.65,739.882 1722.35,827.415 1723.05,880.353 
  1723.75,684.474 1724.45,801.08 1725.15,872.683 1725.85,853.246 1726.55,726.841 1727.25,644.392 1727.95,882.084 1728.65,958.435 1729.35,902.838 1730.05,710.543 
  1730.75,700.228 1731.45,783.65 1732.15,819.215 1732.85,764.433 1733.55,906.16 1734.25,837.134 1734.95,806.536 1735.65,742.444 1736.35,843.345 1737.05,869.852 
  1737.75,811.692 1738.45,681.299 1739.15,852.262 1739.85,847.724 1740.55,831.643 1741.25,776.039 1741.95,810.402 1742.65,832.33 1743.35,663.346 1744.05,840.574 
  1744.75,862.175 1745.45,845.132 1746.15,827.539 1746.85,812.805 1747.55,697.553 1748.25,796.378 1748.95,917.358 1749.65,905.101 1750.35,743.105 1751.05,705.245 
  1751.75,862.767 1752.45,805.097 1753.15,771.559 1753.85,789.315 1754.55,888.791 1755.25,834.452 1755.95,744.82 1756.65,744.062 1757.35,873.614 1758.05,871.034 
  1758.75,718.069 1759.45,759.707 1760.15,878.067 1760.85,878.582 1761.55,723.427 1762.25,773.148 1762.95,819.556 1763.65,893.329 1764.35,818.379 1765.05,800.878 
  1765.75,815.015 1766.45,811.272 1767.15,779.011 1767.85,725.232 1768.55,888.197 1769.25,903.251 1769.95,819.186 1770.64,673.065 1771.34,841.186 1772.04,864.444 
  1772.74,779.579 1773.44,740.977 1774.14,755.691 1774.84,931.829 1775.54,850.937 1776.24,709.459 1776.94,799.026 1777.64,918.153 1778.34,789.094 1779.04,763.39 
  1779.74,715.74 1780.44,1007.85 1781.14,896.491 1781.84,755.385 1782.54,579.694 1783.24,787.871 1783.94,928.024 1784.64,886.279 1785.34,823.645 1786.04,790.567 
  1786.74,825.676 1787.44,745.088 1788.14,803.515 1788.84,866.499 1789.54,845.786 1790.24,753.707 1790.94,806.478 1791.64,791.455 1792.34,880.63 1793.04,765.933 
  1793.74,704.56 1794.44,804.604 1795.14,936.89 1795.84,837.048 1796.54,743.867 1797.24,785.475 1797.94,883.514 1798.64,814.304 1799.34,785.227 1800.04,670.135 
  1800.74,938.259 1801.44,1043 1802.14,772 1802.84,568.142 1803.54,614.69 1804.24,960.939 1804.94,1020.18 1805.64,865.74 1806.34,694.559 1807.04,680.247 
  1807.74,819.123 1808.44,903.056 1809.14,942.499 1809.84,898.131 1810.54,619.865 1811.24,603.757 1811.94,927.066 1812.64,897.247 1813.34,803.424 1814.04,939.166 
  1814.74,823.976 1815.44,548.955 1816.14,808.245 1816.84,987.672 1817.54,843.845 1818.24,785.731 1818.94,792.404 1819.64,692.054 1820.34,791.238 1821.04,875.355 
  1821.74,864.205 1822.44,759.054 1823.14,781.035 1823.84,793.094 1824.53,816.184 1825.23,788.675 1825.93,857.738 1826.63,917.117 1827.33,877.794 1828.03,685.477 
  1828.73,749.578 1829.43,878.759 1830.13,801.4 1830.83,783.344 1831.53,769.874 1832.23,836.806 1832.93,851.911 1833.63,832.169 1834.33,798.517 1835.03,858.475 
  1835.73,670.824 1836.43,725.755 1837.13,925.896 1837.83,879.23 1838.53,852.594 1839.23,773.596 1839.93,696.472 1840.63,769.98 1841.33,923.175 1842.03,814.085 
  1842.73,774.857 1843.43,812.699 1844.13,848.013 1844.83,791.301 1845.53,733.305 1846.23,887.263 1846.93,875.314 1847.63,793.111 1848.33,726.547 1849.03,791.29 
  1849.73,853.413 1850.43,865.724 1851.13,735.097 1851.83,807.716 1852.53,873.828 1853.23,862.781 1853.93,666.378 1854.63,738.521 1855.33,968.235 1856.03,876.429 
  1856.73,718.034 1857.43,631.103 1858.13,952.574 1858.83,917.627 1859.53,925.631 1860.23,628.63 1860.93,637.322 1861.63,961.764 1862.33,917.759 1863.03,839.496 
  1863.73,766.472 1864.43,732.141 1865.13,722.084 1865.83,826.043 1866.53,884.174 1867.23,906.267 1867.93,784.779 1868.63,774.602 1869.33,743.124 1870.03,810.154 
  1870.73,815.183 1871.43,814.807 1872.13,858.444 1872.83,873.792 1873.53,854.279 1874.23,651.692 1874.93,838.167 1875.63,841.332 1876.32,871.346 1877.02,687.914 
  1877.72,841.519 1878.42,844.466 1879.12,826.913 1879.82,720.872 1880.52,870.575 1881.22,795.46 1881.92,781.177 1882.62,798.293 1883.32,844.726 1884.02,818.698 
  1884.72,711.508 1885.42,866.918 1886.12,792.039 1886.82,825.351 1887.52,780.322 1888.22,848.232 1888.92,759.372 1889.62,837.168 1890.32,815.03 1891.02,818.039 
  1891.72,836.086 1892.42,861.394 1893.12,825.786 1893.82,760.412 1894.52,751.852 1895.22,819.983 1895.92,881.871 1896.62,807.69 1897.32,812.893 1898.02,745.007 
  1898.72,793.293 1899.42,846.821 1900.12,778.364 1900.82,771.994 1901.52,879.388 1902.22,857.817 1902.92,690.512 1903.62,796.581 1904.32,875.27 1905.02,862.429 
  1905.72,752.333 1906.42,806.903 1907.12,876.443 1907.82,812.776 1908.52,760.113 1909.22,756.643 1909.92,893.821 1910.62,867.9 1911.32,782.797 1912.02,693.249 
  1912.72,890.487 1913.42,863.091 1914.12,798.618 1914.82,743.521 1915.52,852.81 1916.22,780.576 1916.92,741.903 1917.62,756.555 1918.32,864.978 1919.02,913.725 
  1919.72,795.116 1920.42,747.014 1921.12,793.481 1921.82,906.207 1922.52,827.004 1923.22,729.42 1923.92,768.604 1924.62,894.823 1925.32,911.118 1926.02,731.814 
  1926.72,726.864 1927.41,869.407 1928.11,906.011 1928.81,742.254 1929.51,865.16 1930.21,898.674 1930.91,792.93 1931.61,679.003 1932.31,846.727 1933.01,871.32 
  1933.71,846.908 1934.41,819.048 1935.11,809.973 1935.81,847.178 1936.51,829.459 1937.21,787.535 1937.91,733.193 1938.61,887.164 1939.31,807.562 1940.01,750.18 
  1940.71,769.377 1941.41,848.193 1942.11,865.914 1942.81,814.789 1943.51,775.538 1944.21,771.04 1944.91,873.427 1945.61,779.511 1946.31,830.571 1947.01,829.176 
  1947.71,947.989 1948.41,749.293 1949.11,721.172 1949.81,791.351 1950.51,938.048 1951.21,822.9 1951.91,717.121 1952.61,745.274 1953.31,927.186 1954.01,878.732 
  1954.71,767.537 1955.41,841.387 1956.11,896.786 1956.81,846.96 1957.51,807.231 1958.21,886.914 1958.91,895.295 1959.61,865.885 1960.31,867.208 1961.01,881.984 
  1961.71,863.619 1962.41,814.333 1963.11,957.809 1963.81,837.973 1964.51,947.726 1965.21,943.588 1965.91,828.076 1966.61,755.786 1967.31,788.15 1968.01,965.519 
  1968.71,782.563 1969.41,760.673 1970.11,623.542 1970.81,693.478 1971.51,618.316 1972.21,641.206 1972.91,513.709 1973.61,619.712 1974.31,466.586 1975.01,420.09 
  1975.71,459.589 1976.41,557.356 1977.11,398.235 1977.81,293.704 1978.5,368.696 1979.2,416.705 1979.9,381.997 1980.6,380.048 1981.3,449.295 1982,458.098 
  1982.7,500.151 1983.4,446.363 1984.1,429.975 1984.8,467.121 1985.5,444.284 1986.2,426.35 1986.9,458.648 1987.6,495.568 1988.3,562.172 1989,598.96 
  1989.7,607.919 1990.4,487.728 1991.1,497.351 1991.8,565.524 1992.5,608.857 1993.2,639.15 1993.9,623.447 1994.6,624.016 1995.3,575.493 1996,648.618 
  1996.7,698.261 1997.4,653.241 1998.1,624.763 1998.8,682.767 1999.5,692.911 2000.2,717.612 2000.9,766.04 2001.6,714.803 2002.3,763.418 2003,798.655 
  2003.7,731.719 2004.4,797.806 2005.1,823.983 2005.8,855.183 2006.5,786.172 2007.2,819.887 2007.9,885.177 2008.6,891.979 2009.3,857.733 2010,837.616 
  2010.7,876.354 2011.4,871.905 2012.1,854.234 2012.8,903.702 2013.5,926.185 2014.2,891.356 2014.9,853.773 2015.6,857.602 2016.3,891.621 2017,904.767 
  2017.7,878.119 2018.4,851.557 2019.1,867.385 2019.8,856.774 2020.5,838.401 2021.2,850.017 2021.9,901.469 2022.6,819.224 2023.3,821.969 2024,822.837 
  2024.7,820.266 2025.4,814.484 2026.1,812.462 2026.8,827.501 2027.5,814.472 2028.2,797.234 2028.9,803.132 2029.6,820.488 2030.3,828.225 2031,842.208 
  2031.7,884.02 2032.4,919.656 2033.1,920.778 2033.8,933.663 2034.5,940.617 2035.2,926.804 2035.9,922.373 2036.6,938.543 2037.3,962.088 2038,1039.88 
  2038.7,1051.6 2039.4,1050.69 2040.1,1076.91 2040.8,1128.46 2041.5,1159.64 2042.2,1134.61 2042.9,1162 2043.6,1150.35 2044.29,1119.19 2044.99,1179.75 
  2045.69,1261.64 2046.39,1223.04 2047.09,1212.4 2047.79,1224.46 2048.49,1227.25 2049.19,1138.52 2049.89,1087.84 2050.59,1175.86 2051.29,1197.12 2051.99,1088.39 
  2052.69,1098.57 2053.39,1116.54 2054.09,1123.15 2054.79,1092.1 2055.49,1058.04 2056.19,978.895 2056.89,942.243 2057.59,941.869 2058.29,882.302 2058.99,879.147 
  2059.69,891.426 2060.39,794.637 2061.09,873.467 2061.79,933.495 2062.49,957.362 2063.19,928.883 2063.89,968.312 2064.59,844.423 2065.29,874.26 2065.99,993.435 
  2066.69,962.563 2067.39,823.801 2068.09,909.14 2068.79,932.963 2069.49,867.226 2070.19,870.156 2070.89,913.491 2071.59,850.741 2072.29,817.552 2072.99,820.413 
  2073.69,818.012 2074.39,771.783 2075.09,801.366 2075.79,793.442 2076.49,916.307 2077.19,665.616 2077.89,822.366 2078.59,779.225 2079.29,588.419 2079.99,635.316 
  2080.69,731.531 2081.39,736.738 2082.09,751.745 2082.79,775.898 2083.49,702.026 2084.19,683.829 2084.89,719.288 2085.59,669.493 2086.29,709.284 2086.99,726.126 
  2087.69,701.243 2088.39,708.472 2089.09,706.76 2089.79,674.718 2090.49,680.334 2091.19,707.566 2091.89,734.669 2092.59,722.745 2093.29,699.783 2093.99,725.725 
  2094.69,677.188 2095.39,686.022 2096.09,731.479 2096.79,731.616 2097.49,741.895 2098.19,748.1 2098.89,738.666 2099.59,753.545 2100.29,752.21 2100.99,771.263 
  2101.69,755.214 2102.39,748.698 2103.09,767.995 2103.79,747.097 2104.49,749.579 2105.19,777.27 2105.89,791.27 2106.59,782.347 2107.29,779.094 2107.99,779.44 
  2108.69,793.299 2109.39,782.554 2110.09,796.206 2110.79,802.173 2111.49,809.441 2112.19,814.531 2112.89,802.363 2113.59,806.228 2114.29,799.689 2114.99,796.973 
  2115.69,809.66 2116.39,819.811 2117.09,819.133 2117.79,810.042 2118.49,803.255 2119.19,798.613 2119.89,795.97 2120.59,803.646 2121.29,826.038 2121.99,835.096 
  2122.69,824.944 2123.39,828.998 2124.09,827.714 2124.79,806.212 2125.49,811.519 2126.19,816.469 2126.89,812.63 2127.59,819.199 2128.29,827.022 2128.99,825.863 
  2129.69,823.087 2130.39,828.958 2131.09,825.978 2131.79,813.052 2132.49,826.358 2133.19,825.244 2133.89,837.74 2134.59,837.561 2135.29,832.314 2135.99,825.727 
  2136.68,826.35 2137.38,840.459 2138.08,831.639 2138.78,823.407 2139.48,817.419 2140.18,816.908 2140.88,821.502 2141.58,827.481 2142.28,824.6 2142.98,816.837 
  2143.68,818.055 2144.38,810.729 2145.08,810.659 2145.78,825.817 2146.48,826.429 2147.18,820.243 2147.88,826.308 2148.58,821.813 2149.28,814.241 2149.98,824.089 
  2150.68,829.895 2151.38,823.472 2152.08,837.777 2152.78,832.525 2153.48,824.239 2154.18,830.038 2154.88,840.52 2155.58,846.918 2156.28,852.898 2156.98,856.783 
  2157.68,850.258 2158.38,854.318 2159.08,849.645 2159.78,853.752 2160.48,859.266 2161.18,857.647 2161.88,852.755 2162.58,853.266 2163.28,850.355 2163.98,849.335 
  2164.68,851.762 2165.38,835.426 2166.08,843.859 2166.78,843.272 2167.48,842.721 2168.18,838.824 2168.88,833.501 2169.58,826.832 2170.28,822.309 2170.98,813.007 
  2171.68,811.093 2172.38,812.689 2173.08,814.182 2173.78,818.952 2174.48,809.879 2175.18,820.019 2175.88,812.559 2176.58,805.6 2177.28,807.56 2177.98,795.86 
  2178.68,810.315 2179.38,803.508 2180.08,802.226 2180.78,794.262 2181.48,803.747 2182.18,812.601 2182.88,803.947 2183.58,812.79 2184.28,790.59 2184.98,795.243 
  2185.68,801.278 2186.38,808.605 2187.08,806.981 2187.78,802.086 2188.48,809.358 2189.18,807.692 2189.88,806.13 2190.58,799.597 2191.28,801.957 2191.98,805.852 
  2192.68,817.944 2193.38,815.702 2194.08,810.224 2194.78,805.111 2195.48,807.111 2196.18,815.738 2196.88,808.57 2197.58,817.104 2198.28,818.298 2198.98,819.419 
  2199.68,808.618 2200.38,818.84 2201.08,826.683 2201.78,818.785 2202.48,816.482 2203.18,822.796 2203.88,820.232 2204.58,812.763 2205.28,814.251 2205.98,824.093 
  2206.68,821.44 2207.37,824.037 2208.07,811.237 2208.77,822.972 2209.47,803.476 2210.17,808.965 2210.87,810.7 2211.57,822.473 2212.27,814.854 2212.97,811.12 
  2213.67,811.023 2214.37,812.631 2215.07,814.13 2215.77,810.445 2216.47,812.084 2217.17,805.16 2217.87,815.615 2218.57,805.065 2219.27,815.525 2219.97,818.52 
  2220.67,816.236 2221.37,820.868 2222.07,818.434 2222.77,807.7 2223.47,812.903 2224.17,817.758 2224.87,823.989 2225.57,817.958 2226.27,819.098 2226.97,818.473 
  2227.67,811.116 2228.37,812.711 2229.07,817.586 2229.77,818.747 2230.47,809.68 2231.17,809.678 2231.87,809.677 2232.57,813.061 2233.27,817.912 2233.97,813.978 
  2234.67,818.76 2235.37,819.842 2236.07,803.938 2236.77,811.093 2237.47,812.689 2238.17,814.18 2238.87,815.567 2239.57,825.324 2240.27,803.983 2240.97,807.745 
  2241.67,811.257 2242.37,811.148 2243.07,811.044 2243.77,822.791 2244.47,828.679 2245.17,815.569 2245.87,813.482 2246.57,830.148 2247.27,818.629 2247.97,806.189 
  2248.67,808.112 2249.37,809.904 2250.07,820.035 2250.77,837.951 2251.47,836.07 2252.17,819.081 2252.87,813.377 2253.57,811.437 2254.27,811.315 2254.97,811.213 
  2255.67,819.566 2256.37,818.905 2257.07,809.83 2257.77,813.208 2258.47,823.123 2259.17,808.69 2259.87,815.524 2260.57,815.137 2261.27,816.463 2261.97,817.7 
  2262.67,813.781 2263.37,803.357 2264.07,800.393 2264.77,804.396 2265.47,796.291 2266.17,819.181 2266.87,830.394 2267.57,837.472 2268.27,811.936 2268.97,799.948 
  2269.67,798.905 2270.37,799.624 2271.07,805.371 2271.77,812.426 2272.46,822.392 2273.16,811.395 2273.86,804.509 2274.56,815.001 2275.26,797.724 2275.96,796.83 
  2276.66,819.676 2277.36,808.862 2278.06,808.917 2278.76,803.892 2279.46,816.113 2280.16,813.994 2280.86,812.012 2281.56,813.543 2282.26,821.745 2282.96,819.246 
  2283.66,810.148 2284.36,803.35 2285.06,817.301 2285.76,815.102 2286.46,821.505 2287.16,819.022 2287.86,815.014 2288.56,819.735 2289.26,827.521 2289.96,817.869 
  2290.66,812.249 2291.36,815.463 2292.06,806.656 2292.76,811.944 2293.46,821.926 
  "/>
<path clip-path="url(#clip940)" d="
M1606.69 270.476 L2282.92 270.476 L2282.92 166.796 L1606.69 166.796  Z
  " fill="#ffffff" fill-rule="evenodd" fill-opacity="1"/>
<polyline clip-path="url(#clip940)" style="stroke:#000000; stroke-linecap:butt; stroke-linejoin:round; stroke-width:4; stroke-opacity:1; fill:none" points="
  1606.69,270.476 2282.92,270.476 2282.92,166.796 1606.69,166.796 1606.69,270.476 
  "/>
<polyline clip-path="url(#clip940)" style="stroke:#009af9; stroke-linecap:butt; stroke-linejoin:round; stroke-width:4; stroke-opacity:1; fill:none" points="
  1629.97,218.636 1769.64,218.636 
  "/>
<path clip-path="url(#clip940)" d="M1798.24 209.99 L1802.5 209.99 L1802.5 236.379 Q1802.5 241.332 1800.6 243.555 Q1798.73 245.777 1794.54 245.777 L1792.92 245.777 L1792.92 242.166 L1794.05 242.166 Q1796.48 242.166 1797.36 241.031 Q1798.24 239.92 1798.24 236.379 L1798.24 209.99 M1798.24 199.897 L1802.5 199.897 L1802.5 205.291 L1798.24 205.291 L1798.24 199.897 Z" fill="#000000" fill-rule="evenodd" fill-opacity="1" /><path clip-path="url(#clip940)" d="M1833.59 221.888 L1833.59 223.971 L1814 223.971 Q1814.28 228.369 1816.64 230.684 Q1819.03 232.976 1823.26 232.976 Q1825.72 232.976 1828.01 232.374 Q1830.32 231.772 1832.59 230.569 L1832.59 234.596 Q1830.3 235.568 1827.89 236.078 Q1825.49 236.587 1823.01 236.587 Q1816.81 236.587 1813.17 232.976 Q1809.56 229.365 1809.56 223.207 Q1809.56 216.842 1812.99 213.115 Q1816.44 209.365 1822.27 209.365 Q1827.5 209.365 1830.53 212.745 Q1833.59 216.101 1833.59 221.888 M1829.33 220.638 Q1829.28 217.143 1827.36 215.059 Q1825.46 212.976 1822.31 212.976 Q1818.75 212.976 1816.6 214.99 Q1814.47 217.004 1814.14 220.661 L1829.33 220.638 Z" fill="#000000" fill-rule="evenodd" fill-opacity="1" /><path clip-path="url(#clip940)" d="M1855.6 213.971 Q1854.88 213.555 1854.03 213.37 Q1853.19 213.161 1852.18 213.161 Q1848.56 213.161 1846.62 215.522 Q1844.7 217.86 1844.7 222.258 L1844.7 235.916 L1840.42 235.916 L1840.42 209.99 L1844.7 209.99 L1844.7 214.018 Q1846.04 211.657 1848.19 210.522 Q1850.35 209.365 1853.43 209.365 Q1853.87 209.365 1854.4 209.434 Q1854.93 209.481 1855.58 209.596 L1855.6 213.971 Z" fill="#000000" fill-rule="evenodd" fill-opacity="1" /><path clip-path="url(#clip940)" d="M1859.91 199.897 L1864.19 199.897 L1864.19 221.17 L1876.9 209.99 L1882.34 209.99 L1868.59 222.119 L1882.92 235.916 L1877.36 235.916 L1864.19 223.254 L1864.19 235.916 L1859.91 235.916 L1859.91 199.897 Z" fill="#000000" fill-rule="evenodd" fill-opacity="1" /><path clip-path="url(#clip940)" d="M1907.22 243.786 L1907.22 247.096 L1882.59 247.096 L1882.59 243.786 L1907.22 243.786 Z" fill="#000000" fill-rule="evenodd" fill-opacity="1" /><path clip-path="url(#clip940)" d="M1931.41 214.967 Q1933.01 212.096 1935.23 210.731 Q1937.45 209.365 1940.46 209.365 Q1944.51 209.365 1946.71 212.212 Q1948.91 215.036 1948.91 220.268 L1948.91 235.916 L1944.63 235.916 L1944.63 220.407 Q1944.63 216.68 1943.31 214.874 Q1941.99 213.069 1939.28 213.069 Q1935.97 213.069 1934.05 215.268 Q1932.13 217.467 1932.13 221.263 L1932.13 235.916 L1927.85 235.916 L1927.85 220.407 Q1927.85 216.657 1926.53 214.874 Q1925.21 213.069 1922.45 213.069 Q1919.19 213.069 1917.27 215.291 Q1915.35 217.49 1915.35 221.263 L1915.35 235.916 L1911.06 235.916 L1911.06 209.99 L1915.35 209.99 L1915.35 214.018 Q1916.8 211.633 1918.84 210.499 Q1920.88 209.365 1923.68 209.365 Q1926.5 209.365 1928.47 210.8 Q1930.46 212.235 1931.41 214.967 Z" fill="#000000" fill-rule="evenodd" fill-opacity="1" /><path clip-path="url(#clip940)" d="M1979.58 221.888 L1979.58 223.971 L1960 223.971 Q1960.28 228.369 1962.64 230.684 Q1965.02 232.976 1969.26 232.976 Q1971.71 232.976 1974 232.374 Q1976.32 231.772 1978.59 230.569 L1978.59 234.596 Q1976.3 235.568 1973.89 236.078 Q1971.48 236.587 1969 236.587 Q1962.8 236.587 1959.17 232.976 Q1955.55 229.365 1955.55 223.207 Q1955.55 216.842 1958.98 213.115 Q1962.43 209.365 1968.26 209.365 Q1973.49 209.365 1976.53 212.745 Q1979.58 216.101 1979.58 221.888 M1975.32 220.638 Q1975.28 217.143 1973.36 215.059 Q1971.46 212.976 1968.31 212.976 Q1964.74 212.976 1962.59 214.99 Q1960.46 217.004 1960.14 220.661 L1975.32 220.638 Z" fill="#000000" fill-rule="evenodd" fill-opacity="1" /><path clip-path="url(#clip940)" d="M1998.36 222.883 Q1993.19 222.883 1991.2 224.064 Q1989.21 225.244 1989.21 228.092 Q1989.21 230.36 1990.69 231.703 Q1992.2 233.022 1994.77 233.022 Q1998.31 233.022 2000.44 230.522 Q2002.59 227.999 2002.59 223.832 L2002.59 222.883 L1998.36 222.883 M2006.85 221.124 L2006.85 235.916 L2002.59 235.916 L2002.59 231.981 Q2001.13 234.342 1998.96 235.476 Q1996.78 236.587 1993.63 236.587 Q1989.65 236.587 1987.29 234.365 Q1984.95 232.119 1984.95 228.369 Q1984.95 223.994 1987.87 221.772 Q1990.81 219.55 1996.62 219.55 L2002.59 219.55 L2002.59 219.133 Q2002.59 216.194 2000.65 214.596 Q1998.73 212.976 1995.23 212.976 Q1993.01 212.976 1990.9 213.508 Q1988.8 214.041 1986.85 215.106 L1986.85 211.17 Q1989.19 210.268 1991.39 209.828 Q1993.59 209.365 1995.67 209.365 Q2001.3 209.365 2004.07 212.282 Q2006.85 215.198 2006.85 221.124 Z" fill="#000000" fill-rule="evenodd" fill-opacity="1" /><path clip-path="url(#clip940)" d="M2032.15 210.754 L2032.15 214.782 Q2030.35 213.856 2028.4 213.393 Q2026.46 212.93 2024.37 212.93 Q2021.2 212.93 2019.61 213.902 Q2018.03 214.874 2018.03 216.819 Q2018.03 218.3 2019.17 219.157 Q2020.3 219.99 2023.73 220.754 L2025.18 221.078 Q2029.72 222.05 2031.62 223.832 Q2033.54 225.592 2033.54 228.763 Q2033.54 232.374 2030.67 234.481 Q2027.82 236.587 2022.82 236.587 Q2020.74 236.587 2018.47 236.17 Q2016.23 235.777 2013.73 234.967 L2013.73 230.569 Q2016.09 231.795 2018.38 232.42 Q2020.67 233.022 2022.92 233.022 Q2025.92 233.022 2027.55 232.004 Q2029.17 230.962 2029.17 229.087 Q2029.17 227.351 2027.98 226.425 Q2026.83 225.499 2022.87 224.643 L2021.39 224.295 Q2017.43 223.462 2015.67 221.749 Q2013.91 220.013 2013.91 217.004 Q2013.91 213.346 2016.5 211.356 Q2019.1 209.365 2023.86 209.365 Q2026.23 209.365 2028.31 209.712 Q2030.39 210.059 2032.15 210.754 Z" fill="#000000" fill-rule="evenodd" fill-opacity="1" /><path clip-path="url(#clip940)" d="M2039.88 225.684 L2039.88 209.99 L2044.14 209.99 L2044.14 225.522 Q2044.14 229.203 2045.58 231.055 Q2047.01 232.883 2049.88 232.883 Q2053.33 232.883 2055.32 230.684 Q2057.34 228.485 2057.34 224.689 L2057.34 209.99 L2061.6 209.99 L2061.6 235.916 L2057.34 235.916 L2057.34 231.934 Q2055.79 234.295 2053.73 235.453 Q2051.69 236.587 2048.98 236.587 Q2044.51 236.587 2042.2 233.809 Q2039.88 231.031 2039.88 225.684 M2050.6 209.365 L2050.6 209.365 Z" fill="#000000" fill-rule="evenodd" fill-opacity="1" /><path clip-path="url(#clip940)" d="M2085.39 213.971 Q2084.67 213.555 2083.82 213.37 Q2082.98 213.161 2081.97 213.161 Q2078.35 213.161 2076.41 215.522 Q2074.49 217.86 2074.49 222.258 L2074.49 235.916 L2070.21 235.916 L2070.21 209.99 L2074.49 209.99 L2074.49 214.018 Q2075.83 211.657 2077.98 210.522 Q2080.14 209.365 2083.22 209.365 Q2083.66 209.365 2084.19 209.434 Q2084.72 209.481 2085.37 209.596 L2085.39 213.971 Z" fill="#000000" fill-rule="evenodd" fill-opacity="1" /><path clip-path="url(#clip940)" d="M2110.99 221.888 L2110.99 223.971 L2091.41 223.971 Q2091.69 228.369 2094.05 230.684 Q2096.43 232.976 2100.67 232.976 Q2103.12 232.976 2105.41 232.374 Q2107.73 231.772 2110 230.569 L2110 234.596 Q2107.71 235.568 2105.3 236.078 Q2102.89 236.587 2100.42 236.587 Q2094.21 236.587 2090.58 232.976 Q2086.97 229.365 2086.97 223.207 Q2086.97 216.842 2090.39 213.115 Q2093.84 209.365 2099.67 209.365 Q2104.91 209.365 2107.94 212.745 Q2110.99 216.101 2110.99 221.888 M2106.73 220.638 Q2106.69 217.143 2104.77 215.059 Q2102.87 212.976 2099.72 212.976 Q2096.16 212.976 2094 214.99 Q2091.87 217.004 2091.55 220.661 L2106.73 220.638 Z" fill="#000000" fill-rule="evenodd" fill-opacity="1" /><path clip-path="url(#clip940)" d="M2138.17 214.967 Q2139.77 212.096 2141.99 210.731 Q2144.21 209.365 2147.22 209.365 Q2151.27 209.365 2153.47 212.212 Q2155.67 215.036 2155.67 220.268 L2155.67 235.916 L2151.39 235.916 L2151.39 220.407 Q2151.39 216.68 2150.07 214.874 Q2148.75 213.069 2146.04 213.069 Q2142.73 213.069 2140.81 215.268 Q2138.89 217.467 2138.89 221.263 L2138.89 235.916 L2134.6 235.916 L2134.6 220.407 Q2134.6 216.657 2133.29 214.874 Q2131.97 213.069 2129.21 213.069 Q2125.95 213.069 2124.03 215.291 Q2122.1 217.49 2122.1 221.263 L2122.1 235.916 L2117.82 235.916 L2117.82 209.99 L2122.1 209.99 L2122.1 214.018 Q2123.56 211.633 2125.6 210.499 Q2127.64 209.365 2130.44 209.365 Q2133.26 209.365 2135.23 210.8 Q2137.22 212.235 2138.17 214.967 Z" fill="#000000" fill-rule="evenodd" fill-opacity="1" /><path clip-path="url(#clip940)" d="M2186.34 221.888 L2186.34 223.971 L2166.76 223.971 Q2167.04 228.369 2169.4 230.684 Q2171.78 232.976 2176.02 232.976 Q2178.47 232.976 2180.76 232.374 Q2183.08 231.772 2185.35 230.569 L2185.35 234.596 Q2183.05 235.568 2180.65 236.078 Q2178.24 236.587 2175.76 236.587 Q2169.56 236.587 2165.92 232.976 Q2162.31 229.365 2162.31 223.207 Q2162.31 216.842 2165.74 213.115 Q2169.19 209.365 2175.02 209.365 Q2180.25 209.365 2183.28 212.745 Q2186.34 216.101 2186.34 221.888 M2182.08 220.638 Q2182.03 217.143 2180.11 215.059 Q2178.22 212.976 2175.07 212.976 Q2171.5 212.976 2169.35 214.99 Q2167.22 217.004 2166.9 220.661 L2182.08 220.638 Z" fill="#000000" fill-rule="evenodd" fill-opacity="1" /><path clip-path="url(#clip940)" d="M2214.88 220.268 L2214.88 235.916 L2210.62 235.916 L2210.62 220.407 Q2210.62 216.726 2209.19 214.897 Q2207.75 213.069 2204.88 213.069 Q2201.43 213.069 2199.44 215.268 Q2197.45 217.467 2197.45 221.263 L2197.45 235.916 L2193.17 235.916 L2193.17 209.99 L2197.45 209.99 L2197.45 214.018 Q2198.98 211.68 2201.04 210.522 Q2203.12 209.365 2205.83 209.365 Q2210.3 209.365 2212.59 212.143 Q2214.88 214.897 2214.88 220.268 Z" fill="#000000" fill-rule="evenodd" fill-opacity="1" /><path clip-path="url(#clip940)" d="M2227.59 202.629 L2227.59 209.99 L2236.36 209.99 L2236.36 213.3 L2227.59 213.3 L2227.59 227.374 Q2227.59 230.545 2228.45 231.448 Q2229.33 232.351 2231.99 232.351 L2236.36 232.351 L2236.36 235.916 L2231.99 235.916 Q2227.06 235.916 2225.18 234.087 Q2223.31 232.235 2223.31 227.374 L2223.31 213.3 L2220.18 213.3 L2220.18 209.99 L2223.31 209.99 L2223.31 202.629 L2227.59 202.629 Z" fill="#000000" fill-rule="evenodd" fill-opacity="1" /></svg>
