<?xml version="1.0" encoding="utf-8"?>
<svg xmlns="http://www.w3.org/2000/svg" xmlns:xlink="http://www.w3.org/1999/xlink" width="600" height="400" viewBox="0 0 2400 1600">
<defs>
  <clipPath id="clip350">
    <rect x="0" y="0" width="2400" height="1600"/>
  </clipPath>
</defs>
<path clip-path="url(#clip350)" d="
M0 1600 L2400 1600 L2400 0 L0 0  Z
  " fill="#ffffff" fill-rule="evenodd" fill-opacity="1"/>
<defs>
  <clipPath id="clip351">
    <rect x="480" y="0" width="1681" height="1600"/>
  </clipPath>
</defs>
<path clip-path="url(#clip350)" d="
M257.204 1423.18 L2352.76 1423.18 L2352.76 123.472 L257.204 123.472  Z
  " fill="#ffffff" fill-rule="evenodd" fill-opacity="1"/>
<defs>
  <clipPath id="clip352">
    <rect x="257" y="123" width="2097" height="1301"/>
  </clipPath>
</defs>
<polyline clip-path="url(#clip352)" style="stroke:#000000; stroke-linecap:butt; stroke-linejoin:round; stroke-width:2; stroke-opacity:0.1; fill:none" points="
  315.835,1423.18 315.835,123.472 
  "/>
<polyline clip-path="url(#clip352)" style="stroke:#000000; stroke-linecap:butt; stroke-linejoin:round; stroke-width:2; stroke-opacity:0.1; fill:none" points="
  764.53,1423.18 764.53,123.472 
  "/>
<polyline clip-path="url(#clip352)" style="stroke:#000000; stroke-linecap:butt; stroke-linejoin:round; stroke-width:2; stroke-opacity:0.1; fill:none" points="
  1213.23,1423.18 1213.23,123.472 
  "/>
<polyline clip-path="url(#clip352)" style="stroke:#000000; stroke-linecap:butt; stroke-linejoin:round; stroke-width:2; stroke-opacity:0.1; fill:none" points="
  1661.92,1423.18 1661.92,123.472 
  "/>
<polyline clip-path="url(#clip352)" style="stroke:#000000; stroke-linecap:butt; stroke-linejoin:round; stroke-width:2; stroke-opacity:0.1; fill:none" points="
  2110.61,1423.18 2110.61,123.472 
  "/>
<polyline clip-path="url(#clip350)" style="stroke:#000000; stroke-linecap:butt; stroke-linejoin:round; stroke-width:4; stroke-opacity:1; fill:none" points="
  257.204,1423.18 2352.76,1423.18 
  "/>
<polyline clip-path="url(#clip350)" style="stroke:#000000; stroke-linecap:butt; stroke-linejoin:round; stroke-width:4; stroke-opacity:1; fill:none" points="
  315.835,1423.18 315.835,1404.28 
  "/>
<polyline clip-path="url(#clip350)" style="stroke:#000000; stroke-linecap:butt; stroke-linejoin:round; stroke-width:4; stroke-opacity:1; fill:none" points="
  764.53,1423.18 764.53,1404.28 
  "/>
<polyline clip-path="url(#clip350)" style="stroke:#000000; stroke-linecap:butt; stroke-linejoin:round; stroke-width:4; stroke-opacity:1; fill:none" points="
  1213.23,1423.18 1213.23,1404.28 
  "/>
<polyline clip-path="url(#clip350)" style="stroke:#000000; stroke-linecap:butt; stroke-linejoin:round; stroke-width:4; stroke-opacity:1; fill:none" points="
  1661.92,1423.18 1661.92,1404.28 
  "/>
<polyline clip-path="url(#clip350)" style="stroke:#000000; stroke-linecap:butt; stroke-linejoin:round; stroke-width:4; stroke-opacity:1; fill:none" points="
  2110.61,1423.18 2110.61,1404.28 
  "/>
<path clip-path="url(#clip350)" d="M315.835 1454.1 Q312.224 1454.1 310.396 1457.66 Q308.59 1461.2 308.59 1468.33 Q308.59 1475.44 310.396 1479.01 Q312.224 1482.55 315.835 1482.55 Q319.47 1482.55 321.275 1479.01 Q323.104 1475.44 323.104 1468.33 Q323.104 1461.2 321.275 1457.66 Q319.47 1454.1 315.835 1454.1 M315.835 1450.39 Q321.645 1450.39 324.701 1455 Q327.78 1459.58 327.78 1468.33 Q327.78 1477.06 324.701 1481.67 Q321.645 1486.25 315.835 1486.25 Q310.025 1486.25 306.946 1481.67 Q303.891 1477.06 303.891 1468.33 Q303.891 1459.58 306.946 1455 Q310.025 1450.39 315.835 1450.39 Z" fill="#000000" fill-rule="evenodd" fill-opacity="1" /><path clip-path="url(#clip350)" d="M743.801 1481.64 L760.12 1481.64 L760.12 1485.58 L738.176 1485.58 L738.176 1481.64 Q740.838 1478.89 745.421 1474.26 Q750.028 1469.61 751.209 1468.27 Q753.454 1465.74 754.333 1464.01 Q755.236 1462.25 755.236 1460.56 Q755.236 1457.8 753.292 1456.07 Q751.371 1454.33 748.269 1454.33 Q746.07 1454.33 743.616 1455.09 Q741.185 1455.86 738.408 1457.41 L738.408 1452.69 Q741.232 1451.55 743.685 1450.97 Q746.139 1450.39 748.176 1450.39 Q753.546 1450.39 756.741 1453.08 Q759.935 1455.77 759.935 1460.26 Q759.935 1462.39 759.125 1464.31 Q758.338 1466.2 756.232 1468.8 Q755.653 1469.47 752.551 1472.69 Q749.449 1475.88 743.801 1481.64 Z" fill="#000000" fill-rule="evenodd" fill-opacity="1" /><path clip-path="url(#clip350)" d="M769.982 1451.02 L788.338 1451.02 L788.338 1454.96 L774.264 1454.96 L774.264 1463.43 Q775.282 1463.08 776.301 1462.92 Q777.319 1462.73 778.338 1462.73 Q784.125 1462.73 787.505 1465.9 Q790.884 1469.08 790.884 1474.49 Q790.884 1480.07 787.412 1483.17 Q783.94 1486.25 777.62 1486.25 Q775.444 1486.25 773.176 1485.88 Q770.931 1485.51 768.523 1484.77 L768.523 1480.07 Q770.607 1481.2 772.829 1481.76 Q775.051 1482.32 777.528 1482.32 Q781.532 1482.32 783.87 1480.21 Q786.208 1478.1 786.208 1474.49 Q786.208 1470.88 783.87 1468.77 Q781.532 1466.67 777.528 1466.67 Q775.653 1466.67 773.778 1467.08 Q771.926 1467.5 769.982 1468.38 L769.982 1451.02 Z" fill="#000000" fill-rule="evenodd" fill-opacity="1" /><path clip-path="url(#clip350)" d="M1187.92 1451.02 L1206.28 1451.02 L1206.28 1454.96 L1192.21 1454.96 L1192.21 1463.43 Q1193.23 1463.08 1194.24 1462.92 Q1195.26 1462.73 1196.28 1462.73 Q1202.07 1462.73 1205.45 1465.9 Q1208.83 1469.08 1208.83 1474.49 Q1208.83 1480.07 1205.35 1483.17 Q1201.88 1486.25 1195.56 1486.25 Q1193.39 1486.25 1191.12 1485.88 Q1188.87 1485.51 1186.47 1484.77 L1186.47 1480.07 Q1188.55 1481.2 1190.77 1481.76 Q1192.99 1482.32 1195.47 1482.32 Q1199.48 1482.32 1201.81 1480.21 Q1204.15 1478.1 1204.15 1474.49 Q1204.15 1470.88 1201.81 1468.77 Q1199.48 1466.67 1195.47 1466.67 Q1193.6 1466.67 1191.72 1467.08 Q1189.87 1467.5 1187.92 1468.38 L1187.92 1451.02 Z" fill="#000000" fill-rule="evenodd" fill-opacity="1" /><path clip-path="url(#clip350)" d="M1228.04 1454.1 Q1224.43 1454.1 1222.6 1457.66 Q1220.79 1461.2 1220.79 1468.33 Q1220.79 1475.44 1222.6 1479.01 Q1224.43 1482.55 1228.04 1482.55 Q1231.67 1482.55 1233.48 1479.01 Q1235.31 1475.44 1235.31 1468.33 Q1235.31 1461.2 1233.48 1457.66 Q1231.67 1454.1 1228.04 1454.1 M1228.04 1450.39 Q1233.85 1450.39 1236.91 1455 Q1239.98 1459.58 1239.98 1468.33 Q1239.98 1477.06 1236.91 1481.67 Q1233.85 1486.25 1228.04 1486.25 Q1222.23 1486.25 1219.15 1481.67 Q1216.1 1477.06 1216.1 1468.33 Q1216.1 1459.58 1219.15 1455 Q1222.23 1450.39 1228.04 1450.39 Z" fill="#000000" fill-rule="evenodd" fill-opacity="1" /><path clip-path="url(#clip350)" d="M1635.77 1451.02 L1658 1451.02 L1658 1453.01 L1645.45 1485.58 L1640.57 1485.58 L1652.37 1454.96 L1635.77 1454.96 L1635.77 1451.02 Z" fill="#000000" fill-rule="evenodd" fill-opacity="1" /><path clip-path="url(#clip350)" d="M1667.16 1451.02 L1685.52 1451.02 L1685.52 1454.96 L1671.45 1454.96 L1671.45 1463.43 Q1672.46 1463.08 1673.48 1462.92 Q1674.5 1462.73 1675.52 1462.73 Q1681.31 1462.73 1684.69 1465.9 Q1688.07 1469.08 1688.07 1474.49 Q1688.07 1480.07 1684.59 1483.17 Q1681.12 1486.25 1674.8 1486.25 Q1672.63 1486.25 1670.36 1485.88 Q1668.11 1485.51 1665.7 1484.77 L1665.7 1480.07 Q1667.79 1481.2 1670.01 1481.76 Q1672.23 1482.32 1674.71 1482.32 Q1678.71 1482.32 1681.05 1480.21 Q1683.39 1478.1 1683.39 1474.49 Q1683.39 1470.88 1681.05 1468.77 Q1678.71 1466.67 1674.71 1466.67 Q1672.83 1466.67 1670.96 1467.08 Q1669.11 1467.5 1667.16 1468.38 L1667.16 1451.02 Z" fill="#000000" fill-rule="evenodd" fill-opacity="1" /><path clip-path="url(#clip350)" d="M2070.22 1481.64 L2077.86 1481.64 L2077.86 1455.28 L2069.55 1456.95 L2069.55 1452.69 L2077.81 1451.02 L2082.49 1451.02 L2082.49 1481.64 L2090.13 1481.64 L2090.13 1485.58 L2070.22 1485.58 L2070.22 1481.64 Z" fill="#000000" fill-rule="evenodd" fill-opacity="1" /><path clip-path="url(#clip350)" d="M2109.57 1454.1 Q2105.96 1454.1 2104.13 1457.66 Q2102.33 1461.2 2102.33 1468.33 Q2102.33 1475.44 2104.13 1479.01 Q2105.96 1482.55 2109.57 1482.55 Q2113.21 1482.55 2115.01 1479.01 Q2116.84 1475.44 2116.84 1468.33 Q2116.84 1461.2 2115.01 1457.66 Q2113.21 1454.1 2109.57 1454.1 M2109.57 1450.39 Q2115.38 1450.39 2118.44 1455 Q2121.52 1459.58 2121.52 1468.33 Q2121.52 1477.06 2118.44 1481.67 Q2115.38 1486.25 2109.57 1486.25 Q2103.76 1486.25 2100.68 1481.67 Q2097.63 1477.06 2097.63 1468.33 Q2097.63 1459.58 2100.68 1455 Q2103.76 1450.39 2109.57 1450.39 Z" fill="#000000" fill-rule="evenodd" fill-opacity="1" /><path clip-path="url(#clip350)" d="M2139.74 1454.1 Q2136.12 1454.1 2134.3 1457.66 Q2132.49 1461.2 2132.49 1468.33 Q2132.49 1475.44 2134.3 1479.01 Q2136.12 1482.55 2139.74 1482.55 Q2143.37 1482.55 2145.17 1479.01 Q2147 1475.44 2147 1468.33 Q2147 1461.2 2145.17 1457.66 Q2143.37 1454.1 2139.74 1454.1 M2139.74 1450.39 Q2145.55 1450.39 2148.6 1455 Q2151.68 1459.58 2151.68 1468.33 Q2151.68 1477.06 2148.6 1481.67 Q2145.55 1486.25 2139.74 1486.25 Q2133.92 1486.25 2130.85 1481.67 Q2127.79 1477.06 2127.79 1468.33 Q2127.79 1459.58 2130.85 1455 Q2133.92 1450.39 2139.74 1450.39 Z" fill="#000000" fill-rule="evenodd" fill-opacity="1" /><path clip-path="url(#clip350)" d="M1213.22 1522.27 L1213.22 1532.4 L1225.28 1532.4 L1225.28 1536.95 L1213.22 1536.95 L1213.22 1556.3 Q1213.22 1560.66 1214.4 1561.9 Q1215.61 1563.14 1219.27 1563.14 L1225.28 1563.14 L1225.28 1568.04 L1219.27 1568.04 Q1212.49 1568.04 1209.91 1565.53 Q1207.33 1562.98 1207.33 1556.3 L1207.33 1536.95 L1203.03 1536.95 L1203.03 1532.4 L1207.33 1532.4 L1207.33 1522.27 L1213.22 1522.27 Z" fill="#000000" fill-rule="evenodd" fill-opacity="1" /><path clip-path="url(#clip350)" d="M1253.7 1532.4 L1259.56 1532.4 L1259.56 1568.04 L1253.7 1568.04 L1253.7 1532.4 M1253.7 1518.52 L1259.56 1518.52 L1259.56 1525.93 L1253.7 1525.93 L1253.7 1518.52 Z" fill="#000000" fill-rule="evenodd" fill-opacity="1" /><path clip-path="url(#clip350)" d="M1301.45 1546.53 L1301.45 1568.04 L1295.59 1568.04 L1295.59 1546.72 Q1295.59 1541.66 1293.62 1539.14 Q1291.64 1536.63 1287.7 1536.63 Q1282.95 1536.63 1280.22 1539.65 Q1277.48 1542.68 1277.48 1547.9 L1277.48 1568.04 L1271.59 1568.04 L1271.59 1532.4 L1277.48 1532.4 L1277.48 1537.93 Q1279.58 1534.72 1282.41 1533.13 Q1285.28 1531.54 1289 1531.54 Q1295.14 1531.54 1298.3 1535.36 Q1301.45 1539.14 1301.45 1546.53 Z" fill="#000000" fill-rule="evenodd" fill-opacity="1" /><path clip-path="url(#clip350)" d="M1333.31 1518.52 L1346.8 1518.52 L1346.8 1523.07 L1339.16 1523.07 L1339.16 1572.09 L1346.8 1572.09 L1346.8 1576.64 L1333.31 1576.64 L1333.31 1518.52 Z" fill="#000000" fill-rule="evenodd" fill-opacity="1" /><path clip-path="url(#clip350)" d="M1382.01 1533.45 L1382.01 1538.98 Q1379.52 1537.71 1376.85 1537.07 Q1374.18 1536.44 1371.31 1536.44 Q1366.95 1536.44 1364.75 1537.77 Q1362.59 1539.11 1362.59 1541.79 Q1362.59 1543.82 1364.15 1545 Q1365.71 1546.15 1370.42 1547.2 L1372.42 1547.64 Q1378.66 1548.98 1381.27 1551.43 Q1383.91 1553.85 1383.91 1558.21 Q1383.91 1563.17 1379.97 1566.07 Q1376.05 1568.97 1369.18 1568.97 Q1366.31 1568.97 1363.19 1568.39 Q1360.11 1567.85 1356.67 1566.74 L1356.67 1560.69 Q1359.92 1562.38 1363.07 1563.24 Q1366.22 1564.07 1369.31 1564.07 Q1373.44 1564.07 1375.67 1562.66 Q1377.9 1561.23 1377.9 1558.65 Q1377.9 1556.27 1376.28 1554.99 Q1374.68 1553.72 1369.24 1552.54 L1367.2 1552.07 Q1361.76 1550.92 1359.34 1548.56 Q1356.92 1546.18 1356.92 1542.04 Q1356.92 1537.01 1360.49 1534.27 Q1364.05 1531.54 1370.61 1531.54 Q1373.86 1531.54 1376.72 1532.01 Q1379.59 1532.49 1382.01 1533.45 Z" fill="#000000" fill-rule="evenodd" fill-opacity="1" /><path clip-path="url(#clip350)" d="M1406.93 1518.52 L1406.93 1576.64 L1393.43 1576.64 L1393.43 1572.09 L1401.04 1572.09 L1401.04 1523.07 L1393.43 1523.07 L1393.43 1518.52 L1406.93 1518.52 Z" fill="#000000" fill-rule="evenodd" fill-opacity="1" /><polyline clip-path="url(#clip352)" style="stroke:#000000; stroke-linecap:butt; stroke-linejoin:round; stroke-width:2; stroke-opacity:0.1; fill:none" points="
  257.204,1344.08 2352.76,1344.08 
  "/>
<polyline clip-path="url(#clip352)" style="stroke:#000000; stroke-linecap:butt; stroke-linejoin:round; stroke-width:2; stroke-opacity:0.1; fill:none" points="
  257.204,1131.53 2352.76,1131.53 
  "/>
<polyline clip-path="url(#clip352)" style="stroke:#000000; stroke-linecap:butt; stroke-linejoin:round; stroke-width:2; stroke-opacity:0.1; fill:none" points="
  257.204,918.989 2352.76,918.989 
  "/>
<polyline clip-path="url(#clip352)" style="stroke:#000000; stroke-linecap:butt; stroke-linejoin:round; stroke-width:2; stroke-opacity:0.1; fill:none" points="
  257.204,706.445 2352.76,706.445 
  "/>
<polyline clip-path="url(#clip352)" style="stroke:#000000; stroke-linecap:butt; stroke-linejoin:round; stroke-width:2; stroke-opacity:0.1; fill:none" points="
  257.204,493.901 2352.76,493.901 
  "/>
<polyline clip-path="url(#clip352)" style="stroke:#000000; stroke-linecap:butt; stroke-linejoin:round; stroke-width:2; stroke-opacity:0.1; fill:none" points="
  257.204,281.356 2352.76,281.356 
  "/>
<polyline clip-path="url(#clip350)" style="stroke:#000000; stroke-linecap:butt; stroke-linejoin:round; stroke-width:4; stroke-opacity:1; fill:none" points="
  257.204,1423.18 257.204,123.472 
  "/>
<polyline clip-path="url(#clip350)" style="stroke:#000000; stroke-linecap:butt; stroke-linejoin:round; stroke-width:4; stroke-opacity:1; fill:none" points="
  257.204,1344.08 276.102,1344.08 
  "/>
<polyline clip-path="url(#clip350)" style="stroke:#000000; stroke-linecap:butt; stroke-linejoin:round; stroke-width:4; stroke-opacity:1; fill:none" points="
  257.204,1131.53 276.102,1131.53 
  "/>
<polyline clip-path="url(#clip350)" style="stroke:#000000; stroke-linecap:butt; stroke-linejoin:round; stroke-width:4; stroke-opacity:1; fill:none" points="
  257.204,918.989 276.102,918.989 
  "/>
<polyline clip-path="url(#clip350)" style="stroke:#000000; stroke-linecap:butt; stroke-linejoin:round; stroke-width:4; stroke-opacity:1; fill:none" points="
  257.204,706.445 276.102,706.445 
  "/>
<polyline clip-path="url(#clip350)" style="stroke:#000000; stroke-linecap:butt; stroke-linejoin:round; stroke-width:4; stroke-opacity:1; fill:none" points="
  257.204,493.901 276.102,493.901 
  "/>
<polyline clip-path="url(#clip350)" style="stroke:#000000; stroke-linecap:butt; stroke-linejoin:round; stroke-width:4; stroke-opacity:1; fill:none" points="
  257.204,281.356 276.102,281.356 
  "/>
<path clip-path="url(#clip350)" d="M115.256 1344.53 L144.931 1344.53 L144.931 1348.46 L115.256 1348.46 L115.256 1344.53 Z" fill="#000000" fill-rule="evenodd" fill-opacity="1" /><path clip-path="url(#clip350)" d="M155.834 1357.42 L163.473 1357.42 L163.473 1331.06 L155.163 1332.72 L155.163 1328.46 L163.427 1326.8 L168.102 1326.8 L168.102 1357.42 L175.741 1357.42 L175.741 1361.36 L155.834 1361.36 L155.834 1357.42 Z" fill="#000000" fill-rule="evenodd" fill-opacity="1" /><path clip-path="url(#clip350)" d="M185.186 1355.48 L190.07 1355.48 L190.07 1361.36 L185.186 1361.36 L185.186 1355.48 Z" fill="#000000" fill-rule="evenodd" fill-opacity="1" /><path clip-path="url(#clip350)" d="M200.301 1326.8 L218.658 1326.8 L218.658 1330.73 L204.584 1330.73 L204.584 1339.21 Q205.602 1338.86 206.621 1338.7 Q207.639 1338.51 208.658 1338.51 Q214.445 1338.51 217.824 1341.68 Q221.204 1344.85 221.204 1350.27 Q221.204 1355.85 217.732 1358.95 Q214.26 1362.03 207.94 1362.03 Q205.764 1362.03 203.496 1361.66 Q201.25 1361.29 198.843 1360.55 L198.843 1355.85 Q200.926 1356.98 203.149 1357.54 Q205.371 1358.09 207.848 1358.09 Q211.852 1358.09 214.19 1355.99 Q216.528 1353.88 216.528 1350.27 Q216.528 1346.66 214.19 1344.55 Q211.852 1342.45 207.848 1342.45 Q205.973 1342.45 204.098 1342.86 Q202.246 1343.28 200.301 1344.16 L200.301 1326.8 Z" fill="#000000" fill-rule="evenodd" fill-opacity="1" /><path clip-path="url(#clip350)" d="M114.26 1131.99 L143.936 1131.99 L143.936 1135.92 L114.26 1135.92 L114.26 1131.99 Z" fill="#000000" fill-rule="evenodd" fill-opacity="1" /><path clip-path="url(#clip350)" d="M154.839 1144.88 L162.477 1144.88 L162.477 1118.51 L154.167 1120.18 L154.167 1115.92 L162.431 1114.25 L167.107 1114.25 L167.107 1144.88 L174.746 1144.88 L174.746 1148.81 L154.839 1148.81 L154.839 1144.88 Z" fill="#000000" fill-rule="evenodd" fill-opacity="1" /><path clip-path="url(#clip350)" d="M184.19 1142.93 L189.075 1142.93 L189.075 1148.81 L184.19 1148.81 L184.19 1142.93 Z" fill="#000000" fill-rule="evenodd" fill-opacity="1" /><path clip-path="url(#clip350)" d="M209.26 1117.33 Q205.649 1117.33 203.82 1120.9 Q202.014 1124.44 202.014 1131.57 Q202.014 1138.67 203.82 1142.24 Q205.649 1145.78 209.26 1145.78 Q212.894 1145.78 214.699 1142.24 Q216.528 1138.67 216.528 1131.57 Q216.528 1124.44 214.699 1120.9 Q212.894 1117.33 209.26 1117.33 M209.26 1113.63 Q215.07 1113.63 218.125 1118.24 Q221.204 1122.82 221.204 1131.57 Q221.204 1140.3 218.125 1144.9 Q215.07 1149.49 209.26 1149.49 Q203.449 1149.49 200.371 1144.9 Q197.315 1140.3 197.315 1131.57 Q197.315 1122.82 200.371 1118.24 Q203.449 1113.63 209.26 1113.63 Z" fill="#000000" fill-rule="evenodd" fill-opacity="1" /><path clip-path="url(#clip350)" d="M115.256 919.441 L144.931 919.441 L144.931 923.376 L115.256 923.376 L115.256 919.441 Z" fill="#000000" fill-rule="evenodd" fill-opacity="1" /><path clip-path="url(#clip350)" d="M165.024 904.788 Q161.413 904.788 159.584 908.353 Q157.778 911.895 157.778 919.024 Q157.778 926.131 159.584 929.695 Q161.413 933.237 165.024 933.237 Q168.658 933.237 170.464 929.695 Q172.292 926.131 172.292 919.024 Q172.292 911.895 170.464 908.353 Q168.658 904.788 165.024 904.788 M165.024 901.084 Q170.834 901.084 173.889 905.691 Q176.968 910.274 176.968 919.024 Q176.968 927.751 173.889 932.357 Q170.834 936.941 165.024 936.941 Q159.214 936.941 156.135 932.357 Q153.079 927.751 153.079 919.024 Q153.079 910.274 156.135 905.691 Q159.214 901.084 165.024 901.084 Z" fill="#000000" fill-rule="evenodd" fill-opacity="1" /><path clip-path="url(#clip350)" d="M185.186 930.39 L190.07 930.39 L190.07 936.269 L185.186 936.269 L185.186 930.39 Z" fill="#000000" fill-rule="evenodd" fill-opacity="1" /><path clip-path="url(#clip350)" d="M200.301 901.709 L218.658 901.709 L218.658 905.645 L204.584 905.645 L204.584 914.117 Q205.602 913.77 206.621 913.607 Q207.639 913.422 208.658 913.422 Q214.445 913.422 217.824 916.594 Q221.204 919.765 221.204 925.181 Q221.204 930.76 217.732 933.862 Q214.26 936.941 207.94 936.941 Q205.764 936.941 203.496 936.57 Q201.25 936.2 198.843 935.459 L198.843 930.76 Q200.926 931.894 203.149 932.45 Q205.371 933.006 207.848 933.006 Q211.852 933.006 214.19 930.899 Q216.528 928.793 216.528 925.181 Q216.528 921.57 214.19 919.464 Q211.852 917.357 207.848 917.357 Q205.973 917.357 204.098 917.774 Q202.246 918.191 200.301 919.07 L200.301 901.709 Z" fill="#000000" fill-rule="evenodd" fill-opacity="1" /><path clip-path="url(#clip350)" d="M164.028 692.244 Q160.417 692.244 158.589 695.808 Q156.783 699.35 156.783 706.48 Q156.783 713.586 158.589 717.151 Q160.417 720.693 164.028 720.693 Q167.663 720.693 169.468 717.151 Q171.297 713.586 171.297 706.48 Q171.297 699.35 169.468 695.808 Q167.663 692.244 164.028 692.244 M164.028 688.54 Q169.839 688.54 172.894 693.146 Q175.973 697.73 175.973 706.48 Q175.973 715.207 172.894 719.813 Q169.839 724.396 164.028 724.396 Q158.218 724.396 155.14 719.813 Q152.084 715.207 152.084 706.48 Q152.084 697.73 155.14 693.146 Q158.218 688.54 164.028 688.54 Z" fill="#000000" fill-rule="evenodd" fill-opacity="1" /><path clip-path="url(#clip350)" d="M184.19 717.845 L189.075 717.845 L189.075 723.725 L184.19 723.725 L184.19 717.845 Z" fill="#000000" fill-rule="evenodd" fill-opacity="1" /><path clip-path="url(#clip350)" d="M209.26 692.244 Q205.649 692.244 203.82 695.808 Q202.014 699.35 202.014 706.48 Q202.014 713.586 203.82 717.151 Q205.649 720.693 209.26 720.693 Q212.894 720.693 214.699 717.151 Q216.528 713.586 216.528 706.48 Q216.528 699.35 214.699 695.808 Q212.894 692.244 209.26 692.244 M209.26 688.54 Q215.07 688.54 218.125 693.146 Q221.204 697.73 221.204 706.48 Q221.204 715.207 218.125 719.813 Q215.07 724.396 209.26 724.396 Q203.449 724.396 200.371 719.813 Q197.315 715.207 197.315 706.48 Q197.315 697.73 200.371 693.146 Q203.449 688.54 209.26 688.54 Z" fill="#000000" fill-rule="evenodd" fill-opacity="1" /><path clip-path="url(#clip350)" d="M165.024 479.699 Q161.413 479.699 159.584 483.264 Q157.778 486.806 157.778 493.935 Q157.778 501.042 159.584 504.607 Q161.413 508.148 165.024 508.148 Q168.658 508.148 170.464 504.607 Q172.292 501.042 172.292 493.935 Q172.292 486.806 170.464 483.264 Q168.658 479.699 165.024 479.699 M165.024 475.996 Q170.834 475.996 173.889 480.602 Q176.968 485.185 176.968 493.935 Q176.968 502.662 173.889 507.269 Q170.834 511.852 165.024 511.852 Q159.214 511.852 156.135 507.269 Q153.079 502.662 153.079 493.935 Q153.079 485.185 156.135 480.602 Q159.214 475.996 165.024 475.996 Z" fill="#000000" fill-rule="evenodd" fill-opacity="1" /><path clip-path="url(#clip350)" d="M185.186 505.301 L190.07 505.301 L190.07 511.181 L185.186 511.181 L185.186 505.301 Z" fill="#000000" fill-rule="evenodd" fill-opacity="1" /><path clip-path="url(#clip350)" d="M200.301 476.621 L218.658 476.621 L218.658 480.556 L204.584 480.556 L204.584 489.028 Q205.602 488.681 206.621 488.519 Q207.639 488.333 208.658 488.333 Q214.445 488.333 217.824 491.505 Q221.204 494.676 221.204 500.093 Q221.204 505.671 217.732 508.773 Q214.26 511.852 207.94 511.852 Q205.764 511.852 203.496 511.481 Q201.25 511.111 198.843 510.37 L198.843 505.671 Q200.926 506.806 203.149 507.361 Q205.371 507.917 207.848 507.917 Q211.852 507.917 214.19 505.81 Q216.528 503.704 216.528 500.093 Q216.528 496.482 214.19 494.375 Q211.852 492.269 207.848 492.269 Q205.973 492.269 204.098 492.685 Q202.246 493.102 200.301 493.982 L200.301 476.621 Z" fill="#000000" fill-rule="evenodd" fill-opacity="1" /><path clip-path="url(#clip350)" d="M154.839 294.701 L162.477 294.701 L162.477 268.335 L154.167 270.002 L154.167 265.743 L162.431 264.076 L167.107 264.076 L167.107 294.701 L174.746 294.701 L174.746 298.636 L154.839 298.636 L154.839 294.701 Z" fill="#000000" fill-rule="evenodd" fill-opacity="1" /><path clip-path="url(#clip350)" d="M184.19 292.757 L189.075 292.757 L189.075 298.636 L184.19 298.636 L184.19 292.757 Z" fill="#000000" fill-rule="evenodd" fill-opacity="1" /><path clip-path="url(#clip350)" d="M209.26 267.155 Q205.649 267.155 203.82 270.72 Q202.014 274.261 202.014 281.391 Q202.014 288.497 203.82 292.062 Q205.649 295.604 209.26 295.604 Q212.894 295.604 214.699 292.062 Q216.528 288.497 216.528 281.391 Q216.528 274.261 214.699 270.72 Q212.894 267.155 209.26 267.155 M209.26 263.451 Q215.07 263.451 218.125 268.058 Q221.204 272.641 221.204 281.391 Q221.204 290.118 218.125 294.724 Q215.07 299.307 209.26 299.307 Q203.449 299.307 200.371 294.724 Q197.315 290.118 197.315 281.391 Q197.315 272.641 200.371 268.058 Q203.449 263.451 209.26 263.451 Z" fill="#000000" fill-rule="evenodd" fill-opacity="1" /><path clip-path="url(#clip350)" d="M64.0042 906.863 L16.4842 925.005 L16.4842 918.289 L56.4926 903.234 L16.4842 888.147 L16.4842 881.463 L64.0042 899.574 L64.0042 906.863 Z" fill="#000000" fill-rule="evenodd" fill-opacity="1" /><path clip-path="url(#clip350)" d="M44.7161 849.348 L47.5806 849.348 L47.5806 876.275 Q53.6281 875.893 56.8109 872.647 Q59.9619 869.369 59.9619 863.544 Q59.9619 860.17 59.1344 857.019 Q58.3069 853.836 56.6518 850.717 L62.1899 850.717 Q63.5267 853.868 64.227 857.178 Q64.9272 860.488 64.9272 863.894 Q64.9272 872.424 59.9619 877.421 Q54.9967 882.386 46.5303 882.386 Q37.7774 882.386 32.6531 877.676 Q27.4968 872.933 27.4968 864.913 Q27.4968 857.719 32.1438 853.55 Q36.7589 849.348 44.7161 849.348 M42.9973 855.205 Q38.1912 855.269 35.3266 857.91 Q32.4621 860.52 32.4621 864.849 Q32.4621 869.751 35.2312 872.711 Q38.0002 875.639 43.0292 876.084 L42.9973 855.205 Z" fill="#000000" fill-rule="evenodd" fill-opacity="1" /><path clip-path="url(#clip350)" d="M14.479 839.736 L14.479 833.88 L64.0042 833.88 L64.0042 839.736 L14.479 839.736 Z" fill="#000000" fill-rule="evenodd" fill-opacity="1" /><path clip-path="url(#clip350)" d="M55.9197 820.798 L55.9197 814.082 L64.0042 814.082 L64.0042 820.798 L55.9197 820.798 Z" fill="#000000" fill-rule="evenodd" fill-opacity="1" /><path clip-path="url(#clip350)" d="M14.479 780.726 L14.479 767.231 L19.0304 767.231 L19.0304 774.87 L68.0464 774.87 L68.0464 767.231 L72.5979 767.231 L72.5979 780.726 L14.479 780.726 Z" fill="#000000" fill-rule="evenodd" fill-opacity="1" /><path clip-path="url(#clip350)" d="M35.1993 727 Q31.2526 724.803 29.3747 721.748 Q27.4968 718.692 27.4968 714.555 Q27.4968 708.985 31.4117 705.961 Q35.2948 702.937 42.4881 702.937 L64.0042 702.937 L64.0042 708.825 L42.679 708.825 Q37.5546 708.825 35.072 710.64 Q32.5894 712.454 32.5894 716.178 Q32.5894 720.729 35.6131 723.371 Q38.6368 726.013 43.8567 726.013 L64.0042 726.013 L64.0042 731.901 L42.679 731.901 Q37.5228 731.901 35.072 733.715 Q32.5894 735.53 32.5894 739.317 Q32.5894 743.805 35.6449 746.447 Q38.6686 749.089 43.8567 749.089 L64.0042 749.089 L64.0042 754.977 L28.3562 754.977 L28.3562 749.089 L33.8944 749.089 Q30.616 747.083 29.0564 744.282 Q27.4968 741.482 27.4968 737.63 Q27.4968 733.747 29.4702 731.042 Q31.4436 728.305 35.1993 727 Z" fill="#000000" fill-rule="evenodd" fill-opacity="1" /><path clip-path="url(#clip350)" d="M16.4842 680.848 L16.4842 675.437 L70.0516 691.988 L70.0516 697.399 L16.4842 680.848 Z" fill="#000000" fill-rule="evenodd" fill-opacity="1" /><path clip-path="url(#clip350)" d="M29.4065 646.569 L34.9447 646.569 Q33.6716 649.051 33.035 651.725 Q32.3984 654.399 32.3984 657.263 Q32.3984 661.624 33.7352 663.82 Q35.072 665.984 37.7456 665.984 Q39.7826 665.984 40.9603 664.425 Q42.1061 662.865 43.1565 658.154 L43.6021 656.149 Q44.9389 649.911 47.3897 647.301 Q49.8086 644.659 54.1691 644.659 Q59.1344 644.659 62.0308 648.606 Q64.9272 652.521 64.9272 659.396 Q64.9272 662.26 64.3543 665.38 Q63.8132 668.467 62.6992 671.904 L56.6518 671.904 Q58.3387 668.658 59.198 665.507 Q60.0256 662.356 60.0256 659.268 Q60.0256 655.131 58.6251 652.903 Q57.1929 650.675 54.6147 650.675 Q52.2276 650.675 50.9545 652.298 Q49.6813 653.889 48.5037 659.332 L48.0262 661.369 Q46.8804 666.812 44.5251 669.231 Q42.138 671.65 38.0002 671.65 Q32.9713 671.65 30.2341 668.085 Q27.4968 664.52 27.4968 657.963 Q27.4968 654.717 27.9743 651.852 Q28.4517 648.988 29.4065 646.569 Z" fill="#000000" fill-rule="evenodd" fill-opacity="1" /><path clip-path="url(#clip350)" d="M14.479 621.647 L72.5979 621.647 L72.5979 635.142 L68.0464 635.142 L68.0464 627.535 L19.0304 627.535 L19.0304 635.142 L14.479 635.142 L14.479 621.647 Z" fill="#000000" fill-rule="evenodd" fill-opacity="1" /><path clip-path="url(#clip350)" d="M1166.9 72.576 L1143.81 12.096 L1152.36 12.096 L1171.52 63.0159 L1190.72 12.096 L1199.23 12.096 L1176.18 72.576 L1166.9 72.576 Z" fill="#000000" fill-rule="evenodd" fill-opacity="1" /><path clip-path="url(#clip350)" d="M1240.1 48.0275 L1240.1 51.6733 L1205.83 51.6733 Q1206.32 59.3701 1210.45 63.421 Q1214.62 67.4314 1222.04 67.4314 Q1226.33 67.4314 1230.34 66.3781 Q1234.39 65.3249 1238.36 63.2184 L1238.36 70.267 Q1234.35 71.9684 1230.14 72.8596 Q1225.93 73.7508 1221.59 73.7508 Q1210.74 73.7508 1204.38 67.4314 Q1198.06 61.1119 1198.06 50.3365 Q1198.06 39.1965 1204.05 32.6746 Q1210.09 26.1121 1220.3 26.1121 Q1229.45 26.1121 1234.76 32.0264 Q1240.1 37.9003 1240.1 48.0275 M1232.65 45.84 Q1232.57 39.7232 1229.21 36.0774 Q1225.89 32.4315 1220.38 32.4315 Q1214.14 32.4315 1210.37 35.9558 Q1206.64 39.4801 1206.08 45.8805 L1232.65 45.84 Z" fill="#000000" fill-rule="evenodd" fill-opacity="1" /><path clip-path="url(#clip350)" d="M1252.34 9.54393 L1259.79 9.54393 L1259.79 72.576 L1252.34 72.576 L1252.34 9.54393 Z" fill="#000000" fill-rule="evenodd" fill-opacity="1" /><path clip-path="url(#clip350)" d="M1292.97 32.4315 Q1286.97 32.4315 1283.49 37.1306 Q1280.01 41.7891 1280.01 49.9314 Q1280.01 58.0738 1283.45 62.7728 Q1286.93 67.4314 1292.97 67.4314 Q1298.92 67.4314 1302.41 62.7323 Q1305.89 58.0333 1305.89 49.9314 Q1305.89 41.8701 1302.41 37.1711 Q1298.92 32.4315 1292.97 32.4315 M1292.97 26.1121 Q1302.69 26.1121 1308.24 32.4315 Q1313.79 38.7509 1313.79 49.9314 Q1313.79 61.0714 1308.24 67.4314 Q1302.69 73.7508 1292.97 73.7508 Q1283.21 73.7508 1277.66 67.4314 Q1272.15 61.0714 1272.15 49.9314 Q1272.15 38.7509 1277.66 32.4315 Q1283.21 26.1121 1292.97 26.1121 Z" fill="#000000" fill-rule="evenodd" fill-opacity="1" /><path clip-path="url(#clip350)" d="M1358.8 28.9478 L1358.8 35.9153 Q1355.64 34.1734 1352.44 33.3227 Q1349.28 32.4315 1346.04 32.4315 Q1338.78 32.4315 1334.77 37.0496 Q1330.76 41.6271 1330.76 49.9314 Q1330.76 58.2358 1334.77 62.8538 Q1338.78 67.4314 1346.04 67.4314 Q1349.28 67.4314 1352.44 66.5807 Q1355.64 65.6895 1358.8 63.9476 L1358.8 70.8341 Q1355.68 72.2924 1352.31 73.0216 Q1348.99 73.7508 1345.23 73.7508 Q1334.98 73.7508 1328.94 67.3098 Q1322.91 60.8689 1322.91 49.9314 Q1322.91 38.832 1328.98 32.472 Q1335.1 26.1121 1345.71 26.1121 Q1349.16 26.1121 1352.44 26.8413 Q1355.72 27.5299 1358.8 28.9478 Z" fill="#000000" fill-rule="evenodd" fill-opacity="1" /><path clip-path="url(#clip350)" d="M1371.76 27.2059 L1379.21 27.2059 L1379.21 72.576 L1371.76 72.576 L1371.76 27.2059 M1371.76 9.54393 L1379.21 9.54393 L1379.21 18.9825 L1371.76 18.9825 L1371.76 9.54393 Z" fill="#000000" fill-rule="evenodd" fill-opacity="1" /><path clip-path="url(#clip350)" d="M1402.18 14.324 L1402.18 27.2059 L1417.53 27.2059 L1417.53 32.9987 L1402.18 32.9987 L1402.18 57.6282 Q1402.18 63.1779 1403.68 64.7578 Q1405.22 66.3376 1409.88 66.3376 L1417.53 66.3376 L1417.53 72.576 L1409.88 72.576 Q1401.25 72.576 1397.97 69.3758 Q1394.69 66.1351 1394.69 57.6282 L1394.69 32.9987 L1389.22 32.9987 L1389.22 27.2059 L1394.69 27.2059 L1394.69 14.324 L1402.18 14.324 Z" fill="#000000" fill-rule="evenodd" fill-opacity="1" /><path clip-path="url(#clip350)" d="M1446.21 76.7889 Q1443.06 84.8907 1440.06 87.3618 Q1437.06 89.8329 1432.04 89.8329 L1426.08 89.8329 L1426.08 83.5945 L1430.46 83.5945 Q1433.54 83.5945 1435.24 82.1361 Q1436.94 80.6778 1439 75.2496 L1440.34 71.8468 L1421.99 27.2059 L1429.89 27.2059 L1444.07 62.6918 L1458.25 27.2059 L1466.15 27.2059 L1446.21 76.7889 Z" fill="#000000" fill-rule="evenodd" fill-opacity="1" /><polyline clip-path="url(#clip352)" style="stroke:#009af9; stroke-linecap:butt; stroke-linejoin:round; stroke-width:4; stroke-opacity:1; fill:none" points="
  316.512,706.444 317.189,706.439 317.866,706.434 318.543,706.425 319.219,706.411 319.896,706.399 320.573,706.387 321.25,706.377 321.927,706.365 322.603,706.352 
  323.28,706.336 323.957,706.323 324.634,706.31 325.311,706.297 325.987,706.284 326.664,706.274 327.341,706.266 328.018,706.257 328.695,706.246 329.371,706.237 
  330.048,706.228 330.725,706.222 331.402,706.22 332.079,706.215 332.756,706.202 333.432,706.186 334.109,706.17 334.786,706.151 335.463,706.139 336.14,706.129 
  336.816,706.122 337.493,706.109 338.17,706.088 338.847,706.066 339.524,706.038 340.2,706.012 340.877,705.989 341.554,705.97 342.231,705.949 342.908,705.926 
  343.584,705.904 344.261,705.874 344.938,705.841 345.615,705.817 346.292,705.797 346.969,705.775 347.645,705.759 348.322,705.746 348.999,705.731 349.676,705.714 
  350.353,705.691 351.029,705.668 351.706,705.639 352.383,705.61 353.06,705.584 353.737,705.56 354.413,705.531 355.09,705.501 355.767,705.47 356.444,705.436 
  357.121,705.403 357.797,705.371 358.474,705.347 359.151,705.324 359.828,705.302 360.505,705.275 361.182,705.248 361.858,705.216 362.535,705.186 363.212,705.158 
  363.889,705.131 364.566,705.102 365.242,705.076 365.919,705.047 366.596,705.015 367.273,704.988 367.95,704.956 368.626,704.924 369.303,704.893 369.98,704.864 
  370.657,704.834 371.334,704.808 372.01,704.784 372.687,704.761 373.364,704.736 374.041,704.705 374.718,704.678 375.394,704.653 376.071,704.627 376.748,704.602 
  377.425,704.581 378.102,704.561 378.779,704.54 379.455,704.52 380.132,704.495 380.809,704.47 381.486,704.443 382.163,704.415 382.839,704.388 383.516,704.364 
  384.193,704.343 384.87,704.324 385.547,704.305 386.223,704.285 386.9,704.264 387.577,704.238 388.254,704.209 388.931,704.181 389.607,704.158 390.284,704.137 
  390.961,704.113 391.638,704.092 392.315,704.071 392.992,704.05 393.668,704.032 394.345,704.013 395.022,703.994 395.699,703.98 396.376,703.964 397.052,703.944 
  397.729,703.922 398.406,703.902 399.083,703.886 399.76,703.868 400.436,703.852 401.113,703.831 401.79,703.809 402.467,703.788 403.144,703.769 403.82,703.751 
  404.497,703.735 405.174,703.714 405.851,703.69 406.528,703.667 407.205,703.646 407.881,703.631 408.558,703.621 409.235,703.611 409.912,703.599 410.589,703.583 
  411.265,703.566 411.942,703.547 412.619,703.535 413.296,703.521 413.973,703.503 414.649,703.483 415.326,703.462 416.003,703.443 416.68,703.423 417.357,703.407 
  418.033,703.392 418.71,703.376 419.387,703.361 420.064,703.345 420.741,703.327 421.417,703.314 422.094,703.304 422.771,703.301 423.448,703.299 424.125,703.294 
  424.802,703.29 425.478,703.283 426.155,703.275 426.832,703.265 427.509,703.257 428.186,703.249 428.862,703.244 429.539,703.241 430.216,703.24 430.893,703.241 
  431.57,703.241 432.246,703.239 432.923,703.238 433.6,703.235 434.277,703.232 434.954,703.233 435.63,703.236 436.307,703.24 436.984,703.247 437.661,703.257 
  438.338,703.266 439.015,703.275 439.691,703.285 440.368,703.291 441.045,703.295 441.722,703.301 442.399,703.308 443.075,703.315 443.752,703.325 444.429,703.332 
  445.106,703.331 445.783,703.327 446.459,703.322 447.136,703.321 447.813,703.32 448.49,703.323 449.167,703.329 449.843,703.335 450.52,703.341 451.197,703.345 
  451.874,703.347 452.551,703.343 453.228,703.344 453.904,703.342 454.581,703.341 455.258,703.344 455.935,703.35 456.612,703.356 457.288,703.36 457.965,703.362 
  458.642,703.361 459.319,703.361 459.996,703.363 460.672,703.367 461.349,703.369 462.026,703.372 462.703,703.376 463.38,703.375 464.056,703.372 464.733,703.37 
  465.41,703.368 466.087,703.371 466.764,703.374 467.44,703.381 468.117,703.385 468.794,703.384 469.471,703.384 470.148,703.386 470.825,703.388 471.501,703.396 
  472.178,703.407 472.855,703.418 473.708,703.429 474.385,703.432 475.062,703.43 475.739,703.432 476.416,703.431 477.092,703.43 477.769,703.428 478.446,703.431 
  479.123,703.439 479.8,703.449 480.476,703.456 481.153,703.464 481.83,703.47 482.507,703.476 483.184,703.483 483.86,703.498 484.537,703.517 485.214,703.535 
  485.891,703.552 486.568,703.57 487.244,703.587 487.921,703.603 488.598,703.613 489.275,703.621 489.952,703.629 490.628,703.638 491.305,703.649 491.982,703.665 
  492.659,703.682 493.336,703.699 494.013,703.713 494.689,703.728 495.366,703.745 496.043,703.761 496.72,703.779 497.397,703.795 498.073,703.812 498.75,703.83 
  499.427,703.843 500.104,703.854 500.781,703.86 501.457,703.865 502.134,703.874 502.811,703.883 503.488,703.896 504.165,703.911 504.841,703.926 505.518,703.939 
  506.195,703.952 506.872,703.963 507.549,703.98 508.225,703.999 508.902,704.013 509.579,704.027 510.256,704.041 510.933,704.054 511.61,704.065 512.286,704.077 
  512.963,704.088 513.64,704.098 514.317,704.107 514.994,704.115 515.67,704.124 516.347,704.139 517.024,704.158 517.701,704.177 518.378,704.201 519.054,704.227 
  519.731,704.254 520.408,704.286 521.085,704.321 521.762,704.357 522.438,704.389 523.115,704.42 523.792,704.452 524.469,704.483 525.146,704.509 525.822,704.53 
  526.499,704.551 527.176,704.574 527.853,704.595 528.53,704.617 529.207,704.643 529.883,704.664 530.56,704.681 531.237,704.697 531.914,704.715 532.591,704.738 
  533.267,704.766 533.944,704.796 534.621,704.823 535.298,704.846 535.798,704.863 536.475,704.882 537.152,704.897 537.829,704.909 538.505,704.918 539.182,704.928 
  539.859,704.939 540.536,704.945 541.213,704.945 541.889,704.943 542.566,704.941 543.243,704.941 543.92,704.939 544.597,704.934 545.273,704.932 545.95,704.928 
  546.627,704.926 547.304,704.932 547.981,704.936 548.657,704.94 549.334,704.939 550.011,704.929 550.688,704.917 551.365,704.901 552.041,704.892 552.718,704.887 
  553.395,704.89 554.072,704.895 554.749,704.895 555.426,704.893 556.102,704.887 556.779,704.872 557.456,704.858 558.133,704.846 558.81,704.837 559.486,704.837 
  560.163,704.838 560.84,704.841 561.517,704.845 562.194,704.846 562.87,704.849 563.547,704.851 564.224,704.858 564.901,704.863 565.578,704.867 566.254,704.868 
  566.931,704.868 567.608,704.867 568.285,704.871 568.962,704.877 569.639,704.884 570.315,704.888 570.992,704.891 571.669,704.89 572.346,704.888 573.023,704.889 
  573.699,704.889 574.376,704.888 575.053,704.89 575.73,704.894 576.407,704.899 577.083,704.903 577.76,704.904 578.437,704.904 579.114,704.904 579.791,704.901 
  580.467,704.897 581.144,704.893 581.821,704.893 582.498,704.897 583.175,704.907 583.851,704.922 584.528,704.937 585.205,704.946 585.882,704.954 586.559,704.958 
  587.235,704.962 587.912,704.97 588.589,704.98 589.266,704.989 589.943,704.996 590.62,705.006 591.296,705.014 591.973,705.022 592.65,705.028 593.327,705.029 
  594.004,705.029 594.68,705.031 595.357,705.038 596.034,705.05 596.711,705.06 597.388,705.072 598.064,705.083 598.741,705.091 599.418,705.097 600.095,705.108 
  600.772,705.118 601.448,705.13 602.125,705.141 602.802,705.153 603.479,705.17 604.156,705.188 604.832,705.202 605.509,705.215 606.186,705.226 606.863,705.237 
  607.54,705.252 608.217,705.263 608.893,705.279 609.57,705.296 610.247,705.309 610.924,705.318 611.601,705.327 612.277,705.334 612.954,705.339 613.631,705.345 
  614.308,705.351 614.985,705.357 615.661,705.364 616.338,705.374 617.015,705.383 617.692,705.388 618.369,705.391 619.045,705.395 619.722,705.397 620.399,705.401 
  621.076,705.408 621.753,705.411 622.429,705.417 623.106,705.419 623.783,705.422 624.46,705.421 625.137,705.424 625.814,705.426 626.49,705.431 627.344,705.437 
  628.02,705.441 628.697,705.445 629.374,705.453 630.051,705.464 630.728,705.475 631.404,705.482 632.081,705.493 632.758,705.508 633.435,705.527 634.112,705.548 
  634.789,705.572 635.465,705.593 636.142,705.615 636.819,705.641 637.496,705.665 638.173,705.688 638.849,705.716 639.526,705.748 640.203,705.78 640.88,705.812 
  641.557,705.843 642.233,705.871 642.91,705.897 643.587,705.925 644.264,705.953 644.941,705.983 645.617,706.017 646.294,706.054 646.971,706.088 647.648,706.12 
  648.325,706.151 649.001,706.18 649.678,706.208 650.355,706.24 651.032,706.273 651.709,706.31 652.386,706.351 653.062,706.388 653.739,706.423 654.416,706.456 
  655.093,706.487 655.77,706.522 656.446,706.559 657.123,706.595 657.8,706.631 658.477,706.672 659.154,706.713 659.83,706.753 660.507,706.793 661.184,706.834 
  661.861,706.877 662.538,706.923 663.214,706.964 663.891,707.008 664.568,707.063 665.245,707.116 665.922,707.167 666.598,707.225 667.275,707.282 667.952,707.337 
  668.629,707.388 669.306,707.441 669.982,707.495 670.659,707.545 671.336,707.592 672.013,707.649 672.69,707.699 673.367,707.744 674.043,707.793 674.72,707.843 
  675.397,707.883 676.074,707.928 676.751,707.983 677.427,708.032 678.104,708.07 678.781,708.118 679.458,708.173 680.135,708.227 680.811,708.282 681.488,708.347 
  682.165,708.408 682.842,708.464 683.519,708.516 684.195,708.571 684.872,708.623 685.549,708.666 686.226,708.716 686.903,708.766 687.579,708.813 688.256,708.86 
  688.933,708.908 689.433,708.945 690.11,708.983 690.787,709.012 691.464,709.031 692.141,709.053 692.817,709.077 693.494,709.102 694.171,709.133 694.848,709.162 
  695.525,709.193 696.201,709.225 696.878,709.262 697.555,709.297 698.232,709.33 698.909,709.359 699.585,709.385 700.262,709.41 700.939,709.436 701.616,709.459 
  702.293,709.482 702.969,709.509 703.646,709.538 704.323,709.568 705,709.597 705.677,709.623 706.354,709.645 707.03,709.664 707.707,709.688 708.384,709.716 
  709.061,709.744 709.738,709.773 710.414,709.804 711.091,709.829 711.768,709.85 712.445,709.866 713.122,709.886 713.798,709.909 714.475,709.932 715.152,709.957 
  715.829,709.991 716.506,710.028 717.182,710.063 717.859,710.099 718.536,710.134 719.213,710.165 719.89,710.192 720.566,710.222 721.243,710.256 721.92,710.291 
  722.597,710.328 723.274,710.366 723.95,710.403 724.627,710.439 725.304,710.473 725.981,710.506 726.658,710.535 727.335,710.548 728.011,710.542 728.688,710.505 
  729.365,710.418 730.042,710.262 730.719,710.021 731.395,709.664 732.072,709.176 732.749,708.536 733.426,707.729 734.103,706.742 734.779,705.565 735.456,704.199 
  736.133,702.644 736.81,700.888 737.487,698.938 738.163,696.79 738.84,694.438 739.517,691.866 740.194,689.068 740.871,686.041 741.547,682.78 742.224,679.287 
  742.901,675.561 743.578,671.61 744.255,667.44 744.931,663.056 745.608,658.46 746.285,653.662 746.962,648.68 747.639,643.524 748.315,638.204 748.992,632.731 
  749.669,627.123 750.346,621.396 751.023,615.542 751.7,609.578 752.376,603.502 753.053,597.328 753.73,591.063 754.407,584.714 755.084,578.294 755.76,571.803 
  756.437,565.247 757.114,558.631 757.791,551.957 758.468,545.228 759.144,538.45 759.821,531.618 760.498,524.743 761.175,517.837 761.852,510.893 762.528,503.915 
  763.205,496.907 763.882,489.865 764.559,482.795 765.236,475.699 765.912,468.575 766.589,461.423 767.266,454.247 767.943,447.049 768.62,439.836 769.296,432.585 
  769.973,425.311 770.65,418.038 771.327,410.744 772.004,403.446 772.681,396.154 773.357,388.861 774.034,381.58 774.711,374.328 775.388,367.115 776.065,359.942 
  776.741,352.823 777.418,345.78 778.095,338.823 778.772,331.955 779.449,325.17 780.125,318.466 780.802,311.86 781.479,305.366 782.156,299.003 782.833,292.765 
  783.509,286.665 784.186,280.706 784.863,274.89 785.54,269.231 786.217,263.716 786.893,258.358 787.57,253.173 788.247,248.168 788.924,243.331 789.601,238.667 
  790.277,234.176 790.954,229.865 791.631,225.714 792.308,221.733 792.985,217.92 793.661,214.277 794.338,210.803 795.015,207.496 795.692,204.354 796.369,201.397 
  797.045,198.618 797.722,195.991 798.399,193.52 799.076,191.213 799.753,189.052 800.43,187.018 801.106,185.102 801.783,183.315 802.46,181.651 803.137,180.087 
  803.814,178.611 804.49,177.228 805.167,175.958 805.844,174.775 806.521,173.651 807.198,172.614 807.874,171.661 808.551,170.766 809.228,169.928 809.905,169.159 
  810.582,168.449 811.258,167.767 811.935,167.15 812.612,166.587 813.289,166.058 813.966,165.557 814.642,165.097 815.319,164.672 815.996,164.284 816.673,163.928 
  817.35,163.592 818.026,163.281 818.703,162.993 819.38,162.739 820.057,162.509 820.734,162.278 821.41,162.057 822.087,161.849 822.764,161.662 823.441,161.501 
  824.118,161.364 824.795,161.242 825.471,161.123 826.148,160.987 826.825,160.852 827.502,160.75 828.179,160.685 828.855,160.63 829.532,160.57 830.209,160.514 
  830.886,160.469 831.563,160.42 832.239,160.368 832.916,160.323 833.593,160.305 834.27,160.282 834.947,160.256 835.623,160.262 836.3,160.291 836.977,160.308 
  837.654,160.312 838.331,160.311 839.007,160.311 839.684,160.318 840.361,160.328 841.038,160.343 841.715,160.375 842.391,160.42 843.068,160.458 843.745,160.486 
  844.422,160.51 845.099,160.527 845.775,160.527 846.452,160.537 847.129,160.58 847.806,160.636 848.483,160.656 849.159,160.659 849.836,160.683 850.513,160.733 
  851.19,160.774 851.867,160.8 852.544,160.829 853.22,160.862 853.897,160.901 854.574,160.938 855.251,160.981 855.928,161.032 856.604,161.072 857.281,161.096 
  857.958,161.098 858.635,161.113 859.312,161.149 859.988,161.199 860.665,161.236 861.342,161.275 862.019,161.31 862.696,161.335 863.372,161.342 864.049,161.371 
  864.726,161.415 865.403,161.455 866.08,161.489 866.756,161.525 867.433,161.563 868.11,161.603 868.787,161.636 869.464,161.678 870.14,161.729 870.817,161.782 
  871.494,161.821 872.171,161.857 872.848,161.908 873.524,161.975 874.201,162.038 874.878,162.078 875.555,162.117 876.232,162.153 876.908,162.195 877.585,162.24 
  878.262,162.286 878.939,162.337 879.616,162.388 880.292,162.431 880.969,162.455 881.646,162.5 882.323,162.567 883,162.638 883.677,162.702 884.353,162.752 
  885.03,162.799 885.707,162.857 886.384,162.928 887.061,162.987 887.737,163.045 888.414,163.117 889.091,163.192 889.768,163.256 890.445,163.326 891.121,163.398 
  891.798,163.477 892.475,163.543 893.152,163.609 893.829,163.663 894.505,163.687 895.182,163.708 895.859,163.763 896.536,163.829 897.213,163.873 897.889,163.912 
  898.566,163.966 899.243,164.016 899.92,164.057 900.597,164.076 901.273,164.114 901.95,164.175 902.627,164.23 903.304,164.267 903.981,164.307 904.657,164.361 
  905.334,164.408 906.011,164.425 906.688,164.443 907.365,164.479 908.041,164.521 908.718,164.551 909.395,164.586 910.072,164.637 910.749,164.687 911.425,164.721 
  912.102,164.758 912.779,164.813 913.456,164.871 914.133,164.912 914.809,164.955 915.486,165.009 916.163,165.065 916.84,165.111 917.517,165.141 918.194,165.184 
  918.87,165.23 919.547,165.28 920.224,165.321 920.901,165.35 921.578,165.373 922.254,165.423 922.931,165.481 923.608,165.517 924.285,165.538 924.962,165.581 
  925.638,165.61 926.315,165.626 926.992,165.677 927.669,165.765 928.346,165.83 929.022,165.881 929.699,165.946 930.376,166 931.053,166.035 931.73,166.087 
  932.406,166.159 933.083,166.26 933.76,166.347 934.437,166.397 935.114,166.442 935.79,166.51 936.467,166.601 937.144,166.668 937.821,166.714 938.498,166.779 
  939.174,166.855 939.851,166.905 940.528,166.94 941.205,166.993 941.882,167.06 942.558,167.115 943.235,167.165 943.912,167.233 944.589,167.313 945.266,167.376 
  945.942,167.417 946.619,167.465 947.296,167.529 947.973,167.594 948.65,167.656 949.326,167.728 950.003,167.802 950.68,167.876 951.357,167.943 952.034,168.002 
  952.71,168.046 953.387,168.101 954.064,168.172 954.741,168.217 955.418,168.281 956.095,168.375 956.771,168.446 957.448,168.494 958.125,168.562 958.802,168.638 
  959.479,168.7 960.155,168.754 960.832,168.795 961.509,168.835 962.186,168.876 962.863,168.947 963.539,169.041 964.216,169.136 964.893,169.196 965.57,169.227 
  966.247,169.242 966.923,169.284 967.6,169.358 968.277,169.434 968.954,169.509 969.631,169.573 970.307,169.621 970.984,169.659 971.661,169.707 972.338,169.779 
  973.015,169.841 973.691,169.877 974.368,169.899 975.045,169.932 975.722,169.987 976.399,170.047 977.075,170.114 977.752,170.186 978.429,170.25 979.106,170.297 
  979.783,170.341 980.459,170.395 981.136,170.458 981.813,170.523 982.49,170.581 983.167,170.654 983.843,170.734 984.52,170.816 985.197,170.876 985.874,170.917 
  986.551,170.972 987.227,171.032 987.904,171.094 988.581,171.129 989.258,171.153 989.935,171.209 990.611,171.299 991.288,171.358 991.965,171.409 992.642,171.454 
  993.319,171.517 993.995,171.604 994.672,171.699 995.349,171.781 996.026,171.849 996.703,171.903 997.38,171.956 998.056,172.032 998.733,172.126 999.41,172.208 
  1000.09,172.26 1000.76,172.294 1001.44,172.344 1002.12,172.399 1002.79,172.47 1003.47,172.58 1004.15,172.676 1004.82,172.746 1005.5,172.808 1006.18,172.874 
  1006.85,172.948 1007.53,173.019 1008.21,173.096 1008.89,173.178 1009.56,173.27 1010.24,173.363 1010.92,173.444 1011.59,173.511 1012.27,173.587 1012.95,173.679 
  1013.62,173.764 1014.3,173.837 1014.98,173.916 1015.65,173.994 1016.33,174.067 1017.01,174.14 1017.68,174.224 1018.36,174.312 1019.04,174.391 1019.71,174.435 
  1020.39,174.473 1021.07,174.53 1021.74,174.596 1022.42,174.649 1023.1,174.711 1023.77,174.799 1024.45,174.901 1025.13,174.973 1025.81,175.034 1026.48,175.114 
  1027.16,175.197 1027.84,175.28 1028.51,175.337 1029.19,175.388 1029.87,175.468 1030.54,175.539 1031.22,175.589 1031.9,175.636 1032.57,175.695 1033.25,175.75 
  1033.93,175.79 1034.6,175.846 1035.28,175.936 1035.96,176.033 1036.63,176.118 1037.31,176.208 1037.99,176.294 1038.66,176.364 1039.34,176.42 1040.02,176.481 
  1040.69,176.564 1041.37,176.655 1042.05,176.74 1042.73,176.821 1043.4,176.906 1044.08,176.989 1044.76,177.054 1045.43,177.106 1046.11,177.171 1046.79,177.25 
  1047.46,177.318 1048.14,177.373 1048.82,177.439 1049.49,177.515 1050.17,177.593 1050.85,177.67 1051.52,177.742 1052.2,177.815 1052.88,177.888 1053.55,177.959 
  1054.23,178.03 1054.91,178.097 1055.58,178.16 1056.26,178.234 1056.94,178.311 1057.61,178.397 1058.29,178.488 1058.97,178.587 1059.65,178.681 1060.32,178.756 
  1061,178.791 1061.68,178.858 1062.35,178.951 1063.03,179.044 1063.71,179.127 1064.38,179.197 1065.06,179.278 1065.74,179.382 1066.41,179.486 1067.09,179.589 
  1067.77,179.686 1068.44,179.789 1069.12,179.889 1069.8,179.983 1070.47,180.065 1071.15,180.141 1071.83,180.23 1072.5,180.326 1073.18,180.419 1073.86,180.476 
  1074.53,180.54 1075.21,180.633 1075.89,180.731 1076.57,180.817 1077.24,180.909 1077.92,181.006 1078.6,181.105 1079.27,181.197 1079.95,181.292 1080.63,181.397 
  1081.3,181.493 1081.98,181.586 1082.66,181.673 1083.33,181.76 1084.01,181.845 1084.69,181.926 1085.36,182.003 1086.04,182.092 1086.72,182.17 1087.39,182.251 
  1088.07,182.354 1088.75,182.459 1089.42,182.549 1090.1,182.637 1090.78,182.741 1091.46,182.83 1092.13,182.901 1092.81,182.976 1093.49,183.054 1094.16,183.133 
  1094.84,183.205 1095.52,183.248 1096.19,183.289 1096.87,183.344 1097.55,183.406 1098.22,183.473 1098.9,183.561 1099.58,183.681 1100.25,183.777 1100.93,183.833 
  1101.61,183.901 1102.28,183.999 1102.96,184.101 1103.64,184.196 1104.31,184.292 1104.99,184.382 1105.67,184.469 1106.34,184.551 1107.02,184.631 1107.7,184.707 
  1108.38,184.788 1109.05,184.882 1109.73,184.978 1110.41,185.068 1111.08,185.164 1111.76,185.248 1112.44,185.344 1113.11,185.456 1113.79,185.551 1114.47,185.629 
  1115.14,185.708 1115.82,185.782 1116.5,185.863 1117.17,185.964 1117.85,186.072 1118.53,186.164 1119.2,186.249 1119.88,186.333 1120.56,186.423 1121.23,186.51 
  1121.91,186.597 1122.59,186.702 1123.26,186.811 1123.94,186.908 1124.62,187.002 1125.3,187.096 1125.97,187.183 1126.65,187.267 1127.33,187.351 1128,187.431 
  1128.68,187.509 1129.36,187.594 1130.03,187.685 1130.71,187.773 1131.39,187.875 1132.06,187.998 1132.74,188.106 1133.42,188.21 1134.09,188.319 1134.77,188.433 
  1135.45,188.564 1136.12,188.682 1136.8,188.777 1137.48,188.888 1138.15,189.017 1138.83,189.139 1139.51,189.251 1140.18,189.359 1140.86,189.464 1141.54,189.565 
  1142.22,189.678 1142.89,189.786 1143.57,189.894 1144.25,190.001 1144.92,190.103 1145.6,190.209 1146.28,190.312 1146.95,190.407 1147.63,190.5 1148.31,190.598 
  1148.98,190.707 1149.66,190.813 1150.34,190.916 1151.01,191.029 1151.69,191.144 1152.37,191.25 1153.04,191.347 1153.72,191.45 1154.4,191.548 1155.07,191.646 
  1155.75,191.719 1156.43,191.789 1157.1,191.877 1157.78,191.972 1158.46,192.051 1159.14,192.136 1159.81,192.234 1160.49,192.332 1161.17,192.411 1161.84,192.475 
  1162.52,192.545 1163.2,192.619 1163.87,192.687 1164.55,192.763 1165.23,192.854 1165.9,192.954 1166.58,193.045 1167.26,193.14 1167.93,193.239 1168.61,193.334 
  1169.29,193.43 1169.96,193.519 1170.64,193.616 1171.32,193.746 1171.99,193.858 1172.67,193.942 1173.35,194.047 1174.02,194.178 1174.7,194.3 1175.38,194.401 
  1176.06,194.475 1176.73,194.549 1177.41,194.641 1178.09,194.747 1178.76,194.864 1179.44,194.99 1180.12,195.132 1180.79,195.26 1181.47,195.335 1182.15,195.397 
  1182.82,195.49 1183.5,195.596 1184.18,195.704 1184.85,195.828 1185.53,195.945 1186.21,196.035 1186.88,196.12 1187.56,196.212 1188.24,196.324 1188.91,196.441 
  1189.59,196.549 1190.27,196.641 1190.94,196.728 1191.62,196.823 1192.3,196.923 1192.98,197.018 1193.65,197.128 1194.33,197.222 1195.01,197.319 1195.68,197.409 
  1196.36,197.516 1197.04,197.628 1197.71,197.74 1198.39,197.844 1199.07,197.957 1199.74,198.066 1200.42,198.183 1201.1,198.292 1201.77,198.398 1202.45,198.499 
  1203.13,198.6 1203.8,198.678 1204.48,198.771 1205.16,198.882 1205.83,198.984 1206.51,199.081 1207.19,199.223 1207.86,199.332 1208.54,199.415 1209.22,199.508 
  1209.9,199.62 1210.57,199.722 1211.25,199.835 1211.93,199.964 1212.6,200.059 1213.28,200.118 1213.96,200.212 1214.63,200.313 1215.31,200.417 1215.99,200.522 
  1216.66,200.638 1217.34,200.732 1218.02,200.806 1218.69,200.893 1219.37,201 1220.05,201.108 1220.72,201.219 1221.4,201.335 1222.08,201.451 1222.75,201.561 
  1223.43,201.658 1224.11,201.759 1224.78,201.874 1225.46,201.989 1226.14,202.093 1226.82,202.211 1227.49,202.334 1228.17,202.459 1228.85,202.573 1229.52,202.687 
  1230.2,202.795 1230.88,202.917 1231.55,203.019 1232.23,203.117 1232.91,203.219 1233.58,203.337 1234.26,203.448 1234.94,203.542 1235.61,203.63 1236.29,203.746 
  1236.97,203.867 1237.64,203.999 1238.32,204.12 1239,204.231 1239.67,204.33 1240.35,204.448 1241.03,204.588 1241.7,204.764 1242.38,204.947 1243.06,205.19 
  1243.74,205.473 1244.41,205.81 1245.09,206.216 1245.77,206.719 1246.44,207.304 1247.12,207.996 1247.8,208.808 1248.47,209.753 1249.15,210.823 1249.83,212.048 
  1250.5,213.462 1251.18,215.043 1251.86,216.764 1252.53,218.661 1253.21,220.74 1253.89,223.006 1254.56,225.491 1255.24,228.197 1255.92,231.091 1256.59,234.168 
  1257.27,237.43 1257.95,240.862 1258.63,244.466 1259.3,248.262 1259.98,252.225 1260.66,256.335 1261.33,260.586 1262.01,264.959 1262.69,269.442 1263.36,274.039 
  1264.04,278.724 1264.72,283.495 1265.39,288.354 1266.07,293.287 1266.75,298.286 1267.42,303.346 1268.1,308.467 1268.78,313.628 1269.45,318.844 1270.13,324.114 
  1270.81,329.417 1271.48,334.768 1272.16,340.148 1272.84,345.55 1273.51,351.004 1274.19,356.492 1274.87,362.006 1275.55,367.562 1276.22,373.139 1276.9,378.73 
  1277.58,384.343 1278.25,389.981 1278.93,395.632 1279.61,401.3 1280.28,406.985 1280.96,412.69 1281.64,418.417 1282.31,424.161 1282.99,429.912 1283.67,435.684 
  1284.34,441.479 1285.02,447.28 1285.7,453.082 1286.37,458.9 1287.05,464.724 1287.73,470.554 1288.4,476.398 1289.08,482.25 1289.76,488.102 1290.43,493.975 
  1291.11,499.865 1291.79,505.748 1292.47,511.641 1293.14,517.54 1293.82,523.441 1294.5,529.354 1295.17,535.286 1295.85,541.219 1296.53,547.14 1297.2,553.055 
  1297.88,558.976 1298.56,564.902 1299.23,570.843 1299.91,576.788 1300.59,582.732 1301.26,588.675 1301.94,594.618 1302.62,600.571 1303.29,606.523 1303.97,612.461 
  1304.65,618.371 1305.32,624.251 1306,630.091 1306.68,635.879 1307.35,641.6 1308.03,647.245 1308.71,652.787 1309.39,658.234 1310.06,663.573 1310.74,668.794 
  1311.42,673.886 1312.09,678.832 1312.77,683.625 1313.45,688.274 1314.12,692.744 1314.8,697.023 1315.48,701.126 1316.15,705.041 1316.83,708.786 1317.51,712.334 
  1318.18,715.696 1318.86,718.871 1319.54,721.862 1320.21,724.678 1320.89,727.342 1321.57,729.826 1322.24,732.134 1322.92,734.297 1323.6,736.321 1324.27,738.224 
  1324.95,740.006 1325.63,741.684 1326.31,743.257 1326.98,744.738 1327.66,746.125 1328.34,747.445 1329.01,748.725 1329.69,749.964 1330.37,751.175 1331.04,752.376 
  1331.72,753.543 1332.4,754.703 1333.07,755.861 1333.75,757.024 1334.43,758.167 1335.1,759.296 1335.78,760.412 1336.46,761.506 1337.13,762.571 1337.81,763.6 
  1338.49,764.599 1339.16,765.556 1339.84,766.466 1340.52,767.324 1341.19,768.139 1341.87,768.9 1342.55,769.609 1343.23,770.281 1343.9,770.92 1344.58,771.522 
  1345.26,772.093 1345.93,772.632 1346.61,773.147 1347.29,773.63 1347.96,774.093 1348.64,774.533 1349.32,774.953 1349.99,775.346 1350.67,775.73 1351.35,776.11 
  1352.02,776.46 1352.7,776.777 1353.38,777.081 1354.05,777.377 1354.73,777.667 1355.41,777.952 1356.08,778.227 1356.76,778.479 1357.44,778.715 1358.11,778.95 
  1358.79,779.186 1359.47,779.409 1360.15,779.624 1360.82,779.826 1361.5,780.031 1362.18,780.232 1362.85,780.422 1363.53,780.609 1364.21,780.793 1364.88,780.973 
  1365.56,781.147 1366.24,781.316 1366.91,781.481 1367.59,781.643 1368.27,781.801 1368.94,781.957 1369.62,782.107 1370.3,782.252 1370.97,782.406 1371.65,782.561 
  1372.33,782.712 1373,782.862 1373.68,783.008 1374.36,783.151 1375.03,783.294 1375.71,783.436 1376.39,783.578 1377.07,783.72 1377.74,783.861 1378.42,784.002 
  1379.1,784.14 1379.77,784.278 1380.45,784.419 1381.13,784.56 1381.8,784.697 1382.48,784.835 1383.16,784.973 1383.83,785.114 1384.51,785.252 1385.19,785.387 
  1385.86,785.522 1386.54,785.658 1387.22,785.788 1387.89,785.922 1388.57,786.051 1389.25,786.178 1389.92,786.303 1390.6,786.428 1391.28,786.553 1391.95,786.675 
  1392.63,786.799 1393.31,786.924 1393.99,787.05 1394.66,787.174 1395.34,787.299 1396.02,787.423 1396.69,787.548 1397.37,787.674 1398.05,787.798 1398.72,787.918 
  1399.4,788.04 1400.08,788.166 1400.75,788.295 1401.43,788.428 1402.11,788.559 1402.78,788.691 1403.46,788.824 1404.14,788.957 1404.81,789.088 1405.49,789.217 
  1406.17,789.353 1406.84,789.481 1407.52,789.609 1408.2,789.737 1408.87,789.865 1409.55,789.994 1410.23,790.127 1410.91,790.261 1411.58,790.398 1412.26,790.536 
  1412.94,790.671 1413.61,790.81 1414.29,790.946 1414.97,791.081 1415.64,791.218 1416.32,791.354 1417,791.482 1417.67,791.609 1418.35,791.742 1419.03,791.873 
  1419.7,792 1420.38,792.131 1421.06,792.263 1421.73,792.391 1422.41,792.514 1423.09,792.645 1423.76,792.774 1424.44,792.904 1425.12,793.038 1425.79,793.172 
  1426.47,793.306 1427.15,793.445 1427.83,793.585 1428.5,793.72 1429.18,793.856 1429.86,793.993 1430.53,794.125 1431.21,794.258 1431.89,794.393 1432.56,794.528 
  1433.24,794.664 1433.92,794.804 1434.59,794.944 1435.27,795.08 1435.95,795.217 1436.62,795.357 1437.3,795.493 1437.98,795.632 1438.65,795.772 1439.33,795.91 
  1440.01,796.054 1440.68,796.204 1441.36,796.349 1442.04,796.488 1442.71,796.626 1443.39,796.757 1444.07,796.889 1444.75,797.022 1445.42,797.156 1446.1,797.289 
  1446.78,797.421 1447.45,797.551 1448.13,797.682 1448.81,797.818 1449.48,797.952 1450.16,798.093 1450.84,798.232 1451.51,798.366 1452.19,798.499 1452.87,798.633 
  1453.54,798.763 1454.22,798.9 1454.9,799.035 1455.57,799.172 1456.25,799.309 1456.93,799.443 1457.6,799.58 1458.28,799.718 1458.96,799.855 1459.63,799.996 
  1460.31,800.137 1460.99,800.277 1461.67,800.415 1462.34,800.557 1463.02,800.694 1463.7,800.832 1464.37,800.972 1465.05,801.115 1465.73,801.254 1466.4,801.394 
  1467.08,801.532 1467.76,801.668 1468.43,801.804 1469.11,801.938 1469.79,802.073 1470.46,802.21 1471.14,802.348 1471.82,802.493 1472.49,802.628 1473.17,802.758 
  1473.85,802.899 1474.52,803.045 1475.2,803.198 1475.88,803.346 1476.55,803.485 1477.23,803.621 1477.91,803.773 1478.59,803.953 1479.26,804.169 1479.94,804.428 
  1480.62,804.741 1481.29,805.118 1481.97,805.571 1482.65,806.107 1483.32,806.75 1484,807.495 1484.68,808.359 1485.35,809.357 1486.03,810.519 1486.71,811.843 
  1487.38,813.356 1488.06,815.029 1488.74,816.889 1489.41,818.918 1490.09,821.133 1490.77,823.555 1491.44,826.181 1492.12,829.021 1492.8,832.063 1493.47,835.329 
  1494.15,838.824 1494.83,842.548 1495.51,846.491 1496.18,850.652 1496.86,855.021 1497.54,859.586 1498.21,864.349 1498.89,869.31 1499.57,874.459 1500.24,879.779 
  1500.92,885.267 1501.6,890.906 1502.27,896.686 1502.95,902.605 1503.63,908.646 1504.3,914.79 1504.98,921.036 1505.66,927.377 1506.33,933.806 1507.01,940.323 
  1507.69,946.925 1508.36,953.598 1509.04,960.331 1509.72,967.129 1510.39,973.994 1511.07,980.914 1511.75,987.862 1512.43,994.845 1513.1,1001.88 1513.78,1008.96 
  1514.46,1016.06 1515.13,1023.21 1515.81,1030.4 1516.49,1037.6 1517.16,1044.84 1517.84,1052.12 1518.52,1059.43 1519.19,1066.75 1519.87,1074.1 1520.55,1081.48 
  1521.22,1088.85 1521.9,1096.25 1522.58,1103.68 1523.25,1111.1 1523.93,1118.54 1524.61,1125.97 1525.28,1133.37 1525.96,1140.77 1526.64,1148.15 1527.31,1155.49 
  1527.99,1162.79 1528.67,1170.04 1529.35,1177.23 1530.02,1184.35 1530.7,1191.4 1531.38,1198.36 1532.05,1205.22 1532.73,1211.99 1533.41,1218.64 1534.08,1225.17 
  1534.76,1231.56 1535.44,1237.83 1536.11,1243.98 1536.79,1250 1537.47,1255.86 1538.14,1261.59 1538.82,1267.18 1539.5,1272.63 1540.17,1277.92 1540.85,1283.06 
  1541.53,1288.03 1542.2,1292.83 1542.88,1297.47 1543.56,1301.96 1544.23,1306.25 1544.91,1310.37 1545.59,1314.33 1546.26,1318.11 1546.94,1321.69 1547.62,1325.09 
  1548.3,1328.28 1548.97,1331.31 1549.65,1334.17 1550.33,1336.86 1551,1339.38 1551.68,1341.73 1552.36,1343.93 1553.03,1346 1553.71,1347.91 1554.39,1349.71 
  1555.06,1351.4 1555.74,1352.98 1556.42,1354.4 1557.09,1355.77 1557.77,1357.08 1558.45,1358.3 1559.12,1359.42 1559.8,1360.5 1560.48,1361.5 1561.15,1362.44 
  1561.83,1363.31 1562.51,1364.15 1563.18,1364.94 1563.86,1365.69 1564.54,1366.38 1565.22,1367.04 1565.89,1367.66 1566.57,1368.26 1567.25,1368.81 1567.92,1369.35 
  1568.6,1369.86 1569.28,1370.36 1569.95,1370.8 1570.63,1371.25 1571.31,1371.67 1571.98,1372.08 1572.66,1372.45 1573.34,1372.82 1574.01,1373.17 1574.69,1373.5 
  1575.37,1373.8 1576.04,1374.1 1576.72,1374.39 1577.4,1374.67 1578.07,1374.93 1578.75,1375.18 1579.43,1375.4 1580.1,1375.62 1580.78,1375.81 1581.46,1376 
  1582.14,1376.21 1582.81,1376.44 1583.49,1376.64 1584.17,1376.83 1584.84,1377.01 1585.52,1377.16 1586.2,1377.29 1586.87,1377.44 1587.55,1377.6 1588.23,1377.76 
  1588.9,1377.9 1589.58,1378.03 1590.26,1378.15 1590.93,1378.26 1591.61,1378.38 1592.29,1378.5 1592.96,1378.61 1593.64,1378.7 1594.32,1378.8 1594.99,1378.9 
  1595.67,1378.97 1596.35,1379.05 1597.02,1379.16 1597.7,1379.28 1598.38,1379.37 1599.06,1379.45 1599.73,1379.55 1600.41,1379.66 1601.09,1379.76 1601.76,1379.84 
  1602.44,1379.94 1603.12,1380.02 1603.79,1380.11 1604.47,1380.18 1605.15,1380.27 1605.82,1380.36 1606.5,1380.46 1607.18,1380.52 1607.85,1380.6 1608.53,1380.68 
  1609.21,1380.76 1609.88,1380.81 1610.56,1380.87 1611.24,1380.94 1611.91,1381.01 1612.59,1381.07 1613.27,1381.15 1613.94,1381.22 1614.62,1381.29 1615.3,1381.33 
  1615.98,1381.39 1616.65,1381.44 1617.33,1381.51 1618.01,1381.58 1618.68,1381.68 1619.36,1381.78 1620.04,1381.88 1620.71,1381.95 1621.39,1382.01 1622.07,1382.07 
  1622.74,1382.14 1623.42,1382.19 1624.1,1382.26 1624.77,1382.35 1625.45,1382.44 1626.13,1382.49 1626.8,1382.56 1627.48,1382.62 1628.16,1382.7 1628.83,1382.78 
  1629.51,1382.84 1630.19,1382.9 1630.86,1382.96 1631.54,1383.04 1632.22,1383.1 1632.9,1383.16 1633.57,1383.24 1634.25,1383.32 1634.93,1383.38 1635.6,1383.41 
  1636.28,1383.45 1636.96,1383.52 1637.63,1383.58 1638.31,1383.63 1638.99,1383.68 1639.66,1383.75 1640.34,1383.8 1641.02,1383.83 1641.69,1383.86 1642.37,1383.9 
  1643.05,1383.94 1643.72,1383.97 1644.4,1383.98 1645.08,1384.01 1645.75,1384.05 1646.43,1384.08 1647.11,1384.11 1647.78,1384.15 1648.46,1384.2 1649.14,1384.23 
  1649.82,1384.23 1650.49,1384.26 1651.17,1384.29 1651.85,1384.3 1652.52,1384.29 1653.2,1384.31 1653.88,1384.35 1654.55,1384.39 1655.23,1384.39 1655.91,1384.41 
  1656.58,1384.44 1657.26,1384.48 1657.94,1384.49 1658.61,1384.51 1659.29,1384.54 1659.97,1384.59 1660.64,1384.63 1661.32,1384.68 1662,1384.72 1662.67,1384.75 
  1663.35,1384.75 1664.03,1384.78 1664.7,1384.83 1665.38,1384.87 1666.06,1384.89 1666.74,1384.91 1667.41,1384.94 1668.09,1384.98 1668.77,1384.99 1669.44,1385 
  1670.12,1385 1670.8,1385.02 1671.47,1385.03 1672.15,1385.04 1672.83,1385.06 1673.5,1385.1 1674.18,1385.12 1674.86,1385.13 1675.53,1385.15 1676.21,1385.17 
  1676.89,1385.2 1677.56,1385.2 1678.24,1385.2 1678.92,1385.21 1679.59,1385.25 1680.27,1385.28 1680.95,1385.29 1681.62,1385.3 1682.3,1385.32 1682.98,1385.34 
  1683.66,1385.34 1684.51,1385.34 1685.19,1385.34 1685.86,1385.35 1686.54,1385.34 1687.22,1385.33 1687.89,1385.35 1688.57,1385.36 1689.25,1385.38 1689.92,1385.38 
  1690.6,1385.4 1691.28,1385.4 1691.95,1385.39 1692.63,1385.39 1693.31,1385.4 1693.98,1385.42 1694.66,1385.44 1695.34,1385.45 1696.01,1385.46 1696.69,1385.5 
  1697.37,1385.55 1698.04,1385.57 1698.72,1385.57 1699.4,1385.59 1700.07,1385.64 1700.75,1385.68 1701.43,1385.7 1702.11,1385.72 1702.78,1385.72 1703.46,1385.7 
  1704.14,1385.69 1704.81,1385.71 1705.49,1385.69 1706.17,1385.67 1706.84,1385.68 1707.52,1385.7 1708.2,1385.71 1708.87,1385.7 1709.55,1385.73 1710.23,1385.76 
  1710.9,1385.77 1711.58,1385.74 1712.26,1385.73 1712.93,1385.73 1713.61,1385.73 1714.29,1385.7 1714.96,1385.66 1715.64,1385.65 1716.32,1385.64 1716.99,1385.63 
  1717.67,1385.6 1718.35,1385.61 1719.02,1385.62 1719.7,1385.65 1720.38,1385.65 1721.06,1385.64 1721.73,1385.63 1722.41,1385.66 1723.09,1385.68 1723.76,1385.69 
  1724.44,1385.68 1725.12,1385.66 1725.79,1385.65 1726.47,1385.67 1727.15,1385.68 1727.82,1385.69 1728.5,1385.69 1729.18,1385.71 1729.85,1385.72 1730.53,1385.75 
  1731.21,1385.76 1731.88,1385.76 1732.56,1385.77 1733.24,1385.81 1733.91,1385.83 1734.59,1385.84 1735.27,1385.83 1735.94,1385.83 1736.62,1385.84 1737.3,1385.85 
  1737.98,1385.85 1738.65,1385.86 1739.33,1385.86 1740.01,1385.86 1740.68,1385.86 1741.36,1385.88 1742.04,1385.89 1742.71,1385.88 1743.39,1385.85 1744.07,1385.83 
  1744.74,1385.84 1745.42,1385.85 1746.1,1385.84 1746.6,1385.84 1747.27,1385.85 1747.95,1385.89 1748.63,1385.95 1749.3,1386.02 1749.98,1386.1 1750.66,1386.15 
  1751.33,1386.17 1752.01,1386.2 1752.69,1386.23 1753.37,1386.26 1754.04,1386.3 1754.72,1386.33 1755.4,1386.36 1756.07,1386.38 1756.75,1386.39 1757.43,1386.39 
  1758.1,1386.39 1758.78,1386.4 1759.46,1386.39 1760.13,1386.36 1760.81,1386.34 1761.49,1386.35 1762.16,1386.35 1762.84,1386.35 1763.52,1386.35 1764.19,1386.36 
  1764.87,1386.36 1765.55,1386.32 1766.22,1386.29 1766.9,1386.27 1767.58,1386.24 1768.25,1386.2 1768.93,1386.18 1769.61,1386.16 1770.29,1386.14 1770.96,1386.08 
  1771.64,1386.05 1772.32,1386.04 1772.99,1386.04 1773.67,1386 1774.35,1385.97 1775.02,1385.97 1775.7,1385.98 1776.38,1385.92 1777.05,1385.85 1777.73,1385.81 
  1778.41,1385.8 1779.08,1385.75 1779.76,1385.67 1780.44,1385.63 1781.11,1385.63 1781.79,1385.59 1782.47,1385.51 1783.14,1385.45 1783.82,1385.43 1784.5,1385.38 
  1785.17,1385.3 1785.85,1385.24 1786.53,1385.24 1787.21,1385.21 1787.88,1385.14 1788.56,1385.08 1789.24,1385.05 1789.91,1385.02 1790.59,1384.92 1791.27,1384.83 
  1791.94,1384.79 1792.62,1384.76 1793.3,1384.7 1793.97,1384.63 1794.65,1384.59 1795.33,1384.56 1796,1384.48 1796.68,1384.41 1797.36,1384.36 1798.03,1384.32 
  1798.71,1384.23 1799.39,1384.14 1800.06,1384.09 1800.74,1384.08 1801.42,1384.04 1802.09,1383.97 1802.77,1383.93 1803.45,1383.9 1804.12,1383.87 1804.8,1383.81 
  1805.48,1383.76 1806.16,1383.73 1806.83,1383.67 1807.51,1383.59 1808.19,1383.52 1808.86,1383.44 1809.54,1383.38 1810.22,1383.32 1810.89,1383.25 1811.57,1383.18 
  1812.25,1383.1 1812.92,1383.02 1813.6,1382.93 1814.28,1382.85 1814.95,1382.8 1815.63,1382.76 1816.31,1382.68 1816.98,1382.59 1817.66,1382.53 1818.34,1382.48 
  1819.01,1382.41 1819.69,1382.33 1820.37,1382.27 1821.04,1382.23 1821.72,1382.16 1822.4,1382.06 1823.08,1382 1823.75,1381.95 1824.43,1381.86 1825.11,1381.76 
  1825.78,1381.68 1826.46,1381.61 1827.14,1381.52 1827.81,1381.42 1828.49,1381.35 1829.17,1381.3 1829.84,1381.25 1830.52,1381.16 1831.2,1381.02 1831.87,1380.92 
  1832.55,1380.87 1833.23,1380.8 1833.9,1380.71 1834.58,1380.65 1835.26,1380.58 1835.93,1380.48 1836.61,1380.38 1837.46,1380.33 1838.14,1380.31 1838.82,1380.34 
  1839.49,1380.33 1840.17,1380.37 1840.85,1380.45 1841.53,1380.47 1842.2,1380.46 1842.88,1380.48 1843.56,1380.49 1844.23,1380.47 1844.91,1380.46 1845.59,1380.45 
  1846.26,1380.43 1846.94,1380.4 1847.62,1380.38 1848.29,1380.36 1848.97,1380.35 1849.65,1380.33 1850.32,1380.3 1851,1380.28 1851.68,1380.27 1852.35,1380.25 
  1853.03,1380.19 1853.71,1380.14 1854.38,1380.09 1855.06,1380.05 1855.74,1380.02 1856.41,1379.98 1857.09,1379.93 1857.77,1379.87 1858.45,1379.81 1859.12,1379.72 
  1859.8,1379.65 1860.48,1379.59 1861.15,1379.54 1861.83,1379.47 1862.51,1379.4 1863.18,1379.36 1863.86,1379.32 1864.54,1379.27 1865.21,1379.2 1865.89,1379.15 
  1866.57,1379.09 1867.24,1379.01 1867.92,1378.92 1868.6,1378.87 1869.27,1378.85 1869.95,1378.83 1870.63,1378.78 1871.3,1378.75 1871.98,1378.7 1872.66,1378.62 
  1873.33,1378.51 1874.01,1378.45 1874.69,1378.4 1875.37,1378.34 1876.04,1378.26 1876.72,1378.2 1877.4,1378.15 1878.07,1378.07 1878.75,1377.95 1879.43,1377.87 
  1880.1,1377.84 1880.78,1377.81 1881.46,1377.73 1882.13,1377.64 1882.81,1377.56 1883.49,1377.52 1884.16,1377.47 1884.84,1377.42 1885.52,1377.36 1886.19,1377.29 
  1886.87,1377.21 1887.55,1377.13 1888.22,1377.05 1888.9,1377 1889.58,1376.93 1890.25,1376.85 1890.93,1376.77 1891.61,1376.7 1892.28,1376.6 1892.96,1376.49 
  1893.64,1376.39 1894.32,1376.32 1894.99,1376.23 1895.67,1376.12 1896.35,1376.04 1897.02,1375.96 1897.7,1375.88 1898.38,1375.77 1899.05,1375.66 1899.55,1375.58 
  1900.23,1375.48 1900.91,1375.39 1901.58,1375.31 1902.26,1375.22 1902.94,1375.12 1903.61,1375.02 1904.29,1374.89 1904.97,1374.77 1905.64,1374.67 1906.32,1374.56 
  1907,1374.44 1907.67,1374.32 1908.35,1374.23 1909.03,1374.12 1909.71,1374.01 1910.38,1373.89 1911.06,1373.77 1911.74,1373.66 1912.41,1373.56 1913.09,1373.47 
  1913.77,1373.38 1914.44,1373.27 1915.12,1373.14 1915.8,1373.04 1916.47,1372.96 1917.15,1372.87 1917.83,1372.75 1918.5,1372.62 1919.18,1372.52 1919.86,1372.4 
  1920.53,1372.28 1921.21,1372.16 1921.89,1372.05 1922.56,1371.95 1923.24,1371.85 1923.92,1371.73 1924.59,1371.61 1925.27,1371.5 1925.95,1371.41 1926.63,1371.29 
  1927.3,1371.17 1927.98,1371.05 1928.66,1370.94 1929.33,1370.81 1930.01,1370.69 1930.69,1370.58 1931.36,1370.47 1932.04,1370.36 1932.72,1370.23 1933.39,1370.09 
  1934.07,1369.96 1934.75,1369.83 1935.42,1369.69 1936.1,1369.55 1936.78,1369.45 1937.45,1369.32 1938.13,1369.16 1938.81,1368.99 1939.48,1368.84 1940.16,1368.7 
  1940.84,1368.58 1941.51,1368.44 1942.19,1368.31 1942.87,1368.19 1943.54,1368.03 1944.22,1367.87 1944.9,1367.74 1945.58,1367.63 1946.25,1367.49 1946.93,1367.33 
  1947.61,1367.19 1948.28,1367.09 1948.96,1366.98 1949.64,1366.84 1950.31,1366.7 1950.99,1366.56 1951.67,1366.43 1952.34,1366.27 1953.02,1366.09 1953.7,1365.93 
  1954.37,1365.78 1955.05,1365.62 1955.73,1365.44 1956.4,1365.29 1957.08,1365.16 1957.76,1365.01 1958.43,1364.83 1959.11,1364.68 1959.79,1364.52 1960.46,1364.34 
  1961.14,1364.16 1961.82,1364.03 1962.5,1363.91 1963.17,1363.77 1963.85,1363.61 1964.53,1363.48 1965.2,1363.36 1965.88,1363.21 1966.56,1363.06 1967.23,1362.92 
  1967.91,1362.81 1968.59,1362.69 1969.26,1362.56 1969.94,1362.41 1970.62,1362.29 1971.29,1362.17 1971.97,1362.02 1972.65,1361.87 1973.32,1361.74 1974,1361.6 
  1974.68,1361.4 1975.35,1361.2 1976.03,1361.06 1976.71,1360.94 1977.38,1360.8 1978.06,1360.63 1978.74,1360.47 1979.42,1360.32 1980.09,1360.18 1980.77,1360.01 
  1981.45,1359.84 1982.12,1359.69 1982.8,1359.53 1983.48,1359.37 1984.15,1359.21 1984.83,1359.06 1985.51,1358.9 1986.18,1358.75 1986.86,1358.58 1987.54,1358.42 
  1988.21,1358.25 1988.89,1358.1 1989.57,1357.94 1990.24,1357.78 1990.92,1357.62 1991.6,1357.45 1992.27,1357.25 1992.95,1357.06 1993.63,1356.88 1994.3,1356.68 
  1994.98,1356.42 1995.66,1356.14 1996.34,1355.85 1997.01,1355.48 1997.69,1355.02 1998.37,1354.46 1999.04,1353.82 1999.72,1353.07 2000.4,1352.18 2001.07,1351.14 
  2001.75,1349.98 2002.43,1348.66 2003.1,1347.16 2003.78,1345.46 2004.46,1343.61 2005.13,1341.58 2005.81,1339.32 2006.49,1336.86 2007.16,1334.23 2007.84,1331.45 
  2008.52,1328.49 2009.19,1325.35 2009.87,1322.03 2010.55,1318.56 2011.22,1314.93 2011.9,1311.13 2012.58,1307.16 2013.25,1303.05 2013.93,1298.82 2014.61,1294.46 
  2015.29,1289.98 2015.96,1285.38 2016.64,1280.68 2017.32,1275.89 2017.99,1271.03 2018.67,1266.07 2019.35,1261.03 2020.02,1255.93 2020.7,1250.76 2021.38,1245.53 
  2022.05,1240.26 2022.73,1234.92 2023.41,1229.52 2024.08,1224.08 2024.76,1218.61 2025.44,1213.11 2026.11,1207.58 2026.79,1202.01 2027.47,1196.39 2028.14,1190.76 
  2028.82,1185.09 2029.5,1179.37 2030.17,1173.65 2030.85,1167.91 2031.53,1162.13 2032.21,1156.33 2032.88,1150.52 2033.56,1144.71 2034.24,1138.88 2034.91,1133.03 
  2035.59,1127.17 2036.27,1121.3 2036.94,1115.41 2037.62,1109.5 2038.3,1103.59 2038.97,1097.68 2039.65,1091.76 2040.33,1085.82 2041,1079.87 2041.68,1073.92 
  2042.36,1067.97 2043.03,1061.99 2043.71,1056.02 2044.39,1050.05 2045.06,1044.07 2045.74,1038.07 2046.42,1032.08 2047.09,1026.1 2047.77,1020.11 2048.45,1014.1 
  2049.13,1008.09 2049.8,1002.08 2050.48,996.056 2051.16,990.022 2051.83,983.992 2052.51,977.965 2053.19,971.939 2053.86,965.914 2054.54,959.896 2055.22,953.879 
  2055.89,947.87 2056.57,941.881 2057.25,935.917 2057.92,929.991 2058.6,924.119 2059.28,918.311 2059.95,912.568 2060.63,906.891 2061.31,901.291 2061.98,895.775 
  2062.66,890.353 2063.34,885.043 2064.01,879.856 2064.69,874.811 2065.37,869.926 2066.04,865.206 2066.72,860.652 2067.4,856.28 2068.08,852.091 2068.75,848.088 
  2069.43,844.267 2070.11,840.64 2070.78,837.202 2071.46,833.951 2072.14,830.894 2072.81,828.034 2073.49,825.369 2074.17,822.856 2074.84,820.479 2075.52,818.256 
  2076.2,816.174 2076.87,814.203 2077.55,812.348 2078.23,810.604 2078.9,808.959 2079.58,807.405 2080.26,805.937 2080.93,804.55 2081.61,803.217 2082.29,801.921 
  2082.96,800.642 2083.64,799.376 2084.32,798.111 2085,796.843 2085.67,795.576 2086.35,794.306 2087.03,793.043 2087.7,791.802 2088.38,790.599 2089.06,789.42 
  2089.73,788.277 2090.41,787.179 2091.09,786.125 2091.76,785.095 2092.44,784.098 2093.12,783.15 2093.79,782.248 2094.47,781.377 2095.15,780.553 2095.82,779.769 
  2096.5,779.007 2097.18,778.267 2097.85,777.572 2098.53,776.904 2099.21,776.256 2099.88,775.639 2100.56,775.066 2101.24,774.509 2101.92,773.968 2102.59,773.461 
  2103.27,772.985 2103.95,772.52 2104.62,772.058 2105.3,771.614 2105.98,771.181 2106.65,770.754 2107.33,770.346 2108.01,769.967 2108.68,769.592 2109.36,769.215 
  2110.04,768.847 2110.71,768.495 2111.39,768.148 2112.07,767.804 2112.74,767.465 2113.42,767.134 2114.1,766.806 2114.77,766.489 2115.45,766.179 2116.13,765.876 
  2116.8,765.575 2117.48,765.274 2118.16,764.981 2118.83,764.692 2119.51,764.403 2120.19,764.113 2120.87,763.832 2121.54,763.547 2122.22,763.262 2122.9,762.982 
  2123.57,762.706 2124.25,762.432 2124.93,762.16 2125.6,761.889 2126.28,761.616 2126.96,761.342 2127.63,761.069 2128.31,760.797 2128.99,760.524 2129.66,760.252 
  2130.34,759.982 2131.02,759.712 2131.69,759.44 2132.37,759.172 2133.05,758.902 2133.72,758.631 2134.4,758.363 2135.08,758.098 2135.75,757.837 2136.43,757.578 
  2137.11,757.322 2137.79,757.064 2138.46,756.807 2139.14,756.548 2139.82,756.286 2140.49,756.027 2141.17,755.771 2141.85,755.511 2142.52,755.254 2143.2,754.997 
  2143.88,754.74 2144.55,754.476 2145.23,754.208 2145.91,753.936 2146.58,753.669 2147.26,753.404 2147.94,753.141 2148.61,752.882 2149.29,752.621 2149.97,752.358 
  2150.64,752.087 2151.32,751.815 2152,751.547 2152.67,751.279 2153.35,751.016 2154.03,750.758 2154.71,750.508 2155.38,750.256 2156.06,749.998 2156.74,749.73 
  2157.41,749.466 2158.09,749.201 2158.77,748.935 2159.44,748.675 2160.12,748.411 2160.8,748.149 2161.47,747.884 2162.15,747.618 2162.83,747.349 2163.5,747.079 
  2164.18,746.812 2164.86,746.55 2165.53,746.29 2166.21,746.031 2166.89,745.772 2167.56,745.511 2168.24,745.246 2168.92,744.978 2169.59,744.712 2170.27,744.45 
  2170.95,744.187 2171.62,743.926 2172.3,743.661 2172.98,743.39 2173.66,743.121 2174.33,742.854 2175.01,742.588 2175.69,742.319 2176.36,742.046 2177.04,741.771 
  2177.72,741.497 2178.39,741.223 2179.07,740.948 2179.75,740.675 2180.42,740.402 2181.1,740.128 2181.78,739.854 2182.45,739.578 2183.13,739.302 2183.81,739.029 
  2184.48,738.757 2185.16,738.479 2185.84,738.203 2186.51,737.926 2187.19,737.651 2187.87,737.376 2188.54,737.102 2189.22,736.827 2189.9,736.549 2190.58,736.273 
  2191.25,735.996 2191.93,735.72 2192.61,735.444 2193.28,735.167 2193.96,734.889 2194.64,734.608 2195.31,734.325 2195.99,734.043 2196.67,733.762 2197.34,733.478 
  2198.02,733.188 2198.7,732.897 2199.37,732.609 2200.05,732.321 2200.73,732.03 2201.4,731.741 2202.08,731.452 2202.76,731.166 2203.43,730.875 2204.11,730.582 
  2204.79,730.289 2205.46,729.998 2206.14,729.712 2206.82,729.429 2207.5,729.141 2208.17,728.853 2208.85,728.564 2209.53,728.272 2210.2,727.979 2210.88,727.691 
  2211.56,727.4 2212.23,727.11 2212.91,726.82 2213.59,726.532 2214.26,726.243 2214.94,725.95 2215.62,725.654 2216.29,725.361 2216.97,725.069 2217.65,724.777 
  2218.32,724.486 2219,724.195 2219.68,723.9 2220.35,723.599 2221.03,723.297 2221.71,722.996 2222.38,722.697 2223.06,722.4 2223.74,722.105 2224.41,721.809 
  2225.09,721.507 2225.77,721.205 2226.45,720.905 2227.12,720.602 2227.8,720.296 2228.48,719.989 2229.15,719.691 2229.83,719.394 2230.51,719.097 2231.18,718.798 
  2231.86,718.499 2232.54,718.201 2233.21,717.903 2233.89,717.604 2234.57,717.303 2235.24,717.002 2235.92,716.703 2236.6,716.402 2237.27,716.101 2237.95,715.799 
  2238.63,715.496 2239.3,715.19 2239.98,714.882 2240.66,714.575 2241.33,714.272 2242.01,713.973 2242.69,713.673 2243.37,713.372 2244.04,713.07 2244.72,712.764 
  2245.4,712.46 2246.07,712.155 2246.75,711.846 2247.43,711.531 2248.1,711.216 2248.78,710.9 2249.46,710.584 2250.13,710.27 2250.81,709.953 2251.49,709.638 
  2252.16,709.325 2252.84,709.012 2253.52,708.698 2254.19,708.38 2254.87,708.065 2255.55,707.751 2256.22,707.437 2256.9,707.123 2257.58,706.807 2258.25,706.491 
  2258.93,706.176 2259.61,705.861 2260.28,705.545 2260.96,705.229 2261.64,704.914 2262.32,704.601 2262.99,704.287 2263.67,703.974 2264.35,703.661 2265.02,703.344 
  2265.7,703.025 2266.38,702.712 2267.05,702.397 2267.73,702.081 2268.41,701.767 2269.08,701.454 2269.76,701.137 2270.44,700.817 2271.11,700.49 2271.79,700.16 
  2272.47,699.827 2273.14,699.505 2273.82,699.187 2274.5,698.874 2275.17,698.559 2275.85,698.243 2276.53,697.928 2277.2,697.612 2277.88,697.292 2278.56,696.97 
  2279.24,696.648 2279.91,696.319 2280.59,695.984 2281.27,695.647 2281.94,695.314 2282.62,694.981 2283.3,694.645 2283.97,694.312 2284.65,693.98 2285.33,693.648 
  2286,693.316 2286.68,692.975 2287.36,692.623 2288.03,692.266 2288.71,691.915 2289.39,691.573 2290.06,691.237 2290.74,690.907 2291.42,690.575 2292.09,690.238 
  2292.77,689.893 2293.45,689.546 
  "/>
<path clip-path="url(#clip350)" d="
M1609.28 270.476 L2282.9 270.476 L2282.9 166.796 L1609.28 166.796  Z
  " fill="#ffffff" fill-rule="evenodd" fill-opacity="1"/>
<polyline clip-path="url(#clip350)" style="stroke:#000000; stroke-linecap:butt; stroke-linejoin:round; stroke-width:4; stroke-opacity:1; fill:none" points="
  1609.28,270.476 2282.9,270.476 2282.9,166.796 1609.28,166.796 1609.28,270.476 
  "/>
<polyline clip-path="url(#clip350)" style="stroke:#009af9; stroke-linecap:butt; stroke-linejoin:round; stroke-width:4; stroke-opacity:1; fill:none" points="
  1632.56,218.636 1772.27,218.636 
  "/>
<path clip-path="url(#clip350)" d="M1816.06 210.985 L1816.06 214.967 Q1814.26 213.971 1812.43 213.485 Q1810.62 212.976 1808.77 212.976 Q1804.63 212.976 1802.33 215.615 Q1800.04 218.231 1800.04 222.976 Q1800.04 227.721 1802.33 230.36 Q1804.63 232.976 1808.77 232.976 Q1810.62 232.976 1812.43 232.49 Q1814.26 231.981 1816.06 230.985 L1816.06 234.92 Q1814.28 235.754 1812.36 236.17 Q1810.46 236.587 1808.31 236.587 Q1802.45 236.587 1799 232.906 Q1795.55 229.226 1795.55 222.976 Q1795.55 216.633 1799.02 212.999 Q1802.52 209.365 1808.58 209.365 Q1810.55 209.365 1812.43 209.782 Q1814.3 210.175 1816.06 210.985 Z" fill="#000000" fill-rule="evenodd" fill-opacity="1" /><path clip-path="url(#clip350)" d="M1835.25 222.883 Q1830.09 222.883 1828.1 224.064 Q1826.11 225.244 1826.11 228.092 Q1826.11 230.36 1827.59 231.703 Q1829.09 233.022 1831.66 233.022 Q1835.2 233.022 1837.33 230.522 Q1839.49 227.999 1839.49 223.832 L1839.49 222.883 L1835.25 222.883 M1843.75 221.124 L1843.75 235.916 L1839.49 235.916 L1839.49 231.981 Q1838.03 234.342 1835.85 235.476 Q1833.68 236.587 1830.53 236.587 Q1826.55 236.587 1824.19 234.365 Q1821.85 232.119 1821.85 228.369 Q1821.85 223.994 1824.76 221.772 Q1827.7 219.55 1833.51 219.55 L1839.49 219.55 L1839.49 219.133 Q1839.49 216.194 1837.54 214.596 Q1835.62 212.976 1832.13 212.976 Q1829.9 212.976 1827.8 213.508 Q1825.69 214.041 1823.75 215.106 L1823.75 211.17 Q1826.08 210.268 1828.28 209.828 Q1830.48 209.365 1832.57 209.365 Q1838.19 209.365 1840.97 212.282 Q1843.75 215.198 1843.75 221.124 Z" fill="#000000" fill-rule="evenodd" fill-opacity="1" /><path clip-path="url(#clip350)" d="M1852.52 199.897 L1856.78 199.897 L1856.78 235.916 L1852.52 235.916 L1852.52 199.897 Z" fill="#000000" fill-rule="evenodd" fill-opacity="1" /><path clip-path="url(#clip350)" d="M1884.35 210.985 L1884.35 214.967 Q1882.54 213.971 1880.71 213.485 Q1878.91 212.976 1877.06 212.976 Q1872.91 212.976 1870.62 215.615 Q1868.33 218.231 1868.33 222.976 Q1868.33 227.721 1870.62 230.36 Q1872.91 232.976 1877.06 232.976 Q1878.91 232.976 1880.71 232.49 Q1882.54 231.981 1884.35 230.985 L1884.35 234.92 Q1882.57 235.754 1880.64 236.17 Q1878.75 236.587 1876.59 236.587 Q1870.74 236.587 1867.29 232.906 Q1863.84 229.226 1863.84 222.976 Q1863.84 216.633 1867.31 212.999 Q1870.81 209.365 1876.87 209.365 Q1878.84 209.365 1880.71 209.782 Q1882.59 210.175 1884.35 210.985 Z" fill="#000000" fill-rule="evenodd" fill-opacity="1" /><path clip-path="url(#clip350)" d="M1891.32 225.684 L1891.32 209.99 L1895.57 209.99 L1895.57 225.522 Q1895.57 229.203 1897.01 231.055 Q1898.44 232.883 1901.32 232.883 Q1904.76 232.883 1906.75 230.684 Q1908.77 228.485 1908.77 224.689 L1908.77 209.99 L1913.03 209.99 L1913.03 235.916 L1908.77 235.916 L1908.77 231.934 Q1907.22 234.295 1905.16 235.453 Q1903.12 236.587 1900.41 236.587 Q1895.94 236.587 1893.63 233.809 Q1891.32 231.031 1891.32 225.684 M1902.03 209.365 L1902.03 209.365 Z" fill="#000000" fill-rule="evenodd" fill-opacity="1" /><path clip-path="url(#clip350)" d="M1921.8 199.897 L1926.06 199.897 L1926.06 235.916 L1921.8 235.916 L1921.8 199.897 Z" fill="#000000" fill-rule="evenodd" fill-opacity="1" /><path clip-path="url(#clip350)" d="M1946.75 222.883 Q1941.59 222.883 1939.6 224.064 Q1937.61 225.244 1937.61 228.092 Q1937.61 230.36 1939.09 231.703 Q1940.6 233.022 1943.17 233.022 Q1946.71 233.022 1948.84 230.522 Q1950.99 227.999 1950.99 223.832 L1950.99 222.883 L1946.75 222.883 M1955.25 221.124 L1955.25 235.916 L1950.99 235.916 L1950.99 231.981 Q1949.53 234.342 1947.36 235.476 Q1945.18 236.587 1942.03 236.587 Q1938.05 236.587 1935.69 234.365 Q1933.35 232.119 1933.35 228.369 Q1933.35 223.994 1936.27 221.772 Q1939.21 219.55 1945.02 219.55 L1950.99 219.55 L1950.99 219.133 Q1950.99 216.194 1949.05 214.596 Q1947.12 212.976 1943.63 212.976 Q1941.41 212.976 1939.3 213.508 Q1937.19 214.041 1935.25 215.106 L1935.25 211.17 Q1937.59 210.268 1939.79 209.828 Q1941.99 209.365 1944.07 209.365 Q1949.69 209.365 1952.47 212.282 Q1955.25 215.198 1955.25 221.124 Z" fill="#000000" fill-rule="evenodd" fill-opacity="1" /><path clip-path="url(#clip350)" d="M1968.24 202.629 L1968.24 209.99 L1977.01 209.99 L1977.01 213.3 L1968.24 213.3 L1968.24 227.374 Q1968.24 230.545 1969.09 231.448 Q1969.97 232.351 1972.63 232.351 L1977.01 232.351 L1977.01 235.916 L1972.63 235.916 Q1967.7 235.916 1965.83 234.087 Q1963.95 232.235 1963.95 227.374 L1963.95 213.3 L1960.83 213.3 L1960.83 209.99 L1963.95 209.99 L1963.95 202.629 L1968.24 202.629 Z" fill="#000000" fill-rule="evenodd" fill-opacity="1" /><path clip-path="url(#clip350)" d="M2004.79 221.888 L2004.79 223.971 L1985.2 223.971 Q1985.48 228.369 1987.84 230.684 Q1990.23 232.976 1994.46 232.976 Q1996.92 232.976 1999.21 232.374 Q2001.52 231.772 2003.79 230.569 L2003.79 234.596 Q2001.5 235.568 1999.09 236.078 Q1996.68 236.587 1994.21 236.587 Q1988 236.587 1984.37 232.976 Q1980.76 229.365 1980.76 223.207 Q1980.76 216.842 1984.18 213.115 Q1987.63 209.365 1993.47 209.365 Q1998.7 209.365 2001.73 212.745 Q2004.79 216.101 2004.79 221.888 M2000.53 220.638 Q2000.48 217.143 1998.56 215.059 Q1996.66 212.976 1993.51 212.976 Q1989.95 212.976 1987.8 214.99 Q1985.67 217.004 1985.34 220.661 L2000.53 220.638 Z" fill="#000000" fill-rule="evenodd" fill-opacity="1" /><path clip-path="url(#clip350)" d="M2028.84 213.925 L2028.84 199.897 L2033.1 199.897 L2033.1 235.916 L2028.84 235.916 L2028.84 232.027 Q2027.49 234.342 2025.43 235.476 Q2023.4 236.587 2020.53 236.587 Q2015.83 236.587 2012.87 232.837 Q2009.93 229.087 2009.93 222.976 Q2009.93 216.865 2012.87 213.115 Q2015.83 209.365 2020.53 209.365 Q2023.4 209.365 2025.43 210.499 Q2027.49 211.61 2028.84 213.925 M2014.32 222.976 Q2014.32 227.675 2016.24 230.36 Q2018.19 233.022 2021.57 233.022 Q2024.95 233.022 2026.89 230.36 Q2028.84 227.675 2028.84 222.976 Q2028.84 218.277 2026.89 215.615 Q2024.95 212.93 2021.57 212.93 Q2018.19 212.93 2016.24 215.615 Q2014.32 218.277 2014.32 222.976 Z" fill="#000000" fill-rule="evenodd" fill-opacity="1" /><path clip-path="url(#clip350)" d="M2053.88 209.99 L2058.4 209.99 L2066.5 231.749 L2074.6 209.99 L2079.11 209.99 L2069.39 235.916 L2063.61 235.916 L2053.88 209.99 Z" fill="#000000" fill-rule="evenodd" fill-opacity="1" /><path clip-path="url(#clip350)" d="M2107.17 221.888 L2107.17 223.971 L2087.59 223.971 Q2087.86 228.369 2090.23 230.684 Q2092.61 232.976 2096.85 232.976 Q2099.3 232.976 2101.59 232.374 Q2103.91 231.772 2106.18 230.569 L2106.18 234.596 Q2103.88 235.568 2101.48 236.078 Q2099.07 236.587 2096.59 236.587 Q2090.39 236.587 2086.75 232.976 Q2083.14 229.365 2083.14 223.207 Q2083.14 216.842 2086.57 213.115 Q2090.02 209.365 2095.85 209.365 Q2101.08 209.365 2104.11 212.745 Q2107.17 216.101 2107.17 221.888 M2102.91 220.638 Q2102.86 217.143 2100.94 215.059 Q2099.05 212.976 2095.9 212.976 Q2092.33 212.976 2090.18 214.99 Q2088.05 217.004 2087.73 220.661 L2102.91 220.638 Z" fill="#000000" fill-rule="evenodd" fill-opacity="1" /><path clip-path="url(#clip350)" d="M2114.16 199.897 L2118.42 199.897 L2118.42 235.916 L2114.16 235.916 L2114.16 199.897 Z" fill="#000000" fill-rule="evenodd" fill-opacity="1" /><path clip-path="url(#clip350)" d="M2137.38 212.976 Q2133.95 212.976 2131.96 215.661 Q2129.97 218.323 2129.97 222.976 Q2129.97 227.629 2131.94 230.314 Q2133.93 232.976 2137.38 232.976 Q2140.78 232.976 2142.77 230.291 Q2144.76 227.606 2144.76 222.976 Q2144.76 218.37 2142.77 215.684 Q2140.78 212.976 2137.38 212.976 M2137.38 209.365 Q2142.93 209.365 2146.11 212.976 Q2149.28 216.587 2149.28 222.976 Q2149.28 229.342 2146.11 232.976 Q2142.93 236.587 2137.38 236.587 Q2131.8 236.587 2128.63 232.976 Q2125.48 229.342 2125.48 222.976 Q2125.48 216.587 2128.63 212.976 Q2131.8 209.365 2137.38 209.365 Z" fill="#000000" fill-rule="evenodd" fill-opacity="1" /><path clip-path="url(#clip350)" d="M2174.99 210.985 L2174.99 214.967 Q2173.19 213.971 2171.36 213.485 Q2169.55 212.976 2167.7 212.976 Q2163.56 212.976 2161.27 215.615 Q2158.98 218.231 2158.98 222.976 Q2158.98 227.721 2161.27 230.36 Q2163.56 232.976 2167.7 232.976 Q2169.55 232.976 2171.36 232.49 Q2173.19 231.981 2174.99 230.985 L2174.99 234.92 Q2173.21 235.754 2171.29 236.17 Q2169.39 236.587 2167.24 236.587 Q2161.38 236.587 2157.93 232.906 Q2154.48 229.226 2154.48 222.976 Q2154.48 216.633 2157.96 212.999 Q2161.45 209.365 2167.52 209.365 Q2169.48 209.365 2171.36 209.782 Q2173.23 210.175 2174.99 210.985 Z" fill="#000000" fill-rule="evenodd" fill-opacity="1" /><path clip-path="url(#clip350)" d="M2182.4 209.99 L2186.66 209.99 L2186.66 235.916 L2182.4 235.916 L2182.4 209.99 M2182.4 199.897 L2186.66 199.897 L2186.66 205.291 L2182.4 205.291 L2182.4 199.897 Z" fill="#000000" fill-rule="evenodd" fill-opacity="1" /><path clip-path="url(#clip350)" d="M2199.79 202.629 L2199.79 209.99 L2208.56 209.99 L2208.56 213.3 L2199.79 213.3 L2199.79 227.374 Q2199.79 230.545 2200.64 231.448 Q2201.52 232.351 2204.18 232.351 L2208.56 232.351 L2208.56 235.916 L2204.18 235.916 Q2199.25 235.916 2197.38 234.087 Q2195.5 232.235 2195.5 227.374 L2195.5 213.3 L2192.38 213.3 L2192.38 209.99 L2195.5 209.99 L2195.5 202.629 L2199.79 202.629 Z" fill="#000000" fill-rule="evenodd" fill-opacity="1" /><path clip-path="url(#clip350)" d="M2224.95 238.323 Q2223.14 242.953 2221.43 244.365 Q2219.72 245.777 2216.85 245.777 L2213.44 245.777 L2213.44 242.212 L2215.94 242.212 Q2217.7 242.212 2218.67 241.379 Q2219.65 240.545 2220.83 237.443 L2221.59 235.499 L2211.11 209.99 L2215.62 209.99 L2223.72 230.268 L2231.82 209.99 L2236.34 209.99 L2224.95 238.323 Z" fill="#000000" fill-rule="evenodd" fill-opacity="1" /></svg>
