<?xml version="1.0" encoding="utf-8"?>
<svg xmlns="http://www.w3.org/2000/svg" xmlns:xlink="http://www.w3.org/1999/xlink" width="600" height="400" viewBox="0 0 2400 1600">
<defs>
  <clipPath id="clip690">
    <rect x="0" y="0" width="2400" height="1600"/>
  </clipPath>
</defs>
<path clip-path="url(#clip690)" d="
M0 1600 L2400 1600 L2400 0 L0 0  Z
  " fill="#ffffff" fill-rule="evenodd" fill-opacity="1"/>
<defs>
  <clipPath id="clip691">
    <rect x="480" y="0" width="1681" height="1600"/>
  </clipPath>
</defs>
<path clip-path="url(#clip690)" d="
M263.037 1423.18 L2352.76 1423.18 L2352.76 123.472 L263.037 123.472  Z
  " fill="#ffffff" fill-rule="evenodd" fill-opacity="1"/>
<defs>
  <clipPath id="clip692">
    <rect x="263" y="123" width="2091" height="1301"/>
  </clipPath>
</defs>
<polyline clip-path="url(#clip692)" style="stroke:#000000; stroke-linecap:butt; stroke-linejoin:round; stroke-width:2; stroke-opacity:0.1; fill:none" points="
  303.466,1423.18 303.466,123.472 
  "/>
<polyline clip-path="url(#clip692)" style="stroke:#000000; stroke-linecap:butt; stroke-linejoin:round; stroke-width:2; stroke-opacity:0.1; fill:none" points="
  766.56,1423.18 766.56,123.472 
  "/>
<polyline clip-path="url(#clip692)" style="stroke:#000000; stroke-linecap:butt; stroke-linejoin:round; stroke-width:2; stroke-opacity:0.1; fill:none" points="
  1229.65,1423.18 1229.65,123.472 
  "/>
<polyline clip-path="url(#clip692)" style="stroke:#000000; stroke-linecap:butt; stroke-linejoin:round; stroke-width:2; stroke-opacity:0.1; fill:none" points="
  1692.75,1423.18 1692.75,123.472 
  "/>
<polyline clip-path="url(#clip692)" style="stroke:#000000; stroke-linecap:butt; stroke-linejoin:round; stroke-width:2; stroke-opacity:0.1; fill:none" points="
  2155.84,1423.18 2155.84,123.472 
  "/>
<polyline clip-path="url(#clip690)" style="stroke:#000000; stroke-linecap:butt; stroke-linejoin:round; stroke-width:4; stroke-opacity:1; fill:none" points="
  263.037,1423.18 2352.76,1423.18 
  "/>
<polyline clip-path="url(#clip690)" style="stroke:#000000; stroke-linecap:butt; stroke-linejoin:round; stroke-width:4; stroke-opacity:1; fill:none" points="
  303.466,1423.18 303.466,1404.28 
  "/>
<polyline clip-path="url(#clip690)" style="stroke:#000000; stroke-linecap:butt; stroke-linejoin:round; stroke-width:4; stroke-opacity:1; fill:none" points="
  766.56,1423.18 766.56,1404.28 
  "/>
<polyline clip-path="url(#clip690)" style="stroke:#000000; stroke-linecap:butt; stroke-linejoin:round; stroke-width:4; stroke-opacity:1; fill:none" points="
  1229.65,1423.18 1229.65,1404.28 
  "/>
<polyline clip-path="url(#clip690)" style="stroke:#000000; stroke-linecap:butt; stroke-linejoin:round; stroke-width:4; stroke-opacity:1; fill:none" points="
  1692.75,1423.18 1692.75,1404.28 
  "/>
<polyline clip-path="url(#clip690)" style="stroke:#000000; stroke-linecap:butt; stroke-linejoin:round; stroke-width:4; stroke-opacity:1; fill:none" points="
  2155.84,1423.18 2155.84,1404.28 
  "/>
<path clip-path="url(#clip690)" d="M303.466 1454.1 Q299.855 1454.1 298.027 1457.66 Q296.221 1461.2 296.221 1468.33 Q296.221 1475.44 298.027 1479.01 Q299.855 1482.55 303.466 1482.55 Q307.101 1482.55 308.906 1479.01 Q310.735 1475.44 310.735 1468.33 Q310.735 1461.2 308.906 1457.66 Q307.101 1454.1 303.466 1454.1 M303.466 1450.39 Q309.277 1450.39 312.332 1455 Q315.411 1459.58 315.411 1468.33 Q315.411 1477.06 312.332 1481.67 Q309.277 1486.25 303.466 1486.25 Q297.656 1486.25 294.578 1481.67 Q291.522 1477.06 291.522 1468.33 Q291.522 1459.58 294.578 1455 Q297.656 1450.39 303.466 1450.39 Z" fill="#000000" fill-rule="evenodd" fill-opacity="1" /><path clip-path="url(#clip690)" d="M745.831 1481.64 L762.15 1481.64 L762.15 1485.58 L740.206 1485.58 L740.206 1481.64 Q742.868 1478.89 747.451 1474.26 Q752.058 1469.61 753.238 1468.27 Q755.484 1465.74 756.363 1464.01 Q757.266 1462.25 757.266 1460.56 Q757.266 1457.8 755.322 1456.07 Q753.4 1454.33 750.298 1454.33 Q748.099 1454.33 745.646 1455.09 Q743.215 1455.86 740.437 1457.41 L740.437 1452.69 Q743.261 1451.55 745.715 1450.97 Q748.169 1450.39 750.206 1450.39 Q755.576 1450.39 758.771 1453.08 Q761.965 1455.77 761.965 1460.26 Q761.965 1462.39 761.155 1464.31 Q760.368 1466.2 758.261 1468.8 Q757.683 1469.47 754.581 1472.69 Q751.479 1475.88 745.831 1481.64 Z" fill="#000000" fill-rule="evenodd" fill-opacity="1" /><path clip-path="url(#clip690)" d="M772.011 1451.02 L790.368 1451.02 L790.368 1454.96 L776.294 1454.96 L776.294 1463.43 Q777.312 1463.08 778.331 1462.92 Q779.349 1462.73 780.368 1462.73 Q786.155 1462.73 789.534 1465.9 Q792.914 1469.08 792.914 1474.49 Q792.914 1480.07 789.442 1483.17 Q785.97 1486.25 779.65 1486.25 Q777.474 1486.25 775.206 1485.88 Q772.96 1485.51 770.553 1484.77 L770.553 1480.07 Q772.636 1481.2 774.859 1481.76 Q777.081 1482.32 779.558 1482.32 Q783.562 1482.32 785.9 1480.21 Q788.238 1478.1 788.238 1474.49 Q788.238 1470.88 785.9 1468.77 Q783.562 1466.67 779.558 1466.67 Q777.683 1466.67 775.808 1467.08 Q773.956 1467.5 772.011 1468.38 L772.011 1451.02 Z" fill="#000000" fill-rule="evenodd" fill-opacity="1" /><path clip-path="url(#clip690)" d="M1204.35 1451.02 L1222.71 1451.02 L1222.71 1454.96 L1208.64 1454.96 L1208.64 1463.43 Q1209.65 1463.08 1210.67 1462.92 Q1211.69 1462.73 1212.71 1462.73 Q1218.5 1462.73 1221.88 1465.9 Q1225.26 1469.08 1225.26 1474.49 Q1225.26 1480.07 1221.78 1483.17 Q1218.31 1486.25 1211.99 1486.25 Q1209.82 1486.25 1207.55 1485.88 Q1205.3 1485.51 1202.89 1484.77 L1202.89 1480.07 Q1204.98 1481.2 1207.2 1481.76 Q1209.42 1482.32 1211.9 1482.32 Q1215.9 1482.32 1218.24 1480.21 Q1220.58 1478.1 1220.58 1474.49 Q1220.58 1470.88 1218.24 1468.77 Q1215.9 1466.67 1211.9 1466.67 Q1210.02 1466.67 1208.15 1467.08 Q1206.3 1467.5 1204.35 1468.38 L1204.35 1451.02 Z" fill="#000000" fill-rule="evenodd" fill-opacity="1" /><path clip-path="url(#clip690)" d="M1244.47 1454.1 Q1240.86 1454.1 1239.03 1457.66 Q1237.22 1461.2 1237.22 1468.33 Q1237.22 1475.44 1239.03 1479.01 Q1240.86 1482.55 1244.47 1482.55 Q1248.1 1482.55 1249.91 1479.01 Q1251.74 1475.44 1251.74 1468.33 Q1251.74 1461.2 1249.91 1457.66 Q1248.1 1454.1 1244.47 1454.1 M1244.47 1450.39 Q1250.28 1450.39 1253.33 1455 Q1256.41 1459.58 1256.41 1468.33 Q1256.41 1477.06 1253.33 1481.67 Q1250.28 1486.25 1244.47 1486.25 Q1238.66 1486.25 1235.58 1481.67 Q1232.52 1477.06 1232.52 1468.33 Q1232.52 1459.58 1235.58 1455 Q1238.66 1450.39 1244.47 1450.39 Z" fill="#000000" fill-rule="evenodd" fill-opacity="1" /><path clip-path="url(#clip690)" d="M1666.6 1451.02 L1688.82 1451.02 L1688.82 1453.01 L1676.28 1485.58 L1671.39 1485.58 L1683.2 1454.96 L1666.6 1454.96 L1666.6 1451.02 Z" fill="#000000" fill-rule="evenodd" fill-opacity="1" /><path clip-path="url(#clip690)" d="M1697.99 1451.02 L1716.35 1451.02 L1716.35 1454.96 L1702.27 1454.96 L1702.27 1463.43 Q1703.29 1463.08 1704.31 1462.92 Q1705.33 1462.73 1706.35 1462.73 Q1712.13 1462.73 1715.51 1465.9 Q1718.89 1469.08 1718.89 1474.49 Q1718.89 1480.07 1715.42 1483.17 Q1711.95 1486.25 1705.63 1486.25 Q1703.45 1486.25 1701.18 1485.88 Q1698.94 1485.51 1696.53 1484.77 L1696.53 1480.07 Q1698.62 1481.2 1700.84 1481.76 Q1703.06 1482.32 1705.54 1482.32 Q1709.54 1482.32 1711.88 1480.21 Q1714.22 1478.1 1714.22 1474.49 Q1714.22 1470.88 1711.88 1468.77 Q1709.54 1466.67 1705.54 1466.67 Q1703.66 1466.67 1701.79 1467.08 Q1699.93 1467.5 1697.99 1468.38 L1697.99 1451.02 Z" fill="#000000" fill-rule="evenodd" fill-opacity="1" /><path clip-path="url(#clip690)" d="M2115.45 1481.64 L2123.09 1481.64 L2123.09 1455.28 L2114.78 1456.95 L2114.78 1452.69 L2123.04 1451.02 L2127.72 1451.02 L2127.72 1481.64 L2135.35 1481.64 L2135.35 1485.58 L2115.45 1485.58 L2115.45 1481.64 Z" fill="#000000" fill-rule="evenodd" fill-opacity="1" /><path clip-path="url(#clip690)" d="M2154.8 1454.1 Q2151.19 1454.1 2149.36 1457.66 Q2147.55 1461.2 2147.55 1468.33 Q2147.55 1475.44 2149.36 1479.01 Q2151.19 1482.55 2154.8 1482.55 Q2158.43 1482.55 2160.24 1479.01 Q2162.07 1475.44 2162.07 1468.33 Q2162.07 1461.2 2160.24 1457.66 Q2158.43 1454.1 2154.8 1454.1 M2154.8 1450.39 Q2160.61 1450.39 2163.66 1455 Q2166.74 1459.58 2166.74 1468.33 Q2166.74 1477.06 2163.66 1481.67 Q2160.61 1486.25 2154.8 1486.25 Q2148.99 1486.25 2145.91 1481.67 Q2142.85 1477.06 2142.85 1468.33 Q2142.85 1459.58 2145.91 1455 Q2148.99 1450.39 2154.8 1450.39 Z" fill="#000000" fill-rule="evenodd" fill-opacity="1" /><path clip-path="url(#clip690)" d="M2184.96 1454.1 Q2181.35 1454.1 2179.52 1457.66 Q2177.72 1461.2 2177.72 1468.33 Q2177.72 1475.44 2179.52 1479.01 Q2181.35 1482.55 2184.96 1482.55 Q2188.59 1482.55 2190.4 1479.01 Q2192.23 1475.44 2192.23 1468.33 Q2192.23 1461.2 2190.4 1457.66 Q2188.59 1454.1 2184.96 1454.1 M2184.96 1450.39 Q2190.77 1450.39 2193.83 1455 Q2196.91 1459.58 2196.91 1468.33 Q2196.91 1477.06 2193.83 1481.67 Q2190.77 1486.25 2184.96 1486.25 Q2179.15 1486.25 2176.07 1481.67 Q2173.02 1477.06 2173.02 1468.33 Q2173.02 1459.58 2176.07 1455 Q2179.15 1450.39 2184.96 1450.39 Z" fill="#000000" fill-rule="evenodd" fill-opacity="1" /><path clip-path="url(#clip690)" d="M1216.13 1522.27 L1216.13 1532.4 L1228.2 1532.4 L1228.2 1536.95 L1216.13 1536.95 L1216.13 1556.3 Q1216.13 1560.66 1217.31 1561.9 Q1218.52 1563.14 1222.18 1563.14 L1228.2 1563.14 L1228.2 1568.04 L1222.18 1568.04 Q1215.4 1568.04 1212.82 1565.53 Q1210.25 1562.98 1210.25 1556.3 L1210.25 1536.95 L1205.95 1536.95 L1205.95 1532.4 L1210.25 1532.4 L1210.25 1522.27 L1216.13 1522.27 Z" fill="#000000" fill-rule="evenodd" fill-opacity="1" /><path clip-path="url(#clip690)" d="M1256.62 1532.4 L1262.48 1532.4 L1262.48 1568.04 L1256.62 1568.04 L1256.62 1532.4 M1256.62 1518.52 L1262.48 1518.52 L1262.48 1525.93 L1256.62 1525.93 L1256.62 1518.52 Z" fill="#000000" fill-rule="evenodd" fill-opacity="1" /><path clip-path="url(#clip690)" d="M1304.36 1546.53 L1304.36 1568.04 L1298.51 1568.04 L1298.51 1546.72 Q1298.51 1541.66 1296.53 1539.14 Q1294.56 1536.63 1290.61 1536.63 Q1285.87 1536.63 1283.13 1539.65 Q1280.4 1542.68 1280.4 1547.9 L1280.4 1568.04 L1274.51 1568.04 L1274.51 1532.4 L1280.4 1532.4 L1280.4 1537.93 Q1282.5 1534.72 1285.33 1533.13 Q1288.19 1531.54 1291.92 1531.54 Q1298.06 1531.54 1301.21 1535.36 Q1304.36 1539.14 1304.36 1546.53 Z" fill="#000000" fill-rule="evenodd" fill-opacity="1" /><path clip-path="url(#clip690)" d="M1336.22 1518.52 L1349.72 1518.52 L1349.72 1523.07 L1342.08 1523.07 L1342.08 1572.09 L1349.72 1572.09 L1349.72 1576.64 L1336.22 1576.64 L1336.22 1518.52 Z" fill="#000000" fill-rule="evenodd" fill-opacity="1" /><path clip-path="url(#clip690)" d="M1384.92 1533.45 L1384.92 1538.98 Q1382.44 1537.71 1379.77 1537.07 Q1377.09 1536.44 1374.23 1536.44 Q1369.87 1536.44 1367.67 1537.77 Q1365.51 1539.11 1365.51 1541.79 Q1365.51 1543.82 1367.07 1545 Q1368.63 1546.15 1373.34 1547.2 L1375.34 1547.64 Q1381.58 1548.98 1384.19 1551.43 Q1386.83 1553.85 1386.83 1558.21 Q1386.83 1563.17 1382.88 1566.07 Q1378.97 1568.97 1372.09 1568.97 Q1369.23 1568.97 1366.11 1568.39 Q1363.02 1567.85 1359.59 1566.74 L1359.59 1560.69 Q1362.83 1562.38 1365.98 1563.24 Q1369.13 1564.07 1372.22 1564.07 Q1376.36 1564.07 1378.59 1562.66 Q1380.82 1561.23 1380.82 1558.65 Q1380.82 1556.27 1379.19 1554.99 Q1377.6 1553.72 1372.16 1552.54 L1370.12 1552.07 Q1364.68 1550.92 1362.26 1548.56 Q1359.84 1546.18 1359.84 1542.04 Q1359.84 1537.01 1363.41 1534.27 Q1366.97 1531.54 1373.53 1531.54 Q1376.77 1531.54 1379.64 1532.01 Q1382.5 1532.49 1384.92 1533.45 Z" fill="#000000" fill-rule="evenodd" fill-opacity="1" /><path clip-path="url(#clip690)" d="M1409.84 1518.52 L1409.84 1576.64 L1396.35 1576.64 L1396.35 1572.09 L1403.96 1572.09 L1403.96 1523.07 L1396.35 1523.07 L1396.35 1518.52 L1409.84 1518.52 Z" fill="#000000" fill-rule="evenodd" fill-opacity="1" /><polyline clip-path="url(#clip692)" style="stroke:#000000; stroke-linecap:butt; stroke-linejoin:round; stroke-width:2; stroke-opacity:0.1; fill:none" points="
  263.037,1310.02 2352.76,1310.02 
  "/>
<polyline clip-path="url(#clip692)" style="stroke:#000000; stroke-linecap:butt; stroke-linejoin:round; stroke-width:2; stroke-opacity:0.1; fill:none" points="
  263.037,1025.16 2352.76,1025.16 
  "/>
<polyline clip-path="url(#clip692)" style="stroke:#000000; stroke-linecap:butt; stroke-linejoin:round; stroke-width:2; stroke-opacity:0.1; fill:none" points="
  263.037,740.301 2352.76,740.301 
  "/>
<polyline clip-path="url(#clip692)" style="stroke:#000000; stroke-linecap:butt; stroke-linejoin:round; stroke-width:2; stroke-opacity:0.1; fill:none" points="
  263.037,455.442 2352.76,455.442 
  "/>
<polyline clip-path="url(#clip692)" style="stroke:#000000; stroke-linecap:butt; stroke-linejoin:round; stroke-width:2; stroke-opacity:0.1; fill:none" points="
  263.037,170.584 2352.76,170.584 
  "/>
<polyline clip-path="url(#clip690)" style="stroke:#000000; stroke-linecap:butt; stroke-linejoin:round; stroke-width:4; stroke-opacity:1; fill:none" points="
  263.037,1423.18 263.037,123.472 
  "/>
<polyline clip-path="url(#clip690)" style="stroke:#000000; stroke-linecap:butt; stroke-linejoin:round; stroke-width:4; stroke-opacity:1; fill:none" points="
  263.037,1310.02 281.935,1310.02 
  "/>
<polyline clip-path="url(#clip690)" style="stroke:#000000; stroke-linecap:butt; stroke-linejoin:round; stroke-width:4; stroke-opacity:1; fill:none" points="
  263.037,1025.16 281.935,1025.16 
  "/>
<polyline clip-path="url(#clip690)" style="stroke:#000000; stroke-linecap:butt; stroke-linejoin:round; stroke-width:4; stroke-opacity:1; fill:none" points="
  263.037,740.301 281.935,740.301 
  "/>
<polyline clip-path="url(#clip690)" style="stroke:#000000; stroke-linecap:butt; stroke-linejoin:round; stroke-width:4; stroke-opacity:1; fill:none" points="
  263.037,455.442 281.935,455.442 
  "/>
<polyline clip-path="url(#clip690)" style="stroke:#000000; stroke-linecap:butt; stroke-linejoin:round; stroke-width:4; stroke-opacity:1; fill:none" points="
  263.037,170.584 281.935,170.584 
  "/>
<path clip-path="url(#clip690)" d="M115.256 1323.36 L122.894 1323.36 L122.894 1297 L114.584 1298.66 L114.584 1294.4 L122.848 1292.74 L127.524 1292.74 L127.524 1323.36 L135.163 1323.36 L135.163 1327.3 L115.256 1327.3 L115.256 1323.36 Z" fill="#000000" fill-rule="evenodd" fill-opacity="1" /><path clip-path="url(#clip690)" d="M154.607 1295.82 Q150.996 1295.82 149.167 1299.38 Q147.362 1302.92 147.362 1310.05 Q147.362 1317.16 149.167 1320.72 Q150.996 1324.26 154.607 1324.26 Q158.241 1324.26 160.047 1320.72 Q161.876 1317.16 161.876 1310.05 Q161.876 1302.92 160.047 1299.38 Q158.241 1295.82 154.607 1295.82 M154.607 1292.11 Q160.417 1292.11 163.473 1296.72 Q166.552 1301.3 166.552 1310.05 Q166.552 1318.78 163.473 1323.39 Q160.417 1327.97 154.607 1327.97 Q148.797 1327.97 145.718 1323.39 Q142.663 1318.78 142.663 1310.05 Q142.663 1301.3 145.718 1296.72 Q148.797 1292.11 154.607 1292.11 Z" fill="#000000" fill-rule="evenodd" fill-opacity="1" /><path clip-path="url(#clip690)" d="M175.579 1323.36 L183.218 1323.36 L183.218 1297 L174.908 1298.66 L174.908 1294.4 L183.172 1292.74 L187.848 1292.74 L187.848 1323.36 L195.487 1323.36 L195.487 1327.3 L175.579 1327.3 L175.579 1323.36 Z" fill="#000000" fill-rule="evenodd" fill-opacity="1" /><path clip-path="url(#clip690)" d="M215.51 1308.15 Q212.361 1308.15 210.51 1310.31 Q208.681 1312.46 208.681 1316.21 Q208.681 1319.94 210.51 1322.11 Q212.361 1324.26 215.51 1324.26 Q218.658 1324.26 220.486 1322.11 Q222.338 1319.94 222.338 1316.21 Q222.338 1312.46 220.486 1310.31 Q218.658 1308.15 215.51 1308.15 M224.792 1293.5 L224.792 1297.76 Q223.033 1296.93 221.227 1296.49 Q219.445 1296.05 217.686 1296.05 Q213.056 1296.05 210.602 1299.17 Q208.172 1302.3 207.824 1308.62 Q209.19 1306.6 211.25 1305.54 Q213.311 1304.45 215.787 1304.45 Q220.996 1304.45 224.005 1307.62 Q227.037 1310.77 227.037 1316.21 Q227.037 1321.53 223.889 1324.75 Q220.741 1327.97 215.51 1327.97 Q209.514 1327.97 206.343 1323.39 Q203.172 1318.78 203.172 1310.05 Q203.172 1301.86 207.061 1297 Q210.949 1292.11 217.5 1292.11 Q219.26 1292.11 221.042 1292.46 Q222.848 1292.81 224.792 1293.5 Z" fill="#000000" fill-rule="evenodd" fill-opacity="1" /><path clip-path="url(#clip690)" d="M115.51 1038.5 L123.149 1038.5 L123.149 1012.14 L114.839 1013.8 L114.839 1009.55 L123.103 1007.88 L127.779 1007.88 L127.779 1038.5 L135.417 1038.5 L135.417 1042.44 L115.51 1042.44 L115.51 1038.5 Z" fill="#000000" fill-rule="evenodd" fill-opacity="1" /><path clip-path="url(#clip690)" d="M154.862 1010.96 Q151.251 1010.96 149.422 1014.52 Q147.616 1018.06 147.616 1025.19 Q147.616 1032.3 149.422 1035.86 Q151.251 1039.41 154.862 1039.41 Q158.496 1039.41 160.302 1035.86 Q162.13 1032.3 162.13 1025.19 Q162.13 1018.06 160.302 1014.52 Q158.496 1010.96 154.862 1010.96 M154.862 1007.25 Q160.672 1007.25 163.727 1011.86 Q166.806 1016.44 166.806 1025.19 Q166.806 1033.92 163.727 1038.53 Q160.672 1043.11 154.862 1043.11 Q149.052 1043.11 145.973 1038.53 Q142.917 1033.92 142.917 1025.19 Q142.917 1016.44 145.973 1011.86 Q149.052 1007.25 154.862 1007.25 Z" fill="#000000" fill-rule="evenodd" fill-opacity="1" /><path clip-path="url(#clip690)" d="M175.834 1038.5 L183.473 1038.5 L183.473 1012.14 L175.163 1013.8 L175.163 1009.55 L183.426 1007.88 L188.102 1007.88 L188.102 1038.5 L195.741 1038.5 L195.741 1042.44 L175.834 1042.44 L175.834 1038.5 Z" fill="#000000" fill-rule="evenodd" fill-opacity="1" /><path clip-path="url(#clip690)" d="M215.186 1026.03 Q211.852 1026.03 209.931 1027.81 Q208.033 1029.59 208.033 1032.72 Q208.033 1035.84 209.931 1037.62 Q211.852 1039.41 215.186 1039.41 Q218.519 1039.41 220.44 1037.62 Q222.361 1035.82 222.361 1032.72 Q222.361 1029.59 220.44 1027.81 Q218.542 1026.03 215.186 1026.03 M210.51 1024.04 Q207.5 1023.3 205.811 1021.24 Q204.144 1019.18 204.144 1016.21 Q204.144 1012.07 207.084 1009.66 Q210.047 1007.25 215.186 1007.25 Q220.348 1007.25 223.287 1009.66 Q226.227 1012.07 226.227 1016.21 Q226.227 1019.18 224.537 1021.24 Q222.871 1023.3 219.885 1024.04 Q223.264 1024.82 225.139 1027.11 Q227.037 1029.41 227.037 1032.72 Q227.037 1037.74 223.959 1040.43 Q220.903 1043.11 215.186 1043.11 Q209.468 1043.11 206.389 1040.43 Q203.334 1037.74 203.334 1032.72 Q203.334 1029.41 205.232 1027.11 Q207.13 1024.82 210.51 1024.04 M208.797 1016.65 Q208.797 1019.34 210.463 1020.84 Q212.153 1022.35 215.186 1022.35 Q218.195 1022.35 219.885 1020.84 Q221.598 1019.34 221.598 1016.65 Q221.598 1013.97 219.885 1012.46 Q218.195 1010.96 215.186 1010.96 Q212.153 1010.96 210.463 1012.46 Q208.797 1013.97 208.797 1016.65 Z" fill="#000000" fill-rule="evenodd" fill-opacity="1" /><path clip-path="url(#clip690)" d="M115.418 753.645 L123.056 753.645 L123.056 727.28 L114.746 728.946 L114.746 724.687 L123.01 723.021 L127.686 723.021 L127.686 753.645 L135.325 753.645 L135.325 757.581 L115.418 757.581 L115.418 753.645 Z" fill="#000000" fill-rule="evenodd" fill-opacity="1" /><path clip-path="url(#clip690)" d="M154.769 726.099 Q151.158 726.099 149.329 729.664 Q147.524 733.206 147.524 740.335 Q147.524 747.442 149.329 751.007 Q151.158 754.548 154.769 754.548 Q158.403 754.548 160.209 751.007 Q162.038 747.442 162.038 740.335 Q162.038 733.206 160.209 729.664 Q158.403 726.099 154.769 726.099 M154.769 722.396 Q160.579 722.396 163.635 727.002 Q166.714 731.585 166.714 740.335 Q166.714 749.062 163.635 753.669 Q160.579 758.252 154.769 758.252 Q148.959 758.252 145.88 753.669 Q142.825 749.062 142.825 740.335 Q142.825 731.585 145.88 727.002 Q148.959 722.396 154.769 722.396 Z" fill="#000000" fill-rule="evenodd" fill-opacity="1" /><path clip-path="url(#clip690)" d="M178.959 753.645 L195.278 753.645 L195.278 757.581 L173.334 757.581 L173.334 753.645 Q175.996 750.891 180.579 746.261 Q185.186 741.608 186.366 740.266 Q188.612 737.743 189.491 736.007 Q190.394 734.247 190.394 732.558 Q190.394 729.803 188.45 728.067 Q186.528 726.331 183.426 726.331 Q181.227 726.331 178.774 727.095 Q176.343 727.859 173.565 729.409 L173.565 724.687 Q176.389 723.553 178.843 722.974 Q181.297 722.396 183.334 722.396 Q188.704 722.396 191.899 725.081 Q195.093 727.766 195.093 732.257 Q195.093 734.386 194.283 736.308 Q193.496 738.206 191.389 740.798 Q190.811 741.47 187.709 744.687 Q184.607 747.882 178.959 753.645 Z" fill="#000000" fill-rule="evenodd" fill-opacity="1" /><path clip-path="url(#clip690)" d="M215.093 726.099 Q211.482 726.099 209.653 729.664 Q207.848 733.206 207.848 740.335 Q207.848 747.442 209.653 751.007 Q211.482 754.548 215.093 754.548 Q218.727 754.548 220.533 751.007 Q222.361 747.442 222.361 740.335 Q222.361 733.206 220.533 729.664 Q218.727 726.099 215.093 726.099 M215.093 722.396 Q220.903 722.396 223.959 727.002 Q227.037 731.585 227.037 740.335 Q227.037 749.062 223.959 753.669 Q220.903 758.252 215.093 758.252 Q209.283 758.252 206.204 753.669 Q203.149 749.062 203.149 740.335 Q203.149 731.585 206.204 727.002 Q209.283 722.396 215.093 722.396 Z" fill="#000000" fill-rule="evenodd" fill-opacity="1" /><path clip-path="url(#clip690)" d="M117.015 468.787 L124.654 468.787 L124.654 442.421 L116.343 444.088 L116.343 439.829 L124.607 438.162 L129.283 438.162 L129.283 468.787 L136.922 468.787 L136.922 472.722 L117.015 472.722 L117.015 468.787 Z" fill="#000000" fill-rule="evenodd" fill-opacity="1" /><path clip-path="url(#clip690)" d="M156.366 441.241 Q152.755 441.241 150.927 444.806 Q149.121 448.347 149.121 455.477 Q149.121 462.583 150.927 466.148 Q152.755 469.69 156.366 469.69 Q160.001 469.69 161.806 466.148 Q163.635 462.583 163.635 455.477 Q163.635 448.347 161.806 444.806 Q160.001 441.241 156.366 441.241 M156.366 437.537 Q162.177 437.537 165.232 442.144 Q168.311 446.727 168.311 455.477 Q168.311 464.204 165.232 468.81 Q162.177 473.394 156.366 473.394 Q150.556 473.394 147.478 468.81 Q144.422 464.204 144.422 455.477 Q144.422 446.727 147.478 442.144 Q150.556 437.537 156.366 437.537 Z" fill="#000000" fill-rule="evenodd" fill-opacity="1" /><path clip-path="url(#clip690)" d="M180.556 468.787 L196.875 468.787 L196.875 472.722 L174.931 472.722 L174.931 468.787 Q177.593 466.032 182.176 461.403 Q186.783 456.75 187.963 455.407 Q190.209 452.884 191.088 451.148 Q191.991 449.389 191.991 447.699 Q191.991 444.945 190.047 443.208 Q188.126 441.472 185.024 441.472 Q182.825 441.472 180.371 442.236 Q177.94 443 175.163 444.551 L175.163 439.829 Q177.987 438.695 180.44 438.116 Q182.894 437.537 184.931 437.537 Q190.301 437.537 193.496 440.222 Q196.69 442.908 196.69 447.398 Q196.69 449.528 195.88 451.449 Q195.093 453.347 192.987 455.94 Q192.408 456.611 189.306 459.829 Q186.204 463.023 180.556 468.787 Z" fill="#000000" fill-rule="evenodd" fill-opacity="1" /><path clip-path="url(#clip690)" d="M210.718 468.787 L227.037 468.787 L227.037 472.722 L205.093 472.722 L205.093 468.787 Q207.755 466.032 212.338 461.403 Q216.945 456.75 218.125 455.407 Q220.371 452.884 221.25 451.148 Q222.153 449.389 222.153 447.699 Q222.153 444.945 220.209 443.208 Q218.287 441.472 215.186 441.472 Q212.986 441.472 210.533 442.236 Q208.102 443 205.324 444.551 L205.324 439.829 Q208.149 438.695 210.602 438.116 Q213.056 437.537 215.093 437.537 Q220.463 437.537 223.658 440.222 Q226.852 442.908 226.852 447.398 Q226.852 449.528 226.042 451.449 Q225.255 453.347 223.148 455.94 Q222.57 456.611 219.468 459.829 Q216.366 463.023 210.718 468.787 Z" fill="#000000" fill-rule="evenodd" fill-opacity="1" /><path clip-path="url(#clip690)" d="M114.931 183.929 L122.57 183.929 L122.57 157.563 L114.26 159.23 L114.26 154.971 L122.524 153.304 L127.2 153.304 L127.2 183.929 L134.839 183.929 L134.839 187.864 L114.931 187.864 L114.931 183.929 Z" fill="#000000" fill-rule="evenodd" fill-opacity="1" /><path clip-path="url(#clip690)" d="M154.283 156.383 Q150.672 156.383 148.843 159.947 Q147.038 163.489 147.038 170.619 Q147.038 177.725 148.843 181.29 Q150.672 184.831 154.283 184.831 Q157.917 184.831 159.723 181.29 Q161.552 177.725 161.552 170.619 Q161.552 163.489 159.723 159.947 Q157.917 156.383 154.283 156.383 M154.283 152.679 Q160.093 152.679 163.149 157.285 Q166.227 161.869 166.227 170.619 Q166.227 179.345 163.149 183.952 Q160.093 188.535 154.283 188.535 Q148.473 188.535 145.394 183.952 Q142.339 179.345 142.339 170.619 Q142.339 161.869 145.394 157.285 Q148.473 152.679 154.283 152.679 Z" fill="#000000" fill-rule="evenodd" fill-opacity="1" /><path clip-path="url(#clip690)" d="M178.473 183.929 L194.792 183.929 L194.792 187.864 L172.848 187.864 L172.848 183.929 Q175.51 181.174 180.093 176.544 Q184.7 171.892 185.88 170.549 Q188.126 168.026 189.005 166.29 Q189.908 164.531 189.908 162.841 Q189.908 160.086 187.963 158.35 Q186.042 156.614 182.94 156.614 Q180.741 156.614 178.288 157.378 Q175.857 158.142 173.079 159.693 L173.079 154.971 Q175.903 153.836 178.357 153.258 Q180.811 152.679 182.848 152.679 Q188.218 152.679 191.413 155.364 Q194.607 158.049 194.607 162.54 Q194.607 164.67 193.797 166.591 Q193.01 168.489 190.903 171.082 Q190.325 171.753 187.223 174.97 Q184.121 178.165 178.473 183.929 Z" fill="#000000" fill-rule="evenodd" fill-opacity="1" /><path clip-path="url(#clip690)" d="M217.454 157.378 L205.649 175.827 L217.454 175.827 L217.454 157.378 M216.227 153.304 L222.107 153.304 L222.107 175.827 L227.037 175.827 L227.037 179.716 L222.107 179.716 L222.107 187.864 L217.454 187.864 L217.454 179.716 L201.852 179.716 L201.852 175.202 L216.227 153.304 Z" fill="#000000" fill-rule="evenodd" fill-opacity="1" /><path clip-path="url(#clip690)" d="M21.7677 894.672 L39.6235 894.672 L39.6235 886.588 Q39.6235 882.1 37.3 879.649 Q34.9765 877.198 30.6797 877.198 Q26.4147 877.198 24.0912 879.649 Q21.7677 882.1 21.7677 886.588 L21.7677 894.672 M16.4842 901.102 L16.4842 886.588 Q16.4842 878.599 20.1126 874.525 Q23.7092 870.419 30.6797 870.419 Q37.7138 870.419 41.3104 874.525 Q44.907 878.599 44.907 886.588 L44.907 894.672 L64.0042 894.672 L64.0042 901.102 L16.4842 901.102 Z" fill="#000000" fill-rule="evenodd" fill-opacity="1" /><path clip-path="url(#clip690)" d="M33.8307 842.537 Q33.2578 843.524 33.0032 844.701 Q32.7167 845.847 32.7167 847.248 Q32.7167 852.213 35.9632 854.887 Q39.1779 857.528 45.2253 857.528 L64.0042 857.528 L64.0042 863.417 L28.3562 863.417 L28.3562 857.528 L33.8944 857.528 Q30.6479 855.682 29.0883 852.722 Q27.4968 849.762 27.4968 845.529 Q27.4968 844.924 27.5923 844.192 Q27.656 843.46 27.8151 842.569 L33.8307 842.537 Z" fill="#000000" fill-rule="evenodd" fill-opacity="1" /><path clip-path="url(#clip690)" d="M29.4065 813.669 L34.9447 813.669 Q33.6716 816.151 33.035 818.825 Q32.3984 821.498 32.3984 824.363 Q32.3984 828.724 33.7352 830.92 Q35.072 833.084 37.7456 833.084 Q39.7826 833.084 40.9603 831.524 Q42.1061 829.965 43.1565 825.254 L43.6021 823.249 Q44.9389 817.011 47.3897 814.401 Q49.8086 811.759 54.1691 811.759 Q59.1344 811.759 62.0308 815.706 Q64.9272 819.621 64.9272 826.496 Q64.9272 829.36 64.3543 832.479 Q63.8132 835.567 62.6992 839.004 L56.6518 839.004 Q58.3387 835.758 59.198 832.607 Q60.0256 829.456 60.0256 826.368 Q60.0256 822.231 58.6251 820.003 Q57.1929 817.775 54.6147 817.775 Q52.2276 817.775 50.9545 819.398 Q49.6813 820.989 48.5037 826.432 L48.0262 828.469 Q46.8804 833.912 44.5251 836.331 Q42.138 838.75 38.0002 838.75 Q32.9713 838.75 30.2341 835.185 Q27.4968 831.62 27.4968 825.063 Q27.4968 821.817 27.9743 818.952 Q28.4517 816.088 29.4065 813.669 Z" fill="#000000" fill-rule="evenodd" fill-opacity="1" /><path clip-path="url(#clip690)" d="M55.9197 801.606 L55.9197 794.89 L64.0042 794.89 L64.0042 801.606 L55.9197 801.606 Z" fill="#000000" fill-rule="evenodd" fill-opacity="1" /><path clip-path="url(#clip690)" d="M14.479 761.534 L14.479 748.038 L19.0304 748.038 L19.0304 755.677 L68.0464 755.677 L68.0464 748.038 L72.5979 748.038 L72.5979 761.534 L14.479 761.534 Z" fill="#000000" fill-rule="evenodd" fill-opacity="1" /><path clip-path="url(#clip690)" d="M21.7677 728.877 L39.6235 728.877 L39.6235 720.793 Q39.6235 716.305 37.3 713.854 Q34.9765 711.404 30.6797 711.404 Q26.4147 711.404 24.0912 713.854 Q21.7677 716.305 21.7677 720.793 L21.7677 728.877 M16.4842 735.307 L16.4842 720.793 Q16.4842 712.804 20.1126 708.73 Q23.7092 704.624 30.6797 704.624 Q37.7138 704.624 41.3104 708.73 Q44.907 712.804 44.907 720.793 L44.907 728.877 L64.0042 728.877 L64.0042 735.307 L16.4842 735.307 Z" fill="#000000" fill-rule="evenodd" fill-opacity="1" /><path clip-path="url(#clip690)" d="M46.0847 682.981 Q46.0847 690.078 47.7079 692.816 Q49.3312 695.553 53.2461 695.553 Q56.3653 695.553 58.2114 693.516 Q60.0256 691.447 60.0256 687.914 Q60.0256 683.044 56.5881 680.116 Q53.1188 677.156 47.3897 677.156 L46.0847 677.156 L46.0847 682.981 M43.6657 671.3 L64.0042 671.3 L64.0042 677.156 L58.5933 677.156 Q61.8398 679.161 63.3994 682.153 Q64.9272 685.145 64.9272 689.474 Q64.9272 694.948 61.8716 698.195 Q58.7843 701.409 53.6281 701.409 Q47.6125 701.409 44.5569 697.399 Q41.5014 693.357 41.5014 685.368 L41.5014 677.156 L40.9285 677.156 Q36.8862 677.156 34.6901 679.83 Q32.4621 682.471 32.4621 687.278 Q32.4621 690.333 33.1941 693.229 Q33.9262 696.126 35.3903 698.799 L29.9795 698.799 Q28.7381 695.585 28.1334 692.561 Q27.4968 689.537 27.4968 686.673 Q27.4968 678.938 31.5072 675.119 Q35.5176 671.3 43.6657 671.3 Z" fill="#000000" fill-rule="evenodd" fill-opacity="1" /><path clip-path="url(#clip690)" d="M14.479 645.55 L72.5979 645.55 L72.5979 659.046 L68.0464 659.046 L68.0464 651.439 L19.0304 651.439 L19.0304 659.046 L14.479 659.046 L14.479 645.55 Z" fill="#000000" fill-rule="evenodd" fill-opacity="1" /><path clip-path="url(#clip690)" d="M1145.23 18.8205 L1145.23 41.5461 L1155.52 41.5461 Q1161.23 41.5461 1164.35 38.5889 Q1167.47 35.6318 1167.47 30.163 Q1167.47 24.7348 1164.35 21.7777 Q1161.23 18.8205 1155.52 18.8205 L1145.23 18.8205 M1137.05 12.096 L1155.52 12.096 Q1165.69 12.096 1170.87 16.714 Q1176.1 21.2916 1176.1 30.163 Q1176.1 39.1155 1170.87 43.6931 Q1165.69 48.2706 1155.52 48.2706 L1145.23 48.2706 L1145.23 72.576 L1137.05 72.576 L1137.05 12.096 Z" fill="#000000" fill-rule="evenodd" fill-opacity="1" /><path clip-path="url(#clip690)" d="M1211.59 34.1734 Q1210.33 33.4443 1208.83 33.1202 Q1207.37 32.7556 1205.59 32.7556 Q1199.27 32.7556 1195.87 36.8875 Q1192.51 40.9789 1192.51 48.6757 L1192.51 72.576 L1185.01 72.576 L1185.01 27.2059 L1192.51 27.2059 L1192.51 34.2544 Q1194.86 30.1225 1198.62 28.1376 Q1202.39 26.1121 1207.78 26.1121 Q1208.55 26.1121 1209.48 26.2337 Q1210.41 26.3147 1211.55 26.5172 L1211.59 34.1734 Z" fill="#000000" fill-rule="evenodd" fill-opacity="1" /><path clip-path="url(#clip690)" d="M1256.39 48.0275 L1256.39 51.6733 L1222.12 51.6733 Q1222.6 59.3701 1226.74 63.421 Q1230.91 67.4314 1238.32 67.4314 Q1242.62 67.4314 1246.63 66.3781 Q1250.68 65.3249 1254.65 63.2184 L1254.65 70.267 Q1250.64 71.9684 1246.42 72.8596 Q1242.21 73.7508 1237.88 73.7508 Q1227.02 73.7508 1220.66 67.4314 Q1214.34 61.1119 1214.34 50.3365 Q1214.34 39.1965 1220.34 32.6746 Q1226.37 26.1121 1236.58 26.1121 Q1245.74 26.1121 1251.04 32.0264 Q1256.39 37.9003 1256.39 48.0275 M1248.94 45.84 Q1248.85 39.7232 1245.49 36.0774 Q1242.17 32.4315 1236.66 32.4315 Q1230.42 32.4315 1226.66 35.9558 Q1222.93 39.4801 1222.36 45.8805 L1248.94 45.84 Z" fill="#000000" fill-rule="evenodd" fill-opacity="1" /><path clip-path="url(#clip690)" d="M1297.55 28.5427 L1297.55 35.5912 Q1294.39 33.9709 1290.98 33.1607 Q1287.58 32.3505 1283.94 32.3505 Q1278.39 32.3505 1275.59 34.0519 Q1272.84 35.7533 1272.84 39.156 Q1272.84 41.7486 1274.82 43.2475 Q1276.81 44.7058 1282.8 46.0426 L1285.35 46.6097 Q1293.29 48.3111 1296.61 51.4303 Q1299.98 54.509 1299.98 60.0587 Q1299.98 66.3781 1294.95 70.0644 Q1289.97 73.7508 1281.22 73.7508 Q1277.58 73.7508 1273.61 73.0216 Q1269.68 72.3329 1265.3 70.9151 L1265.3 63.2184 Q1269.43 65.3654 1273.44 66.4591 Q1277.45 67.5124 1281.38 67.5124 Q1286.65 67.5124 1289.49 65.73 Q1292.32 63.9071 1292.32 60.6258 Q1292.32 57.5877 1290.25 55.9673 Q1288.23 54.3469 1281.3 52.8481 L1278.71 52.2405 Q1271.78 50.7821 1268.7 47.7845 Q1265.63 44.7463 1265.63 39.4801 Q1265.63 33.0797 1270.16 29.5959 Q1274.7 26.1121 1283.04 26.1121 Q1287.18 26.1121 1290.82 26.7198 Q1294.47 27.3274 1297.55 28.5427 Z" fill="#000000" fill-rule="evenodd" fill-opacity="1" /><path clip-path="url(#clip690)" d="M1340.77 28.5427 L1340.77 35.5912 Q1337.61 33.9709 1334.21 33.1607 Q1330.8 32.3505 1327.16 32.3505 Q1321.61 32.3505 1318.81 34.0519 Q1316.06 35.7533 1316.06 39.156 Q1316.06 41.7486 1318.04 43.2475 Q1320.03 44.7058 1326.02 46.0426 L1328.58 46.6097 Q1336.52 48.3111 1339.84 51.4303 Q1343.2 54.509 1343.2 60.0587 Q1343.2 66.3781 1338.18 70.0644 Q1333.19 73.7508 1324.44 73.7508 Q1320.8 73.7508 1316.83 73.0216 Q1312.9 72.3329 1308.52 70.9151 L1308.52 63.2184 Q1312.66 65.3654 1316.67 66.4591 Q1320.68 67.5124 1324.61 67.5124 Q1329.87 67.5124 1332.71 65.73 Q1335.54 63.9071 1335.54 60.6258 Q1335.54 57.5877 1333.48 55.9673 Q1331.45 54.3469 1324.53 52.8481 L1321.93 52.2405 Q1315.01 50.7821 1311.93 47.7845 Q1308.85 44.7463 1308.85 39.4801 Q1308.85 33.0797 1313.39 29.5959 Q1317.92 26.1121 1326.27 26.1121 Q1330.4 26.1121 1334.05 26.7198 Q1337.69 27.3274 1340.77 28.5427 Z" fill="#000000" fill-rule="evenodd" fill-opacity="1" /><path clip-path="url(#clip690)" d="M1354.3 54.671 L1354.3 27.2059 L1361.75 27.2059 L1361.75 54.3874 Q1361.75 60.8284 1364.26 64.0691 Q1366.78 67.2693 1371.8 67.2693 Q1377.84 67.2693 1381.32 63.421 Q1384.84 59.5726 1384.84 52.9291 L1384.84 27.2059 L1392.3 27.2059 L1392.3 72.576 L1384.84 72.576 L1384.84 65.6084 Q1382.13 69.7404 1378.52 71.7658 Q1374.96 73.7508 1370.22 73.7508 Q1362.4 73.7508 1358.35 68.8897 Q1354.3 64.0286 1354.3 54.671 M1373.06 26.1121 L1373.06 26.1121 Z" fill="#000000" fill-rule="evenodd" fill-opacity="1" /><path clip-path="url(#clip690)" d="M1433.94 34.1734 Q1432.68 33.4443 1431.19 33.1202 Q1429.73 32.7556 1427.95 32.7556 Q1421.63 32.7556 1418.22 36.8875 Q1414.86 40.9789 1414.86 48.6757 L1414.86 72.576 L1407.37 72.576 L1407.37 27.2059 L1414.86 27.2059 L1414.86 34.2544 Q1417.21 30.1225 1420.98 28.1376 Q1424.74 26.1121 1430.13 26.1121 Q1430.9 26.1121 1431.83 26.2337 Q1432.77 26.3147 1433.9 26.5172 L1433.94 34.1734 Z" fill="#000000" fill-rule="evenodd" fill-opacity="1" /><path clip-path="url(#clip690)" d="M1478.74 48.0275 L1478.74 51.6733 L1444.47 51.6733 Q1444.96 59.3701 1449.09 63.421 Q1453.26 67.4314 1460.68 67.4314 Q1464.97 67.4314 1468.98 66.3781 Q1473.03 65.3249 1477 63.2184 L1477 70.267 Q1472.99 71.9684 1468.78 72.8596 Q1464.57 73.7508 1460.23 73.7508 Q1449.37 73.7508 1443.01 67.4314 Q1436.7 61.1119 1436.7 50.3365 Q1436.7 39.1965 1442.69 32.6746 Q1448.73 26.1121 1458.93 26.1121 Q1468.09 26.1121 1473.4 32.0264 Q1478.74 37.9003 1478.74 48.0275 M1471.29 45.84 Q1471.21 39.7232 1467.85 36.0774 Q1464.52 32.4315 1459.02 32.4315 Q1452.78 32.4315 1449.01 35.9558 Q1445.28 39.4801 1444.72 45.8805 L1471.29 45.84 Z" fill="#000000" fill-rule="evenodd" fill-opacity="1" /><polyline clip-path="url(#clip692)" style="stroke:#009af9; stroke-linecap:butt; stroke-linejoin:round; stroke-width:4; stroke-opacity:1; fill:none" points="
  322.18,164.186 340.704,164.533 359.228,166.498 377.752,171.653 396.275,167.924 414.799,171.123 433.323,167.211 451.847,172.01 470.371,169.158 488.894,174.504 
  507.418,172.905 525.942,169.349 544.465,171.297 562.989,170.41 581.513,171.479 600.037,166.672 618.56,167.559 637.084,168.637 655.608,166.307 674.131,168.81 
  692.655,170.584 711.179,171.297 729.703,189.283 748.226,226.133 766.75,263.523 785.274,300.73 803.798,344.352 822.321,379.246 840.845,429.276 859.369,468.439 
  877.893,510.461 896.416,555.144 914.94,592.534 933.464,639.538 951.988,683.864 970.511,722.497 989.035,767.189 1007.56,811.159 1026.08,846.766 1044.61,890.919 
  1063.13,930.977 1081.65,968.01 1100.18,1008.96 1118.7,1052.22 1137.22,1097.98 1155.76,1137.5 1174.27,1178.63 1192.8,1219.23 1211.32,1259.99 1229.84,1300.94 
  1248.37,1338.5 1266.89,1363.97 1285.42,1380.16 1291.48,1380.35 1293.33,1375.54 1311.85,1380.56 1330.38,1380.63 1348.9,1380.7 1367.43,1377.14 1385.95,1381.77 
  1404.47,1386.4 1423,1383.91 1441.52,1381.94 1460.04,1384.44 1478.57,1382.84 1497.09,1381.59 1515.62,1361.12 1534.14,1331.74 1552.66,1291.33 1571.19,1250.2 
  1589.71,1204.8 1608.23,1170.97 1626.76,1122.72 1645.28,1079.82 1663.81,1037.8 1682.33,998.992 1700.85,960.36 1719.38,919.589 1737.9,882.912 1756.42,840.003 
  1774.95,784.992 1793.47,745.464 1812,702.207 1830.52,665.887 1849.04,617.814 1867.57,580.25 1886.09,531.647 1904.61,493.727 1923.14,455.268 1941.66,409.16 
  1960.19,363.581 1978.71,322.271 1997.23,279.188 2015.76,235.748 2034.28,198.185 2052.8,178.773 2071.33,165.42 2089.85,160.256 2108.38,160.256 2126.9,166.498 
  2145.42,162.221 2163.95,171.297 2182.47,167.732 2200.99,164.186 2219.52,167.924 2238.04,164.36 2256.57,168.984 2275.09,168.984 2293.61,160.448 
  "/>
<path clip-path="url(#clip690)" d="
M1497.14 270.476 L2283.1 270.476 L2283.1 166.796 L1497.14 166.796  Z
  " fill="#ffffff" fill-rule="evenodd" fill-opacity="1"/>
<polyline clip-path="url(#clip690)" style="stroke:#000000; stroke-linecap:butt; stroke-linejoin:round; stroke-width:4; stroke-opacity:1; fill:none" points="
  1497.14,270.476 2283.1,270.476 2283.1,166.796 1497.14,166.796 1497.14,270.476 
  "/>
<polyline clip-path="url(#clip690)" style="stroke:#009af9; stroke-linecap:butt; stroke-linejoin:round; stroke-width:4; stroke-opacity:1; fill:none" points="
  1520.36,218.636 1659.67,218.636 
  "/>
<path clip-path="url(#clip690)" d="M1687.17 232.027 L1687.17 245.777 L1682.89 245.777 L1682.89 209.99 L1687.17 209.99 L1687.17 213.925 Q1688.52 211.61 1690.55 210.499 Q1692.61 209.365 1695.46 209.365 Q1700.18 209.365 1703.12 213.115 Q1706.08 216.865 1706.08 222.976 Q1706.08 229.087 1703.12 232.837 Q1700.18 236.587 1695.46 236.587 Q1692.61 236.587 1690.55 235.476 Q1688.52 234.342 1687.17 232.027 M1701.66 222.976 Q1701.66 218.277 1699.72 215.615 Q1697.8 212.93 1694.42 212.93 Q1691.04 212.93 1689.09 215.615 Q1687.17 218.277 1687.17 222.976 Q1687.17 227.675 1689.09 230.36 Q1691.04 233.022 1694.42 233.022 Q1697.8 233.022 1699.72 230.36 Q1701.66 227.675 1701.66 222.976 Z" fill="#000000" fill-rule="evenodd" fill-opacity="1" /><path clip-path="url(#clip690)" d="M1728.17 213.971 Q1727.45 213.555 1726.59 213.37 Q1725.76 213.161 1724.74 213.161 Q1721.13 213.161 1719.19 215.522 Q1717.27 217.86 1717.27 222.258 L1717.27 235.916 L1712.98 235.916 L1712.98 209.99 L1717.27 209.99 L1717.27 214.018 Q1718.61 211.657 1720.76 210.522 Q1722.91 209.365 1725.99 209.365 Q1726.43 209.365 1726.96 209.434 Q1727.5 209.481 1728.14 209.596 L1728.17 213.971 Z" fill="#000000" fill-rule="evenodd" fill-opacity="1" /><path clip-path="url(#clip690)" d="M1753.77 221.888 L1753.77 223.971 L1734.19 223.971 Q1734.46 228.369 1736.83 230.684 Q1739.21 232.976 1743.45 232.976 Q1745.9 232.976 1748.19 232.374 Q1750.51 231.772 1752.77 230.569 L1752.77 234.596 Q1750.48 235.568 1748.08 236.078 Q1745.67 236.587 1743.19 236.587 Q1736.99 236.587 1733.35 232.976 Q1729.74 229.365 1729.74 223.207 Q1729.74 216.842 1733.17 213.115 Q1736.62 209.365 1742.45 209.365 Q1747.68 209.365 1750.71 212.745 Q1753.77 216.101 1753.77 221.888 M1749.51 220.638 Q1749.46 217.143 1747.54 215.059 Q1745.64 212.976 1742.5 212.976 Q1738.93 212.976 1736.78 214.99 Q1734.65 217.004 1734.33 220.661 L1749.51 220.638 Z" fill="#000000" fill-rule="evenodd" fill-opacity="1" /><path clip-path="url(#clip690)" d="M1777.29 210.754 L1777.29 214.782 Q1775.48 213.856 1773.54 213.393 Q1771.59 212.93 1769.51 212.93 Q1766.34 212.93 1764.74 213.902 Q1763.17 214.874 1763.17 216.819 Q1763.17 218.3 1764.3 219.157 Q1765.44 219.99 1768.86 220.754 L1770.32 221.078 Q1774.86 222.05 1776.76 223.832 Q1778.68 225.592 1778.68 228.763 Q1778.68 232.374 1775.81 234.481 Q1772.96 236.587 1767.96 236.587 Q1765.88 236.587 1763.61 236.17 Q1761.36 235.777 1758.86 234.967 L1758.86 230.569 Q1761.22 231.795 1763.51 232.42 Q1765.81 233.022 1768.05 233.022 Q1771.06 233.022 1772.68 232.004 Q1774.3 230.962 1774.3 229.087 Q1774.3 227.351 1773.12 226.425 Q1771.96 225.499 1768.01 224.643 L1766.52 224.295 Q1762.57 223.462 1760.81 221.749 Q1759.05 220.013 1759.05 217.004 Q1759.05 213.346 1761.64 211.356 Q1764.23 209.365 1769 209.365 Q1771.36 209.365 1773.45 209.712 Q1775.53 210.059 1777.29 210.754 Z" fill="#000000" fill-rule="evenodd" fill-opacity="1" /><path clip-path="url(#clip690)" d="M1801.99 210.754 L1801.99 214.782 Q1800.18 213.856 1798.24 213.393 Q1796.29 212.93 1794.21 212.93 Q1791.04 212.93 1789.44 213.902 Q1787.87 214.874 1787.87 216.819 Q1787.87 218.3 1789 219.157 Q1790.14 219.99 1793.56 220.754 L1795.02 221.078 Q1799.56 222.05 1801.45 223.832 Q1803.38 225.592 1803.38 228.763 Q1803.38 232.374 1800.51 234.481 Q1797.66 236.587 1792.66 236.587 Q1790.57 236.587 1788.31 236.17 Q1786.06 235.777 1783.56 234.967 L1783.56 230.569 Q1785.92 231.795 1788.21 232.42 Q1790.51 233.022 1792.75 233.022 Q1795.76 233.022 1797.38 232.004 Q1799 230.962 1799 229.087 Q1799 227.351 1797.82 226.425 Q1796.66 225.499 1792.7 224.643 L1791.22 224.295 Q1787.26 223.462 1785.51 221.749 Q1783.75 220.013 1783.75 217.004 Q1783.75 213.346 1786.34 211.356 Q1788.93 209.365 1793.7 209.365 Q1796.06 209.365 1798.14 209.712 Q1800.23 210.059 1801.99 210.754 Z" fill="#000000" fill-rule="evenodd" fill-opacity="1" /><path clip-path="url(#clip690)" d="M1809.72 225.684 L1809.72 209.99 L1813.98 209.99 L1813.98 225.522 Q1813.98 229.203 1815.41 231.055 Q1816.85 232.883 1819.72 232.883 Q1823.17 232.883 1825.16 230.684 Q1827.17 228.485 1827.17 224.689 L1827.17 209.99 L1831.43 209.99 L1831.43 235.916 L1827.17 235.916 L1827.17 231.934 Q1825.62 234.295 1823.56 235.453 Q1821.52 236.587 1818.82 236.587 Q1814.35 236.587 1812.03 233.809 Q1809.72 231.031 1809.72 225.684 M1820.44 209.365 L1820.44 209.365 Z" fill="#000000" fill-rule="evenodd" fill-opacity="1" /><path clip-path="url(#clip690)" d="M1855.23 213.971 Q1854.51 213.555 1853.65 213.37 Q1852.82 213.161 1851.8 213.161 Q1848.19 213.161 1846.25 215.522 Q1844.32 217.86 1844.32 222.258 L1844.32 235.916 L1840.04 235.916 L1840.04 209.99 L1844.32 209.99 L1844.32 214.018 Q1845.67 211.657 1847.82 210.522 Q1849.97 209.365 1853.05 209.365 Q1853.49 209.365 1854.02 209.434 Q1854.56 209.481 1855.2 209.596 L1855.23 213.971 Z" fill="#000000" fill-rule="evenodd" fill-opacity="1" /><path clip-path="url(#clip690)" d="M1880.83 221.888 L1880.83 223.971 L1861.25 223.971 Q1861.52 228.369 1863.88 230.684 Q1866.27 232.976 1870.5 232.976 Q1872.96 232.976 1875.25 232.374 Q1877.57 231.772 1879.83 230.569 L1879.83 234.596 Q1877.54 235.568 1875.13 236.078 Q1872.73 236.587 1870.25 236.587 Q1864.05 236.587 1860.41 232.976 Q1856.8 229.365 1856.8 223.207 Q1856.8 216.842 1860.23 213.115 Q1863.68 209.365 1869.51 209.365 Q1874.74 209.365 1877.77 212.745 Q1880.83 216.101 1880.83 221.888 M1876.57 220.638 Q1876.52 217.143 1874.6 215.059 Q1872.7 212.976 1869.56 212.976 Q1865.99 212.976 1863.84 214.99 Q1861.71 217.004 1861.38 220.661 L1876.57 220.638 Z" fill="#000000" fill-rule="evenodd" fill-opacity="1" /><path clip-path="url(#clip690)" d="M1907.52 243.786 L1907.52 247.096 L1882.89 247.096 L1882.89 243.786 L1907.52 243.786 Z" fill="#000000" fill-rule="evenodd" fill-opacity="1" /><path clip-path="url(#clip690)" d="M1931.71 214.967 Q1933.31 212.096 1935.53 210.731 Q1937.75 209.365 1940.76 209.365 Q1944.81 209.365 1947.01 212.212 Q1949.21 215.036 1949.21 220.268 L1949.21 235.916 L1944.93 235.916 L1944.93 220.407 Q1944.93 216.68 1943.61 214.874 Q1942.29 213.069 1939.58 213.069 Q1936.27 213.069 1934.35 215.268 Q1932.43 217.467 1932.43 221.263 L1932.43 235.916 L1928.14 235.916 L1928.14 220.407 Q1928.14 216.657 1926.82 214.874 Q1925.5 213.069 1922.75 213.069 Q1919.49 213.069 1917.56 215.291 Q1915.64 217.49 1915.64 221.263 L1915.64 235.916 L1911.36 235.916 L1911.36 209.99 L1915.64 209.99 L1915.64 214.018 Q1917.1 211.633 1919.14 210.499 Q1921.18 209.365 1923.98 209.365 Q1926.8 209.365 1928.77 210.8 Q1930.76 212.235 1931.71 214.967 Z" fill="#000000" fill-rule="evenodd" fill-opacity="1" /><path clip-path="url(#clip690)" d="M1979.88 221.888 L1979.88 223.971 L1960.3 223.971 Q1960.57 228.369 1962.94 230.684 Q1965.32 232.976 1969.56 232.976 Q1972.01 232.976 1974.3 232.374 Q1976.62 231.772 1978.88 230.569 L1978.88 234.596 Q1976.59 235.568 1974.18 236.078 Q1971.78 236.587 1969.3 236.587 Q1963.1 236.587 1959.46 232.976 Q1955.85 229.365 1955.85 223.207 Q1955.85 216.842 1959.28 213.115 Q1962.73 209.365 1968.56 209.365 Q1973.79 209.365 1976.82 212.745 Q1979.88 216.101 1979.88 221.888 M1975.62 220.638 Q1975.57 217.143 1973.65 215.059 Q1971.75 212.976 1968.61 212.976 Q1965.04 212.976 1962.89 214.99 Q1960.76 217.004 1960.44 220.661 L1975.62 220.638 Z" fill="#000000" fill-rule="evenodd" fill-opacity="1" /><path clip-path="url(#clip690)" d="M1998.65 222.883 Q1993.49 222.883 1991.5 224.064 Q1989.51 225.244 1989.51 228.092 Q1989.51 230.36 1990.99 231.703 Q1992.5 233.022 1995.06 233.022 Q1998.61 233.022 2000.74 230.522 Q2002.89 227.999 2002.89 223.832 L2002.89 222.883 L1998.65 222.883 M2007.15 221.124 L2007.15 235.916 L2002.89 235.916 L2002.89 231.981 Q2001.43 234.342 1999.25 235.476 Q1997.08 236.587 1993.93 236.587 Q1989.95 236.587 1987.59 234.365 Q1985.25 232.119 1985.25 228.369 Q1985.25 223.994 1988.17 221.772 Q1991.11 219.55 1996.92 219.55 L2002.89 219.55 L2002.89 219.133 Q2002.89 216.194 2000.94 214.596 Q1999.02 212.976 1995.53 212.976 Q1993.31 212.976 1991.2 213.508 Q1989.09 214.041 1987.15 215.106 L1987.15 211.17 Q1989.49 210.268 1991.68 209.828 Q1993.88 209.365 1995.97 209.365 Q2001.59 209.365 2004.37 212.282 Q2007.15 215.198 2007.15 221.124 Z" fill="#000000" fill-rule="evenodd" fill-opacity="1" /><path clip-path="url(#clip690)" d="M2032.45 210.754 L2032.45 214.782 Q2030.64 213.856 2028.7 213.393 Q2026.75 212.93 2024.67 212.93 Q2021.5 212.93 2019.9 213.902 Q2018.33 214.874 2018.33 216.819 Q2018.33 218.3 2019.46 219.157 Q2020.6 219.99 2024.02 220.754 L2025.48 221.078 Q2030.02 222.05 2031.92 223.832 Q2033.84 225.592 2033.84 228.763 Q2033.84 232.374 2030.97 234.481 Q2028.12 236.587 2023.12 236.587 Q2021.04 236.587 2018.77 236.17 Q2016.52 235.777 2014.02 234.967 L2014.02 230.569 Q2016.38 231.795 2018.68 232.42 Q2020.97 233.022 2023.21 233.022 Q2026.22 233.022 2027.84 232.004 Q2029.46 230.962 2029.46 229.087 Q2029.46 227.351 2028.28 226.425 Q2027.12 225.499 2023.17 224.643 L2021.68 224.295 Q2017.73 223.462 2015.97 221.749 Q2014.21 220.013 2014.21 217.004 Q2014.21 213.346 2016.8 211.356 Q2019.39 209.365 2024.16 209.365 Q2026.52 209.365 2028.61 209.712 Q2030.69 210.059 2032.45 210.754 Z" fill="#000000" fill-rule="evenodd" fill-opacity="1" /><path clip-path="url(#clip690)" d="M2040.18 225.684 L2040.18 209.99 L2044.44 209.99 L2044.44 225.522 Q2044.44 229.203 2045.87 231.055 Q2047.31 232.883 2050.18 232.883 Q2053.63 232.883 2055.62 230.684 Q2057.63 228.485 2057.63 224.689 L2057.63 209.99 L2061.89 209.99 L2061.89 235.916 L2057.63 235.916 L2057.63 231.934 Q2056.08 234.295 2054.02 235.453 Q2051.99 236.587 2049.28 236.587 Q2044.81 236.587 2042.49 233.809 Q2040.18 231.031 2040.18 225.684 M2050.9 209.365 L2050.9 209.365 Z" fill="#000000" fill-rule="evenodd" fill-opacity="1" /><path clip-path="url(#clip690)" d="M2085.69 213.971 Q2084.97 213.555 2084.11 213.37 Q2083.28 213.161 2082.26 213.161 Q2078.65 213.161 2076.71 215.522 Q2074.79 217.86 2074.79 222.258 L2074.79 235.916 L2070.5 235.916 L2070.5 209.99 L2074.79 209.99 L2074.79 214.018 Q2076.13 211.657 2078.28 210.522 Q2080.43 209.365 2083.51 209.365 Q2083.95 209.365 2084.49 209.434 Q2085.02 209.481 2085.67 209.596 L2085.69 213.971 Z" fill="#000000" fill-rule="evenodd" fill-opacity="1" /><path clip-path="url(#clip690)" d="M2111.29 221.888 L2111.29 223.971 L2091.71 223.971 Q2091.99 228.369 2094.35 230.684 Q2096.73 232.976 2100.97 232.976 Q2103.42 232.976 2105.71 232.374 Q2108.03 231.772 2110.3 230.569 L2110.3 234.596 Q2108 235.568 2105.6 236.078 Q2103.19 236.587 2100.71 236.587 Q2094.51 236.587 2090.87 232.976 Q2087.26 229.365 2087.26 223.207 Q2087.26 216.842 2090.69 213.115 Q2094.14 209.365 2099.97 209.365 Q2105.2 209.365 2108.24 212.745 Q2111.29 216.101 2111.29 221.888 M2107.03 220.638 Q2106.99 217.143 2105.06 215.059 Q2103.17 212.976 2100.02 212.976 Q2096.45 212.976 2094.3 214.99 Q2092.17 217.004 2091.85 220.661 L2107.03 220.638 Z" fill="#000000" fill-rule="evenodd" fill-opacity="1" /><path clip-path="url(#clip690)" d="M2138.47 214.967 Q2140.06 212.096 2142.29 210.731 Q2144.51 209.365 2147.52 209.365 Q2151.57 209.365 2153.77 212.212 Q2155.97 215.036 2155.97 220.268 L2155.97 235.916 L2151.68 235.916 L2151.68 220.407 Q2151.68 216.68 2150.36 214.874 Q2149.05 213.069 2146.34 213.069 Q2143.03 213.069 2141.11 215.268 Q2139.18 217.467 2139.18 221.263 L2139.18 235.916 L2134.9 235.916 L2134.9 220.407 Q2134.9 216.657 2133.58 214.874 Q2132.26 213.069 2129.51 213.069 Q2126.24 213.069 2124.32 215.291 Q2122.4 217.49 2122.4 221.263 L2122.4 235.916 L2118.12 235.916 L2118.12 209.99 L2122.4 209.99 L2122.4 214.018 Q2123.86 211.633 2125.9 210.499 Q2127.93 209.365 2130.74 209.365 Q2133.56 209.365 2135.53 210.8 Q2137.52 212.235 2138.47 214.967 Z" fill="#000000" fill-rule="evenodd" fill-opacity="1" /><path clip-path="url(#clip690)" d="M2186.64 221.888 L2186.64 223.971 L2167.05 223.971 Q2167.33 228.369 2169.69 230.684 Q2172.08 232.976 2176.31 232.976 Q2178.77 232.976 2181.06 232.374 Q2183.37 231.772 2185.64 230.569 L2185.64 234.596 Q2183.35 235.568 2180.94 236.078 Q2178.54 236.587 2176.06 236.587 Q2169.86 236.587 2166.22 232.976 Q2162.61 229.365 2162.61 223.207 Q2162.61 216.842 2166.04 213.115 Q2169.48 209.365 2175.32 209.365 Q2180.55 209.365 2183.58 212.745 Q2186.64 216.101 2186.64 221.888 M2182.38 220.638 Q2182.33 217.143 2180.41 215.059 Q2178.51 212.976 2175.36 212.976 Q2171.8 212.976 2169.65 214.99 Q2167.52 217.004 2167.19 220.661 L2182.38 220.638 Z" fill="#000000" fill-rule="evenodd" fill-opacity="1" /><path clip-path="url(#clip690)" d="M2215.18 220.268 L2215.18 235.916 L2210.92 235.916 L2210.92 220.407 Q2210.92 216.726 2209.48 214.897 Q2208.05 213.069 2205.18 213.069 Q2201.73 213.069 2199.74 215.268 Q2197.75 217.467 2197.75 221.263 L2197.75 235.916 L2193.47 235.916 L2193.47 209.99 L2197.75 209.99 L2197.75 214.018 Q2199.28 211.68 2201.34 210.522 Q2203.42 209.365 2206.13 209.365 Q2210.6 209.365 2212.89 212.143 Q2215.18 214.897 2215.18 220.268 Z" fill="#000000" fill-rule="evenodd" fill-opacity="1" /><path clip-path="url(#clip690)" d="M2227.89 202.629 L2227.89 209.99 L2236.66 209.99 L2236.66 213.3 L2227.89 213.3 L2227.89 227.374 Q2227.89 230.545 2228.74 231.448 Q2229.62 232.351 2232.29 232.351 L2236.66 232.351 L2236.66 235.916 L2232.29 235.916 Q2227.35 235.916 2225.48 234.087 Q2223.6 232.235 2223.6 227.374 L2223.6 213.3 L2220.48 213.3 L2220.48 209.99 L2223.6 209.99 L2223.6 202.629 L2227.89 202.629 Z" fill="#000000" fill-rule="evenodd" fill-opacity="1" /></svg>
