<?xml version="1.0" encoding="utf-8"?>
<svg xmlns="http://www.w3.org/2000/svg" xmlns:xlink="http://www.w3.org/1999/xlink" width="600" height="400" viewBox="0 0 2400 1600">
<defs>
  <clipPath id="clip000">
    <rect x="0" y="0" width="2400" height="1600"/>
  </clipPath>
</defs>
<path clip-path="url(#clip000)" d="
M0 1600 L2400 1600 L2400 0 L0 0  Z
  " fill="#ffffff" fill-rule="evenodd" fill-opacity="1"/>
<defs>
  <clipPath id="clip001">
    <rect x="480" y="0" width="1681" height="1600"/>
  </clipPath>
</defs>
<path clip-path="url(#clip000)" d="
M211.325 1423.18 L2352.76 1423.18 L2352.76 123.472 L211.325 123.472  Z
  " fill="#ffffff" fill-rule="evenodd" fill-opacity="1"/>
<defs>
  <clipPath id="clip002">
    <rect x="211" y="123" width="2142" height="1301"/>
  </clipPath>
</defs>
<polyline clip-path="url(#clip002)" style="stroke:#000000; stroke-linecap:butt; stroke-linejoin:round; stroke-width:2; stroke-opacity:0.1; fill:none" points="
  271.216,1423.18 271.216,123.472 
  "/>
<polyline clip-path="url(#clip002)" style="stroke:#000000; stroke-linecap:butt; stroke-linejoin:round; stroke-width:2; stroke-opacity:0.1; fill:none" points="
  736.862,1423.18 736.862,123.472 
  "/>
<polyline clip-path="url(#clip002)" style="stroke:#000000; stroke-linecap:butt; stroke-linejoin:round; stroke-width:2; stroke-opacity:0.1; fill:none" points="
  1202.51,1423.18 1202.51,123.472 
  "/>
<polyline clip-path="url(#clip002)" style="stroke:#000000; stroke-linecap:butt; stroke-linejoin:round; stroke-width:2; stroke-opacity:0.1; fill:none" points="
  1668.15,1423.18 1668.15,123.472 
  "/>
<polyline clip-path="url(#clip002)" style="stroke:#000000; stroke-linecap:butt; stroke-linejoin:round; stroke-width:2; stroke-opacity:0.1; fill:none" points="
  2133.8,1423.18 2133.8,123.472 
  "/>
<polyline clip-path="url(#clip000)" style="stroke:#000000; stroke-linecap:butt; stroke-linejoin:round; stroke-width:4; stroke-opacity:1; fill:none" points="
  211.325,1423.18 2352.76,1423.18 
  "/>
<polyline clip-path="url(#clip000)" style="stroke:#000000; stroke-linecap:butt; stroke-linejoin:round; stroke-width:4; stroke-opacity:1; fill:none" points="
  271.216,1423.18 271.216,1404.28 
  "/>
<polyline clip-path="url(#clip000)" style="stroke:#000000; stroke-linecap:butt; stroke-linejoin:round; stroke-width:4; stroke-opacity:1; fill:none" points="
  736.862,1423.18 736.862,1404.28 
  "/>
<polyline clip-path="url(#clip000)" style="stroke:#000000; stroke-linecap:butt; stroke-linejoin:round; stroke-width:4; stroke-opacity:1; fill:none" points="
  1202.51,1423.18 1202.51,1404.28 
  "/>
<polyline clip-path="url(#clip000)" style="stroke:#000000; stroke-linecap:butt; stroke-linejoin:round; stroke-width:4; stroke-opacity:1; fill:none" points="
  1668.15,1423.18 1668.15,1404.28 
  "/>
<polyline clip-path="url(#clip000)" style="stroke:#000000; stroke-linecap:butt; stroke-linejoin:round; stroke-width:4; stroke-opacity:1; fill:none" points="
  2133.8,1423.18 2133.8,1404.28 
  "/>
<path clip-path="url(#clip000)" d="M271.216 1454.1 Q267.604 1454.1 265.776 1457.66 Q263.97 1461.2 263.97 1468.33 Q263.97 1475.44 265.776 1479.01 Q267.604 1482.55 271.216 1482.55 Q274.85 1482.55 276.655 1479.01 Q278.484 1475.44 278.484 1468.33 Q278.484 1461.2 276.655 1457.66 Q274.85 1454.1 271.216 1454.1 M271.216 1450.39 Q277.026 1450.39 280.081 1455 Q283.16 1459.58 283.16 1468.33 Q283.16 1477.06 280.081 1481.67 Q277.026 1486.25 271.216 1486.25 Q265.405 1486.25 262.327 1481.67 Q259.271 1477.06 259.271 1468.33 Q259.271 1459.58 262.327 1455 Q265.405 1450.39 271.216 1450.39 Z" fill="#000000" fill-rule="evenodd" fill-opacity="1" /><path clip-path="url(#clip000)" d="M716.132 1481.64 L732.452 1481.64 L732.452 1485.58 L710.508 1485.58 L710.508 1481.64 Q713.17 1478.89 717.753 1474.26 Q722.359 1469.61 723.54 1468.27 Q725.785 1465.74 726.665 1464.01 Q727.568 1462.25 727.568 1460.56 Q727.568 1457.8 725.623 1456.07 Q723.702 1454.33 720.6 1454.33 Q718.401 1454.33 715.947 1455.09 Q713.517 1455.86 710.739 1457.41 L710.739 1452.69 Q713.563 1451.55 716.017 1450.97 Q718.47 1450.39 720.507 1450.39 Q725.878 1450.39 729.072 1453.08 Q732.267 1455.77 732.267 1460.26 Q732.267 1462.39 731.456 1464.31 Q730.669 1466.2 728.563 1468.8 Q727.984 1469.47 724.882 1472.69 Q721.781 1475.88 716.132 1481.64 Z" fill="#000000" fill-rule="evenodd" fill-opacity="1" /><path clip-path="url(#clip000)" d="M742.313 1451.02 L760.669 1451.02 L760.669 1454.96 L746.595 1454.96 L746.595 1463.43 Q747.614 1463.08 748.632 1462.92 Q749.651 1462.73 750.669 1462.73 Q756.456 1462.73 759.836 1465.9 Q763.216 1469.08 763.216 1474.49 Q763.216 1480.07 759.743 1483.17 Q756.271 1486.25 749.952 1486.25 Q747.776 1486.25 745.507 1485.88 Q743.262 1485.51 740.855 1484.77 L740.855 1480.07 Q742.938 1481.2 745.16 1481.76 Q747.382 1482.32 749.859 1482.32 Q753.864 1482.32 756.202 1480.21 Q758.54 1478.1 758.54 1474.49 Q758.54 1470.88 756.202 1468.77 Q753.864 1466.67 749.859 1466.67 Q747.984 1466.67 746.109 1467.08 Q744.257 1467.5 742.313 1468.38 L742.313 1451.02 Z" fill="#000000" fill-rule="evenodd" fill-opacity="1" /><path clip-path="url(#clip000)" d="M1177.21 1451.02 L1195.56 1451.02 L1195.56 1454.96 L1181.49 1454.96 L1181.49 1463.43 Q1182.51 1463.08 1183.53 1462.92 Q1184.54 1462.73 1185.56 1462.73 Q1191.35 1462.73 1194.73 1465.9 Q1198.11 1469.08 1198.11 1474.49 Q1198.11 1480.07 1194.64 1483.17 Q1191.16 1486.25 1184.85 1486.25 Q1182.67 1486.25 1180.4 1485.88 Q1178.16 1485.51 1175.75 1484.77 L1175.75 1480.07 Q1177.83 1481.2 1180.05 1481.76 Q1182.28 1482.32 1184.75 1482.32 Q1188.76 1482.32 1191.1 1480.21 Q1193.43 1478.1 1193.43 1474.49 Q1193.43 1470.88 1191.1 1468.77 Q1188.76 1466.67 1184.75 1466.67 Q1182.88 1466.67 1181 1467.08 Q1179.15 1467.5 1177.21 1468.38 L1177.21 1451.02 Z" fill="#000000" fill-rule="evenodd" fill-opacity="1" /><path clip-path="url(#clip000)" d="M1217.32 1454.1 Q1213.71 1454.1 1211.88 1457.66 Q1210.08 1461.2 1210.08 1468.33 Q1210.08 1475.44 1211.88 1479.01 Q1213.71 1482.55 1217.32 1482.55 Q1220.96 1482.55 1222.76 1479.01 Q1224.59 1475.44 1224.59 1468.33 Q1224.59 1461.2 1222.76 1457.66 Q1220.96 1454.1 1217.32 1454.1 M1217.32 1450.39 Q1223.13 1450.39 1226.19 1455 Q1229.27 1459.58 1229.27 1468.33 Q1229.27 1477.06 1226.19 1481.67 Q1223.13 1486.25 1217.32 1486.25 Q1211.51 1486.25 1208.43 1481.67 Q1205.38 1477.06 1205.38 1468.33 Q1205.38 1459.58 1208.43 1455 Q1211.51 1450.39 1217.32 1450.39 Z" fill="#000000" fill-rule="evenodd" fill-opacity="1" /><path clip-path="url(#clip000)" d="M1642.01 1451.02 L1664.23 1451.02 L1664.23 1453.01 L1651.68 1485.58 L1646.8 1485.58 L1658.6 1454.96 L1642.01 1454.96 L1642.01 1451.02 Z" fill="#000000" fill-rule="evenodd" fill-opacity="1" /><path clip-path="url(#clip000)" d="M1673.4 1451.02 L1691.75 1451.02 L1691.75 1454.96 L1677.68 1454.96 L1677.68 1463.43 Q1678.7 1463.08 1679.72 1462.92 Q1680.73 1462.73 1681.75 1462.73 Q1687.54 1462.73 1690.92 1465.9 Q1694.3 1469.08 1694.3 1474.49 Q1694.3 1480.07 1690.83 1483.17 Q1687.35 1486.25 1681.04 1486.25 Q1678.86 1486.25 1676.59 1485.88 Q1674.35 1485.51 1671.94 1484.77 L1671.94 1480.07 Q1674.02 1481.2 1676.24 1481.76 Q1678.47 1482.32 1680.94 1482.32 Q1684.95 1482.32 1687.29 1480.21 Q1689.62 1478.1 1689.62 1474.49 Q1689.62 1470.88 1687.29 1468.77 Q1684.95 1466.67 1680.94 1466.67 Q1679.07 1466.67 1677.19 1467.08 Q1675.34 1467.5 1673.4 1468.38 L1673.4 1451.02 Z" fill="#000000" fill-rule="evenodd" fill-opacity="1" /><path clip-path="url(#clip000)" d="M2093.41 1481.64 L2101.05 1481.64 L2101.05 1455.28 L2092.73 1456.95 L2092.73 1452.69 L2101 1451.02 L2105.67 1451.02 L2105.67 1481.64 L2113.31 1481.64 L2113.31 1485.58 L2093.41 1485.58 L2093.41 1481.64 Z" fill="#000000" fill-rule="evenodd" fill-opacity="1" /><path clip-path="url(#clip000)" d="M2132.76 1454.1 Q2129.15 1454.1 2127.32 1457.66 Q2125.51 1461.2 2125.51 1468.33 Q2125.51 1475.44 2127.32 1479.01 Q2129.15 1482.55 2132.76 1482.55 Q2136.39 1482.55 2138.2 1479.01 Q2140.03 1475.44 2140.03 1468.33 Q2140.03 1461.2 2138.2 1457.66 Q2136.39 1454.1 2132.76 1454.1 M2132.76 1450.39 Q2138.57 1450.39 2141.62 1455 Q2144.7 1459.58 2144.7 1468.33 Q2144.7 1477.06 2141.62 1481.67 Q2138.57 1486.25 2132.76 1486.25 Q2126.95 1486.25 2123.87 1481.67 Q2120.81 1477.06 2120.81 1468.33 Q2120.81 1459.58 2123.87 1455 Q2126.95 1450.39 2132.76 1450.39 Z" fill="#000000" fill-rule="evenodd" fill-opacity="1" /><path clip-path="url(#clip000)" d="M2162.92 1454.1 Q2159.31 1454.1 2157.48 1457.66 Q2155.67 1461.2 2155.67 1468.33 Q2155.67 1475.44 2157.48 1479.01 Q2159.31 1482.55 2162.92 1482.55 Q2166.55 1482.55 2168.36 1479.01 Q2170.19 1475.44 2170.19 1468.33 Q2170.19 1461.2 2168.36 1457.66 Q2166.55 1454.1 2162.92 1454.1 M2162.92 1450.39 Q2168.73 1450.39 2171.79 1455 Q2174.86 1459.58 2174.86 1468.33 Q2174.86 1477.06 2171.79 1481.67 Q2168.73 1486.25 2162.92 1486.25 Q2157.11 1486.25 2154.03 1481.67 Q2150.98 1477.06 2150.98 1468.33 Q2150.98 1459.58 2154.03 1455 Q2157.11 1450.39 2162.92 1450.39 Z" fill="#000000" fill-rule="evenodd" fill-opacity="1" /><path clip-path="url(#clip000)" d="M1190.28 1522.27 L1190.28 1532.4 L1202.34 1532.4 L1202.34 1536.95 L1190.28 1536.95 L1190.28 1556.3 Q1190.28 1560.66 1191.46 1561.9 Q1192.67 1563.14 1196.33 1563.14 L1202.34 1563.14 L1202.34 1568.04 L1196.33 1568.04 Q1189.55 1568.04 1186.97 1565.53 Q1184.39 1562.98 1184.39 1556.3 L1184.39 1536.95 L1180.09 1536.95 L1180.09 1532.4 L1184.39 1532.4 L1184.39 1522.27 L1190.28 1522.27 Z" fill="#000000" fill-rule="evenodd" fill-opacity="1" /><path clip-path="url(#clip000)" d="M1230.76 1532.4 L1236.62 1532.4 L1236.62 1568.04 L1230.76 1568.04 L1230.76 1532.4 M1230.76 1518.52 L1236.62 1518.52 L1236.62 1525.93 L1230.76 1525.93 L1230.76 1518.52 Z" fill="#000000" fill-rule="evenodd" fill-opacity="1" /><path clip-path="url(#clip000)" d="M1278.51 1546.53 L1278.51 1568.04 L1272.65 1568.04 L1272.65 1546.72 Q1272.65 1541.66 1270.68 1539.14 Q1268.7 1536.63 1264.76 1536.63 Q1260.01 1536.63 1257.28 1539.65 Q1254.54 1542.68 1254.54 1547.9 L1254.54 1568.04 L1248.65 1568.04 L1248.65 1532.4 L1254.54 1532.4 L1254.54 1537.93 Q1256.64 1534.72 1259.47 1533.13 Q1262.34 1531.54 1266.06 1531.54 Q1272.21 1531.54 1275.36 1535.36 Q1278.51 1539.14 1278.51 1546.53 Z" fill="#000000" fill-rule="evenodd" fill-opacity="1" /><path clip-path="url(#clip000)" d="M1310.37 1518.52 L1323.86 1518.52 L1323.86 1523.07 L1316.22 1523.07 L1316.22 1572.09 L1323.86 1572.09 L1323.86 1576.64 L1310.37 1576.64 L1310.37 1518.52 Z" fill="#000000" fill-rule="evenodd" fill-opacity="1" /><path clip-path="url(#clip000)" d="M1359.07 1533.45 L1359.07 1538.98 Q1356.58 1537.71 1353.91 1537.07 Q1351.24 1536.44 1348.37 1536.44 Q1344.01 1536.44 1341.81 1537.77 Q1339.65 1539.11 1339.65 1541.79 Q1339.65 1543.82 1341.21 1545 Q1342.77 1546.15 1347.48 1547.2 L1349.48 1547.64 Q1355.72 1548.98 1358.33 1551.43 Q1360.98 1553.85 1360.98 1558.21 Q1360.98 1563.17 1357.03 1566.07 Q1353.11 1568.97 1346.24 1568.97 Q1343.37 1568.97 1340.25 1568.39 Q1337.17 1567.85 1333.73 1566.74 L1333.73 1560.69 Q1336.98 1562.38 1340.13 1563.24 Q1343.28 1564.07 1346.37 1564.07 Q1350.5 1564.07 1352.73 1562.66 Q1354.96 1561.23 1354.96 1558.65 Q1354.96 1556.27 1353.34 1554.99 Q1351.74 1553.72 1346.3 1552.54 L1344.27 1552.07 Q1338.82 1550.92 1336.4 1548.56 Q1333.98 1546.18 1333.98 1542.04 Q1333.98 1537.01 1337.55 1534.27 Q1341.11 1531.54 1347.67 1531.54 Q1350.92 1531.54 1353.78 1532.01 Q1356.65 1532.49 1359.07 1533.45 Z" fill="#000000" fill-rule="evenodd" fill-opacity="1" /><path clip-path="url(#clip000)" d="M1383.99 1518.52 L1383.99 1576.64 L1370.49 1576.64 L1370.49 1572.09 L1378.1 1572.09 L1378.1 1523.07 L1370.49 1523.07 L1370.49 1518.52 L1383.99 1518.52 Z" fill="#000000" fill-rule="evenodd" fill-opacity="1" /><polyline clip-path="url(#clip002)" style="stroke:#000000; stroke-linecap:butt; stroke-linejoin:round; stroke-width:2; stroke-opacity:0.1; fill:none" points="
  211.325,1346.29 2352.76,1346.29 
  "/>
<polyline clip-path="url(#clip002)" style="stroke:#000000; stroke-linecap:butt; stroke-linejoin:round; stroke-width:2; stroke-opacity:0.1; fill:none" points="
  211.325,1145.38 2352.76,1145.38 
  "/>
<polyline clip-path="url(#clip002)" style="stroke:#000000; stroke-linecap:butt; stroke-linejoin:round; stroke-width:2; stroke-opacity:0.1; fill:none" points="
  211.325,944.467 2352.76,944.467 
  "/>
<polyline clip-path="url(#clip002)" style="stroke:#000000; stroke-linecap:butt; stroke-linejoin:round; stroke-width:2; stroke-opacity:0.1; fill:none" points="
  211.325,743.558 2352.76,743.558 
  "/>
<polyline clip-path="url(#clip002)" style="stroke:#000000; stroke-linecap:butt; stroke-linejoin:round; stroke-width:2; stroke-opacity:0.1; fill:none" points="
  211.325,542.649 2352.76,542.649 
  "/>
<polyline clip-path="url(#clip002)" style="stroke:#000000; stroke-linecap:butt; stroke-linejoin:round; stroke-width:2; stroke-opacity:0.1; fill:none" points="
  211.325,341.74 2352.76,341.74 
  "/>
<polyline clip-path="url(#clip002)" style="stroke:#000000; stroke-linecap:butt; stroke-linejoin:round; stroke-width:2; stroke-opacity:0.1; fill:none" points="
  211.325,140.832 2352.76,140.832 
  "/>
<polyline clip-path="url(#clip000)" style="stroke:#000000; stroke-linecap:butt; stroke-linejoin:round; stroke-width:4; stroke-opacity:1; fill:none" points="
  211.325,1423.18 211.325,123.472 
  "/>
<polyline clip-path="url(#clip000)" style="stroke:#000000; stroke-linecap:butt; stroke-linejoin:round; stroke-width:4; stroke-opacity:1; fill:none" points="
  211.325,1346.29 230.222,1346.29 
  "/>
<polyline clip-path="url(#clip000)" style="stroke:#000000; stroke-linecap:butt; stroke-linejoin:round; stroke-width:4; stroke-opacity:1; fill:none" points="
  211.325,1145.38 230.222,1145.38 
  "/>
<polyline clip-path="url(#clip000)" style="stroke:#000000; stroke-linecap:butt; stroke-linejoin:round; stroke-width:4; stroke-opacity:1; fill:none" points="
  211.325,944.467 230.222,944.467 
  "/>
<polyline clip-path="url(#clip000)" style="stroke:#000000; stroke-linecap:butt; stroke-linejoin:round; stroke-width:4; stroke-opacity:1; fill:none" points="
  211.325,743.558 230.222,743.558 
  "/>
<polyline clip-path="url(#clip000)" style="stroke:#000000; stroke-linecap:butt; stroke-linejoin:round; stroke-width:4; stroke-opacity:1; fill:none" points="
  211.325,542.649 230.222,542.649 
  "/>
<polyline clip-path="url(#clip000)" style="stroke:#000000; stroke-linecap:butt; stroke-linejoin:round; stroke-width:4; stroke-opacity:1; fill:none" points="
  211.325,341.74 230.222,341.74 
  "/>
<polyline clip-path="url(#clip000)" style="stroke:#000000; stroke-linecap:butt; stroke-linejoin:round; stroke-width:4; stroke-opacity:1; fill:none" points="
  211.325,140.832 230.222,140.832 
  "/>
<path clip-path="url(#clip000)" d="M114.26 1346.74 L143.936 1346.74 L143.936 1350.67 L114.26 1350.67 L114.26 1346.74 Z" fill="#000000" fill-rule="evenodd" fill-opacity="1" /><path clip-path="url(#clip000)" d="M168.195 1344.93 Q171.552 1345.65 173.427 1347.92 Q175.325 1350.19 175.325 1353.52 Q175.325 1358.63 171.806 1361.44 Q168.288 1364.24 161.806 1364.24 Q159.63 1364.24 157.315 1363.8 Q155.024 1363.38 152.57 1362.52 L152.57 1358.01 Q154.515 1359.14 156.829 1359.72 Q159.144 1360.3 161.667 1360.3 Q166.065 1360.3 168.357 1358.57 Q170.672 1356.83 170.672 1353.52 Q170.672 1350.46 168.519 1348.75 Q166.39 1347.01 162.57 1347.01 L158.542 1347.01 L158.542 1343.17 L162.755 1343.17 Q166.204 1343.17 168.033 1341.81 Q169.862 1340.42 169.862 1337.82 Q169.862 1335.16 167.964 1333.75 Q166.089 1332.32 162.57 1332.32 Q160.649 1332.32 158.45 1332.73 Q156.251 1333.15 153.612 1334.03 L153.612 1329.86 Q156.274 1329.12 158.589 1328.75 Q160.927 1328.38 162.987 1328.38 Q168.311 1328.38 171.413 1330.81 Q174.514 1333.22 174.514 1337.34 Q174.514 1340.21 172.871 1342.2 Q171.227 1344.17 168.195 1344.93 Z" fill="#000000" fill-rule="evenodd" fill-opacity="1" /><path clip-path="url(#clip000)" d="M115.209 1145.83 L144.885 1145.83 L144.885 1149.76 L115.209 1149.76 L115.209 1145.83 Z" fill="#000000" fill-rule="evenodd" fill-opacity="1" /><path clip-path="url(#clip000)" d="M159.005 1158.72 L175.325 1158.72 L175.325 1162.66 L153.38 1162.66 L153.38 1158.72 Q156.042 1155.97 160.626 1151.34 Q165.232 1146.68 166.413 1145.34 Q168.658 1142.82 169.538 1141.08 Q170.44 1139.32 170.44 1137.63 Q170.44 1134.88 168.496 1133.14 Q166.575 1131.41 163.473 1131.41 Q161.274 1131.41 158.82 1132.17 Q156.39 1132.93 153.612 1134.48 L153.612 1129.76 Q156.436 1128.63 158.89 1128.05 Q161.343 1127.47 163.38 1127.47 Q168.751 1127.47 171.945 1130.16 Q175.139 1132.84 175.139 1137.33 Q175.139 1139.46 174.329 1141.38 Q173.542 1143.28 171.436 1145.87 Q170.857 1146.55 167.755 1149.76 Q164.653 1152.96 159.005 1158.72 Z" fill="#000000" fill-rule="evenodd" fill-opacity="1" /><path clip-path="url(#clip000)" d="M114.839 944.919 L144.515 944.919 L144.515 948.854 L114.839 948.854 L114.839 944.919 Z" fill="#000000" fill-rule="evenodd" fill-opacity="1" /><path clip-path="url(#clip000)" d="M155.417 957.812 L163.056 957.812 L163.056 931.446 L154.746 933.113 L154.746 928.854 L163.01 927.187 L167.686 927.187 L167.686 957.812 L175.325 957.812 L175.325 961.747 L155.417 961.747 L155.417 957.812 Z" fill="#000000" fill-rule="evenodd" fill-opacity="1" /><path clip-path="url(#clip000)" d="M163.38 729.357 Q159.769 729.357 157.94 732.922 Q156.135 736.463 156.135 743.593 Q156.135 750.699 157.94 754.264 Q159.769 757.806 163.38 757.806 Q167.015 757.806 168.82 754.264 Q170.649 750.699 170.649 743.593 Q170.649 736.463 168.82 732.922 Q167.015 729.357 163.38 729.357 M163.38 725.653 Q169.19 725.653 172.246 730.26 Q175.325 734.843 175.325 743.593 Q175.325 752.32 172.246 756.926 Q169.19 761.51 163.38 761.51 Q157.57 761.51 154.491 756.926 Q151.436 752.32 151.436 743.593 Q151.436 734.843 154.491 730.26 Q157.57 725.653 163.38 725.653 Z" fill="#000000" fill-rule="evenodd" fill-opacity="1" /><path clip-path="url(#clip000)" d="M155.417 555.994 L163.056 555.994 L163.056 529.629 L154.746 531.295 L154.746 527.036 L163.01 525.369 L167.686 525.369 L167.686 555.994 L175.325 555.994 L175.325 559.929 L155.417 559.929 L155.417 555.994 Z" fill="#000000" fill-rule="evenodd" fill-opacity="1" /><path clip-path="url(#clip000)" d="M159.005 355.085 L175.325 355.085 L175.325 359.02 L153.38 359.02 L153.38 355.085 Q156.042 352.331 160.626 347.701 Q165.232 343.048 166.413 341.706 Q168.658 339.183 169.538 337.446 Q170.44 335.687 170.44 333.997 Q170.44 331.243 168.496 329.507 Q166.575 327.771 163.473 327.771 Q161.274 327.771 158.82 328.534 Q156.39 329.298 153.612 330.849 L153.612 326.127 Q156.436 324.993 158.89 324.414 Q161.343 323.835 163.38 323.835 Q168.751 323.835 171.945 326.521 Q175.139 329.206 175.139 333.696 Q175.139 335.826 174.329 337.747 Q173.542 339.646 171.436 342.238 Q170.857 342.909 167.755 346.127 Q164.653 349.321 159.005 355.085 Z" fill="#000000" fill-rule="evenodd" fill-opacity="1" /><path clip-path="url(#clip000)" d="M168.195 139.477 Q171.552 140.195 173.427 142.463 Q175.325 144.732 175.325 148.065 Q175.325 153.181 171.806 155.982 Q168.288 158.783 161.806 158.783 Q159.63 158.783 157.315 158.343 Q155.024 157.926 152.57 157.07 L152.57 152.556 Q154.515 153.69 156.829 154.269 Q159.144 154.848 161.667 154.848 Q166.065 154.848 168.357 153.112 Q170.672 151.375 170.672 148.065 Q170.672 145.01 168.519 143.297 Q166.39 141.561 162.57 141.561 L158.542 141.561 L158.542 137.718 L162.755 137.718 Q166.204 137.718 168.033 136.352 Q169.862 134.963 169.862 132.371 Q169.862 129.709 167.964 128.297 Q166.089 126.862 162.57 126.862 Q160.649 126.862 158.45 127.278 Q156.251 127.695 153.612 128.575 L153.612 124.408 Q156.274 123.667 158.589 123.297 Q160.927 122.927 162.987 122.927 Q168.311 122.927 171.413 125.357 Q174.514 127.764 174.514 131.885 Q174.514 134.755 172.871 136.746 Q171.227 138.713 168.195 139.477 Z" fill="#000000" fill-rule="evenodd" fill-opacity="1" /><path clip-path="url(#clip000)" d="M64.0042 906.863 L16.4842 925.005 L16.4842 918.289 L56.4926 903.234 L16.4842 888.147 L16.4842 881.463 L64.0042 899.574 L64.0042 906.863 Z" fill="#000000" fill-rule="evenodd" fill-opacity="1" /><path clip-path="url(#clip000)" d="M44.7161 849.348 L47.5806 849.348 L47.5806 876.275 Q53.6281 875.893 56.8109 872.647 Q59.9619 869.369 59.9619 863.544 Q59.9619 860.17 59.1344 857.019 Q58.3069 853.836 56.6518 850.717 L62.1899 850.717 Q63.5267 853.868 64.227 857.178 Q64.9272 860.488 64.9272 863.894 Q64.9272 872.424 59.9619 877.421 Q54.9967 882.386 46.5303 882.386 Q37.7774 882.386 32.6531 877.676 Q27.4968 872.933 27.4968 864.913 Q27.4968 857.719 32.1438 853.55 Q36.7589 849.348 44.7161 849.348 M42.9973 855.205 Q38.1912 855.269 35.3266 857.91 Q32.4621 860.52 32.4621 864.849 Q32.4621 869.751 35.2312 872.711 Q38.0002 875.639 43.0292 876.084 L42.9973 855.205 Z" fill="#000000" fill-rule="evenodd" fill-opacity="1" /><path clip-path="url(#clip000)" d="M14.479 839.736 L14.479 833.88 L64.0042 833.88 L64.0042 839.736 L14.479 839.736 Z" fill="#000000" fill-rule="evenodd" fill-opacity="1" /><path clip-path="url(#clip000)" d="M55.9197 820.798 L55.9197 814.082 L64.0042 814.082 L64.0042 820.798 L55.9197 820.798 Z" fill="#000000" fill-rule="evenodd" fill-opacity="1" /><path clip-path="url(#clip000)" d="M14.479 780.726 L14.479 767.231 L19.0304 767.231 L19.0304 774.87 L68.0464 774.87 L68.0464 767.231 L72.5979 767.231 L72.5979 780.726 L14.479 780.726 Z" fill="#000000" fill-rule="evenodd" fill-opacity="1" /><path clip-path="url(#clip000)" d="M35.1993 727 Q31.2526 724.803 29.3747 721.748 Q27.4968 718.692 27.4968 714.555 Q27.4968 708.985 31.4117 705.961 Q35.2948 702.937 42.4881 702.937 L64.0042 702.937 L64.0042 708.825 L42.679 708.825 Q37.5546 708.825 35.072 710.64 Q32.5894 712.454 32.5894 716.178 Q32.5894 720.729 35.6131 723.371 Q38.6368 726.013 43.8567 726.013 L64.0042 726.013 L64.0042 731.901 L42.679 731.901 Q37.5228 731.901 35.072 733.715 Q32.5894 735.53 32.5894 739.317 Q32.5894 743.805 35.6449 746.447 Q38.6686 749.089 43.8567 749.089 L64.0042 749.089 L64.0042 754.977 L28.3562 754.977 L28.3562 749.089 L33.8944 749.089 Q30.616 747.083 29.0564 744.282 Q27.4968 741.482 27.4968 737.63 Q27.4968 733.747 29.4702 731.042 Q31.4436 728.305 35.1993 727 Z" fill="#000000" fill-rule="evenodd" fill-opacity="1" /><path clip-path="url(#clip000)" d="M16.4842 680.848 L16.4842 675.437 L70.0516 691.988 L70.0516 697.399 L16.4842 680.848 Z" fill="#000000" fill-rule="evenodd" fill-opacity="1" /><path clip-path="url(#clip000)" d="M29.4065 646.569 L34.9447 646.569 Q33.6716 649.051 33.035 651.725 Q32.3984 654.399 32.3984 657.263 Q32.3984 661.624 33.7352 663.82 Q35.072 665.984 37.7456 665.984 Q39.7826 665.984 40.9603 664.425 Q42.1061 662.865 43.1565 658.154 L43.6021 656.149 Q44.9389 649.911 47.3897 647.301 Q49.8086 644.659 54.1691 644.659 Q59.1344 644.659 62.0308 648.606 Q64.9272 652.521 64.9272 659.396 Q64.9272 662.26 64.3543 665.38 Q63.8132 668.467 62.6992 671.904 L56.6518 671.904 Q58.3387 668.658 59.198 665.507 Q60.0256 662.356 60.0256 659.268 Q60.0256 655.131 58.6251 652.903 Q57.1929 650.675 54.6147 650.675 Q52.2276 650.675 50.9545 652.298 Q49.6813 653.889 48.5037 659.332 L48.0262 661.369 Q46.8804 666.812 44.5251 669.231 Q42.138 671.65 38.0002 671.65 Q32.9713 671.65 30.2341 668.085 Q27.4968 664.52 27.4968 657.963 Q27.4968 654.717 27.9743 651.852 Q28.4517 648.988 29.4065 646.569 Z" fill="#000000" fill-rule="evenodd" fill-opacity="1" /><path clip-path="url(#clip000)" d="M14.479 621.647 L72.5979 621.647 L72.5979 635.142 L68.0464 635.142 L68.0464 627.535 L19.0304 627.535 L19.0304 635.142 L14.479 635.142 L14.479 621.647 Z" fill="#000000" fill-rule="evenodd" fill-opacity="1" /><path clip-path="url(#clip000)" d="M1143.97 72.576 L1120.88 12.096 L1129.42 12.096 L1148.58 63.0159 L1167.78 12.096 L1176.29 12.096 L1153.24 72.576 L1143.97 72.576 Z" fill="#000000" fill-rule="evenodd" fill-opacity="1" /><path clip-path="url(#clip000)" d="M1217.17 48.0275 L1217.17 51.6733 L1182.89 51.6733 Q1183.38 59.3701 1187.51 63.421 Q1191.68 67.4314 1199.1 67.4314 Q1203.39 67.4314 1207.4 66.3781 Q1211.45 65.3249 1215.42 63.2184 L1215.42 70.267 Q1211.41 71.9684 1207.2 72.8596 Q1202.99 73.7508 1198.65 73.7508 Q1187.8 73.7508 1181.44 67.4314 Q1175.12 61.1119 1175.12 50.3365 Q1175.12 39.1965 1181.11 32.6746 Q1187.15 26.1121 1197.36 26.1121 Q1206.51 26.1121 1211.82 32.0264 Q1217.17 37.9003 1217.17 48.0275 M1209.71 45.84 Q1209.63 39.7232 1206.27 36.0774 Q1202.95 32.4315 1197.44 32.4315 Q1191.2 32.4315 1187.43 35.9558 Q1183.7 39.4801 1183.14 45.8805 L1209.71 45.84 Z" fill="#000000" fill-rule="evenodd" fill-opacity="1" /><path clip-path="url(#clip000)" d="M1229.4 9.54393 L1236.85 9.54393 L1236.85 72.576 L1229.4 72.576 L1229.4 9.54393 Z" fill="#000000" fill-rule="evenodd" fill-opacity="1" /><path clip-path="url(#clip000)" d="M1270.03 32.4315 Q1264.03 32.4315 1260.55 37.1306 Q1257.07 41.7891 1257.07 49.9314 Q1257.07 58.0738 1260.51 62.7728 Q1263.99 67.4314 1270.03 67.4314 Q1275.98 67.4314 1279.47 62.7323 Q1282.95 58.0333 1282.95 49.9314 Q1282.95 41.8701 1279.47 37.1711 Q1275.98 32.4315 1270.03 32.4315 M1270.03 26.1121 Q1279.75 26.1121 1285.3 32.4315 Q1290.85 38.7509 1290.85 49.9314 Q1290.85 61.0714 1285.3 67.4314 Q1279.75 73.7508 1270.03 73.7508 Q1260.27 73.7508 1254.72 67.4314 Q1249.21 61.0714 1249.21 49.9314 Q1249.21 38.7509 1254.72 32.4315 Q1260.27 26.1121 1270.03 26.1121 Z" fill="#000000" fill-rule="evenodd" fill-opacity="1" /><path clip-path="url(#clip000)" d="M1335.86 28.9478 L1335.86 35.9153 Q1332.7 34.1734 1329.5 33.3227 Q1326.34 32.4315 1323.1 32.4315 Q1315.85 32.4315 1311.83 37.0496 Q1307.82 41.6271 1307.82 49.9314 Q1307.82 58.2358 1311.83 62.8538 Q1315.85 67.4314 1323.1 67.4314 Q1326.34 67.4314 1329.5 66.5807 Q1332.7 65.6895 1335.86 63.9476 L1335.86 70.8341 Q1332.74 72.2924 1329.38 73.0216 Q1326.05 73.7508 1322.29 73.7508 Q1312.04 73.7508 1306 67.3098 Q1299.97 60.8689 1299.97 49.9314 Q1299.97 38.832 1306.04 32.472 Q1312.16 26.1121 1322.77 26.1121 Q1326.22 26.1121 1329.5 26.8413 Q1332.78 27.5299 1335.86 28.9478 Z" fill="#000000" fill-rule="evenodd" fill-opacity="1" /><path clip-path="url(#clip000)" d="M1348.82 27.2059 L1356.27 27.2059 L1356.27 72.576 L1348.82 72.576 L1348.82 27.2059 M1348.82 9.54393 L1356.27 9.54393 L1356.27 18.9825 L1348.82 18.9825 L1348.82 9.54393 Z" fill="#000000" fill-rule="evenodd" fill-opacity="1" /><path clip-path="url(#clip000)" d="M1379.24 14.324 L1379.24 27.2059 L1394.59 27.2059 L1394.59 32.9987 L1379.24 32.9987 L1379.24 57.6282 Q1379.24 63.1779 1380.74 64.7578 Q1382.28 66.3376 1386.94 66.3376 L1394.59 66.3376 L1394.59 72.576 L1386.94 72.576 Q1378.31 72.576 1375.03 69.3758 Q1371.75 66.1351 1371.75 57.6282 L1371.75 32.9987 L1366.28 32.9987 L1366.28 27.2059 L1371.75 27.2059 L1371.75 14.324 L1379.24 14.324 Z" fill="#000000" fill-rule="evenodd" fill-opacity="1" /><path clip-path="url(#clip000)" d="M1423.28 76.7889 Q1420.12 84.8907 1417.12 87.3618 Q1414.12 89.8329 1409.1 89.8329 L1403.14 89.8329 L1403.14 83.5945 L1407.52 83.5945 Q1410.6 83.5945 1412.3 82.1361 Q1414 80.6778 1416.06 75.2496 L1417.4 71.8468 L1399.05 27.2059 L1406.95 27.2059 L1421.13 62.6918 L1435.31 27.2059 L1443.21 27.2059 L1423.28 76.7889 Z" fill="#000000" fill-rule="evenodd" fill-opacity="1" /><polyline clip-path="url(#clip002)" style="stroke:#009af9; stroke-linecap:butt; stroke-linejoin:round; stroke-width:4; stroke-opacity:1; fill:none" points="
  271.931,743.557 272.647,743.554 273.362,743.55 274.078,743.544 274.794,743.539 275.509,743.532 276.225,743.526 276.94,743.519 277.656,743.512 278.372,743.504 
  279.087,743.5 279.803,743.499 280.518,743.501 281.234,743.505 281.95,743.515 282.665,743.528 283.381,743.545 284.096,743.563 284.812,743.584 285.528,743.608 
  286.243,743.634 286.959,743.666 287.675,743.702 288.39,743.742 289.106,743.786 289.821,743.83 290.537,743.876 291.253,743.923 291.968,743.971 292.684,744.021 
  293.399,744.075 294.115,744.131 294.831,744.189 295.546,744.245 296.262,744.302 296.977,744.359 297.693,744.417 298.409,744.475 299.124,744.533 299.84,744.591 
  300.555,744.651 301.271,744.71 301.987,744.768 302.702,744.827 303.418,744.887 304.134,744.95 304.849,745.016 305.565,745.081 306.28,745.148 306.996,745.216 
  307.712,745.285 308.427,745.356 309.143,745.428 309.858,745.501 310.574,745.572 311.29,745.642 312.005,745.715 312.721,745.787 313.436,745.861 314.152,745.937 
  314.868,746.012 315.583,746.086 316.299,746.158 317.015,746.227 317.73,746.297 318.446,746.367 319.161,746.437 319.877,746.505 320.593,746.571 321.308,746.635 
  322.024,746.698 322.739,746.761 323.455,746.824 324.171,746.885 324.886,746.945 325.602,747.002 326.317,747.057 327.033,747.111 327.749,747.164 328.464,747.218 
  329.18,747.27 329.896,747.321 330.611,747.37 331.327,747.418 332.042,747.466 332.758,747.511 333.474,747.555 334.189,747.6 334.905,747.644 335.62,747.687 
  336.336,747.729 337.052,747.771 337.767,747.812 338.483,747.851 339.199,747.89 339.914,747.928 340.63,747.965 341.345,748.003 342.061,748.04 342.777,748.077 
  343.492,748.115 344.208,748.154 344.923,748.191 345.639,748.229 346.355,748.265 347.07,748.303 347.786,748.343 348.501,748.383 349.217,748.423 349.933,748.464 
  350.648,748.503 351.364,748.541 352.08,748.578 352.795,748.616 353.511,748.653 354.226,748.693 354.942,748.733 355.658,748.773 356.373,748.815 357.089,748.856 
  357.805,748.897 358.52,748.936 359.236,748.975 359.951,749.015 360.667,749.056 361.383,749.098 362.098,749.141 362.814,749.186 363.529,749.232 364.245,749.277 
  364.961,749.321 365.676,749.365 366.392,749.408 367.108,749.451 367.823,749.495 368.539,749.539 369.254,749.583 369.97,749.626 370.686,749.669 371.401,749.711 
  372.117,749.753 372.832,749.794 373.548,749.834 374.264,749.875 374.979,749.915 375.695,749.954 376.411,749.991 377.126,750.024 377.842,750.057 378.557,750.091 
  379.273,750.126 379.989,750.16 380.704,750.193 381.42,750.224 382.135,750.253 382.851,750.278 383.567,750.302 384.282,750.323 384.998,750.341 385.714,750.359 
  386.429,750.377 387.145,750.395 387.86,750.412 388.576,750.425 389.292,750.437 390.007,750.447 390.723,750.456 391.439,750.463 392.154,750.47 392.87,750.478 
  393.585,750.484 394.301,750.489 395.017,750.492 395.732,750.495 396.448,750.497 397.163,750.495 397.879,750.494 398.595,750.492 399.31,750.489 400.026,750.488 
  400.742,750.485 401.457,750.482 402.173,750.478 402.888,750.472 403.604,750.466 404.32,750.459 405.035,750.454 405.751,750.449 406.467,750.444 407.182,750.439 
  407.898,750.432 408.613,750.424 409.329,750.414 410.045,750.403 410.76,750.392 411.476,750.382 412.191,750.373 412.907,750.364 413.623,750.355 414.338,750.344 
  415.054,750.332 415.77,750.319 416.485,750.305 417.201,750.291 417.916,750.276 418.632,750.263 419.348,750.25 420.063,750.238 420.779,750.226 421.495,750.214 
  422.21,750.202 422.926,750.192 423.641,750.182 424.357,750.172 425.073,750.165 425.788,750.16 426.504,750.156 427.219,750.153 427.935,750.151 428.651,750.15 
  429.366,750.15 430.082,750.152 430.798,750.156 431.513,750.16 432.229,750.166 432.944,750.172 433.66,750.179 434.376,750.185 435.091,750.193 435.807,750.201 
  436.523,750.212 437.238,750.224 437.954,750.237 438.669,750.25 439.385,750.263 440.101,750.275 440.816,750.286 441.532,750.297 442.248,750.309 442.963,750.324 
  443.679,750.34 444.394,750.355 445.11,750.368 445.826,750.38 446.541,750.391 447.257,750.403 447.972,750.417 448.688,750.434 449.404,750.452 450.119,750.469 
  450.835,750.486 451.551,750.501 452.266,750.516 452.982,750.53 453.697,750.543 454.413,750.556 455.129,750.569 455.844,750.581 456.56,750.593 457.276,750.606 
  457.991,750.622 458.707,750.637 459.422,750.649 460.138,750.658 460.854,750.663 461.569,750.665 462.285,750.668 463.001,750.673 463.716,750.68 464.432,750.69 
  465.147,750.7 465.863,750.709 466.579,750.716 467.294,750.721 468.01,750.726 468.726,750.732 469.441,750.74 470.157,750.75 470.872,750.76 471.588,750.772 
  472.304,750.783 473.019,750.795 473.735,750.808 474.45,750.823 475.166,750.839 475.882,750.859 476.597,750.879 477.313,750.899 478.029,750.919 478.744,750.941 
  479.46,750.964 480.175,750.991 480.891,751.02 481.607,751.05 482.322,751.079 483.038,751.109 483.754,751.137 484.469,751.163 485.185,751.192 485.9,751.223 
  486.616,751.257 487.332,751.293 488.047,751.329 488.763,751.365 489.479,751.4 490.194,751.434 490.91,751.467 491.625,751.498 492.341,751.529 493.057,751.561 
  493.772,751.593 494.488,751.628 495.204,751.663 495.919,751.698 496.635,751.73 497.35,751.759 498.066,751.786 498.782,751.812 499.497,751.838 500.213,751.863 
  500.929,751.886 501.644,751.911 502.36,751.934 503.075,751.953 503.791,751.971 504.507,751.988 505.222,752.002 505.938,752.015 506.654,752.028 507.369,752.044 
  508.085,752.062 508.8,752.078 509.516,752.093 510.232,752.107 510.947,752.12 511.663,752.131 512.379,752.141 513.094,752.153 513.81,752.165 514.525,752.177 
  515.241,752.19 515.957,752.203 516.672,752.215 517.388,752.222 518.104,752.228 518.819,752.233 519.535,752.238 520.25,752.244 520.966,752.25 521.682,752.255 
  522.397,752.259 523.113,752.263 523.829,752.264 524.544,752.266 525.26,752.267 525.975,752.269 526.691,752.269 527.407,752.268 528.122,752.268 528.838,752.268 
  529.554,752.269 530.269,752.268 530.985,752.265 531.7,752.262 532.416,752.258 533.132,752.255 533.847,752.251 534.563,752.248 535.279,752.245 535.994,752.241 
  536.71,752.236 537.425,752.229 538.141,752.222 538.857,752.217 539.572,752.213 540.288,752.209 541.004,752.203 541.719,752.197 542.435,752.192 543.15,752.186 
  543.866,752.181 544.582,752.177 545.297,752.173 546.013,752.17 546.729,752.168 547.444,752.169 548.16,752.171 548.875,752.171 549.591,752.17 550.307,752.171 
  551.022,752.171 551.738,752.174 552.454,752.177 553.169,752.184 553.885,752.193 554.6,752.203 555.316,752.212 556.032,752.218 556.747,752.224 557.463,752.232 
  558.179,752.24 558.894,752.249 559.61,752.26 560.325,752.271 561.041,752.283 561.757,752.295 562.472,752.309 563.188,752.323 563.904,752.339 564.619,752.355 
  565.335,752.372 566.05,752.392 566.766,752.411 567.482,752.43 568.197,752.45 568.913,752.47 569.629,752.49 570.344,752.512 571.06,752.537 571.775,752.565 
  572.491,752.595 573.207,752.629 573.922,752.667 574.638,752.708 575.354,752.751 576.069,752.797 576.785,752.845 577.5,752.896 578.216,752.938 578.932,752.992 
  579.647,753.062 580.363,753.139 581.079,753.22 581.794,753.293 582.51,753.356 583.225,753.416 583.941,753.486 584.657,753.559 585.372,753.64 586.088,753.724 
  586.804,753.802 587.519,753.881 588.235,753.966 588.95,754.049 589.666,754.136 590.382,754.238 591.097,754.343 591.813,754.446 592.529,754.543 593.244,754.644 
  593.96,754.735 594.676,754.829 595.391,754.935 596.107,755.053 596.822,755.175 597.538,755.298 598.254,755.417 598.969,755.524 599.685,755.629 600.401,755.732 
  601.116,755.836 601.832,755.94 602.547,756.046 603.263,756.151 603.979,756.25 604.694,756.34 605.41,756.421 606.126,756.506 606.841,756.599 607.557,756.688 
  608.272,756.78 608.988,756.863 609.704,756.93 610.419,756.989 611.135,757.051 611.851,757.111 612.566,757.175 613.282,757.239 613.998,757.292 614.713,757.335 
  615.429,757.38 616.144,757.425 616.86,757.475 617.576,757.513 618.291,757.543 619.007,757.576 619.723,757.622 620.438,757.674 621.154,757.726 621.869,757.769 
  622.585,757.805 623.301,757.846 624.016,757.908 624.732,757.985 625.448,758.06 626.163,758.14 626.879,758.229 627.595,758.33 628.31,758.444 629.026,758.576 
  629.741,758.717 630.457,758.865 631.173,759.022 631.888,759.192 632.604,759.371 633.32,759.554 634.035,759.737 634.751,759.924 635.467,760.125 636.182,760.344 
  636.898,760.576 637.613,760.813 638.329,761.053 639.045,761.303 639.76,761.563 640.476,761.832 641.192,762.108 641.907,762.391 642.623,762.68 643.339,762.975 
  644.054,763.275 644.77,763.578 645.485,763.874 646.201,764.157 646.917,764.417 647.632,764.641 648.348,764.815 649.064,764.923 649.779,764.956 650.495,764.901 
  651.211,764.756 651.926,764.517 652.642,764.177 653.358,763.733 654.073,763.18 654.789,762.519 655.504,761.752 656.22,760.874 656.936,759.879 657.651,758.758 
  658.367,757.51 659.083,756.138 659.798,754.641 660.514,753.017 661.23,751.268 661.945,749.396 662.661,747.399 663.377,745.285 664.092,743.06 664.808,740.725 
  665.523,738.288 666.239,735.759 666.955,733.15 667.67,730.464 668.386,727.706 669.102,724.881 669.817,721.996 670.533,719.051 671.249,716.052 671.964,713.007 
  672.68,709.92 673.396,706.794 674.111,703.635 674.827,700.442 675.542,697.213 676.258,693.954 676.974,690.666 677.689,687.354 678.405,684.016 679.121,680.657 
  679.836,677.274 680.552,673.871 681.268,670.457 681.983,667.028 682.699,663.58 683.415,660.113 684.13,656.636 684.846,653.152 685.561,649.662 686.277,646.165 
  686.993,642.651 687.708,639.131 688.424,635.627 689.14,632.118 689.855,628.604 690.571,625.081 691.287,621.545 692.002,618.009 692.718,614.49 693.434,610.995 
  694.149,607.513 694.865,604.041 695.581,600.595 696.296,597.185 697.012,593.809 697.727,590.479 698.443,587.187 699.159,583.944 699.874,580.76 700.59,577.632 
  701.306,574.571 702.021,571.57 702.737,568.627 703.453,565.749 704.168,562.955 704.884,560.244 705.6,557.603 706.315,555.038 707.031,552.543 707.746,550.124 
  708.462,547.79 709.178,545.542 709.893,543.386 710.609,541.313 711.325,539.328 712.04,537.429 712.756,535.615 713.472,533.893 714.187,532.258 714.903,530.705 
  715.619,529.233 716.334,527.844 717.05,526.54 717.766,525.327 718.481,524.198 719.197,523.142 719.913,522.151 720.628,521.234 721.344,520.39 722.059,519.606 
  722.775,518.887 723.491,518.223 724.206,517.608 724.922,517.04 725.638,516.512 726.353,516.025 727.069,515.57 727.785,515.145 728.5,514.75 729.216,514.382 
  729.932,514.047 730.647,513.726 731.363,513.414 732.079,513.112 732.794,512.833 733.51,512.563 734.226,512.311 734.941,512.083 735.657,511.86 736.372,511.643 
  737.088,511.428 737.804,511.223 738.519,511.017 739.235,510.829 739.951,510.648 740.666,510.466 741.382,510.273 742.098,510.103 742.813,509.945 743.529,509.806 
  744.245,509.667 744.96,509.519 745.676,509.352 746.392,509.197 747.107,509.067 747.823,508.948 748.538,508.82 749.254,508.677 749.97,508.543 750.685,508.419 
  751.401,508.303 752.117,508.186 752.832,508.074 753.548,507.955 754.264,507.834 754.979,507.715 755.695,507.602 756.411,507.492 757.126,507.381 757.842,507.273 
  758.558,507.158 759.273,507.042 759.989,506.915 760.705,506.785 761.42,506.649 762.136,506.523 762.851,506.401 763.567,506.28 764.283,506.147 764.998,506.013 
  765.714,505.871 766.43,505.716 767.145,505.567 767.861,505.413 768.577,505.25 769.292,505.082 770.008,504.93 770.724,504.782 771.439,504.622 772.155,504.435 
  772.87,504.245 773.586,504.067 774.302,503.89 775.017,503.696 775.733,503.497 776.449,503.308 777.164,503.11 777.88,502.911 778.596,502.708 779.311,502.514 
  780.027,502.309 780.743,502.099 781.458,501.892 782.174,501.695 782.89,501.497 783.605,501.295 784.321,501.087 785.036,500.877 785.752,500.671 786.468,500.465 
  787.183,500.256 787.899,500.041 788.615,499.82 789.33,499.594 790.046,499.37 790.762,499.159 791.477,498.951 792.193,498.725 792.908,498.498 793.624,498.271 
  794.34,498.05 795.055,497.828 795.771,497.607 796.487,497.378 797.202,497.145 797.918,496.924 798.634,496.712 799.349,496.503 800.065,496.295 800.781,496.084 
  801.496,495.865 802.212,495.643 802.927,495.425 803.643,495.216 804.359,495.011 805.074,494.793 805.79,494.577 806.506,494.363 807.221,494.158 807.937,493.952 
  808.653,493.738 809.368,493.513 810.084,493.295 810.799,493.081 811.515,492.865 812.231,492.653 812.946,492.444 813.662,492.231 814.378,492.011 815.093,491.797 
  815.809,491.589 816.525,491.385 817.24,491.177 817.956,490.975 818.671,490.765 819.387,490.551 820.103,490.351 820.818,490.165 821.534,489.968 822.25,489.769 
  822.965,489.578 823.681,489.398 824.397,489.201 825.112,488.989 825.828,488.785 826.543,488.606 827.259,488.44 827.975,488.253 828.69,488.048 829.406,487.844 
  830.122,487.654 830.837,487.472 831.553,487.289 832.268,487.098 832.984,486.904 833.7,486.715 834.415,486.525 835.131,486.341 835.847,486.161 836.562,485.969 
  837.278,485.768 837.994,485.565 838.709,485.372 839.425,485.181 840.14,484.993 840.856,484.797 841.572,484.598 842.287,484.401 843.003,484.226 843.719,484.047 
  844.434,483.837 845.15,483.634 845.866,483.453 846.581,483.267 847.297,483.082 848.012,482.917 848.728,482.728 849.444,482.534 850.159,482.341 850.875,482.164 
  851.591,481.984 852.306,481.802 853.022,481.616 853.737,481.438 854.453,481.255 855.169,481.07 855.884,480.893 856.6,480.718 857.316,480.537 858.031,480.341 
  858.747,480.162 859.462,479.999 860.178,479.831 860.894,479.643 861.609,479.457 862.325,479.273 863.041,479.1 863.756,478.925 864.472,478.751 865.188,478.579 
  865.903,478.396 866.619,478.208 867.334,478.022 868.05,477.852 868.766,477.684 869.481,477.513 870.197,477.325 870.913,477.144 871.628,476.966 872.344,476.783 
  873.059,476.591 873.775,476.41 874.491,476.234 875.206,476.052 875.922,475.875 876.638,475.697 877.353,475.52 878.069,475.347 878.784,475.192 879.5,475.019 
  880.216,474.845 880.931,474.68 881.647,474.516 882.363,474.351 883.078,474.199 883.794,474.049 884.509,473.898 885.225,473.74 885.941,473.566 886.656,473.404 
  887.372,473.245 888.088,473.101 888.803,472.949 889.519,472.803 890.234,472.662 890.95,472.554 891.666,472.472 892.381,472.399 893.097,472.339 893.813,472.294 
  894.528,472.292 895.244,472.325 895.959,472.405 896.675,472.505 897.391,472.64 898.106,472.804 898.822,472.999 899.538,473.219 900.253,473.478 900.969,473.767 
  901.685,474.064 902.4,474.385 903.116,474.743 903.831,475.13 904.547,475.526 905.263,475.94 905.978,476.363 906.694,476.792 907.41,477.227 908.125,477.682 
  908.841,478.142 909.557,478.61 910.272,479.087 910.988,479.56 911.703,480.04 912.419,480.529 913.135,481.013 913.85,481.478 914.566,481.948 915.282,482.432 
  915.997,482.92 916.713,483.402 917.429,483.877 918.144,484.315 918.86,484.739 919.576,485.178 920.291,485.631 921.007,486.055 921.722,486.44 922.438,486.824 
  923.154,487.205 923.869,487.575 924.585,487.941 925.301,488.291 926.016,488.603 926.732,488.901 927.448,489.195 928.163,489.479 928.879,489.747 929.595,490.002 
  930.31,490.24 931.026,490.46 931.742,490.688 932.457,490.907 933.173,491.106 933.888,491.28 934.604,491.452 935.32,491.611 936.035,491.773 936.751,491.927 
  937.467,492.062 938.182,492.174 938.898,492.281 939.614,492.391 940.329,492.48 941.045,492.563 941.761,492.64 942.476,492.708 943.192,492.749 943.908,492.795 
  944.623,492.836 945.339,492.875 946.054,492.898 946.77,492.922 947.486,492.944 948.201,492.958 948.917,492.952 949.633,492.935 950.348,492.916 951.064,492.896 
  951.78,492.877 952.495,492.851 953.211,492.823 953.927,492.796 954.642,492.77 955.358,492.72 956.073,492.665 956.789,492.62 957.505,492.593 958.22,492.566 
  958.936,492.534 959.652,492.511 960.367,492.501 961.083,492.498 961.799,492.489 962.514,492.487 963.23,492.479 963.946,492.466 964.661,492.44 965.377,492.417 
  966.093,492.39 966.808,492.369 967.524,492.365 968.239,492.367 968.955,492.361 969.671,492.343 970.386,492.325 971.102,492.293 971.818,492.267 972.533,492.237 
  973.249,492.215 973.965,492.196 974.68,492.184 975.396,492.154 976.112,492.109 976.827,492.056 977.543,492.002 978.259,491.943 978.974,491.872 979.69,491.805 
  980.405,491.741 981.121,491.673 981.837,491.596 982.552,491.53 983.268,491.463 983.984,491.39 984.699,491.321 985.415,491.264 986.131,491.207 986.846,491.13 
  987.562,491.066 988.278,491.008 988.993,490.955 989.709,490.899 990.425,490.84 991.14,490.776 991.856,490.696 992.571,490.606 993.287,490.524 994.003,490.45 
  994.718,490.363 995.434,490.26 996.15,490.124 996.865,490.006 997.581,489.887 998.297,489.768 999.012,489.625 999.728,489.483 1000.44,489.328 1001.16,489.171 
  1001.87,489.007 1002.59,488.848 1003.31,488.691 1004.02,488.532 1004.74,488.367 1005.45,488.183 1006.17,487.998 1006.88,487.803 1007.6,487.61 1008.32,487.401 
  1009.03,487.202 1009.75,486.988 1010.46,486.773 1011.18,486.551 1011.89,486.347 1012.61,486.134 1013.33,485.901 1014.04,485.675 1014.76,485.461 1015.47,485.26 
  1016.19,485.055 1016.9,484.822 1017.62,484.592 1018.33,484.357 1019.05,484.125 1019.77,483.907 1020.48,483.7 1021.2,483.445 1021.91,483.186 1022.63,482.951 
  1023.34,482.739 1024.06,482.526 1024.78,482.293 1025.49,482.035 1026.21,481.793 1026.92,481.564 1027.64,481.341 1028.35,481.113 1029.07,480.885 1029.78,480.648 
  1030.5,480.389 1031.22,480.132 1031.93,479.876 1032.65,479.631 1033.36,479.386 1034.08,479.145 1034.79,478.897 1035.51,478.654 1036.23,478.396 1036.94,478.142 
  1037.66,477.902 1038.37,477.675 1039.09,477.422 1039.8,477.151 1040.52,476.891 1041.24,476.645 1041.95,476.404 1042.67,476.161 1043.38,475.915 1044.1,475.66 
  1044.81,475.407 1045.53,475.152 1046.24,474.9 1046.96,474.652 1047.68,474.411 1048.39,474.16 1049.11,473.9 1049.82,473.65 1050.54,473.4 1051.25,473.154 
  1051.97,472.907 1052.69,472.654 1053.4,472.378 1054.12,472.11 1054.83,471.861 1055.55,471.619 1056.26,471.371 1056.98,471.121 1057.69,470.875 1058.41,470.626 
  1059.13,470.388 1059.84,470.146 1060.56,469.913 1061.27,469.671 1061.99,469.433 1062.7,469.181 1063.42,468.943 1064.14,468.697 1064.85,468.456 1065.57,468.223 
  1066.28,467.995 1067,467.753 1067.71,467.487 1068.43,467.241 1069.14,467.01 1069.86,466.778 1070.58,466.528 1071.29,466.292 1072.01,466.059 1072.72,465.825 
  1073.44,465.577 1074.15,465.339 1074.87,465.113 1075.59,464.884 1076.3,464.653 1077.02,464.421 1077.73,464.198 1078.45,463.97 1079.16,463.751 1079.88,463.531 
  1080.59,463.304 1081.31,463.07 1082.03,462.847 1082.74,462.63 1083.46,462.409 1084.17,462.178 1084.89,461.947 1085.6,461.732 1086.32,461.522 1087.04,461.31 
  1087.75,461.085 1088.47,460.868 1089.18,460.654 1089.9,460.439 1090.61,460.219 1091.33,460.012 1092.04,459.81 1092.76,459.606 1093.48,459.4 1094.19,459.192 
  1094.91,458.991 1095.62,458.79 1096.34,458.593 1097.05,458.396 1097.77,458.204 1098.49,458.005 1099.2,457.807 1099.92,457.607 1100.63,457.412 1101.35,457.205 
  1102.06,457.004 1102.78,456.796 1103.49,456.589 1104.21,456.379 1104.93,456.158 1105.64,455.937 1106.36,455.738 1107.07,455.543 1107.79,455.324 1108.5,455.091 
  1109.22,454.87 1109.94,454.669 1110.65,454.46 1111.37,454.227 1112.08,453.997 1112.8,453.783 1113.51,453.566 1114.23,453.332 1114.94,453.103 1115.66,452.894 
  1116.38,452.688 1117.09,452.469 1117.81,452.251 1118.52,452.042 1119.24,451.831 1119.95,451.607 1120.67,451.393 1121.39,451.191 1122.1,450.981 1122.82,450.764 
  1123.53,450.541 1124.25,450.324 1124.96,450.1 1125.68,449.876 1126.39,449.654 1127.11,449.442 1127.83,449.223 1128.54,449.005 1129.26,448.795 1129.97,448.581 
  1130.69,448.362 1131.4,448.148 1132.12,447.935 1132.84,447.719 1133.55,447.498 1134.27,447.274 1134.98,447.063 1135.7,446.856 1136.41,446.647 1137.13,446.427 
  1137.84,446.209 1138.56,446.001 1139.28,445.796 1139.99,445.585 1140.71,445.37 1141.42,445.163 1142.14,444.947 1142.85,444.727 1143.57,444.504 1144.29,444.29 
  1145,444.076 1145.72,443.897 1146.43,443.645 1147.15,443.394 1147.86,443.188 1148.58,443.01 1149.29,442.811 1150.01,442.566 1150.73,442.324 1151.44,442.1 
  1152.16,441.893 1152.87,441.692 1153.59,441.506 1154.3,441.303 1155.02,441.09 1155.74,440.867 1156.45,440.662 1157.17,440.471 1157.88,440.281 1158.6,440.074 
  1159.31,439.873 1160.03,439.679 1160.74,439.472 1161.46,439.271 1162.18,439.084 1162.89,438.893 1163.61,438.679 1164.32,438.477 1165.04,438.281 1165.75,438.093 
  1166.47,437.887 1167.19,437.676 1167.9,437.474 1168.62,437.281 1169.33,437.076 1170.05,436.869 1170.76,436.673 1171.48,436.483 1172.19,436.287 1172.91,436.072 
  1173.63,435.862 1174.34,435.663 1175.06,435.47 1175.77,435.276 1176.49,435.07 1177.2,434.872 1177.92,434.687 1178.64,434.539 1179.35,434.387 1180.07,434.231 
  1180.78,434.104 1181.5,434.04 1182.21,434.029 1182.93,434.053 1183.64,434.099 1184.36,434.191 1185.08,434.357 1185.79,434.605 1186.51,434.953 1187.22,435.36 
  1187.94,435.817 1188.65,436.363 1189.37,437.021 1190.08,437.782 1190.8,438.65 1191.52,439.607 1192.23,440.647 1192.95,441.78 1193.66,443.021 1194.38,444.366 
  1195.09,445.805 1195.81,447.335 1196.53,448.95 1197.24,450.646 1197.96,452.416 1198.67,454.263 1199.39,456.171 1200.1,458.135 1200.82,460.146 1201.53,462.223 
  1202.25,464.327 1202.97,466.465 1203.68,468.657 1204.4,470.884 1205.11,473.13 1205.83,475.396 1206.54,477.689 1207.26,480.018 1207.98,482.374 1208.69,484.756 
  1209.41,487.157 1210.12,489.571 1210.84,492.006 1211.55,494.459 1212.27,496.93 1212.98,499.421 1213.7,501.924 1214.42,504.435 1215.13,506.97 1215.85,509.514 
  1216.56,512.057 1217.28,514.614 1217.99,517.187 1218.71,519.762 1219.43,522.345 1220.14,524.944 1220.86,527.547 1221.57,530.149 1222.29,532.761 1223,535.386 
  1223.72,538.018 1224.43,540.657 1225.15,543.303 1225.87,545.952 1226.58,548.604 1227.3,551.259 1228.01,553.919 1228.73,556.589 1229.44,559.267 1230.16,561.937 
  1230.87,564.601 1231.59,567.276 1232.31,569.953 1233.02,572.637 1233.74,575.331 1234.45,578.015 1235.17,580.703 1235.88,583.397 1236.6,586.093 1237.32,588.785 
  1238.03,591.49 1238.75,594.195 1239.46,596.898 1240.18,599.599 1240.89,602.302 1241.61,605.009 1242.32,607.715 1243.04,610.41 1243.76,613.088 1244.47,615.747 
  1245.19,618.381 1245.9,621 1246.62,623.583 1247.33,626.122 1248.05,628.609 1248.77,631.052 1249.48,633.435 1250.2,635.752 1250.91,638.002 1251.63,640.184 
  1252.34,642.283 1253.06,644.296 1253.77,646.219 1254.49,648.062 1255.21,649.805 1255.92,651.458 1256.64,653.021 1257.35,654.499 1258.07,655.881 1258.78,657.169 
  1259.5,658.372 1260.21,659.488 1260.93,660.515 1261.65,661.469 1262.36,662.342 1263.08,663.121 1263.79,663.835 1264.51,664.488 1265.22,665.075 1265.94,665.619 
  1266.66,666.134 1267.37,666.605 1268.09,667.024 1268.8,667.413 1269.52,667.782 1270.23,668.136 1270.95,668.478 1271.66,668.812 1272.38,669.141 1273.1,669.464 
  1273.81,669.797 1274.53,670.115 1275.24,670.423 1275.96,670.728 1276.67,671.025 1277.39,671.295 1278.11,671.561 1278.82,671.806 1279.54,672.014 1280.25,672.211 
  1280.97,672.388 1281.68,672.535 1282.4,672.668 1283.11,672.772 1283.83,672.845 1284.55,672.896 1285.26,672.944 1285.98,672.976 1286.69,672.994 1287.41,672.995 
  1288.12,672.983 1288.84,672.958 1289.55,672.921 1290.27,672.901 1290.99,672.869 1291.7,672.821 1292.42,672.749 1293.13,672.661 1293.85,672.571 1294.56,672.477 
  1295.28,672.378 1296,672.272 1296.71,672.162 1297.43,672.046 1298.14,671.925 1298.86,671.8 1299.57,671.666 1300.29,671.525 1301,671.391 1301.72,671.251 
  1302.44,671.101 1303.15,670.948 1303.87,670.791 1304.58,670.627 1305.3,670.462 1306.01,670.299 1306.73,670.137 1307.44,669.969 1308.16,669.801 1308.88,669.632 
  1309.59,669.457 1310.31,669.281 1311.02,669.106 1311.74,668.929 1312.45,668.747 1313.17,668.566 1313.89,668.383 1314.6,668.199 1315.32,668.018 1316.03,667.839 
  1316.75,667.656 1317.46,667.47 1318.18,667.284 1318.89,667.095 1319.61,666.908 1320.33,666.724 1321.04,666.54 1321.76,666.353 1322.47,666.168 1323.19,665.982 
  1323.9,665.797 1324.62,665.613 1325.34,665.431 1326.05,665.252 1326.77,665.08 1327.48,664.913 1328.2,664.754 1328.91,664.605 1329.63,664.465 1330.34,664.333 
  1331.06,664.209 1331.78,664.094 1332.49,663.987 1333.21,663.888 1333.92,663.797 1334.64,663.714 1335.35,663.638 1336.07,663.569 1336.78,663.506 1337.5,663.45 
  1338.22,663.399 1338.93,663.353 1339.65,663.313 1340.36,663.277 1341.08,663.244 1341.79,663.215 1342.51,663.185 1343.23,663.158 1343.94,663.136 1344.66,663.116 
  1345.37,663.099 1346.09,663.089 1346.8,663.079 1347.52,663.066 1348.23,663.054 1348.95,663.043 1349.67,663.026 1350.38,663.015 1351.1,663.011 1351.81,663.009 
  1352.53,663.003 1353.24,662.992 1353.96,662.975 1354.68,662.95 1355.39,662.927 1356.11,662.908 1356.82,662.893 1357.54,662.882 1358.25,662.875 1358.97,662.864 
  1359.68,662.845 1360.4,662.828 1361.12,662.811 1361.83,662.796 1362.55,662.793 1363.26,662.794 1363.98,662.785 1364.69,662.782 1365.41,662.783 1366.12,662.787 
  1366.84,662.801 1367.56,662.819 1368.27,662.844 1368.99,662.87 1369.7,662.901 1370.42,662.938 1371.13,662.978 1371.85,663.02 1372.57,663.064 1373.28,663.117 
  1374,663.176 1374.71,663.24 1375.43,663.307 1376.14,663.381 1376.86,663.451 1377.57,663.52 1378.29,663.594 1379.01,663.668 1379.72,663.743 1380.44,663.831 
  1381.15,663.923 1381.87,664.013 1382.58,664.101 1383.3,664.181 1384.02,664.255 1384.73,664.332 1385.45,664.418 1386.16,664.498 1386.88,664.575 1387.59,664.653 
  1388.31,664.728 1389.02,664.795 1389.74,664.868 1390.46,664.952 1391.17,665.043 1391.89,665.138 1392.6,665.237 1393.32,665.326 1394.03,665.405 1394.75,665.475 
  1395.46,665.544 1396.18,665.618 1396.9,665.699 1397.61,665.788 1398.33,665.879 1399.04,665.968 1399.76,666.061 1400.47,666.165 1401.19,666.274 1401.91,666.389 
  1402.62,666.509 1403.34,666.626 1404.05,666.745 1404.77,666.873 1405.48,667.014 1406.2,667.166 1406.91,667.317 1407.63,667.467 1408.35,667.619 1409.06,667.778 
  1409.78,667.943 1410.49,668.112 1411.21,668.288 1411.92,668.467 1412.64,668.651 1413.36,668.843 1414.07,669.042 1414.79,669.247 1415.5,669.454 1416.22,669.662 
  1416.93,669.878 1417.65,670.093 1418.36,670.306 1419.08,670.524 1419.8,670.75 1420.51,670.984 1421.23,671.222 1421.94,671.466 1422.66,671.709 1423.37,671.954 
  1424.09,672.211 1424.81,672.487 1425.52,672.788 1426.24,673.117 1426.95,673.479 1427.67,673.877 1428.38,674.313 1429.1,674.801 1429.81,675.335 1430.53,675.916 
  1431.25,676.557 1431.96,677.275 1432.68,678.064 1433.39,678.938 1434.11,679.879 1434.82,680.902 1435.54,682.002 1436.26,683.193 1436.97,684.476 1437.69,685.858 
  1438.4,687.332 1439.12,688.898 1439.83,690.566 1440.55,692.344 1441.26,694.234 1441.98,696.223 1442.7,698.313 1443.41,700.502 1444.13,702.789 1444.84,705.176 
  1445.56,707.664 1446.27,710.24 1446.99,712.901 1447.71,715.648 1448.42,718.475 1449.14,721.379 1449.85,724.36 1450.57,727.41 1451.28,730.515 1452,733.669 
  1452.71,736.873 1453.43,740.132 1454.15,743.437 1454.86,746.783 1455.58,750.17 1456.29,753.588 1457.01,757.039 1457.72,760.529 1458.44,764.054 1459.16,767.608 
  1459.87,771.183 1460.59,774.777 1461.3,778.391 1462.02,782.033 1462.73,785.703 1463.45,789.384 1464.17,793.071 1464.88,796.776 1465.6,800.499 1466.31,804.226 
  1467.03,807.965 1467.74,811.711 1468.46,815.462 1469.17,819.223 1469.89,822.991 1470.61,826.755 1471.32,830.517 1472.04,834.265 1472.75,838.004 1473.47,841.737 
  1474.18,845.447 1474.9,849.138 1475.62,852.808 1476.33,856.455 1477.05,860.066 1477.76,863.642 1478.48,867.191 1479.19,870.695 1479.91,874.15 1480.62,877.542 
  1481.34,880.886 1482.06,884.172 1482.77,887.403 1483.49,890.565 1484.2,893.656 1484.92,896.673 1485.63,899.618 1486.35,902.499 1487.07,905.3 1487.78,908.002 
  1488.5,910.61 1489.21,913.144 1489.93,915.581 1490.64,917.93 1491.36,920.175 1492.07,922.338 1492.79,924.402 1493.51,926.359 1494.22,928.206 1494.94,929.973 
  1495.65,931.641 1496.37,933.2 1497.08,934.635 1497.8,935.971 1498.52,937.214 1499.23,938.371 1499.95,939.441 1500.66,940.426 1501.38,941.329 1502.09,942.144 
  1502.81,942.893 1503.53,943.564 1504.24,944.192 1504.96,944.763 1505.67,945.278 1506.39,945.715 1507.1,946.137 1507.82,946.517 1508.53,946.863 1509.25,947.162 
  1509.97,947.436 1510.68,947.66 1511.4,947.864 1512.11,948.032 1512.83,948.19 1513.54,948.31 1514.26,948.398 1514.98,948.46 1515.69,948.515 1516.41,948.558 
  1517.12,948.586 1517.84,948.587 1518.55,948.567 1519.27,948.531 1519.98,948.482 1520.7,948.425 1521.42,948.358 1522.13,948.283 1522.85,948.187 1523.56,948.076 
  1524.28,947.959 1524.99,947.844 1525.71,947.715 1526.43,947.569 1527.14,947.404 1527.86,947.238 1528.57,947.073 1529.29,946.918 1530,946.747 1530.72,946.569 
  1531.43,946.362 1532.15,946.15 1532.87,945.943 1533.58,945.763 1534.3,945.549 1535.01,945.334 1535.73,945.115 1536.44,944.9 1537.16,944.679 1537.88,944.47 
  1538.59,944.246 1539.31,943.988 1540.02,943.749 1540.74,943.518 1541.45,943.292 1542.17,943.07 1542.89,942.818 1543.6,942.554 1544.32,942.307 1545.03,942.073 
  1545.75,941.849 1546.46,941.591 1547.18,941.309 1547.89,941.032 1548.61,940.787 1549.33,940.542 1550.04,940.307 1550.76,940.034 1551.47,939.748 1552.19,939.485 
  1552.9,939.245 1553.62,939.008 1554.34,938.756 1555.05,938.47 1555.77,938.201 1556.48,937.937 1557.2,937.699 1557.91,937.453 1558.63,937.184 1559.34,936.903 
  1560.06,936.639 1560.78,936.381 1561.49,936.144 1562.21,935.922 1562.92,935.703 1563.64,935.492 1564.35,935.282 1565.07,935.088 1565.79,934.907 1566.5,934.759 
  1567.22,934.624 1567.93,934.513 1568.65,934.418 1569.36,934.356 1570.08,934.315 1570.79,934.312 1571.51,934.32 1572.23,934.357 1572.94,934.413 1573.66,934.494 
  1574.37,934.593 1575.09,934.73 1575.8,934.861 1576.52,934.994 1577.24,935.155 1577.95,935.346 1578.67,935.526 1579.38,935.692 1580.1,935.867 1580.81,936.06 
  1581.53,936.251 1582.24,936.423 1582.96,936.597 1583.68,936.783 1584.39,936.972 1585.11,937.144 1585.82,937.312 1586.54,937.49 1587.25,937.663 1587.97,937.809 
  1588.69,937.951 1589.4,938.107 1590.12,938.259 1590.83,938.387 1591.55,938.499 1592.26,938.617 1592.98,938.742 1593.69,938.856 1594.41,938.949 1595.13,939.03 
  1595.84,939.115 1596.56,939.184 1597.27,939.246 1597.99,939.301 1598.7,939.351 1599.42,939.373 1600.14,939.386 1600.85,939.4 1601.57,939.422 1602.28,939.432 
  1603,939.42 1603.71,939.396 1604.43,939.376 1605.14,939.351 1605.86,939.314 1606.58,939.278 1607.29,939.234 1608.01,939.181 1608.72,939.103 1609.44,939.025 
  1610.15,938.945 1610.87,938.864 1611.59,938.755 1612.3,938.64 1613.02,938.508 1613.73,938.373 1614.45,938.237 1615.16,938.092 1615.88,937.933 1616.6,937.759 
  1617.31,937.583 1618.03,937.411 1618.74,937.238 1619.46,937.051 1620.17,936.861 1620.89,936.668 1621.6,936.473 1622.32,936.277 1623.04,936.069 1623.75,935.858 
  1624.47,935.65 1625.18,935.439 1625.9,935.209 1626.61,934.974 1627.33,934.75 1628.05,934.532 1628.76,934.291 1629.48,934.033 1630.19,933.78 1630.91,933.532 
  1631.62,933.296 1632.34,933.035 1633.05,932.767 1633.77,932.498 1634.49,932.26 1635.2,932.019 1635.92,931.778 1636.63,931.518 1637.35,931.266 1638.06,931.016 
  1638.78,930.789 1639.5,930.573 1640.21,930.312 1640.93,930.052 1641.64,929.808 1642.36,929.589 1643.07,929.373 1643.79,929.149 1644.5,928.894 1645.22,928.654 
  1645.94,928.416 1646.65,928.194 1647.37,927.981 1648.08,927.787 1648.8,927.58 1649.51,927.375 1650.23,927.154 1650.95,926.924 1651.66,926.723 1652.38,926.551 
  1653.09,926.359 1653.81,926.139 1654.52,925.948 1655.24,925.775 1655.95,925.604 1656.67,925.427 1657.39,925.228 1658.1,925.04 1658.82,924.873 1659.53,924.727 
  1660.25,924.562 1660.96,924.365 1661.68,924.17 1662.4,923.997 1663.11,923.828 1663.83,923.65 1664.54,923.469 1665.26,923.288 1665.97,923.099 1666.69,922.897 
  1667.4,922.702 1668.12,922.517 1668.84,922.335 1669.55,922.139 1670.27,921.937 1670.98,921.735 1671.7,921.536 1672.41,921.318 1673.13,921.102 1673.85,920.886 
  1674.56,920.669 1675.28,920.45 1675.99,920.227 1676.71,920.003 1677.42,919.786 1678.14,919.565 1678.85,919.334 1679.57,919.108 1680.29,918.894 1681,918.671 
  1681.72,918.429 1682.43,918.194 1683.15,917.978 1683.86,917.757 1684.58,917.514 1685.3,917.269 1686.01,917.04 1686.73,916.815 1687.44,916.568 1688.16,916.308 
  1688.87,916.067 1689.59,915.826 1690.3,915.582 1691.02,915.342 1691.74,915.109 1692.45,914.877 1693.17,914.622 1693.88,914.368 1694.6,914.127 1695.31,913.896 
  1696.03,913.665 1696.75,913.44 1697.46,913.205 1698.18,912.978 1698.89,912.757 1699.61,912.538 1700.32,912.321 1701.04,912.118 1701.75,911.895 1702.47,911.64 
  1703.19,911.401 1703.9,911.187 1704.62,910.99 1705.33,910.75 1706.05,910.497 1706.76,910.263 1707.48,910.044 1708.2,909.81 1708.91,909.581 1709.63,909.365 
  1710.34,909.124 1711.06,908.882 1711.77,908.652 1712.49,908.43 1713.2,908.193 1713.92,907.922 1714.64,907.666 1715.35,907.44 1716.07,907.231 1716.78,907.003 
  1717.5,906.753 1718.21,906.499 1718.93,906.246 1719.65,905.984 1720.36,905.741 1721.08,905.504 1721.79,905.266 1722.51,905.014 1723.22,904.77 1723.94,904.537 
  1724.65,904.304 1725.37,904.046 1726.09,903.797 1726.8,903.555 1727.52,903.317 1728.23,903.072 1728.95,902.828 1729.66,902.588 1730.38,902.32 1731.1,902.057 
  1731.81,901.805 1732.53,901.559 1733.24,901.318 1733.96,901.076 1734.67,900.813 1735.39,900.547 1736.1,900.302 1736.82,900.076 1737.54,899.837 1738.25,899.577 
  1738.97,899.327 1739.68,899.077 1740.4,898.819 1741.11,898.558 1741.83,898.311 1742.55,898.07 1743.26,897.815 1743.98,897.548 1744.69,897.294 1745.41,897.051 
  1746.12,896.791 1746.84,896.52 1747.55,896.263 1748.27,896.019 1748.99,895.759 1749.7,895.491 1750.42,895.226 1751.13,894.976 1751.85,894.728 1752.56,894.479 
  1753.28,894.23 1754,893.982 1754.71,893.728 1755.43,893.457 1756.14,893.202 1756.86,892.965 1757.57,892.729 1758.29,892.467 1759,892.211 1759.72,891.966 
  1760.44,891.715 1761.15,891.45 1761.87,891.175 1762.58,890.924 1763.3,890.68 1764.01,890.417 1764.73,890.152 1765.44,889.909 1766.16,889.661 1766.88,889.404 
  1767.59,889.128 1768.31,888.892 1769.02,888.672 1769.74,888.442 1770.45,888.166 1771.17,887.887 1771.89,887.63 1772.6,887.389 1773.32,887.15 1774.03,886.907 
  1774.75,886.668 1775.46,886.415 1776.18,886.162 1776.89,885.92 1777.61,885.684 1778.33,885.438 1779.04,885.191 1779.76,884.941 1780.47,884.704 1781.19,884.459 
  1781.9,884.193 1782.62,883.926 1783.34,883.684 1784.05,883.447 1784.77,883.198 1785.48,882.944 1786.2,882.704 1786.91,882.465 1787.63,882.221 1788.34,881.95 
  1789.06,881.704 1789.78,881.503 1790.49,881.295 1791.21,881.04 1791.92,880.747 1792.64,880.483 1793.35,880.261 1794.07,880.049 1794.78,879.815 1795.5,879.556 
  1796.22,879.298 1796.93,879.058 1797.65,878.845 1798.36,878.649 1799.08,878.415 1799.79,878.142 1800.51,877.891 1801.23,877.657 1801.94,877.423 1802.66,877.213 
  1803.37,877.006 1804.09,876.748 1804.8,876.49 1805.52,876.267 1806.23,876.05 1806.95,875.829 1807.67,875.604 1808.38,875.356 1809.1,875.105 1809.81,874.866 
  1810.53,874.638 1811.24,874.4 1811.96,874.157 1812.68,873.91 1813.39,873.664 1814.11,873.414 1814.82,873.174 1815.54,872.955 1816.25,872.749 1816.97,872.518 
  1817.68,872.276 1818.4,872.047 1819.12,871.817 1819.83,871.582 1820.55,871.338 1821.26,871.1 1821.98,870.87 1822.69,870.645 1823.41,870.417 1824.12,870.199 
  1824.84,869.954 1825.56,869.692 1826.27,869.453 1826.99,869.228 1827.7,869.01 1828.42,868.786 1829.13,868.54 1829.85,868.286 1830.57,868.054 1831.28,867.823 
  1832,867.585 1832.71,867.347 1833.43,867.117 1834.14,866.884 1834.86,866.635 1835.57,866.402 1836.29,866.181 1837.01,865.957 1837.72,865.717 1838.44,865.474 
  1839.15,865.238 1839.87,865.014 1840.58,864.775 1841.3,864.536 1842.02,864.309 1842.73,864.093 1843.45,863.848 1844.16,863.59 1844.88,863.362 1845.59,863.148 
  1846.31,862.916 1847.02,862.648 1847.74,862.409 1848.46,862.191 1849.17,861.995 1849.89,861.764 1850.6,861.499 1851.32,861.264 1852.03,861.05 1852.75,860.842 
  1853.46,860.625 1854.18,860.393 1854.9,860.144 1855.61,859.898 1856.33,859.667 1857.04,859.455 1857.76,859.237 1858.47,859.013 1859.19,858.776 1859.91,858.539 
  1860.62,858.302 1861.34,858.067 1862.05,857.842 1862.77,857.629 1863.48,857.424 1864.2,857.189 1864.91,856.959 1865.63,856.735 1866.35,856.524 1867.06,856.288 
  1867.78,856.059 1868.49,855.836 1869.21,855.617 1869.92,855.381 1870.64,855.156 1871.36,854.929 1872.07,854.696 1872.79,854.46 1873.5,854.232 1874.22,854.005 
  1874.93,853.759 1875.65,853.524 1876.36,853.286 1877.08,853.051 1877.8,852.81 1878.51,852.576 1879.23,852.333 1879.94,852.095 1880.66,851.858 1881.37,851.622 
  1882.09,851.392 1882.8,851.172 1883.52,850.955 1884.24,850.728 1884.95,850.49 1885.67,850.254 1886.38,850.032 1887.1,849.81 1887.81,849.588 1888.53,849.354 
  1889.25,849.116 1889.96,848.885 1890.68,848.649 1891.39,848.405 1892.11,848.174 1892.82,847.953 1893.54,847.709 1894.25,847.462 1894.97,847.228 1895.69,847.004 
  1896.4,846.769 1897.12,846.534 1897.83,846.311 1898.55,846.089 1899.26,845.857 1899.98,845.615 1900.69,845.389 1901.41,845.175 1902.13,844.955 1902.84,844.713 
  1903.56,844.486 1904.27,844.27 1904.99,844.052 1905.7,843.82 1906.42,843.597 1907.14,843.369 1907.85,843.127 1908.57,842.874 1909.28,842.633 1910,842.411 
  1910.71,842.187 1911.43,841.951 1912.14,841.711 1912.86,841.49 1913.58,841.273 1914.29,841.04 1915.01,840.799 1915.72,840.574 1916.44,840.369 1917.15,840.149 
  1917.87,839.913 1918.58,839.688 1919.3,839.483 1920.02,839.264 1920.73,839.055 1921.45,838.865 1922.16,838.671 1922.88,838.451 1923.59,838.239 1924.31,838.038 
  1925.03,837.845 1925.74,837.654 1926.46,837.462 1927.17,837.278 1927.89,837.098 1928.6,836.914 1929.32,836.714 1930.03,836.53 1930.75,836.345 1931.47,836.149 
  1932.18,835.944 1932.9,835.747 1933.61,835.562 1934.33,835.377 1935.04,835.185 1935.76,834.986 1936.47,834.799 1937.19,834.606 1937.91,834.418 1938.62,834.233 
  1939.34,834.075 1940.05,833.905 1940.77,833.718 1941.48,833.528 1942.2,833.362 1942.92,833.199 1943.63,833.018 1944.35,832.825 1945.06,832.654 1945.78,832.497 
  1946.49,832.331 1947.21,832.172 1947.92,832.029 1948.64,831.894 1949.36,831.759 1950.07,831.638 1950.79,831.535 1951.5,831.442 1952.22,831.36 1952.93,831.293 
  1953.65,831.236 1954.36,831.18 1955.08,831.153 1955.8,831.131 1956.51,831.137 1957.23,831.169 1957.94,831.204 1958.66,831.229 1959.37,831.249 1960.09,831.3 
  1960.81,831.346 1961.52,831.382 1962.24,831.381 1962.95,831.358 1963.67,831.297 1964.38,831.203 1965.1,831.052 1965.81,830.863 1966.53,830.606 1967.25,830.274 
  1967.96,829.873 1968.68,829.423 1969.39,828.892 1970.11,828.26 1970.82,827.541 1971.54,826.746 1972.26,825.867 1972.97,824.904 1973.69,823.87 1974.4,822.767 
  1975.12,821.604 1975.83,820.37 1976.55,819.061 1977.26,817.685 1977.98,816.238 1978.7,814.715 1979.41,813.124 1980.13,811.471 1980.84,809.77 1981.56,808.028 
  1982.27,806.246 1982.99,804.401 1983.71,802.494 1984.42,800.54 1985.14,798.547 1985.85,796.52 1986.57,794.457 1987.28,792.357 1988,790.212 1988.71,788.035 
  1989.43,785.836 1990.15,783.606 1990.86,781.34 1991.58,779.05 1992.29,776.736 1993.01,774.404 1993.72,772.064 1994.44,769.705 1995.16,767.337 1995.87,764.967 
  1996.59,762.582 1997.3,760.194 1998.02,757.809 1998.73,755.433 1999.45,753.053 2000.16,750.674 2000.88,748.31 2001.6,745.962 2002.31,743.624 2003.03,741.29 
  2003.74,738.97 2004.46,736.663 2005.17,734.363 2005.89,732.083 2006.61,729.824 2007.32,727.582 2008.04,725.349 2008.75,723.125 2009.47,720.917 2010.18,718.727 
  2010.9,716.551 2011.61,714.383 2012.33,712.226 2013.05,710.079 2013.76,707.937 2014.48,705.803 2015.19,703.687 2015.91,701.572 2016.62,699.461 2017.34,697.351 
  2018.06,695.244 2018.77,693.138 2019.49,691.032 2020.2,688.929 2020.92,686.828 2021.63,684.724 2022.35,682.618 2023.07,680.515 2023.78,678.416 2024.5,676.322 
  2025.21,674.244 2025.93,672.186 2026.64,670.151 2027.36,668.14 2028.07,666.154 2028.79,664.191 2029.51,662.251 2030.22,660.335 2030.94,658.449 2031.65,656.609 
  2032.37,654.815 2033.08,653.069 2033.8,651.375 2034.52,649.744 2035.23,648.181 2035.95,646.682 2036.66,645.251 2037.38,643.887 2038.09,642.584 2038.81,641.353 
  2039.53,640.211 2040.24,639.15 2040.96,638.167 2041.67,637.266 2042.39,636.446 2043.1,635.691 2043.82,634.99 2044.53,634.361 2045.25,633.807 2045.97,633.308 
  2046.68,632.866 2047.4,632.484 2048.11,632.163 2048.83,631.897 2049.54,631.68 2050.26,631.496 2050.98,631.338 2051.69,631.206 2052.41,631.088 2053.12,630.984 
  2053.84,630.895 2054.55,630.804 2055.27,630.725 2055.99,630.67 2056.7,630.644 2057.42,630.642 2058.13,630.67 2058.85,630.706 2059.56,630.754 2060.28,630.837 
  2061,630.951 2061.71,631.068 2062.43,631.204 2063.14,631.364 2063.86,631.535 2064.57,631.718 2065.29,631.922 2066.01,632.133 2066.72,632.346 2067.44,632.561 
  2068.15,632.778 2068.87,632.987 2069.58,633.194 2070.3,633.399 2071.01,633.624 2071.73,633.821 2072.45,634.02 2073.16,634.214 2073.88,634.364 2074.59,634.48 
  2075.31,634.58 2076.02,634.666 2076.74,634.741 2077.46,634.81 2078.17,634.857 2078.89,634.879 2079.6,634.884 2080.32,634.861 2081.03,634.819 2081.75,634.76 
  2082.47,634.68 2083.18,634.58 2083.9,634.46 2084.61,634.314 2085.33,634.142 2086.04,633.95 2086.76,633.743 2087.48,633.52 2088.19,633.274 2088.91,633.013 
  2089.62,632.725 2090.34,632.413 2091.05,632.086 2091.77,631.744 2092.49,631.388 2093.2,631.02 2093.92,630.638 2094.63,630.245 2095.35,629.841 2096.06,629.43 
  2096.78,629.007 2097.49,628.573 2098.21,628.13 2098.93,627.676 2099.64,627.209 2100.36,626.736 2101.07,626.26 2101.79,625.778 2102.5,625.29 2103.22,624.796 
  2103.94,624.299 2104.65,623.796 2105.37,623.291 2106.08,622.784 2106.8,622.278 2107.51,621.772 2108.23,621.265 2108.95,620.757 2109.66,620.247 2110.38,619.734 
  2111.09,619.222 2111.81,618.711 2112.52,618.203 2113.24,617.694 2113.95,617.184 2114.67,616.672 2115.39,616.157 2116.1,615.641 2116.82,615.128 2117.53,614.62 
  2118.25,614.115 2118.96,613.614 2119.68,613.116 2120.4,612.618 2121.11,612.12 2121.83,611.623 2122.54,611.127 2123.26,610.633 2123.97,610.142 2124.69,609.654 
  2125.41,609.168 2126.12,608.687 2126.84,608.209 2127.55,607.731 2128.27,607.256 2128.98,606.785 2129.7,606.319 2130.42,605.858 2131.13,605.402 2131.85,604.949 
  2132.56,604.499 2133.28,604.056 2133.99,603.616 2134.71,603.179 2135.42,602.744 2136.14,602.31 2136.86,601.878 2137.57,601.45 2138.29,601.025 2139,600.601 
  2139.72,600.178 2140.43,599.756 2141.15,599.334 2141.87,598.915 2142.58,598.5 2143.3,598.086 2144.01,597.676 2144.73,597.268 2145.44,596.861 2146.16,596.456 
  2146.88,596.056 2147.59,595.658 2148.31,595.266 2149.02,594.878 2149.74,594.493 2150.45,594.112 2151.17,593.737 2151.88,593.369 2152.6,593.01 2153.32,592.66 
  2154.03,592.318 2154.75,591.984 2155.46,591.658 2156.18,591.341 2156.89,591.034 2157.61,590.736 2158.33,590.446 2159.04,590.165 2159.76,589.892 2160.47,589.626 
  2161.19,589.369 2161.9,589.117 2162.62,588.871 2163.33,588.632 2164.05,588.4 2164.77,588.173 2165.48,587.951 2166.2,587.732 2166.91,587.515 2167.63,587.299 
  2168.34,587.084 2169.06,586.869 2169.78,586.655 2170.49,586.442 2171.21,586.23 2171.92,586.019 2172.64,585.81 2173.35,585.599 2174.07,585.388 2174.79,585.174 
  2175.5,584.96 2176.22,584.745 2176.93,584.529 2177.65,584.309 2178.36,584.089 2179.08,583.868 2179.79,583.647 2180.51,583.426 2181.23,583.202 2181.94,582.975 
  2182.66,582.746 2183.37,582.516 2184.09,582.286 2184.8,582.055 2185.52,581.824 2186.24,581.592 2186.95,581.359 2187.67,581.125 2188.38,580.889 2189.1,580.652 
  2189.81,580.417 2190.53,580.183 2191.24,579.949 2191.96,579.714 2192.68,579.478 2193.39,579.244 2194.11,579.009 2194.82,578.776 2195.54,578.545 2196.25,578.315 
  2196.97,578.085 2197.69,577.857 2198.4,577.632 2199.12,577.409 2199.83,577.188 2200.55,576.969 2201.26,576.751 2201.98,576.535 2202.7,576.319 2203.41,576.106 
  2204.13,575.896 2204.84,575.688 2205.56,575.48 2206.27,575.275 2206.99,575.069 2207.7,574.863 2208.42,574.657 2209.14,574.453 2209.85,574.25 2210.57,574.048 
  2211.28,573.846 2212,573.644 2212.71,573.443 2213.43,573.242 2214.15,573.042 2214.86,572.841 2215.58,572.641 2216.29,572.44 2217.01,572.24 2217.72,572.042 
  2218.44,571.845 2219.15,571.65 2219.87,571.457 2220.59,571.264 2221.3,571.071 2222.02,570.88 2222.73,570.691 2223.45,570.504 2224.16,570.319 2224.88,570.136 
  2225.6,569.952 2226.31,569.77 2227.03,569.589 2227.74,569.409 2228.46,569.23 2229.17,569.051 2229.89,568.871 2230.6,568.693 2231.32,568.515 2232.04,568.339 
  2232.75,568.164 2233.47,567.992 2234.18,567.818 2234.9,567.644 2235.61,567.471 2236.33,567.299 2237.05,567.128 2237.76,566.96 2238.48,566.791 2239.19,566.622 
  2239.91,566.452 2240.62,566.283 2241.34,566.115 2242.06,565.948 2242.77,565.786 2243.49,565.625 2244.2,565.464 2244.92,565.307 2245.63,565.152 2246.35,564.997 
  2247.06,564.841 2247.78,564.685 2248.5,564.531 2249.21,564.382 2249.93,564.239 2250.64,564.097 2251.36,563.957 2252.07,563.816 2252.79,563.676 2253.51,563.536 
  2254.22,563.398 2254.94,563.262 2255.65,563.125 2256.37,562.99 2257.08,562.857 2257.8,562.724 2258.51,562.592 2259.23,562.461 2259.95,562.331 2260.66,562.203 
  2261.38,562.075 2262.09,561.947 2262.81,561.816 2263.52,561.685 2264.24,561.55 2264.96,561.418 2265.67,561.29 2266.39,561.167 2267.1,561.044 2267.82,560.92 
  2268.53,560.793 2269.25,560.664 2269.96,560.535 2270.68,560.406 2271.4,560.28 2272.11,560.153 2272.83,560.026 2273.54,559.9 2274.26,559.771 2274.97,559.64 
  2275.69,559.511 2276.41,559.382 2277.12,559.252 2277.84,559.122 2278.55,558.992 2279.27,558.863 2279.98,558.735 2280.7,558.608 2281.41,558.483 2282.13,558.359 
  2282.85,558.236 2283.56,558.111 2284.28,557.988 2284.99,557.866 2285.71,557.747 2286.42,557.629 2287.14,557.512 2287.86,557.397 2288.57,557.285 2289.29,557.176 
  2290,557.066 2290.72,556.958 2291.43,556.849 2292.15,556.74 
  "/>
<polyline clip-path="url(#clip002)" style="stroke:#e26f46; stroke-linecap:butt; stroke-linejoin:round; stroke-width:4; stroke-opacity:1; fill:none" points="
  299.346,739.508 317.971,720.684 336.597,683.532 355.223,786.983 373.849,706.308 392.475,789.109 411.101,687.682 429.727,776.76 448.353,681.304 466.978,762.185 
  485.604,784.958 504.23,720.884 522.856,753.884 541.482,731.107 560.108,799.536 578.733,733.233 597.359,731.007 615.985,770.685 634.611,714.406 653.237,722.909 
  671.862,735.258 690.488,534.114 709.114,314.381 727.74,308.014 746.366,310.051 764.992,235.186 783.617,336.813 802.243,160.256 820.869,286.837 839.495,253.373 
  858.121,222.219 876.747,307.215 895.372,194.881 913.998,226.006 932.624,292.384 951.25,221.499 969.876,229.802 988.502,327.423 1007.13,227.44 1025.75,275.191 
  1044.38,310.469 1063,264.515 1081.63,237.45 1100.26,208.022 1118.89,281.187 1137.51,261.788 1156.13,268.128 1174.76,266.084 1193.39,263.746 1212.01,303.352 
  1230.64,445.116 1249.26,553.71 1261.62,737.024 1265.6,1307.01 1275.85,684.696 1294.47,742.677 1313.1,742.769 1331.73,785.342 1350.35,689.241 1368.98,689.341 
  1387.6,772.705 1406.23,766.59 1424.86,714.31 1443.48,762.309 1462.11,758.235 1480.73,983.541 1499.36,1087.84 1517.98,1217.15 1536.61,1225.39 1555.24,1275.27 
  1573.86,1139.76 1592.49,1308.42 1611.11,1245.7 1629.74,1235.3 1648.37,1197.56 1666.99,1195.43 1685.62,1220.34 1704.24,1172.36 1722.87,1245.13 1741.49,1386.4 
  1760.12,1205.35 1778.75,1248.8 1797.37,1167.68 1816,1304.8 1834.62,1181.99 1853.25,1310.72 1871.88,1185.94 1890.5,1192.13 1909.13,1281.23 1927.75,1274.91 
  1946.38,1225.04 1965,1245.59 1983.63,1249.62 2002.26,1181.06 2020.88,969.615 2039.51,899.04 2058.13,803.683 2076.76,743.558 2095.39,670.883 2114.01,793.358 
  2132.64,637.882 2151.26,785.061 2169.89,784.856 2188.51,700.033 2207.14,785.058 2225.77,689.708 2244.39,743.558 2263.02,842.958 
  "/>
<path clip-path="url(#clip000)" d="
M1506.27 322.316 L2281.37 322.316 L2281.37 166.796 L1506.27 166.796  Z
  " fill="#ffffff" fill-rule="evenodd" fill-opacity="1"/>
<polyline clip-path="url(#clip000)" style="stroke:#000000; stroke-linecap:butt; stroke-linejoin:round; stroke-width:4; stroke-opacity:1; fill:none" points="
  1506.27,322.316 2281.37,322.316 2281.37,166.796 1506.27,166.796 1506.27,322.316 
  "/>
<polyline clip-path="url(#clip000)" style="stroke:#009af9; stroke-linecap:butt; stroke-linejoin:round; stroke-width:4; stroke-opacity:1; fill:none" points="
  1530.06,218.636 1672.82,218.636 
  "/>
<path clip-path="url(#clip000)" d="M1717.12 210.985 L1717.12 214.967 Q1715.32 213.971 1713.49 213.485 Q1711.68 212.976 1709.83 212.976 Q1705.69 212.976 1703.4 215.615 Q1701.11 218.231 1701.11 222.976 Q1701.11 227.721 1703.4 230.36 Q1705.69 232.976 1709.83 232.976 Q1711.68 232.976 1713.49 232.49 Q1715.32 231.981 1717.12 230.985 L1717.12 234.92 Q1715.34 235.754 1713.42 236.17 Q1711.52 236.587 1709.37 236.587 Q1703.51 236.587 1700.06 232.906 Q1696.61 229.226 1696.61 222.976 Q1696.61 216.633 1700.09 212.999 Q1703.58 209.365 1709.65 209.365 Q1711.61 209.365 1713.49 209.782 Q1715.36 210.175 1717.12 210.985 Z" fill="#000000" fill-rule="evenodd" fill-opacity="1" /><path clip-path="url(#clip000)" d="M1736.31 222.883 Q1731.15 222.883 1729.16 224.064 Q1727.17 225.244 1727.17 228.092 Q1727.17 230.36 1728.65 231.703 Q1730.16 233.022 1732.73 233.022 Q1736.27 233.022 1738.4 230.522 Q1740.55 227.999 1740.55 223.832 L1740.55 222.883 L1736.31 222.883 M1744.81 221.124 L1744.81 235.916 L1740.55 235.916 L1740.55 231.981 Q1739.09 234.342 1736.92 235.476 Q1734.74 236.587 1731.59 236.587 Q1727.61 236.587 1725.25 234.365 Q1722.91 232.119 1722.91 228.369 Q1722.91 223.994 1725.83 221.772 Q1728.77 219.55 1734.58 219.55 L1740.55 219.55 L1740.55 219.133 Q1740.55 216.194 1738.6 214.596 Q1736.68 212.976 1733.19 212.976 Q1730.97 212.976 1728.86 213.508 Q1726.75 214.041 1724.81 215.106 L1724.81 211.17 Q1727.15 210.268 1729.35 209.828 Q1731.54 209.365 1733.63 209.365 Q1739.25 209.365 1742.03 212.282 Q1744.81 215.198 1744.81 221.124 Z" fill="#000000" fill-rule="evenodd" fill-opacity="1" /><path clip-path="url(#clip000)" d="M1753.58 199.897 L1757.84 199.897 L1757.84 235.916 L1753.58 235.916 L1753.58 199.897 Z" fill="#000000" fill-rule="evenodd" fill-opacity="1" /><path clip-path="url(#clip000)" d="M1785.41 210.985 L1785.41 214.967 Q1783.6 213.971 1781.78 213.485 Q1779.97 212.976 1778.12 212.976 Q1773.98 212.976 1771.68 215.615 Q1769.39 218.231 1769.39 222.976 Q1769.39 227.721 1771.68 230.36 Q1773.98 232.976 1778.12 232.976 Q1779.97 232.976 1781.78 232.49 Q1783.6 231.981 1785.41 230.985 L1785.41 234.92 Q1783.63 235.754 1781.71 236.17 Q1779.81 236.587 1777.66 236.587 Q1771.8 236.587 1768.35 232.906 Q1764.9 229.226 1764.9 222.976 Q1764.9 216.633 1768.37 212.999 Q1771.87 209.365 1777.93 209.365 Q1779.9 209.365 1781.78 209.782 Q1783.65 210.175 1785.41 210.985 Z" fill="#000000" fill-rule="evenodd" fill-opacity="1" /><path clip-path="url(#clip000)" d="M1792.38 225.684 L1792.38 209.99 L1796.64 209.99 L1796.64 225.522 Q1796.64 229.203 1798.07 231.055 Q1799.51 232.883 1802.38 232.883 Q1805.83 232.883 1807.82 230.684 Q1809.83 228.485 1809.83 224.689 L1809.83 209.99 L1814.09 209.99 L1814.09 235.916 L1809.83 235.916 L1809.83 231.934 Q1808.28 234.295 1806.22 235.453 Q1804.18 236.587 1801.48 236.587 Q1797.01 236.587 1794.69 233.809 Q1792.38 231.031 1792.38 225.684 M1803.1 209.365 L1803.1 209.365 Z" fill="#000000" fill-rule="evenodd" fill-opacity="1" /><path clip-path="url(#clip000)" d="M1822.86 199.897 L1827.12 199.897 L1827.12 235.916 L1822.86 235.916 L1822.86 199.897 Z" fill="#000000" fill-rule="evenodd" fill-opacity="1" /><path clip-path="url(#clip000)" d="M1847.82 222.883 Q1842.66 222.883 1840.66 224.064 Q1838.67 225.244 1838.67 228.092 Q1838.67 230.36 1840.16 231.703 Q1841.66 233.022 1844.23 233.022 Q1847.77 233.022 1849.9 230.522 Q1852.05 227.999 1852.05 223.832 L1852.05 222.883 L1847.82 222.883 M1856.31 221.124 L1856.31 235.916 L1852.05 235.916 L1852.05 231.981 Q1850.6 234.342 1848.42 235.476 Q1846.24 236.587 1843.1 236.587 Q1839.11 236.587 1836.75 234.365 Q1834.41 232.119 1834.41 228.369 Q1834.41 223.994 1837.33 221.772 Q1840.27 219.55 1846.08 219.55 L1852.05 219.55 L1852.05 219.133 Q1852.05 216.194 1850.11 214.596 Q1848.19 212.976 1844.69 212.976 Q1842.47 212.976 1840.36 213.508 Q1838.26 214.041 1836.31 215.106 L1836.31 211.17 Q1838.65 210.268 1840.85 209.828 Q1843.05 209.365 1845.13 209.365 Q1850.76 209.365 1853.53 212.282 Q1856.31 215.198 1856.31 221.124 Z" fill="#000000" fill-rule="evenodd" fill-opacity="1" /><path clip-path="url(#clip000)" d="M1869.3 202.629 L1869.3 209.99 L1878.07 209.99 L1878.07 213.3 L1869.3 213.3 L1869.3 227.374 Q1869.3 230.545 1870.16 231.448 Q1871.03 232.351 1873.7 232.351 L1878.07 232.351 L1878.07 235.916 L1873.7 235.916 Q1868.77 235.916 1866.89 234.087 Q1865.02 232.235 1865.02 227.374 L1865.02 213.3 L1861.89 213.3 L1861.89 209.99 L1865.02 209.99 L1865.02 202.629 L1869.3 202.629 Z" fill="#000000" fill-rule="evenodd" fill-opacity="1" /><path clip-path="url(#clip000)" d="M1905.85 221.888 L1905.85 223.971 L1886.27 223.971 Q1886.54 228.369 1888.91 230.684 Q1891.29 232.976 1895.53 232.976 Q1897.98 232.976 1900.27 232.374 Q1902.59 231.772 1904.85 230.569 L1904.85 234.596 Q1902.56 235.568 1900.16 236.078 Q1897.75 236.587 1895.27 236.587 Q1889.07 236.587 1885.43 232.976 Q1881.82 229.365 1881.82 223.207 Q1881.82 216.842 1885.25 213.115 Q1888.7 209.365 1894.53 209.365 Q1899.76 209.365 1902.79 212.745 Q1905.85 216.101 1905.85 221.888 M1901.59 220.638 Q1901.54 217.143 1899.62 215.059 Q1897.72 212.976 1894.58 212.976 Q1891.01 212.976 1888.86 214.99 Q1886.73 217.004 1886.41 220.661 L1901.59 220.638 Z" fill="#000000" fill-rule="evenodd" fill-opacity="1" /><path clip-path="url(#clip000)" d="M1929.9 213.925 L1929.9 199.897 L1934.16 199.897 L1934.16 235.916 L1929.9 235.916 L1929.9 232.027 Q1928.56 234.342 1926.5 235.476 Q1924.46 236.587 1921.59 236.587 Q1916.89 236.587 1913.93 232.837 Q1910.99 229.087 1910.99 222.976 Q1910.99 216.865 1913.93 213.115 Q1916.89 209.365 1921.59 209.365 Q1924.46 209.365 1926.5 210.499 Q1928.56 211.61 1929.9 213.925 M1915.39 222.976 Q1915.39 227.675 1917.31 230.36 Q1919.25 233.022 1922.63 233.022 Q1926.01 233.022 1927.96 230.36 Q1929.9 227.675 1929.9 222.976 Q1929.9 218.277 1927.96 215.615 Q1926.01 212.93 1922.63 212.93 Q1919.25 212.93 1917.31 215.615 Q1915.39 218.277 1915.39 222.976 Z" fill="#000000" fill-rule="evenodd" fill-opacity="1" /><path clip-path="url(#clip000)" d="M1954.95 209.99 L1959.46 209.99 L1967.56 231.749 L1975.66 209.99 L1980.18 209.99 L1970.46 235.916 L1964.67 235.916 L1954.95 209.99 Z" fill="#000000" fill-rule="evenodd" fill-opacity="1" /><path clip-path="url(#clip000)" d="M2008.23 221.888 L2008.23 223.971 L1988.65 223.971 Q1988.93 228.369 1991.29 230.684 Q1993.67 232.976 1997.91 232.976 Q2000.36 232.976 2002.65 232.374 Q2004.97 231.772 2007.24 230.569 L2007.24 234.596 Q2004.95 235.568 2002.54 236.078 Q2000.13 236.587 1997.65 236.587 Q1991.45 236.587 1987.82 232.976 Q1984.21 229.365 1984.21 223.207 Q1984.21 216.842 1987.63 213.115 Q1991.08 209.365 1996.91 209.365 Q2002.15 209.365 2005.18 212.745 Q2008.23 216.101 2008.23 221.888 M2003.97 220.638 Q2003.93 217.143 2002.01 215.059 Q2000.11 212.976 1996.96 212.976 Q1993.4 212.976 1991.24 214.99 Q1989.11 217.004 1988.79 220.661 L2003.97 220.638 Z" fill="#000000" fill-rule="evenodd" fill-opacity="1" /><path clip-path="url(#clip000)" d="M2015.22 199.897 L2019.48 199.897 L2019.48 235.916 L2015.22 235.916 L2015.22 199.897 Z" fill="#000000" fill-rule="evenodd" fill-opacity="1" /><path clip-path="url(#clip000)" d="M2038.44 212.976 Q2035.02 212.976 2033.02 215.661 Q2031.03 218.323 2031.03 222.976 Q2031.03 227.629 2033 230.314 Q2034.99 232.976 2038.44 232.976 Q2041.84 232.976 2043.83 230.291 Q2045.83 227.606 2045.83 222.976 Q2045.83 218.37 2043.83 215.684 Q2041.84 212.976 2038.44 212.976 M2038.44 209.365 Q2044 209.365 2047.17 212.976 Q2050.34 216.587 2050.34 222.976 Q2050.34 229.342 2047.17 232.976 Q2044 236.587 2038.44 236.587 Q2032.86 236.587 2029.69 232.976 Q2026.54 229.342 2026.54 222.976 Q2026.54 216.587 2029.69 212.976 Q2032.86 209.365 2038.44 209.365 Z" fill="#000000" fill-rule="evenodd" fill-opacity="1" /><path clip-path="url(#clip000)" d="M2076.06 210.985 L2076.06 214.967 Q2074.25 213.971 2072.42 213.485 Q2070.62 212.976 2068.77 212.976 Q2064.62 212.976 2062.33 215.615 Q2060.04 218.231 2060.04 222.976 Q2060.04 227.721 2062.33 230.36 Q2064.62 232.976 2068.77 232.976 Q2070.62 232.976 2072.42 232.49 Q2074.25 231.981 2076.06 230.985 L2076.06 234.92 Q2074.27 235.754 2072.35 236.17 Q2070.46 236.587 2068.3 236.587 Q2062.45 236.587 2059 232.906 Q2055.55 229.226 2055.55 222.976 Q2055.55 216.633 2059.02 212.999 Q2062.52 209.365 2068.58 209.365 Q2070.55 209.365 2072.42 209.782 Q2074.3 210.175 2076.06 210.985 Z" fill="#000000" fill-rule="evenodd" fill-opacity="1" /><path clip-path="url(#clip000)" d="M2083.46 209.99 L2087.72 209.99 L2087.72 235.916 L2083.46 235.916 L2083.46 209.99 M2083.46 199.897 L2087.72 199.897 L2087.72 205.291 L2083.46 205.291 L2083.46 199.897 Z" fill="#000000" fill-rule="evenodd" fill-opacity="1" /><path clip-path="url(#clip000)" d="M2100.85 202.629 L2100.85 209.99 L2109.62 209.99 L2109.62 213.3 L2100.85 213.3 L2100.85 227.374 Q2100.85 230.545 2101.7 231.448 Q2102.58 232.351 2105.25 232.351 L2109.62 232.351 L2109.62 235.916 L2105.25 235.916 Q2100.32 235.916 2098.44 234.087 Q2096.57 232.235 2096.57 227.374 L2096.57 213.3 L2093.44 213.3 L2093.44 209.99 L2096.57 209.99 L2096.57 202.629 L2100.85 202.629 Z" fill="#000000" fill-rule="evenodd" fill-opacity="1" /><path clip-path="url(#clip000)" d="M2126.01 238.323 Q2124.2 242.953 2122.49 244.365 Q2120.78 245.777 2117.91 245.777 L2114.51 245.777 L2114.51 242.212 L2117.01 242.212 Q2118.76 242.212 2119.74 241.379 Q2120.71 240.545 2121.89 237.443 L2122.65 235.499 L2112.17 209.99 L2116.68 209.99 L2124.78 230.268 L2132.89 209.99 L2137.4 209.99 L2126.01 238.323 Z" fill="#000000" fill-rule="evenodd" fill-opacity="1" /><polyline clip-path="url(#clip000)" style="stroke:#e26f46; stroke-linecap:butt; stroke-linejoin:round; stroke-width:4; stroke-opacity:1; fill:none" points="
  1530.06,270.476 1672.82,270.476 
  "/>
<path clip-path="url(#clip000)" d="M1696.61 261.83 L1701.13 261.83 L1709.23 283.589 L1717.33 261.83 L1721.85 261.83 L1712.12 287.756 L1706.34 287.756 L1696.61 261.83 Z" fill="#000000" fill-rule="evenodd" fill-opacity="1" /><path clip-path="url(#clip000)" d="M1749.9 273.728 L1749.9 275.811 L1730.32 275.811 Q1730.6 280.209 1732.96 282.524 Q1735.34 284.816 1739.58 284.816 Q1742.03 284.816 1744.32 284.214 Q1746.64 283.612 1748.91 282.409 L1748.91 286.436 Q1746.61 287.408 1744.21 287.918 Q1741.8 288.427 1739.32 288.427 Q1733.12 288.427 1729.48 284.816 Q1725.87 281.205 1725.87 275.047 Q1725.87 268.682 1729.3 264.955 Q1732.75 261.205 1738.58 261.205 Q1743.81 261.205 1746.85 264.585 Q1749.9 267.941 1749.9 273.728 M1745.64 272.478 Q1745.6 268.983 1743.67 266.899 Q1741.78 264.816 1738.63 264.816 Q1735.06 264.816 1732.91 266.83 Q1730.78 268.844 1730.46 272.501 L1745.64 272.478 Z" fill="#000000" fill-rule="evenodd" fill-opacity="1" /><path clip-path="url(#clip000)" d="M1756.89 251.737 L1761.15 251.737 L1761.15 287.756 L1756.89 287.756 L1756.89 251.737 Z" fill="#000000" fill-rule="evenodd" fill-opacity="1" /><path clip-path="url(#clip000)" d="M1780.11 264.816 Q1776.68 264.816 1774.69 267.501 Q1772.7 270.163 1772.7 274.816 Q1772.7 279.469 1774.67 282.154 Q1776.66 284.816 1780.11 284.816 Q1783.51 284.816 1785.5 282.131 Q1787.49 279.446 1787.49 274.816 Q1787.49 270.21 1785.5 267.524 Q1783.51 264.816 1780.11 264.816 M1780.11 261.205 Q1785.66 261.205 1788.84 264.816 Q1792.01 268.427 1792.01 274.816 Q1792.01 281.182 1788.84 284.816 Q1785.66 288.427 1780.11 288.427 Q1774.53 288.427 1771.36 284.816 Q1768.21 281.182 1768.21 274.816 Q1768.21 268.427 1771.36 264.816 Q1774.53 261.205 1780.11 261.205 Z" fill="#000000" fill-rule="evenodd" fill-opacity="1" /><path clip-path="url(#clip000)" d="M1817.72 262.825 L1817.72 266.807 Q1815.92 265.811 1814.09 265.325 Q1812.29 264.816 1810.43 264.816 Q1806.29 264.816 1804 267.455 Q1801.71 270.071 1801.71 274.816 Q1801.71 279.561 1804 282.2 Q1806.29 284.816 1810.43 284.816 Q1812.29 284.816 1814.09 284.33 Q1815.92 283.821 1817.72 282.825 L1817.72 286.76 Q1815.94 287.594 1814.02 288.01 Q1812.12 288.427 1809.97 288.427 Q1804.11 288.427 1800.66 284.746 Q1797.22 281.066 1797.22 274.816 Q1797.22 268.473 1800.69 264.839 Q1804.18 261.205 1810.25 261.205 Q1812.22 261.205 1814.09 261.622 Q1815.97 262.015 1817.72 262.825 Z" fill="#000000" fill-rule="evenodd" fill-opacity="1" /><path clip-path="url(#clip000)" d="M1825.13 261.83 L1829.39 261.83 L1829.39 287.756 L1825.13 287.756 L1825.13 261.83 M1825.13 251.737 L1829.39 251.737 L1829.39 257.131 L1825.13 257.131 L1825.13 251.737 Z" fill="#000000" fill-rule="evenodd" fill-opacity="1" /><path clip-path="url(#clip000)" d="M1842.52 254.469 L1842.52 261.83 L1851.29 261.83 L1851.29 265.14 L1842.52 265.14 L1842.52 279.214 Q1842.52 282.385 1843.37 283.288 Q1844.25 284.191 1846.91 284.191 L1851.29 284.191 L1851.29 287.756 L1846.91 287.756 Q1841.98 287.756 1840.11 285.927 Q1838.23 284.075 1838.23 279.214 L1838.23 265.14 L1835.11 265.14 L1835.11 261.83 L1838.23 261.83 L1838.23 254.469 L1842.52 254.469 Z" fill="#000000" fill-rule="evenodd" fill-opacity="1" /><path clip-path="url(#clip000)" d="M1867.68 290.163 Q1865.87 294.793 1864.16 296.205 Q1862.45 297.617 1859.58 297.617 L1856.17 297.617 L1856.17 294.052 L1858.67 294.052 Q1860.43 294.052 1861.41 293.219 Q1862.38 292.385 1863.56 289.283 L1864.32 287.339 L1853.84 261.83 L1858.35 261.83 L1866.45 282.108 L1874.55 261.83 L1879.07 261.83 L1867.68 290.163 Z" fill="#000000" fill-rule="evenodd" fill-opacity="1" /><path clip-path="url(#clip000)" d="M1904.65 295.626 L1904.65 298.936 L1880.02 298.936 L1880.02 295.626 L1904.65 295.626 Z" fill="#000000" fill-rule="evenodd" fill-opacity="1" /><path clip-path="url(#clip000)" d="M1928.84 266.807 Q1930.43 263.936 1932.65 262.571 Q1934.88 261.205 1937.89 261.205 Q1941.94 261.205 1944.14 264.052 Q1946.34 266.876 1946.34 272.108 L1946.34 287.756 L1942.05 287.756 L1942.05 272.247 Q1942.05 268.52 1940.73 266.714 Q1939.41 264.909 1936.71 264.909 Q1933.4 264.909 1931.47 267.108 Q1929.55 269.307 1929.55 273.103 L1929.55 287.756 L1925.27 287.756 L1925.27 272.247 Q1925.27 268.497 1923.95 266.714 Q1922.63 264.909 1919.88 264.909 Q1916.61 264.909 1914.69 267.131 Q1912.77 269.33 1912.77 273.103 L1912.77 287.756 L1908.49 287.756 L1908.49 261.83 L1912.77 261.83 L1912.77 265.858 Q1914.23 263.473 1916.27 262.339 Q1918.3 261.205 1921.1 261.205 Q1923.93 261.205 1925.9 262.64 Q1927.89 264.075 1928.84 266.807 Z" fill="#000000" fill-rule="evenodd" fill-opacity="1" /><path clip-path="url(#clip000)" d="M1977.01 273.728 L1977.01 275.811 L1957.42 275.811 Q1957.7 280.209 1960.06 282.524 Q1962.45 284.816 1966.68 284.816 Q1969.14 284.816 1971.43 284.214 Q1973.74 283.612 1976.01 282.409 L1976.01 286.436 Q1973.72 287.408 1971.31 287.918 Q1968.9 288.427 1966.43 288.427 Q1960.22 288.427 1956.59 284.816 Q1952.98 281.205 1952.98 275.047 Q1952.98 268.682 1956.4 264.955 Q1959.85 261.205 1965.69 261.205 Q1970.92 261.205 1973.95 264.585 Q1977.01 267.941 1977.01 273.728 M1972.75 272.478 Q1972.7 268.983 1970.78 266.899 Q1968.88 264.816 1965.73 264.816 Q1962.17 264.816 1960.02 266.83 Q1957.89 268.844 1957.56 272.501 L1972.75 272.478 Z" fill="#000000" fill-rule="evenodd" fill-opacity="1" /><path clip-path="url(#clip000)" d="M1995.78 274.723 Q1990.62 274.723 1988.63 275.904 Q1986.64 277.084 1986.64 279.932 Q1986.64 282.2 1988.12 283.543 Q1989.62 284.862 1992.19 284.862 Q1995.73 284.862 1997.86 282.362 Q2000.02 279.839 2000.02 275.672 L2000.02 274.723 L1995.78 274.723 M2004.27 272.964 L2004.27 287.756 L2000.02 287.756 L2000.02 283.821 Q1998.56 286.182 1996.38 287.316 Q1994.21 288.427 1991.06 288.427 Q1987.08 288.427 1984.71 286.205 Q1982.38 283.959 1982.38 280.209 Q1982.38 275.834 1985.29 273.612 Q1988.23 271.39 1994.04 271.39 L2000.02 271.39 L2000.02 270.973 Q2000.02 268.034 1998.07 266.436 Q1996.15 264.816 1992.65 264.816 Q1990.43 264.816 1988.33 265.348 Q1986.22 265.881 1984.27 266.946 L1984.27 263.01 Q1986.61 262.108 1988.81 261.668 Q1991.01 261.205 1993.09 261.205 Q1998.72 261.205 2001.5 264.122 Q2004.27 267.038 2004.27 272.964 Z" fill="#000000" fill-rule="evenodd" fill-opacity="1" /><path clip-path="url(#clip000)" d="M2029.58 262.594 L2029.58 266.622 Q2027.77 265.696 2025.83 265.233 Q2023.88 264.77 2021.8 264.77 Q2018.63 264.77 2017.03 265.742 Q2015.46 266.714 2015.46 268.659 Q2015.46 270.14 2016.59 270.997 Q2017.72 271.83 2021.15 272.594 L2022.61 272.918 Q2027.15 273.89 2029.04 275.672 Q2030.96 277.432 2030.96 280.603 Q2030.96 284.214 2028.09 286.321 Q2025.25 288.427 2020.25 288.427 Q2018.16 288.427 2015.9 288.01 Q2013.65 287.617 2011.15 286.807 L2011.15 282.409 Q2013.51 283.635 2015.8 284.26 Q2018.09 284.862 2020.34 284.862 Q2023.35 284.862 2024.97 283.844 Q2026.59 282.802 2026.59 280.927 Q2026.59 279.191 2025.41 278.265 Q2024.25 277.339 2020.29 276.483 L2018.81 276.135 Q2014.85 275.302 2013.09 273.589 Q2011.33 271.853 2011.33 268.844 Q2011.33 265.186 2013.93 263.196 Q2016.52 261.205 2021.29 261.205 Q2023.65 261.205 2025.73 261.552 Q2027.82 261.899 2029.58 262.594 Z" fill="#000000" fill-rule="evenodd" fill-opacity="1" /><path clip-path="url(#clip000)" d="M2037.31 277.524 L2037.31 261.83 L2041.57 261.83 L2041.57 277.362 Q2041.57 281.043 2043 282.895 Q2044.44 284.723 2047.31 284.723 Q2050.76 284.723 2052.75 282.524 Q2054.76 280.325 2054.76 276.529 L2054.76 261.83 L2059.02 261.83 L2059.02 287.756 L2054.76 287.756 L2054.76 283.774 Q2053.21 286.135 2051.15 287.293 Q2049.11 288.427 2046.4 288.427 Q2041.94 288.427 2039.62 285.649 Q2037.31 282.871 2037.31 277.524 M2048.02 261.205 L2048.02 261.205 Z" fill="#000000" fill-rule="evenodd" fill-opacity="1" /><path clip-path="url(#clip000)" d="M2082.82 265.811 Q2082.1 265.395 2081.24 265.21 Q2080.41 265.001 2079.39 265.001 Q2075.78 265.001 2073.83 267.362 Q2071.91 269.7 2071.91 274.098 L2071.91 287.756 L2067.63 287.756 L2067.63 261.83 L2071.91 261.83 L2071.91 265.858 Q2073.26 263.497 2075.41 262.362 Q2077.56 261.205 2080.64 261.205 Q2081.08 261.205 2081.61 261.274 Q2082.14 261.321 2082.79 261.436 L2082.82 265.811 Z" fill="#000000" fill-rule="evenodd" fill-opacity="1" /><path clip-path="url(#clip000)" d="M2108.42 273.728 L2108.42 275.811 L2088.83 275.811 Q2089.11 280.209 2091.47 282.524 Q2093.86 284.816 2098.09 284.816 Q2100.55 284.816 2102.84 284.214 Q2105.15 283.612 2107.42 282.409 L2107.42 286.436 Q2105.13 287.408 2102.72 287.918 Q2100.32 288.427 2097.84 288.427 Q2091.64 288.427 2088 284.816 Q2084.39 281.205 2084.39 275.047 Q2084.39 268.682 2087.82 264.955 Q2091.27 261.205 2097.1 261.205 Q2102.33 261.205 2105.36 264.585 Q2108.42 267.941 2108.42 273.728 M2104.16 272.478 Q2104.11 268.983 2102.19 266.899 Q2100.29 264.816 2097.14 264.816 Q2093.58 264.816 2091.43 266.83 Q2089.3 268.844 2088.97 272.501 L2104.16 272.478 Z" fill="#000000" fill-rule="evenodd" fill-opacity="1" /><path clip-path="url(#clip000)" d="M2135.59 266.807 Q2137.19 263.936 2139.41 262.571 Q2141.64 261.205 2144.64 261.205 Q2148.7 261.205 2150.89 264.052 Q2153.09 266.876 2153.09 272.108 L2153.09 287.756 L2148.81 287.756 L2148.81 272.247 Q2148.81 268.52 2147.49 266.714 Q2146.17 264.909 2143.46 264.909 Q2140.15 264.909 2138.23 267.108 Q2136.31 269.307 2136.31 273.103 L2136.31 287.756 L2132.03 287.756 L2132.03 272.247 Q2132.03 268.497 2130.71 266.714 Q2129.39 264.909 2126.64 264.909 Q2123.37 264.909 2121.45 267.131 Q2119.53 269.33 2119.53 273.103 L2119.53 287.756 L2115.25 287.756 L2115.25 261.83 L2119.53 261.83 L2119.53 265.858 Q2120.99 263.473 2123.02 262.339 Q2125.06 261.205 2127.86 261.205 Q2130.69 261.205 2132.65 262.64 Q2134.64 264.075 2135.59 266.807 Z" fill="#000000" fill-rule="evenodd" fill-opacity="1" /><path clip-path="url(#clip000)" d="M2183.76 273.728 L2183.76 275.811 L2164.18 275.811 Q2164.46 280.209 2166.82 282.524 Q2169.2 284.816 2173.44 284.816 Q2175.89 284.816 2178.19 284.214 Q2180.5 283.612 2182.77 282.409 L2182.77 286.436 Q2180.48 287.408 2178.07 287.918 Q2175.66 288.427 2173.19 288.427 Q2166.98 288.427 2163.35 284.816 Q2159.74 281.205 2159.74 275.047 Q2159.74 268.682 2163.16 264.955 Q2166.61 261.205 2172.45 261.205 Q2177.68 261.205 2180.71 264.585 Q2183.76 267.941 2183.76 273.728 M2179.51 272.478 Q2179.46 268.983 2177.54 266.899 Q2175.64 264.816 2172.49 264.816 Q2168.93 264.816 2166.77 266.83 Q2164.64 268.844 2164.32 272.501 L2179.51 272.478 Z" fill="#000000" fill-rule="evenodd" fill-opacity="1" /><path clip-path="url(#clip000)" d="M2212.31 272.108 L2212.31 287.756 L2208.05 287.756 L2208.05 272.247 Q2208.05 268.566 2206.61 266.737 Q2205.18 264.909 2202.31 264.909 Q2198.86 264.909 2196.87 267.108 Q2194.88 269.307 2194.88 273.103 L2194.88 287.756 L2190.59 287.756 L2190.59 261.83 L2194.88 261.83 L2194.88 265.858 Q2196.4 263.52 2198.46 262.362 Q2200.55 261.205 2203.26 261.205 Q2207.72 261.205 2210.01 263.983 Q2212.31 266.737 2212.31 272.108 Z" fill="#000000" fill-rule="evenodd" fill-opacity="1" /><path clip-path="url(#clip000)" d="M2225.01 254.469 L2225.01 261.83 L2233.79 261.83 L2233.79 265.14 L2225.01 265.14 L2225.01 279.214 Q2225.01 282.385 2225.87 283.288 Q2226.75 284.191 2229.41 284.191 L2233.79 284.191 L2233.79 287.756 L2229.41 287.756 Q2224.48 287.756 2222.61 285.927 Q2220.73 284.075 2220.73 279.214 L2220.73 265.14 L2217.61 265.14 L2217.61 261.83 L2220.73 261.83 L2220.73 254.469 L2225.01 254.469 Z" fill="#000000" fill-rule="evenodd" fill-opacity="1" /></svg>
