<?xml version="1.0" encoding="utf-8"?>
<svg xmlns="http://www.w3.org/2000/svg" xmlns:xlink="http://www.w3.org/1999/xlink" width="600" height="400" viewBox="0 0 2400 1600">
<defs>
  <clipPath id="clip010">
    <rect x="0" y="0" width="2400" height="1600"/>
  </clipPath>
</defs>
<path clip-path="url(#clip010)" d="
M0 1600 L2400 1600 L2400 0 L0 0  Z
  " fill="#ffffff" fill-rule="evenodd" fill-opacity="1"/>
<defs>
  <clipPath id="clip011">
    <rect x="480" y="0" width="1681" height="1600"/>
  </clipPath>
</defs>
<path clip-path="url(#clip010)" d="
M205.121 1423.18 L2352.76 1423.18 L2352.76 123.472 L205.121 123.472  Z
  " fill="#ffffff" fill-rule="evenodd" fill-opacity="1"/>
<defs>
  <clipPath id="clip012">
    <rect x="205" y="123" width="2149" height="1301"/>
  </clipPath>
</defs>
<polyline clip-path="url(#clip012)" style="stroke:#000000; stroke-linecap:butt; stroke-linejoin:round; stroke-width:2; stroke-opacity:0.1; fill:none" points="
  265.209,1423.18 265.209,123.472 
  "/>
<polyline clip-path="url(#clip012)" style="stroke:#000000; stroke-linecap:butt; stroke-linejoin:round; stroke-width:2; stroke-opacity:0.1; fill:none" points="
  725.056,1423.18 725.056,123.472 
  "/>
<polyline clip-path="url(#clip012)" style="stroke:#000000; stroke-linecap:butt; stroke-linejoin:round; stroke-width:2; stroke-opacity:0.1; fill:none" points="
  1184.9,1423.18 1184.9,123.472 
  "/>
<polyline clip-path="url(#clip012)" style="stroke:#000000; stroke-linecap:butt; stroke-linejoin:round; stroke-width:2; stroke-opacity:0.1; fill:none" points="
  1644.75,1423.18 1644.75,123.472 
  "/>
<polyline clip-path="url(#clip012)" style="stroke:#000000; stroke-linecap:butt; stroke-linejoin:round; stroke-width:2; stroke-opacity:0.1; fill:none" points="
  2104.6,1423.18 2104.6,123.472 
  "/>
<polyline clip-path="url(#clip010)" style="stroke:#000000; stroke-linecap:butt; stroke-linejoin:round; stroke-width:4; stroke-opacity:1; fill:none" points="
  205.121,1423.18 2352.76,1423.18 
  "/>
<polyline clip-path="url(#clip010)" style="stroke:#000000; stroke-linecap:butt; stroke-linejoin:round; stroke-width:4; stroke-opacity:1; fill:none" points="
  265.209,1423.18 265.209,1404.28 
  "/>
<polyline clip-path="url(#clip010)" style="stroke:#000000; stroke-linecap:butt; stroke-linejoin:round; stroke-width:4; stroke-opacity:1; fill:none" points="
  725.056,1423.18 725.056,1404.28 
  "/>
<polyline clip-path="url(#clip010)" style="stroke:#000000; stroke-linecap:butt; stroke-linejoin:round; stroke-width:4; stroke-opacity:1; fill:none" points="
  1184.9,1423.18 1184.9,1404.28 
  "/>
<polyline clip-path="url(#clip010)" style="stroke:#000000; stroke-linecap:butt; stroke-linejoin:round; stroke-width:4; stroke-opacity:1; fill:none" points="
  1644.75,1423.18 1644.75,1404.28 
  "/>
<polyline clip-path="url(#clip010)" style="stroke:#000000; stroke-linecap:butt; stroke-linejoin:round; stroke-width:4; stroke-opacity:1; fill:none" points="
  2104.6,1423.18 2104.6,1404.28 
  "/>
<path clip-path="url(#clip010)" d="M265.209 1454.1 Q261.598 1454.1 259.77 1457.66 Q257.964 1461.2 257.964 1468.33 Q257.964 1475.44 259.77 1479.01 Q261.598 1482.55 265.209 1482.55 Q268.844 1482.55 270.649 1479.01 Q272.478 1475.44 272.478 1468.33 Q272.478 1461.2 270.649 1457.66 Q268.844 1454.1 265.209 1454.1 M265.209 1450.39 Q271.02 1450.39 274.075 1455 Q277.154 1459.58 277.154 1468.33 Q277.154 1477.06 274.075 1481.67 Q271.02 1486.25 265.209 1486.25 Q259.399 1486.25 256.321 1481.67 Q253.265 1477.06 253.265 1468.33 Q253.265 1459.58 256.321 1455 Q259.399 1450.39 265.209 1450.39 Z" fill="#000000" fill-rule="evenodd" fill-opacity="1" /><path clip-path="url(#clip010)" d="M704.327 1481.64 L720.647 1481.64 L720.647 1485.58 L698.702 1485.58 L698.702 1481.64 Q701.364 1478.89 705.948 1474.26 Q710.554 1469.61 711.735 1468.27 Q713.98 1465.74 714.86 1464.01 Q715.762 1462.25 715.762 1460.56 Q715.762 1457.8 713.818 1456.07 Q711.897 1454.33 708.795 1454.33 Q706.596 1454.33 704.142 1455.09 Q701.711 1455.86 698.934 1457.41 L698.934 1452.69 Q701.758 1451.55 704.211 1450.97 Q706.665 1450.39 708.702 1450.39 Q714.073 1450.39 717.267 1453.08 Q720.461 1455.77 720.461 1460.26 Q720.461 1462.39 719.651 1464.31 Q718.864 1466.2 716.758 1468.8 Q716.179 1469.47 713.077 1472.69 Q709.975 1475.88 704.327 1481.64 Z" fill="#000000" fill-rule="evenodd" fill-opacity="1" /><path clip-path="url(#clip010)" d="M730.508 1451.02 L748.864 1451.02 L748.864 1454.96 L734.79 1454.96 L734.79 1463.43 Q735.809 1463.08 736.827 1462.92 Q737.846 1462.73 738.864 1462.73 Q744.651 1462.73 748.031 1465.9 Q751.41 1469.08 751.41 1474.49 Q751.41 1480.07 747.938 1483.17 Q744.466 1486.25 738.146 1486.25 Q735.971 1486.25 733.702 1485.88 Q731.457 1485.51 729.049 1484.77 L729.049 1480.07 Q731.133 1481.2 733.355 1481.76 Q735.577 1482.32 738.054 1482.32 Q742.058 1482.32 744.396 1480.21 Q746.734 1478.1 746.734 1474.49 Q746.734 1470.88 744.396 1468.77 Q742.058 1466.67 738.054 1466.67 Q736.179 1466.67 734.304 1467.08 Q732.452 1467.5 730.508 1468.38 L730.508 1451.02 Z" fill="#000000" fill-rule="evenodd" fill-opacity="1" /><path clip-path="url(#clip010)" d="M1159.6 1451.02 L1177.96 1451.02 L1177.96 1454.96 L1163.88 1454.96 L1163.88 1463.43 Q1164.9 1463.08 1165.92 1462.92 Q1166.94 1462.73 1167.96 1462.73 Q1173.75 1462.73 1177.13 1465.9 Q1180.5 1469.08 1180.5 1474.49 Q1180.5 1480.07 1177.03 1483.17 Q1173.56 1486.25 1167.24 1486.25 Q1165.07 1486.25 1162.8 1485.88 Q1160.55 1485.51 1158.14 1484.77 L1158.14 1480.07 Q1160.23 1481.2 1162.45 1481.76 Q1164.67 1482.32 1167.15 1482.32 Q1171.15 1482.32 1173.49 1480.21 Q1175.83 1478.1 1175.83 1474.49 Q1175.83 1470.88 1173.49 1468.77 Q1171.15 1466.67 1167.15 1466.67 Q1165.27 1466.67 1163.4 1467.08 Q1161.55 1467.5 1159.6 1468.38 L1159.6 1451.02 Z" fill="#000000" fill-rule="evenodd" fill-opacity="1" /><path clip-path="url(#clip010)" d="M1199.72 1454.1 Q1196.11 1454.1 1194.28 1457.66 Q1192.47 1461.2 1192.47 1468.33 Q1192.47 1475.44 1194.28 1479.01 Q1196.11 1482.55 1199.72 1482.55 Q1203.35 1482.55 1205.16 1479.01 Q1206.99 1475.44 1206.99 1468.33 Q1206.99 1461.2 1205.16 1457.66 Q1203.35 1454.1 1199.72 1454.1 M1199.72 1450.39 Q1205.53 1450.39 1208.58 1455 Q1211.66 1459.58 1211.66 1468.33 Q1211.66 1477.06 1208.58 1481.67 Q1205.53 1486.25 1199.72 1486.25 Q1193.91 1486.25 1190.83 1481.67 Q1187.77 1477.06 1187.77 1468.33 Q1187.77 1459.58 1190.83 1455 Q1193.91 1450.39 1199.72 1450.39 Z" fill="#000000" fill-rule="evenodd" fill-opacity="1" /><path clip-path="url(#clip010)" d="M1618.6 1451.02 L1640.83 1451.02 L1640.83 1453.01 L1628.28 1485.58 L1623.4 1485.58 L1635.2 1454.96 L1618.6 1454.96 L1618.6 1451.02 Z" fill="#000000" fill-rule="evenodd" fill-opacity="1" /><path clip-path="url(#clip010)" d="M1649.99 1451.02 L1668.35 1451.02 L1668.35 1454.96 L1654.28 1454.96 L1654.28 1463.43 Q1655.29 1463.08 1656.31 1462.92 Q1657.33 1462.73 1658.35 1462.73 Q1664.14 1462.73 1667.52 1465.9 Q1670.9 1469.08 1670.9 1474.49 Q1670.9 1480.07 1667.42 1483.17 Q1663.95 1486.25 1657.63 1486.25 Q1655.46 1486.25 1653.19 1485.88 Q1650.94 1485.51 1648.53 1484.77 L1648.53 1480.07 Q1650.62 1481.2 1652.84 1481.76 Q1655.06 1482.32 1657.54 1482.32 Q1661.54 1482.32 1663.88 1480.21 Q1666.22 1478.1 1666.22 1474.49 Q1666.22 1470.88 1663.88 1468.77 Q1661.54 1466.67 1657.54 1466.67 Q1655.66 1466.67 1653.79 1467.08 Q1651.94 1467.5 1649.99 1468.38 L1649.99 1451.02 Z" fill="#000000" fill-rule="evenodd" fill-opacity="1" /><path clip-path="url(#clip010)" d="M2064.2 1481.64 L2071.84 1481.64 L2071.84 1455.28 L2063.53 1456.95 L2063.53 1452.69 L2071.8 1451.02 L2076.47 1451.02 L2076.47 1481.64 L2084.11 1481.64 L2084.11 1485.58 L2064.2 1485.58 L2064.2 1481.64 Z" fill="#000000" fill-rule="evenodd" fill-opacity="1" /><path clip-path="url(#clip010)" d="M2103.56 1454.1 Q2099.94 1454.1 2098.12 1457.66 Q2096.31 1461.2 2096.31 1468.33 Q2096.31 1475.44 2098.12 1479.01 Q2099.94 1482.55 2103.56 1482.55 Q2107.19 1482.55 2108.99 1479.01 Q2110.82 1475.44 2110.82 1468.33 Q2110.82 1461.2 2108.99 1457.66 Q2107.19 1454.1 2103.56 1454.1 M2103.56 1450.39 Q2109.37 1450.39 2112.42 1455 Q2115.5 1459.58 2115.5 1468.33 Q2115.5 1477.06 2112.42 1481.67 Q2109.37 1486.25 2103.56 1486.25 Q2097.74 1486.25 2094.67 1481.67 Q2091.61 1477.06 2091.61 1468.33 Q2091.61 1459.58 2094.67 1455 Q2097.74 1450.39 2103.56 1450.39 Z" fill="#000000" fill-rule="evenodd" fill-opacity="1" /><path clip-path="url(#clip010)" d="M2133.72 1454.1 Q2130.11 1454.1 2128.28 1457.66 Q2126.47 1461.2 2126.47 1468.33 Q2126.47 1475.44 2128.28 1479.01 Q2130.11 1482.55 2133.72 1482.55 Q2137.35 1482.55 2139.16 1479.01 Q2140.99 1475.44 2140.99 1468.33 Q2140.99 1461.2 2139.16 1457.66 Q2137.35 1454.1 2133.72 1454.1 M2133.72 1450.39 Q2139.53 1450.39 2142.58 1455 Q2145.66 1459.58 2145.66 1468.33 Q2145.66 1477.06 2142.58 1481.67 Q2139.53 1486.25 2133.72 1486.25 Q2127.91 1486.25 2124.83 1481.67 Q2121.77 1477.06 2121.77 1468.33 Q2121.77 1459.58 2124.83 1455 Q2127.91 1450.39 2133.72 1450.39 Z" fill="#000000" fill-rule="evenodd" fill-opacity="1" /><path clip-path="url(#clip010)" d="M1187.18 1522.27 L1187.18 1532.4 L1199.24 1532.4 L1199.24 1536.95 L1187.18 1536.95 L1187.18 1556.3 Q1187.18 1560.66 1188.35 1561.9 Q1189.56 1563.14 1193.22 1563.14 L1199.24 1563.14 L1199.24 1568.04 L1193.22 1568.04 Q1186.44 1568.04 1183.87 1565.53 Q1181.29 1562.98 1181.29 1556.3 L1181.29 1536.95 L1176.99 1536.95 L1176.99 1532.4 L1181.29 1532.4 L1181.29 1522.27 L1187.18 1522.27 Z" fill="#000000" fill-rule="evenodd" fill-opacity="1" /><path clip-path="url(#clip010)" d="M1227.66 1532.4 L1233.52 1532.4 L1233.52 1568.04 L1227.66 1568.04 L1227.66 1532.4 M1227.66 1518.52 L1233.52 1518.52 L1233.52 1525.93 L1227.66 1525.93 L1227.66 1518.52 Z" fill="#000000" fill-rule="evenodd" fill-opacity="1" /><path clip-path="url(#clip010)" d="M1275.41 1546.53 L1275.41 1568.04 L1269.55 1568.04 L1269.55 1546.72 Q1269.55 1541.66 1267.58 1539.14 Q1265.6 1536.63 1261.66 1536.63 Q1256.91 1536.63 1254.18 1539.65 Q1251.44 1542.68 1251.44 1547.9 L1251.44 1568.04 L1245.55 1568.04 L1245.55 1532.4 L1251.44 1532.4 L1251.44 1537.93 Q1253.54 1534.72 1256.37 1533.13 Q1259.24 1531.54 1262.96 1531.54 Q1269.1 1531.54 1272.25 1535.36 Q1275.41 1539.14 1275.41 1546.53 Z" fill="#000000" fill-rule="evenodd" fill-opacity="1" /><path clip-path="url(#clip010)" d="M1307.27 1518.52 L1320.76 1518.52 L1320.76 1523.07 L1313.12 1523.07 L1313.12 1572.09 L1320.76 1572.09 L1320.76 1576.64 L1307.27 1576.64 L1307.27 1518.52 Z" fill="#000000" fill-rule="evenodd" fill-opacity="1" /><path clip-path="url(#clip010)" d="M1355.96 1533.45 L1355.96 1538.98 Q1353.48 1537.71 1350.81 1537.07 Q1348.13 1536.44 1345.27 1536.44 Q1340.91 1536.44 1338.71 1537.77 Q1336.55 1539.11 1336.55 1541.79 Q1336.55 1543.82 1338.11 1545 Q1339.67 1546.15 1344.38 1547.2 L1346.38 1547.64 Q1352.62 1548.98 1355.23 1551.43 Q1357.87 1553.85 1357.87 1558.21 Q1357.87 1563.17 1353.93 1566.07 Q1350.01 1568.97 1343.14 1568.97 Q1340.27 1568.97 1337.15 1568.39 Q1334.07 1567.85 1330.63 1566.74 L1330.63 1560.69 Q1333.87 1562.38 1337.03 1563.24 Q1340.18 1564.07 1343.26 1564.07 Q1347.4 1564.07 1349.63 1562.66 Q1351.86 1561.23 1351.86 1558.65 Q1351.86 1556.27 1350.23 1554.99 Q1348.64 1553.72 1343.2 1552.54 L1341.16 1552.07 Q1335.72 1550.92 1333.3 1548.56 Q1330.88 1546.18 1330.88 1542.04 Q1330.88 1537.01 1334.45 1534.27 Q1338.01 1531.54 1344.57 1531.54 Q1347.82 1531.54 1350.68 1532.01 Q1353.54 1532.49 1355.96 1533.45 Z" fill="#000000" fill-rule="evenodd" fill-opacity="1" /><path clip-path="url(#clip010)" d="M1380.89 1518.52 L1380.89 1576.64 L1367.39 1576.64 L1367.39 1572.09 L1375 1572.09 L1375 1523.07 L1367.39 1523.07 L1367.39 1518.52 L1380.89 1518.52 Z" fill="#000000" fill-rule="evenodd" fill-opacity="1" /><polyline clip-path="url(#clip012)" style="stroke:#000000; stroke-linecap:butt; stroke-linejoin:round; stroke-width:2; stroke-opacity:0.1; fill:none" points="
  205.121,1191.35 2352.76,1191.35 
  "/>
<polyline clip-path="url(#clip012)" style="stroke:#000000; stroke-linecap:butt; stroke-linejoin:round; stroke-width:2; stroke-opacity:0.1; fill:none" points="
  205.121,901.171 2352.76,901.171 
  "/>
<polyline clip-path="url(#clip012)" style="stroke:#000000; stroke-linecap:butt; stroke-linejoin:round; stroke-width:2; stroke-opacity:0.1; fill:none" points="
  205.121,610.989 2352.76,610.989 
  "/>
<polyline clip-path="url(#clip012)" style="stroke:#000000; stroke-linecap:butt; stroke-linejoin:round; stroke-width:2; stroke-opacity:0.1; fill:none" points="
  205.121,320.808 2352.76,320.808 
  "/>
<polyline clip-path="url(#clip010)" style="stroke:#000000; stroke-linecap:butt; stroke-linejoin:round; stroke-width:4; stroke-opacity:1; fill:none" points="
  205.121,1423.18 205.121,123.472 
  "/>
<polyline clip-path="url(#clip010)" style="stroke:#000000; stroke-linecap:butt; stroke-linejoin:round; stroke-width:4; stroke-opacity:1; fill:none" points="
  205.121,1191.35 224.019,1191.35 
  "/>
<polyline clip-path="url(#clip010)" style="stroke:#000000; stroke-linecap:butt; stroke-linejoin:round; stroke-width:4; stroke-opacity:1; fill:none" points="
  205.121,901.171 224.019,901.171 
  "/>
<polyline clip-path="url(#clip010)" style="stroke:#000000; stroke-linecap:butt; stroke-linejoin:round; stroke-width:4; stroke-opacity:1; fill:none" points="
  205.121,610.989 224.019,610.989 
  "/>
<polyline clip-path="url(#clip010)" style="stroke:#000000; stroke-linecap:butt; stroke-linejoin:round; stroke-width:4; stroke-opacity:1; fill:none" points="
  205.121,320.808 224.019,320.808 
  "/>
<path clip-path="url(#clip010)" d="M157.177 1177.15 Q153.566 1177.15 151.737 1180.72 Q149.931 1184.26 149.931 1191.39 Q149.931 1198.49 151.737 1202.06 Q153.566 1205.6 157.177 1205.6 Q160.811 1205.6 162.616 1202.06 Q164.445 1198.49 164.445 1191.39 Q164.445 1184.26 162.616 1180.72 Q160.811 1177.15 157.177 1177.15 M157.177 1173.45 Q162.987 1173.45 166.042 1178.05 Q169.121 1182.64 169.121 1191.39 Q169.121 1200.11 166.042 1204.72 Q162.987 1209.3 157.177 1209.3 Q151.366 1209.3 148.288 1204.72 Q145.232 1200.11 145.232 1191.39 Q145.232 1182.64 148.288 1178.05 Q151.366 1173.45 157.177 1173.45 Z" fill="#000000" fill-rule="evenodd" fill-opacity="1" /><path clip-path="url(#clip010)" d="M121.043 914.515 L137.362 914.515 L137.362 918.451 L115.418 918.451 L115.418 914.515 Q118.08 911.761 122.663 907.131 Q127.269 902.478 128.45 901.136 Q130.695 898.613 131.575 896.877 Q132.478 895.117 132.478 893.428 Q132.478 890.673 130.533 888.937 Q128.612 887.201 125.51 887.201 Q123.311 887.201 120.857 887.965 Q118.427 888.729 115.649 890.279 L115.649 885.557 Q118.473 884.423 120.927 883.844 Q123.38 883.266 125.418 883.266 Q130.788 883.266 133.982 885.951 Q137.177 888.636 137.177 893.127 Q137.177 895.256 136.367 897.178 Q135.579 899.076 133.473 901.668 Q132.894 902.34 129.792 905.557 Q126.691 908.752 121.043 914.515 Z" fill="#000000" fill-rule="evenodd" fill-opacity="1" /><path clip-path="url(#clip010)" d="M157.177 886.969 Q153.566 886.969 151.737 890.534 Q149.931 894.076 149.931 901.205 Q149.931 908.312 151.737 911.877 Q153.566 915.418 157.177 915.418 Q160.811 915.418 162.616 911.877 Q164.445 908.312 164.445 901.205 Q164.445 894.076 162.616 890.534 Q160.811 886.969 157.177 886.969 M157.177 883.266 Q162.987 883.266 166.042 887.872 Q169.121 892.455 169.121 901.205 Q169.121 909.932 166.042 914.539 Q162.987 919.122 157.177 919.122 Q151.366 919.122 148.288 914.539 Q145.232 909.932 145.232 901.205 Q145.232 892.455 148.288 887.872 Q151.366 883.266 157.177 883.266 Z" fill="#000000" fill-rule="evenodd" fill-opacity="1" /><path clip-path="url(#clip010)" d="M129.862 597.784 L118.056 616.233 L129.862 616.233 L129.862 597.784 M128.635 593.709 L134.515 593.709 L134.515 616.233 L139.445 616.233 L139.445 620.121 L134.515 620.121 L134.515 628.269 L129.862 628.269 L129.862 620.121 L114.26 620.121 L114.26 615.608 L128.635 593.709 Z" fill="#000000" fill-rule="evenodd" fill-opacity="1" /><path clip-path="url(#clip010)" d="M157.177 596.788 Q153.566 596.788 151.737 600.353 Q149.931 603.895 149.931 611.024 Q149.931 618.131 151.737 621.695 Q153.566 625.237 157.177 625.237 Q160.811 625.237 162.616 621.695 Q164.445 618.131 164.445 611.024 Q164.445 603.895 162.616 600.353 Q160.811 596.788 157.177 596.788 M157.177 593.085 Q162.987 593.085 166.042 597.691 Q169.121 602.274 169.121 611.024 Q169.121 619.751 166.042 624.357 Q162.987 628.941 157.177 628.941 Q151.366 628.941 148.288 624.357 Q145.232 619.751 145.232 611.024 Q145.232 602.274 148.288 597.691 Q151.366 593.085 157.177 593.085 Z" fill="#000000" fill-rule="evenodd" fill-opacity="1" /><path clip-path="url(#clip010)" d="M127.593 318.945 Q124.445 318.945 122.593 321.098 Q120.765 323.25 120.765 327 Q120.765 330.727 122.593 332.903 Q124.445 335.056 127.593 335.056 Q130.742 335.056 132.57 332.903 Q134.422 330.727 134.422 327 Q134.422 323.25 132.57 321.098 Q130.742 318.945 127.593 318.945 M136.876 304.292 L136.876 308.551 Q135.117 307.718 133.311 307.278 Q131.529 306.839 129.769 306.839 Q125.14 306.839 122.686 309.964 Q120.255 313.089 119.908 319.408 Q121.274 317.394 123.334 316.329 Q125.394 315.241 127.871 315.241 Q133.08 315.241 136.089 318.413 Q139.121 321.561 139.121 327 Q139.121 332.325 135.973 335.542 Q132.825 338.76 127.593 338.76 Q121.598 338.76 118.427 334.176 Q115.256 329.57 115.256 320.843 Q115.256 312.649 119.144 307.788 Q123.033 302.903 129.584 302.903 Q131.343 302.903 133.126 303.251 Q134.931 303.598 136.876 304.292 Z" fill="#000000" fill-rule="evenodd" fill-opacity="1" /><path clip-path="url(#clip010)" d="M157.177 306.607 Q153.566 306.607 151.737 310.172 Q149.931 313.713 149.931 320.843 Q149.931 327.95 151.737 331.514 Q153.566 335.056 157.177 335.056 Q160.811 335.056 162.616 331.514 Q164.445 327.95 164.445 320.843 Q164.445 313.713 162.616 310.172 Q160.811 306.607 157.177 306.607 M157.177 302.903 Q162.987 302.903 166.042 307.51 Q169.121 312.093 169.121 320.843 Q169.121 329.57 166.042 334.176 Q162.987 338.76 157.177 338.76 Q151.366 338.76 148.288 334.176 Q145.232 329.57 145.232 320.843 Q145.232 312.093 148.288 307.51 Q151.366 302.903 157.177 302.903 Z" fill="#000000" fill-rule="evenodd" fill-opacity="1" /><path clip-path="url(#clip010)" d="M21.7677 894.211 L39.6235 894.211 L39.6235 886.126 Q39.6235 881.638 37.3 879.188 Q34.9765 876.737 30.6797 876.737 Q26.4147 876.737 24.0912 879.188 Q21.7677 881.638 21.7677 886.126 L21.7677 894.211 M16.4842 900.64 L16.4842 886.126 Q16.4842 878.137 20.1126 874.063 Q23.7092 869.957 30.6797 869.957 Q37.7138 869.957 41.3104 874.063 Q44.907 878.137 44.907 886.126 L44.907 894.211 L64.0042 894.211 L64.0042 900.64 L16.4842 900.64 Z" fill="#000000" fill-rule="evenodd" fill-opacity="1" /><path clip-path="url(#clip010)" d="M32.4621 850.096 Q32.4621 854.807 36.1542 857.544 Q39.8145 860.282 46.212 860.282 Q52.6095 860.282 56.3017 857.576 Q59.9619 854.839 59.9619 850.096 Q59.9619 845.418 56.2698 842.68 Q52.5777 839.943 46.212 839.943 Q39.8781 839.943 36.186 842.68 Q32.4621 845.418 32.4621 850.096 M27.4968 850.096 Q27.4968 842.458 32.4621 838.097 Q37.4273 833.737 46.212 833.737 Q54.9649 833.737 59.9619 838.097 Q64.9272 842.458 64.9272 850.096 Q64.9272 857.767 59.9619 862.128 Q54.9649 866.456 46.212 866.456 Q37.4273 866.456 32.4621 862.128 Q27.4968 857.767 27.4968 850.096 Z" fill="#000000" fill-rule="evenodd" fill-opacity="1" /><path clip-path="url(#clip010)" d="M29.4065 801.303 L34.9447 801.303 Q33.6716 803.786 33.035 806.459 Q32.3984 809.133 32.3984 811.998 Q32.3984 816.358 33.7352 818.554 Q35.072 820.719 37.7456 820.719 Q39.7826 820.719 40.9603 819.159 Q42.1061 817.599 43.1565 812.889 L43.6021 810.884 Q44.9389 804.645 47.3897 802.035 Q49.8086 799.394 54.1691 799.394 Q59.1344 799.394 62.0308 803.34 Q64.9272 807.255 64.9272 814.13 Q64.9272 816.995 64.3543 820.114 Q63.8132 823.201 62.6992 826.639 L56.6518 826.639 Q58.3387 823.392 59.198 820.241 Q60.0256 817.09 60.0256 814.003 Q60.0256 809.865 58.6251 807.637 Q57.1929 805.409 54.6147 805.409 Q52.2276 805.409 50.9545 807.032 Q49.6813 808.624 48.5037 814.067 L48.0262 816.104 Q46.8804 821.546 44.5251 823.965 Q42.138 826.384 38.0002 826.384 Q32.9713 826.384 30.2341 822.819 Q27.4968 819.255 27.4968 812.698 Q27.4968 809.451 27.9743 806.587 Q28.4517 803.722 29.4065 801.303 Z" fill="#000000" fill-rule="evenodd" fill-opacity="1" /><path clip-path="url(#clip010)" d="M55.9197 789.24 L55.9197 782.524 L64.0042 782.524 L64.0042 789.24 L55.9197 789.24 Z" fill="#000000" fill-rule="evenodd" fill-opacity="1" /><path clip-path="url(#clip010)" d="M14.479 749.168 L14.479 735.673 L19.0304 735.673 L19.0304 743.312 L68.0464 743.312 L68.0464 735.673 L72.5979 735.673 L72.5979 749.168 L14.479 749.168 Z" fill="#000000" fill-rule="evenodd" fill-opacity="1" /><path clip-path="url(#clip010)" d="M35.1993 695.442 Q31.2526 693.245 29.3747 690.19 Q27.4968 687.134 27.4968 682.997 Q27.4968 677.427 31.4117 674.403 Q35.2948 671.379 42.4881 671.379 L64.0042 671.379 L64.0042 677.267 L42.679 677.267 Q37.5546 677.267 35.072 679.082 Q32.5894 680.896 32.5894 684.62 Q32.5894 689.171 35.6131 691.813 Q38.6368 694.455 43.8567 694.455 L64.0042 694.455 L64.0042 700.343 L42.679 700.343 Q37.5228 700.343 35.072 702.157 Q32.5894 703.972 32.5894 707.759 Q32.5894 712.247 35.6449 714.889 Q38.6686 717.531 43.8567 717.531 L64.0042 717.531 L64.0042 723.419 L28.3562 723.419 L28.3562 717.531 L33.8944 717.531 Q30.616 715.525 29.0564 712.724 Q27.4968 709.924 27.4968 706.072 Q27.4968 702.189 29.4702 699.484 Q31.4436 696.747 35.1993 695.442 Z" fill="#000000" fill-rule="evenodd" fill-opacity="1" /><path clip-path="url(#clip010)" d="M14.479 646.012 L72.5979 646.012 L72.5979 659.507 L68.0464 659.507 L68.0464 651.9 L19.0304 651.9 L19.0304 659.507 L14.479 659.507 L14.479 646.012 Z" fill="#000000" fill-rule="evenodd" fill-opacity="1" /><path clip-path="url(#clip010)" d="M1133.21 18.8205 L1133.21 41.5461 L1143.5 41.5461 Q1149.21 41.5461 1152.33 38.5889 Q1155.45 35.6318 1155.45 30.163 Q1155.45 24.7348 1152.33 21.7777 Q1149.21 18.8205 1143.5 18.8205 L1133.21 18.8205 M1125.02 12.096 L1143.5 12.096 Q1153.66 12.096 1158.85 16.714 Q1164.08 21.2916 1164.08 30.163 Q1164.08 39.1155 1158.85 43.6931 Q1153.66 48.2706 1143.5 48.2706 L1133.21 48.2706 L1133.21 72.576 L1125.02 72.576 L1125.02 12.096 Z" fill="#000000" fill-rule="evenodd" fill-opacity="1" /><path clip-path="url(#clip010)" d="M1189.35 32.4315 Q1183.36 32.4315 1179.87 37.1306 Q1176.39 41.7891 1176.39 49.9314 Q1176.39 58.0738 1179.83 62.7728 Q1183.32 67.4314 1189.35 67.4314 Q1195.31 67.4314 1198.79 62.7323 Q1202.28 58.0333 1202.28 49.9314 Q1202.28 41.8701 1198.79 37.1711 Q1195.31 32.4315 1189.35 32.4315 M1189.35 26.1121 Q1199.07 26.1121 1204.62 32.4315 Q1210.17 38.7509 1210.17 49.9314 Q1210.17 61.0714 1204.62 67.4314 Q1199.07 73.7508 1189.35 73.7508 Q1179.59 73.7508 1174.04 67.4314 Q1168.53 61.0714 1168.53 49.9314 Q1168.53 38.7509 1174.04 32.4315 Q1179.59 26.1121 1189.35 26.1121 Z" fill="#000000" fill-rule="evenodd" fill-opacity="1" /><path clip-path="url(#clip010)" d="M1251.45 28.5427 L1251.45 35.5912 Q1248.29 33.9709 1244.89 33.1607 Q1241.49 32.3505 1237.84 32.3505 Q1232.29 32.3505 1229.5 34.0519 Q1226.74 35.7533 1226.74 39.156 Q1226.74 41.7486 1228.73 43.2475 Q1230.71 44.7058 1236.71 46.0426 L1239.26 46.6097 Q1247.2 48.3111 1250.52 51.4303 Q1253.88 54.509 1253.88 60.0587 Q1253.88 66.3781 1248.86 70.0644 Q1243.88 73.7508 1235.13 73.7508 Q1231.48 73.7508 1227.51 73.0216 Q1223.58 72.3329 1219.21 70.9151 L1219.21 63.2184 Q1223.34 65.3654 1227.35 66.4591 Q1231.36 67.5124 1235.29 67.5124 Q1240.56 67.5124 1243.39 65.73 Q1246.23 63.9071 1246.23 60.6258 Q1246.23 57.5877 1244.16 55.9673 Q1242.14 54.3469 1235.21 52.8481 L1232.62 52.2405 Q1225.69 50.7821 1222.61 47.7845 Q1219.53 44.7463 1219.53 39.4801 Q1219.53 33.0797 1224.07 29.5959 Q1228.61 26.1121 1236.95 26.1121 Q1241.08 26.1121 1244.73 26.7198 Q1248.37 27.3274 1251.45 28.5427 Z" fill="#000000" fill-rule="evenodd" fill-opacity="1" /><path clip-path="url(#clip010)" d="M1265.75 27.2059 L1273.21 27.2059 L1273.21 72.576 L1265.75 72.576 L1265.75 27.2059 M1265.75 9.54393 L1273.21 9.54393 L1273.21 18.9825 L1265.75 18.9825 L1265.75 9.54393 Z" fill="#000000" fill-rule="evenodd" fill-opacity="1" /><path clip-path="url(#clip010)" d="M1296.18 14.324 L1296.18 27.2059 L1311.53 27.2059 L1311.53 32.9987 L1296.18 32.9987 L1296.18 57.6282 Q1296.18 63.1779 1297.67 64.7578 Q1299.21 66.3376 1303.87 66.3376 L1311.53 66.3376 L1311.53 72.576 L1303.87 72.576 Q1295.24 72.576 1291.96 69.3758 Q1288.68 66.1351 1288.68 57.6282 L1288.68 32.9987 L1283.21 32.9987 L1283.21 27.2059 L1288.68 27.2059 L1288.68 14.324 L1296.18 14.324 Z" fill="#000000" fill-rule="evenodd" fill-opacity="1" /><path clip-path="url(#clip010)" d="M1321.33 27.2059 L1328.78 27.2059 L1328.78 72.576 L1321.33 72.576 L1321.33 27.2059 M1321.33 9.54393 L1328.78 9.54393 L1328.78 18.9825 L1321.33 18.9825 L1321.33 9.54393 Z" fill="#000000" fill-rule="evenodd" fill-opacity="1" /><path clip-path="url(#clip010)" d="M1361.96 32.4315 Q1355.97 32.4315 1352.48 37.1306 Q1349 41.7891 1349 49.9314 Q1349 58.0738 1352.44 62.7728 Q1355.93 67.4314 1361.96 67.4314 Q1367.92 67.4314 1371.4 62.7323 Q1374.88 58.0333 1374.88 49.9314 Q1374.88 41.8701 1371.4 37.1711 Q1367.92 32.4315 1361.96 32.4315 M1361.96 26.1121 Q1371.68 26.1121 1377.23 32.4315 Q1382.78 38.7509 1382.78 49.9314 Q1382.78 61.0714 1377.23 67.4314 Q1371.68 73.7508 1361.96 73.7508 Q1352.2 73.7508 1346.65 67.4314 Q1341.14 61.0714 1341.14 49.9314 Q1341.14 38.7509 1346.65 32.4315 Q1352.2 26.1121 1361.96 26.1121 Z" fill="#000000" fill-rule="evenodd" fill-opacity="1" /><path clip-path="url(#clip010)" d="M1432.85 45.1919 L1432.85 72.576 L1425.4 72.576 L1425.4 45.4349 Q1425.4 38.994 1422.89 35.7938 Q1420.38 32.5936 1415.35 32.5936 Q1409.32 32.5936 1405.83 36.4419 Q1402.35 40.2903 1402.35 46.9338 L1402.35 72.576 L1394.86 72.576 L1394.86 27.2059 L1402.35 27.2059 L1402.35 34.2544 Q1405.02 30.163 1408.63 28.1376 Q1412.27 26.1121 1417.01 26.1121 Q1424.83 26.1121 1428.84 30.9732 Q1432.85 35.7938 1432.85 45.1919 Z" fill="#000000" fill-rule="evenodd" fill-opacity="1" /><polyline clip-path="url(#clip012)" style="stroke:#009af9; stroke-linecap:butt; stroke-linejoin:round; stroke-width:4; stroke-opacity:1; fill:none" points="
  265.903,1191.35 266.597,1191.35 267.29,1191.35 267.984,1191.35 268.678,1191.35 269.371,1191.35 270.065,1191.35 270.759,1191.35 271.452,1191.35 272.146,1191.35 
  272.839,1191.35 273.533,1191.35 274.227,1191.35 274.92,1191.35 275.614,1191.35 276.308,1191.35 277.001,1191.35 277.695,1191.35 278.388,1191.35 279.082,1191.35 
  279.776,1191.35 280.469,1191.35 281.163,1191.35 281.857,1191.35 282.55,1191.35 283.244,1191.35 283.937,1191.35 284.631,1191.35 285.325,1191.35 286.018,1191.35 
  286.712,1191.35 287.406,1191.34 288.099,1191.34 288.793,1191.34 289.487,1191.34 290.18,1191.34 290.874,1191.34 291.567,1191.34 292.261,1191.34 292.955,1191.34 
  293.648,1191.34 294.342,1191.34 295.036,1191.34 295.729,1191.34 296.423,1191.34 297.116,1191.34 297.81,1191.33 298.504,1191.33 299.197,1191.33 299.891,1191.33 
  300.585,1191.33 301.278,1191.33 301.972,1191.33 302.666,1191.33 303.359,1191.33 304.053,1191.33 304.746,1191.32 305.44,1191.32 306.134,1191.32 306.827,1191.32 
  307.521,1191.32 308.215,1191.32 308.908,1191.32 309.602,1191.32 310.295,1191.31 310.989,1191.31 311.683,1191.31 312.376,1191.31 313.07,1191.31 313.764,1191.31 
  314.457,1191.3 315.151,1191.3 315.845,1191.3 316.538,1191.3 317.232,1191.3 317.925,1191.3 318.619,1191.29 319.313,1191.29 320.006,1191.29 320.7,1191.29 
  321.394,1191.29 322.087,1191.28 322.781,1191.28 323.474,1191.28 324.168,1191.28 324.862,1191.27 325.555,1191.27 326.249,1191.27 326.943,1191.27 327.636,1191.27 
  328.33,1191.26 329.023,1191.26 329.717,1191.26 330.411,1191.26 331.104,1191.25 331.798,1191.25 332.492,1191.25 333.185,1191.25 333.879,1191.24 334.573,1191.24 
  335.266,1191.24 335.96,1191.23 336.653,1191.23 337.347,1191.23 338.041,1191.23 338.734,1191.22 339.428,1191.22 340.122,1191.22 340.815,1191.21 341.509,1191.21 
  342.202,1191.21 342.896,1191.21 343.59,1191.2 344.283,1191.2 344.977,1191.2 345.671,1191.19 346.364,1191.19 347.058,1191.19 347.752,1191.18 348.445,1191.18 
  349.139,1191.18 349.832,1191.17 350.526,1191.17 351.22,1191.17 351.913,1191.16 352.607,1191.16 353.301,1191.16 353.994,1191.15 354.688,1191.15 355.381,1191.15 
  356.075,1191.14 356.769,1191.14 357.462,1191.14 358.156,1191.13 358.85,1191.13 359.543,1191.13 360.237,1191.12 360.93,1191.12 361.624,1191.11 362.318,1191.11 
  363.011,1191.11 363.705,1191.1 364.399,1191.1 365.092,1191.1 365.786,1191.09 366.48,1191.09 367.173,1191.08 367.867,1191.08 368.56,1191.08 369.254,1191.07 
  369.948,1191.07 370.641,1191.06 371.335,1191.06 372.029,1191.06 372.722,1191.05 373.416,1191.05 374.109,1191.04 374.803,1191.04 375.497,1191.04 376.19,1191.03 
  376.884,1191.03 377.578,1191.02 378.271,1191.02 378.965,1191.02 379.658,1191.01 380.352,1191.01 381.046,1191 381.739,1191 382.433,1191 383.127,1190.99 
  383.82,1190.99 384.514,1190.98 385.208,1190.98 385.901,1190.98 386.595,1190.97 387.288,1190.97 387.982,1190.96 388.676,1190.96 389.369,1190.95 390.063,1190.95 
  390.757,1190.95 391.45,1190.94 392.144,1190.94 392.837,1190.93 393.531,1190.93 394.225,1190.93 394.918,1190.92 395.612,1190.92 396.306,1190.91 396.999,1190.91 
  397.693,1190.91 398.387,1190.9 399.08,1190.9 399.774,1190.89 400.467,1190.89 401.161,1190.89 401.855,1190.88 402.548,1190.88 403.242,1190.87 403.936,1190.87 
  404.629,1190.87 405.323,1190.86 406.016,1190.86 406.71,1190.85 407.404,1190.85 408.097,1190.85 408.791,1190.84 409.485,1190.84 410.178,1190.83 410.872,1190.83 
  411.565,1190.83 412.259,1190.82 412.953,1190.82 413.646,1190.81 414.34,1190.81 415.034,1190.81 415.727,1190.8 416.421,1190.8 417.115,1190.79 417.808,1190.79 
  418.502,1190.79 419.195,1190.78 419.889,1190.78 420.583,1190.77 421.276,1190.77 421.97,1190.77 422.664,1190.76 423.357,1190.76 424.051,1190.75 424.744,1190.75 
  425.438,1190.75 426.132,1190.74 427.006,1190.74 427.7,1190.73 428.393,1190.73 429.087,1190.73 429.781,1190.72 430.474,1190.72 431.168,1190.71 431.862,1190.71 
  432.555,1190.71 433.249,1190.7 433.943,1190.7 434.636,1190.7 435.33,1190.69 436.023,1190.69 436.717,1190.68 437.411,1190.68 438.104,1190.68 438.798,1190.67 
  439.492,1190.67 440.185,1190.67 440.879,1190.66 441.572,1190.66 442.266,1190.65 442.96,1190.65 443.653,1190.65 444.347,1190.64 445.041,1190.64 445.734,1190.64 
  446.428,1190.63 447.121,1190.63 447.815,1190.63 448.509,1190.62 449.202,1190.62 449.896,1190.62 450.59,1190.61 451.283,1190.61 451.977,1190.61 452.671,1190.6 
  453.364,1190.6 454.058,1190.6 454.751,1190.59 455.445,1190.59 456.139,1190.59 456.832,1190.58 457.526,1190.58 458.22,1190.58 458.913,1190.57 459.607,1190.57 
  460.3,1190.57 460.994,1190.56 461.688,1190.56 462.381,1190.56 463.075,1190.55 463.769,1190.55 464.462,1190.55 465.156,1190.54 465.849,1190.54 466.543,1190.54 
  467.237,1190.53 467.93,1190.53 468.624,1190.53 469.318,1190.53 470.011,1190.52 470.705,1190.52 471.399,1190.52 472.092,1190.51 472.786,1190.51 473.479,1190.51 
  474.173,1190.51 474.867,1190.5 475.56,1190.5 476.254,1190.5 476.948,1190.49 477.641,1190.49 478.335,1190.49 479.028,1190.49 479.722,1190.48 480.416,1190.48 
  481.109,1190.48 481.803,1190.48 482.497,1190.47 483.19,1190.47 483.884,1190.47 484.577,1190.47 485.271,1190.47 485.965,1190.46 486.658,1190.46 487.352,1190.46 
  488.046,1190.46 488.739,1190.45 489.433,1190.45 490.127,1190.45 490.639,1190.45 491.333,1190.45 492.027,1190.44 492.72,1190.44 493.414,1190.44 494.107,1190.44 
  494.801,1190.44 495.495,1190.43 496.188,1190.43 496.882,1190.43 497.576,1190.43 498.269,1190.43 498.963,1190.43 499.656,1190.42 500.35,1190.42 501.044,1190.42 
  501.737,1190.42 502.431,1190.42 503.125,1190.41 503.818,1190.41 504.512,1190.41 505.205,1190.41 505.899,1190.41 506.593,1190.4 507.286,1190.4 507.98,1190.4 
  508.674,1190.4 509.367,1190.4 510.061,1190.39 510.755,1190.39 511.448,1190.39 512.142,1190.39 512.835,1190.39 513.529,1190.38 514.223,1190.38 514.916,1190.38 
  515.61,1190.38 516.304,1190.38 516.997,1190.37 517.691,1190.37 518.384,1190.37 519.078,1190.37 519.772,1190.36 520.465,1190.36 521.159,1190.36 521.853,1190.36 
  522.546,1190.36 523.24,1190.35 523.933,1190.35 524.627,1190.35 525.321,1190.35 526.014,1190.35 526.708,1190.34 527.402,1190.34 528.095,1190.34 528.789,1190.34 
  529.482,1190.34 530.176,1190.33 530.87,1190.33 531.563,1190.33 532.257,1190.33 532.951,1190.33 533.644,1190.32 534.338,1190.32 535.032,1190.32 535.725,1190.32 
  536.419,1190.32 537.112,1190.31 537.806,1190.31 538.5,1190.31 539.193,1190.31 539.887,1190.31 540.581,1190.3 541.274,1190.3 541.968,1190.3 542.661,1190.3 
  543.355,1190.3 544.049,1190.3 544.742,1190.29 545.436,1190.29 546.13,1190.29 546.823,1190.29 547.517,1190.29 548.21,1190.28 548.904,1190.28 549.598,1190.28 
  550.291,1190.28 550.985,1190.28 551.679,1190.28 552.372,1190.27 553.066,1190.27 553.76,1190.27 554.453,1190.27 555.147,1190.27 555.84,1190.26 556.534,1190.26 
  557.228,1190.26 557.921,1190.26 558.615,1190.26 559.309,1190.26 560.002,1190.25 560.696,1190.25 561.389,1190.25 562.083,1190.25 562.777,1190.25 563.47,1190.25 
  564.164,1190.24 564.858,1190.24 565.551,1190.24 566.245,1190.24 566.938,1190.24 567.632,1190.24 568.326,1190.24 569.019,1190.23 569.713,1190.23 570.407,1190.23 
  571.1,1190.23 571.794,1190.23 572.487,1190.23 573.181,1190.23 573.875,1190.22 574.568,1190.22 575.262,1190.22 575.956,1190.22 576.649,1190.22 577.343,1190.22 
  578.037,1190.22 578.73,1190.22 579.424,1190.21 580.117,1190.21 580.811,1190.21 581.505,1190.21 582.198,1190.21 582.892,1190.21 583.586,1190.21 584.46,1190.2 
  585.154,1190.2 585.847,1190.2 586.541,1190.2 587.235,1190.2 587.928,1190.2 588.622,1190.2 589.315,1190.2 590.009,1190.19 590.703,1190.19 591.396,1190.19 
  592.09,1190.19 592.784,1190.19 593.477,1190.19 594.171,1190.19 594.865,1190.19 595.558,1190.19 596.252,1190.19 596.945,1190.18 597.639,1190.18 598.333,1190.18 
  599.026,1190.18 599.72,1190.18 600.414,1190.18 601.107,1190.18 601.801,1190.18 602.494,1190.18 603.188,1190.18 603.882,1190.18 604.575,1190.18 605.269,1190.18 
  605.963,1190.18 606.656,1190.18 607.35,1190.18 608.043,1190.18 608.737,1190.17 609.431,1190.17 610.124,1190.17 610.818,1190.17 611.512,1190.17 612.205,1190.17 
  612.899,1190.17 613.592,1190.17 614.286,1190.17 614.98,1190.18 615.673,1190.18 616.367,1190.18 617.061,1190.18 617.754,1190.18 618.448,1190.18 619.141,1190.18 
  619.835,1190.18 620.529,1190.18 621.222,1190.18 621.916,1190.18 622.61,1190.18 623.303,1190.18 623.997,1190.18 624.691,1190.18 625.384,1190.18 626.078,1190.19 
  626.771,1190.19 627.465,1190.19 628.159,1190.19 628.852,1190.19 629.546,1190.19 630.24,1190.19 630.933,1190.2 631.627,1190.2 632.32,1190.2 633.014,1190.2 
  633.708,1190.2 634.401,1190.2 635.095,1190.21 635.789,1190.21 636.482,1190.21 637.176,1190.21 637.869,1190.21 638.563,1190.22 639.257,1190.22 639.95,1190.22 
  640.644,1190.22 641.338,1190.23 642.031,1190.23 642.725,1190.23 643.418,1190.24 644.112,1190.24 644.806,1190.24 645.499,1190.24 646.193,1190.25 646.887,1190.25 
  647.58,1190.25 648.093,1190.26 648.787,1190.26 649.48,1190.26 650.174,1190.27 650.867,1190.27 651.561,1190.27 652.255,1190.28 652.948,1190.28 653.642,1190.28 
  654.336,1190.29 655.029,1190.29 655.723,1190.29 656.417,1190.3 657.11,1190.3 657.804,1190.3 658.497,1190.31 659.191,1190.31 659.885,1190.32 660.578,1190.32 
  661.272,1190.32 661.966,1190.33 662.659,1190.33 663.353,1190.34 664.046,1190.34 664.74,1190.34 665.434,1190.35 666.127,1190.35 666.821,1190.36 667.515,1190.36 
  668.208,1190.37 668.902,1190.37 669.595,1190.37 670.289,1190.38 670.983,1190.38 671.676,1190.39 672.37,1190.39 673.064,1190.4 673.757,1190.4 674.451,1190.4 
  675.144,1190.41 675.838,1190.41 676.532,1190.42 677.225,1190.42 677.919,1190.43 678.613,1190.43 679.306,1190.44 680,1190.44 680.693,1190.45 681.387,1190.45 
  682.081,1190.46 682.774,1190.46 683.468,1190.47 684.162,1190.47 684.855,1190.48 685.549,1190.48 686.243,1190.49 686.936,1190.49 687.63,1190.5 688.323,1190.5 
  689.017,1190.51 689.711,1190.51 690.404,1190.52 691.098,1190.52 691.792,1190.53 692.485,1190.53 693.179,1190.53 693.872,1190.53 694.566,1190.53 695.26,1190.53 
  695.953,1190.52 696.647,1190.51 697.341,1190.51 698.034,1190.49 698.728,1190.48 699.421,1190.46 700.115,1190.44 700.809,1190.41 701.502,1190.38 702.196,1190.34 
  702.89,1190.3 703.583,1190.26 704.277,1190.21 704.97,1190.15 705.664,1190.09 706.358,1190.02 707.051,1189.95 707.745,1189.87 708.439,1189.78 709.132,1189.69 
  709.826,1189.58 710.519,1189.47 711.213,1189.36 711.907,1189.23 712.6,1189.1 713.294,1188.96 713.988,1188.81 714.681,1188.65 715.375,1188.49 716.068,1188.32 
  716.762,1188.13 717.456,1187.94 718.149,1187.75 718.843,1187.54 719.537,1187.32 720.23,1187.1 720.924,1186.86 721.617,1186.62 722.311,1186.37 723.005,1186.11 
  723.698,1185.84 724.392,1185.56 725.086,1185.27 725.779,1184.97 726.473,1184.67 727.167,1184.35 727.86,1184.03 728.554,1183.69 729.247,1183.35 729.941,1183 
  730.635,1182.64 731.328,1182.27 732.022,1181.89 732.716,1181.5 733.409,1181.1 734.103,1180.69 734.796,1180.27 735.49,1179.84 736.184,1179.4 736.877,1178.96 
  737.571,1178.5 738.265,1178.04 738.958,1177.57 739.652,1177.08 740.345,1176.59 741.039,1176.09 741.733,1175.59 742.426,1175.07 743.12,1174.55 743.814,1174.01 
  744.507,1173.47 745.201,1172.93 745.894,1172.37 746.588,1171.81 747.282,1171.24 747.975,1170.66 748.669,1170.08 749.363,1169.49 750.056,1168.89 750.75,1168.29 
  751.443,1167.68 752.137,1167.07 752.831,1166.45 753.524,1165.83 754.218,1165.2 754.912,1164.56 755.605,1163.92 756.299,1163.28 756.992,1162.64 757.686,1161.99 
  758.38,1161.33 759.073,1160.68 759.767,1160.02 760.461,1159.35 761.154,1158.69 761.848,1158.02 762.541,1157.35 763.235,1156.67 763.929,1156 764.622,1155.32 
  765.316,1154.64 766.01,1153.96 766.703,1153.28 767.397,1152.59 768.09,1151.91 768.784,1151.22 769.478,1150.53 770.171,1149.84 770.865,1149.15 771.559,1148.46 
  772.252,1147.77 772.946,1147.07 773.639,1146.38 774.333,1145.69 775.027,1144.99 775.72,1144.29 776.414,1143.6 777.108,1142.9 777.801,1142.2 778.495,1141.5 
  779.189,1140.8 779.882,1140.11 780.576,1139.41 781.269,1138.71 781.963,1138.01 782.657,1137.31 783.35,1136.61 784.044,1135.9 784.738,1135.2 785.431,1134.5 
  786.125,1133.8 786.818,1133.1 787.512,1132.4 788.206,1131.69 788.899,1130.99 789.593,1130.29 790.287,1129.59 790.98,1128.89 791.674,1128.18 792.367,1127.48 
  793.061,1126.78 793.755,1126.07 794.448,1125.37 795.142,1124.67 795.836,1123.97 796.529,1123.26 797.223,1122.56 797.916,1121.86 798.61,1121.15 799.304,1120.45 
  799.997,1119.75 800.691,1119.04 801.385,1118.34 802.078,1117.64 802.772,1116.94 803.465,1116.23 804.159,1115.53 804.853,1114.83 805.546,1114.12 806.24,1113.42 
  806.934,1112.72 807.627,1112.02 808.321,1111.31 809.014,1110.61 809.708,1109.91 810.402,1109.21 811.095,1108.5 811.789,1107.8 812.483,1107.1 813.176,1106.4 
  813.87,1105.69 814.563,1104.99 815.257,1104.29 815.951,1103.59 816.644,1102.89 817.338,1102.18 818.032,1101.48 818.725,1100.78 819.419,1100.08 820.112,1099.38 
  820.806,1098.67 821.5,1097.97 822.193,1097.27 822.887,1096.57 823.581,1095.87 824.274,1095.16 824.968,1094.46 825.661,1093.76 826.355,1093.06 827.049,1092.36 
  827.742,1091.66 828.436,1090.96 829.13,1090.25 829.823,1089.55 830.517,1088.85 831.21,1088.15 831.904,1087.45 832.598,1086.75 833.291,1086.05 833.985,1085.35 
  834.679,1084.64 835.372,1083.94 836.066,1083.24 836.759,1082.54 837.453,1081.84 838.147,1081.14 838.84,1080.44 839.534,1079.74 840.228,1079.04 840.921,1078.34 
  841.615,1077.64 842.308,1076.94 843.002,1076.24 843.696,1075.54 844.389,1074.84 845.083,1074.14 845.777,1073.44 846.47,1072.74 847.164,1072.04 847.857,1071.34 
  848.551,1070.64 849.245,1069.94 849.938,1069.24 850.632,1068.54 851.326,1067.84 852.019,1067.14 852.713,1066.44 853.406,1065.74 854.1,1065.04 854.794,1064.34 
  855.487,1063.64 856.181,1062.95 856.875,1062.25 857.568,1061.55 858.262,1060.85 858.955,1060.15 859.649,1059.45 860.343,1058.75 861.036,1058.06 861.73,1057.36 
  862.424,1056.66 863.117,1055.96 863.811,1055.26 864.504,1054.57 865.198,1053.87 865.892,1053.17 866.585,1052.47 867.279,1051.77 867.973,1051.08 868.666,1050.38 
  869.36,1049.68 870.053,1048.98 870.747,1048.29 871.441,1047.59 872.134,1046.89 872.828,1046.19 873.522,1045.5 874.215,1044.8 874.909,1044.1 875.603,1043.4 
  876.296,1042.71 876.99,1042.01 877.683,1041.31 878.377,1040.62 879.071,1039.92 879.764,1039.22 880.458,1038.52 881.152,1037.83 881.845,1037.13 882.539,1036.43 
  883.232,1035.74 883.926,1035.04 884.62,1034.34 885.313,1033.65 886.007,1032.95 886.701,1032.26 887.394,1031.56 888.088,1030.86 888.781,1030.17 889.475,1029.47 
  890.169,1028.77 890.862,1028.08 891.556,1027.38 892.25,1026.69 892.943,1025.99 893.637,1025.29 894.33,1024.6 895.024,1023.9 895.718,1023.21 896.411,1022.51 
  897.105,1021.82 897.799,1021.12 898.492,1020.43 899.186,1019.73 899.879,1019.04 900.573,1018.34 901.267,1017.65 901.96,1016.95 902.654,1016.26 903.348,1015.56 
  904.041,1014.87 904.735,1014.17 905.428,1013.48 906.122,1012.79 906.816,1012.09 907.509,1011.4 908.203,1010.7 908.897,1010.01 909.59,1009.31 910.284,1008.62 
  910.977,1007.93 911.671,1007.23 912.365,1006.54 913.058,1005.85 913.752,1005.15 914.446,1004.46 915.139,1003.77 915.833,1003.07 916.526,1002.38 917.22,1001.69 
  917.914,1000.99 918.607,1000.3 919.301,999.608 919.994,998.915 920.688,998.223 921.382,997.53 922.075,996.838 922.769,996.145 923.463,995.453 924.156,994.761 
  924.85,994.069 925.543,993.377 926.237,992.685 926.931,991.993 927.624,991.301 928.318,990.609 929.012,989.917 929.705,989.226 930.399,988.534 931.092,987.843 
  931.786,987.151 932.48,986.46 933.173,985.769 933.867,985.077 934.561,984.386 935.254,983.695 935.948,983.004 936.641,982.313 937.335,981.623 938.029,980.932 
  938.722,980.241 939.416,979.551 940.11,978.86 940.803,978.17 941.497,977.479 942.19,976.789 942.884,976.098 943.578,975.408 944.271,974.718 944.965,974.028 
  945.659,973.338 946.352,972.648 947.046,971.958 947.739,971.268 948.433,970.579 949.127,969.889 949.82,969.199 950.514,968.51 951.208,967.821 951.901,967.131 
  952.595,966.442 953.288,965.753 953.982,965.064 954.676,964.375 955.369,963.686 956.063,962.997 956.757,962.308 957.45,961.62 958.144,960.931 958.837,960.242 
  959.531,959.554 960.225,958.866 960.918,958.177 961.612,957.489 962.306,956.801 962.999,956.113 963.693,955.425 964.386,954.737 965.08,954.05 965.774,953.362 
  966.467,952.674 967.161,951.987 967.855,951.299 968.548,950.612 969.242,949.925 969.935,949.238 970.629,948.551 971.323,947.864 972.016,947.177 972.71,946.49 
  973.404,945.804 974.097,945.117 974.791,944.43 975.484,943.744 976.178,943.058 976.872,942.372 977.565,941.686 978.259,941 978.953,940.314 979.646,939.628 
  980.34,938.943 981.033,938.257 981.727,937.572 982.421,936.886 983.114,936.201 983.808,935.516 984.502,934.831 985.195,934.146 985.889,933.461 986.582,932.777 
  987.276,932.092 987.97,931.407 988.663,930.723 989.357,930.038 990.051,929.354 990.744,928.67 991.438,927.985 992.131,927.301 992.825,926.617 993.519,925.933 
  994.212,925.25 994.906,924.566 995.6,923.882 996.293,923.199 996.987,922.516 997.68,921.832 998.374,921.149 999.068,920.466 999.761,919.783 1000.45,919.1 
  1001.15,918.417 1001.84,917.734 1002.54,917.051 1003.23,916.368 1003.92,915.686 1004.62,915.003 1005.31,914.321 1006,913.638 1006.7,912.956 1007.39,912.274 
  1008.08,911.592 1008.78,910.91 1009.47,910.228 1010.17,909.547 1010.86,908.865 1011.55,908.184 1012.25,907.502 1012.94,906.821 1013.63,906.14 1014.33,905.459 
  1015.02,904.778 1015.71,904.097 1016.41,903.416 1017.1,902.735 1017.8,902.054 1018.49,901.374 1019.18,900.693 1019.88,900.013 1020.57,899.333 1021.26,898.652 
  1021.96,897.972 1022.65,897.292 1023.34,896.612 1024.04,895.932 1024.73,895.253 1025.43,894.573 1026.12,893.894 1026.81,893.214 1027.51,892.535 1028.2,891.856 
  1028.89,891.176 1029.59,890.497 1030.28,889.819 1030.97,889.14 1031.67,888.461 1032.36,887.782 1033.06,887.104 1033.75,886.425 1034.44,885.747 1035.14,885.069 
  1035.83,884.391 1036.52,883.713 1037.22,883.036 1037.91,882.358 1038.6,881.68 1039.3,881.003 1039.99,880.326 1040.69,879.649 1041.38,878.972 1042.07,878.295 
  1042.77,877.618 1043.46,876.941 1044.15,876.264 1044.85,875.588 1045.54,874.911 1046.23,874.235 1046.93,873.559 1047.62,872.883 1048.31,872.207 1049.01,871.531 
  1049.7,870.855 1050.4,870.18 1051.09,869.504 1051.78,868.829 1052.48,868.154 1053.17,867.479 1053.86,866.804 1054.56,866.129 1055.25,865.454 1055.94,864.779 
  1056.64,864.105 1057.33,863.431 1058.03,862.756 1058.72,862.082 1059.41,861.408 1060.11,860.734 1060.8,860.06 1061.49,859.386 1062.19,858.713 1062.88,858.039 
  1063.57,857.366 1064.27,856.692 1064.96,856.019 1065.66,855.346 1066.35,854.673 1067.04,853.999 1067.74,853.326 1068.43,852.654 1069.12,851.981 1069.82,851.308 
  1070.51,850.636 1071.2,849.963 1071.9,849.291 1072.59,848.619 1073.29,847.947 1073.98,847.275 1074.67,846.603 1075.37,845.931 1076.06,845.26 1076.75,844.588 
  1077.45,843.917 1078.14,843.245 1078.83,842.574 1079.53,841.903 1080.22,841.232 1080.92,840.561 1081.61,839.891 1082.3,839.22 1083,838.55 1083.69,837.879 
  1084.38,837.209 1085.08,836.539 1085.77,835.869 1086.46,835.199 1087.16,834.529 1087.85,833.859 1088.55,833.19 1089.24,832.521 1089.93,831.851 1090.63,831.182 
  1091.32,830.513 1092.01,829.844 1092.71,829.175 1093.4,828.506 1094.09,827.838 1094.79,827.169 1095.48,826.501 1096.17,825.833 1096.87,825.165 1097.56,824.497 
  1098.26,823.829 1098.95,823.161 1099.64,822.493 1100.34,821.826 1101.03,821.158 1101.72,820.491 1102.42,819.824 1103.11,819.157 1103.8,818.49 1104.5,817.823 
  1105.19,817.157 1105.89,816.49 1106.58,815.824 1107.27,815.158 1107.97,814.492 1108.66,813.826 1109.35,813.16 1110.05,812.495 1110.74,811.829 1111.43,811.164 
  1112.13,810.499 1112.82,809.834 1113.52,809.169 1114.21,808.504 1114.9,807.84 1115.6,807.175 1116.29,806.511 1116.98,805.847 1117.68,805.183 1118.37,804.519 
  1119.06,803.855 1119.76,803.191 1120.45,802.528 1121.15,801.864 1121.84,801.201 1122.53,800.538 1123.23,799.875 1123.92,799.212 1124.61,798.55 1125.31,797.887 
  1126,797.225 1126.69,796.562 1127.39,795.9 1128.08,795.238 1128.78,794.576 1129.47,793.914 1130.16,793.252 1130.86,792.59 1131.55,791.928 1132.24,791.267 
  1132.94,790.605 1133.63,789.944 1134.32,789.283 1135.02,788.622 1135.71,787.961 1136.41,787.3 1137.1,786.639 1137.79,785.978 1138.49,785.318 1139.18,784.657 
  1139.87,783.997 1140.57,783.337 1141.26,782.677 1141.95,782.017 1142.65,781.357 1143.34,780.698 1144.03,780.038 1144.73,779.379 1145.42,778.72 1146.12,778.06 
  1146.81,777.402 1147.5,776.743 1148.2,776.084 1148.89,775.425 1149.58,774.767 1150.28,774.109 1150.97,773.45 1151.66,772.793 1152.36,772.135 1153.05,771.477 
  1153.75,770.819 1154.44,770.162 1155.13,769.504 1155.83,768.847 1156.52,768.19 1157.21,767.533 1157.91,766.876 1158.6,766.22 1159.29,765.563 1159.99,764.907 
  1160.68,764.25 1161.38,763.594 1162.07,762.938 1162.76,762.282 1163.46,761.626 1164.15,760.971 1164.84,760.315 1165.54,759.66 1166.23,759.004 1166.92,758.349 
  1167.62,757.694 1168.31,757.039 1169.01,756.385 1169.7,755.73 1170.39,755.076 1171.09,754.421 1171.78,753.767 1172.47,753.113 1173.17,752.459 1173.86,751.805 
  1174.55,751.152 1175.25,750.498 1175.94,749.845 1176.64,749.191 1177.33,748.538 1178.02,747.885 1178.72,747.232 1179.41,746.58 1180.1,745.927 1180.8,745.275 
  1181.49,744.622 1182.18,743.97 1182.88,743.318 1183.57,742.666 1184.27,742.014 1184.96,741.363 1185.65,740.711 1186.35,740.06 1187.04,739.408 1187.73,738.757 
  1188.43,738.106 1189.12,737.455 1189.81,736.804 1190.51,736.154 1191.2,735.503 1191.89,734.853 1192.59,734.203 1193.28,733.552 1193.98,732.902 1194.67,732.253 
  1195.36,731.603 1196.06,730.953 1196.75,730.304 1197.44,729.655 1198.14,729.005 1198.83,728.356 1199.52,727.708 1200.22,727.059 1200.91,726.41 1201.61,725.762 
  1202.3,725.114 1202.99,724.466 1203.69,723.818 1204.38,723.17 1205.07,722.522 1205.77,721.875 1206.46,721.227 1207.15,720.58 1207.85,719.933 1208.54,719.286 
  1209.24,718.639 1209.93,717.992 1210.62,717.346 1211.32,716.699 1212.01,716.053 1212.7,715.407 1213.4,714.761 1214.09,714.115 1214.78,713.47 1215.48,712.825 
  1216.17,712.18 1216.87,711.536 1217.56,710.892 1218.25,710.248 1218.95,709.606 1219.64,708.965 1220.33,708.324 1221.03,707.685 1221.72,707.047 1222.41,706.41 
  1223.11,705.776 1223.8,705.143 1224.5,704.513 1225.19,703.885 1225.88,703.26 1226.58,702.638 1227.27,702.019 1227.96,701.403 1228.66,700.792 1229.35,700.184 
  1230.04,699.58 1230.74,698.981 1231.43,698.386 1232.12,697.796 1232.82,697.212 1233.51,696.633 1234.21,696.059 1234.9,695.49 1235.59,694.928 1236.29,694.371 
  1236.98,693.821 1237.67,693.277 1238.37,692.738 1239.06,692.207 1239.75,691.681 1240.45,691.162 1241.14,690.65 1241.84,690.145 1242.53,689.646 1243.22,689.154 
  1243.92,688.668 1244.61,688.19 1245.3,687.719 1246,687.254 1246.69,686.797 1247.38,686.346 1248.08,685.903 1248.77,685.467 1249.47,685.038 1250.16,684.616 
  1250.85,684.201 1251.55,683.794 1252.24,683.394 1252.93,683.001 1253.63,682.616 1254.32,682.238 1255.01,681.867 1255.71,681.504 1256.4,681.148 1257.1,680.799 
  1257.79,680.458 1258.48,680.125 1259.18,679.798 1259.87,679.48 1260.56,679.169 1261.26,678.865 1261.95,678.569 1262.64,678.281 1263.34,677.999 1264.03,677.726 
  1264.73,677.46 1265.42,677.202 1266.11,676.951 1266.81,676.708 1267.5,676.472 1268.19,676.244 1268.89,676.024 1269.58,675.812 1270.27,675.606 1270.97,675.409 
  1271.66,675.219 1272.36,675.037 1273.05,674.863 1273.74,674.696 1274.44,674.536 1275.13,674.385 1275.82,674.241 1276.52,674.105 1277.21,673.976 1277.9,673.855 
  1278.6,673.742 1279.29,673.636 1279.98,673.538 1280.68,673.447 1281.37,673.363 1282.07,673.287 1282.76,673.218 1283.45,673.156 1284.15,673.101 1284.84,673.052 
  1285.53,673.01 1286.23,672.975 1286.92,672.946 1287.61,672.922 1288.31,672.905 1289,672.892 1289.7,672.886 1290.39,672.884 1291.08,672.887 1291.78,672.894 
  1292.47,672.906 1293.16,672.922 1293.86,672.942 1294.55,672.966 1295.24,672.992 1295.94,673.023 1296.63,673.056 1297.33,673.091 1298.02,673.13 1298.71,673.171 
  1299.41,673.214 1300.1,673.259 1300.79,673.307 1301.49,673.356 1302.18,673.407 1302.87,673.46 1303.57,673.514 1304.26,673.57 1304.96,673.628 1305.65,673.687 
  1306.34,673.748 1307.04,673.81 1307.73,673.873 1308.42,673.938 1309.12,674.005 1309.81,674.073 1310.5,674.143 1311.2,674.213 1311.89,674.286 1312.59,674.359 
  1313.28,674.434 1313.97,674.51 1314.67,674.587 1315.36,674.666 1316.05,674.745 1316.75,674.826 1317.44,674.907 1318.13,674.989 1318.83,675.072 1319.52,675.156 
  1320.21,675.24 1320.91,675.325 1321.6,675.411 1322.3,675.498 1322.99,675.585 1323.68,675.672 1324.38,675.761 1325.07,675.849 1325.76,675.938 1326.46,676.028 
  1327.15,676.118 1327.84,676.209 1328.54,676.3 1329.23,676.391 1329.93,676.483 1330.62,676.575 1331.31,676.667 1332.01,676.76 1332.7,676.853 1333.39,676.946 
  1334.09,677.04 1334.78,677.134 1335.47,677.228 1336.17,677.322 1336.86,677.417 1337.56,677.512 1338.25,677.607 1338.94,677.703 1339.64,677.798 1340.33,677.894 
  1341.02,677.99 1341.72,678.087 1342.41,678.183 1343.1,678.28 1343.8,678.377 1344.49,678.474 1345.19,678.572 1345.88,678.669 1346.57,678.767 1347.27,678.865 
  1347.96,678.963 1348.65,679.062 1349.35,679.16 1350.04,679.259 1350.73,679.358 1351.43,679.457 1352.12,679.556 1352.82,679.656 1353.51,679.755 1354.2,679.855 
  1354.9,679.955 1355.59,680.055 1356.28,680.156 1356.98,680.256 1357.67,680.357 1358.36,680.458 1359.06,680.559 1359.75,680.66 1360.45,680.761 1361.14,680.863 
  1361.83,680.965 1362.53,681.067 1363.22,681.169 1363.91,681.271 1364.61,681.374 1365.3,681.476 1365.99,681.579 1366.69,681.682 1367.38,681.785 1368.07,681.888 
  1368.77,681.992 1369.46,682.095 1370.16,682.199 1370.85,682.303 1371.54,682.407 1372.24,682.511 1372.93,682.616 1373.62,682.72 1374.32,682.825 1375.01,682.93 
  1375.7,683.035 1376.4,683.14 1377.09,683.245 1377.79,683.351 1378.48,683.457 1379.17,683.562 1379.87,683.669 1380.56,683.775 1381.25,683.881 1381.95,683.988 
  1382.64,684.094 1383.33,684.201 1384.03,684.308 1384.72,684.415 1385.42,684.523 1386.11,684.63 1386.8,684.738 1387.5,684.846 1388.19,684.954 1388.88,685.062 
  1389.58,685.171 1390.27,685.279 1390.96,685.388 1391.66,685.497 1392.35,685.606 1393.05,685.715 1393.74,685.825 1394.43,685.934 1395.13,686.044 1395.82,686.154 
  1396.51,686.264 1397.21,686.374 1397.9,686.485 1398.59,686.596 1399.29,686.706 1399.98,686.817 1400.68,686.928 1401.37,687.04 1402.06,687.151 1402.76,687.263 
  1403.45,687.375 1404.14,687.487 1404.84,687.599 1405.53,687.711 1406.22,687.824 1406.92,687.936 1407.61,688.049 1408.3,688.162 1409,688.275 1409.69,688.389 
  1410.39,688.502 1411.08,688.616 1411.77,688.73 1412.47,688.844 1413.16,688.958 1413.85,689.073 1414.55,689.187 1415.24,689.302 1415.93,689.417 1416.63,689.532 
  1417.32,689.647 1418.02,689.763 1418.71,689.879 1419.4,689.995 1420.1,690.111 1420.79,690.227 1421.48,690.343 1422.18,690.46 1422.87,690.577 1423.56,690.694 
  1424.26,690.811 1424.95,690.928 1425.65,691.045 1426.34,691.163 1427.03,691.281 1427.73,691.399 1428.42,691.517 1429.11,691.635 1429.81,691.754 1430.5,691.872 
  1431.19,691.991 1431.89,692.11 1432.58,692.229 1433.28,692.349 1433.97,692.468 1434.66,692.588 1435.36,692.708 1436.05,692.828 1436.74,692.948 1437.44,693.068 
  1438.13,693.189 1438.82,693.31 1439.52,693.431 1440.21,693.552 1440.91,693.673 1441.6,693.795 1442.29,693.916 1442.99,694.038 1443.68,694.16 1444.37,694.282 
  1445.07,694.405 1445.76,694.527 1446.45,694.65 1447.15,694.773 1447.84,694.896 1448.53,695.019 1449.23,695.143 1449.92,695.266 1450.62,695.39 1451.31,695.514 
  1452,695.638 1452.7,695.763 1453.39,695.887 1454.08,696.012 1454.78,696.137 1455.47,696.262 1456.16,696.387 1456.86,696.513 1457.55,696.638 1458.25,696.765 
  1458.94,696.891 1459.63,697.018 1460.33,697.146 1461.02,697.274 1461.71,697.403 1462.41,697.533 1463.1,697.664 1463.79,697.797 1464.49,697.931 1465.18,698.066 
  1465.88,698.204 1466.57,698.344 1467.26,698.486 1467.96,698.631 1468.65,698.778 1469.34,698.929 1470.04,699.083 1470.73,699.241 1471.42,699.402 1472.12,699.568 
  1472.81,699.739 1473.51,699.914 1474.2,700.094 1474.89,700.28 1475.59,700.471 1476.28,700.668 1476.97,700.871 1477.67,701.081 1478.36,701.297 1479.05,701.52 
  1479.75,701.75 1480.44,701.988 1481.14,702.233 1481.83,702.485 1482.52,702.745 1483.22,703.014 1483.91,703.29 1484.6,703.574 1485.3,703.867 1485.99,704.168 
  1486.68,704.477 1487.38,704.795 1488.07,705.122 1488.76,705.458 1489.46,705.802 1490.15,706.155 1490.85,706.518 1491.54,706.889 1492.23,707.269 1492.93,707.658 
  1493.62,708.057 1494.31,708.465 1495.01,708.882 1495.7,709.308 1496.39,709.743 1497.09,710.188 1497.78,710.643 1498.48,711.106 1499.17,711.58 1499.86,712.062 
  1500.56,712.554 1501.25,713.056 1501.94,713.567 1502.64,714.088 1503.33,714.619 1504.02,715.159 1504.72,715.708 1505.41,716.267 1506.11,716.836 1506.8,717.414 
  1507.49,718.001 1508.19,718.598 1508.88,719.204 1509.57,719.819 1510.27,720.443 1510.96,721.076 1511.65,721.718 1512.35,722.369 1513.04,723.028 1513.74,723.695 
  1514.43,724.371 1515.12,725.055 1515.82,725.747 1516.51,726.447 1517.2,727.154 1517.9,727.868 1518.59,728.59 1519.28,729.319 1519.98,730.054 1520.67,730.797 
  1521.37,731.545 1522.06,732.3 1522.75,733.061 1523.45,733.827 1524.14,734.599 1524.83,735.376 1525.53,736.159 1526.22,736.946 1526.91,737.738 1527.61,738.534 
  1528.3,739.334 1528.99,740.139 1529.69,740.947 1530.38,741.758 1531.08,742.573 1531.77,743.39 1532.46,744.211 1533.16,745.034 1533.85,745.86 1534.54,746.688 
  1535.24,747.518 1535.93,748.35 1536.62,749.184 1537.32,750.02 1538.01,750.857 1538.71,751.696 1539.4,752.536 1540.09,753.378 1540.79,754.221 1541.48,755.066 
  1542.17,755.911 1542.87,756.758 1543.56,757.605 1544.25,758.454 1544.95,759.303 1545.64,760.153 1546.34,761.004 1547.03,761.856 1547.72,762.709 1548.42,763.562 
  1549.11,764.416 1549.8,765.27 1550.5,766.125 1551.19,766.981 1551.88,767.837 1552.58,768.694 1553.27,769.551 1553.97,770.409 1554.66,771.267 1555.35,772.126 
  1556.05,772.984 1556.74,773.844 1557.43,774.704 1558.13,775.564 1558.82,776.424 1559.51,777.285 1560.21,778.146 1560.9,779.007 1561.59,779.869 1562.29,780.73 
  1562.98,781.592 1563.68,782.455 1564.37,783.317 1565.06,784.18 1565.76,785.043 1566.45,785.906 1567.14,786.77 1567.84,787.634 1568.53,788.497 1569.22,789.361 
  1569.92,790.226 1570.61,791.09 1571.31,791.955 1572,792.819 1572.69,793.684 1573.39,794.549 1574.08,795.414 1574.77,796.279 1575.47,797.145 1576.16,798.01 
  1576.85,798.876 1577.55,799.742 1578.24,800.607 1578.94,801.473 1579.63,802.34 1580.32,803.206 1581.02,804.072 1581.71,804.939 1582.4,805.805 1583.1,806.672 
  1583.79,807.539 1584.48,808.406 1585.18,809.273 1585.87,810.14 1586.57,811.007 1587.26,811.875 1587.95,812.742 1588.65,813.61 1589.34,814.477 1590.03,815.345 
  1590.73,816.213 1591.42,817.081 1592.11,817.949 1592.81,818.817 1593.5,819.686 1594.2,820.554 1594.89,821.422 1595.58,822.291 1596.28,823.159 1596.97,824.028 
  1597.66,824.897 1598.36,825.765 1599.05,826.634 1599.74,827.503 1600.44,828.372 1601.13,829.242 1601.82,830.111 1602.52,830.98 1603.21,831.85 1603.91,832.719 
  1604.6,833.589 1605.29,834.459 1605.99,835.329 1606.68,836.199 1607.37,837.069 1608.07,837.939 1608.76,838.809 1609.45,839.679 1610.15,840.55 1610.84,841.42 
  1611.54,842.291 1612.23,843.161 1612.92,844.032 1613.62,844.903 1614.31,845.774 1615,846.645 1615.7,847.516 1616.39,848.387 1617.08,849.258 1617.78,850.13 
  1618.47,851.001 1619.17,851.873 1619.86,852.744 1620.55,853.616 1621.25,854.487 1621.94,855.359 1622.63,856.231 1623.33,857.103 1624.02,857.975 1624.71,858.847 
  1625.41,859.719 1626.1,860.591 1626.8,861.463 1627.49,862.335 1628.18,863.207 1628.88,864.079 1629.57,864.951 1630.26,865.824 1630.96,866.696 1631.65,867.568 
  1632.34,868.441 1633.04,869.313 1633.73,870.186 1634.43,871.058 1635.12,871.93 1635.81,872.803 1636.51,873.675 1637.2,874.548 1637.89,875.421 1638.59,876.293 
  1639.28,877.166 1639.97,878.038 1640.67,878.911 1641.36,879.784 1642.05,880.657 1642.75,881.53 1643.44,882.402 1644.14,883.275 1644.83,884.148 1645.52,885.021 
  1646.22,885.894 1646.91,886.768 1647.6,887.641 1648.3,888.514 1648.99,889.387 1649.68,890.26 1650.38,891.134 1651.07,892.007 1651.77,892.88 1652.46,893.754 
  1653.15,894.627 1653.85,895.5 1654.54,896.374 1655.23,897.247 1655.93,898.121 1656.62,898.994 1657.31,899.868 1658.01,900.741 1658.7,901.615 1659.4,902.488 
  1660.09,903.362 1660.78,904.235 1661.48,905.109 1662.17,905.983 1662.86,906.856 1663.56,907.73 1664.25,908.604 1664.94,909.478 1665.64,910.351 1666.33,911.225 
  1667.03,912.099 1667.9,913.201 1668.59,914.074 1669.29,914.948 1669.98,915.822 1670.67,916.696 1671.37,917.57 1672.06,918.443 1672.75,919.317 1673.45,920.191 
  1674.14,921.065 1674.84,921.939 1675.53,922.813 1676.22,923.687 1676.92,924.56 1677.61,925.434 1678.3,926.308 1679,927.182 1679.69,928.056 1680.38,928.93 
  1681.08,929.804 1681.77,930.678 1682.47,931.552 1683.16,932.427 1683.85,933.301 1684.55,934.175 1685.24,935.049 1685.93,935.924 1686.63,936.798 1687.32,937.672 
  1688.01,938.546 1688.71,939.421 1689.4,940.295 1690.1,941.169 1690.79,942.043 1691.48,942.918 1692.18,943.792 1692.87,944.666 1693.56,945.54 1694.26,946.415 
  1694.95,947.289 1695.64,948.163 1696.34,949.038 1697.03,949.912 1697.73,950.786 1698.42,951.661 1699.11,952.535 1699.81,953.409 1700.5,954.283 1701.19,955.157 
  1701.89,956.031 1702.58,956.906 1703.27,957.78 1703.97,958.654 1704.66,959.528 1705.36,960.402 1706.05,961.276 1706.74,962.151 1707.44,963.025 1708.13,963.899 
  1708.82,964.773 1709.52,965.648 1710.21,966.522 1710.9,967.396 1711.6,968.27 1712.29,969.144 1712.98,970.019 1713.68,970.893 1714.37,971.767 1715.07,972.642 
  1715.76,973.516 1716.45,974.39 1717.15,975.265 1717.84,976.139 1718.53,977.013 1719.23,977.888 1719.92,978.762 1720.61,979.637 1721.31,980.511 1722,981.386 
  1722.7,982.26 1723.39,983.135 1724.08,984.009 1724.78,984.883 1725.47,985.758 1726.16,986.632 1726.86,987.507 1727.55,988.381 1728.24,989.256 1728.94,990.13 
  1729.63,991.005 1730.33,991.879 1731.02,992.754 1731.53,993.4 1732.23,994.274 1732.92,995.149 1733.61,996.024 1734.31,996.898 1735,997.773 1735.69,998.648 
  1736.39,999.523 1737.08,1000.4 1737.77,1001.27 1738.47,1002.15 1739.16,1003.02 1739.86,1003.9 1740.55,1004.77 1741.24,1005.65 1741.94,1006.52 1742.63,1007.4 
  1743.32,1008.27 1744.02,1009.15 1744.71,1010.02 1745.4,1010.9 1746.1,1011.77 1746.79,1012.65 1747.48,1013.52 1748.18,1014.4 1748.87,1015.27 1749.57,1016.15 
  1750.26,1017.02 1750.95,1017.9 1751.65,1018.77 1752.34,1019.65 1753.03,1020.52 1753.73,1021.4 1754.42,1022.27 1755.11,1023.15 1755.81,1024.02 1756.5,1024.9 
  1757.2,1025.77 1757.89,1026.65 1758.58,1027.52 1759.28,1028.4 1759.97,1029.27 1760.66,1030.15 1761.36,1031.02 1762.05,1031.9 1762.74,1032.77 1763.44,1033.64 
  1764.13,1034.52 1764.83,1035.39 1765.52,1036.27 1766.21,1037.14 1766.91,1038.02 1767.6,1038.89 1768.29,1039.76 1768.99,1040.64 1769.68,1041.51 1770.37,1042.39 
  1771.07,1043.26 1771.76,1044.13 1772.46,1045.01 1773.15,1045.88 1773.84,1046.75 1774.54,1047.63 1775.23,1048.5 1775.92,1049.37 1776.62,1050.25 1777.31,1051.12 
  1778,1051.99 1778.7,1052.87 1779.39,1053.74 1780.08,1054.61 1780.78,1055.49 1781.47,1056.36 1782.17,1057.23 1782.86,1058.1 1783.55,1058.98 1784.25,1059.85 
  1784.94,1060.72 1785.63,1061.59 1786.33,1062.47 1787.02,1063.34 1787.71,1064.21 1788.41,1065.08 1789.1,1065.95 1789.8,1066.83 1790.49,1067.7 1791.18,1068.57 
  1791.88,1069.44 1792.57,1070.31 1793.26,1071.18 1793.96,1072.06 1794.65,1072.93 1795.34,1073.8 1796.04,1074.67 1796.73,1075.54 1797.43,1076.41 1798.12,1077.28 
  1798.81,1078.15 1799.51,1079.03 1800.2,1079.9 1800.89,1080.77 1801.59,1081.64 1802.28,1082.51 1802.97,1083.38 1803.67,1084.25 1804.36,1085.12 1805.06,1085.99 
  1805.75,1086.86 1806.44,1087.73 1807.14,1088.6 1807.83,1089.47 1808.52,1090.34 1809.22,1091.21 1809.91,1092.08 1810.6,1092.95 1811.3,1093.82 1811.99,1094.68 
  1812.68,1095.55 1813.38,1096.42 1814.07,1097.29 1814.77,1098.16 1815.46,1099.03 1816.15,1099.9 1816.85,1100.77 1817.54,1101.63 1818.23,1102.5 1818.93,1103.37 
  1819.62,1104.24 1820.31,1105.11 1821.01,1105.97 1821.7,1106.84 1822.4,1107.71 1823.09,1108.58 1823.78,1109.44 1824.66,1110.54 1825.35,1111.41 1826.04,1112.27 
  1826.74,1113.14 1827.43,1114.01 1828.13,1114.88 1828.82,1115.74 1829.51,1116.61 1830.21,1117.48 1830.9,1118.35 1831.59,1119.21 1832.29,1120.08 1832.98,1120.95 
  1833.67,1121.82 1834.37,1122.68 1835.06,1123.55 1835.76,1124.42 1836.45,1125.29 1837.14,1126.15 1837.84,1127.02 1838.53,1127.89 1839.22,1128.75 1839.92,1129.62 
  1840.61,1130.49 1841.3,1131.36 1842,1132.22 1842.69,1133.09 1843.39,1133.96 1844.08,1134.82 1844.77,1135.69 1845.47,1136.56 1846.16,1137.42 1846.85,1138.29 
  1847.55,1139.16 1848.24,1140.02 1848.93,1140.89 1849.63,1141.76 1850.32,1142.62 1851.01,1143.49 1851.71,1144.35 1852.4,1145.22 1853.1,1146.09 1853.79,1146.95 
  1854.48,1147.82 1855.18,1148.68 1855.87,1149.55 1856.56,1150.41 1857.26,1151.28 1857.95,1152.15 1858.64,1153.01 1859.34,1153.88 1860.03,1154.74 1860.73,1155.61 
  1861.42,1156.47 1862.11,1157.34 1862.81,1158.2 1863.5,1159.07 1864.19,1159.93 1864.89,1160.8 1865.58,1161.66 1866.27,1162.52 1866.97,1163.39 1867.66,1164.25 
  1868.36,1165.12 1869.05,1165.98 1869.74,1166.84 1870.44,1167.71 1871.13,1168.57 1871.82,1169.44 1872.52,1170.3 1873.21,1171.16 1873.9,1172.03 1874.6,1172.89 
  1875.29,1173.75 1875.99,1174.62 1876.68,1175.48 1877.37,1176.34 1878.07,1177.21 1878.76,1178.07 1879.45,1178.93 1880.15,1179.79 1880.84,1180.66 1881.53,1181.52 
  1882.23,1182.38 1882.92,1183.24 1883.61,1184.11 1884.31,1184.97 1885,1185.83 1885.7,1186.69 1886.39,1187.55 1887.08,1188.41 1887.78,1189.28 1888.29,1189.91 
  1888.98,1190.77 1889.68,1191.63 1890.37,1192.5 1891.06,1193.36 1891.76,1194.22 1892.45,1195.08 1893.14,1195.94 1893.84,1196.8 1894.53,1197.66 1895.23,1198.52 
  1895.92,1199.38 1896.61,1200.24 1897.31,1201.1 1898,1201.96 1898.69,1202.82 1899.39,1203.67 1900.08,1204.53 1900.77,1205.39 1901.47,1206.25 1902.16,1207.11 
  1902.86,1207.97 1903.55,1208.83 1904.24,1209.68 1904.94,1210.54 1905.63,1211.4 1906.32,1212.26 1907.02,1213.12 1907.71,1213.97 1908.4,1214.83 1909.1,1215.69 
  1909.79,1216.54 1910.49,1217.4 1911.18,1218.26 1911.87,1219.11 1912.57,1219.97 1913.26,1220.83 1913.95,1221.68 1914.65,1222.54 1915.34,1223.39 1916.03,1224.25 
  1916.73,1225.11 1917.42,1225.96 1918.11,1226.82 1918.81,1227.67 1919.5,1228.53 1920.2,1229.38 1920.89,1230.24 1921.58,1231.09 1922.28,1231.94 1922.97,1232.8 
  1923.66,1233.65 1924.36,1234.51 1925.05,1235.36 1925.74,1236.21 1926.44,1237.07 1927.13,1237.92 1927.83,1238.77 1928.52,1239.63 1929.21,1240.48 1929.91,1241.33 
  1930.6,1242.18 1931.29,1243.04 1931.99,1243.89 1932.68,1244.74 1933.37,1245.59 1934.07,1246.44 1934.76,1247.29 1935.46,1248.14 1936.15,1248.99 1936.84,1249.85 
  1937.54,1250.7 1938.23,1251.55 1938.92,1252.4 1939.62,1253.25 1940.31,1254.1 1941,1254.95 1941.7,1255.8 1942.39,1256.64 1943.09,1257.49 1943.78,1258.34 
  1944.47,1259.19 1945.17,1260.04 1945.86,1260.89 1946.55,1261.74 1947.25,1262.58 1947.94,1263.43 1948.63,1264.28 1949.33,1265.13 1950.02,1265.97 1950.71,1266.82 
  1951.41,1267.67 1952.1,1268.51 1952.8,1269.36 1953.49,1270.2 1954.18,1271.05 1954.88,1271.9 1955.57,1272.74 1956.26,1273.59 1956.96,1274.43 1957.65,1275.28 
  1958.34,1276.12 1959.04,1276.97 1959.73,1277.81 1960.43,1278.66 1961.12,1279.5 1961.81,1280.34 1962.51,1281.19 1963.2,1282.03 1963.89,1282.87 1964.59,1283.72 
  1965.28,1284.56 1965.97,1285.4 1966.67,1286.25 1967.36,1287.09 1968.06,1287.93 1968.75,1288.77 1969.44,1289.61 1970.14,1290.46 1970.83,1291.3 1971.52,1292.14 
  1972.22,1292.98 1972.91,1293.82 1973.6,1294.66 1974.3,1295.5 1974.99,1296.34 1975.69,1297.18 1976.38,1298.02 1977.07,1298.86 1977.77,1299.7 1978.46,1300.54 
  1979.15,1301.38 1979.85,1302.22 1980.54,1303.05 1981.23,1303.89 1981.93,1304.73 1982.62,1305.57 1983.31,1306.41 1984.01,1307.24 1984.7,1308.08 1985.4,1308.92 
  1986.09,1309.75 1986.78,1310.59 1987.48,1311.43 1988.17,1312.26 1988.86,1313.1 1989.56,1313.93 1990.25,1314.76 1990.94,1315.6 1991.64,1316.43 1992.33,1317.26 
  1993.03,1318.09 1993.72,1318.91 1994.41,1319.74 1995.11,1320.56 1995.8,1321.38 1996.49,1322.2 1997.19,1323.01 1997.88,1323.82 1998.57,1324.63 1999.27,1325.44 
  1999.96,1326.24 2000.66,1327.03 2001.35,1327.82 2002.04,1328.61 2002.74,1329.4 2003.43,1330.17 2004.12,1330.95 2004.82,1331.72 2005.51,1332.48 2006.2,1333.23 
  2006.9,1333.99 2007.59,1334.73 2008.29,1335.47 2008.98,1336.2 2009.67,1336.93 2010.37,1337.65 2011.06,1338.36 2011.75,1339.07 2012.45,1339.77 2013.14,1340.47 
  2013.83,1341.15 2014.53,1341.83 2015.22,1342.51 2015.91,1343.17 2016.61,1343.83 2017.3,1344.48 2018,1345.13 2018.69,1345.77 2019.38,1346.4 2020.08,1347.02 
  2020.77,1347.64 2021.46,1348.24 2022.16,1348.85 2022.85,1349.44 2023.54,1350.03 2024.24,1350.61 2024.93,1351.18 2025.63,1351.74 2026.32,1352.3 2027.01,1352.85 
  2027.71,1353.39 2028.4,1353.92 2029.09,1354.45 2029.79,1354.97 2030.48,1355.48 2031.17,1355.98 2031.87,1356.48 2032.56,1356.97 2033.26,1357.45 2033.95,1357.92 
  2034.64,1358.39 2035.34,1358.84 2036.03,1359.29 2036.72,1359.73 2037.42,1360.17 2038.11,1360.6 2038.8,1361.02 2039.5,1361.43 2040.19,1361.83 2040.89,1362.23 
  2041.58,1362.61 2042.27,1363 2042.97,1363.37 2043.66,1363.73 2044.35,1364.09 2045.05,1364.44 2045.74,1364.78 2046.43,1365.12 2047.13,1365.44 2047.82,1365.76 
  2048.51,1366.07 2049.21,1366.37 2049.9,1366.67 2050.6,1366.96 2051.29,1367.24 2051.98,1367.51 2052.68,1367.78 2053.37,1368.03 2054.06,1368.28 2054.76,1368.53 
  2055.45,1368.76 2056.14,1368.99 2056.84,1369.22 2057.53,1369.43 2058.23,1369.64 2058.92,1369.85 2059.61,1370.05 2060.31,1370.24 2061,1370.43 2061.69,1370.61 
  2062.39,1370.79 2063.08,1370.96 2063.77,1371.13 2064.47,1371.29 2065.16,1371.45 2065.86,1371.61 2066.55,1371.76 2067.24,1371.91 2067.94,1372.06 2068.63,1372.2 
  2069.32,1372.34 2070.02,1372.48 2070.71,1372.62 2071.4,1372.75 2072.1,1372.88 2072.79,1373.01 2073.48,1373.14 2074.18,1373.27 2074.87,1373.39 2075.57,1373.52 
  2076.26,1373.64 2076.95,1373.76 2077.65,1373.88 2078.34,1373.99 2079.03,1374.11 2079.73,1374.22 2080.42,1374.33 2081.11,1374.44 2081.81,1374.55 2082.5,1374.66 
  2083.2,1374.76 2083.89,1374.87 2084.58,1374.97 2085.28,1375.07 2085.97,1375.17 2086.66,1375.27 2087.36,1375.37 2088.05,1375.46 2088.74,1375.56 2089.44,1375.65 
  2090.13,1375.74 2090.83,1375.84 2091.52,1375.93 2092.21,1376.02 2092.91,1376.11 2093.6,1376.2 2094.29,1376.29 2094.99,1376.37 2095.68,1376.46 2096.37,1376.55 
  2097.07,1376.63 2097.76,1376.72 2098.46,1376.8 2099.15,1376.89 2099.84,1376.97 2100.54,1377.05 2101.23,1377.13 2101.92,1377.22 2102.62,1377.3 2103.31,1377.38 
  2104,1377.46 2104.7,1377.54 2105.39,1377.62 2106.08,1377.7 2106.78,1377.78 2107.47,1377.85 2108.17,1377.93 2108.86,1378.01 2109.55,1378.09 2110.25,1378.16 
  2110.94,1378.24 2111.63,1378.31 2112.33,1378.39 2113.02,1378.46 2113.71,1378.54 2114.41,1378.61 2115.1,1378.69 2115.8,1378.76 2116.49,1378.83 2117.18,1378.91 
  2117.88,1378.98 2118.57,1379.05 2119.26,1379.12 2119.96,1379.19 2120.65,1379.26 2121.34,1379.34 2122.04,1379.41 2122.73,1379.48 2123.43,1379.55 2124.12,1379.61 
  2124.81,1379.68 2125.51,1379.75 2126.2,1379.82 2126.89,1379.89 2127.59,1379.96 2128.28,1380.02 2128.97,1380.09 2129.67,1380.16 2130.36,1380.22 2131.06,1380.29 
  2131.75,1380.35 2132.44,1380.42 2133.14,1380.48 2133.83,1380.55 2134.52,1380.61 2135.22,1380.68 2135.91,1380.74 2136.6,1380.8 2137.3,1380.87 2137.99,1380.93 
  2138.68,1380.99 2139.38,1381.05 2140.07,1381.11 2140.77,1381.17 2141.46,1381.24 2142.15,1381.3 2142.85,1381.36 2143.54,1381.42 2144.23,1381.48 2144.93,1381.53 
  2145.62,1381.59 2146.31,1381.65 2147.01,1381.71 2147.7,1381.77 2148.4,1381.82 2149.09,1381.88 2149.78,1381.94 2150.48,1381.99 2151.17,1382.05 2151.86,1382.11 
  2152.56,1382.16 2153.25,1382.22 2153.94,1382.27 2154.64,1382.33 2155.33,1382.38 2156.03,1382.43 2156.72,1382.49 2157.41,1382.54 2158.11,1382.59 2158.8,1382.64 
  2159.49,1382.7 2160.19,1382.75 2160.88,1382.8 2161.57,1382.85 2162.27,1382.9 2162.96,1382.95 2163.66,1383 2164.35,1383.05 2165.04,1383.1 2165.74,1383.15 
  2166.43,1383.2 2167.12,1383.25 2167.82,1383.29 2168.51,1383.34 2169.2,1383.39 2169.9,1383.44 2170.59,1383.48 2171.28,1383.53 2171.98,1383.57 2172.67,1383.62 
  2173.37,1383.66 2174.06,1383.71 2174.75,1383.75 2175.45,1383.8 2176.14,1383.84 2176.83,1383.88 2177.53,1383.93 2178.22,1383.97 2178.91,1384.01 2179.61,1384.05 
  2180.3,1384.1 2181,1384.14 2181.69,1384.18 2182.38,1384.22 2183.08,1384.26 2183.77,1384.3 2184.46,1384.34 2185.16,1384.38 2185.85,1384.42 2186.54,1384.45 
  2187.24,1384.49 2187.93,1384.53 2188.63,1384.57 2189.32,1384.6 2190.01,1384.64 2190.71,1384.68 2191.4,1384.71 2192.09,1384.75 2192.79,1384.78 2193.48,1384.82 
  2194.17,1384.85 2194.87,1384.89 2195.56,1384.92 2196.25,1384.95 2196.95,1384.99 2197.64,1385.02 2198.34,1385.05 2199.03,1385.08 2199.72,1385.12 2200.42,1385.15 
  2201.11,1385.18 2201.8,1385.21 2202.5,1385.24 2203.19,1385.27 2203.88,1385.3 2204.58,1385.32 2205.27,1385.35 2205.97,1385.38 2206.66,1385.41 2207.35,1385.44 
  2208.05,1385.46 2208.74,1385.49 2209.43,1385.52 2210.13,1385.54 2210.82,1385.57 2211.51,1385.59 2212.21,1385.62 2212.9,1385.64 2213.6,1385.67 2214.29,1385.69 
  2214.98,1385.71 2215.68,1385.74 2216.37,1385.76 2217.06,1385.78 2217.76,1385.8 2218.45,1385.82 2219.14,1385.84 2219.84,1385.86 2220.53,1385.88 2221.23,1385.9 
  2221.92,1385.92 2222.61,1385.94 2223.31,1385.96 2224,1385.98 2224.69,1386 2225.39,1386.01 2226.08,1386.03 2226.77,1386.05 2227.47,1386.06 2228.16,1386.08 
  2228.85,1386.1 2229.55,1386.11 2230.24,1386.13 2230.94,1386.14 2231.63,1386.15 2232.32,1386.17 2233.02,1386.18 2233.71,1386.19 2234.4,1386.21 2235.1,1386.22 
  2235.79,1386.23 2236.48,1386.24 2237.18,1386.25 2237.87,1386.26 2238.57,1386.27 2239.26,1386.28 2239.95,1386.29 2240.65,1386.3 2241.34,1386.31 2242.03,1386.32 
  2242.73,1386.33 2243.42,1386.33 2244.11,1386.34 2244.81,1386.35 2245.5,1386.35 2246.2,1386.36 2246.89,1386.36 2247.58,1386.37 2248.28,1386.37 2248.97,1386.38 
  2249.66,1386.38 2250.36,1386.38 2251.05,1386.39 2251.74,1386.39 2252.44,1386.39 2253.13,1386.39 2253.82,1386.39 2254.52,1386.4 2255.21,1386.4 2255.91,1386.4 
  2256.6,1386.4 2257.29,1386.39 2257.99,1386.39 2258.68,1386.39 2259.37,1386.39 2260.07,1386.39 2260.76,1386.38 2261.45,1386.38 2262.15,1386.38 2262.84,1386.37 
  2263.54,1386.37 2264.23,1386.36 2264.92,1386.36 2265.62,1386.35 2266.31,1386.35 2267,1386.34 2267.7,1386.33 2268.39,1386.33 2269.08,1386.32 2269.78,1386.31 
  2270.47,1386.3 2271.17,1386.29 2271.86,1386.28 2272.55,1386.28 2273.25,1386.26 2273.94,1386.25 2274.63,1386.24 2275.33,1386.23 2276.02,1386.22 2276.71,1386.21 
  2277.41,1386.2 2278.1,1386.18 2278.8,1386.17 2279.49,1386.16 2280.18,1386.14 2280.88,1386.13 2281.57,1386.11 2282.26,1386.1 2282.96,1386.08 2283.65,1386.06 
  2284.34,1386.05 2285.04,1386.03 2285.73,1386.01 2286.42,1385.99 2287.12,1385.97 2287.81,1385.95 2288.51,1385.94 2289.2,1385.92 2289.89,1385.89 2290.59,1385.87 
  2291.28,1385.85 2291.97,1385.83 
  "/>
<polyline clip-path="url(#clip012)" style="stroke:#e26f46; stroke-linecap:butt; stroke-linejoin:round; stroke-width:4; stroke-opacity:1; fill:none" points="
  267.24,1233.49 285.634,1328.18 304.027,1191.35 322.422,1210.63 340.815,1215.56 359.209,1233.04 377.603,1214.66 395.997,1219.3 414.391,1215.11 432.785,1212.72 
  451.179,1205.39 469.572,1221.53 487.966,1204.19 506.36,1208.69 524.754,1201.36 543.148,1243.5 561.542,1195.83 579.936,1205.84 598.33,1200.02 616.723,1208.69 
  635.117,1208.69 653.511,1216.31 671.905,1243.5 690.299,1224.97 708.693,1208.69 727.087,1196.28 745.481,1170.73 763.874,1141.72 782.268,1150.99 800.662,1083.42 
  819.056,1070.7 837.45,1015.34 855.844,988.121 874.238,944.258 892.631,923.748 911.025,870.448 929.419,840.492 947.813,782.21 966.207,778.464 984.601,756.138 
  1002.99,702.471 1021.39,644.736 1039.78,639.185 1058.18,615.791 1076.57,553.069 1094.96,540.611 1113.36,496.626 1131.75,464.044 1150.15,418.24 1168.54,388.642 
  1186.93,351.98 1205.33,334.251 1223.72,289.303 1242.12,260.583 1260.51,215.922 1278.9,194.71 1297.3,207.645 1315.69,203.289 1334.08,206.447 1352.48,177.109 
  1370.87,190.949 1389.27,160.256 1407.66,208.849 1426.05,182.377 1444.45,183.581 1462.84,176.059 1482.7,230.206 1484.54,220.585 1486.38,210.509 1504.77,198.607 
  1523.17,226.724 1541.56,231.263 1559.95,260.282 1578.35,303.588 1596.74,378.577 1615.14,349.126 1633.53,418.687 1651.92,434.463 1670.32,447.377 1688.71,520.199 
  1707.11,544.063 1725.5,569.124 1743.89,606.634 1762.29,653.136 1780.68,716.863 1799.08,723.759 1817.47,769.924 1835.86,790.602 1854.26,834.502 1872.65,867.303 
  1891.04,895.309 1909.44,934.829 1927.83,972.849 1946.23,1022.83 1964.62,1032.1 1983.01,1068.01 2001.41,1106.29 2019.8,1169.08 2038.2,1170.73 2056.59,1230.8 
  2074.98,1228.56 2093.38,1236.03 2111.77,1214.22 2130.16,1224.97 2148.56,1221.84 2166.95,1236.32 2185.35,1248.13 2203.74,1227.66 2222.13,1205.7 2240.53,1219.74 
  2258.92,1215.71 2277.32,1205.24 
  "/>
<path clip-path="url(#clip010)" d="
M1510.21 322.316 L2281.17 322.316 L2281.17 166.796 L1510.21 166.796  Z
  " fill="#ffffff" fill-rule="evenodd" fill-opacity="1"/>
<polyline clip-path="url(#clip010)" style="stroke:#000000; stroke-linecap:butt; stroke-linejoin:round; stroke-width:4; stroke-opacity:1; fill:none" points="
  1510.21,322.316 2281.17,322.316 2281.17,166.796 1510.21,166.796 1510.21,322.316 
  "/>
<polyline clip-path="url(#clip010)" style="stroke:#009af9; stroke-linecap:butt; stroke-linejoin:round; stroke-width:4; stroke-opacity:1; fill:none" points="
  1534.07,218.636 1677.25,218.636 
  "/>
<path clip-path="url(#clip010)" d="M1721.62 210.985 L1721.62 214.967 Q1719.81 213.971 1717.98 213.485 Q1716.18 212.976 1714.33 212.976 Q1710.18 212.976 1707.89 215.615 Q1705.6 218.231 1705.6 222.976 Q1705.6 227.721 1707.89 230.36 Q1710.18 232.976 1714.33 232.976 Q1716.18 232.976 1717.98 232.49 Q1719.81 231.981 1721.62 230.985 L1721.62 234.92 Q1719.83 235.754 1717.91 236.17 Q1716.02 236.587 1713.86 236.587 Q1708.01 236.587 1704.56 232.906 Q1701.11 229.226 1701.11 222.976 Q1701.11 216.633 1704.58 212.999 Q1708.08 209.365 1714.14 209.365 Q1716.11 209.365 1717.98 209.782 Q1719.86 210.175 1721.62 210.985 Z" fill="#000000" fill-rule="evenodd" fill-opacity="1" /><path clip-path="url(#clip010)" d="M1740.81 222.883 Q1735.64 222.883 1733.65 224.064 Q1731.66 225.244 1731.66 228.092 Q1731.66 230.36 1733.14 231.703 Q1734.65 233.022 1737.22 233.022 Q1740.76 233.022 1742.89 230.522 Q1745.04 227.999 1745.04 223.832 L1745.04 222.883 L1740.81 222.883 M1749.3 221.124 L1749.3 235.916 L1745.04 235.916 L1745.04 231.981 Q1743.58 234.342 1741.41 235.476 Q1739.23 236.587 1736.08 236.587 Q1732.1 236.587 1729.74 234.365 Q1727.4 232.119 1727.4 228.369 Q1727.4 223.994 1730.32 221.772 Q1733.26 219.55 1739.07 219.55 L1745.04 219.55 L1745.04 219.133 Q1745.04 216.194 1743.1 214.596 Q1741.18 212.976 1737.68 212.976 Q1735.46 212.976 1733.35 213.508 Q1731.25 214.041 1729.3 215.106 L1729.3 211.17 Q1731.64 210.268 1733.84 209.828 Q1736.04 209.365 1738.12 209.365 Q1743.75 209.365 1746.52 212.282 Q1749.3 215.198 1749.3 221.124 Z" fill="#000000" fill-rule="evenodd" fill-opacity="1" /><path clip-path="url(#clip010)" d="M1758.08 199.897 L1762.33 199.897 L1762.33 235.916 L1758.08 235.916 L1758.08 199.897 Z" fill="#000000" fill-rule="evenodd" fill-opacity="1" /><path clip-path="url(#clip010)" d="M1789.9 210.985 L1789.9 214.967 Q1788.1 213.971 1786.27 213.485 Q1784.46 212.976 1782.61 212.976 Q1778.47 212.976 1776.18 215.615 Q1773.89 218.231 1773.89 222.976 Q1773.89 227.721 1776.18 230.36 Q1778.47 232.976 1782.61 232.976 Q1784.46 232.976 1786.27 232.49 Q1788.1 231.981 1789.9 230.985 L1789.9 234.92 Q1788.12 235.754 1786.2 236.17 Q1784.3 236.587 1782.15 236.587 Q1776.29 236.587 1772.84 232.906 Q1769.39 229.226 1769.39 222.976 Q1769.39 216.633 1772.87 212.999 Q1776.36 209.365 1782.43 209.365 Q1784.39 209.365 1786.27 209.782 Q1788.14 210.175 1789.9 210.985 Z" fill="#000000" fill-rule="evenodd" fill-opacity="1" /><path clip-path="url(#clip010)" d="M1796.87 225.684 L1796.87 209.99 L1801.13 209.99 L1801.13 225.522 Q1801.13 229.203 1802.57 231.055 Q1804 232.883 1806.87 232.883 Q1810.32 232.883 1812.31 230.684 Q1814.32 228.485 1814.32 224.689 L1814.32 209.99 L1818.58 209.99 L1818.58 235.916 L1814.32 235.916 L1814.32 231.934 Q1812.77 234.295 1810.71 235.453 Q1808.68 236.587 1805.97 236.587 Q1801.5 236.587 1799.19 233.809 Q1796.87 231.031 1796.87 225.684 M1807.59 209.365 L1807.59 209.365 Z" fill="#000000" fill-rule="evenodd" fill-opacity="1" /><path clip-path="url(#clip010)" d="M1827.36 199.897 L1831.62 199.897 L1831.62 235.916 L1827.36 235.916 L1827.36 199.897 Z" fill="#000000" fill-rule="evenodd" fill-opacity="1" /><path clip-path="url(#clip010)" d="M1852.31 222.883 Q1847.15 222.883 1845.16 224.064 Q1843.17 225.244 1843.17 228.092 Q1843.17 230.36 1844.65 231.703 Q1846.15 233.022 1848.72 233.022 Q1852.26 233.022 1854.39 230.522 Q1856.55 227.999 1856.55 223.832 L1856.55 222.883 L1852.31 222.883 M1860.81 221.124 L1860.81 235.916 L1856.55 235.916 L1856.55 231.981 Q1855.09 234.342 1852.91 235.476 Q1850.74 236.587 1847.59 236.587 Q1843.61 236.587 1841.25 234.365 Q1838.91 232.119 1838.91 228.369 Q1838.91 223.994 1841.82 221.772 Q1844.76 219.55 1850.57 219.55 L1856.55 219.55 L1856.55 219.133 Q1856.55 216.194 1854.6 214.596 Q1852.68 212.976 1849.19 212.976 Q1846.96 212.976 1844.86 213.508 Q1842.75 214.041 1840.81 215.106 L1840.81 211.17 Q1843.14 210.268 1845.34 209.828 Q1847.54 209.365 1849.63 209.365 Q1855.25 209.365 1858.03 212.282 Q1860.81 215.198 1860.81 221.124 Z" fill="#000000" fill-rule="evenodd" fill-opacity="1" /><path clip-path="url(#clip010)" d="M1873.79 202.629 L1873.79 209.99 L1882.57 209.99 L1882.57 213.3 L1873.79 213.3 L1873.79 227.374 Q1873.79 230.545 1874.65 231.448 Q1875.53 232.351 1878.19 232.351 L1882.57 232.351 L1882.57 235.916 L1878.19 235.916 Q1873.26 235.916 1871.38 234.087 Q1869.51 232.235 1869.51 227.374 L1869.51 213.3 L1866.38 213.3 L1866.38 209.99 L1869.51 209.99 L1869.51 202.629 L1873.79 202.629 Z" fill="#000000" fill-rule="evenodd" fill-opacity="1" /><path clip-path="url(#clip010)" d="M1910.34 221.888 L1910.34 223.971 L1890.76 223.971 Q1891.04 228.369 1893.4 230.684 Q1895.78 232.976 1900.02 232.976 Q1902.47 232.976 1904.76 232.374 Q1907.08 231.772 1909.35 230.569 L1909.35 234.596 Q1907.06 235.568 1904.65 236.078 Q1902.24 236.587 1899.76 236.587 Q1893.56 236.587 1889.93 232.976 Q1886.32 229.365 1886.32 223.207 Q1886.32 216.842 1889.74 213.115 Q1893.19 209.365 1899.02 209.365 Q1904.25 209.365 1907.29 212.745 Q1910.34 216.101 1910.34 221.888 M1906.08 220.638 Q1906.04 217.143 1904.12 215.059 Q1902.22 212.976 1899.07 212.976 Q1895.5 212.976 1893.35 214.99 Q1891.22 217.004 1890.9 220.661 L1906.08 220.638 Z" fill="#000000" fill-rule="evenodd" fill-opacity="1" /><path clip-path="url(#clip010)" d="M1934.39 213.925 L1934.39 199.897 L1938.65 199.897 L1938.65 235.916 L1934.39 235.916 L1934.39 232.027 Q1933.05 234.342 1930.99 235.476 Q1928.95 236.587 1926.08 236.587 Q1921.38 236.587 1918.42 232.837 Q1915.48 229.087 1915.48 222.976 Q1915.48 216.865 1918.42 213.115 Q1921.38 209.365 1926.08 209.365 Q1928.95 209.365 1930.99 210.499 Q1933.05 211.61 1934.39 213.925 M1919.88 222.976 Q1919.88 227.675 1921.8 230.36 Q1923.75 233.022 1927.13 233.022 Q1930.5 233.022 1932.45 230.36 Q1934.39 227.675 1934.39 222.976 Q1934.39 218.277 1932.45 215.615 Q1930.5 212.93 1927.13 212.93 Q1923.75 212.93 1921.8 215.615 Q1919.88 218.277 1919.88 222.976 Z" fill="#000000" fill-rule="evenodd" fill-opacity="1" /><path clip-path="url(#clip010)" d="M1966.62 232.027 L1966.62 245.777 L1962.33 245.777 L1962.33 209.99 L1966.62 209.99 L1966.62 213.925 Q1967.96 211.61 1970 210.499 Q1972.06 209.365 1974.9 209.365 Q1979.62 209.365 1982.56 213.115 Q1985.53 216.865 1985.53 222.976 Q1985.53 229.087 1982.56 232.837 Q1979.62 236.587 1974.9 236.587 Q1972.06 236.587 1970 235.476 Q1967.96 234.342 1966.62 232.027 M1981.11 222.976 Q1981.11 218.277 1979.16 215.615 Q1977.24 212.93 1973.86 212.93 Q1970.48 212.93 1968.54 215.615 Q1966.62 218.277 1966.62 222.976 Q1966.62 227.675 1968.54 230.36 Q1970.48 233.022 1973.86 233.022 Q1977.24 233.022 1979.16 230.36 Q1981.11 227.675 1981.11 222.976 Z" fill="#000000" fill-rule="evenodd" fill-opacity="1" /><path clip-path="url(#clip010)" d="M2002.63 212.976 Q1999.21 212.976 1997.22 215.661 Q1995.23 218.323 1995.23 222.976 Q1995.23 227.629 1997.19 230.314 Q1999.18 232.976 2002.63 232.976 Q2006.04 232.976 2008.03 230.291 Q2010.02 227.606 2010.02 222.976 Q2010.02 218.37 2008.03 215.684 Q2006.04 212.976 2002.63 212.976 M2002.63 209.365 Q2008.19 209.365 2011.36 212.976 Q2014.53 216.587 2014.53 222.976 Q2014.53 229.342 2011.36 232.976 Q2008.19 236.587 2002.63 236.587 Q1997.06 236.587 1993.88 232.976 Q1990.74 229.342 1990.74 222.976 Q1990.74 216.587 1993.88 212.976 Q1997.06 209.365 2002.63 209.365 Z" fill="#000000" fill-rule="evenodd" fill-opacity="1" /><path clip-path="url(#clip010)" d="M2038.12 210.754 L2038.12 214.782 Q2036.31 213.856 2034.37 213.393 Q2032.43 212.93 2030.34 212.93 Q2027.17 212.93 2025.57 213.902 Q2024 214.874 2024 216.819 Q2024 218.3 2025.13 219.157 Q2026.27 219.99 2029.69 220.754 L2031.15 221.078 Q2035.69 222.05 2037.59 223.832 Q2039.51 225.592 2039.51 228.763 Q2039.51 232.374 2036.64 234.481 Q2033.79 236.587 2028.79 236.587 Q2026.71 236.587 2024.44 236.17 Q2022.19 235.777 2019.69 234.967 L2019.69 230.569 Q2022.06 231.795 2024.35 232.42 Q2026.64 233.022 2028.88 233.022 Q2031.89 233.022 2033.51 232.004 Q2035.13 230.962 2035.13 229.087 Q2035.13 227.351 2033.95 226.425 Q2032.8 225.499 2028.84 224.643 L2027.36 224.295 Q2023.4 223.462 2021.64 221.749 Q2019.88 220.013 2019.88 217.004 Q2019.88 213.346 2022.47 211.356 Q2025.06 209.365 2029.83 209.365 Q2032.19 209.365 2034.28 209.712 Q2036.36 210.059 2038.12 210.754 Z" fill="#000000" fill-rule="evenodd" fill-opacity="1" /><path clip-path="url(#clip010)" d="M2046.29 209.99 L2050.55 209.99 L2050.55 235.916 L2046.29 235.916 L2046.29 209.99 M2046.29 199.897 L2050.55 199.897 L2050.55 205.291 L2046.29 205.291 L2046.29 199.897 Z" fill="#000000" fill-rule="evenodd" fill-opacity="1" /><path clip-path="url(#clip010)" d="M2063.68 202.629 L2063.68 209.99 L2072.45 209.99 L2072.45 213.3 L2063.68 213.3 L2063.68 227.374 Q2063.68 230.545 2064.53 231.448 Q2065.41 232.351 2068.07 232.351 L2072.45 232.351 L2072.45 235.916 L2068.07 235.916 Q2063.14 235.916 2061.27 234.087 Q2059.39 232.235 2059.39 227.374 L2059.39 213.3 L2056.27 213.3 L2056.27 209.99 L2059.39 209.99 L2059.39 202.629 L2063.68 202.629 Z" fill="#000000" fill-rule="evenodd" fill-opacity="1" /><path clip-path="url(#clip010)" d="M2078.05 209.99 L2082.31 209.99 L2082.31 235.916 L2078.05 235.916 L2078.05 209.99 M2078.05 199.897 L2082.31 199.897 L2082.31 205.291 L2078.05 205.291 L2078.05 199.897 Z" fill="#000000" fill-rule="evenodd" fill-opacity="1" /><path clip-path="url(#clip010)" d="M2101.27 212.976 Q2097.84 212.976 2095.85 215.661 Q2093.86 218.323 2093.86 222.976 Q2093.86 227.629 2095.83 230.314 Q2097.82 232.976 2101.27 232.976 Q2104.67 232.976 2106.66 230.291 Q2108.65 227.606 2108.65 222.976 Q2108.65 218.37 2106.66 215.684 Q2104.67 212.976 2101.27 212.976 M2101.27 209.365 Q2106.82 209.365 2109.99 212.976 Q2113.17 216.587 2113.17 222.976 Q2113.17 229.342 2109.99 232.976 Q2106.82 236.587 2101.27 236.587 Q2095.69 236.587 2092.52 232.976 Q2089.37 229.342 2089.37 222.976 Q2089.37 216.587 2092.52 212.976 Q2095.69 209.365 2101.27 209.365 Z" fill="#000000" fill-rule="evenodd" fill-opacity="1" /><path clip-path="url(#clip010)" d="M2141.78 220.268 L2141.78 235.916 L2137.52 235.916 L2137.52 220.407 Q2137.52 216.726 2136.08 214.897 Q2134.65 213.069 2131.78 213.069 Q2128.33 213.069 2126.34 215.268 Q2124.35 217.467 2124.35 221.263 L2124.35 235.916 L2120.06 235.916 L2120.06 209.99 L2124.35 209.99 L2124.35 214.018 Q2125.87 211.68 2127.93 210.522 Q2130.02 209.365 2132.73 209.365 Q2137.19 209.365 2139.49 212.143 Q2141.78 214.897 2141.78 220.268 Z" fill="#000000" fill-rule="evenodd" fill-opacity="1" /><polyline clip-path="url(#clip010)" style="stroke:#e26f46; stroke-linecap:butt; stroke-linejoin:round; stroke-width:4; stroke-opacity:1; fill:none" points="
  1534.07,270.476 1677.25,270.476 
  "/>
<path clip-path="url(#clip010)" d="M1714.51 274.723 Q1709.35 274.723 1707.36 275.904 Q1705.37 277.084 1705.37 279.932 Q1705.37 282.2 1706.85 283.543 Q1708.35 284.862 1710.92 284.862 Q1714.46 284.862 1716.59 282.362 Q1718.75 279.839 1718.75 275.672 L1718.75 274.723 L1714.51 274.723 M1723.01 272.964 L1723.01 287.756 L1718.75 287.756 L1718.75 283.821 Q1717.29 286.182 1715.11 287.316 Q1712.94 288.427 1709.79 288.427 Q1705.81 288.427 1703.45 286.205 Q1701.11 283.959 1701.11 280.209 Q1701.11 275.834 1704.02 273.612 Q1706.96 271.39 1712.77 271.39 L1718.75 271.39 L1718.75 270.973 Q1718.75 268.034 1716.8 266.436 Q1714.88 264.816 1711.39 264.816 Q1709.16 264.816 1707.06 265.348 Q1704.95 265.881 1703.01 266.946 L1703.01 263.01 Q1705.34 262.108 1707.54 261.668 Q1709.74 261.205 1711.83 261.205 Q1717.45 261.205 1720.23 264.122 Q1723.01 267.038 1723.01 272.964 Z" fill="#000000" fill-rule="evenodd" fill-opacity="1" /><path clip-path="url(#clip010)" d="M1731.78 251.737 L1736.04 251.737 L1736.04 287.756 L1731.78 287.756 L1731.78 251.737 Z" fill="#000000" fill-rule="evenodd" fill-opacity="1" /><path clip-path="url(#clip010)" d="M1749.16 254.469 L1749.16 261.83 L1757.94 261.83 L1757.94 265.14 L1749.16 265.14 L1749.16 279.214 Q1749.16 282.385 1750.02 283.288 Q1750.9 284.191 1753.56 284.191 L1757.94 284.191 L1757.94 287.756 L1753.56 287.756 Q1748.63 287.756 1746.76 285.927 Q1744.88 284.075 1744.88 279.214 L1744.88 265.14 L1741.76 265.14 L1741.76 261.83 L1744.88 261.83 L1744.88 254.469 L1749.16 254.469 Z" fill="#000000" fill-rule="evenodd" fill-opacity="1" /><path clip-path="url(#clip010)" d="M1763.54 261.83 L1767.8 261.83 L1767.8 287.756 L1763.54 287.756 L1763.54 261.83 M1763.54 251.737 L1767.8 251.737 L1767.8 257.131 L1763.54 257.131 L1763.54 251.737 Z" fill="#000000" fill-rule="evenodd" fill-opacity="1" /><path clip-path="url(#clip010)" d="M1780.92 254.469 L1780.92 261.83 L1789.7 261.83 L1789.7 265.14 L1780.92 265.14 L1780.92 279.214 Q1780.92 282.385 1781.78 283.288 Q1782.66 284.191 1785.32 284.191 L1789.7 284.191 L1789.7 287.756 L1785.32 287.756 Q1780.39 287.756 1778.51 285.927 Q1776.64 284.075 1776.64 279.214 L1776.64 265.14 L1773.51 265.14 L1773.51 261.83 L1776.64 261.83 L1776.64 254.469 L1780.92 254.469 Z" fill="#000000" fill-rule="evenodd" fill-opacity="1" /><path clip-path="url(#clip010)" d="M1794.86 277.524 L1794.86 261.83 L1799.12 261.83 L1799.12 277.362 Q1799.12 281.043 1800.55 282.895 Q1801.99 284.723 1804.86 284.723 Q1808.31 284.723 1810.3 282.524 Q1812.31 280.325 1812.31 276.529 L1812.31 261.83 L1816.57 261.83 L1816.57 287.756 L1812.31 287.756 L1812.31 283.774 Q1810.76 286.135 1808.7 287.293 Q1806.66 288.427 1803.95 288.427 Q1799.49 288.427 1797.17 285.649 Q1794.86 282.871 1794.86 277.524 M1805.57 261.205 L1805.57 261.205 Z" fill="#000000" fill-rule="evenodd" fill-opacity="1" /><path clip-path="url(#clip010)" d="M1842.4 265.765 L1842.4 251.737 L1846.66 251.737 L1846.66 287.756 L1842.4 287.756 L1842.4 283.867 Q1841.06 286.182 1839 287.316 Q1836.96 288.427 1834.09 288.427 Q1829.39 288.427 1826.43 284.677 Q1823.49 280.927 1823.49 274.816 Q1823.49 268.705 1826.43 264.955 Q1829.39 261.205 1834.09 261.205 Q1836.96 261.205 1839 262.339 Q1841.06 263.45 1842.4 265.765 M1827.89 274.816 Q1827.89 279.515 1829.81 282.2 Q1831.76 284.862 1835.13 284.862 Q1838.51 284.862 1840.46 282.2 Q1842.4 279.515 1842.4 274.816 Q1842.4 270.117 1840.46 267.455 Q1838.51 264.77 1835.13 264.77 Q1831.76 264.77 1829.81 267.455 Q1827.89 270.117 1827.89 274.816 Z" fill="#000000" fill-rule="evenodd" fill-opacity="1" /><path clip-path="url(#clip010)" d="M1877.61 273.728 L1877.61 275.811 L1858.03 275.811 Q1858.31 280.209 1860.67 282.524 Q1863.05 284.816 1867.29 284.816 Q1869.74 284.816 1872.03 284.214 Q1874.35 283.612 1876.62 282.409 L1876.62 286.436 Q1874.32 287.408 1871.92 287.918 Q1869.51 288.427 1867.03 288.427 Q1860.83 288.427 1857.19 284.816 Q1853.58 281.205 1853.58 275.047 Q1853.58 268.682 1857.01 264.955 Q1860.46 261.205 1866.29 261.205 Q1871.52 261.205 1874.56 264.585 Q1877.61 267.941 1877.61 273.728 M1873.35 272.478 Q1873.31 268.983 1871.38 266.899 Q1869.49 264.816 1866.34 264.816 Q1862.77 264.816 1860.62 266.83 Q1858.49 268.844 1858.17 272.501 L1873.35 272.478 Z" fill="#000000" fill-rule="evenodd" fill-opacity="1" /><path clip-path="url(#clip010)" d="M1904.3 295.626 L1904.3 298.936 L1879.67 298.936 L1879.67 295.626 L1904.3 295.626 Z" fill="#000000" fill-rule="evenodd" fill-opacity="1" /><path clip-path="url(#clip010)" d="M1928.49 266.807 Q1930.09 263.936 1932.31 262.571 Q1934.53 261.205 1937.54 261.205 Q1941.59 261.205 1943.79 264.052 Q1945.99 266.876 1945.99 272.108 L1945.99 287.756 L1941.71 287.756 L1941.71 272.247 Q1941.71 268.52 1940.39 266.714 Q1939.07 264.909 1936.36 264.909 Q1933.05 264.909 1931.13 267.108 Q1929.21 269.307 1929.21 273.103 L1929.21 287.756 L1924.93 287.756 L1924.93 272.247 Q1924.93 268.497 1923.61 266.714 Q1922.29 264.909 1919.53 264.909 Q1916.27 264.909 1914.35 267.131 Q1912.43 269.33 1912.43 273.103 L1912.43 287.756 L1908.14 287.756 L1908.14 261.83 L1912.43 261.83 L1912.43 265.858 Q1913.88 263.473 1915.92 262.339 Q1917.96 261.205 1920.76 261.205 Q1923.58 261.205 1925.55 262.64 Q1927.54 264.075 1928.49 266.807 Z" fill="#000000" fill-rule="evenodd" fill-opacity="1" /><path clip-path="url(#clip010)" d="M1976.66 273.728 L1976.66 275.811 L1957.08 275.811 Q1957.36 280.209 1959.72 282.524 Q1962.1 284.816 1966.34 284.816 Q1968.79 284.816 1971.08 284.214 Q1973.4 283.612 1975.67 282.409 L1975.67 286.436 Q1973.37 287.408 1970.97 287.918 Q1968.56 288.427 1966.08 288.427 Q1959.88 288.427 1956.25 284.816 Q1952.63 281.205 1952.63 275.047 Q1952.63 268.682 1956.06 264.955 Q1959.51 261.205 1965.34 261.205 Q1970.57 261.205 1973.61 264.585 Q1976.66 267.941 1976.66 273.728 M1972.4 272.478 Q1972.36 268.983 1970.44 266.899 Q1968.54 264.816 1965.39 264.816 Q1961.82 264.816 1959.67 266.83 Q1957.54 268.844 1957.22 272.501 L1972.4 272.478 Z" fill="#000000" fill-rule="evenodd" fill-opacity="1" /><path clip-path="url(#clip010)" d="M1995.43 274.723 Q1990.27 274.723 1988.28 275.904 Q1986.29 277.084 1986.29 279.932 Q1986.29 282.2 1987.77 283.543 Q1989.28 284.862 1991.85 284.862 Q1995.39 284.862 1997.52 282.362 Q1999.67 279.839 1999.67 275.672 L1999.67 274.723 L1995.43 274.723 M2003.93 272.964 L2003.93 287.756 L1999.67 287.756 L1999.67 283.821 Q1998.21 286.182 1996.04 287.316 Q1993.86 288.427 1990.71 288.427 Q1986.73 288.427 1984.37 286.205 Q1982.03 283.959 1982.03 280.209 Q1982.03 275.834 1984.95 273.612 Q1987.89 271.39 1993.7 271.39 L1999.67 271.39 L1999.67 270.973 Q1999.67 268.034 1997.73 266.436 Q1995.81 264.816 1992.31 264.816 Q1990.09 264.816 1987.98 265.348 Q1985.87 265.881 1983.93 266.946 L1983.93 263.01 Q1986.27 262.108 1988.47 261.668 Q1990.67 261.205 1992.75 261.205 Q1998.37 261.205 2001.15 264.122 Q2003.93 267.038 2003.93 272.964 Z" fill="#000000" fill-rule="evenodd" fill-opacity="1" /><path clip-path="url(#clip010)" d="M2029.23 262.594 L2029.23 266.622 Q2027.43 265.696 2025.48 265.233 Q2023.54 264.77 2021.45 264.77 Q2018.28 264.77 2016.68 265.742 Q2015.11 266.714 2015.11 268.659 Q2015.11 270.14 2016.24 270.997 Q2017.38 271.83 2020.81 272.594 L2022.26 272.918 Q2026.8 273.89 2028.7 275.672 Q2030.62 277.432 2030.62 280.603 Q2030.62 284.214 2027.75 286.321 Q2024.9 288.427 2019.9 288.427 Q2017.82 288.427 2015.55 288.01 Q2013.31 287.617 2010.81 286.807 L2010.81 282.409 Q2013.17 283.635 2015.46 284.26 Q2017.75 284.862 2019.99 284.862 Q2023 284.862 2024.62 283.844 Q2026.24 282.802 2026.24 280.927 Q2026.24 279.191 2025.06 278.265 Q2023.91 277.339 2019.95 276.483 L2018.47 276.135 Q2014.51 275.302 2012.75 273.589 Q2010.99 271.853 2010.99 268.844 Q2010.99 265.186 2013.58 263.196 Q2016.18 261.205 2020.94 261.205 Q2023.31 261.205 2025.39 261.552 Q2027.47 261.899 2029.23 262.594 Z" fill="#000000" fill-rule="evenodd" fill-opacity="1" /><path clip-path="url(#clip010)" d="M2036.96 277.524 L2036.96 261.83 L2041.22 261.83 L2041.22 277.362 Q2041.22 281.043 2042.66 282.895 Q2044.09 284.723 2046.96 284.723 Q2050.41 284.723 2052.4 282.524 Q2054.42 280.325 2054.42 276.529 L2054.42 261.83 L2058.68 261.83 L2058.68 287.756 L2054.42 287.756 L2054.42 283.774 Q2052.87 286.135 2050.8 287.293 Q2048.77 288.427 2046.06 288.427 Q2041.59 288.427 2039.28 285.649 Q2036.96 282.871 2036.96 277.524 M2047.68 261.205 L2047.68 261.205 Z" fill="#000000" fill-rule="evenodd" fill-opacity="1" /><path clip-path="url(#clip010)" d="M2082.47 265.811 Q2081.75 265.395 2080.9 265.21 Q2080.06 265.001 2079.05 265.001 Q2075.43 265.001 2073.49 267.362 Q2071.57 269.7 2071.57 274.098 L2071.57 287.756 L2067.29 287.756 L2067.29 261.83 L2071.57 261.83 L2071.57 265.858 Q2072.91 263.497 2075.06 262.362 Q2077.22 261.205 2080.3 261.205 Q2080.74 261.205 2081.27 261.274 Q2081.8 261.321 2082.45 261.436 L2082.47 265.811 Z" fill="#000000" fill-rule="evenodd" fill-opacity="1" /><path clip-path="url(#clip010)" d="M2108.07 273.728 L2108.07 275.811 L2088.49 275.811 Q2088.77 280.209 2091.13 282.524 Q2093.51 284.816 2097.75 284.816 Q2100.2 284.816 2102.49 284.214 Q2104.81 283.612 2107.08 282.409 L2107.08 286.436 Q2104.79 287.408 2102.38 287.918 Q2099.97 288.427 2097.49 288.427 Q2091.29 288.427 2087.66 284.816 Q2084.05 281.205 2084.05 275.047 Q2084.05 268.682 2087.47 264.955 Q2090.92 261.205 2096.75 261.205 Q2101.99 261.205 2105.02 264.585 Q2108.07 267.941 2108.07 273.728 M2103.81 272.478 Q2103.77 268.983 2101.85 266.899 Q2099.95 264.816 2096.8 264.816 Q2093.24 264.816 2091.08 266.83 Q2088.95 268.844 2088.63 272.501 L2103.81 272.478 Z" fill="#000000" fill-rule="evenodd" fill-opacity="1" /><path clip-path="url(#clip010)" d="M2135.25 266.807 Q2136.85 263.936 2139.07 262.571 Q2141.29 261.205 2144.3 261.205 Q2148.35 261.205 2150.55 264.052 Q2152.75 266.876 2152.75 272.108 L2152.75 287.756 L2148.47 287.756 L2148.47 272.247 Q2148.47 268.52 2147.15 266.714 Q2145.83 264.909 2143.12 264.909 Q2139.81 264.909 2137.89 267.108 Q2135.97 269.307 2135.97 273.103 L2135.97 287.756 L2131.68 287.756 L2131.68 272.247 Q2131.68 268.497 2130.36 266.714 Q2129.05 264.909 2126.29 264.909 Q2123.03 264.909 2121.11 267.131 Q2119.18 269.33 2119.18 273.103 L2119.18 287.756 L2114.9 287.756 L2114.9 261.83 L2119.18 261.83 L2119.18 265.858 Q2120.64 263.473 2122.68 262.339 Q2124.72 261.205 2127.52 261.205 Q2130.34 261.205 2132.31 262.64 Q2134.3 264.075 2135.25 266.807 Z" fill="#000000" fill-rule="evenodd" fill-opacity="1" /><path clip-path="url(#clip010)" d="M2183.42 273.728 L2183.42 275.811 L2163.84 275.811 Q2164.11 280.209 2166.48 282.524 Q2168.86 284.816 2173.1 284.816 Q2175.55 284.816 2177.84 284.214 Q2180.16 283.612 2182.42 282.409 L2182.42 286.436 Q2180.13 287.408 2177.73 287.918 Q2175.32 288.427 2172.84 288.427 Q2166.64 288.427 2163 284.816 Q2159.39 281.205 2159.39 275.047 Q2159.39 268.682 2162.82 264.955 Q2166.27 261.205 2172.1 261.205 Q2177.33 261.205 2180.36 264.585 Q2183.42 267.941 2183.42 273.728 M2179.16 272.478 Q2179.11 268.983 2177.19 266.899 Q2175.3 264.816 2172.15 264.816 Q2168.58 264.816 2166.43 266.83 Q2164.3 268.844 2163.98 272.501 L2179.16 272.478 Z" fill="#000000" fill-rule="evenodd" fill-opacity="1" /><path clip-path="url(#clip010)" d="M2211.96 272.108 L2211.96 287.756 L2207.7 287.756 L2207.7 272.247 Q2207.7 268.566 2206.27 266.737 Q2204.83 264.909 2201.96 264.909 Q2198.51 264.909 2196.52 267.108 Q2194.53 269.307 2194.53 273.103 L2194.53 287.756 L2190.25 287.756 L2190.25 261.83 L2194.53 261.83 L2194.53 265.858 Q2196.06 263.52 2198.12 262.362 Q2200.2 261.205 2202.91 261.205 Q2207.38 261.205 2209.67 263.983 Q2211.96 266.737 2211.96 272.108 Z" fill="#000000" fill-rule="evenodd" fill-opacity="1" /><path clip-path="url(#clip010)" d="M2224.67 254.469 L2224.67 261.83 L2233.44 261.83 L2233.44 265.14 L2224.67 265.14 L2224.67 279.214 Q2224.67 282.385 2225.53 283.288 Q2226.41 284.191 2229.07 284.191 L2233.44 284.191 L2233.44 287.756 L2229.07 287.756 Q2224.14 287.756 2222.26 285.927 Q2220.39 284.075 2220.39 279.214 L2220.39 265.14 L2217.26 265.14 L2217.26 261.83 L2220.39 261.83 L2220.39 254.469 L2224.67 254.469 Z" fill="#000000" fill-rule="evenodd" fill-opacity="1" /></svg>
