<?xml version="1.0" encoding="utf-8"?>
<svg xmlns="http://www.w3.org/2000/svg" xmlns:xlink="http://www.w3.org/1999/xlink" width="600" height="400" viewBox="0 0 2400 1600">
<defs>
  <clipPath id="clip700">
    <rect x="0" y="0" width="2400" height="1600"/>
  </clipPath>
</defs>
<path clip-path="url(#clip700)" d="
M0 1600 L2400 1600 L2400 0 L0 0  Z
  " fill="#ffffff" fill-rule="evenodd" fill-opacity="1"/>
<defs>
  <clipPath id="clip701">
    <rect x="480" y="0" width="1681" height="1600"/>
  </clipPath>
</defs>
<path clip-path="url(#clip700)" d="
M257.69 1423.18 L2352.76 1423.18 L2352.76 123.472 L257.69 123.472  Z
  " fill="#ffffff" fill-rule="evenodd" fill-opacity="1"/>
<defs>
  <clipPath id="clip702">
    <rect x="257" y="123" width="2096" height="1301"/>
  </clipPath>
</defs>
<polyline clip-path="url(#clip702)" style="stroke:#000000; stroke-linecap:butt; stroke-linejoin:round; stroke-width:2; stroke-opacity:0.1; fill:none" points="
  316.308,1423.18 316.308,123.472 
  "/>
<polyline clip-path="url(#clip702)" style="stroke:#000000; stroke-linecap:butt; stroke-linejoin:round; stroke-width:2; stroke-opacity:0.1; fill:none" points="
  764.899,1423.18 764.899,123.472 
  "/>
<polyline clip-path="url(#clip702)" style="stroke:#000000; stroke-linecap:butt; stroke-linejoin:round; stroke-width:2; stroke-opacity:0.1; fill:none" points="
  1213.49,1423.18 1213.49,123.472 
  "/>
<polyline clip-path="url(#clip702)" style="stroke:#000000; stroke-linecap:butt; stroke-linejoin:round; stroke-width:2; stroke-opacity:0.1; fill:none" points="
  1662.08,1423.18 1662.08,123.472 
  "/>
<polyline clip-path="url(#clip702)" style="stroke:#000000; stroke-linecap:butt; stroke-linejoin:round; stroke-width:2; stroke-opacity:0.1; fill:none" points="
  2110.67,1423.18 2110.67,123.472 
  "/>
<polyline clip-path="url(#clip700)" style="stroke:#000000; stroke-linecap:butt; stroke-linejoin:round; stroke-width:4; stroke-opacity:1; fill:none" points="
  257.69,1423.18 2352.76,1423.18 
  "/>
<polyline clip-path="url(#clip700)" style="stroke:#000000; stroke-linecap:butt; stroke-linejoin:round; stroke-width:4; stroke-opacity:1; fill:none" points="
  316.308,1423.18 316.308,1404.28 
  "/>
<polyline clip-path="url(#clip700)" style="stroke:#000000; stroke-linecap:butt; stroke-linejoin:round; stroke-width:4; stroke-opacity:1; fill:none" points="
  764.899,1423.18 764.899,1404.28 
  "/>
<polyline clip-path="url(#clip700)" style="stroke:#000000; stroke-linecap:butt; stroke-linejoin:round; stroke-width:4; stroke-opacity:1; fill:none" points="
  1213.49,1423.18 1213.49,1404.28 
  "/>
<polyline clip-path="url(#clip700)" style="stroke:#000000; stroke-linecap:butt; stroke-linejoin:round; stroke-width:4; stroke-opacity:1; fill:none" points="
  1662.08,1423.18 1662.08,1404.28 
  "/>
<polyline clip-path="url(#clip700)" style="stroke:#000000; stroke-linecap:butt; stroke-linejoin:round; stroke-width:4; stroke-opacity:1; fill:none" points="
  2110.67,1423.18 2110.67,1404.28 
  "/>
<path clip-path="url(#clip700)" d="M316.308 1454.1 Q312.697 1454.1 310.868 1457.66 Q309.062 1461.2 309.062 1468.33 Q309.062 1475.44 310.868 1479.01 Q312.697 1482.55 316.308 1482.55 Q319.942 1482.55 321.748 1479.01 Q323.576 1475.44 323.576 1468.33 Q323.576 1461.2 321.748 1457.66 Q319.942 1454.1 316.308 1454.1 M316.308 1450.39 Q322.118 1450.39 325.173 1455 Q328.252 1459.58 328.252 1468.33 Q328.252 1477.06 325.173 1481.67 Q322.118 1486.25 316.308 1486.25 Q310.498 1486.25 307.419 1481.67 Q304.363 1477.06 304.363 1468.33 Q304.363 1459.58 307.419 1455 Q310.498 1450.39 316.308 1450.39 Z" fill="#000000" fill-rule="evenodd" fill-opacity="1" /><path clip-path="url(#clip700)" d="M744.17 1481.64 L760.489 1481.64 L760.489 1485.58 L738.545 1485.58 L738.545 1481.64 Q741.207 1478.89 745.79 1474.26 Q750.396 1469.61 751.577 1468.27 Q753.822 1465.74 754.702 1464.01 Q755.605 1462.25 755.605 1460.56 Q755.605 1457.8 753.66 1456.07 Q751.739 1454.33 748.637 1454.33 Q746.438 1454.33 743.984 1455.09 Q741.554 1455.86 738.776 1457.41 L738.776 1452.69 Q741.6 1451.55 744.054 1450.97 Q746.508 1450.39 748.545 1450.39 Q753.915 1450.39 757.109 1453.08 Q760.304 1455.77 760.304 1460.26 Q760.304 1462.39 759.494 1464.31 Q758.707 1466.2 756.6 1468.8 Q756.021 1469.47 752.92 1472.69 Q749.818 1475.88 744.17 1481.64 Z" fill="#000000" fill-rule="evenodd" fill-opacity="1" /><path clip-path="url(#clip700)" d="M770.35 1451.02 L788.706 1451.02 L788.706 1454.96 L774.632 1454.96 L774.632 1463.43 Q775.651 1463.08 776.669 1462.92 Q777.688 1462.73 778.706 1462.73 Q784.493 1462.73 787.873 1465.9 Q791.253 1469.08 791.253 1474.49 Q791.253 1480.07 787.78 1483.17 Q784.308 1486.25 777.989 1486.25 Q775.813 1486.25 773.544 1485.88 Q771.299 1485.51 768.892 1484.77 L768.892 1480.07 Q770.975 1481.2 773.197 1481.76 Q775.419 1482.32 777.896 1482.32 Q781.901 1482.32 784.239 1480.21 Q786.577 1478.1 786.577 1474.49 Q786.577 1470.88 784.239 1468.77 Q781.901 1466.67 777.896 1466.67 Q776.021 1466.67 774.146 1467.08 Q772.294 1467.5 770.35 1468.38 L770.35 1451.02 Z" fill="#000000" fill-rule="evenodd" fill-opacity="1" /><path clip-path="url(#clip700)" d="M1188.19 1451.02 L1206.55 1451.02 L1206.55 1454.96 L1192.47 1454.96 L1192.47 1463.43 Q1193.49 1463.08 1194.51 1462.92 Q1195.53 1462.73 1196.55 1462.73 Q1202.33 1462.73 1205.71 1465.9 Q1209.09 1469.08 1209.09 1474.49 Q1209.09 1480.07 1205.62 1483.17 Q1202.15 1486.25 1195.83 1486.25 Q1193.65 1486.25 1191.38 1485.88 Q1189.14 1485.51 1186.73 1484.77 L1186.73 1480.07 Q1188.81 1481.2 1191.04 1481.76 Q1193.26 1482.32 1195.73 1482.32 Q1199.74 1482.32 1202.08 1480.21 Q1204.42 1478.1 1204.42 1474.49 Q1204.42 1470.88 1202.08 1468.77 Q1199.74 1466.67 1195.73 1466.67 Q1193.86 1466.67 1191.98 1467.08 Q1190.13 1467.5 1188.19 1468.38 L1188.19 1451.02 Z" fill="#000000" fill-rule="evenodd" fill-opacity="1" /><path clip-path="url(#clip700)" d="M1228.3 1454.1 Q1224.69 1454.1 1222.86 1457.66 Q1221.06 1461.2 1221.06 1468.33 Q1221.06 1475.44 1222.86 1479.01 Q1224.69 1482.55 1228.3 1482.55 Q1231.94 1482.55 1233.74 1479.01 Q1235.57 1475.44 1235.57 1468.33 Q1235.57 1461.2 1233.74 1457.66 Q1231.94 1454.1 1228.3 1454.1 M1228.3 1450.39 Q1234.11 1450.39 1237.17 1455 Q1240.25 1459.58 1240.25 1468.33 Q1240.25 1477.06 1237.17 1481.67 Q1234.11 1486.25 1228.3 1486.25 Q1222.49 1486.25 1219.42 1481.67 Q1216.36 1477.06 1216.36 1468.33 Q1216.36 1459.58 1219.42 1455 Q1222.49 1450.39 1228.3 1450.39 Z" fill="#000000" fill-rule="evenodd" fill-opacity="1" /><path clip-path="url(#clip700)" d="M1635.93 1451.02 L1658.16 1451.02 L1658.16 1453.01 L1645.61 1485.58 L1640.73 1485.58 L1652.53 1454.96 L1635.93 1454.96 L1635.93 1451.02 Z" fill="#000000" fill-rule="evenodd" fill-opacity="1" /><path clip-path="url(#clip700)" d="M1667.32 1451.02 L1685.68 1451.02 L1685.68 1454.96 L1671.61 1454.96 L1671.61 1463.43 Q1672.62 1463.08 1673.64 1462.92 Q1674.66 1462.73 1675.68 1462.73 Q1681.47 1462.73 1684.85 1465.9 Q1688.23 1469.08 1688.23 1474.49 Q1688.23 1480.07 1684.75 1483.17 Q1681.28 1486.25 1674.96 1486.25 Q1672.79 1486.25 1670.52 1485.88 Q1668.27 1485.51 1665.86 1484.77 L1665.86 1480.07 Q1667.95 1481.2 1670.17 1481.76 Q1672.39 1482.32 1674.87 1482.32 Q1678.87 1482.32 1681.21 1480.21 Q1683.55 1478.1 1683.55 1474.49 Q1683.55 1470.88 1681.21 1468.77 Q1678.87 1466.67 1674.87 1466.67 Q1672.99 1466.67 1671.12 1467.08 Q1669.27 1467.5 1667.32 1468.38 L1667.32 1451.02 Z" fill="#000000" fill-rule="evenodd" fill-opacity="1" /><path clip-path="url(#clip700)" d="M2070.28 1481.64 L2077.92 1481.64 L2077.92 1455.28 L2069.61 1456.95 L2069.61 1452.69 L2077.87 1451.02 L2082.55 1451.02 L2082.55 1481.64 L2090.19 1481.64 L2090.19 1485.58 L2070.28 1485.58 L2070.28 1481.64 Z" fill="#000000" fill-rule="evenodd" fill-opacity="1" /><path clip-path="url(#clip700)" d="M2109.63 1454.1 Q2106.02 1454.1 2104.19 1457.66 Q2102.38 1461.2 2102.38 1468.33 Q2102.38 1475.44 2104.19 1479.01 Q2106.02 1482.55 2109.63 1482.55 Q2113.26 1482.55 2115.07 1479.01 Q2116.9 1475.44 2116.9 1468.33 Q2116.9 1461.2 2115.07 1457.66 Q2113.26 1454.1 2109.63 1454.1 M2109.63 1450.39 Q2115.44 1450.39 2118.5 1455 Q2121.57 1459.58 2121.57 1468.33 Q2121.57 1477.06 2118.5 1481.67 Q2115.44 1486.25 2109.63 1486.25 Q2103.82 1486.25 2100.74 1481.67 Q2097.69 1477.06 2097.69 1468.33 Q2097.69 1459.58 2100.74 1455 Q2103.82 1450.39 2109.63 1450.39 Z" fill="#000000" fill-rule="evenodd" fill-opacity="1" /><path clip-path="url(#clip700)" d="M2139.79 1454.1 Q2136.18 1454.1 2134.35 1457.66 Q2132.55 1461.2 2132.55 1468.33 Q2132.55 1475.44 2134.35 1479.01 Q2136.18 1482.55 2139.79 1482.55 Q2143.43 1482.55 2145.23 1479.01 Q2147.06 1475.44 2147.06 1468.33 Q2147.06 1461.2 2145.23 1457.66 Q2143.43 1454.1 2139.79 1454.1 M2139.79 1450.39 Q2145.6 1450.39 2148.66 1455 Q2151.74 1459.58 2151.74 1468.33 Q2151.74 1477.06 2148.66 1481.67 Q2145.6 1486.25 2139.79 1486.25 Q2133.98 1486.25 2130.9 1481.67 Q2127.85 1477.06 2127.85 1468.33 Q2127.85 1459.58 2130.9 1455 Q2133.98 1450.39 2139.79 1450.39 Z" fill="#000000" fill-rule="evenodd" fill-opacity="1" /><path clip-path="url(#clip700)" d="M1213.46 1522.27 L1213.46 1532.4 L1225.52 1532.4 L1225.52 1536.95 L1213.46 1536.95 L1213.46 1556.3 Q1213.46 1560.66 1214.64 1561.9 Q1215.85 1563.14 1219.51 1563.14 L1225.52 1563.14 L1225.52 1568.04 L1219.51 1568.04 Q1212.73 1568.04 1210.15 1565.53 Q1207.57 1562.98 1207.57 1556.3 L1207.57 1536.95 L1203.28 1536.95 L1203.28 1532.4 L1207.57 1532.4 L1207.57 1522.27 L1213.46 1522.27 Z" fill="#000000" fill-rule="evenodd" fill-opacity="1" /><path clip-path="url(#clip700)" d="M1253.95 1532.4 L1259.8 1532.4 L1259.8 1568.04 L1253.95 1568.04 L1253.95 1532.4 M1253.95 1518.52 L1259.8 1518.52 L1259.8 1525.93 L1253.95 1525.93 L1253.95 1518.52 Z" fill="#000000" fill-rule="evenodd" fill-opacity="1" /><path clip-path="url(#clip700)" d="M1301.69 1546.53 L1301.69 1568.04 L1295.83 1568.04 L1295.83 1546.72 Q1295.83 1541.66 1293.86 1539.14 Q1291.89 1536.63 1287.94 1536.63 Q1283.2 1536.63 1280.46 1539.65 Q1277.72 1542.68 1277.72 1547.9 L1277.72 1568.04 L1271.83 1568.04 L1271.83 1532.4 L1277.72 1532.4 L1277.72 1537.93 Q1279.82 1534.72 1282.66 1533.13 Q1285.52 1531.54 1289.25 1531.54 Q1295.39 1531.54 1298.54 1535.36 Q1301.69 1539.14 1301.69 1546.53 Z" fill="#000000" fill-rule="evenodd" fill-opacity="1" /><path clip-path="url(#clip700)" d="M1333.55 1518.52 L1347.05 1518.52 L1347.05 1523.07 L1339.41 1523.07 L1339.41 1572.09 L1347.05 1572.09 L1347.05 1576.64 L1333.55 1576.64 L1333.55 1518.52 Z" fill="#000000" fill-rule="evenodd" fill-opacity="1" /><path clip-path="url(#clip700)" d="M1382.25 1533.45 L1382.25 1538.98 Q1379.77 1537.71 1377.09 1537.07 Q1374.42 1536.44 1371.55 1536.44 Q1367.19 1536.44 1365 1537.77 Q1362.83 1539.11 1362.83 1541.79 Q1362.83 1543.82 1364.39 1545 Q1365.95 1546.15 1370.66 1547.2 L1372.67 1547.64 Q1378.91 1548.98 1381.52 1551.43 Q1384.16 1553.85 1384.16 1558.21 Q1384.16 1563.17 1380.21 1566.07 Q1376.3 1568.97 1369.42 1568.97 Q1366.56 1568.97 1363.44 1568.39 Q1360.35 1567.85 1356.91 1566.74 L1356.91 1560.69 Q1360.16 1562.38 1363.31 1563.24 Q1366.46 1564.07 1369.55 1564.07 Q1373.69 1564.07 1375.91 1562.66 Q1378.14 1561.23 1378.14 1558.65 Q1378.14 1556.27 1376.52 1554.99 Q1374.93 1553.72 1369.48 1552.54 L1367.45 1552.07 Q1362.01 1550.92 1359.59 1548.56 Q1357.17 1546.18 1357.17 1542.04 Q1357.17 1537.01 1360.73 1534.27 Q1364.3 1531.54 1370.85 1531.54 Q1374.1 1531.54 1376.96 1532.01 Q1379.83 1532.49 1382.25 1533.45 Z" fill="#000000" fill-rule="evenodd" fill-opacity="1" /><path clip-path="url(#clip700)" d="M1407.17 1518.52 L1407.17 1576.64 L1393.67 1576.64 L1393.67 1572.09 L1401.28 1572.09 L1401.28 1523.07 L1393.67 1523.07 L1393.67 1518.52 L1407.17 1518.52 Z" fill="#000000" fill-rule="evenodd" fill-opacity="1" /><polyline clip-path="url(#clip702)" style="stroke:#000000; stroke-linecap:butt; stroke-linejoin:round; stroke-width:2; stroke-opacity:0.1; fill:none" points="
  257.69,1301.33 2352.76,1301.33 
  "/>
<polyline clip-path="url(#clip702)" style="stroke:#000000; stroke-linecap:butt; stroke-linejoin:round; stroke-width:2; stroke-opacity:0.1; fill:none" points="
  257.69,1034.49 2352.76,1034.49 
  "/>
<polyline clip-path="url(#clip702)" style="stroke:#000000; stroke-linecap:butt; stroke-linejoin:round; stroke-width:2; stroke-opacity:0.1; fill:none" points="
  257.69,767.643 2352.76,767.643 
  "/>
<polyline clip-path="url(#clip702)" style="stroke:#000000; stroke-linecap:butt; stroke-linejoin:round; stroke-width:2; stroke-opacity:0.1; fill:none" points="
  257.69,500.801 2352.76,500.801 
  "/>
<polyline clip-path="url(#clip702)" style="stroke:#000000; stroke-linecap:butt; stroke-linejoin:round; stroke-width:2; stroke-opacity:0.1; fill:none" points="
  257.69,233.958 2352.76,233.958 
  "/>
<polyline clip-path="url(#clip700)" style="stroke:#000000; stroke-linecap:butt; stroke-linejoin:round; stroke-width:4; stroke-opacity:1; fill:none" points="
  257.69,1423.18 257.69,123.472 
  "/>
<polyline clip-path="url(#clip700)" style="stroke:#000000; stroke-linecap:butt; stroke-linejoin:round; stroke-width:4; stroke-opacity:1; fill:none" points="
  257.69,1301.33 276.588,1301.33 
  "/>
<polyline clip-path="url(#clip700)" style="stroke:#000000; stroke-linecap:butt; stroke-linejoin:round; stroke-width:4; stroke-opacity:1; fill:none" points="
  257.69,1034.49 276.588,1034.49 
  "/>
<polyline clip-path="url(#clip700)" style="stroke:#000000; stroke-linecap:butt; stroke-linejoin:round; stroke-width:4; stroke-opacity:1; fill:none" points="
  257.69,767.643 276.588,767.643 
  "/>
<polyline clip-path="url(#clip700)" style="stroke:#000000; stroke-linecap:butt; stroke-linejoin:round; stroke-width:4; stroke-opacity:1; fill:none" points="
  257.69,500.801 276.588,500.801 
  "/>
<polyline clip-path="url(#clip700)" style="stroke:#000000; stroke-linecap:butt; stroke-linejoin:round; stroke-width:4; stroke-opacity:1; fill:none" points="
  257.69,233.958 276.588,233.958 
  "/>
<path clip-path="url(#clip700)" d="M114.26 1301.78 L143.936 1301.78 L143.936 1305.71 L114.26 1305.71 L114.26 1301.78 Z" fill="#000000" fill-rule="evenodd" fill-opacity="1" /><path clip-path="url(#clip700)" d="M164.028 1287.13 Q160.417 1287.13 158.589 1290.69 Q156.783 1294.23 156.783 1301.36 Q156.783 1308.47 158.589 1312.03 Q160.417 1315.58 164.028 1315.58 Q167.663 1315.58 169.468 1312.03 Q171.297 1308.47 171.297 1301.36 Q171.297 1294.23 169.468 1290.69 Q167.663 1287.13 164.028 1287.13 M164.028 1283.42 Q169.839 1283.42 172.894 1288.03 Q175.973 1292.61 175.973 1301.36 Q175.973 1310.09 172.894 1314.7 Q169.839 1319.28 164.028 1319.28 Q158.218 1319.28 155.14 1314.7 Q152.084 1310.09 152.084 1301.36 Q152.084 1292.61 155.14 1288.03 Q158.218 1283.42 164.028 1283.42 Z" fill="#000000" fill-rule="evenodd" fill-opacity="1" /><path clip-path="url(#clip700)" d="M184.19 1312.73 L189.075 1312.73 L189.075 1318.61 L184.19 1318.61 L184.19 1312.73 Z" fill="#000000" fill-rule="evenodd" fill-opacity="1" /><path clip-path="url(#clip700)" d="M212.107 1288.12 L200.301 1306.57 L212.107 1306.57 L212.107 1288.12 M210.88 1284.05 L216.76 1284.05 L216.76 1306.57 L221.69 1306.57 L221.69 1310.46 L216.76 1310.46 L216.76 1318.61 L212.107 1318.61 L212.107 1310.46 L196.505 1310.46 L196.505 1305.95 L210.88 1284.05 Z" fill="#000000" fill-rule="evenodd" fill-opacity="1" /><path clip-path="url(#clip700)" d="M116.343 1034.94 L146.019 1034.94 L146.019 1038.87 L116.343 1038.87 L116.343 1034.94 Z" fill="#000000" fill-rule="evenodd" fill-opacity="1" /><path clip-path="url(#clip700)" d="M166.112 1020.28 Q162.501 1020.28 160.672 1023.85 Q158.866 1027.39 158.866 1034.52 Q158.866 1041.63 160.672 1045.19 Q162.501 1048.73 166.112 1048.73 Q169.746 1048.73 171.552 1045.19 Q173.38 1041.63 173.38 1034.52 Q173.38 1027.39 171.552 1023.85 Q169.746 1020.28 166.112 1020.28 M166.112 1016.58 Q171.922 1016.58 174.977 1021.19 Q178.056 1025.77 178.056 1034.52 Q178.056 1043.25 174.977 1047.85 Q171.922 1052.44 166.112 1052.44 Q160.302 1052.44 157.223 1047.85 Q154.167 1043.25 154.167 1034.52 Q154.167 1025.77 157.223 1021.19 Q160.302 1016.58 166.112 1016.58 Z" fill="#000000" fill-rule="evenodd" fill-opacity="1" /><path clip-path="url(#clip700)" d="M186.274 1045.89 L191.158 1045.89 L191.158 1051.77 L186.274 1051.77 L186.274 1045.89 Z" fill="#000000" fill-rule="evenodd" fill-opacity="1" /><path clip-path="url(#clip700)" d="M205.371 1047.83 L221.69 1047.83 L221.69 1051.77 L199.746 1051.77 L199.746 1047.83 Q202.408 1045.08 206.991 1040.45 Q211.598 1035.79 212.778 1034.45 Q215.024 1031.93 215.903 1030.19 Q216.806 1028.43 216.806 1026.74 Q216.806 1023.99 214.861 1022.25 Q212.94 1020.52 209.838 1020.52 Q207.639 1020.52 205.186 1021.28 Q202.755 1022.04 199.977 1023.59 L199.977 1018.87 Q202.801 1017.74 205.255 1017.16 Q207.709 1016.58 209.746 1016.58 Q215.116 1016.58 218.311 1019.27 Q221.505 1021.95 221.505 1026.44 Q221.505 1028.57 220.695 1030.49 Q219.908 1032.39 217.801 1034.98 Q217.223 1035.65 214.121 1038.87 Q211.019 1042.07 205.371 1047.83 Z" fill="#000000" fill-rule="evenodd" fill-opacity="1" /><path clip-path="url(#clip700)" d="M164.515 753.442 Q160.903 753.442 159.075 757.007 Q157.269 760.548 157.269 767.678 Q157.269 774.784 159.075 778.349 Q160.903 781.891 164.515 781.891 Q168.149 781.891 169.954 778.349 Q171.783 774.784 171.783 767.678 Q171.783 760.548 169.954 757.007 Q168.149 753.442 164.515 753.442 M164.515 749.738 Q170.325 749.738 173.38 754.344 Q176.459 758.928 176.459 767.678 Q176.459 776.405 173.38 781.011 Q170.325 785.594 164.515 785.594 Q158.704 785.594 155.626 781.011 Q152.57 776.405 152.57 767.678 Q152.57 758.928 155.626 754.344 Q158.704 749.738 164.515 749.738 Z" fill="#000000" fill-rule="evenodd" fill-opacity="1" /><path clip-path="url(#clip700)" d="M184.676 779.043 L189.561 779.043 L189.561 784.923 L184.676 784.923 L184.676 779.043 Z" fill="#000000" fill-rule="evenodd" fill-opacity="1" /><path clip-path="url(#clip700)" d="M209.746 753.442 Q206.135 753.442 204.306 757.007 Q202.5 760.548 202.5 767.678 Q202.5 774.784 204.306 778.349 Q206.135 781.891 209.746 781.891 Q213.38 781.891 215.186 778.349 Q217.014 774.784 217.014 767.678 Q217.014 760.548 215.186 757.007 Q213.38 753.442 209.746 753.442 M209.746 749.738 Q215.556 749.738 218.611 754.344 Q221.69 758.928 221.69 767.678 Q221.69 776.405 218.611 781.011 Q215.556 785.594 209.746 785.594 Q203.936 785.594 200.857 781.011 Q197.801 776.405 197.801 767.678 Q197.801 758.928 200.857 754.344 Q203.936 749.738 209.746 749.738 Z" fill="#000000" fill-rule="evenodd" fill-opacity="1" /><path clip-path="url(#clip700)" d="M166.112 486.599 Q162.501 486.599 160.672 490.164 Q158.866 493.706 158.866 500.835 Q158.866 507.942 160.672 511.506 Q162.501 515.048 166.112 515.048 Q169.746 515.048 171.552 511.506 Q173.38 507.942 173.38 500.835 Q173.38 493.706 171.552 490.164 Q169.746 486.599 166.112 486.599 M166.112 482.896 Q171.922 482.896 174.977 487.502 Q178.056 492.085 178.056 500.835 Q178.056 509.562 174.977 514.168 Q171.922 518.752 166.112 518.752 Q160.302 518.752 157.223 514.168 Q154.167 509.562 154.167 500.835 Q154.167 492.085 157.223 487.502 Q160.302 482.896 166.112 482.896 Z" fill="#000000" fill-rule="evenodd" fill-opacity="1" /><path clip-path="url(#clip700)" d="M186.274 512.201 L191.158 512.201 L191.158 518.081 L186.274 518.081 L186.274 512.201 Z" fill="#000000" fill-rule="evenodd" fill-opacity="1" /><path clip-path="url(#clip700)" d="M205.371 514.145 L221.69 514.145 L221.69 518.081 L199.746 518.081 L199.746 514.145 Q202.408 511.391 206.991 506.761 Q211.598 502.108 212.778 500.766 Q215.024 498.243 215.903 496.507 Q216.806 494.747 216.806 493.057 Q216.806 490.303 214.861 488.567 Q212.94 486.831 209.838 486.831 Q207.639 486.831 205.186 487.595 Q202.755 488.358 199.977 489.909 L199.977 485.187 Q202.801 484.053 205.255 483.474 Q207.709 482.896 209.746 482.896 Q215.116 482.896 218.311 485.581 Q221.505 488.266 221.505 492.757 Q221.505 494.886 220.695 496.807 Q219.908 498.706 217.801 501.298 Q217.223 501.969 214.121 505.187 Q211.019 508.381 205.371 514.145 Z" fill="#000000" fill-rule="evenodd" fill-opacity="1" /><path clip-path="url(#clip700)" d="M164.028 219.757 Q160.417 219.757 158.589 223.321 Q156.783 226.863 156.783 233.993 Q156.783 241.099 158.589 244.664 Q160.417 248.206 164.028 248.206 Q167.663 248.206 169.468 244.664 Q171.297 241.099 171.297 233.993 Q171.297 226.863 169.468 223.321 Q167.663 219.757 164.028 219.757 M164.028 216.053 Q169.839 216.053 172.894 220.659 Q175.973 225.243 175.973 233.993 Q175.973 242.72 172.894 247.326 Q169.839 251.909 164.028 251.909 Q158.218 251.909 155.14 247.326 Q152.084 242.72 152.084 233.993 Q152.084 225.243 155.14 220.659 Q158.218 216.053 164.028 216.053 Z" fill="#000000" fill-rule="evenodd" fill-opacity="1" /><path clip-path="url(#clip700)" d="M184.19 245.358 L189.075 245.358 L189.075 251.238 L184.19 251.238 L184.19 245.358 Z" fill="#000000" fill-rule="evenodd" fill-opacity="1" /><path clip-path="url(#clip700)" d="M212.107 220.752 L200.301 239.201 L212.107 239.201 L212.107 220.752 M210.88 216.678 L216.76 216.678 L216.76 239.201 L221.69 239.201 L221.69 243.09 L216.76 243.09 L216.76 251.238 L212.107 251.238 L212.107 243.09 L196.505 243.09 L196.505 238.576 L210.88 216.678 Z" fill="#000000" fill-rule="evenodd" fill-opacity="1" /><path clip-path="url(#clip700)" d="M22.818 959.969 L46.4666 968.69 L46.4666 951.216 L22.818 959.969 M16.4842 963.597 L16.4842 956.308 L64.0042 938.198 L64.0042 944.882 L51.8138 949.21 L51.8138 970.631 L64.0042 974.96 L64.0042 981.739 L16.4842 963.597 Z" fill="#000000" fill-rule="evenodd" fill-opacity="1" /><path clip-path="url(#clip700)" d="M29.7248 907.006 L35.1993 907.006 Q33.8307 909.488 33.1623 912.003 Q32.4621 914.486 32.4621 917.032 Q32.4621 922.729 36.0905 925.88 Q39.6872 929.031 46.212 929.031 Q52.7369 929.031 56.3653 925.88 Q59.9619 922.729 59.9619 917.032 Q59.9619 914.486 59.2935 912.003 Q58.5933 909.488 57.2247 907.006 L62.6355 907.006 Q63.7814 909.457 64.3543 912.098 Q64.9272 914.708 64.9272 917.668 Q64.9272 925.721 59.8664 930.463 Q54.8057 935.206 46.212 935.206 Q37.491 935.206 32.4939 930.432 Q27.4968 925.626 27.4968 917.286 Q27.4968 914.581 28.0697 912.003 Q28.6108 909.425 29.7248 907.006 Z" fill="#000000" fill-rule="evenodd" fill-opacity="1" /><path clip-path="url(#clip700)" d="M29.7248 871.167 L35.1993 871.167 Q33.8307 873.65 33.1623 876.164 Q32.4621 878.647 32.4621 881.193 Q32.4621 886.89 36.0905 890.041 Q39.6872 893.192 46.212 893.192 Q52.7369 893.192 56.3653 890.041 Q59.9619 886.89 59.9619 881.193 Q59.9619 878.647 59.2935 876.164 Q58.5933 873.65 57.2247 871.167 L62.6355 871.167 Q63.7814 873.618 64.3543 876.259 Q64.9272 878.869 64.9272 881.829 Q64.9272 889.882 59.8664 894.625 Q54.8057 899.367 46.212 899.367 Q37.491 899.367 32.4939 894.593 Q27.4968 889.787 27.4968 881.448 Q27.4968 878.742 28.0697 876.164 Q28.6108 873.586 29.7248 871.167 Z" fill="#000000" fill-rule="evenodd" fill-opacity="1" /><path clip-path="url(#clip700)" d="M55.9197 860.154 L55.9197 853.438 L64.0042 853.438 L64.0042 860.154 L55.9197 860.154 Z" fill="#000000" fill-rule="evenodd" fill-opacity="1" /><path clip-path="url(#clip700)" d="M14.479 820.082 L14.479 806.587 L19.0304 806.587 L19.0304 814.226 L68.0464 814.226 L68.0464 806.587 L72.5979 806.587 L72.5979 820.082 L14.479 820.082 Z" fill="#000000" fill-rule="evenodd" fill-opacity="1" /><path clip-path="url(#clip700)" d="M35.1993 766.356 Q31.2526 764.159 29.3747 761.104 Q27.4968 758.048 27.4968 753.911 Q27.4968 748.341 31.4117 745.317 Q35.2948 742.293 42.4881 742.293 L64.0042 742.293 L64.0042 748.181 L42.679 748.181 Q37.5546 748.181 35.072 749.996 Q32.5894 751.81 32.5894 755.534 Q32.5894 760.085 35.6131 762.727 Q38.6368 765.369 43.8567 765.369 L64.0042 765.369 L64.0042 771.257 L42.679 771.257 Q37.5228 771.257 35.072 773.071 Q32.5894 774.886 32.5894 778.673 Q32.5894 783.161 35.6449 785.803 Q38.6686 788.445 43.8567 788.445 L64.0042 788.445 L64.0042 794.333 L28.3562 794.333 L28.3562 788.445 L33.8944 788.445 Q30.616 786.439 29.0564 783.638 Q27.4968 780.838 27.4968 776.986 Q27.4968 773.103 29.4702 770.398 Q31.4436 767.661 35.1993 766.356 Z" fill="#000000" fill-rule="evenodd" fill-opacity="1" /><path clip-path="url(#clip700)" d="M16.4842 720.204 L16.4842 714.793 L70.0516 731.344 L70.0516 736.755 L16.4842 720.204 Z" fill="#000000" fill-rule="evenodd" fill-opacity="1" /><path clip-path="url(#clip700)" d="M29.4065 685.925 L34.9447 685.925 Q33.6716 688.407 33.035 691.081 Q32.3984 693.755 32.3984 696.619 Q32.3984 700.98 33.7352 703.176 Q35.072 705.34 37.7456 705.34 Q39.7826 705.34 40.9603 703.781 Q42.1061 702.221 43.1565 697.51 L43.6021 695.505 Q44.9389 689.267 47.3897 686.657 Q49.8086 684.015 54.1691 684.015 Q59.1344 684.015 62.0308 687.962 Q64.9272 691.877 64.9272 698.752 Q64.9272 701.616 64.3543 704.735 Q63.8132 707.823 62.6992 711.26 L56.6518 711.26 Q58.3387 708.014 59.198 704.863 Q60.0256 701.712 60.0256 698.624 Q60.0256 694.487 58.6251 692.259 Q57.1929 690.031 54.6147 690.031 Q52.2276 690.031 50.9545 691.654 Q49.6813 693.245 48.5037 698.688 L48.0262 700.725 Q46.8804 706.168 44.5251 708.587 Q42.138 711.006 38.0002 711.006 Q32.9713 711.006 30.2341 707.441 Q27.4968 703.876 27.4968 697.319 Q27.4968 694.073 27.9743 691.208 Q28.4517 688.344 29.4065 685.925 Z" fill="#000000" fill-rule="evenodd" fill-opacity="1" /><path clip-path="url(#clip700)" d="M16.4842 650.404 L34.2127 633.121 L34.2127 639.519 L21.6404 653.523 L34.2127 667.528 L34.2127 673.925 L16.4842 656.643 L16.4842 650.404 Z" fill="#000000" fill-rule="evenodd" fill-opacity="1" /><path clip-path="url(#clip700)" d="M58.5933 613.706 L58.5933 591.267 L64.0042 591.267 L64.0042 621.44 L58.5933 621.44 Q54.8057 617.78 48.44 611.478 Q42.0425 605.144 40.1964 603.521 Q36.7271 600.433 34.34 599.224 Q31.921 597.983 29.5975 597.983 Q25.8099 597.983 23.4228 600.656 Q21.0356 603.298 21.0356 607.563 Q21.0356 610.587 22.086 613.961 Q23.1363 617.303 25.2688 621.122 L18.7758 621.122 Q17.2162 617.239 16.4205 613.865 Q15.6248 610.491 15.6248 607.69 Q15.6248 600.306 19.3169 595.914 Q23.009 591.521 29.1837 591.521 Q32.112 591.521 34.7537 592.635 Q37.3637 593.718 40.9285 596.614 Q41.8515 597.41 46.2757 601.675 Q50.668 605.94 58.5933 613.706 Z" fill="#000000" fill-rule="evenodd" fill-opacity="1" /><path clip-path="url(#clip700)" d="M14.479 564.913 L72.5979 564.913 L72.5979 578.408 L68.0464 578.408 L68.0464 570.801 L19.0304 570.801 L19.0304 578.408 L14.479 578.408 L14.479 564.913 Z" fill="#000000" fill-rule="evenodd" fill-opacity="1" /><path clip-path="url(#clip700)" d="M1079.02 20.1573 L1067.92 50.2555 L1090.16 50.2555 L1079.02 20.1573 M1074.4 12.096 L1083.68 12.096 L1106.73 72.576 L1098.22 72.576 L1092.71 57.061 L1065.45 57.061 L1059.94 72.576 L1051.31 72.576 L1074.4 12.096 Z" fill="#000000" fill-rule="evenodd" fill-opacity="1" /><path clip-path="url(#clip700)" d="M1146.43 28.9478 L1146.43 35.9153 Q1143.27 34.1734 1140.07 33.3227 Q1136.91 32.4315 1133.67 32.4315 Q1126.42 32.4315 1122.41 37.0496 Q1118.4 41.6271 1118.4 49.9314 Q1118.4 58.2358 1122.41 62.8538 Q1126.42 67.4314 1133.67 67.4314 Q1136.91 67.4314 1140.07 66.5807 Q1143.27 65.6895 1146.43 63.9476 L1146.43 70.8341 Q1143.31 72.2924 1139.95 73.0216 Q1136.62 73.7508 1132.86 73.7508 Q1122.61 73.7508 1116.57 67.3098 Q1110.54 60.8689 1110.54 49.9314 Q1110.54 38.832 1116.61 32.472 Q1122.73 26.1121 1133.34 26.1121 Q1136.79 26.1121 1140.07 26.8413 Q1143.35 27.5299 1146.43 28.9478 Z" fill="#000000" fill-rule="evenodd" fill-opacity="1" /><path clip-path="url(#clip700)" d="M1192.04 28.9478 L1192.04 35.9153 Q1188.88 34.1734 1185.68 33.3227 Q1182.52 32.4315 1179.28 32.4315 Q1172.03 32.4315 1168.02 37.0496 Q1164.01 41.6271 1164.01 49.9314 Q1164.01 58.2358 1168.02 62.8538 Q1172.03 67.4314 1179.28 67.4314 Q1182.52 67.4314 1185.68 66.5807 Q1188.88 65.6895 1192.04 63.9476 L1192.04 70.8341 Q1188.92 72.2924 1185.56 73.0216 Q1182.24 73.7508 1178.47 73.7508 Q1168.22 73.7508 1162.19 67.3098 Q1156.15 60.8689 1156.15 49.9314 Q1156.15 38.832 1162.23 32.472 Q1168.34 26.1121 1178.96 26.1121 Q1182.4 26.1121 1185.68 26.8413 Q1188.96 27.5299 1192.04 28.9478 Z" fill="#000000" fill-rule="evenodd" fill-opacity="1" /><path clip-path="url(#clip700)" d="M1243.81 48.0275 L1243.81 51.6733 L1209.54 51.6733 Q1210.03 59.3701 1214.16 63.421 Q1218.33 67.4314 1225.74 67.4314 Q1230.04 67.4314 1234.05 66.3781 Q1238.1 65.3249 1242.07 63.2184 L1242.07 70.267 Q1238.06 71.9684 1233.85 72.8596 Q1229.63 73.7508 1225.3 73.7508 Q1214.44 73.7508 1208.08 67.4314 Q1201.76 61.1119 1201.76 50.3365 Q1201.76 39.1965 1207.76 32.6746 Q1213.79 26.1121 1224 26.1121 Q1233.16 26.1121 1238.46 32.0264 Q1243.81 37.9003 1243.81 48.0275 M1236.36 45.84 Q1236.28 39.7232 1232.91 36.0774 Q1229.59 32.4315 1224.08 32.4315 Q1217.85 32.4315 1214.08 35.9558 Q1210.35 39.4801 1209.78 45.8805 L1236.36 45.84 Z" fill="#000000" fill-rule="evenodd" fill-opacity="1" /><path clip-path="url(#clip700)" d="M1256.05 9.54393 L1263.5 9.54393 L1263.5 72.576 L1256.05 72.576 L1256.05 9.54393 Z" fill="#000000" fill-rule="evenodd" fill-opacity="1" /><path clip-path="url(#clip700)" d="M1317.9 48.0275 L1317.9 51.6733 L1283.63 51.6733 Q1284.12 59.3701 1288.25 63.421 Q1292.42 67.4314 1299.84 67.4314 Q1304.13 67.4314 1308.14 66.3781 Q1312.19 65.3249 1316.16 63.2184 L1316.16 70.267 Q1312.15 71.9684 1307.94 72.8596 Q1303.72 73.7508 1299.39 73.7508 Q1288.53 73.7508 1282.17 67.4314 Q1275.85 61.1119 1275.85 50.3365 Q1275.85 39.1965 1281.85 32.6746 Q1287.89 26.1121 1298.09 26.1121 Q1307.25 26.1121 1312.56 32.0264 Q1317.9 37.9003 1317.9 48.0275 M1310.45 45.84 Q1310.37 39.7232 1307.01 36.0774 Q1303.68 32.4315 1298.17 32.4315 Q1291.94 32.4315 1288.17 35.9558 Q1284.44 39.4801 1283.87 45.8805 L1310.45 45.84 Z" fill="#000000" fill-rule="evenodd" fill-opacity="1" /><path clip-path="url(#clip700)" d="M1356.43 34.1734 Q1355.17 33.4443 1353.67 33.1202 Q1352.21 32.7556 1350.43 32.7556 Q1344.11 32.7556 1340.71 36.8875 Q1337.35 40.9789 1337.35 48.6757 L1337.35 72.576 L1329.85 72.576 L1329.85 27.2059 L1337.35 27.2059 L1337.35 34.2544 Q1339.7 30.1225 1343.46 28.1376 Q1347.23 26.1121 1352.62 26.1121 Q1353.39 26.1121 1354.32 26.2337 Q1355.25 26.3147 1356.39 26.5172 L1356.43 34.1734 Z" fill="#000000" fill-rule="evenodd" fill-opacity="1" /><path clip-path="url(#clip700)" d="M1384.86 49.7694 Q1375.83 49.7694 1372.35 51.8354 Q1368.86 53.9013 1368.86 58.8839 Q1368.86 62.8538 1371.46 65.2034 Q1374.09 67.5124 1378.58 67.5124 Q1384.78 67.5124 1388.51 63.1374 Q1392.28 58.7219 1392.28 51.4303 L1392.28 49.7694 L1384.86 49.7694 M1399.73 46.6907 L1399.73 72.576 L1392.28 72.576 L1392.28 65.6895 Q1389.72 69.8214 1385.92 71.8063 Q1382.11 73.7508 1376.6 73.7508 Q1369.63 73.7508 1365.5 69.8619 Q1361.41 65.9325 1361.41 59.3701 Q1361.41 51.7138 1366.51 47.825 Q1371.66 43.9361 1381.83 43.9361 L1392.28 43.9361 L1392.28 43.2069 Q1392.28 38.0623 1388.87 35.2672 Q1385.51 32.4315 1379.4 32.4315 Q1375.51 32.4315 1371.82 33.3632 Q1368.13 34.295 1364.73 36.1584 L1364.73 29.2718 Q1368.82 27.692 1372.67 26.9223 Q1376.52 26.1121 1380.16 26.1121 Q1390.01 26.1121 1394.87 31.2163 Q1399.73 36.3204 1399.73 46.6907 Z" fill="#000000" fill-rule="evenodd" fill-opacity="1" /><path clip-path="url(#clip700)" d="M1422.46 14.324 L1422.46 27.2059 L1437.81 27.2059 L1437.81 32.9987 L1422.46 32.9987 L1422.46 57.6282 Q1422.46 63.1779 1423.96 64.7578 Q1425.49 66.3376 1430.15 66.3376 L1437.81 66.3376 L1437.81 72.576 L1430.15 72.576 Q1421.52 72.576 1418.24 69.3758 Q1414.96 66.1351 1414.96 57.6282 L1414.96 32.9987 L1409.49 32.9987 L1409.49 27.2059 L1414.96 27.2059 L1414.96 14.324 L1422.46 14.324 Z" fill="#000000" fill-rule="evenodd" fill-opacity="1" /><path clip-path="url(#clip700)" d="M1447.61 27.2059 L1455.07 27.2059 L1455.07 72.576 L1447.61 72.576 L1447.61 27.2059 M1447.61 9.54393 L1455.07 9.54393 L1455.07 18.9825 L1447.61 18.9825 L1447.61 9.54393 Z" fill="#000000" fill-rule="evenodd" fill-opacity="1" /><path clip-path="url(#clip700)" d="M1488.24 32.4315 Q1482.25 32.4315 1478.76 37.1306 Q1475.28 41.7891 1475.28 49.9314 Q1475.28 58.0738 1478.72 62.7728 Q1482.21 67.4314 1488.24 67.4314 Q1494.2 67.4314 1497.68 62.7323 Q1501.17 58.0333 1501.17 49.9314 Q1501.17 41.8701 1497.68 37.1711 Q1494.2 32.4315 1488.24 32.4315 M1488.24 26.1121 Q1497.97 26.1121 1503.51 32.4315 Q1509.06 38.7509 1509.06 49.9314 Q1509.06 61.0714 1503.51 67.4314 Q1497.97 73.7508 1488.24 73.7508 Q1478.48 73.7508 1472.93 67.4314 Q1467.42 61.0714 1467.42 49.9314 Q1467.42 38.7509 1472.93 32.4315 Q1478.48 26.1121 1488.24 26.1121 Z" fill="#000000" fill-rule="evenodd" fill-opacity="1" /><path clip-path="url(#clip700)" d="M1559.13 45.1919 L1559.13 72.576 L1551.68 72.576 L1551.68 45.4349 Q1551.68 38.994 1549.17 35.7938 Q1546.66 32.5936 1541.63 32.5936 Q1535.6 32.5936 1532.11 36.4419 Q1528.63 40.2903 1528.63 46.9338 L1528.63 72.576 L1521.14 72.576 L1521.14 27.2059 L1528.63 27.2059 L1528.63 34.2544 Q1531.3 30.163 1534.91 28.1376 Q1538.56 26.1121 1543.29 26.1121 Q1551.11 26.1121 1555.12 30.9732 Q1559.13 35.7938 1559.13 45.1919 Z" fill="#000000" fill-rule="evenodd" fill-opacity="1" /><polyline clip-path="url(#clip702)" style="stroke:#009af9; stroke-linecap:butt; stroke-linejoin:round; stroke-width:4; stroke-opacity:1; fill:none" points="
  316.984,767.561 317.661,767.259 318.338,767.2 319.014,766.921 319.691,766.434 320.368,766.654 321.044,766.634 321.721,766.843 322.398,766.587 323.074,766.575 
  323.751,766.34 324.428,766.571 325.104,766.563 325.781,766.558 326.458,766.553 327.134,766.774 327.811,766.982 328.488,766.952 329.164,766.699 329.841,766.915 
  330.517,766.893 331.194,767.097 331.871,767.514 332.547,767.23 333.224,766.516 333.901,766.3 334.577,766.323 335.254,766.12 335.931,766.605 336.607,766.834 
  337.284,767.049 337.961,766.576 338.637,765.911 339.314,765.741 339.991,765.358 340.667,765.452 341.344,765.766 342.021,766.06 342.697,765.885 343.374,765.723 
  344.051,765.796 344.727,765.191 345.404,764.852 346.08,765.66 346.757,765.965 347.434,765.801 348.11,766.323 348.787,766.586 349.464,766.384 350.14,766.196 
  350.817,765.797 351.494,765.651 352.17,765.29 352.847,765.179 353.524,765.524 354.2,765.623 354.877,765.265 355.554,765.156 356.23,765.057 356.907,764.74 
  357.584,764.894 358.26,765.039 358.937,765.623 359.614,765.72 360.29,765.812 360.967,765.448 361.643,765.334 362.32,765.004 362.997,765.145 363.673,765.277 
  364.35,765.4 365.027,765.29 365.703,765.413 366.38,765.303 367.057,764.976 367.733,765.346 368.41,765.018 369.087,764.937 369.763,765.088 370.44,765.229 
  371.117,765.137 371.793,765.501 372.47,765.618 373.147,765.727 373.823,765.605 374.5,765.043 375.177,765.418 375.853,765.545 376.53,765.439 377.206,765.565 
  377.883,765.908 378.56,766.004 379.236,765.869 379.913,765.968 380.59,765.612 381.266,765.504 381.943,765.404 382.62,765.311 383.296,765.45 383.973,765.58 
  384.65,765.928 385.326,766.028 386.003,766.122 386.68,765.985 387.356,765.858 388.033,765.515 388.71,765.195 389.386,765.347 390.063,765.714 390.74,765.832 
  391.416,765.718 392.093,765.838 392.769,765.95 393.446,765.83 394.123,766.169 394.799,766.037 395.476,766.139 396.153,766.461 396.829,766.312 397.506,765.95 
  398.183,765.838 398.859,765.96 399.536,766.299 400.213,766.166 400.889,766.268 401.566,765.914 402.243,765.809 402.919,765.936 403.596,766.055 404.273,766.167 
  404.949,766.271 405.626,765.92 406.303,765.593 406.979,765.738 407.656,765.874 408.332,766.451 409.009,766.766 409.686,766.836 410.362,766.676 411.039,766.303 
  411.716,766.18 412.392,766.066 413.069,766.633 413.746,766.49 414.422,766.131 415.099,766.022 415.776,765.921 416.452,766.052 417.129,765.951 417.806,766.308 
  418.482,766.417 419.159,766.295 419.836,766.406 420.512,766.287 421.189,766.177 421.866,766.526 422.542,766.851 423.219,767.381 423.895,767.426 424.572,767.244 
  425.249,767.3 425.925,767.127 426.602,766.967 427.279,766.817 427.955,766.903 428.632,766.984 429.309,767.285 429.985,767.342 430.662,767.62 431.339,767.656 
  432.015,767.69 432.692,767.498 433.369,767.543 434.045,767.362 434.722,767.417 435.399,767.694 436.075,767.954 436.752,767.971 437.429,768.213 438.105,768.439 
  438.782,768.426 439.458,768.415 440.135,768.405 440.812,768.171 441.488,767.953 442.165,768.201 442.842,768.208 443.518,768.216 444.195,768.448 444.872,768.217 
  445.548,767.552 446.225,767.382 446.902,767.224 447.578,767.527 448.255,767.586 448.932,767.866 449.608,768.129 450.285,768.149 450.962,768.17 451.638,767.965 
  452.315,767.774 452.991,767.373 453.668,767.673 454.345,767.505 455.021,767.574 455.698,767.863 456.375,768.134 457.051,768.162 457.728,767.964 458.405,767.779 
  459.081,767.608 459.758,767.674 460.435,767.737 461.111,768.02 461.788,767.836 462.465,767.889 463.141,767.939 463.818,767.537 464.495,767.386 465.171,767.47 
  465.848,767.55 466.525,767.85 467.201,767.906 467.878,768.184 468.554,767.994 469.231,767.593 469.908,767.669 470.584,767.741 471.261,767.808 471.938,768.321 
  472.614,768.576 473.291,768.59 474.144,768.323 474.821,767.902 475.497,767.51 476.174,767.819 476.851,767.546 477.527,767.517 478.204,767.49 478.881,767.916 
  479.557,768.314 480.234,768.461 480.911,768.262 481.587,768.301 482.264,768.114 482.941,768.163 483.617,768.211 484.294,768.931 484.971,769.153 485.647,769.137 
  486.324,769.123 487.001,769.11 487.677,769.099 488.354,768.976 489.03,768.413 489.707,768.337 490.384,768.268 491.06,768.428 491.737,768.578 492.414,768.945 
  493.09,769.061 493.767,769.059 494.444,768.834 495.12,768.849 495.797,769.088 496.474,768.974 497.15,769.094 497.827,768.981 498.504,769.102 499.18,769.103 
  499.857,768.767 500.534,768.568 501.21,768.158 501.887,768.001 502.564,768.416 503.24,768.356 503.917,768.75 504.593,768.894 505.27,768.916 505.947,768.713 
  506.623,768.748 507.3,768.557 507.977,769.054 508.653,769.181 509.33,768.851 510.007,768.769 510.683,768.806 511.36,768.729 512.037,768.545 512.713,768.71 
  513.39,768.528 514.067,768.471 514.743,768.419 515.42,768.259 516.097,768.448 516.773,768.85 517.45,769.225 518.126,769.239 518.803,769.59 519.48,769.805 
  520.156,769.895 520.833,770.316 521.51,770.597 522.186,770.636 522.863,770.335 523.54,770.168 524.216,770.35 524.893,770.183 525.57,769.803 526.246,769.448 
  526.923,769.342 527.6,769.582 528.276,769.357 528.953,769.485 529.63,769.83 530.306,769.366 530.983,769.046 531.66,768.972 532.336,769.129 533.013,769.612 
  533.689,769.952 534.366,770.157 535.043,769.899 535.719,769.547 536.22,769.553 536.896,769.224 537.573,768.918 538.25,768.634 538.926,768.37 539.603,768.461 
  540.279,768.547 540.956,768.178 541.633,767.609 542.309,767.528 542.986,767.453 543.663,767.609 544.339,767.53 545.016,767.233 545.693,767.406 546.369,767.343 
  547.046,767.51 547.723,768.115 548.399,768.006 549.076,767.904 549.753,767.587 550.429,766.841 551.106,766.596 551.783,766.368 552.459,766.83 553.136,767.262 
  553.813,767.892 554.489,768.032 555.166,767.713 555.842,767.416 556.519,767.139 557.196,766.432 557.872,766.446 558.549,766.685 559.226,766.909 559.902,767.568 
  560.579,767.734 561.256,767.89 561.932,768.036 562.609,767.724 563.286,767.883 563.962,767.807 564.639,768.187 565.316,768.092 565.992,768.004 566.669,767.698 
  567.346,767.638 568.022,767.581 568.699,767.977 569.375,768.123 570.052,768.259 570.729,767.938 571.405,767.864 572.082,767.57 572.759,767.521 573.435,767.7 
  574.112,767.644 574.789,767.593 575.465,767.77 576.142,767.937 576.819,768.092 577.495,768.014 578.172,767.717 578.849,767.664 579.525,767.615 580.202,767.346 
  580.879,767.319 581.555,767.295 582.232,767.723 582.908,767.899 583.585,768.512 584.262,768.86 584.938,768.962 585.615,768.384 586.292,768.295 586.968,767.988 
  587.645,767.927 588.322,768.32 588.998,768.464 589.675,768.374 590.352,768.29 591.028,768.437 591.705,768.349 592.382,768.268 593.058,768.192 593.735,767.672 
  594.412,767.637 595.088,767.83 595.765,768.236 596.442,768.615 597.118,768.519 597.795,768.657 598.471,768.56 599.148,768.247 599.825,768.18 600.501,768.567 
  601.178,768.479 601.855,768.624 602.531,768.535 603.208,768.677 603.885,769.035 604.561,769.145 605.238,768.799 605.915,768.701 606.591,768.611 607.268,768.528 
  607.945,768.901 608.621,768.574 609.298,768.944 609.975,769.065 610.651,768.729 611.328,768.416 612.004,768.35 612.681,768.288 613.358,768.006 614.034,768.192 
  614.711,768.142 615.388,768.095 616.064,768.277 616.741,768.447 617.418,768.381 618.094,768.096 618.771,767.831 619.448,768.034 620.124,767.774 620.801,767.984 
  621.478,768.182 622.154,767.918 622.831,768.123 623.508,767.865 624.184,767.85 624.861,767.613 625.537,767.841 626.214,767.83 626.891,768.046 627.744,768.018 
  628.421,767.999 629.097,767.983 629.774,768.306 630.45,768.608 631.127,768.554 631.804,768.168 632.48,768.594 633.157,768.88 633.834,769.261 634.51,769.392 
  635.187,769.628 635.864,769.4 636.54,769.412 637.217,769.874 637.894,769.631 638.57,769.518 639.247,769.974 639.924,770.289 640.6,770.358 641.277,770.312 
  641.954,770.157 642.63,770.013 643.307,769.767 643.983,769.988 644.66,769.97 645.337,770.179 646.013,770.488 646.69,770.664 647.367,770.492 648.043,770.333 
  648.72,770.184 649.397,770.047 650.073,770.032 650.75,770.243 651.427,770.441 652.103,770.739 652.78,771.018 653.457,770.717 654.133,770.549 654.81,770.393 
  655.487,770.249 656.163,770.564 656.84,770.747 657.516,770.581 658.193,770.653 658.87,771.057 659.546,771.097 660.223,770.911 660.9,770.962 661.576,771.123 
  662.253,771.161 662.93,771.534 663.606,770.983 664.283,771.369 664.96,772.18 665.636,772.038 666.313,771.905 666.99,772.456 667.666,772.41 668.343,772.255 
  669.02,771.887 669.696,771.993 670.373,772.206 671.049,771.731 671.726,771.626 672.403,772.315 673.079,771.836 673.756,771.388 674.433,771.757 675.109,771.765 
  675.786,770.986 676.463,771.383 677.139,772.205 677.816,771.736 678.493,770.85 679.169,771.597 679.846,772.182 680.523,772.168 681.199,772.267 681.876,773.034 
  682.553,772.739 683.229,772.239 683.906,771.998 684.582,772.223 685.259,771.985 685.936,771.201 686.612,771.819 687.289,771.834 687.966,771.511 688.642,771.548 
  689.319,771.695 689.819,771.714 690.496,770.839 691.173,770.023 691.849,769.261 692.526,769.45 693.202,769.626 693.879,769.792 694.556,770.171 695.232,770.075 
  695.909,770.21 696.586,770.336 697.262,770.678 697.939,770.547 698.616,770.425 699.292,770.087 699.969,769.771 700.646,769.7 701.322,769.858 701.999,769.557 
  702.676,769.501 703.352,769.899 704.029,770.046 704.705,770.183 705.382,770.087 706.059,769.774 706.735,769.482 707.412,769.21 708.089,769.63 708.765,770.023 
  709.442,769.94 710.119,770.088 710.795,770.228 711.472,769.685 712.149,769.406 712.825,768.92 713.502,769.367 714.179,769.56 714.855,769.516 715.532,769.701 
  716.209,770.549 716.885,770.666 717.562,770.552 718.238,770.67 718.915,770.557 719.592,770.227 720.268,769.921 720.945,770.085 721.622,770.464 722.298,770.593 
  722.975,770.713 723.652,770.826 724.328,770.708 725.005,770.598 725.682,770.497 726.358,770.403 727.035,770.092 727.712,768.679 728.388,767.135 729.065,764.573 
  729.742,760.384 730.418,754.678 731.095,747.555 731.771,737.986 732.448,727.032 733.125,714.337 733.801,700.466 734.478,685.498 735.155,669.73 735.831,653.89 
  736.508,638.209 737.185,621.551 737.861,605.33 738.538,588.843 739.215,571.883 739.891,553.582 740.568,534.703 741.245,515.736 741.921,496.236 742.598,476.913 
  743.274,457.531 743.951,438.768 744.628,420.582 745.304,402.711 745.981,385.133 746.658,368.28 747.334,353 748.011,338.514 748.688,324.771 749.364,312.17 
  750.041,300.859 750.718,290.976 751.394,280.405 752.071,271.214 752.748,261.961 753.424,253.777 754.101,246.138 754.778,239.235 755.454,233.241 756.131,227.424 
  756.807,221.996 757.484,216.931 758.161,212.205 758.837,207.571 759.514,203.471 760.191,198.97 760.867,195.444 761.544,192.829 762.221,189.715 762.897,186.81 
  763.574,184.323 764.251,181.553 764.927,179.193 765.604,176.991 766.281,174.712 766.957,172.362 767.634,170.394 768.31,168.557 768.987,167.293 769.664,164.09 
  770.34,162.225 771.017,162.282 771.694,160.537 772.37,160.256 773.047,160.668 773.724,160.604 774.4,161.667 775.077,164.008 775.754,167.318 776.43,170.631 
  777.107,175.071 777.784,181.462 778.46,188.553 779.137,196.071 779.814,202.866 780.49,209.657 781.167,217.794 781.843,227.188 782.52,237.98 783.197,248.502 
  783.873,259.896 784.55,271.657 785.227,283.535 785.903,296.643 786.58,308.652 787.257,321.66 787.933,336.049 788.61,351.053 789.287,365.058 789.963,379.48 
  790.64,393.84 791.317,408.818 791.993,422.124 792.67,436.341 793.346,450.285 794.023,464.424 794.7,478.52 795.376,492.353 796.053,506.164 796.73,521.528 
  797.406,536.318 798.083,549 798.76,561.963 799.436,575.637 800.113,587.726 800.79,598.337 801.466,608.242 802.143,618.836 802.82,629.176 803.496,637.479 
  804.173,644.78 804.85,652.494 805.526,661.943 806.203,669.189 806.879,674.156 807.556,681.263 808.233,688.346 808.909,693.161 809.586,697.88 810.263,703.634 
  810.939,708.557 811.616,710.905 812.293,716.242 812.969,720.775 813.646,723.66 814.323,725.903 814.999,729.345 815.676,732.335 816.353,735.351 817.029,737.945 
  817.706,739.691 818.382,741.772 819.059,743.715 819.736,746.43 820.412,748.515 821.089,748.441 821.766,749.27 822.442,750.269 823.119,752.099 823.796,754.256 
  824.472,756.27 825.149,757.477 825.826,757.704 826.502,756.341 827.179,756.415 827.856,759.18 828.532,762.212 829.209,763.019 829.885,762.648 830.562,762.977 
  831.239,763.96 831.915,763.528 832.592,763.352 833.269,763.861 833.945,766.137 834.622,765.789 835.299,765.464 835.975,768.084 836.652,770.081 837.329,769.025 
  838.005,768.039 838.682,767.569 839.359,767.581 840.035,768.268 840.712,768.46 841.388,768.865 842.065,770.368 842.742,771.32 843.418,770.861 844.095,769.984 
  844.772,769.615 845.448,769.046 846.125,767.616 846.802,768.53 847.478,771.183 848.155,772.311 848.832,769.318 849.508,767.872 850.185,769.67 850.862,771.799 
  851.538,771.092 852.215,769.758 852.892,770.087 853.568,770.394 854.245,770.907 854.921,770.714 855.598,771.208 856.275,771.897 856.951,770.969 857.628,769.654 
  858.305,767.751 858.981,768.898 859.658,770.643 860.335,771.823 861.011,770.677 861.688,770.957 862.365,770.545 863.041,769.708 863.718,768.253 864.395,770.04 
  865.071,771.259 865.748,771.049 866.424,770.404 867.101,770.701 867.778,770.754 868.454,771.029 869.131,770.387 869.808,771.136 870.484,771.836 871.161,772.041 
  871.838,770.883 872.514,770.703 873.191,771.884 873.868,773.212 874.544,772.881 875.221,770.998 875.898,770.816 876.574,770.645 877.251,771.161 877.927,771.418 
  878.604,771.435 879.281,771.902 879.957,771.888 880.634,771.201 881.311,769.663 881.987,771.375 882.664,773.199 883.341,773.555 884.017,772.987 884.694,771.784 
  885.371,771.562 886.047,772.48 886.724,773.563 887.401,772.553 888.077,772.51 888.754,773.594 889.43,773.933 890.107,772.903 890.784,773.517 891.46,773.642 
  892.137,774.208 892.814,773.167 893.49,773.096 894.167,772.132 894.844,769.658 895.52,769.37 896.197,772.251 896.874,773.143 897.55,771.279 898.227,770.889 
  898.904,772.097 899.58,771.877 900.257,770.998 900.933,769.277 901.61,770.82 902.287,772.71 902.963,772.228 903.64,770.653 904.317,770.982 904.993,772.189 
  905.67,771.518 906.347,769.094 907.023,769.078 907.7,770.637 908.377,771.193 909.053,770.138 909.73,770.503 910.407,771.966 911.083,771.758 911.76,770.439 
  912.436,770.782 913.113,772.226 913.79,772.45 914.466,771.086 915.143,771.161 915.82,772.131 916.496,772.361 917.173,771.453 917.85,770.155 918.526,771.192 
  919.203,771.486 919.88,771.762 920.556,771.119 921.233,770.07 921.91,769.544 922.586,771.749 923.263,772.461 923.939,770.654 924.616,769.416 925.293,771.183 
  925.969,770.135 926.646,768.931 927.323,771.853 927.999,775.032 928.676,773.057 929.353,771.887 930.029,773.045 930.706,772.101 931.383,770.547 932.059,772.02 
  932.736,773.621 933.413,776.018 934.089,774.885 934.766,771.804 935.442,771.401 936.119,773.273 936.796,775.246 937.472,773.27 938.149,771.428 938.826,773.079 
  939.502,773.947 940.179,771.837 940.856,770.542 941.532,772.03 942.209,773.195 942.886,772.26 943.562,771.836 944.239,773.24 944.916,774.327 945.592,772.868 
  946.269,771.057 946.945,771.616 947.622,773.038 948.299,773.017 948.975,772.774 949.652,773.672 950.329,773.838 951.005,773.769 951.682,773.256 952.359,772.553 
  953.035,771.223 953.712,772.232 954.389,773.623 955.065,771.327 955.742,773.005 956.418,775.471 957.095,773.502 957.772,771.666 958.448,773.323 959.125,773.973 
  959.802,772.784 960.478,772.125 961.155,771.06 961.832,770.966 962.508,771.102 963.185,773.479 963.862,775.475 964.538,775.543 965.215,772.687 965.892,770.244 
  966.568,768.862 967.245,771.168 967.921,773.771 968.598,773.955 969.275,773.905 969.951,772.96 970.628,771.626 971.305,770.83 971.981,771.662 972.658,773.563 
  973.335,772.868 974.011,770.646 974.688,769.472 975.365,770.399 976.041,772.164 976.718,772.689 977.395,773.18 978.071,773.64 978.748,772.946 979.424,771.625 
  980.101,771.29 980.778,772.103 981.454,772.863 982.131,773.124 982.808,772.469 983.484,773.656 984.161,774.317 984.838,774.485 985.514,772.619 986.191,771.102 
  986.868,772.159 987.544,772.698 988.221,772.751 988.898,770.552 989.574,769.623 990.251,772.352 990.927,775.125 991.604,772.545 992.281,771.934 992.957,771.363 
  993.634,772.854 994.311,774.921 994.987,775.505 995.664,774.478 996.341,773.294 997.017,772.187 997.694,772.053 998.371,773.952 999.047,775.5 999.724,774.474 
  1000.4,771.944 1001.08,770.482 1001.75,771.816 1002.43,772.16 1003.11,773.605 1003.78,776.754 1004.46,775.646 1005.14,773.488 1005.81,772.822 1006.49,773.099 
  1007.17,773.808 1007.84,773.572 1008.52,774.026 1009.2,774.45 1009.87,775.297 1010.55,775.415 1011.23,774.4 1011.9,773.229 1012.58,773.936 1013.26,775.27 
  1013.93,774.717 1014.61,773.753 1015.29,774.203 1015.96,774.175 1016.64,773.699 1017.32,773.706 1017.99,774.611 1018.67,775.008 1019.35,774.254 1020.02,771.302 
  1020.7,770.796 1021.38,772.348 1022.05,773.121 1022.73,772.044 1023.41,772.838 1024.08,774.929 1024.76,776.207 1025.44,773.579 1026.11,772.701 1026.79,774.356 
  1027.47,774.552 1028.14,774.512 1028.82,772.453 1029.5,771.882 1030.17,774.271 1030.85,773.579 1031.53,771.809 1032.2,771.506 1032.88,772.571 1033.56,772.215 
  1034.23,770.984 1034.91,772.307 1035.59,775.116 1036.26,775.719 1036.94,774.711 1037.62,775.119 1038.29,774.827 1038.97,773.429 1039.65,772.349 1040.32,772.688 
  1041,774.578 1041.68,775.22 1042.35,774.698 1043.03,774.438 1043.71,774.646 1044.38,774.617 1045.06,773.016 1045.74,771.971 1046.41,773.019 1047.09,774.223 
  1047.77,773.324 1048.44,772.262 1049.12,773.07 1049.8,774.049 1050.47,774.064 1051.15,774.08 1051.83,773.647 1052.5,773.692 1053.18,773.734 1053.86,773.548 
  1054.53,773.601 1055.21,773.202 1055.89,772.83 1056.56,773.831 1057.24,774.093 1057.92,774.788 1058.59,775.213 1059.27,775.834 1059.95,775.517 1060.62,773.872 
  1061.3,770.539 1061.98,773.273 1062.65,775.376 1063.33,775.317 1064.01,774.588 1064.68,773.458 1065.36,774.427 1066.04,776.231 1066.71,776.344 1067.39,776.227 
  1068.07,775.671 1068.74,776.278 1069.42,775.946 1070.09,775.414 1070.77,774.469 1071.45,774.037 1072.12,774.986 1072.8,775.646 1073.48,775.366 1074.15,772.405 
  1074.83,773.012 1075.51,775.377 1076.18,775.788 1076.86,774.825 1077.54,775.276 1078.21,775.698 1078.89,775.867 1079.57,775.352 1080.24,775.546 1080.92,776.403 
  1081.6,775.63 1082.27,775.36 1082.95,774.883 1083.63,774.888 1084.3,774.667 1084.98,774.462 1085.66,774.047 1086.33,775.01 1087.01,774.109 1087.69,774.394 
  1088.36,776.234 1089.04,776.381 1089.72,775.169 1090.39,774.938 1091.07,776.296 1091.75,775.093 1092.42,773.52 1093.1,773.851 1093.78,774.16 1094.45,774.226 
  1095.13,773.612 1095.81,771.239 1096.48,771.047 1097.16,772.215 1097.84,772.855 1098.51,773.227 1099.19,774.924 1099.87,777.634 1100.54,775.668 1101.22,772.262 
  1101.9,773.352 1102.57,775.72 1103.25,776.135 1103.93,775.623 1104.6,775.596 1105.28,775.122 1105.96,774.905 1106.63,774.478 1107.31,774.305 1107.99,773.919 
  1108.66,774.457 1109.34,775.41 1110.02,775.625 1110.69,775.151 1111.37,775.61 1112.05,774.691 1112.72,775.63 1113.4,776.957 1114.08,775.501 1114.75,774.142 
  1115.43,774.221 1116.11,773.845 1116.78,774.394 1117.46,776.031 1118.14,776.661 1118.81,775.226 1119.49,774.787 1120.17,774.603 1120.84,775.105 1121.52,774.901 
  1122.2,774.937 1122.87,776.32 1123.55,776.713 1124.23,775.731 1124.9,775.489 1125.58,775.49 1126.26,774.816 1126.93,774.636 1127.61,774.693 1128.29,774.297 
  1128.96,774.152 1129.64,774.69 1130.32,775.192 1130.99,774.987 1131.67,776.145 1132.35,777.9 1133.02,776.616 1133.7,776.318 1134.38,776.715 1135.05,777.087 
  1135.73,778.56 1136.41,777.464 1137.08,775.545 1137.76,776.9 1138.44,778.391 1139.11,777.763 1139.79,776.954 1140.47,776.649 1141.14,776.366 1141.82,776.102 
  1142.5,776.981 1143.17,776.679 1143.85,776.622 1144.53,776.571 1145.2,776.073 1145.88,776.509 1146.56,776.242 1147.23,775.544 1147.91,775.34 1148.59,775.826 
  1149.26,776.729 1149.94,776.448 1150.62,776.187 1151.29,777.069 1151.97,777.218 1152.65,776.46 1153.32,775.753 1154,776.218 1154.68,775.755 1155.35,775.772 
  1156.03,773.766 1156.71,773.468 1157.38,774.988 1158.06,775.509 1158.74,774.198 1159.41,774.773 1160.09,775.761 1160.77,775.783 1161.44,774.231 1162.12,773.008 
  1162.8,773.439 1163.47,773.839 1164.15,773.313 1164.83,773.946 1165.5,775.211 1166.18,775.941 1166.86,775.275 1167.53,775.553 1168.21,775.813 1168.89,775.606 
  1169.56,775.638 1170.24,774.995 1170.92,775.744 1171.59,778.468 1172.27,776.964 1172.94,774.664 1173.62,776.339 1174.3,778.578 1174.97,777.748 1175.65,776.074 
  1176.33,773.839 1177,773.775 1177.68,775.287 1178.36,776.475 1179.03,777.36 1179.71,778.189 1180.39,779.415 1181.06,778.314 1181.74,773.915 1182.42,772.73 
  1183.09,775.445 1183.77,776.406 1184.45,776.63 1185.12,777.966 1185.8,777.416 1186.48,775.104 1187.15,774.744 1187.83,775.307 1188.51,776.958 1189.18,777.376 
  1189.86,776.645 1190.54,775.289 1191.21,774.923 1191.89,775.481 1192.57,776.002 1193.24,775.591 1193.92,776.782 1194.6,775.421 1195.27,775.725 1195.95,775.11 
  1196.63,776.559 1197.3,777.013 1197.98,776.988 1198.66,776.291 1199.33,776.989 1200.01,776.744 1200.69,777.415 1201.36,776.693 1202.04,776.47 1202.72,776.037 
  1203.39,776.083 1204.07,774.103 1204.75,775.402 1205.42,776.839 1206.1,776.158 1206.78,775.749 1207.45,779.413 1208.13,776.765 1208.81,774.519 1209.48,775.343 
  1210.16,777.012 1210.84,776.101 1211.51,777.048 1212.19,778.383 1212.87,775.583 1213.54,772.522 1214.22,775.505 1214.9,776.043 1215.57,776.322 1216.25,776.36 
  1216.93,777.295 1217.6,775.472 1218.28,773.771 1218.96,774.88 1219.63,776.59 1220.31,776.613 1220.99,776.86 1221.66,777.318 1222.34,777.296 1223.02,776.827 
  1223.69,775.716 1224.37,776.027 1225.05,777.218 1225.72,777.206 1226.4,776.297 1227.08,777.471 1227.75,777.893 1228.43,778.062 1229.11,777.097 1229.78,777.096 
  1230.46,776.645 1231.14,777.799 1231.81,776.179 1232.49,775.79 1233.17,776.103 1233.84,777.519 1234.52,776.818 1235.2,775.492 1235.87,774.929 1236.55,777.327 
  1237.23,777.767 1237.9,778.628 1238.58,777.636 1239.26,776.937 1239.93,775.834 1240.61,777.502 1241.29,779.284 1241.96,782.299 1242.64,782.864 1243.32,787.886 
  1243.99,791.225 1244.67,795.692 1245.35,801.435 1246.02,809.494 1246.7,816.341 1247.38,825.205 1248.05,835.276 1248.73,846.25 1249.41,856.718 1250.08,869.635 
  1250.76,885.287 1251.44,899.222 1252.11,910.881 1252.79,925.584 1253.47,940.654 1254.14,956.29 1254.82,974.48 1255.5,992.806 1256.17,1008.56 1256.85,1023.72 
  1257.53,1039.21 1258.2,1053.22 1258.88,1067.65 1259.56,1083.58 1260.23,1097.56 1260.91,1109.7 1261.59,1121.48 1262.26,1131.58 1262.94,1140.79 1263.62,1150.27 
  1264.29,1157.55 1264.97,1164.8 1265.65,1172.01 1266.32,1178.3 1267,1183.71 1267.68,1188.76 1268.35,1193.93 1269.03,1197.18 1269.71,1201.79 1270.38,1206.31 
  1271.06,1208.97 1271.74,1213.01 1272.41,1215.45 1273.09,1217.27 1273.76,1221.66 1274.44,1224.42 1275.12,1226.54 1275.79,1230.1 1276.47,1231.84 1277.15,1233.02 
  1277.82,1234.8 1278.5,1236.91 1279.18,1237.98 1279.85,1239.43 1280.53,1240.78 1281.21,1242.49 1281.88,1244.32 1282.56,1245.8 1283.24,1246.28 1283.91,1248.08 
  1284.59,1249.99 1285.27,1250.42 1285.94,1250.59 1286.62,1251.88 1287.3,1252.42 1287.97,1252.91 1288.65,1254.05 1289.33,1254.66 1290,1254.79 1290.68,1256.47 
  1291.36,1257.83 1292.03,1257.29 1292.71,1258.14 1293.39,1258.71 1294.06,1258.79 1294.74,1259.77 1295.42,1261.35 1296.09,1261.48 1296.77,1260.48 1297.45,1260 
  1298.12,1260.45 1298.8,1260.87 1299.48,1262.16 1300.15,1262.47 1300.83,1262.3 1301.51,1262.38 1302.18,1262.22 1302.86,1263.2 1303.54,1262.99 1304.21,1261.9 
  1304.89,1259.53 1305.57,1257.09 1306.24,1253.7 1306.92,1249.4 1307.6,1243.82 1308.27,1237.49 1308.95,1228.89 1309.63,1221.08 1310.3,1212 1310.98,1202.18 
  1311.66,1191.43 1312.33,1179.39 1313.01,1166.57 1313.69,1154.61 1314.36,1139.62 1315.04,1123.84 1315.72,1109.11 1316.39,1093.56 1317.07,1079.28 1317.75,1063.03 
  1318.42,1047.41 1319.1,1031.93 1319.78,1016.59 1320.45,1002.05 1321.13,989.372 1321.81,974.397 1322.48,959.747 1323.16,947.645 1323.84,936.127 1324.51,926.05 
  1325.19,915.972 1325.87,907.241 1326.54,898.645 1327.22,890.845 1327.9,883.116 1328.57,877.477 1329.25,874.237 1329.93,870.764 1330.6,868.422 1331.28,867.585 
  1331.96,864.782 1332.63,864.189 1333.31,864.086 1333.99,864.439 1334.66,862.746 1335.34,861.615 1336.02,860.561 1336.69,858.679 1337.37,856.248 1338.05,853.306 
  1338.72,850.786 1339.4,847.311 1340.08,843.393 1340.75,839.063 1341.43,835.472 1342.11,830.998 1342.78,826.597 1343.46,823.614 1344.14,820.83 1344.81,817.783 
  1345.49,815.166 1346.17,812.499 1346.84,810.46 1347.52,807.884 1348.2,806.154 1348.87,804.316 1349.55,802.601 1350.23,800.327 1350.9,799.554 1351.58,799.283 
  1352.26,796.784 1352.93,794.003 1353.61,792.981 1354.29,792.253 1354.96,791.798 1355.64,791.376 1356.32,790.533 1356.99,788.623 1357.67,787.289 1358.35,787.167 
  1359.02,787.281 1359.7,786.265 1360.38,785.542 1361.05,784.419 1361.73,784.719 1362.41,784.327 1363.08,783.512 1363.76,783.2 1364.44,782.91 1365.11,782.641 
  1365.79,782.166 1366.47,781.723 1367.14,781.31 1367.82,781.15 1368.5,780.777 1369.17,780.655 1369.85,780.092 1370.53,779.791 1371.2,780.41 1371.88,780.539 
  1372.55,780.21 1373.23,780.129 1373.91,779.829 1374.58,779.55 1375.26,779.515 1375.94,779.484 1376.61,779.454 1377.29,779.428 1377.97,779.404 1378.64,779.383 
  1379.32,779.14 1380,779.139 1380.67,779.364 1381.35,779.349 1382.03,779.11 1382.7,779.114 1383.38,779.118 1384.06,779.346 1384.73,779.111 1385.41,778.893 
  1386.09,778.914 1386.76,778.934 1387.44,778.505 1388.12,778.778 1388.79,778.36 1389.47,778.195 1390.15,778.043 1390.82,778.126 1391.5,777.979 1392.18,777.843 
  1392.85,777.942 1393.53,778.035 1394.21,778.123 1394.88,777.981 1395.56,778.076 1396.24,777.941 1396.91,778.04 1397.59,778.133 1398.27,777.995 1398.94,777.643 
  1399.62,777.765 1400.3,778.103 1400.97,778.421 1401.65,778.718 1402.33,778.546 1403,778.611 1403.68,778.672 1404.36,778.728 1405.03,778.557 1405.71,778.397 
  1406.39,778.922 1407.06,778.291 1407.74,778.376 1408.42,778.232 1409.09,778.323 1409.77,778.408 1410.45,778.714 1411.12,778.775 1411.8,779.058 1412.48,779.098 
  1413.15,778.911 1413.83,779.187 1414.51,778.996 1415.18,778.819 1415.86,779.105 1416.54,778.923 1417.21,778.305 1417.89,778.178 1418.57,778.735 1419.24,778.582 
  1419.92,778.214 1420.6,778.545 1421.27,778.632 1421.95,778.263 1422.63,777.921 1423.3,778.5 1423.98,778.368 1424.66,778.471 1425.33,778.792 1426.01,778.868 
  1426.69,778.715 1427.36,779.247 1428.04,779.295 1428.72,778.891 1429.39,778.963 1430.07,779.031 1430.75,778.647 1431.42,778.737 1432.1,778.823 1432.78,778.904 
  1433.45,778.981 1434.13,779.279 1434.81,779.334 1435.48,778.936 1436.16,779.015 1436.84,779.315 1437.51,778.921 1438.19,779.229 1438.87,779.291 1439.54,779.125 
  1440.22,779.645 1440.9,780.131 1441.57,779.686 1442.25,779.272 1442.93,779.111 1443.6,778.511 1444.28,778.626 1444.96,778.734 1445.63,778.836 1446.31,778.707 
  1446.99,778.588 1447.66,778.477 1448.34,778.598 1449.02,778.937 1449.69,778.803 1450.37,779.354 1451.05,779.194 1451.72,778.821 1452.4,778.698 1453.08,778.809 
  1453.75,778.464 1454.43,779.041 1455.11,778.906 1455.78,779.006 1456.46,779.099 1457.14,778.737 1457.81,779.074 1458.49,779.164 1459.17,779.024 1459.84,779.344 
  1460.52,779.42 1461.2,779.267 1461.87,779.124 1462.55,779.441 1463.23,779.064 1463.9,779.162 1464.58,779.255 1465.26,779.568 1465.93,779.186 1466.61,779.281 
  1467.28,779.145 1467.96,779.019 1468.64,778.902 1469.31,778.793 1469.99,778.916 1470.67,779.032 1471.34,779.14 1472.02,779.691 1472.7,778.855 1473.37,778.522 
  1474.05,779.333 1474.73,779.863 1475.4,780.355 1476.08,779.914 1476.76,779.274 1477.43,778.9 1478.11,780.348 1478.79,782.595 1479.46,785.589 1480.14,789.28 
  1480.82,793.623 1481.49,799.022 1482.17,805.406 1482.85,812.262 1483.52,821.13 1484.2,829.629 1484.88,839.583 1485.55,850.668 1486.23,864.383 1486.91,877.855 
  1487.58,893.574 1488.26,906.894 1488.94,922.47 1489.61,936.556 1490.29,951.948 1490.97,969.234 1491.64,986.265 1492.32,1003.96 1493,1020.91 1493.67,1039.43 
  1494.35,1058.52 1495.03,1077.67 1495.7,1095.77 1496.38,1114.01 1497.06,1131.26 1497.73,1147.58 1498.41,1164.15 1499.09,1180.52 1499.76,1196.24 1500.44,1210.46 
  1501.12,1224.41 1501.79,1236.97 1502.47,1248.7 1503.15,1260.31 1503.82,1270.47 1504.5,1279.05 1505.18,1287.51 1505.85,1295.4 1506.53,1302.76 1507.21,1310.08 
  1507.88,1317.13 1508.56,1323.04 1509.24,1328.1 1509.91,1333.49 1510.59,1338.97 1511.27,1343.64 1511.94,1345.97 1512.62,1348.81 1513.3,1353.04 1513.97,1356.76 
  1514.65,1358.88 1515.33,1362.87 1516,1365.93 1516.68,1367.43 1517.36,1369.95 1518.03,1373.88 1518.71,1375.74 1519.39,1376.58 1520.06,1380.05 1520.74,1381.72 
  1521.42,1380.58 1522.09,1383.56 1522.77,1386.11 1523.45,1385.8 1524.12,1386.4 1524.8,1386.28 1525.48,1383.92 1526.15,1383.51 1526.83,1381.56 1527.51,1378.83 
  1528.18,1375.38 1528.86,1370.59 1529.54,1365.89 1530.21,1360.38 1530.89,1354.56 1531.57,1347.1 1532.24,1338.8 1532.92,1330.81 1533.6,1321.34 1534.27,1310.92 
  1534.95,1299.4 1535.63,1289.77 1536.3,1279.2 1536.98,1268.89 1537.66,1255.67 1538.33,1244.68 1539.01,1232.39 1539.69,1221.15 1540.36,1207.96 1541.04,1195.64 
  1541.72,1181.45 1542.39,1167.08 1543.07,1154.33 1543.75,1140.64 1544.42,1125.16 1545.1,1110.49 1545.78,1097.24 1546.45,1081.95 1547.13,1066.34 1547.81,1049.96 
  1548.48,1033.77 1549.16,1019.33 1549.84,1006.07 1550.51,991.455 1551.19,976.91 1551.87,963.782 1552.54,950.628 1553.22,939.698 1553.9,926.798 1554.57,917.901 
  1555.25,908.023 1555.93,898.801 1556.6,886.146 1557.28,881.749 1557.95,876.297 1558.63,869.407 1559.31,860.726 1559.98,857.566 1560.66,851.244 1561.34,846.016 
  1562.01,839.787 1562.69,837.566 1563.37,833.47 1564.04,830.093 1564.72,824.468 1565.4,822.587 1566.07,819.255 1566.75,817.941 1567.43,813.34 1568.1,812.865 
  1568.78,809.946 1569.46,808.793 1570.13,804.568 1570.81,805.117 1571.49,802.931 1572.16,801.788 1572.84,798.248 1573.52,798.762 1574.19,796.318 1574.87,795.382 
  1575.55,792.258 1576.22,792.937 1576.9,791.545 1577.58,791.367 1578.25,788.727 1578.93,788.732 1579.61,786.036 1580.28,785.989 1580.96,783.244 1581.64,783.599 
  1582.31,785.051 1582.99,786.407 1583.67,784.75 1584.34,783.428 1585.02,782.19 1585.7,780.133 1586.37,778.659 1587.05,780.428 1587.73,781.178 1588.4,780.528 
  1589.08,779.244 1589.76,778.942 1590.43,777.084 1591.11,776.694 1591.79,777.675 1592.46,777.916 1593.14,776.339 1593.82,775.54 1594.49,776.139 1595.17,775.572 
  1595.85,773.693 1596.52,773.96 1597.2,777.129 1597.88,777.389 1598.55,775.382 1599.23,774.406 1599.91,775.516 1600.58,776.999 1601.26,776.133 1601.94,774.423 
  1602.61,775.522 1603.29,774.972 1603.97,774.907 1604.64,773.27 1605.32,774.886 1606,775.269 1606.67,775.849 1607.35,773.242 1608.03,774.178 1608.7,774.375 
  1609.38,774.332 1610.06,771.143 1610.73,773.109 1611.41,773.367 1612.09,773.831 1612.76,772.237 1613.44,774.342 1614.12,773.157 1614.79,773.622 1615.47,771.357 
  1616.15,772.387 1616.82,771.546 1617.5,773.455 1618.18,774.111 1618.85,775.847 1619.53,775.668 1620.21,775.724 1620.88,773.527 1621.56,772.823 1622.24,772.612 
  1622.91,773.537 1623.59,772.152 1624.27,773.104 1624.94,775.114 1625.62,774.966 1626.3,772.352 1626.97,772.832 1627.65,773.277 1628.33,773.916 1629,774.286 
  1629.68,772.832 1630.36,772.372 1631.03,773.065 1631.71,773.934 1632.39,772.721 1633.06,772.936 1633.74,774.258 1634.42,774.367 1635.09,772.218 1635.77,770.21 
  1636.45,771.254 1637.12,773.349 1637.8,772.381 1638.48,771.924 1639.15,772.168 1639.83,772.844 1640.51,771.673 1641.18,770.577 1641.86,770 1642.54,771.256 
  1643.21,771.078 1643.89,769.785 1644.57,768.575 1645.24,770.141 1645.92,771.153 1646.59,770.297 1647.27,769.497 1647.95,770.996 1648.62,771.717 1649.3,770.363 
  1649.98,767.974 1650.65,770.011 1651.33,769.662 1652.01,768.659 1652.68,767.046 1653.36,769.134 1654.04,771.304 1654.71,770.63 1655.39,767.975 1656.07,769.09 
  1656.74,770.351 1657.42,770.629 1658.1,768.863 1658.77,769.46 1659.45,770.015 1660.13,771.431 1660.8,771.405 1661.48,771.603 1662.16,770.663 1662.83,770.232 
  1663.51,768.03 1664.19,770.018 1664.86,771.872 1665.54,770.68 1666.22,769.116 1666.89,769.902 1667.57,769.96 1668.25,770.46 1668.92,768.901 1669.6,768.118 
  1670.28,768.284 1670.95,769.334 1671.63,768.289 1672.31,768.659 1672.98,769.227 1673.66,770.429 1674.34,769.303 1675.01,768.474 1675.69,769.271 1676.37,769.565 
  1677.04,769.836 1677.72,768.29 1678.4,767.068 1679.07,768.622 1679.75,770.746 1680.43,770.704 1681.1,768.639 1681.78,768.283 1682.46,769.521 1683.13,768.652 
  1683.81,767.614 1684.66,767.808 1685.34,767.949 1686.02,768.078 1686.69,767.186 1687.37,766.912 1688.05,768.9 1688.72,768.508 1689.4,769.487 1690.08,767.926 
  1690.75,768.601 1691.43,767.544 1692.11,767.566 1692.78,767.247 1693.46,768.52 1694.14,769.37 1694.81,769.374 1695.49,768.477 1696.17,768.536 1696.84,770.953 
  1697.52,771.859 1698.2,768.995 1698.87,768.006 1699.55,769.444 1700.23,771.459 1700.9,770.756 1701.58,769.648 1702.26,769.288 1702.93,767.828 1703.61,765.225 
  1704.29,767.624 1704.96,768.512 1705.64,766.418 1706.32,765.698 1706.99,768.395 1707.67,769.897 1708.35,768.152 1709.02,767.083 1709.7,770.019 1710.38,770.285 
  1711.05,767.835 1711.73,765.546 1712.41,766.891 1713.08,767.806 1713.76,767.196 1714.44,764.939 1715.11,764.964 1715.79,766.445 1716.47,767.262 1717.14,766.111 
  1717.82,765.821 1718.5,767.796 1719.17,768.964 1719.85,769.716 1720.53,767.829 1721.2,766.741 1721.88,767.183 1722.56,769.615 1723.23,769.412 1723.91,768.772 
  1724.59,766.71 1725.26,766.24 1725.94,766.584 1726.62,769.374 1727.29,768.604 1727.97,768.332 1728.64,767.513 1729.32,769.104 1730,768.789 1730.67,769.842 
  1731.35,768.687 1732.03,767.605 1732.7,768.841 1733.38,770.668 1734.06,769.225 1734.73,768.324 1735.41,767.481 1736.09,767.479 1736.76,768.149 1737.44,768.548 
  1738.12,767.905 1738.79,768.314 1739.47,767.682 1740.15,767.427 1740.82,767.862 1741.5,769.276 1742.18,768.684 1742.85,766.667 1743.53,764.668 1744.21,766.058 
  1744.88,768.814 1745.56,768.575 1746.24,766.775 1746.74,766.945 1747.41,768.955 1748.09,770.829 1748.77,772.577 1749.44,773.307 1750.12,774.436 1750.8,771.667 
  1751.47,769.304 1752.15,770.017 1752.83,770.904 1753.5,770.157 1754.18,770.581 1754.86,770.525 1755.53,770.021 1756.21,769.098 1756.89,768.011 1757.56,768.12 
  1758.24,767.771 1758.92,767.894 1759.59,766.882 1760.27,765.035 1760.95,766.68 1761.62,768.215 1762.3,767.849 1762.98,767.507 1763.65,767.637 1764.33,768.657 
  1765.01,767.133 1765.68,764.584 1766.36,765.348 1767.04,766.058 1767.71,765.147 1768.39,764.069 1769.07,765.532 1769.74,765.996 1770.42,765.975 1771.1,763.257 
  1771.77,764.539 1772.45,767.305 1773.13,767.637 1773.8,764.348 1774.48,765.322 1775.16,767.578 1775.83,767.884 1776.51,763.224 1777.19,761.569 1777.86,764.293 
  1778.54,766.834 1779.22,763.135 1779.89,761.254 1780.57,763.991 1781.25,767.892 1781.92,764.339 1782.6,760.796 1783.28,762.656 1783.95,766.413 1784.63,763.401 
  1785.31,760.585 1785.98,763.124 1786.66,767.29 1787.34,765.558 1788.01,761.692 1788.69,762.352 1789.37,765.441 1790.04,764.952 1790.72,759.772 1791.4,759.655 
  1792.07,764.265 1792.75,765.644 1793.43,761.986 1794.1,762.167 1794.78,764.58 1795.46,764.807 1796.13,761.196 1796.81,761.644 1797.49,763.858 1798.16,763.901 
  1798.84,760.568 1799.52,759.925 1800.19,763.593 1800.87,766.339 1801.55,764.181 1802.22,762.389 1802.9,763.863 1803.58,765.462 1804.25,765.379 1804.93,762.38 
  1805.61,763.398 1806.28,765.02 1806.96,763.161 1807.64,760.525 1808.31,761.883 1808.99,761.349 1809.67,762.423 1810.34,762.747 1811.02,761.924 1811.7,761.152 
  1812.37,761.329 1813.05,761.267 1813.73,760.084 1814.4,761 1815.08,763.65 1815.76,763.875 1816.43,761.16 1817.11,760.422 1817.78,762.653 1818.46,763.158 
  1819.14,761.604 1819.81,760.825 1820.49,763.242 1821.17,764.371 1821.84,761.602 1822.52,759.464 1823.2,762.185 1823.87,763.6 1824.55,760.649 1825.23,758.79 
  1825.9,761.323 1826.58,761.662 1827.26,759.954 1827.93,759.705 1828.61,761.268 1829.29,764.076 1829.96,763.548 1830.64,759.682 1831.32,756.069 1831.99,759.435 
  1832.67,763.474 1833.35,761.85 1834.02,760.332 1834.7,762.06 1835.38,761.871 1836.05,759.445 1836.73,759.874 1837.58,763.775 1838.26,766.66 1838.94,769.349 
  1839.61,767.587 1840.29,770.434 1840.97,774.327 1841.64,769.082 1842.32,767.102 1843,769.185 1843.67,768.881 1844.35,766.123 1845.03,766.467 1845.7,766.786 
  1846.38,766.069 1847.06,765.399 1847.73,765.893 1848.41,766.128 1849.09,766.458 1849.76,766.202 1850.44,765.288 1851.12,765.669 1851.79,766.359 1852.47,765.991 
  1853.15,763.174 1853.82,763.239 1854.5,763.747 1855.18,764.333 1855.85,764.99 1856.53,764.365 1857.21,763.329 1857.88,763.033 1858.56,761.968 1859.24,760.633 
  1859.91,761.409 1860.59,763.142 1861.27,763.183 1861.94,761.981 1862.62,762.091 1863.3,764.328 1863.97,764.168 1864.65,762.892 1865.33,762.375 1866,763.015 
  1866.68,762.709 1867.36,761.298 1868.03,759.753 1868.71,763.366 1869.39,766.739 1870.06,765.615 1870.74,763.442 1871.42,764.894 1872.09,763.888 1872.77,760.699 
  1873.45,759.066 1874.12,762.148 1874.8,763.787 1875.48,762.284 1876.15,760.765 1876.83,763.054 1877.51,763.166 1878.18,761.02 1878.86,758.228 1879.54,761.014 
  1880.21,764.963 1880.89,764.94 1881.57,760.983 1882.24,760.434 1882.92,760.818 1883.6,763.985 1884.27,763.456 1884.95,763.411 1885.63,762.693 1886.3,762.361 
  1886.98,760.924 1887.66,760.481 1888.33,761.526 1889.01,762.95 1889.69,762.029 1890.36,760.943 1891.04,761.276 1891.72,761.922 1892.39,759.264 1893.07,758.241 
  1893.75,759.757 1894.42,761.172 1895.1,760.018 1895.78,759.051 1896.45,760.395 1897.13,761.759 1897.8,760.559 1898.48,758.312 1899.16,758.346 1899.66,758.867 
  1900.34,759.635 1901.01,760.35 1901.69,761.016 1902.36,759.614 1903.04,759.65 1903.72,758.78 1904.39,757.291 1905.07,757.696 1905.75,759.42 1906.42,758.554 
  1907.1,757.292 1907.78,758.135 1908.45,759.368 1909.13,758.718 1909.81,758.559 1910.48,757.734 1911.16,757.86 1911.84,757.976 1912.51,759.43 1913.19,760.112 
  1913.87,760.297 1914.54,758.443 1915.22,757.384 1915.9,758.868 1916.57,761.15 1917.25,759.681 1917.93,757.858 1918.6,757.278 1919.28,758.982 1919.96,757.423 
  1920.63,757.764 1921.31,757.63 1921.99,759.077 1922.66,759.302 1923.34,759.06 1924.02,757.709 1924.69,757.569 1925.37,758.785 1926.05,759.692 1926.72,758.066 
  1927.4,757.445 1928.08,757.763 1928.75,758.059 1929.43,757.21 1930.11,757.539 1930.78,758.52 1931.46,758.761 1932.14,757.862 1932.81,757.02 1933.49,756.233 
  1934.17,756.842 1934.84,756.51 1935.52,755.748 1936.2,756.608 1936.87,758.757 1937.55,757.166 1938.23,754.33 1938.9,753.026 1939.58,755.403 1940.26,756.495 
  1940.93,757.287 1941.61,755.778 1942.29,757.289 1942.96,757.123 1943.64,754.493 1944.32,754.284 1944.99,757.009 1945.67,758.654 1946.35,755.692 1947.02,754.275 
  1947.7,756.32 1948.38,758.903 1949.05,758.39 1949.73,756.561 1950.41,755.525 1951.08,756.355 1951.76,756.454 1952.44,754.521 1953.11,752.94 1953.79,754.384 
  1954.47,755.056 1955.14,753.883 1955.82,752.561 1956.5,755.595 1957.17,756.85 1957.85,754.648 1958.53,753.039 1959.2,755.133 1959.88,754.613 1960.56,752.552 
  1961.23,752.649 1961.91,756.558 1962.59,757.734 1963.26,755.907 1963.94,754.425 1964.62,756.861 1965.29,757.56 1965.97,755.515 1966.65,754.729 1967.32,756.465 
  1968,758.086 1968.68,758.024 1969.35,756.392 1970.03,755.541 1970.71,757.218 1971.38,757.882 1972.06,755.13 1972.74,755.256 1973.41,756.947 1974.09,756.051 
  1974.77,750.94 1975.44,751.109 1976.12,755.31 1976.8,758.106 1977.47,755.772 1978.15,753.589 1978.83,754.245 1979.5,755.529 1980.18,755.378 1980.86,753.885 
  1981.53,753.839 1982.21,754.916 1982.88,754.346 1983.56,753.812 1984.24,754.884 1984.91,754.986 1985.59,754.628 1986.27,754.516 1986.94,753.734 1987.62,754.128 
  1988.3,754.044 1988.97,754.638 1989.65,754.739 1990.33,754.382 1991,754.047 1991.68,753.283 1992.36,751.442 1993.03,751.744 1993.71,752.923 1994.39,750.648 
  1995.06,746.274 1995.74,744.21 1996.42,742.956 1997.09,737.289 1997.77,729.075 1998.45,720.956 1999.12,714.5 1999.8,705.101 2000.48,693.854 2001.15,681.107 
  2001.83,671.005 2002.51,657.98 2003.18,642.224 2003.86,626.841 2004.54,613.606 2005.21,598.103 2005.89,580.261 2006.57,562.707 2007.24,548.791 2007.92,536.027 
  2008.6,520.965 2009.27,506.231 2009.95,491.354 2010.63,478.816 2011.3,465.762 2011.98,451.103 2012.66,437.195 2013.33,426.01 2014.01,415.569 2014.69,404.698 
  2015.36,394.324 2016.04,384.864 2016.72,376.257 2017.39,369.345 2018.07,362.893 2018.75,355.298 2019.42,348.208 2020.1,342.489 2020.78,337.824 2021.45,332.571 
  2022.13,328.342 2022.81,323.269 2023.48,318.757 2024.16,314.77 2024.84,312.397 2025.51,309.732 2026.19,307.244 2026.87,303.571 2027.54,300.368 2028.22,298.724 
  2028.9,295.616 2029.57,292.04 2030.25,291.397 2030.93,289.447 2031.6,286.727 2032.28,284.859 2032.96,284.462 2033.63,283.866 2034.31,282.409 2034.99,281.045 
  2035.66,279.77 2036.34,278.804 2037.02,277.451 2037.69,275.962 2038.37,275.243 2039.05,275.694 2039.72,274.988 2040.4,273.428 2041.08,272.419 2041.75,272.598 
  2042.43,271.864 2043.11,270.503 2043.78,270.579 2044.46,270.872 2045.14,269.571 2045.81,268.355 2046.49,269.015 2047.17,269.853 2047.84,269.061 2048.52,267.869 
  2049.2,267.205 2049.87,267.036 2050.55,266.426 2051.23,265.406 2051.9,265.8 2052.58,265.94 2053.26,266.068 2053.93,266.185 2054.61,266.742 2055.29,266.809 
  2055.96,267.543 2056.64,269.126 2057.32,271.275 2057.99,274.403 2058.67,278.893 2059.35,284.205 2060.02,289.611 2060.7,295.104 2061.38,301.577 2062.05,308.515 
  2062.73,316.338 2063.4,325.658 2064.08,335.927 2064.76,347.759 2065.43,361.046 2066.11,374.794 2066.79,388.522 2067.46,403.804 2068.14,418.965 2068.82,434.461 
  2069.49,449.597 2070.17,465.745 2070.85,481.488 2071.52,497.08 2072.2,513.202 2072.88,529.596 2073.55,545.795 2074.23,558.441 2074.91,569.792 2075.58,582.631 
  2076.26,594.386 2076.94,603.559 2077.61,613.242 2078.29,622.504 2078.97,630.697 2079.64,638.34 2080.32,645.472 2081,652.127 2081.67,656.764 2082.35,659.741 
  2083.03,661.168 2083.7,662.273 2084.38,662.403 2085.06,662.073 2085.73,662.213 2086.41,661.891 2087.09,662.487 2087.76,664.39 2088.44,667.512 2089.12,669.525 
  2089.79,672.525 2090.47,676.221 2091.15,679.893 2091.82,681.971 2092.5,684.582 2093.18,688.815 2093.85,692.54 2094.53,695.115 2095.21,699.09 2095.88,702.349 
  2096.56,704.265 2097.24,706.05 2097.91,709.737 2098.59,712.053 2099.27,713.762 2099.94,716.253 2100.62,719.925 2101.3,721.328 2101.97,722.636 2102.65,725.427 
  2103.33,728.029 2104,728.883 2104.68,729.229 2105.36,730.673 2106.03,731.569 2106.71,732.177 2107.39,733.643 2108.06,736.132 2108.74,736.432 2109.42,736.258 
  2110.09,736.993 2110.77,738.351 2111.45,738.717 2112.12,739.058 2112.8,739.374 2113.48,740.116 2114.15,740.358 2114.83,741.256 2115.51,741.867 2116.18,742.436 
  2116.86,742.517 2117.54,742.589 2118.21,743.328 2118.89,743.567 2119.57,743.562 2120.24,743.556 2120.92,744.223 2121.6,743.945 2122.27,743.908 2122.95,744.32 
  2123.63,744.703 2124.3,744.834 2124.98,744.955 2125.66,745.065 2126.33,744.942 2127.01,744.825 2127.69,744.938 2128.36,745.042 2129.04,744.912 2129.72,745.012 
  2130.39,745.104 2131.07,745.187 2131.75,745.039 2132.42,745.348 2133.1,745.185 2133.78,745.032 2134.45,745.337 2135.13,745.619 2135.81,745.88 2136.48,746.122 
  2137.16,746.346 2137.84,746.103 2138.51,746.324 2139.19,746.078 2139.87,745.848 2140.54,746.08 2141.22,746.295 2141.89,746.044 2142.57,746.257 2143.25,746.23 
  2143.92,746.202 2144.6,745.724 2145.28,745.276 2145.95,745.08 2146.63,745.344 2147.31,745.588 2147.98,745.813 2148.66,746.022 2149.34,745.989 2150.01,745.731 
  2150.69,745.04 2151.37,745.066 2152.04,745.312 2152.72,745.315 2153.4,745.766 2154.07,746.183 2154.75,746.796 2155.43,746.692 2156.1,746.143 2156.78,745.404 
  2157.46,745.611 2158.13,745.577 2158.81,745.544 2159.49,745.96 2160.16,745.672 2160.84,745.85 2161.52,745.564 2162.19,745.52 2162.87,745.253 2163.55,745.225 
  2164.22,745.422 2164.9,745.828 2165.58,745.979 2166.25,746.118 2166.93,746.021 2167.61,745.927 2168.28,745.612 2168.96,745.317 2169.64,745.488 2170.31,745.871 
  2170.99,745.777 2171.67,745.913 2172.34,745.588 2173.02,745.059 2173.7,745.237 2174.37,745.401 2175.05,745.553 2175.73,745.243 2176.4,744.952 2177.08,744.678 
  2177.76,744.87 2178.43,744.823 2179.11,744.777 2179.79,744.956 2180.46,744.896 2181.14,744.84 2181.82,744.785 2182.49,744.731 2183.17,744.679 2183.85,744.854 
  2184.52,745.014 2185.2,744.488 2185.88,744.667 2186.55,744.609 2187.23,744.777 2187.91,744.707 2188.58,744.864 2189.26,744.784 2189.94,744.483 2190.61,744.649 
  2191.29,744.578 2191.97,744.735 2192.64,744.655 2193.32,744.578 2194,744.504 2194.67,744.209 2195.35,744.156 2196.03,744.104 2196.7,744.279 2197.38,743.991 
  2198.06,743.496 2198.73,743.482 2199.41,743.69 2200.09,743.659 2200.76,743.403 2201.44,743.612 2202.12,743.58 2202.79,743.774 2203.47,743.502 2204.15,743.247 
  2204.82,743.23 2205.5,743.437 2206.18,743.853 2206.85,744.014 2207.53,743.712 2208.21,743.653 2208.88,743.595 2209.56,743.315 2210.24,743.275 2210.91,743.684 
  2211.59,743.391 2212.27,743.564 2212.94,743.498 2213.62,743.66 2214.3,743.585 2214.97,743.288 2215.65,743.009 2216.33,743.195 2217,743.368 2217.68,743.302 
  2218.35,743.464 2219.03,743.388 2219.71,743.091 2220.38,742.588 2221.06,742.565 2221.74,742.543 2222.41,742.744 2223.09,742.93 2223.77,743.101 2224.44,743.033 
  2225.12,742.519 2225.8,742.487 2226.47,742.68 2227.15,742.408 2227.83,742.153 2228.5,742.136 2229.18,742.792 2229.86,742.953 2230.53,742.875 2231.21,742.8 
  2231.89,742.728 2232.56,742.883 2233.24,742.801 2233.92,742.723 2234.59,742.648 2235.27,742.576 2235.95,742.731 2236.62,742.649 2237.3,742.57 2237.98,742.495 
  2238.65,742.423 2239.33,742.129 2240.01,742.077 2240.68,742.026 2241.36,742.426 2242.04,742.796 2242.71,742.69 2243.39,742.588 2244.07,742.492 2244.74,742.175 
  2245.42,742.327 2246.1,742.242 2246.77,741.936 2247.45,741.423 2248.13,741.39 2248.8,741.358 2249.48,741.326 2250.16,741.518 2250.83,741.246 2251.51,741.439 
  2252.19,741.617 2252.86,741.556 2253.54,741.497 2254.22,741.216 2254.89,741.401 2255.57,741.572 2256.25,741.505 2256.92,741.439 2257.6,741.377 2258.28,741.316 
  2258.95,741.483 2259.63,741.413 2260.31,741.346 2260.98,741.28 2261.66,741.442 2262.34,741.591 2263.01,741.504 2263.69,741.644 2264.37,741.548 2265.04,741.232 
  2265.72,741.16 2266.4,741.539 2267.07,741.442 2267.75,741.35 2268.43,741.487 2269.1,741.611 2269.78,741.275 2270.46,740.96 2271.13,740.44 2271.81,740.177 
  2272.49,739.931 2273.16,740.824 2273.84,741.208 2274.52,741.563 2275.19,741.443 2275.87,741.329 2276.55,741.443 2277.22,741.325 2277.9,740.988 2278.58,740.894 
  2279.25,740.806 2279.93,740.273 2280.61,739.773 2281.28,739.529 2281.96,739.975 2282.64,739.938 2283.31,739.676 2283.99,739.878 2284.67,740.066 2285.34,740.015 
  2286.02,739.965 2286.7,739.24 2287.37,738.337 2288.05,737.94 2288.73,738.467 2289.4,739.181 2290.08,739.62 2290.76,740.253 2291.43,739.942 2292.11,739.652 
  2292.78,738.93 2293.46,738.703 
  "/>
<path clip-path="url(#clip700)" d="
M1505.21 270.476 L2282.92 270.476 L2282.92 166.796 L1505.21 166.796  Z
  " fill="#ffffff" fill-rule="evenodd" fill-opacity="1"/>
<polyline clip-path="url(#clip700)" style="stroke:#000000; stroke-linecap:butt; stroke-linejoin:round; stroke-width:4; stroke-opacity:1; fill:none" points="
  1505.21,270.476 2282.92,270.476 2282.92,166.796 1505.21,166.796 1505.21,270.476 
  "/>
<polyline clip-path="url(#clip700)" style="stroke:#009af9; stroke-linecap:butt; stroke-linejoin:round; stroke-width:4; stroke-opacity:1; fill:none" points="
  1528.49,218.636 1668.16,218.636 
  "/>
<path clip-path="url(#clip700)" d="M1711.94 210.985 L1711.94 214.967 Q1710.14 213.971 1708.31 213.485 Q1706.51 212.976 1704.65 212.976 Q1700.51 212.976 1698.22 215.615 Q1695.93 218.231 1695.93 222.976 Q1695.93 227.721 1698.22 230.36 Q1700.51 232.976 1704.65 232.976 Q1706.51 232.976 1708.31 232.49 Q1710.14 231.981 1711.94 230.985 L1711.94 234.92 Q1710.16 235.754 1708.24 236.17 Q1706.34 236.587 1704.19 236.587 Q1698.33 236.587 1694.88 232.906 Q1691.44 229.226 1691.44 222.976 Q1691.44 216.633 1694.91 212.999 Q1698.4 209.365 1704.47 209.365 Q1706.44 209.365 1708.31 209.782 Q1710.19 210.175 1711.94 210.985 Z" fill="#000000" fill-rule="evenodd" fill-opacity="1" /><path clip-path="url(#clip700)" d="M1731.13 222.883 Q1725.97 222.883 1723.98 224.064 Q1721.99 225.244 1721.99 228.092 Q1721.99 230.36 1723.47 231.703 Q1724.98 233.022 1727.55 233.022 Q1731.09 233.022 1733.22 230.522 Q1735.37 227.999 1735.37 223.832 L1735.37 222.883 L1731.13 222.883 M1739.63 221.124 L1739.63 235.916 L1735.37 235.916 L1735.37 231.981 Q1733.91 234.342 1731.74 235.476 Q1729.56 236.587 1726.41 236.587 Q1722.43 236.587 1720.07 234.365 Q1717.73 232.119 1717.73 228.369 Q1717.73 223.994 1720.65 221.772 Q1723.59 219.55 1729.4 219.55 L1735.37 219.55 L1735.37 219.133 Q1735.37 216.194 1733.43 214.596 Q1731.5 212.976 1728.01 212.976 Q1725.79 212.976 1723.68 213.508 Q1721.57 214.041 1719.63 215.106 L1719.63 211.17 Q1721.97 210.268 1724.17 209.828 Q1726.37 209.365 1728.45 209.365 Q1734.07 209.365 1736.85 212.282 Q1739.63 215.198 1739.63 221.124 Z" fill="#000000" fill-rule="evenodd" fill-opacity="1" /><path clip-path="url(#clip700)" d="M1748.4 199.897 L1752.66 199.897 L1752.66 235.916 L1748.4 235.916 L1748.4 199.897 Z" fill="#000000" fill-rule="evenodd" fill-opacity="1" /><path clip-path="url(#clip700)" d="M1780.23 210.985 L1780.23 214.967 Q1778.43 213.971 1776.6 213.485 Q1774.79 212.976 1772.94 212.976 Q1768.8 212.976 1766.5 215.615 Q1764.21 218.231 1764.21 222.976 Q1764.21 227.721 1766.5 230.36 Q1768.8 232.976 1772.94 232.976 Q1774.79 232.976 1776.6 232.49 Q1778.43 231.981 1780.23 230.985 L1780.23 234.92 Q1778.45 235.754 1776.53 236.17 Q1774.63 236.587 1772.48 236.587 Q1766.62 236.587 1763.17 232.906 Q1759.72 229.226 1759.72 222.976 Q1759.72 216.633 1763.19 212.999 Q1766.69 209.365 1772.75 209.365 Q1774.72 209.365 1776.6 209.782 Q1778.47 210.175 1780.23 210.985 Z" fill="#000000" fill-rule="evenodd" fill-opacity="1" /><path clip-path="url(#clip700)" d="M1787.2 225.684 L1787.2 209.99 L1791.46 209.99 L1791.46 225.522 Q1791.46 229.203 1792.89 231.055 Q1794.33 232.883 1797.2 232.883 Q1800.65 232.883 1802.64 230.684 Q1804.65 228.485 1804.65 224.689 L1804.65 209.99 L1808.91 209.99 L1808.91 235.916 L1804.65 235.916 L1804.65 231.934 Q1803.1 234.295 1801.04 235.453 Q1799 236.587 1796.3 236.587 Q1791.83 236.587 1789.51 233.809 Q1787.2 231.031 1787.2 225.684 M1797.92 209.365 L1797.92 209.365 Z" fill="#000000" fill-rule="evenodd" fill-opacity="1" /><path clip-path="url(#clip700)" d="M1817.69 199.897 L1821.94 199.897 L1821.94 235.916 L1817.69 235.916 L1817.69 199.897 Z" fill="#000000" fill-rule="evenodd" fill-opacity="1" /><path clip-path="url(#clip700)" d="M1842.64 222.883 Q1837.48 222.883 1835.49 224.064 Q1833.5 225.244 1833.5 228.092 Q1833.5 230.36 1834.98 231.703 Q1836.48 233.022 1839.05 233.022 Q1842.59 233.022 1844.72 230.522 Q1846.87 227.999 1846.87 223.832 L1846.87 222.883 L1842.64 222.883 M1851.13 221.124 L1851.13 235.916 L1846.87 235.916 L1846.87 231.981 Q1845.42 234.342 1843.24 235.476 Q1841.06 236.587 1837.92 236.587 Q1833.93 236.587 1831.57 234.365 Q1829.24 232.119 1829.24 228.369 Q1829.24 223.994 1832.15 221.772 Q1835.09 219.55 1840.9 219.55 L1846.87 219.55 L1846.87 219.133 Q1846.87 216.194 1844.93 214.596 Q1843.01 212.976 1839.51 212.976 Q1837.29 212.976 1835.18 213.508 Q1833.08 214.041 1831.13 215.106 L1831.13 211.17 Q1833.47 210.268 1835.67 209.828 Q1837.87 209.365 1839.95 209.365 Q1845.58 209.365 1848.36 212.282 Q1851.13 215.198 1851.13 221.124 Z" fill="#000000" fill-rule="evenodd" fill-opacity="1" /><path clip-path="url(#clip700)" d="M1864.12 202.629 L1864.12 209.99 L1872.89 209.99 L1872.89 213.3 L1864.12 213.3 L1864.12 227.374 Q1864.12 230.545 1864.98 231.448 Q1865.86 232.351 1868.52 232.351 L1872.89 232.351 L1872.89 235.916 L1868.52 235.916 Q1863.59 235.916 1861.71 234.087 Q1859.84 232.235 1859.84 227.374 L1859.84 213.3 L1856.71 213.3 L1856.71 209.99 L1859.84 209.99 L1859.84 202.629 L1864.12 202.629 Z" fill="#000000" fill-rule="evenodd" fill-opacity="1" /><path clip-path="url(#clip700)" d="M1900.67 221.888 L1900.67 223.971 L1881.09 223.971 Q1881.37 228.369 1883.73 230.684 Q1886.11 232.976 1890.35 232.976 Q1892.8 232.976 1895.09 232.374 Q1897.41 231.772 1899.68 230.569 L1899.68 234.596 Q1897.38 235.568 1894.98 236.078 Q1892.57 236.587 1890.09 236.587 Q1883.89 236.587 1880.25 232.976 Q1876.64 229.365 1876.64 223.207 Q1876.64 216.842 1880.07 213.115 Q1883.52 209.365 1889.35 209.365 Q1894.58 209.365 1897.62 212.745 Q1900.67 216.101 1900.67 221.888 M1896.41 220.638 Q1896.37 217.143 1894.44 215.059 Q1892.55 212.976 1889.4 212.976 Q1885.83 212.976 1883.68 214.99 Q1881.55 217.004 1881.23 220.661 L1896.41 220.638 Z" fill="#000000" fill-rule="evenodd" fill-opacity="1" /><path clip-path="url(#clip700)" d="M1924.72 213.925 L1924.72 199.897 L1928.98 199.897 L1928.98 235.916 L1924.72 235.916 L1924.72 232.027 Q1923.38 234.342 1921.32 235.476 Q1919.28 236.587 1916.41 236.587 Q1911.71 236.587 1908.75 232.837 Q1905.81 229.087 1905.81 222.976 Q1905.81 216.865 1908.75 213.115 Q1911.71 209.365 1916.41 209.365 Q1919.28 209.365 1921.32 210.499 Q1923.38 211.61 1924.72 213.925 M1910.21 222.976 Q1910.21 227.675 1912.13 230.36 Q1914.07 233.022 1917.45 233.022 Q1920.83 233.022 1922.78 230.36 Q1924.72 227.675 1924.72 222.976 Q1924.72 218.277 1922.78 215.615 Q1920.83 212.93 1917.45 212.93 Q1914.07 212.93 1912.13 215.615 Q1910.21 218.277 1910.21 222.976 Z" fill="#000000" fill-rule="evenodd" fill-opacity="1" /><path clip-path="url(#clip700)" d="M1964.61 222.883 Q1959.44 222.883 1957.45 224.064 Q1955.46 225.244 1955.46 228.092 Q1955.46 230.36 1956.94 231.703 Q1958.45 233.022 1961.02 233.022 Q1964.56 233.022 1966.69 230.522 Q1968.84 227.999 1968.84 223.832 L1968.84 222.883 L1964.61 222.883 M1973.1 221.124 L1973.1 235.916 L1968.84 235.916 L1968.84 231.981 Q1967.38 234.342 1965.21 235.476 Q1963.03 236.587 1959.88 236.587 Q1955.9 236.587 1953.54 234.365 Q1951.2 232.119 1951.2 228.369 Q1951.2 223.994 1954.12 221.772 Q1957.06 219.55 1962.87 219.55 L1968.84 219.55 L1968.84 219.133 Q1968.84 216.194 1966.9 214.596 Q1964.98 212.976 1961.48 212.976 Q1959.26 212.976 1957.15 213.508 Q1955.05 214.041 1953.1 215.106 L1953.1 211.17 Q1955.44 210.268 1957.64 209.828 Q1959.84 209.365 1961.92 209.365 Q1967.55 209.365 1970.32 212.282 Q1973.1 215.198 1973.1 221.124 Z" fill="#000000" fill-rule="evenodd" fill-opacity="1" /><path clip-path="url(#clip700)" d="M2000.53 210.985 L2000.53 214.967 Q1998.73 213.971 1996.9 213.485 Q1995.09 212.976 1993.24 212.976 Q1989.1 212.976 1986.8 215.615 Q1984.51 218.231 1984.51 222.976 Q1984.51 227.721 1986.8 230.36 Q1989.1 232.976 1993.24 232.976 Q1995.09 232.976 1996.9 232.49 Q1998.73 231.981 2000.53 230.985 L2000.53 234.92 Q1998.75 235.754 1996.83 236.17 Q1994.93 236.587 1992.78 236.587 Q1986.92 236.587 1983.47 232.906 Q1980.02 229.226 1980.02 222.976 Q1980.02 216.633 1983.49 212.999 Q1986.99 209.365 1993.05 209.365 Q1995.02 209.365 1996.9 209.782 Q1998.77 210.175 2000.53 210.985 Z" fill="#000000" fill-rule="evenodd" fill-opacity="1" /><path clip-path="url(#clip700)" d="M2026.6 210.985 L2026.6 214.967 Q2024.79 213.971 2022.96 213.485 Q2021.16 212.976 2019.3 212.976 Q2015.16 212.976 2012.87 215.615 Q2010.58 218.231 2010.58 222.976 Q2010.58 227.721 2012.87 230.36 Q2015.16 232.976 2019.3 232.976 Q2021.16 232.976 2022.96 232.49 Q2024.79 231.981 2026.6 230.985 L2026.6 234.92 Q2024.81 235.754 2022.89 236.17 Q2020.99 236.587 2018.84 236.587 Q2012.98 236.587 2009.54 232.906 Q2006.09 229.226 2006.09 222.976 Q2006.09 216.633 2009.56 212.999 Q2013.05 209.365 2019.12 209.365 Q2021.09 209.365 2022.96 209.782 Q2024.84 210.175 2026.6 210.985 Z" fill="#000000" fill-rule="evenodd" fill-opacity="1" /><path clip-path="url(#clip700)" d="M2056.18 221.888 L2056.18 223.971 L2036.6 223.971 Q2036.87 228.369 2039.23 230.684 Q2041.62 232.976 2045.86 232.976 Q2048.31 232.976 2050.6 232.374 Q2052.92 231.772 2055.18 230.569 L2055.18 234.596 Q2052.89 235.568 2050.48 236.078 Q2048.08 236.587 2045.6 236.587 Q2039.4 236.587 2035.76 232.976 Q2032.15 229.365 2032.15 223.207 Q2032.15 216.842 2035.58 213.115 Q2039.03 209.365 2044.86 209.365 Q2050.09 209.365 2053.12 212.745 Q2056.18 216.101 2056.18 221.888 M2051.92 220.638 Q2051.87 217.143 2049.95 215.059 Q2048.05 212.976 2044.91 212.976 Q2041.34 212.976 2039.19 214.99 Q2037.06 217.004 2036.73 220.661 L2051.92 220.638 Z" fill="#000000" fill-rule="evenodd" fill-opacity="1" /><path clip-path="url(#clip700)" d="M2063.17 199.897 L2067.43 199.897 L2067.43 235.916 L2063.17 235.916 L2063.17 199.897 Z" fill="#000000" fill-rule="evenodd" fill-opacity="1" /><path clip-path="url(#clip700)" d="M2098.52 221.888 L2098.52 223.971 L2078.93 223.971 Q2079.21 228.369 2081.57 230.684 Q2083.96 232.976 2088.19 232.976 Q2090.65 232.976 2092.94 232.374 Q2095.25 231.772 2097.52 230.569 L2097.52 234.596 Q2095.23 235.568 2092.82 236.078 Q2090.42 236.587 2087.94 236.587 Q2081.73 236.587 2078.1 232.976 Q2074.49 229.365 2074.49 223.207 Q2074.49 216.842 2077.92 213.115 Q2081.36 209.365 2087.2 209.365 Q2092.43 209.365 2095.46 212.745 Q2098.52 216.101 2098.52 221.888 M2094.26 220.638 Q2094.21 217.143 2092.29 215.059 Q2090.39 212.976 2087.24 212.976 Q2083.68 212.976 2081.53 214.99 Q2079.4 217.004 2079.07 220.661 L2094.26 220.638 Z" fill="#000000" fill-rule="evenodd" fill-opacity="1" /><path clip-path="url(#clip700)" d="M2120.53 213.971 Q2119.81 213.555 2118.96 213.37 Q2118.12 213.161 2117.1 213.161 Q2113.49 213.161 2111.55 215.522 Q2109.63 217.86 2109.63 222.258 L2109.63 235.916 L2105.35 235.916 L2105.35 209.99 L2109.63 209.99 L2109.63 214.018 Q2110.97 211.657 2113.12 210.522 Q2115.28 209.365 2118.35 209.365 Q2118.79 209.365 2119.33 209.434 Q2119.86 209.481 2120.51 209.596 L2120.53 213.971 Z" fill="#000000" fill-rule="evenodd" fill-opacity="1" /><path clip-path="url(#clip700)" d="M2136.78 222.883 Q2131.62 222.883 2129.63 224.064 Q2127.64 225.244 2127.64 228.092 Q2127.64 230.36 2129.12 231.703 Q2130.62 233.022 2133.19 233.022 Q2136.73 233.022 2138.86 230.522 Q2141.02 227.999 2141.02 223.832 L2141.02 222.883 L2136.78 222.883 M2145.28 221.124 L2145.28 235.916 L2141.02 235.916 L2141.02 231.981 Q2139.56 234.342 2137.38 235.476 Q2135.21 236.587 2132.06 236.587 Q2128.08 236.587 2125.72 234.365 Q2123.38 232.119 2123.38 228.369 Q2123.38 223.994 2126.29 221.772 Q2129.23 219.55 2135.04 219.55 L2141.02 219.55 L2141.02 219.133 Q2141.02 216.194 2139.07 214.596 Q2137.15 212.976 2133.66 212.976 Q2131.43 212.976 2129.33 213.508 Q2127.22 214.041 2125.28 215.106 L2125.28 211.17 Q2127.61 210.268 2129.81 209.828 Q2132.01 209.365 2134.1 209.365 Q2139.72 209.365 2142.5 212.282 Q2145.28 215.198 2145.28 221.124 Z" fill="#000000" fill-rule="evenodd" fill-opacity="1" /><path clip-path="url(#clip700)" d="M2158.26 202.629 L2158.26 209.99 L2167.04 209.99 L2167.04 213.3 L2158.26 213.3 L2158.26 227.374 Q2158.26 230.545 2159.12 231.448 Q2160 232.351 2162.66 232.351 L2167.04 232.351 L2167.04 235.916 L2162.66 235.916 Q2157.73 235.916 2155.85 234.087 Q2153.98 232.235 2153.98 227.374 L2153.98 213.3 L2150.85 213.3 L2150.85 209.99 L2153.98 209.99 L2153.98 202.629 L2158.26 202.629 Z" fill="#000000" fill-rule="evenodd" fill-opacity="1" /><path clip-path="url(#clip700)" d="M2172.64 209.99 L2176.9 209.99 L2176.9 235.916 L2172.64 235.916 L2172.64 209.99 M2172.64 199.897 L2176.9 199.897 L2176.9 205.291 L2172.64 205.291 L2172.64 199.897 Z" fill="#000000" fill-rule="evenodd" fill-opacity="1" /><path clip-path="url(#clip700)" d="M2195.85 212.976 Q2192.43 212.976 2190.44 215.661 Q2188.45 218.323 2188.45 222.976 Q2188.45 227.629 2190.41 230.314 Q2192.41 232.976 2195.85 232.976 Q2199.26 232.976 2201.25 230.291 Q2203.24 227.606 2203.24 222.976 Q2203.24 218.37 2201.25 215.684 Q2199.26 212.976 2195.85 212.976 M2195.85 209.365 Q2201.41 209.365 2204.58 212.976 Q2207.75 216.587 2207.75 222.976 Q2207.75 229.342 2204.58 232.976 Q2201.41 236.587 2195.85 236.587 Q2190.28 236.587 2187.1 232.976 Q2183.96 229.342 2183.96 222.976 Q2183.96 216.587 2187.1 212.976 Q2190.28 209.365 2195.85 209.365 Z" fill="#000000" fill-rule="evenodd" fill-opacity="1" /><path clip-path="url(#clip700)" d="M2236.36 220.268 L2236.36 235.916 L2232.1 235.916 L2232.1 220.407 Q2232.1 216.726 2230.67 214.897 Q2229.23 213.069 2226.36 213.069 Q2222.91 213.069 2220.92 215.268 Q2218.93 217.467 2218.93 221.263 L2218.93 235.916 L2214.65 235.916 L2214.65 209.99 L2218.93 209.99 L2218.93 214.018 Q2220.46 211.68 2222.52 210.522 Q2224.6 209.365 2227.31 209.365 Q2231.78 209.365 2234.07 212.143 Q2236.36 214.897 2236.36 220.268 Z" fill="#000000" fill-rule="evenodd" fill-opacity="1" /></svg>
