<?xml version="1.0" encoding="utf-8"?>
<svg xmlns="http://www.w3.org/2000/svg" xmlns:xlink="http://www.w3.org/1999/xlink" width="600" height="400" viewBox="0 0 2400 1600">
<defs>
  <clipPath id="clip250">
    <rect x="0" y="0" width="2400" height="1600"/>
  </clipPath>
</defs>
<path clip-path="url(#clip250)" d="
M0 1600 L2400 1600 L2400 0 L0 0  Z
  " fill="#ffffff" fill-rule="evenodd" fill-opacity="1"/>
<defs>
  <clipPath id="clip251">
    <rect x="480" y="0" width="1681" height="1600"/>
  </clipPath>
</defs>
<path clip-path="url(#clip250)" d="
M257.69 1423.18 L2352.76 1423.18 L2352.76 123.472 L257.69 123.472  Z
  " fill="#ffffff" fill-rule="evenodd" fill-opacity="1"/>
<defs>
  <clipPath id="clip252">
    <rect x="257" y="123" width="2096" height="1301"/>
  </clipPath>
</defs>
<polyline clip-path="url(#clip252)" style="stroke:#000000; stroke-linecap:butt; stroke-linejoin:round; stroke-width:2; stroke-opacity:0.1; fill:none" points="
  316.284,1423.18 316.284,123.472 
  "/>
<polyline clip-path="url(#clip252)" style="stroke:#000000; stroke-linecap:butt; stroke-linejoin:round; stroke-width:2; stroke-opacity:0.1; fill:none" points="
  771.848,1423.18 771.848,123.472 
  "/>
<polyline clip-path="url(#clip252)" style="stroke:#000000; stroke-linecap:butt; stroke-linejoin:round; stroke-width:2; stroke-opacity:0.1; fill:none" points="
  1227.41,1423.18 1227.41,123.472 
  "/>
<polyline clip-path="url(#clip252)" style="stroke:#000000; stroke-linecap:butt; stroke-linejoin:round; stroke-width:2; stroke-opacity:0.1; fill:none" points="
  1682.98,1423.18 1682.98,123.472 
  "/>
<polyline clip-path="url(#clip252)" style="stroke:#000000; stroke-linecap:butt; stroke-linejoin:round; stroke-width:2; stroke-opacity:0.1; fill:none" points="
  2138.54,1423.18 2138.54,123.472 
  "/>
<polyline clip-path="url(#clip250)" style="stroke:#000000; stroke-linecap:butt; stroke-linejoin:round; stroke-width:4; stroke-opacity:1; fill:none" points="
  257.69,1423.18 2352.76,1423.18 
  "/>
<polyline clip-path="url(#clip250)" style="stroke:#000000; stroke-linecap:butt; stroke-linejoin:round; stroke-width:4; stroke-opacity:1; fill:none" points="
  316.284,1423.18 316.284,1404.28 
  "/>
<polyline clip-path="url(#clip250)" style="stroke:#000000; stroke-linecap:butt; stroke-linejoin:round; stroke-width:4; stroke-opacity:1; fill:none" points="
  771.848,1423.18 771.848,1404.28 
  "/>
<polyline clip-path="url(#clip250)" style="stroke:#000000; stroke-linecap:butt; stroke-linejoin:round; stroke-width:4; stroke-opacity:1; fill:none" points="
  1227.41,1423.18 1227.41,1404.28 
  "/>
<polyline clip-path="url(#clip250)" style="stroke:#000000; stroke-linecap:butt; stroke-linejoin:round; stroke-width:4; stroke-opacity:1; fill:none" points="
  1682.98,1423.18 1682.98,1404.28 
  "/>
<polyline clip-path="url(#clip250)" style="stroke:#000000; stroke-linecap:butt; stroke-linejoin:round; stroke-width:4; stroke-opacity:1; fill:none" points="
  2138.54,1423.18 2138.54,1404.28 
  "/>
<path clip-path="url(#clip250)" d="M316.284 1454.1 Q312.673 1454.1 310.845 1457.66 Q309.039 1461.2 309.039 1468.33 Q309.039 1475.44 310.845 1479.01 Q312.673 1482.55 316.284 1482.55 Q319.919 1482.55 321.724 1479.01 Q323.553 1475.44 323.553 1468.33 Q323.553 1461.2 321.724 1457.66 Q319.919 1454.1 316.284 1454.1 M316.284 1450.39 Q322.094 1450.39 325.15 1455 Q328.229 1459.58 328.229 1468.33 Q328.229 1477.06 325.15 1481.67 Q322.094 1486.25 316.284 1486.25 Q310.474 1486.25 307.395 1481.67 Q304.34 1477.06 304.34 1468.33 Q304.34 1459.58 307.395 1455 Q310.474 1450.39 316.284 1450.39 Z" fill="#000000" fill-rule="evenodd" fill-opacity="1" /><path clip-path="url(#clip250)" d="M751.119 1481.64 L767.439 1481.64 L767.439 1485.58 L745.494 1485.58 L745.494 1481.64 Q748.156 1478.89 752.74 1474.26 Q757.346 1469.61 758.527 1468.27 Q760.772 1465.74 761.652 1464.01 Q762.554 1462.25 762.554 1460.56 Q762.554 1457.8 760.61 1456.07 Q758.689 1454.33 755.587 1454.33 Q753.388 1454.33 750.934 1455.09 Q748.504 1455.86 745.726 1457.41 L745.726 1452.69 Q748.55 1451.55 751.004 1450.97 Q753.457 1450.39 755.494 1450.39 Q760.865 1450.39 764.059 1453.08 Q767.253 1455.77 767.253 1460.26 Q767.253 1462.39 766.443 1464.31 Q765.656 1466.2 763.55 1468.8 Q762.971 1469.47 759.869 1472.69 Q756.767 1475.88 751.119 1481.64 Z" fill="#000000" fill-rule="evenodd" fill-opacity="1" /><path clip-path="url(#clip250)" d="M777.3 1451.02 L795.656 1451.02 L795.656 1454.96 L781.582 1454.96 L781.582 1463.43 Q782.601 1463.08 783.619 1462.92 Q784.638 1462.73 785.656 1462.73 Q791.443 1462.73 794.823 1465.9 Q798.202 1469.08 798.202 1474.49 Q798.202 1480.07 794.73 1483.17 Q791.258 1486.25 784.939 1486.25 Q782.763 1486.25 780.494 1485.88 Q778.249 1485.51 775.841 1484.77 L775.841 1480.07 Q777.925 1481.2 780.147 1481.76 Q782.369 1482.32 784.846 1482.32 Q788.851 1482.32 791.188 1480.21 Q793.526 1478.1 793.526 1474.49 Q793.526 1470.88 791.188 1468.77 Q788.851 1466.67 784.846 1466.67 Q782.971 1466.67 781.096 1467.08 Q779.244 1467.5 777.3 1468.38 L777.3 1451.02 Z" fill="#000000" fill-rule="evenodd" fill-opacity="1" /><path clip-path="url(#clip250)" d="M1202.11 1451.02 L1220.47 1451.02 L1220.47 1454.96 L1206.39 1454.96 L1206.39 1463.43 Q1207.41 1463.08 1208.43 1462.92 Q1209.45 1462.73 1210.47 1462.73 Q1216.25 1462.73 1219.63 1465.9 Q1223.01 1469.08 1223.01 1474.49 Q1223.01 1480.07 1219.54 1483.17 Q1216.07 1486.25 1209.75 1486.25 Q1207.57 1486.25 1205.31 1485.88 Q1203.06 1485.51 1200.65 1484.77 L1200.65 1480.07 Q1202.74 1481.2 1204.96 1481.76 Q1207.18 1482.32 1209.66 1482.32 Q1213.66 1482.32 1216 1480.21 Q1218.34 1478.1 1218.34 1474.49 Q1218.34 1470.88 1216 1468.77 Q1213.66 1466.67 1209.66 1466.67 Q1207.78 1466.67 1205.91 1467.08 Q1204.06 1467.5 1202.11 1468.38 L1202.11 1451.02 Z" fill="#000000" fill-rule="evenodd" fill-opacity="1" /><path clip-path="url(#clip250)" d="M1242.23 1454.1 Q1238.62 1454.1 1236.79 1457.66 Q1234.98 1461.2 1234.98 1468.33 Q1234.98 1475.44 1236.79 1479.01 Q1238.62 1482.55 1242.23 1482.55 Q1245.86 1482.55 1247.67 1479.01 Q1249.5 1475.44 1249.5 1468.33 Q1249.5 1461.2 1247.67 1457.66 Q1245.86 1454.1 1242.23 1454.1 M1242.23 1450.39 Q1248.04 1450.39 1251.09 1455 Q1254.17 1459.58 1254.17 1468.33 Q1254.17 1477.06 1251.09 1481.67 Q1248.04 1486.25 1242.23 1486.25 Q1236.42 1486.25 1233.34 1481.67 Q1230.28 1477.06 1230.28 1468.33 Q1230.28 1459.58 1233.34 1455 Q1236.42 1450.39 1242.23 1450.39 Z" fill="#000000" fill-rule="evenodd" fill-opacity="1" /><path clip-path="url(#clip250)" d="M1656.83 1451.02 L1679.05 1451.02 L1679.05 1453.01 L1666.51 1485.58 L1661.62 1485.58 L1673.43 1454.96 L1656.83 1454.96 L1656.83 1451.02 Z" fill="#000000" fill-rule="evenodd" fill-opacity="1" /><path clip-path="url(#clip250)" d="M1688.22 1451.02 L1706.58 1451.02 L1706.58 1454.96 L1692.5 1454.96 L1692.5 1463.43 Q1693.52 1463.08 1694.54 1462.92 Q1695.56 1462.73 1696.58 1462.73 Q1702.36 1462.73 1705.74 1465.9 Q1709.12 1469.08 1709.12 1474.49 Q1709.12 1480.07 1705.65 1483.17 Q1702.18 1486.25 1695.86 1486.25 Q1693.68 1486.25 1691.41 1485.88 Q1689.17 1485.51 1686.76 1484.77 L1686.76 1480.07 Q1688.84 1481.2 1691.07 1481.76 Q1693.29 1482.32 1695.77 1482.32 Q1699.77 1482.32 1702.11 1480.21 Q1704.45 1478.1 1704.45 1474.49 Q1704.45 1470.88 1702.11 1468.77 Q1699.77 1466.67 1695.77 1466.67 Q1693.89 1466.67 1692.02 1467.08 Q1690.16 1467.5 1688.22 1468.38 L1688.22 1451.02 Z" fill="#000000" fill-rule="evenodd" fill-opacity="1" /><path clip-path="url(#clip250)" d="M2098.15 1481.64 L2105.79 1481.64 L2105.79 1455.28 L2097.48 1456.95 L2097.48 1452.69 L2105.74 1451.02 L2110.42 1451.02 L2110.42 1481.64 L2118.05 1481.64 L2118.05 1485.58 L2098.15 1485.58 L2098.15 1481.64 Z" fill="#000000" fill-rule="evenodd" fill-opacity="1" /><path clip-path="url(#clip250)" d="M2137.5 1454.1 Q2133.89 1454.1 2132.06 1457.66 Q2130.25 1461.2 2130.25 1468.33 Q2130.25 1475.44 2132.06 1479.01 Q2133.89 1482.55 2137.5 1482.55 Q2141.13 1482.55 2142.94 1479.01 Q2144.77 1475.44 2144.77 1468.33 Q2144.77 1461.2 2142.94 1457.66 Q2141.13 1454.1 2137.5 1454.1 M2137.5 1450.39 Q2143.31 1450.39 2146.36 1455 Q2149.44 1459.58 2149.44 1468.33 Q2149.44 1477.06 2146.36 1481.67 Q2143.31 1486.25 2137.5 1486.25 Q2131.69 1486.25 2128.61 1481.67 Q2125.55 1477.06 2125.55 1468.33 Q2125.55 1459.58 2128.61 1455 Q2131.69 1450.39 2137.5 1450.39 Z" fill="#000000" fill-rule="evenodd" fill-opacity="1" /><path clip-path="url(#clip250)" d="M2167.66 1454.1 Q2164.05 1454.1 2162.22 1457.66 Q2160.42 1461.2 2160.42 1468.33 Q2160.42 1475.44 2162.22 1479.01 Q2164.05 1482.55 2167.66 1482.55 Q2171.29 1482.55 2173.1 1479.01 Q2174.93 1475.44 2174.93 1468.33 Q2174.93 1461.2 2173.1 1457.66 Q2171.29 1454.1 2167.66 1454.1 M2167.66 1450.39 Q2173.47 1450.39 2176.53 1455 Q2179.6 1459.58 2179.6 1468.33 Q2179.6 1477.06 2176.53 1481.67 Q2173.47 1486.25 2167.66 1486.25 Q2161.85 1486.25 2158.77 1481.67 Q2155.72 1477.06 2155.72 1468.33 Q2155.72 1459.58 2158.77 1455 Q2161.85 1450.39 2167.66 1450.39 Z" fill="#000000" fill-rule="evenodd" fill-opacity="1" /><path clip-path="url(#clip250)" d="M1213.46 1522.27 L1213.46 1532.4 L1225.52 1532.4 L1225.52 1536.95 L1213.46 1536.95 L1213.46 1556.3 Q1213.46 1560.66 1214.64 1561.9 Q1215.85 1563.14 1219.51 1563.14 L1225.52 1563.14 L1225.52 1568.04 L1219.51 1568.04 Q1212.73 1568.04 1210.15 1565.53 Q1207.57 1562.98 1207.57 1556.3 L1207.57 1536.95 L1203.28 1536.95 L1203.28 1532.4 L1207.57 1532.4 L1207.57 1522.27 L1213.46 1522.27 Z" fill="#000000" fill-rule="evenodd" fill-opacity="1" /><path clip-path="url(#clip250)" d="M1253.95 1532.4 L1259.8 1532.4 L1259.8 1568.04 L1253.95 1568.04 L1253.95 1532.4 M1253.95 1518.52 L1259.8 1518.52 L1259.8 1525.93 L1253.95 1525.93 L1253.95 1518.52 Z" fill="#000000" fill-rule="evenodd" fill-opacity="1" /><path clip-path="url(#clip250)" d="M1301.69 1546.53 L1301.69 1568.04 L1295.83 1568.04 L1295.83 1546.72 Q1295.83 1541.66 1293.86 1539.14 Q1291.89 1536.63 1287.94 1536.63 Q1283.2 1536.63 1280.46 1539.65 Q1277.72 1542.68 1277.72 1547.9 L1277.72 1568.04 L1271.83 1568.04 L1271.83 1532.4 L1277.72 1532.4 L1277.72 1537.93 Q1279.82 1534.72 1282.66 1533.13 Q1285.52 1531.54 1289.25 1531.54 Q1295.39 1531.54 1298.54 1535.36 Q1301.69 1539.14 1301.69 1546.53 Z" fill="#000000" fill-rule="evenodd" fill-opacity="1" /><path clip-path="url(#clip250)" d="M1333.55 1518.52 L1347.05 1518.52 L1347.05 1523.07 L1339.41 1523.07 L1339.41 1572.09 L1347.05 1572.09 L1347.05 1576.64 L1333.55 1576.64 L1333.55 1518.52 Z" fill="#000000" fill-rule="evenodd" fill-opacity="1" /><path clip-path="url(#clip250)" d="M1382.25 1533.45 L1382.25 1538.98 Q1379.77 1537.71 1377.09 1537.07 Q1374.42 1536.44 1371.55 1536.44 Q1367.19 1536.44 1365 1537.77 Q1362.83 1539.11 1362.83 1541.79 Q1362.83 1543.82 1364.39 1545 Q1365.95 1546.15 1370.66 1547.2 L1372.67 1547.64 Q1378.91 1548.98 1381.52 1551.43 Q1384.16 1553.85 1384.16 1558.21 Q1384.16 1563.17 1380.21 1566.07 Q1376.3 1568.97 1369.42 1568.97 Q1366.56 1568.97 1363.44 1568.39 Q1360.35 1567.85 1356.91 1566.74 L1356.91 1560.69 Q1360.16 1562.38 1363.31 1563.24 Q1366.46 1564.07 1369.55 1564.07 Q1373.69 1564.07 1375.91 1562.66 Q1378.14 1561.23 1378.14 1558.65 Q1378.14 1556.27 1376.52 1554.99 Q1374.93 1553.72 1369.48 1552.54 L1367.45 1552.07 Q1362.01 1550.92 1359.59 1548.56 Q1357.17 1546.18 1357.17 1542.04 Q1357.17 1537.01 1360.73 1534.27 Q1364.3 1531.54 1370.85 1531.54 Q1374.1 1531.54 1376.96 1532.01 Q1379.83 1532.49 1382.25 1533.45 Z" fill="#000000" fill-rule="evenodd" fill-opacity="1" /><path clip-path="url(#clip250)" d="M1407.17 1518.52 L1407.17 1576.64 L1393.67 1576.64 L1393.67 1572.09 L1401.28 1572.09 L1401.28 1523.07 L1393.67 1523.07 L1393.67 1518.52 L1407.17 1518.52 Z" fill="#000000" fill-rule="evenodd" fill-opacity="1" /><polyline clip-path="url(#clip252)" style="stroke:#000000; stroke-linecap:butt; stroke-linejoin:round; stroke-width:2; stroke-opacity:0.1; fill:none" points="
  257.69,1272.23 2352.76,1272.23 
  "/>
<polyline clip-path="url(#clip252)" style="stroke:#000000; stroke-linecap:butt; stroke-linejoin:round; stroke-width:2; stroke-opacity:0.1; fill:none" points="
  257.69,1013.06 2352.76,1013.06 
  "/>
<polyline clip-path="url(#clip252)" style="stroke:#000000; stroke-linecap:butt; stroke-linejoin:round; stroke-width:2; stroke-opacity:0.1; fill:none" points="
  257.69,753.898 2352.76,753.898 
  "/>
<polyline clip-path="url(#clip252)" style="stroke:#000000; stroke-linecap:butt; stroke-linejoin:round; stroke-width:2; stroke-opacity:0.1; fill:none" points="
  257.69,494.731 2352.76,494.731 
  "/>
<polyline clip-path="url(#clip252)" style="stroke:#000000; stroke-linecap:butt; stroke-linejoin:round; stroke-width:2; stroke-opacity:0.1; fill:none" points="
  257.69,235.565 2352.76,235.565 
  "/>
<polyline clip-path="url(#clip250)" style="stroke:#000000; stroke-linecap:butt; stroke-linejoin:round; stroke-width:4; stroke-opacity:1; fill:none" points="
  257.69,1423.18 257.69,123.472 
  "/>
<polyline clip-path="url(#clip250)" style="stroke:#000000; stroke-linecap:butt; stroke-linejoin:round; stroke-width:4; stroke-opacity:1; fill:none" points="
  257.69,1272.23 276.588,1272.23 
  "/>
<polyline clip-path="url(#clip250)" style="stroke:#000000; stroke-linecap:butt; stroke-linejoin:round; stroke-width:4; stroke-opacity:1; fill:none" points="
  257.69,1013.06 276.588,1013.06 
  "/>
<polyline clip-path="url(#clip250)" style="stroke:#000000; stroke-linecap:butt; stroke-linejoin:round; stroke-width:4; stroke-opacity:1; fill:none" points="
  257.69,753.898 276.588,753.898 
  "/>
<polyline clip-path="url(#clip250)" style="stroke:#000000; stroke-linecap:butt; stroke-linejoin:round; stroke-width:4; stroke-opacity:1; fill:none" points="
  257.69,494.731 276.588,494.731 
  "/>
<polyline clip-path="url(#clip250)" style="stroke:#000000; stroke-linecap:butt; stroke-linejoin:round; stroke-width:4; stroke-opacity:1; fill:none" points="
  257.69,235.565 276.588,235.565 
  "/>
<path clip-path="url(#clip250)" d="M114.26 1272.68 L143.936 1272.68 L143.936 1276.62 L114.26 1276.62 L114.26 1272.68 Z" fill="#000000" fill-rule="evenodd" fill-opacity="1" /><path clip-path="url(#clip250)" d="M164.028 1258.03 Q160.417 1258.03 158.589 1261.59 Q156.783 1265.14 156.783 1272.27 Q156.783 1279.37 158.589 1282.94 Q160.417 1286.48 164.028 1286.48 Q167.663 1286.48 169.468 1282.94 Q171.297 1279.37 171.297 1272.27 Q171.297 1265.14 169.468 1261.59 Q167.663 1258.03 164.028 1258.03 M164.028 1254.33 Q169.839 1254.33 172.894 1258.93 Q175.973 1263.52 175.973 1272.27 Q175.973 1280.99 172.894 1285.6 Q169.839 1290.18 164.028 1290.18 Q158.218 1290.18 155.14 1285.6 Q152.084 1280.99 152.084 1272.27 Q152.084 1263.52 155.14 1258.93 Q158.218 1254.33 164.028 1254.33 Z" fill="#000000" fill-rule="evenodd" fill-opacity="1" /><path clip-path="url(#clip250)" d="M184.19 1283.63 L189.075 1283.63 L189.075 1289.51 L184.19 1289.51 L184.19 1283.63 Z" fill="#000000" fill-rule="evenodd" fill-opacity="1" /><path clip-path="url(#clip250)" d="M212.107 1259.02 L200.301 1277.47 L212.107 1277.47 L212.107 1259.02 M210.88 1254.95 L216.76 1254.95 L216.76 1277.47 L221.69 1277.47 L221.69 1281.36 L216.76 1281.36 L216.76 1289.51 L212.107 1289.51 L212.107 1281.36 L196.505 1281.36 L196.505 1276.85 L210.88 1254.95 Z" fill="#000000" fill-rule="evenodd" fill-opacity="1" /><path clip-path="url(#clip250)" d="M116.343 1013.52 L146.019 1013.52 L146.019 1017.45 L116.343 1017.45 L116.343 1013.52 Z" fill="#000000" fill-rule="evenodd" fill-opacity="1" /><path clip-path="url(#clip250)" d="M166.112 998.863 Q162.501 998.863 160.672 1002.43 Q158.866 1005.97 158.866 1013.1 Q158.866 1020.21 160.672 1023.77 Q162.501 1027.31 166.112 1027.31 Q169.746 1027.31 171.552 1023.77 Q173.38 1020.21 173.38 1013.1 Q173.38 1005.97 171.552 1002.43 Q169.746 998.863 166.112 998.863 M166.112 995.159 Q171.922 995.159 174.977 999.765 Q178.056 1004.35 178.056 1013.1 Q178.056 1021.83 174.977 1026.43 Q171.922 1031.02 166.112 1031.02 Q160.302 1031.02 157.223 1026.43 Q154.167 1021.83 154.167 1013.1 Q154.167 1004.35 157.223 999.765 Q160.302 995.159 166.112 995.159 Z" fill="#000000" fill-rule="evenodd" fill-opacity="1" /><path clip-path="url(#clip250)" d="M186.274 1024.46 L191.158 1024.46 L191.158 1030.34 L186.274 1030.34 L186.274 1024.46 Z" fill="#000000" fill-rule="evenodd" fill-opacity="1" /><path clip-path="url(#clip250)" d="M205.371 1026.41 L221.69 1026.41 L221.69 1030.34 L199.746 1030.34 L199.746 1026.41 Q202.408 1023.65 206.991 1019.02 Q211.598 1014.37 212.778 1013.03 Q215.024 1010.51 215.903 1008.77 Q216.806 1007.01 216.806 1005.32 Q216.806 1002.57 214.861 1000.83 Q212.94 999.094 209.838 999.094 Q207.639 999.094 205.186 999.858 Q202.755 1000.62 199.977 1002.17 L199.977 997.451 Q202.801 996.316 205.255 995.738 Q207.709 995.159 209.746 995.159 Q215.116 995.159 218.311 997.844 Q221.505 1000.53 221.505 1005.02 Q221.505 1007.15 220.695 1009.07 Q219.908 1010.97 217.801 1013.56 Q217.223 1014.23 214.121 1017.45 Q211.019 1020.65 205.371 1026.41 Z" fill="#000000" fill-rule="evenodd" fill-opacity="1" /><path clip-path="url(#clip250)" d="M164.515 739.696 Q160.903 739.696 159.075 743.261 Q157.269 746.803 157.269 753.932 Q157.269 761.039 159.075 764.604 Q160.903 768.145 164.515 768.145 Q168.149 768.145 169.954 764.604 Q171.783 761.039 171.783 753.932 Q171.783 746.803 169.954 743.261 Q168.149 739.696 164.515 739.696 M164.515 735.993 Q170.325 735.993 173.38 740.599 Q176.459 745.182 176.459 753.932 Q176.459 762.659 173.38 767.266 Q170.325 771.849 164.515 771.849 Q158.704 771.849 155.626 767.266 Q152.57 762.659 152.57 753.932 Q152.57 745.182 155.626 740.599 Q158.704 735.993 164.515 735.993 Z" fill="#000000" fill-rule="evenodd" fill-opacity="1" /><path clip-path="url(#clip250)" d="M184.676 765.298 L189.561 765.298 L189.561 771.178 L184.676 771.178 L184.676 765.298 Z" fill="#000000" fill-rule="evenodd" fill-opacity="1" /><path clip-path="url(#clip250)" d="M209.746 739.696 Q206.135 739.696 204.306 743.261 Q202.5 746.803 202.5 753.932 Q202.5 761.039 204.306 764.604 Q206.135 768.145 209.746 768.145 Q213.38 768.145 215.186 764.604 Q217.014 761.039 217.014 753.932 Q217.014 746.803 215.186 743.261 Q213.38 739.696 209.746 739.696 M209.746 735.993 Q215.556 735.993 218.611 740.599 Q221.69 745.182 221.69 753.932 Q221.69 762.659 218.611 767.266 Q215.556 771.849 209.746 771.849 Q203.936 771.849 200.857 767.266 Q197.801 762.659 197.801 753.932 Q197.801 745.182 200.857 740.599 Q203.936 735.993 209.746 735.993 Z" fill="#000000" fill-rule="evenodd" fill-opacity="1" /><path clip-path="url(#clip250)" d="M166.112 480.53 Q162.501 480.53 160.672 484.095 Q158.866 487.636 158.866 494.766 Q158.866 501.873 160.672 505.437 Q162.501 508.979 166.112 508.979 Q169.746 508.979 171.552 505.437 Q173.38 501.873 173.38 494.766 Q173.38 487.636 171.552 484.095 Q169.746 480.53 166.112 480.53 M166.112 476.826 Q171.922 476.826 174.977 481.433 Q178.056 486.016 178.056 494.766 Q178.056 503.493 174.977 508.099 Q171.922 512.683 166.112 512.683 Q160.302 512.683 157.223 508.099 Q154.167 503.493 154.167 494.766 Q154.167 486.016 157.223 481.433 Q160.302 476.826 166.112 476.826 Z" fill="#000000" fill-rule="evenodd" fill-opacity="1" /><path clip-path="url(#clip250)" d="M186.274 506.132 L191.158 506.132 L191.158 512.011 L186.274 512.011 L186.274 506.132 Z" fill="#000000" fill-rule="evenodd" fill-opacity="1" /><path clip-path="url(#clip250)" d="M205.371 508.076 L221.69 508.076 L221.69 512.011 L199.746 512.011 L199.746 508.076 Q202.408 505.322 206.991 500.692 Q211.598 496.039 212.778 494.697 Q215.024 492.173 215.903 490.437 Q216.806 488.678 216.806 486.988 Q216.806 484.234 214.861 482.498 Q212.94 480.762 209.838 480.762 Q207.639 480.762 205.186 481.525 Q202.755 482.289 199.977 483.84 L199.977 479.118 Q202.801 477.984 205.255 477.405 Q207.709 476.826 209.746 476.826 Q215.116 476.826 218.311 479.512 Q221.505 482.197 221.505 486.687 Q221.505 488.817 220.695 490.738 Q219.908 492.636 217.801 495.229 Q217.223 495.9 214.121 499.118 Q211.019 502.312 205.371 508.076 Z" fill="#000000" fill-rule="evenodd" fill-opacity="1" /><path clip-path="url(#clip250)" d="M164.028 221.364 Q160.417 221.364 158.589 224.928 Q156.783 228.47 156.783 235.6 Q156.783 242.706 158.589 246.271 Q160.417 249.813 164.028 249.813 Q167.663 249.813 169.468 246.271 Q171.297 242.706 171.297 235.6 Q171.297 228.47 169.468 224.928 Q167.663 221.364 164.028 221.364 M164.028 217.66 Q169.839 217.66 172.894 222.266 Q175.973 226.85 175.973 235.6 Q175.973 244.327 172.894 248.933 Q169.839 253.516 164.028 253.516 Q158.218 253.516 155.14 248.933 Q152.084 244.327 152.084 235.6 Q152.084 226.85 155.14 222.266 Q158.218 217.66 164.028 217.66 Z" fill="#000000" fill-rule="evenodd" fill-opacity="1" /><path clip-path="url(#clip250)" d="M184.19 246.965 L189.075 246.965 L189.075 252.845 L184.19 252.845 L184.19 246.965 Z" fill="#000000" fill-rule="evenodd" fill-opacity="1" /><path clip-path="url(#clip250)" d="M212.107 222.359 L200.301 240.808 L212.107 240.808 L212.107 222.359 M210.88 218.285 L216.76 218.285 L216.76 240.808 L221.69 240.808 L221.69 244.697 L216.76 244.697 L216.76 252.845 L212.107 252.845 L212.107 244.697 L196.505 244.697 L196.505 240.183 L210.88 218.285 Z" fill="#000000" fill-rule="evenodd" fill-opacity="1" /><path clip-path="url(#clip250)" d="M22.818 959.969 L46.4666 968.69 L46.4666 951.216 L22.818 959.969 M16.4842 963.597 L16.4842 956.308 L64.0042 938.198 L64.0042 944.882 L51.8138 949.21 L51.8138 970.631 L64.0042 974.96 L64.0042 981.739 L16.4842 963.597 Z" fill="#000000" fill-rule="evenodd" fill-opacity="1" /><path clip-path="url(#clip250)" d="M29.7248 907.006 L35.1993 907.006 Q33.8307 909.488 33.1623 912.003 Q32.4621 914.486 32.4621 917.032 Q32.4621 922.729 36.0905 925.88 Q39.6872 929.031 46.212 929.031 Q52.7369 929.031 56.3653 925.88 Q59.9619 922.729 59.9619 917.032 Q59.9619 914.486 59.2935 912.003 Q58.5933 909.488 57.2247 907.006 L62.6355 907.006 Q63.7814 909.457 64.3543 912.098 Q64.9272 914.708 64.9272 917.668 Q64.9272 925.721 59.8664 930.463 Q54.8057 935.206 46.212 935.206 Q37.491 935.206 32.4939 930.432 Q27.4968 925.626 27.4968 917.286 Q27.4968 914.581 28.0697 912.003 Q28.6108 909.425 29.7248 907.006 Z" fill="#000000" fill-rule="evenodd" fill-opacity="1" /><path clip-path="url(#clip250)" d="M29.7248 871.167 L35.1993 871.167 Q33.8307 873.65 33.1623 876.164 Q32.4621 878.647 32.4621 881.193 Q32.4621 886.89 36.0905 890.041 Q39.6872 893.192 46.212 893.192 Q52.7369 893.192 56.3653 890.041 Q59.9619 886.89 59.9619 881.193 Q59.9619 878.647 59.2935 876.164 Q58.5933 873.65 57.2247 871.167 L62.6355 871.167 Q63.7814 873.618 64.3543 876.259 Q64.9272 878.869 64.9272 881.829 Q64.9272 889.882 59.8664 894.625 Q54.8057 899.367 46.212 899.367 Q37.491 899.367 32.4939 894.593 Q27.4968 889.787 27.4968 881.448 Q27.4968 878.742 28.0697 876.164 Q28.6108 873.586 29.7248 871.167 Z" fill="#000000" fill-rule="evenodd" fill-opacity="1" /><path clip-path="url(#clip250)" d="M55.9197 860.154 L55.9197 853.438 L64.0042 853.438 L64.0042 860.154 L55.9197 860.154 Z" fill="#000000" fill-rule="evenodd" fill-opacity="1" /><path clip-path="url(#clip250)" d="M14.479 820.082 L14.479 806.587 L19.0304 806.587 L19.0304 814.226 L68.0464 814.226 L68.0464 806.587 L72.5979 806.587 L72.5979 820.082 L14.479 820.082 Z" fill="#000000" fill-rule="evenodd" fill-opacity="1" /><path clip-path="url(#clip250)" d="M35.1993 766.356 Q31.2526 764.159 29.3747 761.104 Q27.4968 758.048 27.4968 753.911 Q27.4968 748.341 31.4117 745.317 Q35.2948 742.293 42.4881 742.293 L64.0042 742.293 L64.0042 748.181 L42.679 748.181 Q37.5546 748.181 35.072 749.996 Q32.5894 751.81 32.5894 755.534 Q32.5894 760.085 35.6131 762.727 Q38.6368 765.369 43.8567 765.369 L64.0042 765.369 L64.0042 771.257 L42.679 771.257 Q37.5228 771.257 35.072 773.071 Q32.5894 774.886 32.5894 778.673 Q32.5894 783.161 35.6449 785.803 Q38.6686 788.445 43.8567 788.445 L64.0042 788.445 L64.0042 794.333 L28.3562 794.333 L28.3562 788.445 L33.8944 788.445 Q30.616 786.439 29.0564 783.638 Q27.4968 780.838 27.4968 776.986 Q27.4968 773.103 29.4702 770.398 Q31.4436 767.661 35.1993 766.356 Z" fill="#000000" fill-rule="evenodd" fill-opacity="1" /><path clip-path="url(#clip250)" d="M16.4842 720.204 L16.4842 714.793 L70.0516 731.344 L70.0516 736.755 L16.4842 720.204 Z" fill="#000000" fill-rule="evenodd" fill-opacity="1" /><path clip-path="url(#clip250)" d="M29.4065 685.925 L34.9447 685.925 Q33.6716 688.407 33.035 691.081 Q32.3984 693.755 32.3984 696.619 Q32.3984 700.98 33.7352 703.176 Q35.072 705.34 37.7456 705.34 Q39.7826 705.34 40.9603 703.781 Q42.1061 702.221 43.1565 697.51 L43.6021 695.505 Q44.9389 689.267 47.3897 686.657 Q49.8086 684.015 54.1691 684.015 Q59.1344 684.015 62.0308 687.962 Q64.9272 691.877 64.9272 698.752 Q64.9272 701.616 64.3543 704.735 Q63.8132 707.823 62.6992 711.26 L56.6518 711.26 Q58.3387 708.014 59.198 704.863 Q60.0256 701.712 60.0256 698.624 Q60.0256 694.487 58.6251 692.259 Q57.1929 690.031 54.6147 690.031 Q52.2276 690.031 50.9545 691.654 Q49.6813 693.245 48.5037 698.688 L48.0262 700.725 Q46.8804 706.168 44.5251 708.587 Q42.138 711.006 38.0002 711.006 Q32.9713 711.006 30.2341 707.441 Q27.4968 703.876 27.4968 697.319 Q27.4968 694.073 27.9743 691.208 Q28.4517 688.344 29.4065 685.925 Z" fill="#000000" fill-rule="evenodd" fill-opacity="1" /><path clip-path="url(#clip250)" d="M16.4842 650.404 L34.2127 633.121 L34.2127 639.519 L21.6404 653.523 L34.2127 667.528 L34.2127 673.925 L16.4842 656.643 L16.4842 650.404 Z" fill="#000000" fill-rule="evenodd" fill-opacity="1" /><path clip-path="url(#clip250)" d="M58.5933 613.706 L58.5933 591.267 L64.0042 591.267 L64.0042 621.44 L58.5933 621.44 Q54.8057 617.78 48.44 611.478 Q42.0425 605.144 40.1964 603.521 Q36.7271 600.433 34.34 599.224 Q31.921 597.983 29.5975 597.983 Q25.8099 597.983 23.4228 600.656 Q21.0356 603.298 21.0356 607.563 Q21.0356 610.587 22.086 613.961 Q23.1363 617.303 25.2688 621.122 L18.7758 621.122 Q17.2162 617.239 16.4205 613.865 Q15.6248 610.491 15.6248 607.69 Q15.6248 600.306 19.3169 595.914 Q23.009 591.521 29.1837 591.521 Q32.112 591.521 34.7537 592.635 Q37.3637 593.718 40.9285 596.614 Q41.8515 597.41 46.2757 601.675 Q50.668 605.94 58.5933 613.706 Z" fill="#000000" fill-rule="evenodd" fill-opacity="1" /><path clip-path="url(#clip250)" d="M14.479 564.913 L72.5979 564.913 L72.5979 578.408 L68.0464 578.408 L68.0464 570.801 L19.0304 570.801 L19.0304 578.408 L14.479 578.408 L14.479 564.913 Z" fill="#000000" fill-rule="evenodd" fill-opacity="1" /><path clip-path="url(#clip250)" d="M1079.02 20.1573 L1067.92 50.2555 L1090.16 50.2555 L1079.02 20.1573 M1074.4 12.096 L1083.68 12.096 L1106.73 72.576 L1098.22 72.576 L1092.71 57.061 L1065.45 57.061 L1059.94 72.576 L1051.31 72.576 L1074.4 12.096 Z" fill="#000000" fill-rule="evenodd" fill-opacity="1" /><path clip-path="url(#clip250)" d="M1146.43 28.9478 L1146.43 35.9153 Q1143.27 34.1734 1140.07 33.3227 Q1136.91 32.4315 1133.67 32.4315 Q1126.42 32.4315 1122.41 37.0496 Q1118.4 41.6271 1118.4 49.9314 Q1118.4 58.2358 1122.41 62.8538 Q1126.42 67.4314 1133.67 67.4314 Q1136.91 67.4314 1140.07 66.5807 Q1143.27 65.6895 1146.43 63.9476 L1146.43 70.8341 Q1143.31 72.2924 1139.95 73.0216 Q1136.62 73.7508 1132.86 73.7508 Q1122.61 73.7508 1116.57 67.3098 Q1110.54 60.8689 1110.54 49.9314 Q1110.54 38.832 1116.61 32.472 Q1122.73 26.1121 1133.34 26.1121 Q1136.79 26.1121 1140.07 26.8413 Q1143.35 27.5299 1146.43 28.9478 Z" fill="#000000" fill-rule="evenodd" fill-opacity="1" /><path clip-path="url(#clip250)" d="M1192.04 28.9478 L1192.04 35.9153 Q1188.88 34.1734 1185.68 33.3227 Q1182.52 32.4315 1179.28 32.4315 Q1172.03 32.4315 1168.02 37.0496 Q1164.01 41.6271 1164.01 49.9314 Q1164.01 58.2358 1168.02 62.8538 Q1172.03 67.4314 1179.28 67.4314 Q1182.52 67.4314 1185.68 66.5807 Q1188.88 65.6895 1192.04 63.9476 L1192.04 70.8341 Q1188.92 72.2924 1185.56 73.0216 Q1182.24 73.7508 1178.47 73.7508 Q1168.22 73.7508 1162.19 67.3098 Q1156.15 60.8689 1156.15 49.9314 Q1156.15 38.832 1162.23 32.472 Q1168.34 26.1121 1178.96 26.1121 Q1182.4 26.1121 1185.68 26.8413 Q1188.96 27.5299 1192.04 28.9478 Z" fill="#000000" fill-rule="evenodd" fill-opacity="1" /><path clip-path="url(#clip250)" d="M1243.81 48.0275 L1243.81 51.6733 L1209.54 51.6733 Q1210.03 59.3701 1214.16 63.421 Q1218.33 67.4314 1225.74 67.4314 Q1230.04 67.4314 1234.05 66.3781 Q1238.1 65.3249 1242.07 63.2184 L1242.07 70.267 Q1238.06 71.9684 1233.85 72.8596 Q1229.63 73.7508 1225.3 73.7508 Q1214.44 73.7508 1208.08 67.4314 Q1201.76 61.1119 1201.76 50.3365 Q1201.76 39.1965 1207.76 32.6746 Q1213.79 26.1121 1224 26.1121 Q1233.16 26.1121 1238.46 32.0264 Q1243.81 37.9003 1243.81 48.0275 M1236.36 45.84 Q1236.28 39.7232 1232.91 36.0774 Q1229.59 32.4315 1224.08 32.4315 Q1217.85 32.4315 1214.08 35.9558 Q1210.35 39.4801 1209.78 45.8805 L1236.36 45.84 Z" fill="#000000" fill-rule="evenodd" fill-opacity="1" /><path clip-path="url(#clip250)" d="M1256.05 9.54393 L1263.5 9.54393 L1263.5 72.576 L1256.05 72.576 L1256.05 9.54393 Z" fill="#000000" fill-rule="evenodd" fill-opacity="1" /><path clip-path="url(#clip250)" d="M1317.9 48.0275 L1317.9 51.6733 L1283.63 51.6733 Q1284.12 59.3701 1288.25 63.421 Q1292.42 67.4314 1299.84 67.4314 Q1304.13 67.4314 1308.14 66.3781 Q1312.19 65.3249 1316.16 63.2184 L1316.16 70.267 Q1312.15 71.9684 1307.94 72.8596 Q1303.72 73.7508 1299.39 73.7508 Q1288.53 73.7508 1282.17 67.4314 Q1275.85 61.1119 1275.85 50.3365 Q1275.85 39.1965 1281.85 32.6746 Q1287.89 26.1121 1298.09 26.1121 Q1307.25 26.1121 1312.56 32.0264 Q1317.9 37.9003 1317.9 48.0275 M1310.45 45.84 Q1310.37 39.7232 1307.01 36.0774 Q1303.68 32.4315 1298.17 32.4315 Q1291.94 32.4315 1288.17 35.9558 Q1284.44 39.4801 1283.87 45.8805 L1310.45 45.84 Z" fill="#000000" fill-rule="evenodd" fill-opacity="1" /><path clip-path="url(#clip250)" d="M1356.43 34.1734 Q1355.17 33.4443 1353.67 33.1202 Q1352.21 32.7556 1350.43 32.7556 Q1344.11 32.7556 1340.71 36.8875 Q1337.35 40.9789 1337.35 48.6757 L1337.35 72.576 L1329.85 72.576 L1329.85 27.2059 L1337.35 27.2059 L1337.35 34.2544 Q1339.7 30.1225 1343.46 28.1376 Q1347.23 26.1121 1352.62 26.1121 Q1353.39 26.1121 1354.32 26.2337 Q1355.25 26.3147 1356.39 26.5172 L1356.43 34.1734 Z" fill="#000000" fill-rule="evenodd" fill-opacity="1" /><path clip-path="url(#clip250)" d="M1384.86 49.7694 Q1375.83 49.7694 1372.35 51.8354 Q1368.86 53.9013 1368.86 58.8839 Q1368.86 62.8538 1371.46 65.2034 Q1374.09 67.5124 1378.58 67.5124 Q1384.78 67.5124 1388.51 63.1374 Q1392.28 58.7219 1392.28 51.4303 L1392.28 49.7694 L1384.86 49.7694 M1399.73 46.6907 L1399.73 72.576 L1392.28 72.576 L1392.28 65.6895 Q1389.72 69.8214 1385.92 71.8063 Q1382.11 73.7508 1376.6 73.7508 Q1369.63 73.7508 1365.5 69.8619 Q1361.41 65.9325 1361.41 59.3701 Q1361.41 51.7138 1366.51 47.825 Q1371.66 43.9361 1381.83 43.9361 L1392.28 43.9361 L1392.28 43.2069 Q1392.28 38.0623 1388.87 35.2672 Q1385.51 32.4315 1379.4 32.4315 Q1375.51 32.4315 1371.82 33.3632 Q1368.13 34.295 1364.73 36.1584 L1364.73 29.2718 Q1368.82 27.692 1372.67 26.9223 Q1376.52 26.1121 1380.16 26.1121 Q1390.01 26.1121 1394.87 31.2163 Q1399.73 36.3204 1399.73 46.6907 Z" fill="#000000" fill-rule="evenodd" fill-opacity="1" /><path clip-path="url(#clip250)" d="M1422.46 14.324 L1422.46 27.2059 L1437.81 27.2059 L1437.81 32.9987 L1422.46 32.9987 L1422.46 57.6282 Q1422.46 63.1779 1423.96 64.7578 Q1425.49 66.3376 1430.15 66.3376 L1437.81 66.3376 L1437.81 72.576 L1430.15 72.576 Q1421.52 72.576 1418.24 69.3758 Q1414.96 66.1351 1414.96 57.6282 L1414.96 32.9987 L1409.49 32.9987 L1409.49 27.2059 L1414.96 27.2059 L1414.96 14.324 L1422.46 14.324 Z" fill="#000000" fill-rule="evenodd" fill-opacity="1" /><path clip-path="url(#clip250)" d="M1447.61 27.2059 L1455.07 27.2059 L1455.07 72.576 L1447.61 72.576 L1447.61 27.2059 M1447.61 9.54393 L1455.07 9.54393 L1455.07 18.9825 L1447.61 18.9825 L1447.61 9.54393 Z" fill="#000000" fill-rule="evenodd" fill-opacity="1" /><path clip-path="url(#clip250)" d="M1488.24 32.4315 Q1482.25 32.4315 1478.76 37.1306 Q1475.28 41.7891 1475.28 49.9314 Q1475.28 58.0738 1478.72 62.7728 Q1482.21 67.4314 1488.24 67.4314 Q1494.2 67.4314 1497.68 62.7323 Q1501.17 58.0333 1501.17 49.9314 Q1501.17 41.8701 1497.68 37.1711 Q1494.2 32.4315 1488.24 32.4315 M1488.24 26.1121 Q1497.97 26.1121 1503.51 32.4315 Q1509.06 38.7509 1509.06 49.9314 Q1509.06 61.0714 1503.51 67.4314 Q1497.97 73.7508 1488.24 73.7508 Q1478.48 73.7508 1472.93 67.4314 Q1467.42 61.0714 1467.42 49.9314 Q1467.42 38.7509 1472.93 32.4315 Q1478.48 26.1121 1488.24 26.1121 Z" fill="#000000" fill-rule="evenodd" fill-opacity="1" /><path clip-path="url(#clip250)" d="M1559.13 45.1919 L1559.13 72.576 L1551.68 72.576 L1551.68 45.4349 Q1551.68 38.994 1549.17 35.7938 Q1546.66 32.5936 1541.63 32.5936 Q1535.6 32.5936 1532.11 36.4419 Q1528.63 40.2903 1528.63 46.9338 L1528.63 72.576 L1521.14 72.576 L1521.14 27.2059 L1528.63 27.2059 L1528.63 34.2544 Q1531.3 30.163 1534.91 28.1376 Q1538.56 26.1121 1543.29 26.1121 Q1551.11 26.1121 1555.12 30.9732 Q1559.13 35.7938 1559.13 45.1919 Z" fill="#000000" fill-rule="evenodd" fill-opacity="1" /><polyline clip-path="url(#clip252)" style="stroke:#009af9; stroke-linecap:butt; stroke-linejoin:round; stroke-width:4; stroke-opacity:1; fill:none" points="
  316.984,753.625 317.685,753.453 318.385,753.26 319.085,752.94 319.785,752.92 320.485,752.849 321.185,752.838 321.885,752.773 322.585,752.604 323.285,752.612 
  323.986,753.173 324.686,753.752 325.386,754.18 326.086,754.691 326.786,755.501 327.486,756.09 328.186,756.695 328.886,757.037 329.586,757.412 330.287,757.873 
  330.987,758.358 331.687,759.199 332.387,759.929 333.087,760.61 333.787,761.3 334.487,761.333 335.187,761.586 335.887,761.765 336.588,761.933 337.288,762.367 
  337.988,762.882 338.688,763.252 339.388,763.708 340.088,763.356 340.788,763.36 341.488,763.586 342.189,763.63 342.889,763.615 343.589,763.545 344.289,763.758 
  344.989,763.956 345.689,763.751 346.389,763.672 347.089,763.819 347.789,763.901 348.49,764.421 349.19,764.963 349.89,764.967 350.59,765.026 351.29,765.36 
  351.99,765.392 352.69,765.867 353.39,766.087 354.09,766.126 354.791,765.716 355.491,765.779 356.191,766.059 356.891,766.042 357.591,766.36 358.291,766.656 
  358.991,766.487 359.691,766.329 360.392,765.904 361.092,765.562 361.792,765.52 362.492,765.648 363.192,765.711 363.892,765.325 364.592,764.964 365.292,764.682 
  365.992,764.419 366.693,764.507 367.393,764.366 368.093,764.29 368.793,763.885 369.493,763.395 370.193,763.216 370.893,762.882 371.593,762.903 372.294,762.923 
  372.994,762.552 373.694,762.483 374.394,762.14 375.094,761.987 375.794,761.955 376.494,761.48 377.194,761.314 377.894,761.382 378.595,761.333 379.295,761.065 
  379.995,760.981 380.695,760.903 381.395,760.774 382.095,760.431 382.795,760.445 383.495,760.345 384.196,760.03 384.896,760.291 385.596,760.145 386.296,760.12 
  386.996,760.262 387.696,760.395 388.396,760.241 389.096,760.152 389.797,760.069 390.497,760.269 391.197,760.511 391.897,760.625 392.597,760.732 393.297,760.72 
  393.997,760.431 394.697,760.216 395.397,760.182 396.098,760.205 396.798,760.172 397.498,760.585 398.198,760.58 398.898,760.743 399.598,760.838 400.298,760.816 
  400.998,760.739 401.699,760.5 402.399,760.443 403.099,760.612 403.799,760.714 404.499,760.976 405.199,761.22 405.899,761.391 406.599,761.662 407.3,761.358 
  408,761.241 408.7,761.299 409.4,761.241 410.1,761.131 410.8,761.251 411.5,761.251 412.2,761.307 412.901,761.136 413.601,761.032 414.301,761.046 
  415.001,760.891 415.701,760.803 416.401,760.664 417.101,760.757 417.801,760.565 418.502,760.442 419.202,760.048 419.902,759.57 420.602,759.4 421.302,759.575 
  422.002,759.683 422.702,759.728 423.402,759.38 424.103,759.11 424.803,758.747 425.503,758.185 426.203,757.939 426.903,757.375 427.603,756.959 428.303,756.905 
  429.003,756.798 429.704,756.976 430.404,756.696 431.104,756.158 431.804,755.877 432.504,755.615 433.204,755.37 433.904,755.085 434.604,755.153 435.305,755.216 
  436.005,754.885 436.705,754.687 437.405,754.446 438.105,754.388 438.805,754.166 439.505,753.681 440.205,753.617 440.906,753.557 441.606,753.501 442.306,753.671 
  443.006,753.439 443.706,753.39 444.406,753.121 445.106,752.925 445.806,752.909 446.507,752.726 447.207,753.001 447.907,753.09 448.607,753.117 449.307,752.976 
  450.007,752.843 450.707,752.441 451.407,752.344 452.108,751.975 452.808,752.019 453.508,752.227 454.208,752.42 454.908,752.434 455.608,752.335 456.308,752.02 
  457.008,752.003 457.709,751.71 458.409,751.546 459.109,751.449 459.809,751.469 460.509,751.655 461.209,751.716 461.909,751.94 462.609,751.871 463.31,751.751 
  464.01,751.972 464.71,752.234 465.41,752.144 466.11,752.282 466.81,752.689 467.51,753.013 468.21,753.259 468.911,753.377 469.611,753.598 470.311,753.693 
  471.011,753.892 471.711,754.3 472.411,754.569 473.111,754.542 473.811,754.849 474.512,754.97 475.212,755.026 475.912,755.023 476.612,755.186 477.312,755.282 
  478.012,755.65 478.712,755.993 479.412,756.09 480.113,756.069 480.813,756.05 481.513,755.92 482.213,755.687 482.913,755.747 483.613,755.914 484.313,756.404 
  485.013,756.638 485.714,756.356 486.414,756.092 487.114,755.957 487.814,755.831 488.514,755.768 489.214,756.265 489.914,756.729 490.614,756.94 491.315,756.858 
  492.015,756.614 492.715,756.553 493.415,756.385 494.115,756.172 494.815,756.084 495.515,756.168 496.215,755.968 496.916,756.004 497.616,755.815 498.316,756.138 
  499.016,756.606 499.716,756.432 500.416,755.935 501.116,755.36 501.816,754.711 502.517,754.272 503.217,754.363 503.917,754.725 504.617,755.118 505.317,755.54 
  506.017,755.6 506.717,755.378 507.417,755.059 508.118,754.817 508.818,754.757 509.518,754.923 510.218,755.19 510.918,755.493 511.618,755.721 512.318,755.822 
  513.018,755.749 513.719,755.903 514.419,756.102 515.119,756.342 515.819,756.734 516.519,757.154 517.219,757.268 517.919,757.207 518.62,757.317 519.32,757.53 
  520.02,757.896 520.72,758.348 521.42,758.825 522.12,758.881 522.82,758.71 523.52,758.94 524.221,758.599 524.921,758.335 525.621,758.756 526.321,759.148 
  527.021,759.569 527.721,759.907 528.421,759.999 529.121,759.918 529.822,759.731 530.522,759.611 531.222,759.388 531.922,759.179 532.622,759.151 533.322,759.235 
  534.022,759.202 534.722,759.728 535.423,759.884 536.123,759.696 536.823,759.242 537.523,758.874 538.223,758.474 538.923,758.213 539.623,758.19 540.324,758.058 
  541.024,757.878 541.724,757.988 542.424,757.813 543.124,757.149 543.824,756.862 544.524,756.705 545.224,756.281 545.925,756.051 546.625,756.113 547.325,756.672 
  548.025,756.803 548.725,756.648 549.425,756.447 550.125,756.204 550.825,756.032 551.526,755.76 552.226,755.672 552.926,755.868 553.626,755.94 554.326,755.839 
  555.026,756.023 555.726,756.194 556.426,755.854 557.127,755.091 557.827,754.879 558.527,754.848 559.227,754.707 559.927,754.909 560.627,754.875 561.327,754.731 
  562.028,754.597 562.728,754.472 563.428,754.187 564.128,754.088 564.828,754.218 565.528,754.172 566.228,753.906 566.928,753.769 567.629,753.808 568.329,753.954 
  569.029,753.98 569.729,753.836 570.429,753.424 571.129,753.373 571.829,753.213 572.529,753.342 573.23,753.295 573.93,753.362 574.63,753.313 575.33,753.266 
  576.03,753.056 576.73,752.748 577.43,752.739 578.131,753.008 578.831,753.203 579.531,753.217 580.231,752.953 580.931,752.873 581.631,753.02 582.331,752.879 
  583.031,753.192 583.732,753.206 584.432,753.108 585.132,753.405 585.832,753.682 586.532,754.051 587.232,754.173 587.932,753.898 588.632,753.807 589.333,753.945 
  590.033,754.017 590.733,754.252 591.433,754.525 592.133,755.003 592.833,755.393 593.533,755.589 594.234,755.384 594.934,754.969 595.634,754.915 596.334,755.197 
  597.034,755.294 597.734,755.384 598.434,755.69 599.134,755.809 599.835,755.92 600.535,755.967 601.235,756.177 601.935,756.318 602.635,756.449 603.335,756.682 
  604.035,756.788 604.736,757.165 605.436,757.182 606.136,756.976 606.836,757.227 607.536,757.295 608.236,757.302 608.936,757.642 609.636,757.959 610.337,758.588 
  611.037,759.064 611.737,759.619 612.437,760.192 613.137,760.727 613.837,761.225 614.537,761.524 615.237,762.08 615.938,762.376 616.638,760.929 617.338,763.025 
  618.038,765.537 618.738,766.88 619.438,767.577 620.138,766.115 620.839,764.473 621.539,763.94 622.239,765.611 622.939,766.17 623.639,767.58 624.339,767.896 
  625.039,767.022 625.739,767.208 626.44,768.103 627.14,767.882 627.84,768.454 628.54,771.099 629.24,771.511 629.94,771.172 630.64,770.133 631.341,770.886 
  632.041,769.087 632.741,769.742 633.441,771.632 634.141,773.785 634.841,774.292 635.541,774.654 636.242,773.769 636.942,771.886 637.642,771.63 638.342,771.112 
  639.042,771.296 639.742,771.523 640.442,771.679 641.142,771.49 641.843,770.535 642.543,769.033 643.243,767.463 643.943,768.166 644.643,769.433 645.343,768.947 
  646.043,769.271 646.744,767.795 647.444,765.138 648.144,763.826 648.844,764.269 649.544,764.014 650.244,764.61 650.944,764.721 651.645,762.712 652.345,761.17 
  653.045,761.398 653.745,761.555 654.445,762.146 655.145,760.419 655.845,758.861 656.545,759.409 657.246,761.698 657.946,762.612 658.646,762.519 659.346,761.265 
  660.046,759.927 660.746,760.735 661.446,764.325 662.147,766.729 662.847,766.638 663.547,767.165 664.247,768.879 664.947,770.812 665.647,773.172 666.347,776.042 
  667.048,777.496 667.748,778.687 668.448,780.409 669.148,782.295 669.848,783.943 670.548,784.703 671.248,784.633 671.949,785.235 672.649,787.631 673.349,790.701 
  674.049,792.898 674.749,793.615 675.449,794.228 676.149,795.912 676.85,797.427 677.55,799.12 678.25,800.254 678.95,801.423 679.65,802.403 680.35,803.373 
  681.05,804.278 681.751,804.677 682.451,803.659 683.151,801.43 683.851,797.571 684.551,791.466 685.251,782.989 685.951,772.185 686.652,759.433 687.352,744.584 
  688.052,729.613 688.752,713.749 689.452,696.718 690.152,679.377 690.852,661.079 691.553,643.056 692.253,625.122 692.953,606.548 693.653,586.711 694.353,565.805 
  695.053,544.457 695.753,523.587 696.454,502.552 697.154,481.251 697.854,460.369 698.554,439.6 699.254,418.658 699.954,398.946 700.654,380.38 701.355,361.94 
  702.055,344.784 702.755,329.439 703.455,315.84 704.155,303.091 704.855,290.97 705.556,279.545 706.256,269.605 706.956,259.659 707.656,250.432 708.356,242.708 
  709.056,235.667 709.756,229.205 710.457,223.563 711.157,217.908 711.857,211.906 712.557,206.804 713.257,201.931 713.957,197.938 714.657,193.544 715.358,189.998 
  716.058,185.91 716.758,182.705 717.458,180.77 718.158,178.296 718.858,175.098 719.559,171.834 720.259,170.288 720.959,168.956 721.659,168.045 722.359,166.917 
  723.059,164.085 723.759,162.998 724.46,165.597 725.16,164.91 725.86,164.045 726.56,162.459 727.26,160.256 727.96,160.313 728.66,163.256 729.361,167.115 
  730.061,169.437 730.761,171.104 731.461,175.329 732.161,181.496 732.861,187.196 733.562,194.851 734.262,201.329 734.962,209.432 735.662,219.441 736.362,228.894 
  737.062,239.996 737.762,250.191 738.463,259.817 739.163,270.803 739.863,284.892 740.563,298.82 741.263,310.428 741.963,323.375 742.663,335.015 743.364,347.88 
  744.064,362.167 744.764,376.39 745.464,392.001 746.164,405.903 746.864,420.713 747.565,435.148 748.265,449.398 748.965,464.867 749.665,479.36 750.365,493.22 
  751.065,506.879 751.765,520.684 752.466,535.013 753.166,550.222 753.866,564.361 754.566,576.612 755.266,587.546 755.966,600.086 756.667,612.123 757.367,622.301 
  758.067,633.19 758.767,642.408 759.467,650.679 760.167,658.509 760.867,665.261 761.568,672.285 762.268,677.507 762.968,682.436 763.668,687.703 764.368,692.063 
  765.068,697.69 765.769,699.938 766.469,701.648 767.169,703.078 767.869,707.081 768.569,708.537 769.269,711.676 769.97,715.606 770.67,716.55 771.37,717.376 
  772.07,717.813 772.77,719.444 773.47,719.409 774.17,722.324 774.871,723.431 775.571,723.407 776.271,721.495 776.971,725.436 777.671,727.336 778.371,730.553 
  779.072,730.609 779.772,728.938 780.472,725.877 781.172,727.968 781.872,732.031 782.572,733.933 783.272,732.427 783.973,729.855 784.673,731.344 785.373,733.123 
  786.073,734.505 786.773,734.183 787.473,735.16 788.174,733.847 788.874,733.568 789.574,733.973 790.274,734.851 790.974,735.56 791.674,735.221 792.374,735.793 
  793.075,734.604 793.775,734.439 794.475,732.561 795.175,732.031 795.875,731.092 796.575,732.716 797.275,733.343 797.976,733.594 798.676,731.66 799.376,731.3 
  800.076,730.131 800.776,727.927 801.476,728.817 802.177,728.09 802.877,726.467 803.577,725.73 804.277,728.433 804.977,729.01 805.677,726.992 806.377,722.55 
  807.078,721.962 807.778,724.137 808.478,724.055 809.178,721.366 809.878,720.523 810.578,722.238 811.278,720.67 811.979,720.429 812.679,719.815 813.379,721.354 
  814.079,719.4 814.779,718.743 815.479,719.075 816.18,720.774 816.88,720.692 817.58,720.115 818.28,718.853 818.98,718.62 819.68,719.459 820.38,719.185 
  821.081,718.819 821.781,717.809 822.481,716.922 823.181,715.816 823.881,716.395 824.581,718.437 825.281,719.009 825.982,715.983 826.682,715.717 827.382,715.802 
  828.082,716.771 828.782,716.73 829.482,716.691 830.182,715.543 830.883,714.749 831.583,716.788 832.283,718.246 832.983,718.884 833.683,719.035 834.383,718.452 
  835.083,717.13 835.784,716.674 836.484,717.305 837.184,718.728 837.884,719.5 838.584,717.384 839.284,717.522 839.984,717.985 840.685,719.528 841.385,719.244 
  842.085,718.09 842.785,716.067 843.485,717.237 844.185,718.107 844.885,717.584 845.586,718.318 846.286,718.837 846.986,718.042 847.686,716.966 848.386,718.075 
  849.086,718.886 849.786,719.699 850.487,719.012 851.187,719.983 851.887,718.666 852.587,717.992 853.287,720.198 853.987,722.812 854.687,720.748 855.388,720.544 
  856.088,721.799 856.788,723.636 857.488,720.848 858.188,718.245 858.888,719.707 859.588,723.795 860.289,726.054 860.989,722.603 861.689,719.493 862.389,719.593 
  863.089,722.02 863.789,723.34 864.489,723.127 865.19,721.927 865.89,721.252 866.59,722.235 867.29,721.984 867.99,722.917 868.69,723.677 869.39,721.773 
  870.091,720.162 870.791,719.715 871.491,721.521 872.191,721.927 872.891,722.307 873.591,720.992 874.291,720.433 874.991,720.911 875.692,724.415 876.392,723.848 
  877.092,718.706 877.792,719.855 878.492,723.485 879.192,722.703 879.892,722.807 880.593,726.185 881.293,722.11 881.993,721.365 882.693,721.615 883.393,724.183 
  884.093,723.578 884.793,723.402 885.494,722.681 886.194,724.01 886.894,723.081 887.594,722.992 888.294,724.132 888.994,724.418 889.694,723.627 890.394,720.944 
  891.095,723.831 891.795,726.526 892.495,725.706 893.195,722.382 893.895,722.726 894.595,722.881 895.295,724.971 895.996,724.419 896.696,724.738 897.396,725.036 
  898.096,723.09 898.796,722.33 899.496,722.788 900.196,725.271 900.896,725.755 901.597,725.15 902.297,722.36 902.997,723.537 903.697,723.968 904.397,723.202 
  905.097,721.653 905.797,723.487 906.498,724.42 907.198,723.4 907.898,724.059 908.598,724.063 909.298,724.232 909.998,724.779 910.698,727.903 911.398,724.869 
  912.099,724.706 912.799,726.167 913.499,726.361 914.199,726.265 914.899,728.287 915.599,728.786 916.299,728.527 917,727.285 917.7,724.847 918.4,726.575 
  919.1,727.297 919.8,729.695 920.5,728.319 921.2,729.425 921.9,730.179 922.601,735.83 923.301,740.103 924.001,741.757 924.701,743.745 925.401,746.379 
  926.101,753.506 926.801,759.49 927.502,767.244 928.202,770.756 928.902,776.536 929.602,781.375 930.302,786.725 931.002,790.718 931.702,797.446 932.402,802.393 
  933.103,803.84 933.803,807.804 934.503,813.894 935.203,818.856 935.903,820.372 936.603,823.456 937.303,824.889 938.004,825.838 938.704,826.945 939.404,830.313 
  940.104,831.121 940.804,832.543 941.504,833.814 942.204,833.443 942.905,834.375 943.605,836.024 944.305,835.116 945.005,831.99 945.705,832.852 946.405,835.102 
  947.105,835.869 947.806,834.75 948.506,833.649 949.206,827.396 949.906,825.119 950.606,827.606 951.306,829.816 952.007,825.208 952.707,818.516 953.407,818.329 
  954.107,817.82 954.807,815.956 955.507,815.439 956.207,812.621 956.908,806.266 957.608,804.004 958.308,803.17 959.008,801.614 959.708,798.883 960.408,796.667 
  961.108,793.821 961.809,790.775 962.509,792.324 963.209,790.655 963.909,787.208 964.609,783.212 965.309,782.651 966.01,780.682 966.71,781.124 967.41,779.701 
  968.11,776.538 968.81,772.641 969.51,771.95 970.21,772.249 970.911,768.915 971.611,767.748 972.311,766.937 973.011,765.29 973.711,760.751 974.411,761.684 
  975.112,760.72 975.812,760.432 976.512,757.717 977.212,757.962 977.912,757.579 978.612,756.333 979.312,752.889 980.013,751.01 980.713,750.702 981.413,750.58 
  982.113,750.69 982.813,749.513 983.513,749.248 984.214,749.334 984.914,749.58 985.614,745.418 986.314,744.647 987.014,746.374 987.714,749.43 988.414,749.28 
  989.115,748.528 989.815,749.995 990.515,752.253 991.215,753.36 991.915,752.502 992.615,753.425 993.315,752.62 994.016,751.7 994.716,749.508 995.416,750.13 
  996.116,749.265 996.816,750.459 997.516,753.242 998.217,754.171 998.917,752.925 999.617,750.929 1000.32,750.845 1001.02,748.542 1001.72,749.45 1002.42,748.908 
  1003.12,750.18 1003.82,750.701 1004.52,751.909 1005.22,748.922 1005.92,746.245 1006.62,744.969 1007.32,744.834 1008.02,744.041 1008.72,742.078 1009.42,742.635 
  1010.12,743.045 1010.82,742.481 1011.52,741.066 1012.22,742.691 1012.92,742.763 1013.62,741.606 1014.32,742.251 1015.02,744.408 1015.72,744.254 1016.42,741.108 
  1017.12,743.008 1017.82,744.225 1018.52,745.082 1019.22,744.437 1019.92,744.001 1020.62,743.205 1021.32,740.35 1022.02,738.797 1022.72,740.238 1023.42,741.415 
  1024.12,739.234 1024.82,736.698 1025.52,731.051 1026.22,734.063 1026.92,733.873 1027.62,734.028 1028.32,729.837 1029.02,730.095 1029.72,727.834 1030.42,727.613 
  1031.12,726.296 1031.82,727.29 1032.52,727.439 1033.22,727.245 1033.92,726.118 1034.62,723.121 1035.32,722.825 1036.02,721.103 1036.72,721.552 1037.42,718.858 
  1038.13,720.512 1038.83,717.942 1039.53,717.822 1040.23,716.542 1040.93,719.628 1041.63,718.171 1042.33,714.865 1043.03,715.948 1043.73,717.959 1044.43,720.114 
  1045.13,719.567 1045.83,714.775 1046.53,715.25 1047.23,714.415 1047.93,714.969 1048.63,717.32 1049.33,719.124 1050.03,711.024 1050.73,710.413 1051.43,714.512 
  1052.13,718.281 1052.83,718.13 1053.53,714.819 1054.23,710.617 1054.93,713.311 1055.63,715.435 1056.33,716.361 1057.03,715.668 1057.73,715.689 1058.43,714.095 
  1059.13,710.441 1059.83,710.754 1060.53,710.824 1061.23,712.891 1061.93,712.652 1062.63,713.485 1063.33,712.261 1064.03,713.064 1064.73,710.701 1065.43,711.274 
  1066.13,713.589 1066.83,715.693 1067.53,711.542 1068.23,708.28 1068.93,710.295 1069.63,712.619 1070.33,713.398 1071.03,713.069 1071.73,712.706 1072.43,711.144 
  1073.13,711.299 1073.83,711.221 1074.53,711.482 1075.23,712.281 1075.93,713.527 1076.63,711.688 1077.33,710.305 1078.03,711.904 1078.73,711.896 1079.43,712.667 
  1080.13,712.385 1080.83,711.399 1081.53,707.588 1082.23,708.979 1082.93,712.056 1083.63,713.205 1084.33,712.33 1085.03,711.847 1085.73,712.731 1086.43,711.943 
  1087.14,714.098 1087.84,713.163 1088.54,714.736 1089.24,713.424 1089.94,713.867 1090.64,711.667 1091.34,713.895 1092.04,712.638 1092.74,713.465 1093.44,714.626 
  1094.14,715.765 1094.84,713.215 1095.54,709.277 1096.24,712.551 1096.94,715.162 1097.64,714.93 1098.34,711.878 1099.04,714.31 1099.74,714.801 1100.44,714.592 
  1101.14,712.228 1101.84,714.08 1102.54,715.919 1103.24,715.356 1103.94,715.109 1104.64,715.1 1105.34,716.314 1106.04,715.78 1106.74,717.115 1107.44,716.971 
  1108.14,715.668 1108.84,714.618 1109.54,716.584 1110.24,717.362 1110.94,716.753 1111.64,715.128 1112.34,715.168 1113.04,717.818 1113.74,718.679 1114.44,718.37 
  1115.14,716.024 1115.84,717.505 1116.54,717.941 1117.24,717.848 1117.94,716.927 1118.64,719.236 1119.34,719.89 1120.04,719.722 1120.74,719.287 1121.44,718.991 
  1122.14,720.05 1122.84,720.315 1123.54,720.729 1124.24,720.781 1124.94,721.72 1125.64,720.427 1126.34,720.778 1127.04,720.271 1127.74,721.133 1128.44,719.101 
  1129.14,720.263 1129.84,718.9 1130.54,719.185 1131.24,718.673 1131.94,716.75 1132.64,716.901 1133.34,720.377 1134.04,721.232 1134.74,717.137 1135.44,714.762 
  1136.14,716.769 1136.84,720.145 1137.54,718.903 1138.24,714.686 1138.94,715.254 1139.65,718.007 1140.35,717.464 1141.05,714.733 1141.75,715.463 1142.45,718.757 
  1143.15,719.33 1143.85,717.03 1144.55,717.439 1145.25,718.766 1145.95,718.392 1146.65,716.43 1147.35,717.823 1148.05,720.124 1148.75,718.657 1149.45,717.4 
  1150.15,716.447 1150.85,717.504 1151.55,716.321 1152.25,716.274 1152.95,716.618 1153.65,718.218 1154.35,717.208 1155.05,717.323 1155.75,718.541 1156.45,718.065 
  1157.15,717.176 1157.85,717.847 1158.55,718.139 1159.25,717.689 1159.95,716.767 1160.65,716.407 1161.35,718.461 1162.05,719.044 1162.75,718.809 1163.45,717.088 
  1164.15,717.15 1164.85,719.043 1165.55,719.474 1166.25,718.432 1166.95,717.903 1167.65,719.132 1168.35,717.666 1169.05,716.854 1169.75,716.485 1170.45,717.976 
  1171.15,717.976 1171.85,723.869 1172.55,711.634 1173.25,711.779 1173.95,719.196 1174.65,724.116 1175.35,720.481 1176.05,712.808 1176.75,713.151 1177.45,716.418 
  1178.15,719.023 1178.85,720.286 1179.55,722.576 1180.25,719.933 1180.95,718.078 1181.65,716.457 1182.35,719.447 1183.05,721.904 1183.75,722.028 1184.45,719.087 
  1185.15,720.233 1185.85,721.192 1186.55,719.14 1187.25,720.282 1187.95,722.515 1188.65,721.708 1189.35,718.063 1190.05,719.887 1190.75,721.089 1191.45,722.322 
  1192.15,719.359 1192.85,718.372 1193.55,720.008 1194.25,721.591 1194.96,719.343 1195.66,719.135 1196.36,721.11 1197.06,721.952 1197.76,720.959 1198.46,717.919 
  1199.16,718.529 1199.86,720.6 1200.56,721.364 1201.26,721.355 1201.96,719.401 1202.66,720.578 1203.36,722.9 1204.06,729.125 1204.76,728.32 1205.46,727.736 
  1206.16,732.528 1206.86,743.115 1207.56,752.107 1208.26,757.942 1208.96,761.664 1209.66,769.253 1210.36,781.728 1211.06,795.649 1211.76,812.256 1212.46,822.141 
  1213.16,830.755 1213.86,845.466 1214.56,864.31 1215.26,881.731 1215.96,899.657 1216.66,914.553 1217.36,928.4 1218.06,944.103 1218.76,962.261 1219.46,979.707 
  1220.16,995.379 1220.86,1010.89 1221.56,1024.99 1222.26,1038.58 1222.96,1051.11 1223.66,1063.91 1224.36,1074.18 1225.06,1083.55 1225.76,1091.52 1226.46,1102.57 
  1227.16,1107.21 1227.86,1112.82 1228.56,1121.72 1229.26,1127.75 1229.96,1130.99 1230.66,1134.29 1231.36,1138.87 1232.06,1144.82 1232.76,1149.53 1233.46,1153.76 
  1234.16,1156.87 1234.86,1159.22 1235.56,1162.64 1236.26,1165.72 1236.96,1168.76 1237.66,1172.09 1238.36,1174.04 1239.06,1175.47 1239.76,1179.41 1240.46,1180.93 
  1241.16,1180.78 1241.86,1183.15 1242.56,1185.86 1243.26,1186.22 1243.96,1187.5 1244.66,1190.31 1245.36,1190.82 1246.06,1190.68 1246.76,1192.45 1247.46,1194.59 
  1248.16,1195.7 1248.86,1196.91 1249.56,1198.03 1250.26,1198.58 1250.96,1199.09 1251.66,1199.68 1252.36,1200.51 1253.07,1202.12 1253.77,1203.39 1254.47,1202.08 
  1255.17,1201.25 1255.87,1202.86 1256.57,1203.31 1257.27,1204.56 1257.97,1206.01 1258.67,1204.58 1259.37,1205.08 1260.07,1206.16 1260.77,1206.5 1261.47,1205.93 
  1262.17,1207.89 1262.87,1208.06 1263.57,1207.6 1264.27,1207.29 1264.97,1207.72 1265.67,1208.29 1266.37,1208.2 1267.07,1206.35 1267.77,1203.45 1268.47,1200.24 
  1269.17,1196.19 1269.87,1193.58 1270.57,1187.47 1271.27,1180.1 1271.97,1171.49 1272.67,1163.97 1273.37,1153.94 1274.07,1142.91 1274.77,1131.56 1275.47,1120.3 
  1276.17,1106.17 1276.87,1091.88 1277.57,1076.81 1278.27,1063.2 1278.97,1046.54 1279.67,1031.33 1280.37,1016.4 1281.07,1002.03 1281.77,985.781 1282.47,970.225 
  1283.17,955.873 1283.87,941.198 1284.57,926.278 1285.27,914.02 1285.97,900.522 1286.67,884.699 1287.37,873.655 1288.07,863.514 1288.77,852.548 1289.47,845.148 
  1290.17,840.353 1290.87,833.042 1291.57,824.105 1292.27,819.322 1292.97,815.803 1293.67,813.351 1294.37,811.23 1295.07,810.028 1295.77,809.072 1296.47,808.18 
  1297.17,809.848 1297.87,807.18 1298.57,805.69 1299.27,805.021 1299.97,803.785 1300.67,799.295 1301.37,798.551 1302.07,795.021 1302.77,788.835 1303.47,786.897 
  1304.17,783.698 1304.87,778.544 1305.57,776.124 1306.27,771.474 1306.97,766.077 1307.67,762.541 1308.37,761.909 1309.07,759.317 1309.77,756.897 1310.47,754.083 
  1311.17,751.789 1311.87,749.76 1312.57,747.698 1313.27,750.5 1313.98,748.555 1314.68,745.739 1315.38,741.832 1316.08,739.241 1316.78,738.657 1317.48,738.168 
  1318.18,737.21 1318.88,736.205 1319.58,735.488 1320.28,734.319 1320.98,733.616 1321.68,732.96 1322.38,731.347 1323.08,730.286 1323.78,731.297 1324.48,730.405 
  1325.18,728.795 1325.88,728.181 1326.58,727.496 1327.28,726.468 1327.98,726.12 1328.68,726.572 1329.38,726.605 1330.08,725.691 1330.78,725.727 1331.48,725.649 
  1332.18,724.464 1332.88,724.247 1333.58,724.545 1334.28,724.211 1334.98,723.454 1335.68,723.47 1336.38,723.151 1337.08,722.909 1337.78,723.627 1338.48,723.797 
  1339.18,723.121 1339.88,722.768 1340.58,722.605 1341.28,722.23 1341.98,722.547 1342.68,722.898 1343.38,723.003 1344.08,722.6 1344.78,722.78 1345.48,722.78 
  1346.18,722.725 1346.88,723.007 1347.58,723.38 1348.28,723.895 1348.98,724.987 1349.68,725.895 1350.38,727.187 1351.08,728.892 1351.78,730.428 1352.48,731.695 
  1353.18,732.988 1353.88,734.639 1354.58,735.902 1355.28,737.414 1355.98,738.602 1356.68,739.933 1357.38,741.12 1358.08,742.338 1358.78,743.364 1359.48,744.376 
  1360.18,745.321 1360.88,746.147 1361.58,747.306 1362.28,747.776 1362.98,748.382 1363.68,749.002 1364.38,748.858 1365.08,749.334 1365.78,750.279 1366.48,750.494 
  1367.18,751.138 1367.88,752.129 1368.58,752.219 1369.28,751.747 1369.98,751.974 1370.68,751.963 1371.38,751.118 1372.08,751.942 1372.78,753.21 1373.48,753.671 
  1374.18,752.822 1374.88,752.03 1375.59,751.012 1376.29,749.784 1376.99,749.972 1377.69,750.758 1378.39,751.324 1379.09,752.075 1379.79,752.775 1380.49,751.983 
  1381.19,750.799 1381.89,750.972 1382.59,751.133 1383.29,751.283 1383.99,753.48 1384.69,754.028 1385.39,752.427 1386.09,753.379 1386.79,754.045 1387.49,754.499 
  1388.19,756.312 1388.89,756.948 1389.59,757.986 1390.29,758.343 1390.99,759.12 1391.69,760.012 1392.39,760.678 1393.09,760.965 1393.79,761.344 1394.49,762.753 
  1395.19,763.735 1395.89,764.706 1396.59,765.057 1397.29,766.328 1397.99,765.736 1398.69,765.405 1399.39,766.43 1400.09,766.275 1400.79,766.519 1401.49,768.581 
  1402.19,769.338 1402.89,769.098 1403.59,768.542 1404.29,767.466 1404.99,766.239 1405.69,766.928 1406.39,768.182 1407.09,767.351 1407.79,766.797 1408.49,767.059 
  1409.19,766.524 1409.89,765.191 1410.59,766.114 1411.29,767.976 1411.99,769.213 1412.69,769.868 1413.39,770.422 1414.09,768.827 1414.79,767.171 1415.49,765.736 
  1416.19,765.454 1416.89,766.246 1417.59,767.596 1418.29,768.744 1418.99,769.205 1419.69,768.856 1420.39,769.42 1421.09,771.391 1421.79,772.229 1422.49,773.29 
  1423.19,773.89 1423.89,773.561 1424.59,773.92 1425.29,775.368 1425.99,777.552 1426.69,779.423 1427.39,779.335 1428.09,779.03 1428.79,779.356 1429.49,780.661 
  1430.19,781.601 1430.89,782.311 1431.59,783.307 1432.29,783.958 1432.99,784.788 1433.7,786.174 1434.4,787.355 1435.1,788.236 1435.8,788.612 1436.5,788.963 
  1437.2,790.069 1437.9,789.989 1438.6,789.748 1439.3,790.467 1440,791.749 1440.7,793.168 1441.4,793.88 1442.1,794.934 1442.8,794.639 1443.5,795.085 
  1444.2,797.003 1444.9,800.238 1445.6,804.313 1446.3,809.172 1447,814.764 1447.7,820.594 1448.4,827.091 1449.1,835.823 1449.8,843.583 1450.5,851.493 
  1451.2,861.488 1451.9,874.374 1452.6,886.346 1453.3,900.576 1454,911.912 1454.7,925.605 1455.4,938.607 1456.1,953.744 1456.8,969.428 1457.5,985.845 
  1458.2,1001.39 1458.9,1016.68 1459.6,1033.89 1460.3,1052.35 1461,1071.29 1461.7,1087.81 1462.4,1104.67 1463.1,1121.36 1463.8,1137.81 1464.5,1154.62 
  1465.2,1171.58 1465.9,1186.42 1466.6,1200.48 1467.3,1215.05 1468,1228.49 1468.7,1241.42 1469.4,1254.31 1470.1,1265.91 1470.8,1275.11 1471.5,1283.37 
  1472.2,1291.69 1472.9,1301.13 1473.6,1308.6 1474.3,1315.57 1475,1322.63 1475.7,1327.61 1476.4,1333.25 1477.1,1339.69 1477.8,1345.75 1478.5,1350.52 
  1479.2,1353.97 1479.9,1357.19 1480.6,1360.53 1481.3,1365.42 1482,1369.83 1482.7,1371.99 1483.4,1372.84 1484.1,1375.8 1484.8,1378.84 1485.5,1379.62 
  1486.21,1381.51 1486.91,1382.78 1487.61,1383.52 1488.31,1385.27 1489.01,1386.4 1489.71,1385.73 1490.41,1385.43 1491.11,1383.21 1491.81,1381.42 1492.51,1380.69 
  1493.21,1376.62 1493.91,1373.49 1494.61,1370.01 1495.31,1366.15 1496.01,1359.99 1496.71,1354.3 1497.41,1349.54 1498.11,1342.21 1498.81,1333.81 1499.51,1323.3 
  1500.21,1315.27 1500.91,1305.55 1501.61,1296.26 1502.31,1284.8 1503.01,1272.78 1503.71,1260.33 1504.41,1248.33 1505.11,1237.51 1505.81,1223.97 1506.51,1207.61 
  1507.21,1191.67 1507.91,1179.18 1508.61,1163.14 1509.31,1148.1 1510.01,1130.79 1510.71,1116.97 1511.41,1100.45 1512.11,1082.43 1512.81,1063.99 1513.51,1050.39 
  1514.21,1033.92 1514.91,1015.6 1515.61,994.835 1516.31,978.231 1517.01,962.51 1517.71,948.059 1518.41,933.626 1519.11,919.209 1519.81,905.419 1520.51,890.825 
  1521.21,879.594 1521.91,866.498 1522.61,859.334 1523.31,849.7 1524.01,840.374 1524.71,827.277 1525.41,824.838 1526.11,817.556 1526.81,812.038 1527.51,804.052 
  1528.21,799.934 1528.91,791.531 1529.61,788.08 1530.31,782.079 1531.01,780.479 1531.71,773.982 1532.41,768.752 1533.11,764.259 1533.81,763.068 1534.51,761.121 
  1535.22,758.692 1535.92,754.034 1536.62,750.521 1537.32,747.908 1538.02,745.58 1538.72,744.463 1539.42,742.53 1540.12,741.282 1540.82,737.837 1541.52,735.233 
  1542.22,734.304 1542.92,734.603 1543.62,732.213 1544.32,729.426 1545.02,726.212 1545.72,726.047 1546.42,726.17 1547.12,727.897 1547.82,725.115 1548.52,724.021 
  1549.22,719.273 1549.92,718.233 1550.62,719.206 1551.32,723.561 1552.02,718.062 1552.72,717.712 1553.42,717.273 1554.12,717.807 1554.82,716.749 1555.52,718.818 
  1556.22,716.302 1556.92,710.561 1557.62,713.709 1558.32,715.089 1559.02,716.098 1559.72,716.594 1560.42,711.498 1561.12,709.632 1561.82,712.393 1562.52,714.636 
  1563.22,716.34 1563.92,710.591 1564.62,706.504 1565.32,707.471 1566.02,712.709 1566.72,712.816 1567.42,714.416 1568.12,708.126 1568.82,705.869 1569.52,709.766 
  1570.22,713.569 1570.92,714.117 1571.62,711.625 1572.32,705.852 1573.02,708.748 1573.72,709.504 1574.42,713.989 1575.12,712.671 1575.82,708.772 1576.52,706.69 
  1577.22,709.527 1577.92,710.674 1578.62,713.967 1579.32,716.763 1580.02,717.148 1580.72,718.341 1581.42,718.676 1582.12,721.323 1582.82,723.57 1583.52,729.059 
  1584.22,731.178 1584.92,735.325 1585.62,737.86 1586.33,743.56 1587.03,746.99 1587.73,753.415 1588.43,755.24 1589.13,760.113 1589.83,763.269 1590.53,767.493 
  1591.23,770.601 1591.93,776.837 1592.63,775.818 1593.33,776.201 1594.03,781.061 1594.73,785.874 1595.43,784.195 1596.13,781.792 1596.83,783.274 1597.53,786.214 
  1598.23,786.009 1598.93,782.706 1599.63,783.18 1600.33,785.067 1601.03,785.605 1601.73,782.771 1602.43,782.182 1603.13,783.8 1603.83,782.919 1604.53,778.372 
  1605.23,777.741 1605.93,780.097 1606.63,779.294 1607.33,775.542 1608.03,772.651 1608.73,773.621 1609.43,774.915 1610.13,773.064 1610.83,769.501 1611.53,767.566 
  1612.23,768.04 1612.93,765.479 1613.63,764.312 1614.33,763.112 1615.03,762.325 1615.73,757.587 1616.43,756.112 1617.13,756.18 1617.83,757.689 1618.53,755.539 
  1619.23,751.974 1619.93,749.87 1620.63,750.408 1621.33,749.686 1622.03,747.79 1622.73,747.798 1623.43,746.526 1624.13,745.062 1624.83,740.748 1625.53,740.835 
  1626.23,740.471 1626.93,740.242 1627.63,735.691 1628.33,734.501 1629.03,731.834 1629.73,731.123 1630.43,731.181 1631.13,729.457 1631.83,727.235 1632.53,724.66 
  1633.23,724.37 1633.93,725.099 1634.63,724.833 1635.33,722.417 1636.03,722.108 1636.74,721.373 1637.44,721.243 1638.14,721.01 1638.84,718.957 1639.54,718.542 
  1640.24,718.876 1640.94,718.576 1641.64,715.182 1642.34,714.515 1643.04,716.227 1643.74,717.324 1644.44,713.511 1645.14,710.563 1645.84,711.37 1646.54,712.288 
  1647.24,714.312 1647.94,710.14 1648.64,708.915 1649.34,708.715 1650.04,713.921 1650.74,713.33 1651.44,713.501 1652.14,710.269 1652.84,711.532 1653.54,711.988 
  1654.24,715.803 1654.94,717.64 1655.64,710.069 1656.34,710.174 1657.04,713.05 1657.74,717.179 1658.44,717.641 1659.14,716.292 1659.84,711.085 1660.54,713.508 
  1661.24,713.989 1661.94,716.55 1662.64,718.218 1663.34,721.274 1664.04,719.122 1664.74,719.615 1665.44,716.738 1666.14,715.332 1666.84,720.134 1667.54,725.005 
  1668.24,721.601 1668.94,717.034 1669.64,721.832 1670.34,724.864 1671.04,725.135 1671.74,724.165 1672.44,720.536 1673.14,722.43 1673.84,725.864 1674.54,729.346 
  1675.24,726.147 1675.94,720.771 1676.64,721.313 1677.34,724.709 1678.04,725.544 1678.74,724.098 1679.44,723.471 1680.14,723.554 1680.84,722.074 1681.54,719.97 
  1682.24,721.286 1682.94,722.792 1683.64,723.363 1684.34,721.005 1685.04,719.972 1685.74,720.064 1686.44,720.371 1687.14,717.377 1687.84,717.641 1688.55,717.608 
  1689.25,717.465 1689.95,717.054 1690.65,716.614 1691.35,716.259 1692.05,717.371 1692.75,716.852 1693.45,715.088 1694.15,715.943 1694.85,718.018 1695.55,716.453 
  1696.25,713.211 1696.95,714.578 1697.65,717.52 1698.35,716.93 1699.05,713.044 1699.75,712.751 1700.45,715.536 1701.15,716.077 1701.85,712.412 1702.55,710.325 
  1703.25,713.435 1703.95,713.336 1704.65,712.909 1705.35,713.733 1706.05,714.78 1706.75,714.867 1707.45,711.056 1708.15,711.39 1708.85,713.314 1709.55,715.163 
  1710.25,715.055 1710.95,716.176 1711.65,714.497 1712.35,715.71 1713.05,716.786 1713.75,717.234 1714.45,717.484 1715.15,719.718 1715.85,716.466 1716.55,711.207 
  1717.25,713.692 1717.95,718.068 1718.65,720.705 1719.35,713.716 1720.05,711.307 1720.75,714.728 1721.45,717.031 1722.15,714.733 1722.85,715.312 1723.55,717.63 
  1724.25,713.511 1724.95,713.224 1725.65,715.29 1726.35,716.717 1727.05,713.99 1727.75,708.554 1728.45,710.929 1729.15,715.813 1729.85,718.87 1730.55,715.608 
  1731.25,712.007 1731.95,711.147 1732.65,711.456 1733.35,709.964 1734.05,713.131 1734.75,714.028 1735.45,713.921 1736.15,711.707 1736.85,712.809 1737.55,714.782 
  1738.25,714.843 1738.95,710.62 1739.65,712.015 1740.35,713.261 1741.05,713.978 1741.75,712.868 1742.45,712.887 1743.15,713.627 1743.86,708.814 1744.56,709.825 
  1745.26,711.546 1745.96,712.706 1746.66,713.289 1747.36,713.387 1748.06,709.698 1748.76,709.256 1749.46,712.79 1750.16,715.922 1750.86,713.73 1751.56,710.293 
  1752.26,712.033 1752.96,711.878 1753.66,710.621 1754.36,709.947 1755.06,712.543 1755.76,713.352 1756.46,711.217 1757.16,709.056 1757.86,711.152 1758.56,713.164 
  1759.26,710.149 1759.96,708.503 1760.66,710.746 1761.36,713.005 1762.06,710.167 1762.76,708.962 1763.46,709.282 1764.16,712.026 1764.86,712.308 1765.56,712.014 
  1766.26,712.185 1766.96,712.233 1767.66,711.221 1768.36,708.441 1769.06,711.017 1769.76,714.088 1770.46,714.396 1771.16,709.902 1771.86,710.933 1772.56,712.728 
  1773.26,711.734 1773.96,709.472 1774.66,707.693 1775.36,711.703 1776.06,713.055 1776.76,709.757 1777.46,709.402 1778.16,712.962 1778.86,712.282 1779.56,710.756 
  1780.26,707.664 1780.96,714.172 1781.66,717.021 1782.36,715.232 1783.06,707.67 1783.76,706.949 1784.46,710.833 1785.16,713.346 1785.86,713.801 1786.56,713.168 
  1787.26,713.69 1787.96,711.562 1788.66,711.355 1789.36,713.218 1790.06,714.4 1790.76,712.557 1791.46,712.447 1792.16,711.844 1792.86,714.171 1793.56,712.729 
  1794.26,709.27 1794.96,709.099 1795.66,713.275 1796.36,714.17 1797.06,712.002 1797.76,711.203 1798.46,713.625 1799.16,713.772 1799.86,712.964 1800.56,708.374 
  1801.27,712.595 1801.97,720.258 1802.67,719.015 1803.37,711.073 1804.07,704.661 1804.77,709.627 1805.47,716.54 1806.17,718.378 1806.87,714.591 1807.57,710.333 
  1808.27,710.639 1808.97,713.703 1809.67,718.063 1810.37,720.966 1811.07,714.723 1811.77,707.952 1812.47,711.805 1813.17,714.678 1813.87,714.468 1814.57,718.719 
  1815.27,719.185 1815.97,710.612 1816.67,710.56 1817.37,716.405 1818.07,717.524 1818.77,716.732 1819.47,716.16 1820.17,712.29 1820.87,711.68 1821.57,713.834 
  1822.27,715.621 1822.97,713.953 1823.67,713.007 1824.37,712.458 1825.07,712.667 1825.77,711.972 1826.47,713.547 1827.17,717.073 1827.87,719.307 1828.57,715.221 
  1829.27,713.242 1829.97,715.508 1830.67,715.231 1831.37,714.361 1832.07,713.049 1832.77,713.936 1833.47,715.319 1834.17,716.054 1834.87,715.682 1835.57,717.282 
  1836.27,712.714 1836.97,709.952 1837.67,713.766 1838.37,716.048 1839.07,717.453 1839.77,716.263 1840.47,712.538 1841.17,711.229 1841.87,714.955 1842.57,715.095 
  1843.27,713.946 1843.97,714.041 1844.67,715.296 1845.37,714.688 1846.07,712.174 1846.77,714.719 1847.47,716.871 1848.17,716.322 1848.87,713.586 1849.57,712.977 
  1850.27,714.41 1850.97,716.248 1851.67,713.792 1852.37,713.723 1853.07,715.827 1853.77,717.567 1854.47,712.854 1855.17,710.511 1855.87,715.717 1856.57,717.906 
  1857.27,714.89 1857.97,709.017 1858.67,713.709 1859.37,717.252 1860.07,721.058 1860.77,715.103 1861.47,709.435 1862.18,714.428 1862.88,717.976 1863.58,718.951 
  1864.28,717.527 1864.98,714.974 1865.68,712.091 1866.38,712.625 1867.08,715.068 1867.78,718.238 1868.48,717.415 1869.18,716.258 1869.88,714.066 1870.58,714.078 
  1871.28,714.254 1871.98,714.418 1872.68,716.016 1873.38,718.119 1874.08,719.58 1874.78,714.384 1875.48,715.315 1876.18,716.351 1876.88,718.373 1877.58,714.367 
  1878.28,715.409 1878.98,716.548 1879.68,717.11 1880.38,714.187 1881.08,716.184 1881.78,715.712 1882.48,714.771 1883.18,714.392 1883.88,715.54 1884.58,715.832 
  1885.28,712.601 1885.98,714.477 1886.68,713.893 1887.38,714.404 1888.08,713.435 1888.78,714.697 1889.48,713.04 1890.18,713.939 1890.88,714.11 1891.58,714.38 
  1892.28,715.244 1892.98,716.939 1893.68,717.464 1894.38,715.84 1895.08,713.935 1895.78,714.269 1896.48,716.637 1897.18,716.568 1897.88,716.669 1898.58,714.539 
  1899.28,713.996 1899.98,715.212 1900.68,714.179 1901.38,712.936 1902.08,715.222 1902.78,716.8 1903.48,712.879 1904.18,712.444 1904.88,714.595 1905.58,716.324 
  1906.28,714.435 1906.98,714.34 1907.68,716.529 1908.38,716.627 1909.08,714.993 1909.78,713.246 1910.48,716.007 1911.18,717.916 1911.88,717.028 1912.58,713.197 
  1913.28,715.848 1913.98,717.599 1914.68,717.231 1915.38,715.053 1916.08,716.465 1916.78,715.505 1917.48,713.273 1918.18,711.523 1918.88,713.336 1919.58,716.75 
  1920.28,716.267 1920.98,714.203 1921.68,713.667 1922.38,716.834 1923.08,717.399 1923.78,714.757 1924.48,713.403 1925.18,716.197 1925.89,719.526 1926.59,716.963 
  1927.29,714.237 1927.99,716.195 1928.69,719.356 1929.39,717.136 1930.09,718.955 1930.79,721.875 1931.49,721.32 1932.19,717.021 1932.89,718.234 1933.59,720.256 
  1934.29,721.475 1934.99,721.778 1935.69,721.783 1936.39,723.011 1937.09,723.657 1937.79,722.925 1938.49,720.407 1939.19,722.949 1939.89,722.875 1940.59,720.915 
  1941.29,719.586 1941.99,720.847 1942.69,722.691 1943.39,722.854 1944.09,721.728 1944.79,720.454 1945.49,722.544 1946.19,721.548 1946.89,722.23 1947.59,722.867 
  1948.29,727.407 1948.99,725.419 1949.69,722.506 1950.39,721.899 1951.09,726.113 1951.79,726.543 1952.49,723.497 1953.19,721.376 1953.89,725.233 1954.59,727.498 
  1955.29,726.108 1955.99,727.146 1956.69,730.004 1957.39,731.225 1958.09,731.14 1958.79,733.674 1959.49,736.483 1960.19,738.325 1960.89,740.211 1961.59,742.583 
  1962.29,744.351 1962.99,744.5 1963.69,749.363 1964.39,750.289 1965.09,754.821 1965.79,759.217 1966.49,759.817 1967.19,758.042 1967.89,757.33 1968.59,762.447 
  1969.29,761.551 1969.99,759.936 1970.69,753.815 1971.39,749.992 1972.09,743.698 1972.79,738.158 1973.49,728.427 1974.19,722.179 1974.89,710.9 1975.59,698.092 
  1976.29,686.583 1976.99,678.287 1977.69,664.761 1978.39,647.8 1979.09,633.303 1979.79,620.385 1980.49,606.325 1981.19,592.202 1981.89,580.354 1982.59,568.796 
  1983.29,558.619 1983.99,546.675 1984.69,534.192 1985.39,522.93 1986.09,510.918 1986.79,498.316 1987.49,486.775 1988.2,476.448 1988.9,468.31 1989.6,461.381 
  1990.3,454.746 1991,444.161 1991.7,433.892 1992.4,425.864 1993.1,419.26 1993.8,413.651 1994.5,407.527 1995.2,401.421 1995.9,393.72 1996.6,388.422 
  1997.3,384.756 1998,379.611 1998.7,373.529 1999.4,369.354 2000.1,365.512 2000.8,362.482 2001.5,361.044 2002.2,357.921 2002.9,356.396 2003.6,356.03 
  2004.3,353.463 2005,353.069 2005.7,353.534 2006.4,355.025 2007.1,354.248 2007.8,354.579 2008.5,357.056 2009.2,359.756 2009.9,361.331 2010.6,362.245 
  2011.3,364.432 2012,366.472 2012.7,367.932 2013.4,371.017 2014.1,374.842 2014.8,377.522 2015.5,378.966 2016.2,380.537 2016.9,383.225 2017.6,386.346 
  2018.3,388.591 2019,389.963 2019.7,391.855 2020.4,393.398 2021.1,394.337 2021.8,395.659 2022.5,398.671 2023.2,398.98 2023.9,399.38 2024.6,399.808 
  2025.3,400.151 2026,400.304 2026.7,400.392 2027.4,400.973 2028.1,401.126 2028.8,400.712 2029.5,400.493 2030.2,400.844 2030.9,401.449 2031.6,402.513 
  2032.3,404.952 2033,408.562 2033.7,412.209 2034.4,416.279 2035.1,420.578 2035.8,424.423 2036.5,428.122 2037.21,432.353 2037.91,437.357 2038.61,444.919 
  2039.31,452.865 2040.01,460.781 2040.71,469.56 2041.41,480.032 2042.11,491.529 2042.81,502.203 2043.51,513.778 2044.21,524.97 2044.91,535.137 2045.61,547.295 
  2046.31,562.145 2047.01,575.726 2047.71,588.957 2048.41,602.584 2049.11,616.303 2049.81,627.106 2050.51,636.244 2051.21,648.274 2051.91,661.003 2052.61,670.158 
  2053.31,679.648 2054.01,689.729 2054.71,700.027 2055.41,709.305 2056.11,717.463 2056.81,723.02 2057.51,727.372 2058.21,731.712 2058.91,734.094 2059.61,736.373 
  2060.31,739.055 2061.01,738.556 2061.71,740.648 2062.41,744.713 2063.11,749.563 2063.81,753.476 2064.51,758.685 2065.21,759.822 2065.91,761.941 2066.61,767.975 
  2067.31,772.996 2068.01,773.455 2068.71,776.72 2069.41,780.767 2070.11,782.654 2070.81,784.637 2071.51,788.045 2072.21,789.39 2072.91,789.644 2073.61,789.992 
  2074.31,790.262 2075.01,789.012 2075.71,788.734 2076.41,788.196 2077.11,791.696 2077.82,786.957 2078.52,787.369 2079.22,786.364 2079.92,779.088 2080.62,773.353 
  2081.32,770.78 2082.02,768.378 2082.72,766.47 2083.42,765.355 2084.12,761.812 2084.82,757.672 2085.52,754.696 2086.22,750.085 2086.92,746.781 2087.62,744.03 
  2088.32,740.462 2089.02,737.131 2089.72,733.744 2090.42,729.304 2091.12,725.049 2091.82,721.688 2092.52,719.218 2093.22,716.357 2093.92,712.741 2094.62,709.977 
  2095.32,705.618 2096.02,701.55 2096.72,698.975 2097.42,696.405 2098.12,694.173 2098.82,692.145 2099.52,689.806 2100.22,687.957 2100.92,686.064 2101.62,684.797 
  2102.32,683.002 2103.02,680.994 2103.72,679.619 2104.42,677.558 2105.12,675.578 2105.82,674.509 2106.52,673.899 2107.22,672.997 2107.92,671.987 2108.62,670.989 
  2109.32,670.446 2110.02,669.55 2110.72,669.103 2111.42,668.852 2112.12,668.839 2112.82,668.994 2113.52,668.75 2114.22,668.632 2114.92,668.299 2115.62,667.877 
  2116.32,667.872 2117.02,668.2 2117.73,668.507 2118.43,668.514 2119.13,668.299 2119.83,667.93 2120.53,667.475 2121.23,667.273 2121.93,667.806 2122.63,668.637 
  2123.33,669.134 2124.03,669.764 2124.73,670.353 2125.43,670.234 2126.13,670.29 2126.83,670.509 2127.53,670.602 2128.23,670.91 2128.93,671.476 2129.63,672.003 
  2130.33,672.439 2131.03,673.068 2131.73,673.6 2132.43,673.706 2133.13,674.25 2133.83,674.757 2134.53,675.675 2135.23,676.587 2135.93,677.326 2136.63,677.849 
  2137.33,678.392 2138.03,679.4 2138.73,680.117 2139.43,680.564 2140.13,680.814 2140.83,681.047 2141.53,681.431 2142.23,682.011 2142.93,682.497 2143.63,682.728 
  2144.33,682.999 2145.03,683.029 2145.73,683.057 2146.43,683.583 2147.13,684.129 2147.83,684.472 2148.53,685.014 2149.23,685.408 2149.93,685.553 2150.63,686.023 
  2151.33,686.682 2152.03,687.131 2152.73,688.05 2153.43,688.797 2154.13,689.271 2154.83,689.935 2155.53,690.945 2156.23,692.164 2156.93,693.58 2157.63,695.123 
  2158.33,696.453 2159.03,697.915 2159.73,699.224 2160.43,700.668 2161.13,702.293 2161.83,703.865 2162.54,705.277 2163.24,706.705 2163.94,708.037 2164.64,709.336 
  2165.34,710.714 2166.04,711.556 2166.74,712.675 2167.44,713.775 2168.14,714.856 2168.84,715.809 2169.54,716.588 2170.24,717.147 2170.94,717.558 2171.64,717.663 
  2172.34,717.705 2173.04,717.799 2173.74,717.943 2174.44,718.243 2175.14,718.245 2175.84,718.581 2176.54,718.671 2177.24,718.532 2177.94,718.458 2178.64,718 
  2179.34,718.016 2180.04,717.809 2180.74,717.559 2181.44,717.048 2182.14,716.849 2182.84,716.941 2183.54,716.748 2184.24,716.846 2184.94,716.214 2185.64,715.735 
  2186.34,715.454 2187.04,715.415 2187.74,715.322 2188.44,715.068 2189.14,715.053 2189.84,714.983 2190.54,714.862 2191.24,714.526 2191.94,714.268 2192.64,714.137 
  2193.34,714.405 2194.04,714.598 2194.74,714.612 2195.44,714.457 2196.14,714.368 2196.84,714.563 2197.54,714.522 2198.24,714.762 2198.94,715.04 2199.64,715.356 
  2200.34,715.317 2201.04,715.613 2201.74,716.168 2202.44,716.463 2203.14,716.682 2203.84,717.108 2204.54,717.451 2205.24,717.548 2205.94,717.693 2206.64,718.163 
  2207.34,718.545 2208.04,719.012 2208.74,719.059 2209.44,719.491 2210.15,719.283 2210.85,719.255 2211.55,719.284 2212.25,719.7 2212.95,719.866 2213.65,719.909 
  2214.35,719.949 2215.05,720.041 2215.75,720.183 2216.45,720.204 2217.15,720.278 2217.85,720.125 2218.55,720.316 2219.25,720.16 2219.95,720.348 2220.65,720.634 
  2221.35,720.845 2222.05,721.208 2222.75,721.491 2223.45,721.422 2224.15,721.523 2224.85,721.784 2225.55,722.25 2226.25,722.518 2226.95,722.823 2227.65,723.108 
  2228.35,723.15 2229.05,723.246 2229.75,723.501 2230.45,723.795 2231.15,723.79 2231.85,723.786 2232.55,723.781 2233.25,723.888 2233.95,724.154 2234.65,724.291 
  2235.35,724.585 2236.05,724.914 2236.75,724.721 2237.45,724.763 2238.15,724.858 2238.85,725.001 2239.55,725.19 2240.25,725.7 2240.95,725.508 2241.65,725.44 
  2242.35,725.488 2243.05,725.532 2243.75,725.572 2244.45,725.999 2245.15,726.619 2245.85,726.808 2246.55,726.928 2247.25,727.596 2247.95,727.886 2248.65,727.767 
  2249.35,727.711 2250.05,727.714 2250.75,728.05 2251.45,728.975 2252.15,729.837 2252.85,730.142 2253.55,730.259 2254.25,730.312 2254.95,730.362 2255.65,730.408 
  2256.35,730.728 2257.05,731.027 2257.75,731.027 2258.45,731.139 2259.15,731.576 2259.85,731.539 2260.56,731.727 2261.26,731.902 2261.96,732.121 2262.66,732.38 
  2263.36,732.51 2264.06,732.298 2264.76,731.988 2265.46,731.81 2266.16,731.366 2266.86,731.674 2267.56,732.35 2268.26,733.259 2268.96,733.329 2269.66,733.004 
  2270.36,732.646 2271.06,732.311 2271.76,732.165 2272.46,732.251 2273.16,732.664 2273.86,732.716 2274.56,732.542 2275.26,732.712 2275.96,732.315 2276.66,731.888 
  2277.36,732.212 2278.06,732.181 2278.76,732.151 2279.46,731.957 2280.16,732.164 2280.86,732.301 2281.56,732.373 2282.26,732.496 2282.96,732.888 2283.66,733.198 
  2284.36,733.209 2285.06,732.997 2285.76,733.243 2286.46,733.416 2287.16,733.801 2287.86,734.103 2288.56,734.274 2289.26,734.6 2289.96,735.182 2290.66,735.447 
  2291.36,735.527 2292.06,735.712 2292.76,735.609 2293.46,735.679 
  "/>
<path clip-path="url(#clip250)" d="
M1505.21 270.476 L2282.92 270.476 L2282.92 166.796 L1505.21 166.796  Z
  " fill="#ffffff" fill-rule="evenodd" fill-opacity="1"/>
<polyline clip-path="url(#clip250)" style="stroke:#000000; stroke-linecap:butt; stroke-linejoin:round; stroke-width:4; stroke-opacity:1; fill:none" points="
  1505.21,270.476 2282.92,270.476 2282.92,166.796 1505.21,166.796 1505.21,270.476 
  "/>
<polyline clip-path="url(#clip250)" style="stroke:#009af9; stroke-linecap:butt; stroke-linejoin:round; stroke-width:4; stroke-opacity:1; fill:none" points="
  1528.49,218.636 1668.16,218.636 
  "/>
<path clip-path="url(#clip250)" d="M1711.94 210.985 L1711.94 214.967 Q1710.14 213.971 1708.31 213.485 Q1706.51 212.976 1704.65 212.976 Q1700.51 212.976 1698.22 215.615 Q1695.93 218.231 1695.93 222.976 Q1695.93 227.721 1698.22 230.36 Q1700.51 232.976 1704.65 232.976 Q1706.51 232.976 1708.31 232.49 Q1710.14 231.981 1711.94 230.985 L1711.94 234.92 Q1710.16 235.754 1708.24 236.17 Q1706.34 236.587 1704.19 236.587 Q1698.33 236.587 1694.88 232.906 Q1691.44 229.226 1691.44 222.976 Q1691.44 216.633 1694.91 212.999 Q1698.4 209.365 1704.47 209.365 Q1706.44 209.365 1708.31 209.782 Q1710.19 210.175 1711.94 210.985 Z" fill="#000000" fill-rule="evenodd" fill-opacity="1" /><path clip-path="url(#clip250)" d="M1731.13 222.883 Q1725.97 222.883 1723.98 224.064 Q1721.99 225.244 1721.99 228.092 Q1721.99 230.36 1723.47 231.703 Q1724.98 233.022 1727.55 233.022 Q1731.09 233.022 1733.22 230.522 Q1735.37 227.999 1735.37 223.832 L1735.37 222.883 L1731.13 222.883 M1739.63 221.124 L1739.63 235.916 L1735.37 235.916 L1735.37 231.981 Q1733.91 234.342 1731.74 235.476 Q1729.56 236.587 1726.41 236.587 Q1722.43 236.587 1720.07 234.365 Q1717.73 232.119 1717.73 228.369 Q1717.73 223.994 1720.65 221.772 Q1723.59 219.55 1729.4 219.55 L1735.37 219.55 L1735.37 219.133 Q1735.37 216.194 1733.43 214.596 Q1731.5 212.976 1728.01 212.976 Q1725.79 212.976 1723.68 213.508 Q1721.57 214.041 1719.63 215.106 L1719.63 211.17 Q1721.97 210.268 1724.17 209.828 Q1726.37 209.365 1728.45 209.365 Q1734.07 209.365 1736.85 212.282 Q1739.63 215.198 1739.63 221.124 Z" fill="#000000" fill-rule="evenodd" fill-opacity="1" /><path clip-path="url(#clip250)" d="M1748.4 199.897 L1752.66 199.897 L1752.66 235.916 L1748.4 235.916 L1748.4 199.897 Z" fill="#000000" fill-rule="evenodd" fill-opacity="1" /><path clip-path="url(#clip250)" d="M1780.23 210.985 L1780.23 214.967 Q1778.43 213.971 1776.6 213.485 Q1774.79 212.976 1772.94 212.976 Q1768.8 212.976 1766.5 215.615 Q1764.21 218.231 1764.21 222.976 Q1764.21 227.721 1766.5 230.36 Q1768.8 232.976 1772.94 232.976 Q1774.79 232.976 1776.6 232.49 Q1778.43 231.981 1780.23 230.985 L1780.23 234.92 Q1778.45 235.754 1776.53 236.17 Q1774.63 236.587 1772.48 236.587 Q1766.62 236.587 1763.17 232.906 Q1759.72 229.226 1759.72 222.976 Q1759.72 216.633 1763.19 212.999 Q1766.69 209.365 1772.75 209.365 Q1774.72 209.365 1776.6 209.782 Q1778.47 210.175 1780.23 210.985 Z" fill="#000000" fill-rule="evenodd" fill-opacity="1" /><path clip-path="url(#clip250)" d="M1787.2 225.684 L1787.2 209.99 L1791.46 209.99 L1791.46 225.522 Q1791.46 229.203 1792.89 231.055 Q1794.33 232.883 1797.2 232.883 Q1800.65 232.883 1802.64 230.684 Q1804.65 228.485 1804.65 224.689 L1804.65 209.99 L1808.91 209.99 L1808.91 235.916 L1804.65 235.916 L1804.65 231.934 Q1803.1 234.295 1801.04 235.453 Q1799 236.587 1796.3 236.587 Q1791.83 236.587 1789.51 233.809 Q1787.2 231.031 1787.2 225.684 M1797.92 209.365 L1797.92 209.365 Z" fill="#000000" fill-rule="evenodd" fill-opacity="1" /><path clip-path="url(#clip250)" d="M1817.69 199.897 L1821.94 199.897 L1821.94 235.916 L1817.69 235.916 L1817.69 199.897 Z" fill="#000000" fill-rule="evenodd" fill-opacity="1" /><path clip-path="url(#clip250)" d="M1842.64 222.883 Q1837.48 222.883 1835.49 224.064 Q1833.5 225.244 1833.5 228.092 Q1833.5 230.36 1834.98 231.703 Q1836.48 233.022 1839.05 233.022 Q1842.59 233.022 1844.72 230.522 Q1846.87 227.999 1846.87 223.832 L1846.87 222.883 L1842.64 222.883 M1851.13 221.124 L1851.13 235.916 L1846.87 235.916 L1846.87 231.981 Q1845.42 234.342 1843.24 235.476 Q1841.06 236.587 1837.92 236.587 Q1833.93 236.587 1831.57 234.365 Q1829.24 232.119 1829.24 228.369 Q1829.24 223.994 1832.15 221.772 Q1835.09 219.55 1840.9 219.55 L1846.87 219.55 L1846.87 219.133 Q1846.87 216.194 1844.93 214.596 Q1843.01 212.976 1839.51 212.976 Q1837.29 212.976 1835.18 213.508 Q1833.08 214.041 1831.13 215.106 L1831.13 211.17 Q1833.47 210.268 1835.67 209.828 Q1837.87 209.365 1839.95 209.365 Q1845.58 209.365 1848.36 212.282 Q1851.13 215.198 1851.13 221.124 Z" fill="#000000" fill-rule="evenodd" fill-opacity="1" /><path clip-path="url(#clip250)" d="M1864.12 202.629 L1864.12 209.99 L1872.89 209.99 L1872.89 213.3 L1864.12 213.3 L1864.12 227.374 Q1864.12 230.545 1864.98 231.448 Q1865.86 232.351 1868.52 232.351 L1872.89 232.351 L1872.89 235.916 L1868.52 235.916 Q1863.59 235.916 1861.71 234.087 Q1859.84 232.235 1859.84 227.374 L1859.84 213.3 L1856.71 213.3 L1856.71 209.99 L1859.84 209.99 L1859.84 202.629 L1864.12 202.629 Z" fill="#000000" fill-rule="evenodd" fill-opacity="1" /><path clip-path="url(#clip250)" d="M1900.67 221.888 L1900.67 223.971 L1881.09 223.971 Q1881.37 228.369 1883.73 230.684 Q1886.11 232.976 1890.35 232.976 Q1892.8 232.976 1895.09 232.374 Q1897.41 231.772 1899.68 230.569 L1899.68 234.596 Q1897.38 235.568 1894.98 236.078 Q1892.57 236.587 1890.09 236.587 Q1883.89 236.587 1880.25 232.976 Q1876.64 229.365 1876.64 223.207 Q1876.64 216.842 1880.07 213.115 Q1883.52 209.365 1889.35 209.365 Q1894.58 209.365 1897.62 212.745 Q1900.67 216.101 1900.67 221.888 M1896.41 220.638 Q1896.37 217.143 1894.44 215.059 Q1892.55 212.976 1889.4 212.976 Q1885.83 212.976 1883.68 214.99 Q1881.55 217.004 1881.23 220.661 L1896.41 220.638 Z" fill="#000000" fill-rule="evenodd" fill-opacity="1" /><path clip-path="url(#clip250)" d="M1924.72 213.925 L1924.72 199.897 L1928.98 199.897 L1928.98 235.916 L1924.72 235.916 L1924.72 232.027 Q1923.38 234.342 1921.32 235.476 Q1919.28 236.587 1916.41 236.587 Q1911.71 236.587 1908.75 232.837 Q1905.81 229.087 1905.81 222.976 Q1905.81 216.865 1908.75 213.115 Q1911.71 209.365 1916.41 209.365 Q1919.28 209.365 1921.32 210.499 Q1923.38 211.61 1924.72 213.925 M1910.21 222.976 Q1910.21 227.675 1912.13 230.36 Q1914.07 233.022 1917.45 233.022 Q1920.83 233.022 1922.78 230.36 Q1924.72 227.675 1924.72 222.976 Q1924.72 218.277 1922.78 215.615 Q1920.83 212.93 1917.45 212.93 Q1914.07 212.93 1912.13 215.615 Q1910.21 218.277 1910.21 222.976 Z" fill="#000000" fill-rule="evenodd" fill-opacity="1" /><path clip-path="url(#clip250)" d="M1964.61 222.883 Q1959.44 222.883 1957.45 224.064 Q1955.46 225.244 1955.46 228.092 Q1955.46 230.36 1956.94 231.703 Q1958.45 233.022 1961.02 233.022 Q1964.56 233.022 1966.69 230.522 Q1968.84 227.999 1968.84 223.832 L1968.84 222.883 L1964.61 222.883 M1973.1 221.124 L1973.1 235.916 L1968.84 235.916 L1968.84 231.981 Q1967.38 234.342 1965.21 235.476 Q1963.03 236.587 1959.88 236.587 Q1955.9 236.587 1953.54 234.365 Q1951.2 232.119 1951.2 228.369 Q1951.2 223.994 1954.12 221.772 Q1957.06 219.55 1962.87 219.55 L1968.84 219.55 L1968.84 219.133 Q1968.84 216.194 1966.9 214.596 Q1964.98 212.976 1961.48 212.976 Q1959.26 212.976 1957.15 213.508 Q1955.05 214.041 1953.1 215.106 L1953.1 211.17 Q1955.44 210.268 1957.64 209.828 Q1959.84 209.365 1961.92 209.365 Q1967.55 209.365 1970.32 212.282 Q1973.1 215.198 1973.1 221.124 Z" fill="#000000" fill-rule="evenodd" fill-opacity="1" /><path clip-path="url(#clip250)" d="M2000.53 210.985 L2000.53 214.967 Q1998.73 213.971 1996.9 213.485 Q1995.09 212.976 1993.24 212.976 Q1989.1 212.976 1986.8 215.615 Q1984.51 218.231 1984.51 222.976 Q1984.51 227.721 1986.8 230.36 Q1989.1 232.976 1993.24 232.976 Q1995.09 232.976 1996.9 232.49 Q1998.73 231.981 2000.53 230.985 L2000.53 234.92 Q1998.75 235.754 1996.83 236.17 Q1994.93 236.587 1992.78 236.587 Q1986.92 236.587 1983.47 232.906 Q1980.02 229.226 1980.02 222.976 Q1980.02 216.633 1983.49 212.999 Q1986.99 209.365 1993.05 209.365 Q1995.02 209.365 1996.9 209.782 Q1998.77 210.175 2000.53 210.985 Z" fill="#000000" fill-rule="evenodd" fill-opacity="1" /><path clip-path="url(#clip250)" d="M2026.6 210.985 L2026.6 214.967 Q2024.79 213.971 2022.96 213.485 Q2021.16 212.976 2019.3 212.976 Q2015.16 212.976 2012.87 215.615 Q2010.58 218.231 2010.58 222.976 Q2010.58 227.721 2012.87 230.36 Q2015.16 232.976 2019.3 232.976 Q2021.16 232.976 2022.96 232.49 Q2024.79 231.981 2026.6 230.985 L2026.6 234.92 Q2024.81 235.754 2022.89 236.17 Q2020.99 236.587 2018.84 236.587 Q2012.98 236.587 2009.54 232.906 Q2006.09 229.226 2006.09 222.976 Q2006.09 216.633 2009.56 212.999 Q2013.05 209.365 2019.12 209.365 Q2021.09 209.365 2022.96 209.782 Q2024.84 210.175 2026.6 210.985 Z" fill="#000000" fill-rule="evenodd" fill-opacity="1" /><path clip-path="url(#clip250)" d="M2056.18 221.888 L2056.18 223.971 L2036.6 223.971 Q2036.87 228.369 2039.23 230.684 Q2041.62 232.976 2045.86 232.976 Q2048.31 232.976 2050.6 232.374 Q2052.92 231.772 2055.18 230.569 L2055.18 234.596 Q2052.89 235.568 2050.48 236.078 Q2048.08 236.587 2045.6 236.587 Q2039.4 236.587 2035.76 232.976 Q2032.15 229.365 2032.15 223.207 Q2032.15 216.842 2035.58 213.115 Q2039.03 209.365 2044.86 209.365 Q2050.09 209.365 2053.12 212.745 Q2056.18 216.101 2056.18 221.888 M2051.92 220.638 Q2051.87 217.143 2049.95 215.059 Q2048.05 212.976 2044.91 212.976 Q2041.34 212.976 2039.19 214.99 Q2037.06 217.004 2036.73 220.661 L2051.92 220.638 Z" fill="#000000" fill-rule="evenodd" fill-opacity="1" /><path clip-path="url(#clip250)" d="M2063.17 199.897 L2067.43 199.897 L2067.43 235.916 L2063.17 235.916 L2063.17 199.897 Z" fill="#000000" fill-rule="evenodd" fill-opacity="1" /><path clip-path="url(#clip250)" d="M2098.52 221.888 L2098.52 223.971 L2078.93 223.971 Q2079.21 228.369 2081.57 230.684 Q2083.96 232.976 2088.19 232.976 Q2090.65 232.976 2092.94 232.374 Q2095.25 231.772 2097.52 230.569 L2097.52 234.596 Q2095.23 235.568 2092.82 236.078 Q2090.42 236.587 2087.94 236.587 Q2081.73 236.587 2078.1 232.976 Q2074.49 229.365 2074.49 223.207 Q2074.49 216.842 2077.92 213.115 Q2081.36 209.365 2087.2 209.365 Q2092.43 209.365 2095.46 212.745 Q2098.52 216.101 2098.52 221.888 M2094.26 220.638 Q2094.21 217.143 2092.29 215.059 Q2090.39 212.976 2087.24 212.976 Q2083.68 212.976 2081.53 214.99 Q2079.4 217.004 2079.07 220.661 L2094.26 220.638 Z" fill="#000000" fill-rule="evenodd" fill-opacity="1" /><path clip-path="url(#clip250)" d="M2120.53 213.971 Q2119.81 213.555 2118.96 213.37 Q2118.12 213.161 2117.1 213.161 Q2113.49 213.161 2111.55 215.522 Q2109.63 217.86 2109.63 222.258 L2109.63 235.916 L2105.35 235.916 L2105.35 209.99 L2109.63 209.99 L2109.63 214.018 Q2110.97 211.657 2113.12 210.522 Q2115.28 209.365 2118.35 209.365 Q2118.79 209.365 2119.33 209.434 Q2119.86 209.481 2120.51 209.596 L2120.53 213.971 Z" fill="#000000" fill-rule="evenodd" fill-opacity="1" /><path clip-path="url(#clip250)" d="M2136.78 222.883 Q2131.62 222.883 2129.63 224.064 Q2127.64 225.244 2127.64 228.092 Q2127.64 230.36 2129.12 231.703 Q2130.62 233.022 2133.19 233.022 Q2136.73 233.022 2138.86 230.522 Q2141.02 227.999 2141.02 223.832 L2141.02 222.883 L2136.78 222.883 M2145.28 221.124 L2145.28 235.916 L2141.02 235.916 L2141.02 231.981 Q2139.56 234.342 2137.38 235.476 Q2135.21 236.587 2132.06 236.587 Q2128.08 236.587 2125.72 234.365 Q2123.38 232.119 2123.38 228.369 Q2123.38 223.994 2126.29 221.772 Q2129.23 219.55 2135.04 219.55 L2141.02 219.55 L2141.02 219.133 Q2141.02 216.194 2139.07 214.596 Q2137.15 212.976 2133.66 212.976 Q2131.43 212.976 2129.33 213.508 Q2127.22 214.041 2125.28 215.106 L2125.28 211.17 Q2127.61 210.268 2129.81 209.828 Q2132.01 209.365 2134.1 209.365 Q2139.72 209.365 2142.5 212.282 Q2145.28 215.198 2145.28 221.124 Z" fill="#000000" fill-rule="evenodd" fill-opacity="1" /><path clip-path="url(#clip250)" d="M2158.26 202.629 L2158.26 209.99 L2167.04 209.99 L2167.04 213.3 L2158.26 213.3 L2158.26 227.374 Q2158.26 230.545 2159.12 231.448 Q2160 232.351 2162.66 232.351 L2167.04 232.351 L2167.04 235.916 L2162.66 235.916 Q2157.73 235.916 2155.85 234.087 Q2153.98 232.235 2153.98 227.374 L2153.98 213.3 L2150.85 213.3 L2150.85 209.99 L2153.98 209.99 L2153.98 202.629 L2158.26 202.629 Z" fill="#000000" fill-rule="evenodd" fill-opacity="1" /><path clip-path="url(#clip250)" d="M2172.64 209.99 L2176.9 209.99 L2176.9 235.916 L2172.64 235.916 L2172.64 209.99 M2172.64 199.897 L2176.9 199.897 L2176.9 205.291 L2172.64 205.291 L2172.64 199.897 Z" fill="#000000" fill-rule="evenodd" fill-opacity="1" /><path clip-path="url(#clip250)" d="M2195.85 212.976 Q2192.43 212.976 2190.44 215.661 Q2188.45 218.323 2188.45 222.976 Q2188.45 227.629 2190.41 230.314 Q2192.41 232.976 2195.85 232.976 Q2199.26 232.976 2201.25 230.291 Q2203.24 227.606 2203.24 222.976 Q2203.24 218.37 2201.25 215.684 Q2199.26 212.976 2195.85 212.976 M2195.85 209.365 Q2201.41 209.365 2204.58 212.976 Q2207.75 216.587 2207.75 222.976 Q2207.75 229.342 2204.58 232.976 Q2201.41 236.587 2195.85 236.587 Q2190.28 236.587 2187.1 232.976 Q2183.96 229.342 2183.96 222.976 Q2183.96 216.587 2187.1 212.976 Q2190.28 209.365 2195.85 209.365 Z" fill="#000000" fill-rule="evenodd" fill-opacity="1" /><path clip-path="url(#clip250)" d="M2236.36 220.268 L2236.36 235.916 L2232.1 235.916 L2232.1 220.407 Q2232.1 216.726 2230.67 214.897 Q2229.23 213.069 2226.36 213.069 Q2222.91 213.069 2220.92 215.268 Q2218.93 217.467 2218.93 221.263 L2218.93 235.916 L2214.65 235.916 L2214.65 209.99 L2218.93 209.99 L2218.93 214.018 Q2220.46 211.68 2222.52 210.522 Q2224.6 209.365 2227.31 209.365 Q2231.78 209.365 2234.07 212.143 Q2236.36 214.897 2236.36 220.268 Z" fill="#000000" fill-rule="evenodd" fill-opacity="1" /></svg>
